<svg xmlns="http://www.w3.org/2000/svg" xmlns:xlink="http://www.w3.org/1999/xlink" width="49" zoomAndPan="magnify" viewBox="0 0 810 809.999993" height="49" preserveAspectRatio="xMidYMid meet" version="1.0"><path fill="#000000" d="M 75.761719 499.675781 C 75.761719 500.503906 75.679688 501.328125 75.515625 502.140625 C 75.355469 502.953125 75.117188 503.742188 74.796875 504.507812 C 74.480469 505.273438 74.09375 506 73.632812 506.691406 C 73.171875 507.378906 72.648438 508.019531 72.0625 508.605469 C 71.476562 509.191406 70.835938 509.714844 70.148438 510.175781 C 69.457031 510.636719 68.730469 511.023438 67.964844 511.339844 C 67.199219 511.660156 66.410156 511.898438 65.597656 512.058594 C 64.785156 512.222656 63.960938 512.300781 63.132812 512.300781 C 62.304688 512.300781 61.484375 512.222656 60.671875 512.058594 C 59.855469 511.898438 59.066406 511.660156 58.300781 511.339844 C 57.535156 511.023438 56.808594 510.636719 56.117188 510.175781 C 55.429688 509.714844 54.792969 509.191406 54.203125 508.605469 C 53.617188 508.019531 53.09375 507.378906 52.632812 506.691406 C 52.175781 506 51.785156 505.273438 51.46875 504.507812 C 51.152344 503.742188 50.910156 502.953125 50.75 502.140625 C 50.585938 501.328125 50.507812 500.503906 50.507812 499.675781 C 50.507812 498.847656 50.585938 498.027344 50.75 497.214844 C 50.910156 496.398438 51.152344 495.609375 51.46875 494.84375 C 51.785156 494.078125 52.175781 493.351562 52.632812 492.660156 C 53.09375 491.972656 53.617188 491.335938 54.203125 490.75 C 54.792969 490.160156 55.429688 489.636719 56.117188 489.179688 C 56.808594 488.71875 57.535156 488.328125 58.300781 488.011719 C 59.066406 487.695312 59.855469 487.453125 60.671875 487.292969 C 61.484375 487.132812 62.304688 487.050781 63.132812 487.050781 C 63.960938 487.050781 64.785156 487.132812 65.597656 487.292969 C 66.410156 487.453125 67.199219 487.695312 67.964844 488.011719 C 68.730469 488.328125 69.457031 488.71875 70.148438 489.179688 C 70.835938 489.636719 71.476562 490.160156 72.0625 490.75 C 72.648438 491.335938 73.171875 491.972656 73.632812 492.660156 C 74.09375 493.351562 74.480469 494.078125 74.796875 494.84375 C 75.117188 495.609375 75.355469 496.398438 75.515625 497.214844 C 75.679688 498.027344 75.761719 498.847656 75.761719 499.675781 Z M 75.761719 499.675781 " fill-opacity="1" fill-rule="nonzero"/><path fill="#000000" d="M 656.585938 664.445312 L 656.585938 651.1875 C 656.585938 630.355469 639.539062 613.308594 618.707031 613.308594 L 492.441406 613.308594 C 471.605469 613.308594 454.558594 630.355469 454.558594 651.1875 L 454.558594 664.445312 C 436.882812 667.601562 422.992188 682.753906 422.992188 701.691406 L 422.992188 726.945312 C 422.992188 733.886719 428.675781 739.570312 435.621094 739.570312 L 675.527344 739.570312 C 682.46875 739.570312 688.152344 733.886719 688.152344 726.945312 L 688.152344 701.691406 C 688.152344 682.753906 674.261719 667.601562 656.585938 664.445312 Z M 479.8125 651.1875 C 479.8125 644.242188 485.496094 638.5625 492.441406 638.5625 L 618.707031 638.5625 C 625.652344 638.5625 631.332031 644.242188 631.332031 651.1875 L 631.332031 663.8125 L 479.8125 663.8125 Z M 662.898438 714.316406 L 448.246094 714.316406 L 448.246094 701.691406 C 448.246094 694.746094 453.929688 689.066406 460.871094 689.066406 L 650.273438 689.066406 C 657.21875 689.066406 662.898438 694.746094 662.898438 701.691406 Z M 662.898438 714.316406 " fill-opacity="1" fill-rule="nonzero"/><path fill="#000000" d="M 549.257812 316.597656 C 549.257812 309.65625 543.578125 303.972656 536.632812 303.972656 L 347.234375 303.972656 C 343.445312 303.972656 340.289062 305.867188 337.761719 308.390625 C 339.027344 308.390625 369.328125 315.335938 386.375 329.226562 L 536.632812 329.226562 C 543.578125 329.226562 549.257812 323.542969 549.257812 316.597656 Z M 549.257812 316.597656 " fill-opacity="1" fill-rule="nonzero"/><path fill="#000000" d="M 263.898438 428.339844 C 285.992188 427.707031 349.757812 424.550781 363.648438 418.238281 C 381.957031 410.03125 389.53125 388.566406 382.585938 367.101562 C 375.011719 343.113281 354.175781 338.0625 337.132812 333.644531 C 337.132812 333.644531 254.425781 312.179688 230.4375 307.128906 C 217.179688 303.972656 190.664062 297.660156 172.355469 314.707031 L 118.691406 361.421875 C 117.429688 361.421875 115.535156 360.789062 113.640625 360.789062 L 12.625 360.789062 C 5.683594 360.789062 0 366.472656 0 373.417969 C 0 380.359375 5.683594 386.042969 12.625 386.042969 L 101.011719 386.042969 L 101.011719 537.554688 L 56.820312 537.554688 C 49.875 537.554688 44.191406 543.234375 44.191406 550.179688 C 44.191406 557.125 49.875 562.804688 56.820312 562.804688 L 113.640625 562.804688 C 118.058594 562.804688 122.480469 560.28125 124.371094 556.492188 C 124.371094 556.492188 176.773438 556.492188 176.773438 556.492188 C 183.71875 556.492188 189.398438 550.8125 189.398438 543.867188 L 189.398438 502.203125 C 229.171875 482.632812 254.425781 444.121094 263.898438 428.339844 Z M 171.722656 482.632812 C 166.671875 484.523438 164.148438 488.945312 164.148438 494.625 L 164.148438 531.242188 L 126.265625 531.242188 L 126.265625 389.199219 C 126.265625 389.199219 190.664062 333.011719 190.664062 333.011719 C 200.765625 325.4375 215.914062 329.855469 225.386719 332.382812 C 248.746094 337.433594 331.449219 358.894531 331.449219 358.894531 C 346.601562 362.683594 355.441406 365.210938 359.226562 375.308594 C 361.753906 382.886719 360.492188 392.355469 353.546875 395.511719 C 343.445312 399.929688 268.949219 403.71875 256.953125 403.71875 C 251.902344 403.71875 247.484375 406.242188 245.589844 410.664062 C 244.324219 411.292969 217.808594 463.691406 171.722656 482.632812 Z M 171.722656 482.632812 " fill-opacity="1" fill-rule="nonzero"/><path fill="#000000" d="M 397.738281 714.316406 L 265.160156 714.316406 C 258.214844 714.316406 252.53125 708.636719 252.53125 701.691406 L 252.53125 485.789062 C 244.957031 493.363281 236.75 501.570312 227.28125 508.515625 L 227.28125 526.820312 C 222.859375 526.191406 218.441406 525.558594 214.652344 524.296875 L 214.652344 543.867188 C 214.652344 545.761719 214.652344 547.65625 214.023438 549.550781 C 217.808594 550.179688 221.597656 550.8125 225.386719 551.441406 C 226.015625 551.441406 226.648438 551.441406 227.28125 551.441406 L 227.28125 701.691406 C 227.28125 722.523438 244.324219 739.570312 265.160156 739.570312 L 399.632812 739.570312 C 398.371094 735.78125 397.738281 731.363281 397.738281 726.945312 Z M 397.738281 714.316406 " fill-opacity="1" fill-rule="nonzero"/><path fill="#000000" d="M 374.378906 440.964844 C 366.804688 444.121094 352.914062 446.648438 336.5 448.539062 C 338.394531 452.328125 342.8125 454.855469 347.234375 454.855469 L 455.191406 454.855469 C 456.453125 452.960938 465.921875 437.808594 475.394531 429.601562 L 390.164062 429.601562 C 385.746094 434.652344 380.0625 438.441406 374.378906 440.964844 Z M 374.378906 440.964844 " fill-opacity="1" fill-rule="nonzero"/><path fill="#000000" d="M 536.632812 367.101562 L 408.472656 367.101562 C 410.367188 375.941406 410.367188 384.148438 409.734375 392.355469 L 525.269531 392.355469 L 542.316406 368.996094 C 541.050781 367.734375 539.15625 367.101562 536.632812 367.101562 Z M 536.632812 367.101562 " fill-opacity="1" fill-rule="nonzero"/><path fill="#000000" d="M 347.234375 493.363281 C 340.289062 493.363281 334.605469 499.042969 334.605469 505.988281 C 334.605469 512.933594 340.289062 518.613281 347.234375 518.613281 L 460.242188 518.613281 C 454.558594 511.039062 450.773438 502.203125 449.507812 493.363281 Z M 347.234375 493.363281 " fill-opacity="1" fill-rule="nonzero"/><path fill="#000000" d="M 347.234375 556.492188 C 340.289062 556.492188 334.605469 562.175781 334.605469 569.121094 C 334.605469 576.0625 340.289062 581.746094 347.234375 581.746094 L 536.632812 581.746094 C 537.265625 581.746094 538.527344 581.746094 539.15625 581.746094 L 506.328125 556.492188 Z M 347.234375 556.492188 " fill-opacity="1" fill-rule="nonzero"/><path fill="#000000" d="M 252.53125 286.296875 L 252.53125 108.269531 C 252.53125 101.324219 258.214844 95.644531 265.160156 95.644531 L 492.441406 95.644531 L 492.441406 196.652344 C 492.441406 217.484375 509.484375 234.53125 530.320312 234.53125 L 631.332031 234.53125 L 631.332031 281.878906 C 636.382812 283.773438 641.433594 286.296875 646.484375 290.085938 L 656.585938 298.292969 L 656.585938 221.273438 C 656.585938 218.117188 655.324219 214.960938 652.796875 212.433594 L 518.957031 74.179688 C 516.429688 71.65625 513.90625 70.390625 510.117188 70.390625 L 265.160156 70.390625 C 244.324219 70.390625 227.28125 87.4375 227.28125 108.269531 L 227.28125 280.613281 C 230.4375 281.246094 233.59375 281.878906 236.117188 282.507812 C 241.800781 283.773438 246.851562 285.035156 252.53125 286.296875 Z M 530.320312 209.277344 C 523.375 209.277344 517.691406 203.597656 517.691406 196.652344 L 517.691406 113.320312 L 613.65625 209.277344 Z M 530.320312 209.277344 " fill-opacity="1" fill-rule="nonzero"/><path fill="#000000" d="M 656.585938 567.855469 L 634.488281 547.023438 C 633.859375 549.550781 632.59375 552.074219 631.332031 553.96875 L 631.332031 588.6875 C 640.800781 590.582031 649.011719 594.371094 656.585938 600.054688 Z M 656.585938 567.855469 " fill-opacity="1" fill-rule="nonzero"/><path fill="#000000" d="M 632.59375 477.582031 L 642.695312 463.691406 L 788.535156 556.492188 C 794.214844 560.28125 802.425781 558.386719 806.210938 552.707031 C 810 547.023438 808.105469 538.816406 802.425781 535.027344 L 657.847656 442.859375 L 667.949219 428.96875 C 670.476562 429.601562 673 430.234375 675.527344 430.234375 C 685.628906 430.234375 695.097656 425.183594 700.777344 416.976562 L 707.09375 408.769531 C 717.195312 394.878906 714.039062 374.679688 700.777344 363.945312 C 700.777344 363.945312 630.703125 310.285156 630.703125 310.285156 C 616.8125 299.554688 596.609375 302.710938 586.507812 317.230469 L 580.195312 325.4375 C 572.617188 336.167969 572.617188 350.691406 578.933594 361.421875 L 518.324219 444.121094 C 514.535156 442.859375 510.117188 442.859375 505.699219 443.492188 C 497.488281 444.753906 489.914062 449.171875 484.863281 456.117188 L 478.550781 464.324219 C 468.449219 478.210938 471.605469 498.414062 484.863281 509.144531 C 484.863281 509.144531 554.941406 562.804688 554.941406 562.804688 C 568.832031 573.539062 589.035156 570.382812 599.132812 555.863281 L 605.449219 547.65625 C 613.023438 536.921875 613.023438 522.402344 606.710938 511.671875 L 616.8125 497.78125 C 616.8125 497.78125 786.007812 653.714844 786.007812 654.34375 C 791.058594 658.765625 799.265625 658.765625 803.6875 653.714844 C 808.738281 648.664062 808.105469 640.457031 803.054688 636.035156 Z M 589.035156 494.625 L 540.421875 457.378906 L 597.871094 378.464844 L 646.484375 415.714844 Z M 601.027344 340.589844 C 601.027344 340.589844 607.34375 332.382812 607.34375 332.382812 C 609.234375 329.855469 613.023438 329.226562 615.550781 331.121094 L 685.628906 384.78125 C 688.785156 387.304688 689.414062 391.722656 686.890625 394.878906 C 686.890625 394.878906 680.578125 403.085938 680.578125 403.085938 C 678.683594 405.613281 674.894531 406.242188 672.371094 404.351562 L 602.292969 350.691406 C 599.765625 348.164062 599.136719 343.113281 601.027344 340.589844 Z M 585.875 532.503906 C 585.875 532.503906 579.5625 540.710938 579.5625 540.710938 C 577.667969 543.234375 573.882812 543.867188 571.355469 541.972656 L 501.277344 488.3125 C 498.121094 485.789062 497.488281 481.367188 500.015625 478.210938 C 500.015625 478.210938 506.328125 470.003906 506.328125 470.003906 C 508.222656 467.480469 512.011719 466.21875 514.535156 468.742188 L 584.613281 522.402344 C 587.140625 524.929688 587.769531 529.980469 585.875 532.503906 Z M 585.875 532.503906 " fill-opacity="1" fill-rule="nonzero"/></svg>