<svg width="23" height="39" viewBox="0 0 23 39" fill="none" xmlns="http://www.w3.org/2000/svg">
<path d="M10.4198 38.3667C11.0056 38.9525 11.9553 38.9525 12.5411 38.3667L22.0871 28.8208C22.6729 28.235 22.6729 27.2852 22.0871 26.6995C21.5013 26.1137 20.5515 26.1137 19.9657 26.6995L11.4805 35.1847L2.99519 26.6995C2.4094 26.1137 1.45965 26.1137 0.873867 26.6995C0.28808 27.2852 0.28808 28.235 0.873867 28.8208L10.4198 38.3667ZM9.98047 0.734218C9.98047 1.56265 10.652 2.23422 11.4805 2.23422C12.3089 2.23422 12.9805 1.56265 12.9805 0.734218H9.98047ZM12.9805 7.60678C12.9805 6.77835 12.3089 6.10678 11.4805 6.10678C10.652 6.10678 9.98047 6.77835 9.98047 7.60678H12.9805ZM9.98047 8.09768C9.98047 8.9261 10.652 9.59768 11.4805 9.59768C12.3089 9.59768 12.9805 8.9261 12.9805 8.09768H9.98047ZM12.9805 14.9702C12.9805 14.1418 12.3089 13.4702 11.4805 13.4702C10.652 13.4702 9.98047 14.1418 9.98047 14.9702H12.9805ZM9.98047 15.4611C9.98047 16.2896 10.652 16.9611 11.4805 16.9611C12.3089 16.9611 12.9805 16.2896 12.9805 15.4611H9.98047ZM12.9805 22.3337C12.9805 21.5053 12.3089 20.8337 11.4805 20.8337C10.652 20.8337 9.98047 21.5053 9.98047 22.3337H12.9805ZM9.98047 22.8246C9.98047 23.653 10.652 24.3246 11.4805 24.3246C12.3089 24.3246 12.9805 23.653 12.9805 22.8246H9.98047ZM12.9805 29.6972C12.9805 28.8687 12.3089 28.1972 11.4805 28.1972C10.652 28.1972 9.98047 28.8687 9.98047 29.6972H12.9805ZM9.98047 30.1881C9.98047 31.0165 10.652 31.6881 11.4805 31.6881C12.3089 31.6881 12.9805 31.0165 12.9805 30.1881H9.98047ZM12.9805 37.0606C12.9805 36.2322 12.3089 35.5606 11.4805 35.5606C10.652 35.5606 9.98047 36.2322 9.98047 37.0606H12.9805ZM9.98047 0.48877V0.734218H12.9805V0.48877H9.98047ZM9.98047 7.60678V8.09768H12.9805V7.60678H9.98047ZM9.98047 14.9702V15.4611H12.9805V14.9702H9.98047ZM9.98047 22.3337V22.8246H12.9805V22.3337H9.98047ZM9.98047 29.6972V30.1881H12.9805V29.6972H9.98047ZM9.98047 37.0606V37.3061H12.9805V37.0606H9.98047Z" fill="#BBBBBB"/>
</svg>
