<svg width="575" height="572" viewBox="0 0 575 572" fill="none" xmlns="http://www.w3.org/2000/svg">
<path fill-rule="evenodd" clip-rule="evenodd" d="M441.322 540.467C501.33 505.37 552.124 449.022 569.408 383.207C586.124 319.555 560.786 255.361 531.034 198.858C505.233 149.862 457.952 120.473 413.505 87.1353C367.386 52.5426 326.671 -8.09746 267.562 1.23681C207.65 10.6979 189.134 89.7933 142.732 129.895C102.606 164.572 39.551 172.338 15.5818 219.003C-9.36453 267.57 1.10407 324.703 16.8783 374.914C32.5841 424.908 63.4148 467.14 103.929 500.222C146.973 535.37 196.838 561.293 253.393 568.039C316.986 575.625 384.657 573.61 441.322 540.467Z" fill="url(#paint0)"/>
<path d="M170.622 228.771L130.825 219.506C130.825 219.506 104.216 217.114 100.618 240.765C97.0197 264.415 98.0623 404.531 99.1885 433.428C99.5597 442.953 99.5141 451.753 98.7036 459.427C97.0155 475.411 109.487 489.373 125.558 489.651L199.647 490.933L170.622 228.771Z" fill="url(#paint1)"/>
<path d="M251.527 230.695C251.527 230.695 179.063 234.677 130.825 219.506C130.825 219.506 162.893 217.309 162.893 291.347C162.893 347.953 154.498 455.998 161.827 476.507C169.157 497.017 196.566 524.587 235.855 500.893C275.145 477.199 251.527 230.695 251.527 230.695Z" fill="#E44147"/>
<path d="M270.793 119.695C270.793 119.695 190.84 128.41 180.541 114.858C180.541 114.858 188.734 90.4681 213.065 92.0909C237.396 93.7137 270.793 119.695 270.793 119.695Z" fill="url(#paint2)"/>
<path d="M530.825 147.135C523.853 225.487 509.209 391.216 502.838 471.946C502.152 480.651 498.35 488.817 492.13 494.947C485.911 501.076 477.69 504.757 468.975 505.316C404.798 509.435 260.365 517.428 204.939 509.992H204.939C211.161 506.924 216.393 502.164 220.032 496.259C223.672 490.353 225.573 483.541 225.516 476.604L222.573 114.343C222.469 101.542 209.72 92.3448 197.733 96.8364C190.181 99.6662 184.462 105.695 180.54 114.858C185.773 99.6085 194.003 88.4515 213.064 92.091C213.064 92.091 399.492 93.9548 489.956 99.5639C514.538 101.088 533.008 122.603 530.825 147.135Z" fill="#F8676D"/>
<path d="M484.706 109.934L234.204 100.29C244.536 176.779 240.176 332.545 236.233 486.055C236.119 490.517 234.768 494.86 232.331 498.6C229.894 502.34 226.467 505.329 222.431 507.236C222.431 507.236 389.515 509.161 461.306 504.069C469.512 503.482 477.273 500.117 483.309 494.527C489.345 488.937 493.296 481.457 494.511 473.32C504.367 407.55 527.947 237.643 523.039 147.69C521.915 127.092 505.321 110.727 484.706 109.934Z" fill="url(#paint3)"/>
<path d="M268.552 222.352L269.88 250.532C269.998 253.031 271.013 255.403 272.739 257.213C274.465 259.024 276.786 260.152 279.276 260.389L295.551 261.941C296.943 262.073 298.347 261.924 299.68 261.501C301.013 261.078 302.247 260.39 303.308 259.479C304.369 258.568 305.235 257.452 305.855 256.199C306.474 254.945 306.834 253.579 306.914 252.183L308.629 221.963C308.711 220.529 308.494 219.093 307.992 217.747C307.491 216.4 306.716 215.173 305.716 214.141C304.716 213.109 303.514 212.296 302.184 211.753C300.854 211.209 299.426 210.948 297.99 210.984L278.671 211.473C277.287 211.508 275.925 211.819 274.663 212.387C273.401 212.956 272.266 213.771 271.323 214.784C270.381 215.798 269.65 216.989 269.174 218.289C268.698 219.588 268.487 220.97 268.552 222.352Z" fill="#B3B3B3"/>
<path d="M326.396 216.973C353.591 217.67 457.992 220.198 484.355 220.836C485.143 220.855 485.92 221.033 486.639 221.358C487.357 221.684 488.003 222.15 488.538 222.731C489.072 223.311 489.485 223.993 489.75 224.735C490.016 225.478 490.13 226.267 490.084 227.055C489.998 228.576 489.325 230.004 488.208 231.039C487.09 232.075 485.615 232.637 484.091 232.607L326.191 229.512C324.724 229.483 323.32 228.907 322.255 227.897C321.19 226.887 320.541 225.515 320.435 224.051L320.38 223.283C320.32 222.464 320.432 221.642 320.709 220.868C320.986 220.095 321.422 219.389 321.989 218.794C322.556 218.2 323.241 217.731 324 217.417C324.759 217.104 325.575 216.952 326.396 216.973Z" fill="#B3B3B3"/>
<path d="M322.597 253.808C322.802 254.201 323.107 254.532 323.481 254.768C323.856 255.004 324.286 255.136 324.729 255.152L433.057 258.943C433.711 258.966 434.348 258.732 434.832 258.291C435.315 257.85 435.607 257.236 435.644 256.583L436.049 249.45C436.068 249.114 436.019 248.777 435.905 248.461C435.791 248.144 435.615 247.853 435.386 247.606C435.157 247.359 434.881 247.161 434.573 247.023C434.266 246.886 433.934 246.811 433.598 246.805L328.197 244.767C323.502 244.676 320.424 249.645 322.597 253.808Z" fill="#D6D6D6"/>
<path d="M264.138 300.102L265.467 328.282C265.585 330.78 266.6 333.153 268.325 334.963C270.051 336.774 272.372 337.901 274.862 338.139L291.137 339.69C292.529 339.823 293.934 339.673 295.267 339.25C296.6 338.828 297.833 338.14 298.894 337.229C299.955 336.318 300.821 335.202 301.441 333.949C302.061 332.695 302.421 331.329 302.5 329.933L304.216 299.713C304.297 298.278 304.08 296.843 303.579 295.496C303.077 294.15 302.302 292.922 301.303 291.891C300.303 290.859 299.1 290.046 297.77 289.503C296.44 288.959 295.012 288.697 293.576 288.734L274.257 289.222C272.874 289.257 271.511 289.568 270.249 290.137C268.988 290.706 267.852 291.521 266.91 292.534C265.967 293.547 265.237 294.739 264.761 296.038C264.285 297.338 264.073 298.719 264.138 300.102Z" fill="#B3B3B3"/>
<path d="M321.983 294.723C349.177 295.42 453.578 297.948 479.941 298.586C480.73 298.605 481.507 298.782 482.225 299.108C482.944 299.433 483.59 299.9 484.124 300.48C484.659 301.061 485.071 301.742 485.337 302.485C485.602 303.228 485.716 304.017 485.671 304.804L485.671 304.804C485.584 306.325 484.912 307.754 483.794 308.789C482.676 309.825 481.201 310.386 479.678 310.357L321.778 307.262C320.31 307.233 318.906 306.657 317.841 305.647C316.777 304.636 316.127 303.265 316.022 301.801L315.966 301.033C315.906 300.214 316.018 299.391 316.296 298.618C316.573 297.845 317.009 297.139 317.576 296.544C318.142 295.95 318.827 295.481 319.586 295.167C320.346 294.853 321.162 294.702 321.983 294.723Z" fill="#B3B3B3"/>
<path opacity="0.78" d="M318.183 331.558C318.388 331.95 318.693 332.281 319.068 332.518C319.442 332.754 319.873 332.886 320.315 332.902L428.643 336.693C429.297 336.716 429.935 336.482 430.418 336.04C430.902 335.599 431.193 334.986 431.231 334.333L431.636 327.2C431.655 326.863 431.606 326.527 431.492 326.21C431.378 325.893 431.201 325.603 430.972 325.356C430.743 325.109 430.467 324.911 430.16 324.773C429.853 324.635 429.521 324.561 429.184 324.554L323.783 322.516C319.089 322.426 316.011 327.395 318.183 331.558Z" fill="#D6D6D6"/>
<path d="M259.725 377.851L261.053 406.031C261.171 408.53 262.186 410.902 263.912 412.713C265.638 414.523 267.959 415.651 270.449 415.888L286.723 417.44C288.116 417.572 289.52 417.423 290.853 417C292.186 416.577 293.42 415.889 294.481 414.978C295.542 414.067 296.408 412.952 297.027 411.698C297.647 410.444 298.007 409.079 298.086 407.682L299.802 377.462C299.883 376.028 299.667 374.592 299.165 373.246C298.664 371.9 297.889 370.672 296.889 369.64C295.889 368.609 294.686 367.795 293.357 367.252C292.027 366.709 290.599 366.447 289.162 366.483L269.844 366.972C268.46 367.007 267.098 367.318 265.836 367.886C264.574 368.455 263.439 369.27 262.496 370.283C261.554 371.297 260.823 372.488 260.347 373.788C259.871 375.087 259.66 376.469 259.725 377.851Z" fill="#B3B3B3"/>
<path d="M317.569 372.472C344.764 373.169 449.165 375.697 475.528 376.335C476.316 376.354 477.093 376.532 477.812 376.857C478.53 377.183 479.176 377.65 479.711 378.23C480.245 378.81 480.658 379.492 480.923 380.235C481.189 380.978 481.302 381.766 481.257 382.554C481.171 384.075 480.498 385.503 479.38 386.539C478.263 387.574 476.787 388.136 475.264 388.106L317.364 385.011C315.897 384.982 314.493 384.406 313.428 383.396C312.363 382.386 311.714 381.014 311.608 379.55L311.552 378.783C311.493 377.963 311.605 377.141 311.882 376.368C312.159 375.595 312.595 374.888 313.162 374.294C313.729 373.699 314.414 373.23 315.173 372.916C315.932 372.603 316.748 372.452 317.569 372.472Z" fill="#B3B3B3"/>
<path d="M313.77 409.307C313.974 409.7 314.28 410.031 314.654 410.267C315.029 410.503 315.459 410.636 315.902 410.651L424.23 414.443C424.884 414.465 425.521 414.231 426.005 413.79C426.488 413.349 426.78 412.736 426.817 412.082L427.222 404.949C427.241 404.613 427.192 404.276 427.078 403.96C426.964 403.643 426.787 403.352 426.559 403.105C426.33 402.858 426.053 402.66 425.746 402.522C425.439 402.385 425.107 402.31 424.771 402.304L319.37 400.266C314.675 400.175 311.597 405.145 313.77 409.307Z" fill="#D6D6D6"/>
<g style="mix-blend-mode:soft-light">
<path d="M172.304 392.541C172.623 392.54 172.93 392.415 173.158 392.191C173.386 391.967 173.517 391.663 173.523 391.344C173.524 391.307 173.598 387.464 173.967 374.297C173.971 374.137 173.944 373.978 173.887 373.828C173.83 373.678 173.744 373.541 173.634 373.425C173.524 373.308 173.392 373.215 173.246 373.149C173.1 373.084 172.942 373.048 172.782 373.043C172.622 373.039 172.463 373.066 172.313 373.123C172.163 373.18 172.026 373.266 171.91 373.377C171.794 373.487 171.7 373.619 171.635 373.765C171.569 373.911 171.534 374.069 171.529 374.229C171.159 387.413 171.085 391.261 171.084 391.298C171.078 391.621 171.2 391.934 171.425 392.167C171.649 392.4 171.957 392.534 172.28 392.541H172.304Z" fill="white"/>
</g>
<g style="mix-blend-mode:soft-light">
<path d="M173.191 360.401C173.508 360.401 173.812 360.277 174.04 360.056C174.267 359.836 174.399 359.535 174.409 359.218C174.671 350.647 175.08 341.173 175.513 331.141C176.096 317.587 176.701 303.571 177.021 290.07C177.862 254.438 171.985 240.76 166.906 235.56C164.146 232.733 161.833 232.651 161.578 232.651C161.257 232.651 160.948 232.778 160.72 233.004C160.492 233.23 160.362 233.537 160.358 233.858C160.355 234.18 160.479 234.489 160.703 234.72C160.926 234.951 161.232 235.084 161.553 235.09C161.831 235.11 175.843 236.65 174.581 290.013C174.263 303.49 173.659 317.493 173.075 331.036C172.642 341.075 172.233 350.558 171.971 359.144C171.966 359.304 171.993 359.463 172.05 359.613C172.106 359.763 172.192 359.9 172.302 360.017C172.411 360.133 172.543 360.227 172.689 360.293C172.835 360.359 172.993 360.395 173.153 360.4C173.165 360.401 173.178 360.401 173.191 360.401Z" fill="white"/>
</g>
<path d="M391.514 492.995C390.28 492.925 389.077 492.271 387.841 490.999C383.295 486.321 382.442 479.481 382.47 473.022C380.117 475.373 377.716 477.656 375.342 479.914L374.169 478.681C376.957 476.03 379.782 473.343 382.519 470.556C382.81 461.693 383.717 452.861 385.233 444.123C386.162 438.784 387.382 433.146 390.007 428.089C390.844 426.476 392.211 424.175 394.416 422.812C396.716 421.391 399.626 421.387 401.494 422.802C403.593 424.392 404.024 427.205 404.165 429.181C404.993 440.801 399.892 451.118 395.468 457.727C392.183 462.633 388.292 467.072 384.2 471.272C384.025 477.875 384.528 485.148 389.061 489.813C390.016 490.796 390.869 491.285 391.691 491.3C393.042 491.327 394.207 490.081 395.168 488.858C399.518 483.333 403.038 477.204 405.618 470.662C405.987 468.668 406.661 466.743 407.616 464.954L409.181 465.603C408.611 467.477 407.971 469.32 407.261 471.133C406.927 473.01 406.892 474.928 407.157 476.817C407.3 477.82 407.95 481.139 410.34 481.737C412.123 482.18 414.079 480.923 416.333 477.887L425.571 465.443L424.234 470.01C423.763 471.623 422.905 475.488 425.132 476.555C426.4 477.163 427.815 476.468 429.455 475.663C431.084 474.863 432.768 474.034 434.611 474.388L435.479 474.554L435.28 475.416C435.166 475.908 434.23 480.246 436.471 480.876C437.498 481.166 438.408 480.495 439.786 479.359C440.87 478.465 441.991 477.541 443.41 477.282L443.716 478.956C442.731 479.136 441.827 479.882 440.869 480.671C439.509 481.793 437.97 483.064 436.011 482.514C433.458 481.796 432.988 478.848 433.43 476.021C432.403 476.112 431.328 476.639 430.204 477.191C428.424 478.064 426.406 479.054 424.396 478.089C422.737 477.295 421.913 475.555 421.979 473.135L417.699 478.902C415.971 481.23 413.29 484.231 409.928 483.388C407.62 482.81 405.954 480.443 405.472 477.056C405.405 476.584 405.356 476.109 405.324 475.634C402.935 480.711 399.976 485.5 396.506 489.91C395.357 491.372 393.767 493.044 391.657 493.001C391.609 493 391.561 492.998 391.514 492.995ZM398.429 423.442C397.331 423.4 396.246 423.685 395.31 424.26C393.463 425.401 392.261 427.439 391.517 428.873C388.999 433.724 387.815 439.21 386.91 444.415C385.515 452.453 384.64 460.572 384.291 468.723C387.841 464.988 391.191 461.056 394.054 456.78C398.33 450.392 403.261 440.44 402.468 429.302C402.281 426.686 401.645 425.051 400.466 424.158C399.874 423.721 399.164 423.471 398.429 423.442Z" fill="#494545"/>
<path d="M483.454 190.773L283.881 185.374C280.435 185.281 277.163 183.84 274.768 181.36C272.373 178.88 271.046 175.56 271.072 172.113L271.187 157.167C271.201 155.413 271.565 153.68 272.257 152.068C272.95 150.457 273.958 149 275.221 147.784C276.485 146.568 277.979 145.616 279.615 144.985C281.252 144.354 282.998 144.056 284.751 144.109L485.278 150.182C487.056 150.235 488.804 150.649 490.417 151.397C492.03 152.145 493.476 153.212 494.665 154.533C495.855 155.855 496.764 157.404 497.339 159.087C497.913 160.77 498.141 162.551 498.008 164.325L496.939 178.596C496.686 181.969 495.144 185.116 492.634 187.383C490.123 189.65 486.836 190.864 483.454 190.773Z" fill="#B3B3B3"/>
<defs>
<linearGradient id="paint0" x1="197.705" y1="555.514" x2="107.487" y2="97.696" gradientUnits="userSpaceOnUse">
<stop stop-color="#F4F4F4"/>
<stop offset="1" stop-color="#F4F4F4" stop-opacity="0"/>
</linearGradient>
<linearGradient id="paint1" x1="180.999" y1="355.186" x2="98.1286" y2="355.186" gradientUnits="userSpaceOnUse">
<stop offset="0.0833333" stop-color="#B73237"/>
<stop offset="1" stop-color="#ED6E72"/>
</linearGradient>
<linearGradient id="paint2" x1="270.793" y1="107.233" x2="180.541" y2="107.233" gradientUnits="userSpaceOnUse">
<stop stop-color="#ED1C24"/>
<stop offset="1" stop-color="#C9151C"/>
</linearGradient>
<linearGradient id="paint3" x1="259.807" y1="177.111" x2="645.541" y2="670.732" gradientUnits="userSpaceOnUse">
<stop stop-color="white"/>
<stop offset="1" stop-color="white"/>
</linearGradient>
</defs>
</svg>
