<svg width="121" height="131" viewBox="0 0 121 131" fill="none" xmlns="http://www.w3.org/2000/svg">
<g clip-path="url(#clip0)">
<path d="M113.103 110.82L109.381 110.396L108.145 111.884L113.103 110.82Z" fill="#0A6C8E"/>
<path d="M98.5708 23.2676L98.5444 41.0757C98.5444 41.0757 77.4581 42.6833 72.8861 41.245C68.3141 39.8067 70.4597 33.796 70.4621 30.9241C70.4645 28.0523 70.5389 21.0636 71.2733 19.4178C72.0077 17.772 75.49 18.6307 79.7644 19.1602C84.0388 19.6897 98.5708 23.2676 98.5708 23.2676Z" fill="#EEE6DE"/>
<path d="M70.4607 30.9315C70.4607 28.0692 70.5375 21.0709 71.2719 19.4251C72.0063 17.7793 75.4887 18.638 79.7631 19.1675C84.0375 19.697 98.5695 23.2677 98.5695 23.2677V26.2493C94.6575 25.2952 84.5031 23.3679 81.1047 22.9457C76.8303 22.4162 73.8159 21.8557 73.0815 23.5015C72.3471 25.1473 72.0951 31.4419 72.0903 34.3113C72.0903 35.8904 71.4375 38.4235 71.6103 40.6203C68.7615 38.5284 70.4583 33.4861 70.4607 30.9315Z" fill="#EFD5BF"/>
<g opacity="0.58">
<g style="mix-blend-mode:multiply" opacity="0.58">
<path d="M70.5898 19.6758L98.3627 24.711C98.3627 24.711 76.0762 19.8475 70.5898 19.6758Z" fill="#E8D3C1"/>
</g>
<g style="mix-blend-mode:multiply" opacity="0.58">
<path d="M69.8516 29.8987L97.8668 32.0693C97.8668 32.0693 75.3068 29.5338 69.8516 29.8987Z" fill="#E8D3C1"/>
</g>
<g style="mix-blend-mode:multiply" opacity="0.58">
<path d="M69.8555 28.7611L97.8683 31.6449C97.8683 31.6449 75.3203 28.4988 69.8555 28.7611Z" fill="#E8D3C1"/>
</g>
<g style="mix-blend-mode:multiply" opacity="0.58">
<path d="M69.8555 28.0744L97.8683 30.9581C97.8683 30.9581 75.3227 27.8096 69.8555 28.0744Z" fill="#E8D3C1"/>
</g>
<g style="mix-blend-mode:multiply" opacity="0.58">
<path d="M69.8672 27.1676L97.8536 30.3257C97.8536 30.3257 75.3368 26.9577 69.8672 27.1676Z" fill="#E8D3C1"/>
</g>
<g style="mix-blend-mode:multiply" opacity="0.58">
<path d="M69.8945 25.9632L97.8305 29.7056C97.8305 29.7056 75.3737 25.8678 69.8945 25.9632Z" fill="#E8D3C1"/>
</g>
<g style="mix-blend-mode:multiply" opacity="0.58">
<path d="M69.8945 25.0949L97.8305 28.8302C97.8305 28.8302 75.3713 25.0019 69.8945 25.0949Z" fill="#E8D3C1"/>
</g>
<g style="mix-blend-mode:multiply" opacity="0.58">
<path d="M69.9102 24.036L97.8174 28.0456C97.8174 28.0456 75.3918 23.993 69.9102 24.036Z" fill="#E8D3C1"/>
</g>
<g style="mix-blend-mode:multiply" opacity="0.58">
<path d="M69.9102 23.0462L97.8174 27.0558C97.8174 27.0558 75.3918 23.0033 69.9102 23.0462Z" fill="#E8D3C1"/>
</g>
<g style="mix-blend-mode:multiply" opacity="0.58">
<path d="M69.9297 22.0322L97.8009 26.34C97.8009 26.34 75.4113 22.0489 69.9297 22.0322Z" fill="#E8D3C1"/>
</g>
<g style="mix-blend-mode:multiply" opacity="0.58">
<path d="M69.8086 20.9043L97.6822 25.1977C97.6822 25.1977 75.2926 20.921 69.8086 20.9043Z" fill="#E8D3C1"/>
</g>
<g style="mix-blend-mode:multiply" opacity="0.58">
<path d="M70.6562 39.3371L97.6851 39.3037C97.6851 39.3037 76.0995 40.1218 70.6562 39.3371Z" fill="#E8D3C1"/>
</g>
<g style="mix-blend-mode:multiply" opacity="0.58">
<path d="M69.9609 30.7554L97.7625 32.6206C97.7625 32.6206 75.4401 31.75 69.9609 30.7554Z" fill="#E8D3C1"/>
</g>
<g style="mix-blend-mode:multiply" opacity="0.58">
<path d="M69.9688 31.6689L97.7512 33.2527C97.7512 33.2527 75.3952 32.8115 69.9688 31.6689Z" fill="#E8D3C1"/>
</g>
<g style="mix-blend-mode:multiply" opacity="0.58">
<path d="M69.9922 32.8877L97.7266 33.8752C97.7266 33.8752 75.4282 33.9205 69.9922 32.8877Z" fill="#E8D3C1"/>
</g>
<g style="mix-blend-mode:multiply" opacity="0.58">
<path d="M69.9883 33.7559L97.7227 34.7505C97.7227 34.7505 75.4219 34.7863 69.9883 33.7559Z" fill="#E8D3C1"/>
</g>
<g style="mix-blend-mode:multiply" opacity="0.58">
<path d="M70 34.8291L97.708 35.5447C97.708 35.5447 75.4384 35.8047 70 34.8291Z" fill="#E8D3C1"/>
</g>
<g style="mix-blend-mode:multiply" opacity="0.58">
<path d="M69.9961 35.8286L97.7041 36.5442C97.7041 36.5442 75.4345 36.8042 69.9961 35.8286Z" fill="#E8D3C1"/>
</g>
<g style="mix-blend-mode:multiply" opacity="0.58">
<path d="M70.0117 36.8496L97.6861 37.2599C97.6861 37.2599 75.4525 37.7679 70.0117 36.8496Z" fill="#E8D3C1"/>
</g>
<g style="mix-blend-mode:multiply" opacity="0.58">
<path d="M69.8867 37.9751L97.5611 38.3854C97.5611 38.3854 75.3275 38.8839 69.8867 37.9751Z" fill="#E8D3C1"/>
</g>
<g style="mix-blend-mode:multiply" opacity="0.58">
<path d="M70.4336 40.1699L98.2352 40.4895C98.2352 40.4895 75.8864 40.9666 70.4336 40.1699Z" fill="#E8D3C1"/>
</g>
</g>
<path d="M73.3436 16.9517C73.3436 16.9517 27.3788 21.8748 23.6324 22.9839C19.886 24.093 20.7332 35.1486 21.374 38.5809C22.0148 42.0133 24.5444 43.0127 27.2324 43.1129C29.9204 43.213 77.3132 43.0246 77.3132 43.0246C77.3132 43.0246 70.922 41.8606 70.2452 37.0329C69.5684 32.2052 70.6796 22.6142 70.898 20.9851C71.1164 19.356 73.3436 16.9517 73.3436 16.9517Z" fill="#9E6718"/>
<path d="M53.0688 37.9227C52.44 33.2119 53.472 23.8498 53.6736 22.2636C53.8128 21.1712 54.8328 19.7234 55.4592 18.9243L52.1688 19.3131C51.5424 20.136 50.6352 21.4765 50.5056 22.4998C50.304 24.0907 49.2696 33.4504 49.9008 38.1588C50.268 40.9066 51.5304 42.3735 52.5192 43.1201H56.0112C54.9912 42.4475 53.4672 40.9758 53.0688 37.9227Z" fill="#FFD773"/>
<path d="M47.557 38.0826C46.9282 33.491 47.9602 24.3723 48.1642 22.8171C48.301 21.7581 49.3138 20.3532 49.9402 19.5708L46.6282 19.9715C46.0018 20.7753 45.1186 22.0562 44.989 23.0413C44.7874 24.5917 43.7554 33.7105 44.3842 38.3068C44.749 40.9687 45.9994 42.3998 46.9882 43.1321H50.4754C49.4578 42.4738 47.9626 41.0355 47.557 38.0826Z" fill="#FFD773"/>
<path d="M69.0661 29.7531C69.1021 29.0233 69.1381 28.322 69.1621 27.6637C69.1765 27.2272 69.1885 26.7835 69.2005 26.3375C69.2893 22.8908 69.3805 19.3249 71.4133 17.7268C72.3301 17.0112 73.5157 16.7727 74.9413 17.0256C79.0333 17.765 96.3205 21.4287 100.05 22.2206V24.6488C97.5973 24.1407 78.7669 20.1359 74.5861 19.3702C73.6405 19.2009 73.2181 19.4227 72.9853 19.6088C71.7853 20.5485 71.7109 23.7042 71.6413 26.4878C71.6293 26.941 71.6173 27.3918 71.6005 27.8354C71.5765 28.5033 71.5141 29.672 71.5045 29.9583C71.4829 30.5713 71.1637 39.2058 72.6301 40.1647C74.2573 40.9566 87.7645 41.6388 100.021 41.0424V43.4611C95.2549 43.6996 84.2773 43.3227 77.3269 43.0437C74.4685 42.9292 72.2869 42.6906 71.5093 42.2613C68.5069 40.5988 68.7853 35.0889 69.0661 29.7531Z" fill="#87510A"/>
<g style="mix-blend-mode:multiply">
<path d="M72.9453 32.9946C72.9453 32.9946 73.3725 38.9148 73.3269 42.7168C75.6093 42.9553 78.0669 43.0627 78.0669 43.0627C78.0669 43.0627 77.0445 33.2665 72.9453 32.9946Z" fill="#EFD5BF"/>
</g>
<g style="mix-blend-mode:overlay" opacity="0.46">
<path d="M24.2865 23.6304C24.2865 23.6304 55.3857 20.0216 60.4713 19.5469C65.5569 19.0723 67.2921 18.6191 67.9881 19.1009C68.6841 19.5827 68.3817 24.055 67.9881 24.7109C67.5945 25.3669 64.4721 25.3359 61.0473 25.4265C57.6225 25.5171 24.2241 27.027 23.2545 27.0556C22.2849 27.0842 22.4673 25.5362 22.8105 24.9089C23.1537 24.2816 23.5833 23.7115 24.2865 23.6304Z" fill="white"/>
</g>
<path d="M100.039 61.0712C100.039 61.0712 102.365 67.2728 102.288 72.3986C102.908 71.4903 103.477 70.5491 103.994 69.5793L106.764 72.0456C106.764 72.0456 105.053 60.6394 102.857 57.1713C100.661 53.7032 100.039 61.0712 100.039 61.0712Z" fill="#EE6D4A"/>
<path d="M16.7227 61.2597L25.0819 66.5979H95.1115L102.856 61.2502C102.856 61.2502 69.0451 60.1029 57.9595 59.2895C46.8739 58.4762 16.7227 61.2597 16.7227 61.2597Z" fill="#007F7C"/>
<path d="M16.7232 42.6836C16.7232 42.6836 99.5424 43.0295 102.566 43.3753C104.426 43.9549 104.311 48.6944 104.426 52.7397C104.542 56.7851 104.666 60.6492 102.857 61.2598C101.047 61.8704 18.0816 61.3027 16.7232 61.2598C15.3648 61.2168 14.436 58.5979 14.28 54.3593C14.124 50.1208 13.6608 42.6693 16.7232 42.6836Z" fill="#00AAAC"/>
<path d="M25.4115 42.7218L22.4043 42.7075C22.0755 43.1488 21.7227 43.9144 21.7227 45.1882V56.9593C21.7227 58.4977 22.4739 60.2986 23.0499 61.3147L26.7339 61.3409C26.0139 60.5538 24.9363 59.0797 24.6987 57.2216C24.3411 54.4166 24.3963 47.3062 24.5427 45.6294C24.6651 44.3175 25.0155 43.2227 25.4115 42.7218Z" fill="#4CEDE5"/>
<path d="M30.6852 42.7456H27.678C27.354 43.1893 27.0156 43.9382 27.0156 45.2V56.9711C27.0156 58.5287 27.786 60.3486 28.362 61.3623L32.058 61.3862C31.338 60.6086 30.2316 59.1178 29.9916 57.2335C29.634 54.4285 29.6892 47.3181 29.8356 45.6413C29.946 44.3389 30.2964 43.256 30.6852 42.7456Z" fill="#4CEDE5"/>
<path d="M92.6484 61.5051C93.9756 61.5051 95.1996 61.4837 96.3036 61.4718C96.87 60.4366 97.5732 58.712 97.5732 57.2237V45.4525C97.6042 44.6804 97.4278 43.9139 97.062 43.2319L94.026 43.189C94.3644 43.7495 94.6548 44.737 94.746 45.8938C94.8924 47.5635 94.9476 54.681 94.59 57.486C94.3692 59.2726 93.3588 60.6966 92.6484 61.5051Z" fill="#4CEDE5"/>
<path d="M87.3359 61.5291C88.6127 61.5291 89.8343 61.5291 90.9887 61.5148C91.5599 60.4843 92.2823 58.7336 92.2823 57.2213V45.4526C92.3174 44.6531 92.1262 43.8597 91.7303 43.1628L88.6919 43.1294C89.0471 43.6756 89.3567 44.6917 89.4623 45.8939C89.6087 47.5635 89.6639 54.6811 89.3063 57.4861C89.0759 59.2917 88.0463 60.7276 87.3359 61.5291Z" fill="#4CEDE5"/>
<g style="mix-blend-mode:overlay">
<path d="M16.7207 43.9546H100.625C102.564 43.9546 103.222 44.818 103.378 46.3565C103.534 47.895 102.912 48.1574 99.0359 48.1097C95.1599 48.062 19.2815 48.1097 16.7159 48.1097C14.1503 48.1097 14.8007 43.9546 16.7207 43.9546Z" fill="#00C1BC"/>
</g>
<path d="M62.6788 125.956C62.6788 125.956 8.60196 115.275 4.56996 114.064C0.537955 112.852 -0.690845 100.995 3.86676 99.5138C8.42436 98.0326 59.9668 94.896 59.9668 94.896L119.967 98.3164L62.6788 125.956Z" fill="#167BA8"/>
<path d="M4.57037 114.064C8.60237 115.283 62.6792 125.964 62.6792 125.964L93.5672 110.317L2.17757 100.838C-0.248834 104.361 1.14557 113.024 4.57037 114.064Z" fill="#3989B4"/>
<path d="M118.521 99.7524C107.393 100.666 67.6654 104.108 62.2486 107.099C55.9366 110.584 58.039 124.347 63.2998 124.697C67.5598 124.979 104.601 117.143 118.521 114.157V99.7524Z" fill="#EEE6DE"/>
<path d="M65.1642 111.4C70.1826 108.628 104.615 105.472 118.521 104.296V99.7524C107.392 100.666 67.665 104.108 62.2482 107.099C56.517 110.262 57.7242 121.899 61.9314 124.273C60.5562 119.836 61.1994 113.587 65.1642 111.4Z" fill="#EFD5BF"/>
<path d="M119.969 112.499C103.02 116.153 68.4509 123.388 63.6101 123.388C63.5285 123.388 63.4517 123.388 63.3869 123.388C61.9925 123.295 60.6365 121.377 60.0269 118.617C59.1509 114.734 59.8565 109.921 62.9069 108.241C67.7069 105.589 104.34 102.193 119.988 100.945V98.3213C110.513 99.0607 67.6277 102.615 61.6085 105.954C57.2453 108.365 56.3933 114.503 57.4469 119.187C58.3541 123.211 60.2573 125.806 62.9069 125.983C62.9909 125.983 63.3869 126.007 63.4997 126.007C69.2381 126.007 106.736 118.035 119.969 115.182V112.499Z" fill="#0A759B"/>
<g style="mix-blend-mode:multiply">
<path d="M63.3047 109.27L117.826 101.875C117.826 101.875 73.7279 106.655 63.3047 109.27Z" fill="#E8D3C1"/>
</g>
<g style="mix-blend-mode:multiply">
<path d="M62.6445 110.779L117.165 103.385C117.165 103.385 73.0749 108.165 62.6445 110.779Z" fill="#E8D3C1"/>
</g>
<g style="mix-blend-mode:multiply">
<path d="M61.2422 112.478L116.723 104.735C116.723 104.735 71.6726 109.864 61.2422 112.478Z" fill="#E8D3C1"/>
</g>
<g style="mix-blend-mode:multiply">
<path d="M61.1758 114.188L116.635 105.89C116.635 105.89 71.6062 111.574 61.1758 114.188Z" fill="#E8D3C1"/>
</g>
<g style="mix-blend-mode:multiply">
<path d="M61.1758 115.733L116.635 107.089C116.635 107.089 71.6062 113.11 61.1758 115.733Z" fill="#E8D3C1"/>
</g>
<g style="mix-blend-mode:multiply">
<path d="M61.1758 117.165L116.635 108.072C116.635 108.072 71.6062 114.541 61.1758 117.165Z" fill="#E8D3C1"/>
</g>
<g style="mix-blend-mode:multiply">
<path d="M61.5977 118.183L116.721 109.179C116.721 109.179 72.0305 115.571 61.5977 118.183Z" fill="#E8D3C1"/>
</g>
<g style="mix-blend-mode:multiply">
<path d="M61.5977 119.426L116.634 110.31C116.634 110.31 72.0305 116.812 61.5977 119.426Z" fill="#E8D3C1"/>
</g>
<g style="mix-blend-mode:multiply">
<path d="M62.3828 120.862L116.863 111.083C116.863 111.083 72.8132 118.25 62.3828 120.862Z" fill="#E8D3C1"/>
</g>
<g style="mix-blend-mode:multiply">
<path d="M63.3047 122.128L117.17 112.02C117.17 112.02 73.7279 119.516 63.3047 122.128Z" fill="#E8D3C1"/>
</g>
<path d="M2.8831 101.599C2.8831 101.599 39.4999 106.956 47.1247 108.067C54.7495 109.179 56.5927 108.852 56.3287 112.02C56.0647 115.187 55.0135 115.178 44.1679 113.689C33.3223 112.201 4.9207 106.703 2.8879 106.376C0.8551 106.049 1.7503 101.434 2.8831 101.599Z" fill="#3C9CC6"/>
<path d="M37.3525 119.788C37.2838 119.793 37.2148 119.793 37.1461 119.788C27.3517 118.209 15.5653 115.733 12.1861 115.018C11.8676 114.95 11.5749 114.794 11.3414 114.568C11.1079 114.343 10.9432 114.056 10.8661 113.742C10.4053 111.834 9.57727 107.027 11.8837 103.924C12.0508 103.705 12.2735 103.534 12.5291 103.428C12.7846 103.322 13.0638 103.286 13.3381 103.323L38.1661 106.348C38.3529 106.37 38.5329 106.431 38.6942 106.527C38.8555 106.623 38.9944 106.752 39.1019 106.906C39.2094 107.059 39.2829 107.234 39.3177 107.417C39.3525 107.601 39.3477 107.79 39.3037 107.972C38.5156 111.384 38.291 114.902 38.6389 118.386C38.6584 118.583 38.6317 118.783 38.561 118.969C38.4902 119.154 38.3772 119.322 38.2309 119.457C37.9906 119.673 37.6769 119.792 37.3525 119.788ZM13.1461 103.612C12.9531 103.608 12.7619 103.65 12.5878 103.732C12.4137 103.815 12.2613 103.937 12.1429 104.089C9.91567 107.087 10.7269 111.776 11.1829 113.651C11.2457 113.909 11.3803 114.143 11.5714 114.328C11.7625 114.513 12.0021 114.64 12.2629 114.696C15.6397 115.411 27.4189 117.883 37.2037 119.466C37.3505 119.493 37.5015 119.485 37.6448 119.444C37.7882 119.403 37.9198 119.329 38.0293 119.228C38.1407 119.125 38.2268 118.997 38.2809 118.856C38.335 118.715 38.3556 118.563 38.3413 118.412C37.9897 114.894 38.2167 111.343 39.0133 107.898C39.0468 107.758 39.0502 107.614 39.0234 107.473C38.9965 107.332 38.94 107.198 38.8575 107.081C38.775 106.963 38.6684 106.864 38.5447 106.79C38.4209 106.717 38.2829 106.67 38.1397 106.653L13.2997 103.624C13.2488 103.617 13.1975 103.613 13.1461 103.612Z" fill="#B6E2FF"/>
<path d="M47.06 119.423C48.6572 119.423 49.952 117.627 49.952 115.411C49.952 113.196 48.6572 111.399 47.06 111.399C45.4628 111.399 44.168 113.196 44.168 115.411C44.168 117.627 45.4628 119.423 47.06 119.423Z" fill="#003E60"/>
<path d="M44.8922 115.543C44.8922 113.327 46.1858 111.533 47.7722 111.531C47.5418 111.445 47.2981 111.401 47.0522 111.399C45.4538 111.399 44.1602 113.195 44.1602 115.411C44.1602 117.627 45.4538 119.426 47.0522 119.426C45.8162 118.98 44.8922 117.403 44.8922 115.543Z" fill="#0A759B"/>
<path d="M7.57218 111.194C8.79427 111.194 9.78498 109.82 9.78498 108.124C9.78498 106.429 8.79427 105.055 7.57218 105.055C6.35008 105.055 5.35938 106.429 5.35938 108.124C5.35938 109.82 6.35008 111.194 7.57218 111.194Z" fill="#003E60"/>
<path d="M5.91378 108.225C5.91378 106.531 6.90258 105.157 8.12418 105.155C7.9481 105.09 7.7622 105.057 7.57458 105.055C6.35058 105.055 5.35938 106.429 5.35938 108.124C5.35938 109.82 6.35058 111.201 7.57458 111.201C6.61938 110.856 5.91378 109.656 5.91378 108.225Z" fill="#0A759B"/>
<g style="mix-blend-mode:multiply">
<path d="M63.8359 115.154C63.8359 115.154 64.3159 121.797 64.2607 125.957C65.4823 125.863 69.2359 125.317 69.2359 125.317C69.2359 125.317 68.2471 115.273 63.8359 115.154Z" fill="#EFD5BF"/>
</g>
<path d="M63.8359 115.13C63.8359 115.13 68.3335 117.966 68.5951 131.35C70.6999 129.177 72.1471 127.801 72.1471 127.801L75.9463 130.007C75.9463 130.007 73.4479 115.843 70.5055 113.856C66.1855 114.331 63.8359 115.13 63.8359 115.13Z" fill="#EE6D4A"/>
<path d="M56.1473 104.74C56.1473 104.74 103.362 99.0538 106.842 97.7992C110.322 96.5445 111.383 86.2546 107.45 85.2051C103.516 84.1556 59.0225 81.8491 59.0225 81.8491L7.23047 83.6142L56.1473 104.74Z" fill="#E0512F"/>
<path d="M106.847 97.7992C103.364 99.0539 56.1492 104.74 56.1492 104.74L33.1836 91.2852L56.2548 86.8081L108.906 86.269C111.004 89.1862 109.794 96.7354 106.847 97.7992Z" fill="#EE6D4A"/>
<path d="M8.48047 84.7759C18.0805 85.0144 52.3813 85.9828 57.0589 88.2941C62.5045 90.987 60.6901 102.973 56.1493 103.538C52.4725 103.996 20.4949 99.0897 8.48047 97.2101V84.7759Z" fill="#EEE6DE"/>
<path d="M54.5389 92.1629C50.2189 90.0162 20.4853 89.0264 8.48047 88.7067V84.7759C18.0805 85.0144 52.3813 85.9828 57.0589 88.2941C62.0053 90.739 60.9613 100.843 57.3301 103.106C58.5061 99.2137 57.9637 93.8541 54.5389 92.1629Z" fill="#EFD5BF"/>
<path d="M7.23047 95.86C21.8705 98.1641 51.7001 102.677 55.8785 102.434L56.0729 102.417C57.2729 102.267 58.4465 100.542 58.9841 98.1236C59.7401 94.727 59.1305 90.6077 56.5049 89.3101C52.3577 87.2612 20.7449 86.1664 7.23047 85.873V83.6118C15.3905 83.7836 52.4177 84.709 57.6065 87.2731C61.3745 89.136 62.1113 94.3931 61.2065 98.4837C60.4241 102.011 58.5041 104.375 56.2241 104.659C56.1497 104.659 56.0681 104.676 55.9841 104.681C51.0209 104.969 18.6641 99.9673 7.23047 98.1689V95.86Z" fill="#F48369"/>
<g opacity="0.58">
<g style="mix-blend-mode:multiply" opacity="0.58">
<path d="M56.1499 90.2307L9.08594 86.5718C9.08594 86.5718 47.1451 88.4967 56.1499 90.2307Z" fill="#E8D3C1"/>
</g>
<g style="mix-blend-mode:multiply" opacity="0.58">
<path d="M56.7163 91.5022L9.65234 87.8433C9.65234 87.8433 47.7067 89.7681 56.7163 91.5022Z" fill="#E8D3C1"/>
</g>
<g style="mix-blend-mode:multiply" opacity="0.58">
<path d="M57.9265 92.8973L10.0273 88.9951C10.0273 88.9951 48.9217 91.1657 57.9265 92.8973Z" fill="#E8D3C1"/>
</g>
<g style="mix-blend-mode:multiply" opacity="0.58">
<path d="M57.9822 94.369L10.1094 89.9873C10.1094 89.9873 48.9774 92.6373 57.9822 94.369Z" fill="#E8D3C1"/>
</g>
<g style="mix-blend-mode:multiply" opacity="0.58">
<path d="M57.9822 95.6978L10.1094 91.0132C10.1094 91.0132 48.9774 93.9613 57.9822 95.6978Z" fill="#E8D3C1"/>
</g>
<g style="mix-blend-mode:multiply" opacity="0.58">
<path d="M57.9822 96.9358L10.1094 91.8672C10.1094 91.8672 48.9774 95.2041 57.9822 96.9358Z" fill="#E8D3C1"/>
</g>
<g style="mix-blend-mode:multiply" opacity="0.58">
<path d="M57.6169 97.8444L10.0273 92.8354C10.0273 92.8354 48.6121 96.108 57.6169 97.8444Z" fill="#E8D3C1"/>
</g>
<g style="mix-blend-mode:multiply" opacity="0.58">
<path d="M57.6174 98.9129L10.1094 93.8037C10.1094 93.8037 48.6126 97.1788 57.6174 98.9129Z" fill="#E8D3C1"/>
</g>
<g style="mix-blend-mode:multiply" opacity="0.58">
<path d="M56.9388 100.194L9.91797 94.4692C9.91797 94.4692 47.946 98.4597 56.9388 100.194Z" fill="#E8D3C1"/>
</g>
<g style="mix-blend-mode:multiply" opacity="0.58">
<path d="M56.1499 101.332L9.65234 95.3066C9.65234 95.3066 47.1451 99.6001 56.1499 101.332Z" fill="#E8D3C1"/>
</g>
</g>
<path d="M108.355 87.3494C108.355 87.3494 78.7097 89.6392 70.9481 90.4096C64.2593 91.0703 62.3681 90.6147 62.5961 93.3363C62.8241 96.0578 66.6473 95.483 76.1369 94.4788C86.6777 93.3578 106.543 91.4663 108.297 91.0822C110.051 90.6982 109.331 87.1442 108.355 87.3494Z" fill="#F48369"/>
<path d="M103.739 98.4333C103.705 98.4301 103.672 98.4169 103.645 98.3952C103.618 98.3736 103.599 98.3445 103.588 98.3116C103.582 98.2924 103.581 98.2721 103.583 98.2522C103.585 98.2322 103.592 98.2129 103.602 98.1955C103.612 98.1781 103.626 98.1629 103.642 98.1509C103.658 98.1389 103.677 98.1303 103.696 98.1256C104.203 98.0183 105.83 96.9783 106.084 95.8596C106.346 94.698 106.677 92.0433 106.838 89.8154C106.989 87.7045 105.535 86.8578 105.475 86.822C105.438 86.8022 105.41 86.7691 105.397 86.7296C105.384 86.6901 105.387 86.6472 105.405 86.6097C105.414 86.5918 105.428 86.5761 105.443 86.5635C105.459 86.5509 105.478 86.5417 105.497 86.5366C105.517 86.5314 105.537 86.5304 105.557 86.5335C105.578 86.5367 105.597 86.5439 105.614 86.5548C105.631 86.5548 107.315 87.5352 107.15 89.8584C106.987 92.0981 106.653 94.772 106.387 95.9455C106.113 97.162 104.402 98.2973 103.783 98.4309C103.768 98.4341 103.754 98.4349 103.739 98.4333Z" fill="#F9A0A0"/>
<path d="M101.704 98.6456C101.669 98.6427 101.636 98.6296 101.609 98.6079C101.582 98.5862 101.562 98.5569 101.552 98.5239C101.547 98.5046 101.546 98.4845 101.548 98.4646C101.551 98.4448 101.557 98.4256 101.567 98.4083C101.577 98.391 101.591 98.3758 101.607 98.3637C101.623 98.3516 101.641 98.3428 101.66 98.3379C102.167 98.2305 103.794 97.193 104.048 96.0719C104.31 94.9103 104.641 92.2555 104.802 90.0277C104.953 87.9168 103.499 87.07 103.439 87.0366C103.402 87.0164 103.374 86.9829 103.361 86.943C103.348 86.9031 103.351 86.8598 103.369 86.822C103.378 86.8042 103.391 86.7885 103.407 86.7759C103.423 86.7633 103.441 86.7542 103.46 86.749C103.48 86.7438 103.5 86.7428 103.52 86.7459C103.54 86.749 103.559 86.7562 103.576 86.7671C103.595 86.7671 105.28 87.7474 105.114 90.0707C104.951 92.3104 104.617 94.9842 104.351 96.1601C104.077 97.3766 102.366 98.5096 101.747 98.6432C101.733 98.6463 101.718 98.6471 101.704 98.6456Z" fill="#F9A0A0"/>
<path d="M69.1504 93.3531C69.3352 97.1266 68.7856 99.8648 67.1992 103.385L71.188 102.887C71.3392 102.522 72.7792 98.9465 72.8272 93.9399C72.8512 91.5141 72.1552 89.8516 71.3872 88.7544L67.6864 88.9929C68.5523 90.2928 69.0574 91.7969 69.1504 93.3531Z" fill="#CC3A1D"/>
<path d="M74.9725 92.9738C75.1501 96.6113 74.6341 99.2923 73.1797 102.634L77.1565 102.138C78.1279 99.3772 78.6323 96.4756 78.6493 93.551C78.6733 91.1205 77.9749 89.4556 77.2093 88.3584L73.5109 88.5969C74.3779 89.9023 74.8822 91.4123 74.9725 92.9738Z" fill="#CC3A1D"/>
<g style="mix-blend-mode:multiply">
<path d="M54.2856 93.8037C54.2856 93.8037 53.8488 100.752 53.892 104.628C52.7544 104.542 49.1328 104.201 49.1328 104.201C49.1328 104.201 50.172 93.9134 54.2856 93.8037Z" fill="#EFD5BF"/>
</g>
<path d="M54.2818 93.8036C54.2818 93.8036 50.089 96.9235 49.8442 109.393C47.8834 107.368 46.5346 106.083 46.5346 106.083L42.9922 108.141C42.9922 108.141 45.3226 94.9437 48.0658 93.0928C52.0978 93.534 54.2818 93.8036 54.2818 93.8036Z" fill="#FFBC00"/>
<path d="M22.9844 63.2204V81.0929C22.9844 81.0929 43.814 83.5497 48.3332 82.2855C52.8524 81.0214 50.7332 74.9104 50.7332 72.029C50.7332 69.1477 50.6732 62.1351 49.9484 60.4559C49.2236 58.7767 45.7844 59.5018 41.5604 59.8548C37.3364 60.2078 22.9844 63.2204 22.9844 63.2204Z" fill="#EEE6DE"/>
<path d="M50.7428 72.0364C50.7428 69.1574 50.6828 62.1424 49.958 60.4632C49.2332 58.784 45.794 59.5091 41.57 59.8621C37.346 60.2152 22.9844 63.2205 22.9844 63.2205V66.214C26.8508 65.4245 36.8852 63.886 40.2428 63.5903C44.4668 63.2301 47.4428 62.7888 48.1628 64.468C48.8828 66.1472 49.1228 72.4729 49.1228 75.3518C49.1228 76.9356 49.7612 79.5021 49.5836 81.6965C52.4108 79.7168 50.7428 74.5981 50.7428 72.0364Z" fill="#EFD5BF"/>
<g opacity="0.58">
<g style="mix-blend-mode:multiply" opacity="0.58">
<path d="M50.6378 60.7399L23.1914 64.6898C23.1914 64.6898 45.2162 60.6826 50.6378 60.7399Z" fill="#E8D3C1"/>
</g>
<g style="mix-blend-mode:multiply" opacity="0.58">
<path d="M51.3505 71.0249L23.6641 72.0839C23.6641 72.0839 45.9625 70.4381 51.3505 71.0249Z" fill="#E8D3C1"/>
</g>
<g style="mix-blend-mode:multiply" opacity="0.58">
<path d="M51.3478 69.8826L23.6758 71.6548C23.6758 71.6548 45.9502 69.3984 51.3478 69.8826Z" fill="#E8D3C1"/>
</g>
<g style="mix-blend-mode:multiply" opacity="0.58">
<path d="M51.3478 69.1932L23.6758 70.963C23.6758 70.963 45.9502 68.709 51.3478 69.1932Z" fill="#E8D3C1"/>
</g>
<g style="mix-blend-mode:multiply" opacity="0.58">
<path d="M51.3403 68.2844L23.6875 70.3309C23.6875 70.3309 45.9379 67.8551 51.3403 68.2844Z" fill="#E8D3C1"/>
</g>
<g style="mix-blend-mode:multiply" opacity="0.58">
<path d="M51.307 67.0749L23.707 69.6986C23.707 69.6986 45.9046 66.76 51.307 67.0749Z" fill="#E8D3C1"/>
</g>
<g style="mix-blend-mode:multiply" opacity="0.58">
<path d="M51.307 66.2066L23.707 68.8303C23.707 68.8303 45.9046 65.8822 51.307 66.2066Z" fill="#E8D3C1"/>
</g>
<g style="mix-blend-mode:multiply" opacity="0.58">
<path d="M51.3074 65.1405L23.7266 68.0433C23.7266 68.0433 45.8882 64.8781 51.3074 65.1405Z" fill="#E8D3C1"/>
</g>
<g style="mix-blend-mode:multiply" opacity="0.58">
<path d="M51.3074 64.1483L23.7266 67.0511C23.7266 67.0511 45.8882 63.8859 51.3074 64.1483Z" fill="#E8D3C1"/>
</g>
<g style="mix-blend-mode:multiply" opacity="0.58">
<path d="M51.2846 63.1324L23.7422 66.3334C23.7422 66.3334 45.8678 62.9273 51.2846 63.1324Z" fill="#E8D3C1"/>
</g>
<g style="mix-blend-mode:multiply" opacity="0.58">
<path d="M51.4057 62.0038L23.8633 65.2048C23.8633 65.2048 45.9889 61.8011 51.4057 62.0038Z" fill="#E8D3C1"/>
</g>
<g style="mix-blend-mode:multiply" opacity="0.58">
<path d="M50.5417 80.4583L23.2969 79.001C23.2969 79.001 45.1633 81.0141 50.5417 80.4583Z" fill="#E8D3C1"/>
</g>
<g style="mix-blend-mode:multiply" opacity="0.58">
<path d="M51.2414 71.8789L23.7734 72.635C23.7734 72.635 45.827 72.6565 51.2414 71.8789Z" fill="#E8D3C1"/>
</g>
<g style="mix-blend-mode:multiply" opacity="0.58">
<path d="M51.2301 72.7998L23.7812 73.2769C23.7812 73.2769 45.8685 73.7229 51.2301 72.7998Z" fill="#E8D3C1"/>
</g>
<g style="mix-blend-mode:multiply" opacity="0.58">
<path d="M51.2094 74.0162L23.8086 73.8945C23.8086 73.8945 45.8382 74.8295 51.2094 74.0162Z" fill="#E8D3C1"/>
</g>
<g style="mix-blend-mode:multiply" opacity="0.58">
<path d="M51.2094 74.8889L23.8086 74.7744C23.8086 74.7744 45.8382 75.7023 51.2094 74.8889Z" fill="#E8D3C1"/>
</g>
<g style="mix-blend-mode:multiply" opacity="0.58">
<path d="M51.1986 75.9649L23.8242 75.5713C23.8242 75.5713 45.825 76.7257 51.1986 75.9649Z" fill="#E8D3C1"/>
</g>
<g style="mix-blend-mode:multiply" opacity="0.58">
<path d="M51.1986 76.9644L23.8242 76.5732C23.8242 76.5732 45.825 77.7253 51.1986 76.9644Z" fill="#E8D3C1"/>
</g>
<g style="mix-blend-mode:multiply" opacity="0.58">
<path d="M51.1846 77.99L23.8438 77.2935C23.8438 77.2935 45.8086 78.6936 51.1846 77.99Z" fill="#E8D3C1"/>
</g>
<g style="mix-blend-mode:multiply" opacity="0.58">
<path d="M51.3056 79.1159L23.9648 78.4194C23.9648 78.4194 45.9296 79.8172 51.3056 79.1159Z" fill="#E8D3C1"/>
</g>
<g style="mix-blend-mode:multiply" opacity="0.58">
<path d="M50.7633 81.303L23.0625 80.0293C23.0625 80.0293 45.3729 81.885 50.7633 81.303Z" fill="#E8D3C1"/>
</g>
</g>
<path d="M47.9153 57.8989C47.9153 57.8989 93.3185 64.6897 97.0193 65.9395C100.72 67.1894 100.23 76.6588 99.5945 80.0744C98.9585 83.4901 96.4553 84.3917 93.8009 84.3917C91.1465 84.3917 46.7969 83.8288 46.7969 83.8288C46.7969 83.8288 50.2721 82.9868 50.9465 78.1734C51.6209 73.36 50.5385 63.6927 50.3273 62.0492C50.1161 60.4058 47.9153 57.8989 47.9153 57.8989Z" fill="#FFBC00"/>
<path d="M67.3454 63.855C67.5422 65.3839 68.5454 74.3715 67.9214 78.8462C67.3814 82.6936 64.9238 83.8099 64.2422 84.0484L68.0414 84.0961C69.0446 83.5379 70.6358 82.2022 71.0558 79.1968C71.6846 74.7221 70.6766 65.7346 70.4798 64.208C70.3526 63.2229 69.4598 61.9063 68.8406 61.1072L65.5862 60.6016C66.203 61.3815 67.2086 62.8079 67.3454 63.855Z" fill="#FFD773"/>
<path d="M72.7841 64.6108C72.9833 66.1016 73.9841 74.8673 73.3625 79.2204C72.9017 82.4094 71.0561 83.6712 70.0938 84.1196L73.7729 84.165C74.7689 83.5376 76.1153 82.2186 76.4969 79.5615C77.1257 75.2013 76.1177 66.4427 75.9209 64.9543C75.7937 64.0002 74.9225 62.7456 74.3057 61.9537L71.0345 61.4385C71.6537 62.2113 72.6497 63.5947 72.7841 64.6108Z" fill="#FFD773"/>
<path d="M52.1397 70.9079C52.1037 70.1756 52.0701 69.4768 52.0461 68.8089C52.0317 68.37 52.0221 67.9264 52.0101 67.4803C51.9285 64.017 51.8421 60.4367 49.8381 58.7528C48.9309 57.9895 47.7597 57.708 46.3533 57.906C42.3093 58.488 25.2237 61.4672 21.5469 62.1136V64.5489C23.9469 64.1267 42.5661 60.8732 46.7037 60.2817C47.6397 60.1481 48.0549 60.389 48.2853 60.5822C49.4637 61.5721 49.5381 64.7421 49.6053 67.5376C49.6173 67.9908 49.6269 68.444 49.6413 68.89C49.6653 69.5603 49.7253 70.7338 49.7349 71.0224C49.7541 71.6402 50.0589 80.3129 48.6093 81.2145C46.9989 81.9444 33.6549 81.2598 21.5469 80.1698V82.5788C26.2557 83.001 37.0989 83.8979 43.9653 83.8979C46.7901 83.8979 48.9405 83.7452 49.7253 83.3469C52.6653 81.8203 52.3965 76.2723 52.1397 70.9079Z" fill="#F7A500"/>
<g style="mix-blend-mode:multiply">
<path d="M48.2899 74.0063C48.2899 74.0063 47.8603 79.9265 47.9011 83.7429C45.6451 83.8979 43.2188 83.8979 43.2188 83.8979C43.2188 83.8979 44.2411 74.1137 48.2899 74.0063Z" fill="#EFD5BF"/>
</g>
<path d="M48.2868 73.9922C48.2868 73.9922 43.8972 77.5843 43.6548 89.9136C41.7348 88.2082 40.4004 87.142 40.4004 87.142L36.918 89.6989C36.918 89.6989 39.3732 76.1985 42.0732 73.9564C44.1434 73.8508 46.2179 73.8628 48.2868 73.9922Z" fill="#3989B4"/>
<g style="mix-blend-mode:overlay" opacity="0.37">
<path d="M52.5923 59.9193C52.5923 59.9193 93.7451 66.3403 95.2259 66.5979C96.7067 66.8555 96.9707 68.3367 97.2803 69.4602C97.5899 70.5836 96.3875 70.1161 93.9059 69.8848C91.4243 69.6534 57.0731 65.3147 55.2107 65.057C53.3483 64.7994 53.0795 64.1197 52.7699 63.1107C52.4603 62.1017 52.0139 60.599 52.0715 60.2914C52.1291 59.9837 52.2779 59.8716 52.5923 59.9193Z" fill="white"/>
</g>
<path d="M55.2364 83.8239C55.1914 83.8229 55.1477 83.8078 55.1118 83.7807C55.0759 83.7536 55.0495 83.716 55.0365 83.6731C55.0234 83.6302 55.0244 83.5843 55.0392 83.542C55.054 83.4997 55.0818 83.4631 55.1188 83.4375C55.4812 83.1989 56.8708 80.8924 56.9788 78.4094C57.0844 75.9884 57.0844 70.5 56.9788 65.9132C56.878 61.4528 55.414 59.826 55.3996 59.8093C55.3806 59.7893 55.3659 59.7656 55.3562 59.7398C55.3465 59.714 55.3421 59.6865 55.3432 59.659C55.3443 59.6314 55.351 59.6044 55.3627 59.5794C55.3745 59.5545 55.3911 59.5321 55.4116 59.5136C55.4512 59.4745 55.5047 59.4526 55.5604 59.4526C55.6162 59.4526 55.6697 59.4745 55.7092 59.5136C55.774 59.5828 57.2956 61.2524 57.4012 65.8941C57.5068 70.488 57.5068 75.9908 57.4012 78.4165C57.2932 80.8948 55.894 83.4255 55.354 83.7785C55.3204 83.8052 55.2794 83.821 55.2364 83.8239Z" fill="#CC8200"/>
<path d="M57.5819 84.0602C57.5367 84.0602 57.4927 84.0457 57.4564 84.0189C57.4201 83.9921 57.3934 83.9544 57.3802 83.9114C57.3671 83.8685 57.3681 83.8224 57.3833 83.7801C57.3984 83.7377 57.4268 83.7013 57.4644 83.6762C57.8268 83.4377 59.2163 81.1312 59.3243 78.6481C59.4275 76.2271 59.4275 70.7387 59.3243 66.1519C59.2211 61.6915 57.7596 60.0648 57.7428 60.0481C57.7056 60.007 57.6861 59.953 57.6883 59.8978C57.6906 59.8426 57.7144 59.7904 57.7547 59.7524C57.7943 59.7133 57.8478 59.6914 57.9036 59.6914C57.9593 59.6914 58.0128 59.7133 58.0524 59.7524C58.1172 59.8215 59.6387 61.4888 59.7323 66.1328C59.8379 70.7268 59.8379 76.2271 59.7323 78.6553C59.6267 81.1312 58.2251 83.6643 57.6875 84.0149C57.6572 84.0394 57.6207 84.0551 57.5819 84.0602Z" fill="#CC8200"/>
<path d="M72.9453 32.9921C72.9453 32.9921 77.3853 36.7488 77.6109 49.0519C79.5669 47.4299 80.9085 46.4281 80.9085 46.4281L84.4269 49.1067C84.4269 49.1067 81.9621 35.5515 79.2309 33.2163C77.1416 33.0243 75.0431 32.9494 72.9453 32.9921Z" fill="#FFBC00"/>
</g>
<defs>
<clipPath id="clip0">
<rect width="120" height="130" fill="white" transform="translate(0.425781 0.408691)"/>
</clipPath>
</defs>
</svg>
