<svg xmlns="http://www.w3.org/2000/svg" xmlns:xlink="http://www.w3.org/1999/xlink" width="1080" zoomAndPan="magnify" viewBox="0 0 810 809.999993" height="1080" preserveAspectRatio="xMidYMid meet" version="1.0"><defs><clipPath id="190c6541ed"><path d="M 316 262 L 420 262 L 420 463.136719 L 316 463.136719 Z M 316 262 " clip-rule="nonzero"/></clipPath><clipPath id="bc5eec8642"><path d="M 250 139.136719 L 257 139.136719 L 257 153 L 250 153 Z M 250 139.136719 " clip-rule="nonzero"/></clipPath><clipPath id="b5b536a966"><path d="M 517 139.136719 L 523.738281 139.136719 L 523.738281 153 L 517 153 Z M 517 139.136719 " clip-rule="nonzero"/></clipPath></defs><rect x="-81" width="972" fill="#ffffff" y="-80.999999" height="971.999992" fill-opacity="1"/><rect x="-81" width="972" fill="#ffffff" y="-80.999999" height="971.999992" fill-opacity="1"/><rect x="-81" width="972" fill="#ffffff" y="-80.999999" height="971.999992" fill-opacity="1"/><path fill="#052401" d="M 387.019531 184.988281 C 387.019531 184.988281 544.597656 139.457031 557.257812 58.554688 C 557.257812 58.554688 544.597656 -0.0078125 470.464844 30.734375 C 470.464844 30.734375 497.429688 77.667969 387.019531 142.558594 C 276.644531 77.667969 303.605469 30.734375 303.605469 30.734375 C 229.472656 -0.0078125 216.8125 58.554688 216.8125 58.554688 C 229.472656 139.457031 387.019531 184.988281 387.019531 184.988281 " fill-opacity="1" fill-rule="nonzero"/><path fill="#052401" d="M 728.746094 716.71875 L 636.59375 170.773438 C 636.59375 170.773438 629.75 104.089844 573.359375 67.472656 C 553.578125 152.816406 408.75 197.042969 391.921875 201.882812 L 387.019531 203.3125 L 382.152344 201.882812 C 365.324219 197.042969 220.585938 152.847656 200.714844 67.5625 C 144.476562 104.179688 137.628906 170.773438 137.628906 170.773438 L 45.480469 716.71875 L 103.636719 735.804688 L 100.53125 767.304688 L 240.976562 801 L 243.777344 751.570312 L 326.371094 771.78125 L 328.042969 711.941406 L 446.179688 711.941406 L 447.855469 771.78125 L 530.449219 751.570312 L 533.246094 801 L 673.691406 767.304688 L 670.589844 735.804688 L 728.746094 716.71875 " fill-opacity="1" fill-rule="nonzero"/><path fill="#000000" d="M 361.472656 296.199219 C 360.160156 296.199219 359.089844 297.265625 359.089844 298.578125 C 359.089844 300.085938 360.160156 301.152344 361.472656 301.152344 L 370.535156 301.152344 C 371.839844 301.152344 372.902344 300.097656 372.914062 298.796875 C 372.914062 298.78125 372.914062 298.773438 372.914062 298.761719 C 372.90625 297.261719 371.839844 296.199219 370.535156 296.199219 Z M 361.472656 296.199219 " fill-opacity="1" fill-rule="nonzero"/><path fill="#000000" d="M 297.289062 264.171875 C 296.8125 263.753906 296.1875 263.5625 295.558594 263.597656 C 294.925781 263.648438 294.347656 263.9375 293.933594 264.417969 C 292.945312 265.5625 293.058594 267.066406 294.050781 267.921875 L 300.921875 273.828125 C 301.898438 274.671875 303.378906 274.566406 304.238281 273.609375 C 304.257812 273.59375 304.273438 273.578125 304.289062 273.5625 C 304.824219 272.9375 305.023438 272.328125 304.976562 271.703125 C 304.929688 271.066406 304.640625 270.492188 304.15625 270.078125 Z M 297.289062 264.171875 " fill-opacity="1" fill-rule="nonzero"/><path fill="#000000" d="M 286.496094 249.355469 C 286.046875 248.632812 285.265625 248.234375 284.46875 248.234375 C 284.039062 248.234375 283.605469 248.347656 283.21875 248.589844 C 281.9375 249.386719 281.589844 250.855469 282.285156 251.96875 L 287.066406 259.65625 C 287.761719 260.773438 289.234375 261.117188 290.34375 260.421875 C 291.625 259.625 291.972656 258.15625 291.277344 257.042969 Z M 286.496094 249.355469 " fill-opacity="1" fill-rule="nonzero"/><path fill="#000000" d="M 318.707031 286.125 C 319.253906 285.492188 319.453125 284.878906 319.40625 284.246094 C 319.359375 283.609375 319.070312 283.035156 318.585938 282.621094 L 311.71875 276.714844 C 311.269531 276.324219 310.714844 276.136719 310.164062 276.136719 C 309.507812 276.136719 308.863281 276.414062 308.390625 276.9375 C 308.378906 276.953125 308.363281 276.960938 308.347656 276.976562 C 307.816406 277.601562 307.613281 278.210938 307.660156 278.835938 C 307.707031 279.472656 307.996094 280.046875 308.480469 280.464844 L 315.351562 286.371094 C 315.835938 286.785156 316.441406 286.992188 317.082031 286.941406 C 317.710938 286.898438 318.289062 286.609375 318.707031 286.125 Z M 318.707031 286.125 " fill-opacity="1" fill-rule="nonzero"/><path fill="#000000" d="M 277.976562 232.761719 C 277.734375 232.171875 277.277344 231.714844 276.691406 231.46875 C 276.394531 231.347656 276.085938 231.285156 275.773438 231.285156 C 275.46875 231.285156 275.164062 231.34375 274.867188 231.46875 C 273.472656 232.039062 272.886719 233.433594 273.386719 234.644531 L 276.835938 243.015625 C 277.078125 243.601562 277.539062 244.0625 278.121094 244.304688 C 278.710938 244.550781 279.355469 244.550781 279.945312 244.308594 C 281.34375 243.734375 281.925781 242.339844 281.425781 241.128906 Z M 277.976562 232.761719 " fill-opacity="1" fill-rule="nonzero"/><path fill="#000000" d="M 351.390625 301.152344 C 352.703125 301.152344 353.773438 300.085938 353.773438 298.773438 C 353.773438 297.265625 352.703125 296.199219 351.390625 296.199219 L 342.328125 296.199219 C 341.371094 296.199219 340.558594 296.773438 340.179688 297.585938 C 340.148438 297.667969 340.128906 297.753906 340.097656 297.839844 C 340.015625 298.074219 339.949219 298.316406 339.949219 298.578125 C 339.949219 300.085938 341.015625 301.152344 342.332031 301.152344 Z M 351.390625 301.152344 " fill-opacity="1" fill-rule="nonzero"/><g clipPath="url(#190c6541ed)"><path fill="#000000" d="M 367.796875 262.390625 C 351.722656 262.390625 336.875 269.75 327.144531 282.273438 C 328.148438 282.484375 329.109375 282.894531 329.976562 283.5 L 337.390625 288.699219 C 338.390625 289.402344 339.160156 290.328125 339.722656 291.371094 C 340.539062 291.074219 341.410156 290.882812 342.332031 290.882812 L 350.027344 290.882812 C 352.320312 283.742188 357.527344 279.054688 363.515625 279.054688 C 371.589844 279.054688 378.164062 287.769531 378.230469 298.515625 C 378.230469 298.535156 378.238281 298.554688 378.238281 298.574219 C 378.238281 298.585938 378.234375 298.59375 378.234375 298.605469 C 378.234375 298.628906 378.238281 298.652344 378.238281 298.675781 C 378.238281 309.496094 371.632812 318.296875 363.511719 318.296875 C 357.519531 318.296875 352.3125 313.609375 350.023438 306.460938 L 342.332031 306.460938 C 339.355469 306.460938 336.796875 304.753906 335.515625 302.28125 C 334.640625 302.613281 333.726562 302.832031 332.800781 302.832031 C 331.277344 302.832031 329.75 302.378906 328.421875 301.449219 L 321.003906 296.246094 C 320.558594 295.933594 320.15625 295.570312 319.792969 295.179688 C 317.496094 301.09375 316.285156 307.441406 316.285156 313.828125 L 316.285156 445.988281 C 316.285156 455.449219 323.992188 463.144531 333.464844 463.144531 L 402.121094 463.144531 C 411.597656 463.144531 419.300781 455.449219 419.300781 445.988281 L 419.300781 313.828125 C 419.304688 285.464844 396.195312 262.390625 367.796875 262.390625 Z M 359.09375 399.417969 C 359.09375 400.886719 357.902344 402.070312 356.433594 402.070312 C 354.964844 402.070312 353.773438 400.886719 353.773438 399.417969 L 353.773438 349.765625 C 353.773438 348.296875 354.964844 347.109375 356.433594 347.109375 C 357.902344 347.109375 359.09375 348.296875 359.09375 349.765625 Z M 380.457031 414.796875 C 380.457031 416.265625 379.265625 417.453125 377.796875 417.453125 C 376.332031 417.453125 375.140625 416.265625 375.140625 414.796875 L 375.140625 338.160156 C 375.140625 336.691406 376.332031 335.503906 377.796875 335.503906 C 379.265625 335.503906 380.457031 336.691406 380.457031 338.160156 Z M 380.457031 414.796875 " fill-opacity="1" fill-rule="nonzero"/></g><g clipPath="url(#bc5eec8642)"><path fill="#000000" d="M 255.617188 152.09375 C 256.035156 151.613281 256.238281 151 256.191406 150.367188 L 255.523438 141.339844 C 255.425781 140.03125 254.316406 139.0625 252.972656 139.144531 C 252.140625 139.207031 251.5625 139.496094 251.144531 139.976562 C 250.730469 140.457031 250.527344 141.070312 250.574219 141.703125 L 251.242188 150.730469 C 251.339844 152.039062 252.476562 153.011719 253.792969 152.925781 C 254.625 152.867188 255.203125 152.574219 255.617188 152.09375 Z M 255.617188 152.09375 " fill-opacity="1" fill-rule="nonzero"/></g><path fill="#000000" d="M 331.476562 297.105469 C 332.554688 297.859375 334.042969 297.597656 334.796875 296.523438 C 335.277344 295.84375 335.417969 295.210938 335.308594 294.585938 C 335.199219 293.960938 334.851562 293.414062 334.332031 293.046875 L 326.914062 287.847656 C 326.394531 287.480469 325.769531 287.347656 325.132812 287.449219 C 324.507812 287.558594 323.960938 287.90625 323.59375 288.425781 C 323.117188 289.109375 322.976562 289.738281 323.085938 290.363281 C 323.195312 290.988281 323.542969 291.535156 324.058594 291.898438 Z M 331.476562 297.105469 " fill-opacity="1" fill-rule="nonzero"/><path fill="#000000" d="M 257.785156 171.070312 C 258.199219 170.589844 258.40625 169.976562 258.359375 169.339844 L 257.691406 160.316406 C 257.59375 159.011719 256.472656 158.035156 255.140625 158.117188 C 254.308594 158.183594 253.730469 158.472656 253.316406 158.953125 C 252.898438 159.433594 252.695312 160.046875 252.742188 160.679688 L 253.410156 169.707031 C 253.457031 170.339844 253.746094 170.917969 254.230469 171.332031 C 254.714844 171.75 255.332031 171.945312 255.960938 171.90625 C 256.792969 171.84375 257.371094 171.550781 257.785156 171.070312 Z M 257.785156 171.070312 " fill-opacity="1" fill-rule="nonzero"/><path fill="#000000" d="M 273.871094 223.804688 L 271.167969 215.160156 C 270.847656 214.148438 269.90625 213.492188 268.894531 213.492188 C 268.660156 213.492188 268.421875 213.527344 268.183594 213.601562 C 267.390625 213.847656 266.890625 214.261719 266.597656 214.828125 C 266.300781 215.390625 266.242188 216.03125 266.429688 216.636719 L 269.132812 225.277344 C 269.324219 225.886719 269.738281 226.378906 270.300781 226.671875 C 270.863281 226.96875 271.503906 227.023438 272.117188 226.839844 C 272.914062 226.589844 273.410156 226.175781 273.703125 225.613281 C 274.003906 225.050781 274.0625 224.410156 273.871094 223.804688 Z M 273.871094 223.804688 " fill-opacity="1" fill-rule="nonzero"/><path fill="#000000" d="M 262.214844 189.425781 C 262.554688 188.886719 262.667969 188.253906 262.53125 187.632812 L 260.570312 178.796875 C 260.289062 177.515625 259.011719 176.699219 257.730469 176.988281 C 256.917969 177.167969 256.386719 177.539062 256.042969 178.074219 C 255.703125 178.609375 255.589844 179.246094 255.726562 179.867188 L 257.6875 188.703125 C 257.96875 189.980469 259.25 190.800781 260.527344 190.511719 C 261.339844 190.332031 261.871094 189.960938 262.214844 189.425781 Z M 262.214844 189.425781 " fill-opacity="1" fill-rule="nonzero"/><path fill="#000000" d="M 267.039062 206.191406 L 265.019531 197.367188 C 264.878906 196.75 264.503906 196.222656 263.964844 195.882812 C 263.425781 195.546875 262.785156 195.4375 262.167969 195.578125 C 261.355469 195.761719 260.828125 196.136719 260.492188 196.675781 C 260.152344 197.214844 260.042969 197.855469 260.183594 198.472656 L 262.203125 207.292969 C 262.5 208.574219 263.792969 209.386719 265.058594 209.085938 C 266.527344 208.746094 267.332031 207.46875 267.039062 206.191406 Z M 267.039062 206.191406 " fill-opacity="1" fill-rule="nonzero"/><path fill="#000000" d="M 511.769531 195.625 C 511.5 195.5625 511.253906 195.535156 511.023438 195.535156 C 510.546875 195.535156 510.140625 195.65625 509.777344 195.886719 C 509.238281 196.222656 508.867188 196.75 508.726562 197.371094 L 506.707031 206.195312 C 506.414062 207.472656 507.21875 208.75 508.5 209.046875 C 509.964844 209.375 511.25 208.578125 511.542969 207.296875 L 513.558594 198.476562 C 513.703125 197.855469 513.59375 197.214844 513.257812 196.679688 C 512.917969 196.140625 512.390625 195.765625 511.769531 195.625 Z M 511.769531 195.625 " fill-opacity="1" fill-rule="nonzero"/><path fill="#000000" d="M 505.742188 213.660156 C 505.445312 213.566406 505.152344 213.523438 504.871094 213.523438 C 503.789062 213.523438 502.882812 214.171875 502.574219 215.164062 L 499.871094 223.804688 C 499.683594 224.410156 499.742188 225.050781 500.035156 225.613281 C 500.332031 226.175781 500.828125 226.589844 501.4375 226.78125 C 502.230469 227.03125 502.878906 226.972656 503.4375 226.675781 C 504.003906 226.382812 504.417969 225.886719 504.605469 225.28125 L 507.308594 216.640625 C 507.703125 215.386719 507 214.050781 505.742188 213.660156 Z M 505.742188 213.660156 " fill-opacity="1" fill-rule="nonzero"/><path fill="#000000" d="M 499.058594 231.542969 C 498.648438 231.375 498.273438 231.292969 497.925781 231.292969 C 497.617188 231.292969 497.328125 231.355469 497.054688 231.46875 C 496.464844 231.714844 496.007812 232.171875 495.769531 232.761719 L 492.320312 241.128906 C 491.820312 242.34375 492.402344 243.734375 493.613281 244.234375 C 494.386719 244.550781 495.03125 244.546875 495.621094 244.304688 C 496.207031 244.0625 496.664062 243.601562 496.902344 243.015625 L 500.351562 234.644531 C 500.851562 233.433594 500.273438 232.039062 499.058594 231.542969 Z M 499.058594 231.542969 " fill-opacity="1" fill-rule="nonzero"/><path fill="#000000" d="M 478.183594 263.597656 C 478.125 263.597656 478.0625 263.59375 478 263.59375 C 477.433594 263.59375 476.886719 263.796875 476.449219 264.171875 L 469.582031 270.078125 C 468.585938 270.929688 468.476562 272.4375 469.332031 273.429688 C 470.316406 274.570312 471.824219 274.683594 472.816406 273.828125 L 479.6875 267.921875 C 480.683594 267.066406 480.792969 265.5625 479.9375 264.570312 C 479.390625 263.9375 478.816406 263.648438 478.183594 263.597656 Z M 478.183594 263.597656 " fill-opacity="1" fill-rule="nonzero"/><path fill="#000000" d="M 490.691406 248.695312 C 490.214844 248.398438 489.710938 248.257812 489.230469 248.257812 C 488.421875 248.257812 487.679688 248.65625 487.242188 249.355469 L 482.460938 257.042969 C 482.125 257.582031 482.019531 258.222656 482.164062 258.839844 C 482.308594 259.457031 482.683594 259.984375 483.222656 260.320312 C 484.507812 261.117188 485.980469 260.773438 486.671875 259.65625 L 491.453125 251.96875 C 491.789062 251.429688 491.894531 250.792969 491.75 250.175781 C 491.605469 249.554688 491.234375 249.03125 490.691406 248.695312 Z M 490.691406 248.695312 " fill-opacity="1" fill-rule="nonzero"/><path fill="#000000" d="M 516.207031 177.03125 C 515.945312 176.972656 515.707031 176.945312 515.480469 176.945312 C 514.996094 176.945312 514.585938 177.070312 514.21875 177.304688 C 513.683594 177.644531 513.3125 178.175781 513.175781 178.792969 L 511.210938 187.632812 C 510.929688 188.910156 511.742188 190.183594 513.023438 190.46875 C 513.84375 190.648438 514.476562 190.535156 515.011719 190.191406 C 515.550781 189.851562 515.917969 189.320312 516.058594 188.703125 L 518.015625 179.867188 C 518.300781 178.589844 517.488281 177.3125 516.207031 177.03125 Z M 516.207031 177.03125 " fill-opacity="1" fill-rule="nonzero"/><g clipPath="url(#b5b536a966)"><path fill="#000000" d="M 522.597656 139.976562 C 522.179688 139.496094 521.601562 139.203125 520.96875 139.15625 C 520.890625 139.152344 520.8125 139.148438 520.738281 139.148438 C 519.347656 139.148438 518.316406 140.097656 518.222656 141.339844 L 517.554688 150.363281 C 517.507812 151 517.710938 151.613281 518.125 152.09375 C 518.539062 152.574219 519.121094 152.867188 519.753906 152.914062 C 520.597656 152.96875 521.199219 152.769531 521.679688 152.359375 C 522.164062 151.945312 522.457031 151.363281 522.503906 150.734375 L 523.171875 141.707031 C 523.214844 141.070312 523.011719 140.457031 522.597656 139.976562 Z M 522.597656 139.976562 " fill-opacity="1" fill-rule="nonzero"/></g><path fill="#000000" d="M 518.800781 158.136719 C 518.722656 158.132812 518.644531 158.128906 518.570312 158.128906 C 517.179688 158.128906 516.144531 159.078125 516.054688 160.320312 L 515.386719 169.34375 C 515.339844 169.976562 515.542969 170.59375 515.957031 171.074219 C 516.375 171.554688 516.953125 171.847656 517.585938 171.894531 C 518.417969 171.953125 519.03125 171.75 519.515625 171.339844 C 519.996094 170.925781 520.289062 170.34375 520.335938 169.714844 L 521.003906 160.6875 C 521.050781 160.050781 520.847656 159.4375 520.433594 158.957031 C 520.011719 158.472656 519.433594 158.183594 518.800781 158.136719 Z M 518.800781 158.136719 " fill-opacity="1" fill-rule="nonzero"/><path fill="#000000" d="M 417.679688 245.824219 C 404.859375 245.824219 392.496094 250.671875 383.0625 259.21875 C 390.199219 261.210938 396.757812 264.554688 402.46875 268.964844 C 405.21875 264.878906 409.132812 262.488281 413.398438 262.488281 C 421.082031 262.488281 427.402344 270.375 428.058594 280.390625 C 428.078125 280.605469 428.125 280.816406 428.125 281.035156 C 428.125 281.136719 428.097656 281.230469 428.09375 281.328125 C 428.101562 281.589844 428.125 281.847656 428.125 282.109375 C 428.125 288.308594 425.910156 294.121094 422.277344 297.785156 C 423.785156 302.878906 424.625 308.253906 424.625 313.828125 L 424.625 445.988281 C 424.625 446.1875 424.601562 446.378906 424.59375 446.578125 L 452.015625 446.578125 C 461.488281 446.578125 469.195312 438.882812 469.195312 429.421875 L 469.195312 297.261719 C 469.191406 268.898438 446.082031 245.824219 417.679688 245.824219 Z M 443.601562 397.515625 C 443.601562 398.984375 442.410156 400.171875 440.941406 400.171875 C 439.476562 400.171875 438.285156 398.984375 438.285156 397.515625 L 438.285156 320.878906 C 438.285156 319.410156 439.476562 318.222656 440.941406 318.222656 C 442.410156 318.222656 443.601562 319.410156 443.601562 320.878906 Z M 443.601562 397.515625 " fill-opacity="1" fill-rule="nonzero"/><path fill="#000000" d="M 422.757812 280.816406 C 422.640625 279.558594 421.613281 278.558594 420.320312 278.558594 L 412.234375 278.558594 C 413.496094 280.140625 414.660156 281.800781 415.75 283.511719 L 420.320312 283.511719 C 421.632812 283.511719 422.6875 282.480469 422.769531 281.191406 C 422.765625 281.070312 422.765625 280.941406 422.757812 280.816406 Z M 422.757812 280.816406 " fill-opacity="1" fill-rule="nonzero"/></svg>