<svg xmlns="http://www.w3.org/2000/svg" xmlns:xlink="http://www.w3.org/1999/xlink" width="1080" zoomAndPan="magnify" viewBox="0 0 810 809.999993" height="1080" preserveAspectRatio="xMidYMid meet" version="1.0"><rect x="-81" width="972" fill="#ffffff" y="-80.999999" height="971.999992" fill-opacity="1"/><rect x="-81" width="972" fill="#ffffff" y="-80.999999" height="971.999992" fill-opacity="1"/><path fill="#47441c" d="M 219.886719 16.796875 C 298.949219 8.734375 349.257812 101.207031 422.925781 93.089844 C 487.503906 85.90625 532.945312 5.753906 576.015625 15.148438 C 589.960938 18.449219 603.113281 23.722656 615.472656 30.96875 C 620.039062 32.921875 624.265625 35.441406 628.15625 38.527344 C 632.046875 41.617188 635.460938 45.160156 638.402344 49.160156 C 658.847656 78.109375 637.609375 116.652344 629.792969 177.476562 C 626.953125 199.585938 629.488281 196.605469 629.792969 268.78125 C 630.261719 377.234375 630.496094 431.472656 622.605469 446.054688 C 561.300781 559.070312 195.8125 493.824219 173.082031 409.417969 C 171.734375 404.40625 174.195312 376.644531 179.171875 321.3125 C 188.15625 221.835938 189.253906 224.960938 188.660156 209.355469 C 185.53125 127.714844 176.082031 83.175781 176.082031 83.175781 C 173.296875 69.957031 168.679688 50.507812 179.191406 35.546875 C 190.023438 20.140625 211.191406 17.695312 219.886719 16.796875 Z M 219.886719 16.796875 " fill-opacity="1" fill-rule="nonzero"/><path fill="#282826" d="M 620 128.109375 C 627.296875 115.949219 654.839844 75.023438 639.964844 48.121094 C 634.449219 38.152344 624.65625 32.855469 617.019531 29.910156 C 608.125 22.582031 594.34375 13.746094 577.648438 14.085938 C 554.382812 14.570312 537.921875 32.40625 528.09375 42.265625 C 520.242188 50.167969 452.105469 118.554688 391.085938 125.808594 C 333.929688 132.617188 291.867188 84.703125 282.9375 95.621094 C 274.476562 105.984375 332.621094 160.902344 327.101562 167.0625 C 321.300781 173.542969 258.484375 112.070312 232.484375 128.089844 C 220.445312 135.507812 229.789062 151.257812 219.042969 192.996094 C 208.460938 234.121094 193.222656 243.011719 184.238281 285.753906 C 181.214844 300.460938 179.707031 315.328125 179.710938 330.34375 C 169.363281 356.90625 165.589844 383.808594 174.535156 408.359375 C 218.738281 529.671875 559.160156 554.328125 624.042969 444.996094 C 671.910156 364.464844 562.179688 224.691406 620 128.109375 Z M 620 128.109375 " fill-opacity="0.49" fill-rule="nonzero"/><path fill="#47441c" d="M 676.3125 555.496094 C 685.296875 547.972656 701.882812 547.882812 709.609375 555.246094 C 714.496094 559.933594 714.371094 566.433594 715 576.273438 C 716.78125 604.410156 717.296875 632.59375 716.542969 660.824219 C 716.292969 670.308594 715.753906 676.664062 711.027344 682.105469 C 703.480469 690.800781 687.433594 694.175781 678.414062 688.230469 C 667.976562 681.371094 673.292969 666.195312 672.46875 622.679688 C 671.625 578.699219 665.621094 564.402344 676.3125 555.496094 Z M 676.3125 555.496094 " fill-opacity="1" fill-rule="nonzero"/><path fill="#282826" d="M 696.707031 667.558594 C 686.265625 660.683594 691.585938 645.507812 690.757812 601.992188 C 690.257812 575.933594 687.9375 560.292969 688.371094 550.019531 C 686.171875 550.351562 684.054688 550.964844 682.015625 551.851562 C 679.976562 552.742188 678.089844 553.878906 676.347656 555.261719 C 665.65625 564.242188 671.675781 578.464844 672.503906 622.449219 C 673.347656 665.960938 668.011719 681.136719 678.453125 687.996094 C 687.433594 693.941406 703.515625 690.566406 711.0625 681.875 C 712.539062 680.09375 713.703125 678.132812 714.550781 675.984375 C 715.402344 673.835938 715.898438 671.609375 716.039062 669.300781 C 709.230469 671.296875 701.828125 670.9375 696.707031 667.558594 Z M 696.707031 667.558594 " fill-opacity="0.21" fill-rule="nonzero"/><path fill="#47441c" d="M 134.179688 555.496094 C 125.195312 547.972656 108.613281 547.882812 100.886719 555.246094 C 96 559.933594 96.125 566.433594 95.496094 576.273438 C 93.722656 604.410156 93.207031 632.59375 93.949219 660.824219 C 94.203125 670.308594 94.742188 676.664062 99.464844 682.105469 C 106.976562 690.800781 123.148438 694.175781 132.132812 688.230469 C 142.570312 681.371094 137.253906 666.195312 138.078125 622.679688 C 138.871094 578.699219 144.871094 564.402344 134.179688 555.496094 Z M 134.179688 555.496094 " fill-opacity="1" fill-rule="nonzero"/><path fill="#282826" d="M 113.785156 667.558594 C 124.226562 660.683594 118.90625 645.507812 119.734375 601.992188 C 120.238281 575.933594 122.554688 560.292969 122.125 550.019531 C 124.320312 550.351562 126.441406 550.964844 128.476562 551.851562 C 130.515625 552.742188 132.40625 553.878906 134.144531 555.261719 C 144.835938 564.242188 138.816406 578.464844 137.988281 622.449219 C 137.144531 665.960938 142.480469 681.136719 132.042969 687.996094 C 123.058594 693.941406 106.886719 690.566406 99.429688 681.875 C 97.953125 680.09375 96.792969 678.132812 95.941406 675.984375 C 95.089844 673.835938 94.59375 671.609375 94.453125 669.300781 C 101.261719 671.296875 108.664062 670.9375 113.785156 667.558594 Z M 113.785156 667.558594 " fill-opacity="0.21" fill-rule="nonzero"/><path fill="#878746" d="M 662.386719 457.457031 C 661.667969 394.960938 662.386719 378.5625 654.464844 349.703125 C 647.277344 323.71875 632.703125 297.136719 603.703125 245.058594 C 556.859375 160.957031 541.335938 152.929688 533.878906 149.445312 C 508.277344 137.445312 477.785156 138.128906 446.644531 138.828125 C 429.628906 139.207031 380.863281 139.207031 363.847656 138.828125 C 332.710938 138.128906 302.21875 137.445312 276.613281 149.445312 C 269.15625 152.929688 253.632812 160.957031 206.789062 245.058594 C 177.789062 297.136719 163.144531 323.71875 156.03125 349.703125 C 148.125 378.617188 148.84375 395.015625 148.105469 457.457031 C 147.097656 544.164062 155.6875 630.851562 153.621094 717.539062 C 153.15625 737.691406 152.023438 767.574219 171.679688 786.359375 C 180.664062 794.90625 190.457031 797.132812 238.917969 802.074219 C 304.246094 808.628906 336.804688 809.257812 346.382812 809.453125 C 370.28125 809.847656 440.210938 809.847656 464.09375 809.453125 C 473.6875 809.292969 506.246094 808.628906 571.578125 802.074219 C 620.089844 797.1875 629.867188 794.890625 638.8125 786.359375 C 658.472656 767.574219 657.339844 737.691406 656.871094 717.539062 C 654.804688 630.851562 663.394531 544.164062 662.386719 457.457031 Z M 662.386719 457.457031 " fill-opacity="1" fill-rule="nonzero"/><path fill="#282826" d="M 662.386719 457.402344 C 661.667969 394.890625 662.386719 378.511719 654.464844 349.652344 C 647.277344 323.664062 632.703125 297.085938 603.703125 245.003906 C 556.859375 160.828125 541.335938 152.855469 533.878906 149.265625 C 516.972656 141.34375 497.945312 138.957031 478 138.488281 L 377.664062 138.9375 C 406.648438 139.65625 475.140625 145.527344 532.082031 195.292969 C 537.957031 200.429688 560.4375 219.753906 583.902344 262.945312 C 622.660156 334.476562 622.425781 393.613281 626.253906 603.339844 C 628.050781 708.113281 628.894531 730.328125 622.230469 741.621094 C 620.953125 743.617188 619.472656 745.449219 617.792969 747.117188 C 574.757812 796.863281 480.621094 785.945312 315.460938 793.398438 C 264.574219 795.699219 214.535156 799.398438 175.742188 766.15625 C 167.15625 758.808594 159.808594 750.386719 153.695312 740.886719 C 153.945312 751.839844 156.53125 771.882812 171.660156 786.304688 C 180.644531 794.851562 190.4375 797.082031 238.898438 802 C 304.230469 808.574219 336.789062 809.183594 346.367188 809.382812 C 370.261719 809.796875 440.195312 809.796875 464.074219 809.382812 C 473.667969 809.238281 506.226562 808.574219 571.558594 802 C 620.074219 797.132812 629.847656 794.816406 638.796875 786.304688 C 658.453125 767.5 657.320312 737.636719 656.855469 717.46875 C 654.804688 630.78125 663.394531 544.109375 662.386719 457.402344 Z M 662.386719 457.402344 " fill-opacity="0.21" fill-rule="nonzero"/><path fill="#878746" d="M 498.679688 138.253906 C 502.867188 145.671875 516.988281 152.121094 545.234375 165.03125 C 564.121094 173.671875 572.082031 175.359375 579.050781 172.214844 C 587.390625 168.425781 591.773438 159.410156 595.511719 151.058594 C 604.117188 131.878906 609.183594 122.632812 618.042969 100.773438 C 635.527344 57.671875 646.648438 53.703125 642.371094 40.738281 C 638.292969 28.417969 625.050781 22.382812 602.714844 12.203125 C 586.886719 5.019531 576.429688 0.222656 565.125 3.402344 C 551.9375 7.117188 545.144531 19.566406 537.078125 35.207031 C 506.441406 94.867188 491.242188 124.949219 498.679688 138.253906 Z M 498.679688 138.253906 " fill-opacity="1" fill-rule="nonzero"/><path fill="#282826" d="M 642.300781 40.738281 C 640.933594 36.738281 638.679688 33.320312 635.542969 30.484375 C 639.476562 43.054688 628.355469 47.507812 611.105469 90.144531 C 602.25 111.980469 597.179688 121.210938 588.574219 140.429688 C 584.835938 148.78125 580.433594 157.792969 572.117188 161.566406 C 565.144531 164.746094 557.167969 163.058594 538.300781 154.382812 C 517.257812 144.773438 504.070312 138.722656 496.972656 133.207031 C 497.214844 134.988281 497.765625 136.664062 498.625 138.238281 C 502.796875 145.65625 516.917969 152.101562 545.164062 165.015625 C 564.046875 173.652344 572.007812 175.339844 578.980469 172.199219 C 587.316406 168.410156 591.703125 159.394531 595.4375 151.042969 C 604.046875 131.863281 609.113281 122.613281 617.96875 100.757812 C 635.453125 57.671875 646.574219 53.703125 642.300781 40.738281 Z M 642.300781 40.738281 " fill-opacity="0.21" fill-rule="nonzero"/><path fill="#606c38" d="M 516.898438 117.960938 C 520.277344 123.941406 531.6875 129.167969 554.507812 139.601562 C 569.746094 146.570312 576.175781 147.933594 581.820312 145.367188 C 588.539062 142.3125 592.097656 135.039062 595.117188 128.304688 C 602.050781 112.789062 606.148438 105.320312 613.316406 87.699219 C 627.421875 52.914062 636.40625 49.664062 632.957031 39.210938 C 629.667969 29.261719 618.957031 24.378906 600.917969 16.152344 C 588.144531 10.332031 579.699219 6.492188 570.570312 9.058594 C 559.898438 12.058594 554.398438 22.097656 547.914062 34.738281 C 523.117188 82.90625 510.84375 107.222656 516.898438 117.960938 Z M 516.898438 117.960938 " fill-opacity="1" fill-rule="nonzero"/><path fill="#282826" d="M 632.957031 39.195312 C 632.167969 36.992188 631.054688 34.96875 629.613281 33.125 C 628.171875 31.28125 626.476562 29.714844 624.527344 28.417969 C 625.621094 31.785156 626.183594 35.238281 626.214844 38.777344 C 626.246094 42.316406 625.742188 45.777344 624.707031 49.160156 C 621.257812 59.738281 613.066406 65.324219 608.320312 68.449219 C 582.105469 86.101562 535.175781 74.824219 529.785156 73.476562 C 526.0625 76.117188 522.433594 79.746094 522.128906 84.253906 C 521.210938 97.957031 551.113281 110.402344 550.878906 110.976562 C 550.714844 111.246094 543.277344 107.652344 519.09375 95.027344 C 515.175781 105.804688 514.3125 113.167969 516.972656 117.871094 C 520.351562 123.851562 531.761719 129.078125 554.578125 139.511719 C 569.816406 146.480469 576.25 147.84375 581.890625 145.277344 C 588.609375 142.222656 592.167969 134.949219 595.1875 128.214844 C 602.121094 112.699219 606.21875 105.230469 613.390625 87.609375 C 627.421875 52.914062 636.40625 49.664062 632.957031 39.195312 Z M 632.957031 39.195312 " fill-opacity="0.21" fill-rule="nonzero"/><path fill="#606c38" d="M 503.550781 104.367188 C 507.339844 112.449219 524.105469 106.164062 548.828125 113.757812 C 557.121094 116.351562 564.957031 119.941406 572.332031 124.535156 C 581.894531 130.285156 590.453125 137.265625 598.007812 145.476562 C 600.253906 144.363281 602.257812 142.917969 604.015625 141.132812 C 605.777344 139.351562 607.199219 137.332031 608.285156 135.078125 C 609.296875 132.84375 609.9375 130.507812 610.210938 128.074219 C 610.480469 125.636719 610.367188 123.21875 609.867188 120.816406 C 607.960938 112.214844 601.296875 107.132812 592.421875 101.0625 C 586.554688 97.078125 580.386719 93.640625 573.914062 90.753906 C 563.042969 85.796875 551.757812 82.097656 540.0625 79.65625 C 522.578125 75.9375 518.140625 77.859375 516.269531 78.863281 C 509.085938 82.636719 505.941406 90.359375 505.167969 92.335938 C 503.550781 96.589844 501.933594 100.773438 503.550781 104.367188 Z M 503.550781 104.367188 " fill-opacity="1" fill-rule="nonzero"/><path fill="#ffffff" d="M 510.484375 95.386719 C 512.605469 99.140625 522.09375 95.101562 536.628906 95.0625 C 542.523438 95.046875 548.347656 95.664062 554.105469 96.921875 C 559.867188 98.179688 565.417969 100.042969 570.769531 102.515625 C 586.382812 110.183594 593.660156 122.054688 594.578125 121.285156 C 595.492188 120.511719 588.628906 106.59375 575.007812 95.90625 C 555.550781 80.679688 525.507812 74.5 514.1875 85.867188 C 511.5625 88.5625 509.121094 93 510.484375 95.386719 Z M 510.484375 95.386719 " fill-opacity="0.12" fill-rule="nonzero"/><path fill="#ffffff" d="M 547.769531 51.316406 C 558.027344 32.710938 556.753906 24.378906 565.253906 18.71875 C 568.558594 16.660156 572.152344 15.460938 576.035156 15.128906 C 588.429688 13.332031 598.007812 19.617188 615.417969 30.949219 C 619.011719 33.265625 620.71875 34.542969 620.449219 35.441406 C 619.625 37.902344 603.722656 30.519531 587.390625 32.800781 C 561.515625 36.390625 545.054688 62.703125 542.972656 60.796875 C 542.289062 60.167969 544.515625 57.222656 547.769531 51.316406 Z M 547.769531 51.316406 " fill-opacity="0.09" fill-rule="nonzero"/><path fill="#878746" d="M 311.8125 138.253906 C 307.625 145.671875 293.503906 152.121094 265.257812 165.03125 C 246.371094 173.671875 238.414062 175.359375 231.441406 172.214844 C 223.105469 168.425781 218.71875 159.410156 214.984375 151.058594 C 206.375 131.878906 201.308594 122.632812 192.449219 100.773438 C 174.914062 57.671875 163.792969 53.703125 168.066406 40.738281 C 172.148438 28.417969 185.390625 22.382812 207.722656 12.203125 C 223.554688 5.019531 234.011719 0.222656 245.3125 3.402344 C 258.5 7.117188 265.292969 19.566406 273.359375 35.207031 C 304.050781 94.867188 319.25 124.949219 311.8125 138.253906 Z M 311.8125 138.253906 " fill-opacity="1" fill-rule="nonzero"/><path fill="#282826" d="M 168.195312 40.738281 C 169.5625 36.738281 171.8125 33.320312 174.949219 30.484375 C 171.015625 43.054688 182.136719 47.507812 199.386719 90.144531 C 208.246094 111.980469 213.3125 121.210938 221.917969 140.429688 C 225.65625 148.78125 230.058594 157.792969 238.378906 161.566406 C 245.347656 164.746094 253.328125 163.058594 272.191406 154.382812 C 293.234375 144.773438 306.421875 138.722656 313.519531 133.207031 C 313.277344 134.988281 312.726562 136.664062 311.867188 138.238281 C 307.699219 145.65625 293.574219 152.101562 265.328125 165.015625 C 246.445312 173.652344 238.484375 175.339844 231.511719 172.199219 C 223.175781 168.410156 218.792969 159.394531 215.054688 151.042969 C 206.449219 131.863281 201.382812 122.613281 192.523438 100.757812 C 175.039062 57.671875 163.917969 53.703125 168.195312 40.738281 Z M 168.195312 40.738281 " fill-opacity="0.21" fill-rule="nonzero"/><path fill="#606c38" d="M 293.59375 117.960938 C 290.214844 123.941406 278.804688 129.167969 255.984375 139.601562 C 240.75 146.570312 234.316406 147.933594 228.675781 145.367188 C 221.953125 142.3125 218.398438 135.039062 215.378906 128.304688 C 208.441406 112.789062 204.34375 105.320312 197.175781 87.699219 C 183.070312 52.914062 174.085938 49.664062 177.539062 39.210938 C 180.824219 29.261719 191.535156 24.378906 209.574219 16.152344 C 222.347656 10.332031 230.792969 6.492188 239.921875 9.058594 C 250.59375 12.058594 256.09375 22.097656 262.582031 34.738281 C 287.375 82.90625 299.648438 107.222656 293.59375 117.960938 Z M 293.59375 117.960938 " fill-opacity="1" fill-rule="nonzero"/><path fill="#282826" d="M 177.539062 39.195312 C 178.324219 36.992188 179.4375 34.96875 180.878906 33.125 C 182.320312 31.28125 184.015625 29.714844 185.964844 28.417969 C 184.871094 31.785156 184.308594 35.238281 184.277344 38.777344 C 184.246094 42.316406 184.75 45.777344 185.785156 49.160156 C 189.234375 59.738281 197.429688 65.324219 202.171875 68.449219 C 228.386719 86.101562 275.320312 74.824219 280.710938 73.476562 C 284.429688 76.117188 288.058594 79.746094 288.363281 84.253906 C 289.28125 97.957031 259.382812 110.402344 259.617188 110.976562 C 259.777344 111.246094 267.214844 107.652344 291.402344 95.027344 C 295.316406 105.804688 296.179688 113.167969 293.519531 117.871094 C 290.144531 123.851562 278.734375 129.078125 255.914062 139.511719 C 240.675781 146.480469 234.246094 147.84375 228.601562 145.277344 C 221.882812 142.222656 218.324219 134.949219 215.304688 128.214844 C 208.371094 112.699219 204.273438 105.230469 197.105469 87.609375 C 183.070312 52.914062 174.085938 49.664062 177.539062 39.195312 Z M 177.539062 39.195312 " fill-opacity="0.21" fill-rule="nonzero"/><path fill="#606c38" d="M 306.941406 104.367188 C 303.152344 112.449219 286.386719 106.164062 261.664062 113.757812 C 253.371094 116.351562 245.535156 119.941406 238.160156 124.535156 C 228.597656 130.285156 220.039062 137.265625 212.484375 145.476562 C 210.242188 144.363281 208.238281 142.914062 206.476562 141.132812 C 204.714844 139.351562 203.292969 137.332031 202.207031 135.078125 C 201.195312 132.84375 200.554688 130.507812 200.285156 128.074219 C 200.011719 125.636719 200.128906 123.21875 200.625 120.816406 C 202.53125 112.214844 209.195312 107.132812 218.074219 101.0625 C 223.9375 97.078125 230.105469 93.640625 236.582031 90.753906 C 247.464844 85.765625 258.769531 82.042969 270.484375 79.582031 C 287.96875 75.867188 292.40625 77.789062 294.277344 78.792969 C 301.464844 82.566406 304.609375 90.285156 305.378906 92.261719 C 306.941406 96.589844 308.558594 100.773438 306.941406 104.367188 Z M 306.941406 104.367188 " fill-opacity="1" fill-rule="nonzero"/><path fill="#ffffff" d="M 300.007812 95.386719 C 297.886719 99.140625 288.398438 95.101562 273.863281 95.0625 C 267.96875 95.046875 262.144531 95.664062 256.386719 96.921875 C 250.628906 98.179688 245.074219 100.042969 239.726562 102.515625 C 224.109375 110.183594 216.832031 122.054688 215.917969 121.285156 C 215 120.511719 221.863281 106.59375 235.484375 95.90625 C 254.945312 80.679688 284.984375 74.5 296.304688 85.867188 C 298.929688 88.5625 301.375 93 300.007812 95.386719 Z M 300.007812 95.386719 " fill-opacity="0.12" fill-rule="nonzero"/><path fill="#ffffff" d="M 262.722656 51.316406 C 252.464844 32.710938 253.738281 24.378906 245.242188 18.71875 C 241.9375 16.660156 238.34375 15.460938 234.460938 15.128906 C 222.0625 13.332031 212.484375 19.617188 195.074219 30.949219 C 191.480469 33.265625 189.773438 34.542969 190.042969 35.441406 C 190.871094 37.902344 206.769531 30.519531 223.105469 32.800781 C 248.976562 36.390625 265.4375 62.703125 267.519531 60.796875 C 268.203125 60.167969 265.976562 57.222656 262.722656 51.316406 Z M 262.722656 51.316406 " fill-opacity="0.09" fill-rule="nonzero"/><path fill="#606c38" d="M 650.222656 521.984375 C 643.035156 526.816406 644.941406 535.847656 643.933594 571.550781 C 643.46875 587.804688 642.785156 595.921875 648.75 602.242188 C 650.382812 603.902344 652.234375 605.273438 654.300781 606.347656 C 656.363281 607.425781 658.546875 608.15625 660.84375 608.546875 C 666.449219 609.445312 673.832031 608.277344 678.183594 603.609375 C 681.578125 600.015625 681.488281 596.136719 681.164062 581.050781 C 680.875 567.941406 680.582031 554.824219 680.285156 541.703125 C 680.085938 532.722656 679.691406 527.785156 675.898438 523.941406 C 671.390625 519.34375 664.542969 518.984375 663 518.914062 C 662.550781 518.878906 655.328125 518.574219 650.222656 521.984375 Z M 650.222656 521.984375 " fill-opacity="1" fill-rule="nonzero"/><path fill="#282826" d="M 681.164062 580.621094 C 680.875 567.511719 680.582031 554.402344 680.285156 541.289062 C 680.085938 532.3125 679.691406 527.355469 675.898438 523.511719 C 673.757812 521.441406 671.242188 520.046875 668.351562 519.328125 C 671.265625 523.027344 671.640625 527.820312 671.820312 535.992188 C 672.121094 549.101562 672.414062 562.21875 672.703125 575.339844 C 673.042969 590.445312 673.113281 594.234375 669.71875 597.898438 C 665.371094 602.566406 657.984375 603.734375 652.398438 602.855469 C 651.175781 602.648438 649.976562 602.34375 648.804688 601.9375 C 650.4375 603.558594 652.273438 604.898438 654.320312 605.957031 C 656.363281 607.015625 658.519531 607.738281 660.789062 608.132812 C 666.394531 609.015625 673.78125 607.847656 678.128906 603.175781 C 681.578125 599.511719 681.488281 595.722656 681.164062 580.621094 Z M 681.164062 580.621094 " fill-opacity="0.21" fill-rule="nonzero"/><path fill="#606c38" d="M 650.222656 629.09375 C 643.035156 633.90625 644.941406 642.957031 643.933594 678.660156 C 643.46875 694.910156 642.785156 703.027344 648.75 709.351562 C 650.382812 711.011719 652.234375 712.378906 654.300781 713.457031 C 656.363281 714.53125 658.546875 715.265625 660.84375 715.65625 C 666.449219 716.550781 673.832031 715.386719 678.183594 710.714844 C 681.578125 707.125 681.488281 703.246094 681.164062 688.140625 C 680.875 675.03125 680.582031 661.921875 680.285156 648.8125 C 680.085938 639.832031 679.691406 634.894531 675.898438 631.03125 C 671.390625 626.453125 664.542969 626.09375 663 626.019531 C 662.550781 625.984375 655.328125 625.679688 650.222656 629.09375 Z M 650.222656 629.09375 " fill-opacity="1" fill-rule="nonzero"/><path fill="#282826" d="M 681.164062 687.726562 C 680.875 674.617188 680.582031 661.503906 680.285156 648.378906 C 680.085938 639.402344 679.691406 634.460938 675.898438 630.617188 C 673.753906 628.550781 671.238281 627.152344 668.351562 626.417969 C 671.265625 630.117188 671.640625 634.910156 671.820312 643.101562 C 672.121094 656.210938 672.414062 669.324219 672.703125 682.449219 C 673.042969 697.535156 673.113281 701.339844 669.71875 705.003906 C 665.371094 709.675781 657.984375 710.839844 652.398438 709.941406 C 651.171875 709.757812 649.972656 709.457031 648.804688 709.046875 C 650.4375 710.667969 652.273438 712.007812 654.320312 713.0625 C 656.363281 714.121094 658.519531 714.847656 660.789062 715.242188 C 666.394531 716.121094 673.78125 714.953125 678.128906 710.285156 C 681.578125 706.621094 681.488281 702.832031 681.164062 687.726562 Z M 681.164062 687.726562 " fill-opacity="0.21" fill-rule="nonzero"/><path fill="#606c38" d="M 135.726562 521.984375 C 128.539062 526.816406 130.441406 535.847656 129.4375 571.550781 C 128.96875 587.804688 128.285156 595.921875 134.253906 602.242188 C 135.890625 603.902344 137.742188 605.273438 139.808594 606.347656 C 141.878906 607.425781 144.0625 608.160156 146.363281 608.546875 C 151.949219 609.445312 159.335938 608.277344 163.683594 603.609375 C 167.078125 600.015625 166.988281 596.136719 166.667969 581.050781 C 166.378906 567.941406 166.085938 554.824219 165.785156 541.703125 C 165.589844 532.722656 165.191406 527.785156 161.402344 523.941406 C 156.890625 519.34375 150.046875 518.984375 148.5 518.914062 C 148.085938 518.878906 140.863281 518.574219 135.726562 521.984375 Z M 135.726562 521.984375 " fill-opacity="1" fill-rule="nonzero"/><path fill="#282826" d="M 166.703125 580.621094 C 166.414062 567.511719 166.121094 554.402344 165.820312 541.289062 C 165.625 532.3125 165.230469 527.355469 161.4375 523.511719 C 159.296875 521.4375 156.78125 520.042969 153.890625 519.328125 C 156.800781 523.027344 157.179688 527.820312 157.378906 535.992188 L 158.238281 575.339844 C 158.582031 590.445312 158.652344 594.234375 155.257812 597.898438 C 150.910156 602.566406 143.523438 603.734375 137.9375 602.855469 C 136.714844 602.644531 135.515625 602.339844 134.34375 601.9375 C 135.976562 603.5625 137.816406 604.902344 139.867188 605.960938 C 141.914062 607.015625 144.074219 607.742188 146.34375 608.132812 C 151.933594 609.015625 159.316406 607.847656 163.664062 603.175781 C 167.117188 599.511719 167.027344 595.722656 166.703125 580.621094 Z M 166.703125 580.621094 " fill-opacity="0.21" fill-rule="nonzero"/><path fill="#606c38" d="M 135.726562 629.09375 C 128.539062 633.90625 130.441406 642.957031 129.4375 678.660156 C 128.96875 694.910156 128.285156 703.027344 134.253906 709.351562 C 135.890625 711.011719 137.742188 712.378906 139.808594 713.457031 C 141.878906 714.535156 144.0625 715.265625 146.363281 715.65625 C 151.949219 716.550781 159.335938 715.386719 163.683594 710.714844 C 167.078125 707.125 166.988281 703.246094 166.667969 688.140625 C 166.378906 675.03125 166.085938 661.921875 165.785156 648.8125 C 165.589844 639.832031 165.191406 634.894531 161.402344 631.03125 C 156.890625 626.453125 150.046875 626.09375 148.5 626.019531 C 148.085938 625.984375 140.863281 625.679688 135.726562 629.09375 Z M 135.726562 629.09375 " fill-opacity="1" fill-rule="nonzero"/><path fill="#282826" d="M 166.703125 687.726562 C 166.414062 674.617188 166.121094 661.503906 165.820312 648.378906 C 165.625 639.402344 165.230469 634.460938 161.4375 630.617188 C 159.296875 628.550781 156.78125 627.148438 153.890625 626.417969 C 156.800781 630.117188 157.179688 634.910156 157.378906 643.101562 L 158.238281 682.449219 C 158.582031 697.535156 158.652344 701.339844 155.257812 705.003906 C 150.910156 709.675781 143.523438 710.839844 137.9375 709.941406 C 136.710938 709.753906 135.511719 709.453125 134.34375 709.046875 C 135.976562 710.667969 137.816406 712.011719 139.867188 713.066406 C 141.914062 714.125 144.074219 714.847656 146.34375 715.242188 C 151.933594 716.121094 159.316406 714.953125 163.664062 710.285156 C 167.117188 706.621094 167.027344 702.832031 166.703125 687.726562 Z M 166.703125 687.726562 " fill-opacity="0.21" fill-rule="nonzero"/><path fill="#47441c" d="M 533.46875 481.003906 C 533.730469 481.929688 533.941406 482.871094 534.09375 483.820312 C 534.09375 484.074219 534.183594 484.34375 534.222656 484.613281 C 534.222656 484.433594 534.113281 483.660156 534.222656 484.613281 C 534.222656 485.277344 534.363281 485.960938 534.417969 486.640625 C 534.652344 489.300781 534.761719 492.027344 534.832031 494.632812 C 534.976562 499.894531 534.832031 505.15625 535.335938 510.402344 C 535.660156 514.261719 536.035156 519.003906 539.882812 521.050781 C 543.726562 523.097656 548.199219 521.914062 552.171875 521.445312 C 561.136719 520.195312 570.007812 520.6875 578.78125 522.917969 C 579.136719 523.011719 579.5 523.0625 579.863281 523.074219 C 580.230469 523.085938 580.59375 523.054688 580.953125 522.980469 C 581.316406 522.910156 581.660156 522.796875 581.996094 522.644531 C 582.332031 522.496094 582.644531 522.308594 582.933594 522.085938 C 583.226562 521.863281 583.488281 521.613281 583.722656 521.328125 C 583.957031 521.046875 584.160156 520.742188 584.324219 520.414062 C 584.488281 520.085938 584.613281 519.746094 584.699219 519.386719 C 584.789062 519.03125 584.832031 518.667969 584.835938 518.304688 C 584.980469 511.710938 584.550781 505.175781 584.15625 498.546875 C 583.976562 495.226562 583.8125 491.902344 583.832031 488.582031 C 583.832031 487.074219 583.832031 485.582031 584.011719 484.089844 L 584.117188 482.886719 C 584.117188 483.371094 584.117188 483.246094 584.117188 482.886719 C 584.117188 482.527344 584.371094 481.613281 584.53125 481.09375 C 584.625 480.738281 584.675781 480.378906 584.6875 480.011719 C 584.699219 479.644531 584.667969 479.285156 584.597656 478.925781 C 584.523438 478.566406 584.414062 478.21875 584.261719 477.886719 C 584.113281 477.550781 583.925781 477.238281 583.703125 476.949219 C 583.484375 476.65625 583.230469 476.394531 582.949219 476.160156 C 582.667969 475.925781 582.363281 475.726562 582.039062 475.558594 C 581.710938 475.394531 581.371094 475.269531 581.015625 475.179688 C 580.660156 475.09375 580.296875 475.046875 579.933594 475.039062 L 538.085938 475.039062 C 531.921875 475.039062 531.921875 484.59375 538.085938 484.59375 L 579.933594 484.59375 L 575.316406 478.542969 C 573.519531 484.773438 574.199219 491.777344 574.558594 498.136719 C 574.9375 504.886719 575.421875 511.621094 575.277344 518.394531 L 581.332031 513.777344 C 573.40625 511.542969 565.339844 510.765625 557.128906 511.441406 C 554.164062 511.710938 551.21875 512.105469 548.273438 512.429688 C 547.375 512.519531 546.476562 512.628906 545.558594 512.664062 C 544.644531 512.699219 542.917969 512.554688 544.660156 512.753906 C 544.417969 512.726562 544.183594 512.667969 543.960938 512.574219 C 544.320312 512.71875 545.128906 513.167969 544.425781 512.699219 C 544.863281 513 545.21875 513.375 545.488281 513.832031 C 544.949219 513.058594 545.488281 513.832031 545.488281 514.011719 C 545.402344 513.34375 545.253906 512.691406 545.039062 512.054688 C 544.859375 511.246094 545.039062 512.96875 545.039062 511.800781 L 544.875 510.097656 C 544.5 505.066406 544.554688 500.019531 544.410156 494.992188 C 544.527344 489.4375 543.957031 483.953125 542.703125 478.542969 C 540.996094 472.527344 531.742188 475.058594 533.46875 481.003906 Z M 533.46875 481.003906 " fill-opacity="1" fill-rule="nonzero"/><path fill="#606c38" d="M 532.082031 479.710938 C 530.070312 469.828125 528.765625 459.855469 528.167969 449.789062 C 526.371094 421.34375 524.734375 392.484375 541.625 380.613281 C 551.058594 373.96875 565.449219 373.230469 574.957031 379.230469 C 579.195312 381.90625 585.609375 387.902344 589.238281 412.523438 C 591.980469 431.65625 591.652344 450.734375 588.25 469.761719 C 588.121094 470.5 587.925781 471.222656 587.667969 471.929688 C 587.40625 472.636719 587.082031 473.3125 586.699219 473.957031 C 586.3125 474.605469 585.875 475.210938 585.378906 475.777344 C 584.882812 476.34375 584.339844 476.859375 583.75 477.328125 C 583.160156 477.796875 582.53125 478.203125 581.867188 478.558594 C 581.203125 478.910156 580.511719 479.199219 579.792969 479.425781 C 579.078125 479.652344 578.34375 479.8125 577.597656 479.90625 C 576.851562 480 576.101562 480.023438 575.351562 479.980469 C 571.414062 479.761719 567.410156 479.582031 563.3125 479.476562 C 552.316406 479.117188 541.894531 479.242188 532.082031 479.710938 Z M 532.082031 479.710938 " fill-opacity="1" fill-rule="nonzero"/><path fill="#282826" d="M 589.238281 412.472656 C 585.644531 387.847656 579.195312 381.851562 574.957031 379.175781 C 572.949219 377.929688 570.8125 376.984375 568.539062 376.335938 C 572.113281 380.847656 575.109375 385.714844 577.523438 390.9375 C 586.257812 409.796875 591.269531 442.230469 573.75 458.121094 C 565.84375 465.304688 550.804688 471.414062 539.449219 464.855469 C 531.671875 460.367188 528.957031 451.820312 528.058594 448.351562 C 528.058594 448.820312 528.058594 449.269531 528.148438 449.734375 C 528.75 459.820312 530.0625 469.8125 532.082031 479.710938 C 541.894531 479.296875 552.316406 479.171875 563.3125 479.476562 C 571.21875 479.691406 578.800781 480.121094 586.058594 480.695312 C 588.71875 469.527344 590.316406 458.203125 590.851562 446.734375 C 591.386719 435.261719 590.847656 423.839844 589.238281 412.472656 Z M 589.238281 412.472656 " fill-opacity="0.21" fill-rule="nonzero"/><path fill="#ffffff" d="M 553.753906 388.550781 C 544.769531 394.980469 542.269531 406.183594 540.257812 415.902344 C 535.550781 438.621094 540.257812 455.230469 538.675781 455.554688 C 537.097656 455.878906 532.03125 443.933594 531.492188 429.386719 C 530.933594 413.226562 536.144531 391.171875 549.726562 385.390625 C 553.449219 383.808594 559.234375 382.820312 559.644531 383.808594 C 560.058594 384.796875 556.050781 386.898438 553.753906 388.550781 Z M 553.753906 388.550781 " fill-opacity="0.09" fill-rule="nonzero"/><path fill="#47441c" d="M 225.78125 481.003906 C 226.046875 481.929688 226.257812 482.871094 226.410156 483.820312 C 226.410156 484.074219 226.5 484.34375 226.535156 484.613281 C 226.535156 484.433594 226.429688 483.660156 226.535156 484.613281 C 226.535156 485.277344 226.679688 485.960938 226.734375 486.640625 C 226.96875 489.300781 227.074219 492.027344 227.148438 494.632812 C 227.289062 499.894531 227.148438 505.15625 227.648438 510.402344 C 227.972656 514.261719 228.351562 519.003906 232.195312 521.050781 C 236.042969 523.097656 240.515625 521.914062 244.484375 521.445312 C 253.453125 520.195312 262.324219 520.6875 271.097656 522.917969 C 271.453125 523.011719 271.8125 523.0625 272.179688 523.074219 C 272.546875 523.085938 272.910156 523.054688 273.269531 522.980469 C 273.628906 522.910156 273.976562 522.796875 274.3125 522.644531 C 274.644531 522.496094 274.957031 522.308594 275.25 522.085938 C 275.542969 521.863281 275.804688 521.609375 276.039062 521.328125 C 276.273438 521.046875 276.472656 520.742188 276.636719 520.414062 C 276.800781 520.085938 276.929688 519.742188 277.015625 519.386719 C 277.101562 519.03125 277.148438 518.667969 277.152344 518.304688 C 277.296875 511.710938 276.863281 505.175781 276.46875 498.546875 C 276.289062 495.226562 276.128906 491.902344 276.144531 488.582031 C 276.144531 487.074219 276.144531 485.582031 276.324219 484.089844 C 276.324219 483.695312 276.324219 483.285156 276.433594 482.886719 C 276.433594 483.371094 276.433594 483.246094 276.433594 482.886719 C 276.433594 482.527344 276.683594 481.613281 276.847656 481.09375 C 276.941406 480.738281 276.992188 480.375 277 480.011719 C 277.011719 479.644531 276.980469 479.28125 276.910156 478.921875 C 276.835938 478.5625 276.726562 478.214844 276.574219 477.878906 C 276.421875 477.546875 276.234375 477.234375 276.015625 476.941406 C 275.792969 476.648438 275.539062 476.386719 275.257812 476.152344 C 274.972656 475.917969 274.667969 475.71875 274.339844 475.554688 C 274.011719 475.390625 273.671875 475.265625 273.3125 475.175781 C 272.957031 475.089844 272.597656 475.042969 272.230469 475.039062 L 230.398438 475.039062 C 224.234375 475.039062 224.234375 484.59375 230.398438 484.59375 L 272.28125 484.59375 L 267.683594 478.542969 C 265.886719 484.773438 266.570312 491.777344 266.929688 498.136719 C 267.304688 504.886719 267.789062 511.621094 267.648438 518.394531 L 273.703125 513.777344 C 265.773438 511.542969 257.707031 510.765625 249.5 511.441406 C 246.535156 511.710938 243.585938 512.105469 240.640625 512.429688 C 239.742188 512.519531 238.84375 512.628906 237.929688 512.664062 C 237.011719 512.699219 235.285156 512.554688 237.03125 512.753906 C 236.789062 512.726562 236.554688 512.667969 236.328125 512.574219 C 236.6875 512.71875 237.496094 513.167969 236.796875 512.699219 C 237.234375 513 237.585938 513.375 237.855469 513.832031 C 237.316406 513.058594 237.855469 513.832031 237.855469 514.011719 C 237.773438 513.34375 237.621094 512.691406 237.40625 512.054688 C 237.226562 511.246094 237.40625 512.96875 237.40625 511.800781 L 237.246094 510.097656 C 236.867188 505.066406 236.921875 500.019531 236.777344 494.992188 C 236.867188 489.433594 236.265625 483.949219 234.980469 478.542969 C 233.308594 472.527344 224.054688 475.058594 225.78125 481.003906 Z M 225.78125 481.003906 " fill-opacity="1" fill-rule="nonzero"/><path fill="#606c38" d="M 224.398438 479.710938 C 222.386719 469.828125 221.082031 459.855469 220.480469 449.789062 C 218.773438 421.34375 217.050781 392.484375 233.9375 380.613281 C 243.371094 373.96875 257.765625 373.230469 267.269531 379.230469 C 271.511719 381.90625 277.925781 387.902344 281.554688 412.523438 C 284.296875 431.65625 283.96875 450.734375 280.566406 469.761719 C 280.4375 470.5 280.242188 471.222656 279.980469 471.929688 C 279.71875 472.636719 279.398438 473.3125 279.011719 473.957031 C 278.628906 474.605469 278.1875 475.210938 277.691406 475.777344 C 277.195312 476.34375 276.65625 476.859375 276.066406 477.328125 C 275.476562 477.792969 274.847656 478.203125 274.183594 478.558594 C 273.519531 478.910156 272.828125 479.199219 272.109375 479.425781 C 271.390625 479.652344 270.660156 479.8125 269.914062 479.90625 C 269.164062 480 268.417969 480.023438 267.664062 479.980469 C 263.730469 479.761719 259.722656 479.582031 255.625 479.476562 C 244.628906 479.117188 234.207031 479.242188 224.398438 479.710938 Z M 224.398438 479.710938 " fill-opacity="1" fill-rule="nonzero"/><path fill="#282826" d="M 281.554688 412.472656 C 277.960938 387.847656 271.511719 381.851562 267.269531 379.175781 C 265.265625 377.929688 263.125 376.984375 260.855469 376.335938 C 264.429688 380.847656 267.421875 385.714844 269.839844 390.9375 C 278.570312 409.796875 283.585938 442.230469 266.066406 458.121094 C 258.160156 465.304688 243.121094 471.414062 231.765625 464.855469 C 223.984375 460.367188 221.253906 451.820312 220.375 448.351562 C 220.375 448.820312 220.375 449.269531 220.375 449.734375 C 221.007812 459.820312 222.347656 469.8125 224.398438 479.710938 C 234.207031 479.296875 244.628906 479.171875 255.625 479.476562 C 263.515625 479.691406 271.113281 480.121094 278.375 480.695312 C 281.035156 469.527344 282.632812 458.203125 283.167969 446.734375 C 283.703125 435.261719 283.164062 423.839844 281.554688 412.472656 Z M 281.554688 412.472656 " fill-opacity="0.21" fill-rule="nonzero"/><path fill="#ffffff" d="M 246.066406 388.550781 C 237.082031 394.980469 234.585938 406.183594 232.574219 415.902344 C 227.867188 438.621094 232.574219 455.230469 230.992188 455.554688 C 229.410156 455.878906 224.34375 443.933594 223.804688 429.386719 C 223.246094 413.226562 228.457031 391.171875 242.042969 385.390625 C 245.761719 383.808594 251.546875 382.820312 251.960938 383.808594 C 252.375 384.796875 248.367188 386.898438 246.066406 388.550781 Z M 246.066406 388.550781 " fill-opacity="0.09" fill-rule="nonzero"/><path fill="#606c38" d="M 219.367188 512.953125 L 591.125 512.953125 C 591.921875 512.953125 592.71875 512.992188 593.511719 513.070312 C 594.304688 513.148438 595.089844 513.261719 595.871094 513.417969 C 596.652344 513.574219 597.425781 513.765625 598.1875 514 C 598.949219 514.230469 599.699219 514.496094 600.4375 514.800781 C 601.171875 515.105469 601.890625 515.445312 602.59375 515.824219 C 603.296875 516.199219 603.980469 516.605469 604.640625 517.050781 C 605.304688 517.492188 605.945312 517.964844 606.558594 518.472656 C 607.175781 518.976562 607.765625 519.511719 608.328125 520.074219 C 608.894531 520.636719 609.425781 521.226562 609.933594 521.839844 C 610.4375 522.457031 610.914062 523.097656 611.355469 523.757812 C 611.796875 524.421875 612.207031 525.101562 612.582031 525.804688 C 612.957031 526.507812 613.296875 527.226562 613.601562 527.960938 C 613.90625 528.699219 614.175781 529.445312 614.40625 530.210938 C 614.640625 530.972656 614.832031 531.742188 614.988281 532.523438 C 615.144531 533.304688 615.261719 534.09375 615.339844 534.882812 C 615.417969 535.675781 615.457031 536.472656 615.457031 537.269531 L 615.457031 723.304688 C 615.457031 724.101562 615.417969 724.894531 615.339844 725.6875 C 615.261719 726.480469 615.144531 727.269531 614.988281 728.046875 C 614.832031 728.828125 614.640625 729.601562 614.40625 730.363281 C 614.175781 731.125 613.90625 731.875 613.601562 732.609375 C 613.296875 733.347656 612.957031 734.066406 612.582031 734.765625 C 612.207031 735.46875 611.796875 736.152344 611.355469 736.8125 C 610.914062 737.476562 610.4375 738.117188 609.933594 738.730469 C 609.425781 739.347656 608.894531 739.9375 608.328125 740.5 C 607.765625 741.0625 607.175781 741.597656 606.558594 742.101562 C 605.945312 742.605469 605.304688 743.082031 604.644531 743.523438 C 603.980469 743.964844 603.296875 744.375 602.59375 744.75 C 601.890625 745.125 601.171875 745.464844 600.4375 745.769531 C 599.699219 746.074219 598.949219 746.34375 598.1875 746.574219 C 597.425781 746.804688 596.652344 747 595.871094 747.152344 C 595.089844 747.308594 594.304688 747.425781 593.511719 747.503906 C 592.71875 747.582031 591.921875 747.621094 591.125 747.621094 L 219.367188 747.621094 C 218.570312 747.621094 217.773438 747.582031 216.980469 747.503906 C 216.1875 747.425781 215.402344 747.308594 214.621094 747.152344 C 213.839844 747 213.066406 746.804688 212.304688 746.574219 C 211.542969 746.34375 210.792969 746.074219 210.058594 745.769531 C 209.320312 745.464844 208.601562 745.125 207.898438 744.75 C 207.195312 744.375 206.511719 743.964844 205.851562 743.523438 C 205.1875 743.082031 204.550781 742.605469 203.933594 742.101562 C 203.316406 741.597656 202.726562 741.0625 202.164062 740.5 C 201.601562 739.9375 201.066406 739.347656 200.558594 738.730469 C 200.054688 738.117188 199.582031 737.476562 199.136719 736.8125 C 198.695312 736.152344 198.285156 735.46875 197.910156 734.765625 C 197.535156 734.066406 197.195312 733.347656 196.890625 732.609375 C 196.585938 731.875 196.316406 731.125 196.085938 730.363281 C 195.855469 729.601562 195.660156 728.828125 195.503906 728.046875 C 195.351562 727.269531 195.234375 726.480469 195.15625 725.6875 C 195.078125 724.894531 195.039062 724.101562 195.039062 723.304688 L 195.039062 537.269531 C 195.039062 536.472656 195.078125 535.675781 195.15625 534.882812 C 195.234375 534.09375 195.351562 533.304688 195.503906 532.523438 C 195.660156 531.742188 195.855469 530.972656 196.085938 530.210938 C 196.316406 529.445312 196.585938 528.699219 196.890625 527.960938 C 197.195312 527.226562 197.535156 526.507812 197.910156 525.804688 C 198.285156 525.101562 198.695312 524.421875 199.136719 523.757812 C 199.582031 523.097656 200.054688 522.457031 200.558594 521.839844 C 201.066406 521.226562 201.601562 520.636719 202.164062 520.074219 C 202.726562 519.511719 203.316406 518.976562 203.933594 518.472656 C 204.546875 517.964844 205.1875 517.492188 205.851562 517.050781 C 206.511719 516.605469 207.195312 516.199219 207.898438 515.824219 C 208.601562 515.445312 209.320312 515.105469 210.058594 514.800781 C 210.792969 514.496094 211.542969 514.230469 212.304688 514 C 213.066406 513.765625 213.839844 513.574219 214.621094 513.417969 C 215.402344 513.261719 216.1875 513.148438 216.980469 513.070312 C 217.773438 512.992188 218.570312 512.953125 219.367188 512.953125 Z M 219.367188 512.953125 " fill-opacity="1" fill-rule="nonzero"/><path fill="#282826" d="M 604.585938 517.152344 C 605.398438 519.597656 605.808594 522.105469 605.804688 524.679688 L 605.804688 710.714844 C 605.804688 711.511719 605.761719 712.304688 605.683594 713.097656 C 605.601562 713.886719 605.484375 714.675781 605.328125 715.453125 C 605.171875 716.234375 604.976562 717.003906 604.742188 717.765625 C 604.511719 718.527344 604.242188 719.273438 603.933594 720.011719 C 603.628906 720.746094 603.289062 721.464844 602.914062 722.164062 C 602.535156 722.867188 602.128906 723.546875 601.683594 724.207031 C 601.242188 724.871094 600.765625 725.507812 600.261719 726.121094 C 599.757812 726.738281 599.222656 727.328125 598.660156 727.890625 C 598.097656 728.453125 597.507812 728.984375 596.890625 729.492188 C 596.277344 729.996094 595.636719 730.46875 594.976562 730.910156 C 594.316406 731.355469 593.632812 731.765625 592.933594 732.140625 C 592.230469 732.515625 591.511719 732.855469 590.777344 733.160156 C 590.042969 733.46875 589.292969 733.738281 588.53125 733.96875 C 587.769531 734.203125 587 734.394531 586.21875 734.554688 C 585.4375 734.710938 584.652344 734.828125 583.859375 734.910156 C 583.066406 734.988281 582.273438 735.03125 581.476562 735.03125 L 209.699219 735.03125 C 207.304688 735.03125 204.957031 734.683594 202.664062 733.988281 C 200.375 733.289062 198.230469 732.273438 196.242188 730.9375 C 196.640625 732.148438 197.128906 733.320312 197.707031 734.453125 C 198.289062 735.585938 198.957031 736.664062 199.707031 737.695312 C 200.457031 738.722656 201.28125 739.6875 202.183594 740.585938 C 203.085938 741.488281 204.050781 742.3125 205.082031 743.058594 C 206.113281 743.808594 207.195312 744.472656 208.328125 745.050781 C 209.464844 745.628906 210.636719 746.113281 211.847656 746.507812 C 213.058594 746.90625 214.292969 747.203125 215.550781 747.402344 C 216.808594 747.605469 218.074219 747.707031 219.347656 747.710938 L 591.125 747.710938 C 591.921875 747.710938 592.71875 747.667969 593.507812 747.589844 C 594.300781 747.511719 595.089844 747.394531 595.871094 747.238281 C 596.648438 747.082031 597.421875 746.890625 598.183594 746.65625 C 598.945312 746.425781 599.695312 746.15625 600.429688 745.851562 C 601.164062 745.546875 601.882812 745.207031 602.585938 744.832031 C 603.289062 744.457031 603.972656 744.046875 604.632812 743.605469 C 605.296875 743.164062 605.933594 742.691406 606.550781 742.1875 C 607.164062 741.683594 607.753906 741.148438 608.320312 740.585938 C 608.882812 740.023438 609.417969 739.433594 609.921875 738.820312 C 610.429688 738.207031 610.902344 737.566406 611.347656 736.90625 C 611.789062 736.246094 612.199219 735.5625 612.578125 734.863281 C 612.953125 734.160156 613.292969 733.441406 613.601562 732.707031 C 613.90625 731.972656 614.175781 731.226562 614.410156 730.464844 C 614.640625 729.703125 614.835938 728.933594 614.992188 728.152344 C 615.152344 727.371094 615.269531 726.585938 615.347656 725.792969 C 615.429688 725.003906 615.472656 724.207031 615.472656 723.414062 L 615.472656 537.375 C 615.46875 535.371094 615.21875 533.398438 614.726562 531.457031 C 614.234375 529.515625 613.515625 527.664062 612.566406 525.898438 C 611.617188 524.136719 610.464844 522.515625 609.113281 521.035156 C 607.765625 519.554688 606.253906 518.261719 604.585938 517.152344 Z M 604.585938 517.152344 " fill-opacity="0.21" fill-rule="nonzero"/><path fill="#ffffff" d="M 213.222656 716.769531 C 209.988281 716.640625 213.726562 681.566406 211.640625 609.75 C 210.761719 579.832031 209.324219 558.332031 223.824219 544.074219 C 234.496094 533.585938 248.726562 532.148438 256.058594 531.269531 C 313.277344 524.644531 370.648438 522.792969 428.175781 525.71875 C 510.035156 531.199219 563.796875 527.175781 563.816406 528.882812 C 563.816406 530.246094 530.015625 531.773438 440.070312 536.820312 C 321.480469 543.445312 293.609375 545.636719 269.371094 569.144531 C 249.15625 588.792969 239.132812 615.839844 231.460938 636.671875 C 214.675781 682.089844 216.4375 716.769531 213.222656 716.769531 Z M 213.222656 716.769531 " fill-opacity="0.09" fill-rule="nonzero"/><path fill="#606c38" d="M 290.339844 237.585938 L 521.355469 237.585938 C 522.347656 237.585938 523.332031 237.683594 524.304688 237.875 C 525.277344 238.070312 526.222656 238.355469 527.140625 238.734375 C 528.054688 239.117188 528.925781 239.582031 529.75 240.132812 C 530.578125 240.683594 531.339844 241.308594 532.042969 242.011719 C 532.742188 242.710938 533.371094 243.472656 533.921875 244.300781 C 534.472656 245.125 534.9375 245.992188 535.316406 246.910156 C 535.695312 247.828125 535.984375 248.769531 536.175781 249.742188 C 536.371094 250.714844 536.46875 251.699219 536.46875 252.691406 L 536.46875 368.292969 C 536.46875 369.285156 536.371094 370.265625 536.175781 371.238281 C 535.984375 372.210938 535.695312 373.15625 535.316406 374.070312 C 534.9375 374.988281 534.472656 375.859375 533.921875 376.683594 C 533.371094 377.507812 532.742188 378.269531 532.042969 378.972656 C 531.339844 379.671875 530.578125 380.300781 529.75 380.851562 C 528.925781 381.402344 528.054688 381.867188 527.140625 382.246094 C 526.222656 382.625 525.277344 382.910156 524.304688 383.105469 C 523.332031 383.296875 522.347656 383.394531 521.355469 383.394531 L 290.339844 383.394531 C 289.347656 383.394531 288.367188 383.296875 287.394531 383.105469 C 286.417969 382.910156 285.476562 382.625 284.558594 382.246094 C 283.640625 381.867188 282.769531 381.402344 281.945312 380.851562 C 281.121094 380.300781 280.355469 379.671875 279.65625 378.972656 C 278.953125 378.269531 278.328125 377.507812 277.777344 376.683594 C 277.226562 375.859375 276.757812 374.988281 276.378906 374.070312 C 276 373.15625 275.714844 372.210938 275.519531 371.238281 C 275.328125 370.265625 275.230469 369.285156 275.230469 368.292969 L 275.230469 252.691406 C 275.230469 251.699219 275.328125 250.714844 275.519531 249.742188 C 275.714844 248.769531 276 247.828125 276.378906 246.910156 C 276.757812 245.992188 277.226562 245.125 277.777344 244.300781 C 278.328125 243.472656 278.953125 242.710938 279.65625 242.011719 C 280.355469 241.308594 281.121094 240.683594 281.945312 240.132812 C 282.769531 239.582031 283.640625 239.117188 284.558594 238.734375 C 285.476562 238.355469 286.417969 238.070312 287.394531 237.875 C 288.367188 237.683594 289.347656 237.585938 290.339844 237.585938 Z M 290.339844 237.585938 " fill-opacity="1" fill-rule="nonzero"/><path fill="#282826" d="M 529.710938 240.191406 C 530.214844 241.707031 530.464844 243.261719 530.464844 244.859375 L 530.464844 360.460938 C 530.460938 361.453125 530.363281 362.433594 530.167969 363.40625 C 529.96875 364.378906 529.679688 365.320312 529.300781 366.238281 C 528.917969 367.152344 528.453125 368.023438 527.898438 368.847656 C 527.347656 369.667969 526.71875 370.429688 526.019531 371.132812 C 525.316406 371.832031 524.554688 372.457031 523.726562 373.007812 C 522.902344 373.5625 522.03125 374.027344 521.117188 374.40625 C 520.199219 374.785156 519.257812 375.074219 518.285156 375.269531 C 517.3125 375.464844 516.328125 375.5625 515.335938 375.566406 L 284.339844 375.566406 C 282.847656 375.566406 281.390625 375.351562 279.960938 374.917969 C 278.535156 374.480469 277.203125 373.847656 275.964844 373.015625 C 276.214844 373.765625 276.519531 374.496094 276.882812 375.199219 C 277.242188 375.902344 277.65625 376.574219 278.125 377.214844 C 278.59375 377.855469 279.105469 378.453125 279.667969 379.011719 C 280.226562 379.570312 280.828125 380.085938 281.46875 380.550781 C 282.109375 381.015625 282.785156 381.425781 283.488281 381.789062 C 284.195312 382.148438 284.925781 382.449219 285.675781 382.695312 C 286.429688 382.941406 287.199219 383.128906 287.980469 383.253906 C 288.761719 383.382812 289.546875 383.445312 290.339844 383.449219 L 521.339844 383.449219 C 522.328125 383.445312 523.304688 383.34375 524.277344 383.144531 C 525.246094 382.949219 526.183594 382.65625 527.097656 382.277344 C 528.011719 381.894531 528.878906 381.429688 529.699219 380.878906 C 530.519531 380.328125 531.28125 379.703125 531.976562 379.003906 C 532.675781 378.304688 533.300781 377.542969 533.851562 376.722656 C 534.402344 375.902344 534.867188 375.035156 535.246094 374.121094 C 535.628906 373.210938 535.917969 372.269531 536.113281 371.300781 C 536.308594 370.332031 536.410156 369.351562 536.414062 368.363281 L 536.414062 252.742188 C 536.414062 251.503906 536.261719 250.28125 535.960938 249.078125 C 535.65625 247.875 535.214844 246.726562 534.628906 245.632812 C 534.046875 244.535156 533.335938 243.527344 532.503906 242.609375 C 531.671875 241.6875 530.742188 240.882812 529.710938 240.191406 Z M 529.710938 240.191406 " fill-opacity="0.21" fill-rule="nonzero"/><path fill="#ffffff" d="M 286.53125 364.179688 C 284.519531 364.179688 286.835938 342.304688 285.542969 297.730469 C 285.003906 279.144531 284.105469 265.78125 293.109375 256.929688 C 299.738281 250.410156 308.578125 249.511719 313.140625 248.953125 C 348.695312 244.84375 384.34375 243.695312 420.089844 245.507812 C 470.957031 248.917969 504.359375 246.421875 504.359375 247.480469 C 504.359375 248.542969 483.371094 249.277344 427.472656 252.402344 C 353.804688 256.53125 336.464844 257.898438 321.460938 272.515625 C 308.882812 284.730469 302.667969 301.59375 297.90625 314.46875 C 287.429688 342.664062 288.453125 364.25 286.53125 364.179688 Z M 286.53125 364.179688 " fill-opacity="0.09" fill-rule="nonzero"/><path fill="#ffffff" d="M 168.285156 418.363281 C 172.992188 419.242188 179.496094 375.941406 205.296875 318.996094 C 227.328125 270.324219 243.40625 234.804688 279.328125 214.347656 C 292.300781 206.949219 318.855469 202.980469 371.324219 195.3125 C 441.398438 185.109375 468.636719 184.015625 468.621094 180.511719 C 468.621094 177.601562 449.59375 177.066406 350.175781 168.894531 C 314.707031 165.984375 306.800781 165.195312 294.132812 168.894531 C 262.09375 178.214844 244.503906 203.015625 222.257812 234.425781 C 215.976562 243.246094 210.183594 252.375 204.878906 261.8125 C 199.578125 271.25 194.789062 280.945312 190.523438 290.894531 C 186.257812 300.847656 182.535156 310.996094 179.355469 321.34375 C 176.175781 331.695312 173.558594 342.183594 171.5 352.8125 C 165.515625 383.84375 164.152344 417.570312 168.285156 418.363281 Z M 168.285156 418.363281 " fill-opacity="0.09" fill-rule="nonzero"/></svg>