<svg width="92" height="130" viewBox="0 0 92 130" fill="none" xmlns="http://www.w3.org/2000/svg">
<path d="M91.3546 83.9336C91.3611 86.9564 91.0642 89.9721 90.4684 92.9348C88.5115 102.835 83.3609 111.808 75.8167 118.459C68.2725 125.111 58.7569 129.069 48.7478 129.72C47.7635 129.79 46.7611 129.818 45.7613 129.818C39.773 129.821 33.8429 128.637 28.3099 126.332C22.7768 124.027 17.7495 120.647 13.5151 116.386C9.28079 112.124 5.92253 107.065 3.63233 101.497C1.34214 95.9282 0.164918 89.9601 0.167975 83.9336H91.3546Z" fill="url(#paint0_linear)"/>
<path d="M48.745 129.72C47.7607 129.79 46.7583 129.819 45.7585 129.819C33.7247 129.84 22.1745 125.053 13.6458 116.509C13.4624 114.936 12.6589 113.517 12.3075 111.959C12.2247 111.694 12.2347 111.409 12.336 111.151C12.494 110.92 12.7003 110.726 12.9405 110.584C13.7569 109.918 13.899 108.699 13.6303 107.677C13.3616 106.655 12.7855 105.751 12.3644 104.786C11.6462 103.114 11.4757 101.099 12.3489 99.5131C13.2221 97.9271 15.3767 97.0041 16.9836 97.8543C17.8439 98.3067 18.4071 99.1543 18.9135 99.9941C19.8565 101.583 20.6729 103.312 22.0137 104.588C22.5769 105.108 23.2383 105.566 23.5896 106.26C24.1063 107.282 23.773 108.556 24.2536 109.591C24.8452 110.891 26.4934 111.411 27.0696 112.711C27.7593 114.24 26.6898 116.182 27.5346 117.627C28.1546 118.667 29.5342 118.961 30.7174 118.764C31.9007 118.566 32.9702 117.968 34.125 117.627C35.2799 117.287 36.6181 117.232 37.5482 117.984C38.7882 118.99 38.8864 121.059 40.2815 121.824C40.7594 122.084 41.3149 122.151 41.7747 122.435C43.2525 123.327 42.8598 125.695 44.0146 126.969C44.7328 127.765 45.8721 127.947 46.8874 128.303C47.6315 128.558 48.4065 129.054 48.745 129.72Z" fill="url(#paint1_linear)"/>
<path d="M91.3542 83.9338C91.3608 86.9565 91.0639 89.9722 90.4681 92.9349C90.2842 93.0319 90.0901 93.1078 89.8894 93.1611C88.5976 93.5173 86.9468 93.1195 86.2001 94.2011C85.7067 94.9239 85.8333 96.1277 85.0298 96.4969C84.3969 96.7933 83.6502 96.2369 83.3402 95.6181C83.0302 94.9993 82.9734 94.2427 82.6375 93.6187C82.3017 92.9947 81.524 92.4851 80.9169 92.8387C80.5242 93.0675 80.2271 93.6187 79.7905 93.5355C79.496 93.4783 79.341 93.1949 79.1705 92.9531C78.3128 91.8195 76.6645 91.7753 75.241 91.8611C74.8918 91.8548 74.5457 91.9276 74.2283 92.0743C73.2698 92.6125 73.6083 94.1855 74.4531 94.8953C75.2979 95.6051 76.4527 95.8885 77.2949 96.6243C77.7748 97.0553 78.1243 97.6137 78.3035 98.2354C78.4826 98.8571 78.484 99.517 78.3076 100.14C78.1094 100.755 77.7448 101.302 77.2547 101.721C76.7646 102.139 76.1684 102.412 75.5329 102.508C75.9566 101.785 76.4062 101.005 76.4217 100.155C76.4372 99.3049 75.8016 98.3975 74.9568 98.4105C74.4634 98.4105 74.0552 98.7225 73.6315 98.9773C72.6241 99.5896 71.4839 99.9465 70.3091 100.017C67.3071 100.202 64.1682 98.5431 61.3651 99.6637C60.9386 99.8226 60.5465 100.063 60.2103 100.371C59.4766 101.081 59.1769 102.1 58.9005 103.08C58.5621 104.255 58.2081 105.503 58.4355 106.72C58.5621 107.414 58.8721 108.067 58.9263 108.774C59.0555 110.576 57.2807 112.154 55.4774 112.154C54.8807 112.172 54.2937 111.999 53.8007 111.66C52.7311 110.852 52.6304 109.292 52.6046 107.945C52.5787 106.598 52.3927 105.012 51.2379 104.305C49.6878 103.4 47.5332 104.731 45.9831 103.811C44.5467 102.945 44.7714 100.621 45.9133 99.3907C47.0552 98.1609 48.7552 97.6331 50.2665 96.8947C51.5301 96.274 52.7006 95.4775 53.7439 94.5287C54.3071 94.0087 54.8573 93.3925 54.9142 92.6281C54.9839 91.6921 54.2941 90.9121 53.9273 90.0489C53.6933 89.4673 53.6046 88.8367 53.6691 88.2126C53.7335 87.5884 53.949 86.9896 54.2967 86.4688C55.0718 85.3638 56.3635 84.7684 57.6217 84.342C58.0428 84.2016 58.4665 84.082 58.9134 83.9312L91.3542 83.9338Z" fill="url(#paint2_linear)"/>
<path d="M80.3814 109.931C79.8571 111.067 79.6576 112.328 79.8053 113.571C79.8337 113.831 79.875 114.068 79.9164 114.323C76.1552 118.61 71.6315 122.153 66.5778 124.769C66.3966 124.303 66.1505 123.866 65.8467 123.469C65.1414 122.562 64.0719 121.826 63.86 120.693C63.8176 120.408 63.8313 120.119 63.9005 119.84C63.9697 119.561 64.0929 119.299 64.2631 119.068C64.4333 118.837 64.6472 118.643 64.8923 118.495C65.1375 118.348 65.4091 118.251 65.6917 118.21C66.3815 118.139 67.2134 118.366 67.6784 117.856C68.0013 117.474 67.9368 116.891 68.1279 116.423C68.4948 115.49 69.988 115.318 70.5512 116.163C71.0447 116.899 70.8458 118.061 71.6079 118.503C72.184 118.844 72.9461 118.462 73.3827 117.95C73.8193 117.437 74.1009 116.774 74.6073 116.319C75.3126 115.682 76.3253 115.555 77.0875 114.988C78.2707 114.109 78.4799 112.435 78.6918 110.961C78.9036 109.487 79.3971 107.815 80.7586 107.264C81.3683 108.018 80.7896 109.089 80.3814 109.931Z" fill="url(#paint3_linear)"/>
<path d="M13.5918 95.9248C13.1138 96.0964 12.5067 95.7558 12.0856 96.0678C11.6051 96.4214 11.9306 97.2014 11.8867 97.8124C11.8169 98.7328 10.7603 99.2996 9.84572 99.2008C8.93117 99.102 8.15612 98.5482 7.38108 98.0516C5.68426 96.9871 3.88686 96.0944 2.01519 95.3866C1.8731 95.3294 1.71809 95.2748 1.56308 95.2176C0.632259 91.5295 0.163592 87.7388 0.168 83.9336H12.8271C12.833 84.1583 12.7629 84.3783 12.6281 84.5576C12.207 85.1244 11.277 85.166 10.967 85.79C10.7835 86.1592 10.8817 86.6116 10.7551 86.9964C10.5303 87.6906 9.67004 87.9584 8.94667 87.9324C8.2233 87.9064 7.49734 87.6724 6.77913 87.7894C6.06092 87.9064 5.35563 88.611 5.59589 89.3052C7.06073 89.8018 8.66507 90.4258 9.37036 91.8298C9.62871 92.368 9.81989 93.0778 10.4038 93.2468C10.6606 93.287 10.922 93.287 11.1788 93.2468C11.8863 93.193 12.5933 93.3561 13.2068 93.7148C13.6228 93.9362 13.9403 94.3077 14.0955 94.7548C14.1651 94.9782 14.1525 95.2193 14.0601 95.4342C13.9676 95.649 13.8013 95.8231 13.5918 95.9248Z" fill="url(#paint4_linear)"/>
<g style="mix-blend-mode:overlay" opacity="0.2">
<path d="M91.1726 83.9336C91.1785 86.3456 90.9901 88.7542 90.6094 91.1356C90.5267 91.744 90.413 92.3394 90.2864 92.9348C88.7342 100.886 85.0905 108.273 79.7355 114.325C75.8003 118.827 71.0219 122.504 65.6735 125.145C60.3251 127.787 54.5116 129.341 48.5658 129.72C47.5944 129.79 46.5946 129.818 45.5793 129.818C33.5469 129.833 21.9993 125.047 13.4666 116.509C10.8169 113.848 8.49878 110.873 6.56351 107.648C4.23833 103.784 2.49206 99.595 1.38105 95.2176C0.928265 93.378 0.583207 91.5131 0.347656 89.6328C2.35553 93.1428 4.82528 96.3639 7.68991 99.2086C11.9108 103.442 16.9196 106.797 22.4297 109.081C27.9398 111.365 33.8433 112.534 39.8026 112.521C40.8024 112.521 41.7893 112.492 42.7762 112.422C51.3168 111.861 59.5281 108.892 66.4701 103.854C73.4121 98.8155 78.8043 91.9121 82.0296 83.9336H91.1726Z" fill="black"/>
</g>
<g style="mix-blend-mode:overlay" opacity="0.2">
<path d="M90.6083 91.1489C90.5257 91.7573 90.412 92.3527 90.2854 92.9481C88.7332 100.9 85.0895 108.287 79.7345 114.338C75.7993 118.84 71.0208 122.517 65.6724 125.158C60.324 127.8 54.5106 129.354 48.5648 129.733C47.5934 129.803 46.5936 129.832 45.5782 129.832C33.5458 129.846 21.9983 125.06 13.4656 116.522C10.8158 113.862 8.49777 110.886 6.5625 107.662C16.5377 115.25 28.7076 119.343 41.2122 119.315C42.4807 119.315 43.7336 119.286 44.9866 119.2C54.2786 118.588 63.2842 115.715 71.2304 110.829C79.1767 105.944 85.8262 99.1902 90.6083 91.1489Z" fill="black"/>
</g>
<path d="M67.1163 0.928711C67.075 1.27451 66.8166 3.03211 66.579 4.89631C66.579 5.09131 66.5351 5.28631 66.5351 5.48131C66.4175 6.36528 66.3459 7.25482 66.3206 8.14631V8.16971C66.3206 8.32051 66.3 8.49471 66.3 8.71051V8.72871C66.167 10.2097 65.8706 11.6713 65.4164 13.0863C65.3544 13.2927 65.282 13.4958 65.1994 13.6947C64.6516 15.2653 63.8674 16.742 62.8743 18.0731C62.7012 18.3123 62.5074 18.5281 62.3136 18.7673C59.7069 21.8223 55.4002 24.1857 48.3344 23.6865C48.2492 23.6865 48.1407 23.6657 48.0347 23.6657C47.7802 23.5333 47.5411 23.3728 47.3217 23.1873C47.1723 23.0729 47.0292 22.9506 46.8928 22.8207C46.0532 21.9965 44.9759 20.4807 44.5005 17.8807C44.4799 17.7273 44.4359 17.5765 44.4153 17.4257C44.3714 17.1865 44.3507 16.9265 44.3274 16.6665C44.2861 16.2973 44.2654 15.9073 44.2422 15.4965V15.1481C44.2425 14.7935 44.264 14.4393 44.3068 14.0873V13.9989C44.3494 13.6562 44.4142 13.3166 44.5005 12.9823C44.6262 12.4317 44.8215 11.8995 45.0818 11.3989C45.1464 11.2481 45.2342 11.0739 45.3195 10.9205C45.4115 10.7452 45.5196 10.579 45.6424 10.4239C45.7297 10.2701 45.8309 10.1248 45.9447 9.98971C46.0905 9.79937 46.2485 9.61873 46.4175 9.44891C46.6476 9.1872 46.9 8.94622 47.1719 8.72871C47.1889 8.69062 47.2193 8.66011 47.2571 8.64291C47.4509 8.46871 47.6886 8.29711 47.9056 8.12291L48.2931 7.86291C48.633 7.62804 48.9849 7.41108 49.3471 7.21291C49.3678 7.18951 49.3911 7.18951 49.4324 7.16871H49.4557C49.7499 6.98391 50.0594 6.82473 50.3805 6.69291C50.8611 6.44796 51.3584 6.23769 51.8686 6.06371C53.0611 5.59239 54.2811 5.19471 55.5217 4.87291C56.059 4.74291 56.5757 4.61291 57.1363 4.48291L57.3947 4.41791C57.653 4.35291 57.8907 4.31131 58.1258 4.24631C59.1825 4.00711 60.1073 3.74711 60.9263 3.50791C61.164 3.42211 61.3784 3.35711 61.5954 3.29211C62.7618 2.95543 63.9053 2.5429 65.0186 2.05711C65.3001 1.92711 65.5352 1.81791 65.7523 1.70871C65.9511 1.61738 66.1451 1.51585 66.3335 1.40451C66.4749 1.33536 66.6113 1.2563 66.7417 1.16791C66.7906 1.13512 66.8415 1.10559 66.8942 1.07951C66.9557 1.04279 67.0129 0.999179 67.0647 0.949511H67.0879C67.0953 0.940068 67.1051 0.932868 67.1163 0.928711Z" fill="url(#paint5_linear)"/>
<g style="mix-blend-mode:overlay" opacity="0.2">
<path d="M67.1137 0.928711C66.9199 1.23291 65.6075 3.13871 63.905 5.24211H63.8843C63.7758 5.39291 63.6467 5.52291 63.5175 5.67631C62.607 6.7773 61.6211 7.81289 60.5671 8.77551H60.5465C60.3651 8.96523 60.1622 9.13278 59.9419 9.27471C59.6833 9.51786 59.4022 9.73552 59.1023 9.92471C58.9718 10.0262 58.8355 10.12 58.6941 10.2055C58.5168 10.3297 58.3292 10.4384 58.1335 10.5305C57.6019 10.7846 57.0845 11.0675 56.5834 11.3781H56.5524C55.4917 12.0443 54.4775 12.7827 53.5168 13.5881C53.4542 13.6323 53.3962 13.6828 53.3437 13.7389H53.3231C53.2146 13.8273 53.1061 13.9131 53.0208 13.9989C52.9753 14.0551 52.9242 14.1065 52.8684 14.1523C51.3855 15.5173 49.9258 17.2307 49.0216 19.2899C49.0161 19.2899 49.0108 19.2921 49.0069 19.296C49.0031 19.2999 49.0009 19.3052 49.0009 19.3107C48.9758 19.3708 48.9465 19.4291 48.9131 19.4849C48.9363 19.5057 48.9131 19.5057 48.9131 19.5057C48.8485 19.6357 48.8071 19.7657 48.7426 19.8957V19.9087C48.6986 20.0595 48.634 20.1895 48.5901 20.3403C48.2348 21.4142 48.0448 22.5366 48.0269 23.6683C47.7724 23.5359 47.5333 23.3754 47.3139 23.1899C47.1645 23.0755 47.0213 22.9532 46.885 22.8233C46.0454 21.9991 44.9681 20.4833 44.4927 17.8833C44.4721 17.7299 44.4281 17.5791 44.4075 17.4283C44.3635 17.1891 44.3429 16.9291 44.3196 16.6691C44.2783 16.2999 44.2576 15.9099 44.2344 15.4991V15.1481C44.2347 14.7935 44.2562 14.4393 44.299 14.0873V13.9989C44.3416 13.6562 44.4064 13.3166 44.4927 12.9823C44.6184 12.4317 44.8137 11.8995 45.074 11.3989C45.1386 11.2481 45.2264 11.0739 45.3117 10.9205C45.4037 10.7452 45.5118 10.5789 45.6346 10.4239C45.7219 10.2701 45.8231 10.1248 45.9369 9.98971C46.0827 9.79937 46.2406 9.61873 46.4097 9.44891C46.6415 9.18697 46.8956 8.94599 47.1692 8.72871C47.1863 8.69062 47.2166 8.66011 47.2545 8.64291C47.4482 8.46871 47.6859 8.29711 47.9029 8.12291L48.2904 7.86291C48.6304 7.62803 48.9822 7.41108 49.3445 7.21291C49.3652 7.18951 49.3884 7.18951 49.4298 7.16871H49.453C49.7473 6.98391 50.0567 6.82473 50.3779 6.69291C50.8585 6.44796 51.3558 6.23769 51.866 6.06371C53.0585 5.59239 54.2784 5.19471 55.519 4.87291C56.0564 4.74291 56.5731 4.61291 57.1337 4.48291L57.392 4.41791C57.6504 4.35291 57.8881 4.31131 58.1232 4.24631C59.1798 4.00711 60.1047 3.74711 60.9237 3.50791C61.1613 3.42211 61.3758 3.35711 61.5928 3.29211C62.7592 2.95543 63.9026 2.5429 65.0159 2.05711C65.2975 1.92711 65.5326 1.81791 65.7496 1.70871C65.9484 1.61738 66.1424 1.51585 66.3309 1.40451C66.4723 1.33536 66.6087 1.2563 66.7391 1.16791C66.7879 1.13512 66.8388 1.10559 66.8915 1.07951C66.953 1.04279 67.0102 0.999179 67.062 0.949511H67.0853C67.0926 0.940068 67.1025 0.932868 67.1137 0.928711Z" fill="black"/>
</g>
<g style="mix-blend-mode:overlay" opacity="0.2">
<g style="mix-blend-mode:overlay" opacity="0.2">
<path d="M48.7428 19.9085C48.7909 19.9572 48.8179 20.0231 48.8179 20.0918C48.8179 20.1605 48.7909 20.2264 48.7428 20.2751C48.7236 20.2965 48.7 20.3133 48.6737 20.3246C48.6474 20.3358 48.6189 20.3411 48.5903 20.3401H48.5438C48.5074 20.3404 48.4712 20.3329 48.4378 20.3181C48.4044 20.3033 48.3745 20.2816 48.3501 20.2543C48.307 20.2094 48.2705 20.1587 48.2416 20.1035C47.973 19.7012 47.8031 19.2405 47.7455 18.7593C47.2556 16.302 47.2846 13.7685 47.8308 11.3233C48.1651 9.86811 48.7018 8.46764 49.4248 7.1633H49.4481C49.7423 6.9785 50.0518 6.81932 50.3729 6.6875C49.4187 8.1338 48.7333 9.74241 48.3501 11.4351C47.8341 13.817 47.8042 16.2796 48.2622 18.6735C48.3211 18.9538 48.4005 19.2293 48.4999 19.4977C48.5532 19.642 48.634 19.7745 48.7376 19.8877L48.7428 19.9085Z" fill="black"/>
</g>
</g>
<g style="mix-blend-mode:overlay" opacity="0.2">
<g style="mix-blend-mode:overlay" opacity="0.2">
<path d="M58.1048 4.24609C57.8904 4.46189 57.6966 4.67769 57.4822 4.89609C56.9291 5.41194 56.4241 5.97763 55.9734 6.58609C55.263 7.58449 54.8109 8.75449 54.3794 9.88029C53.9712 10.8787 53.5605 11.9837 53.5191 13.0679C53.4959 13.2404 53.4959 13.4154 53.5191 13.5879V13.6971C53.5191 13.7829 53.5398 13.8479 53.5398 13.9129C53.5508 13.9513 53.5505 13.9921 53.5391 14.0304C53.5276 14.0686 53.5054 14.1028 53.4752 14.1287L53.4545 14.1521C53.4216 14.1899 53.3752 14.2133 53.3254 14.2171H53.2814C53.2195 14.2179 53.1594 14.1963 53.1119 14.1562C53.0645 14.1161 53.033 14.0602 53.0231 13.9987C53.0231 13.9571 52.9998 13.8921 53.0231 13.8479C52.9869 13.7213 52.972 13.5895 52.9792 13.4579C52.9353 12.0929 53.4545 10.7695 53.8834 9.68529C54.3355 8.51529 54.7876 7.32449 55.542 6.26109C56.0169 5.64002 56.5349 5.05355 57.0921 4.50609L57.1127 4.48269L57.3711 4.41769C57.6398 4.35269 57.8774 4.30849 58.1048 4.24609Z" fill="black"/>
</g>
</g>
<g style="mix-blend-mode:overlay" opacity="0.2">
<g style="mix-blend-mode:overlay" opacity="0.2">
<path d="M61.5802 3.29199C61.3632 3.83279 61.1281 4.35279 60.8904 4.87279C60.1696 6.50039 59.3946 8.16959 59.1027 9.92459C59.0862 9.94998 59.0789 9.98026 59.082 10.0104C59.072 10.0779 59.0378 10.1394 58.986 10.1834C58.9342 10.2275 58.8682 10.251 58.8004 10.2496H58.7591C58.7358 10.2496 58.7151 10.2288 58.6945 10.2054C58.6387 10.1863 58.5922 10.1468 58.5639 10.0949C58.5357 10.0429 58.5279 9.9821 58.542 9.92459C58.8443 8.06039 59.6194 6.32619 60.3944 4.65699C60.5675 4.26699 60.7406 3.89779 60.9111 3.50779C61.1488 3.42199 61.3632 3.35699 61.5802 3.29199Z" fill="black"/>
</g>
</g>
<g style="mix-blend-mode:overlay" opacity="0.2">
<g style="mix-blend-mode:overlay" opacity="0.2">
<path d="M62.8726 18.0889C62.6995 18.3281 62.5057 18.5439 62.312 18.7831C61.477 18.9983 60.6273 19.1504 59.7698 19.2381C58.5379 19.3453 57.3 19.367 56.0651 19.3031L55.6569 19.2797C53.6754 19.2381 51.544 19.2147 49.5186 19.6931C49.4311 19.6965 49.3444 19.7105 49.2603 19.7347C49.252 19.7433 49.2419 19.7499 49.2307 19.754C49.2195 19.758 49.2075 19.7594 49.1957 19.7581C49.1337 19.7589 49.0736 19.7373 49.0262 19.6972C48.9788 19.6571 48.9472 19.6012 48.9373 19.5397C48.9373 19.5189 48.9373 19.5189 48.9141 19.4981C48.9475 19.4422 48.9769 19.384 49.0019 19.3239C49.0019 19.3239 49.0019 19.2797 49.0226 19.3031C49.0481 19.2624 49.0862 19.2313 49.1311 19.2147C49.3455 19.1497 49.5832 19.1081 49.7976 19.0639C51.7585 18.6739 53.7839 18.6947 55.6776 18.7389L56.0884 18.7597C57.3014 18.8211 58.5171 18.8072 59.7285 18.7181C60.7915 18.5932 61.8429 18.3828 62.8726 18.0889Z" fill="black"/>
</g>
</g>
<g style="mix-blend-mode:overlay" opacity="0.2">
<g style="mix-blend-mode:overlay" opacity="0.2">
<path d="M65.4166 13.0889C65.3546 13.2953 65.2822 13.4983 65.1996 13.6973C64.4374 13.8877 63.6588 14.0035 62.8745 14.0431C61.6814 14.0816 60.4871 14.0434 59.2989 13.9287C57.1882 13.7987 55.1653 13.6479 53.2691 14.3187C53.2458 14.3421 53.2458 14.3421 53.2251 14.3421H53.1373C53.082 14.3418 53.028 14.3251 52.9821 14.2941C52.9361 14.2631 52.9003 14.2192 52.879 14.1679V14.1471C52.8637 14.0864 52.8708 14.0222 52.8988 13.9663C52.9268 13.9105 52.9739 13.8666 53.0314 13.8429L53.0521 13.8221C53.1426 13.7828 53.237 13.7532 53.3336 13.7337C53.3957 13.7099 53.4611 13.6959 53.5274 13.6921C53.7719 13.6052 54.0235 13.54 54.2792 13.4971C55.9378 13.1721 57.661 13.2787 59.3428 13.3879C60.5096 13.4996 61.6824 13.5361 62.8538 13.4971C63.7195 13.4479 64.5781 13.3112 65.4166 13.0889Z" fill="black"/>
</g>
</g>
<g style="mix-blend-mode:overlay" opacity="0.2">
<g style="mix-blend-mode:overlay" opacity="0.2">
<path d="M66.3212 8.16992C66.3212 8.32072 66.3006 8.49492 66.3006 8.71072V8.72892L65.8691 8.79392C64.8357 8.96812 63.7791 9.03312 62.769 9.12152C61.9043 9.15556 61.042 9.23453 60.1855 9.35812H60.1416C60.0691 9.35265 60.0007 9.32237 59.9478 9.27232C59.9269 9.25332 59.9103 9.23001 59.8992 9.204C59.8881 9.17798 59.8826 9.14985 59.8832 9.12152C59.8769 9.08733 59.8775 9.05221 59.885 9.01825C59.8924 8.98429 59.9065 8.95218 59.9265 8.92381C59.9465 8.89545 59.972 8.87141 60.0014 8.85312C60.0308 8.83483 60.0635 8.82266 60.0976 8.81732C60.2548 8.79113 60.4137 8.77636 60.573 8.77312C61.3041 8.66392 62.0146 8.62232 62.7276 8.57812C63.7378 8.49232 64.7737 8.42732 65.7864 8.27392C65.9668 8.25113 66.1454 8.21638 66.3212 8.16992Z" fill="black"/>
</g>
</g>
<g style="mix-blend-mode:overlay" opacity="0.2">
<g style="mix-blend-mode:overlay" opacity="0.2">
<path d="M66.579 4.89648C66.579 5.09148 66.5351 5.28648 66.5351 5.48148C65.8726 5.69293 65.1838 5.80934 64.489 5.82728C64.201 5.82841 63.9133 5.80667 63.6287 5.76228C63.5836 5.74743 63.5452 5.71705 63.5202 5.67648C63.4757 5.65742 63.4399 5.62232 63.4198 5.57806C63.3998 5.5338 63.3969 5.48359 63.4117 5.43728C63.4143 5.40174 63.4246 5.36721 63.442 5.33616C63.4594 5.30512 63.4834 5.27833 63.5123 5.25771C63.5412 5.23708 63.5742 5.22314 63.6091 5.21688C63.644 5.21062 63.6798 5.21219 63.7139 5.22148C63.777 5.23865 63.8424 5.24567 63.9077 5.24228C64.8128 5.34245 65.7286 5.2239 66.579 4.89648Z" fill="black"/>
</g>
</g>
<path d="M14.3281 34.778C14.6511 34.9054 16.3045 35.519 18.0432 36.2054C18.2137 36.299 18.4049 36.3536 18.5754 36.4472C19.4033 36.7673 20.2139 37.1309 21.0038 37.5366H21.0219C21.1537 37.6094 21.3164 37.6744 21.505 37.7784H21.5231C22.8778 38.3684 24.2937 38.8045 25.7445 39.0784C25.946 39.1148 26.1656 39.1616 26.3775 39.1798C28.0103 39.449 29.6744 39.4648 31.3119 39.2266C31.6013 39.1902 31.8855 39.1226 32.1852 39.0654C36.0991 38.2308 40.2275 35.5606 43.183 29.084C43.2244 29.006 43.258 28.902 43.3096 28.8058C43.3156 28.5188 43.2905 28.2319 43.2347 27.9504C43.2057 27.763 43.1669 27.5773 43.1185 27.394C42.8033 26.2552 41.9972 24.5782 39.9589 22.909C39.8349 22.818 39.7238 22.7088 39.6023 22.6152C39.4163 22.4644 39.1993 22.3188 38.9823 22.1758C38.6826 21.96 38.3519 21.7546 38.0032 21.5388L37.6931 21.4036C37.3845 21.2322 37.0652 21.0811 36.7373 20.9512L36.6597 20.9096C36.3402 20.7804 36.0122 20.6736 35.678 20.5898C35.1379 20.4368 34.5804 20.3547 34.0194 20.3454C33.8477 20.3295 33.6752 20.3226 33.5027 20.3246C33.3045 20.3216 33.1064 20.3372 32.9111 20.3714C32.7376 20.3761 32.5648 20.3953 32.3944 20.4286C32.1583 20.4682 31.9245 20.5212 31.6943 20.5872C31.3576 20.6659 31.0282 20.7738 30.71 20.9096C30.6673 20.9072 30.6252 20.9201 30.5911 20.946C30.3483 21.0318 30.0745 21.1592 29.8161 21.2658L29.4027 21.4842C29.0353 21.6723 28.6775 21.8788 28.3306 22.103C28.2996 22.103 28.2893 22.1316 28.2505 22.1576V22.1784C27.9457 22.3498 27.6562 22.5472 27.385 22.7686C26.9413 23.0749 26.52 23.413 26.1243 23.78C25.143 24.5984 24.2121 25.4763 23.3367 26.4086C22.9673 26.822 22.6056 27.2146 22.2232 27.6488L22.0424 27.8438C21.8616 28.0414 21.7091 28.2312 21.5257 28.408C20.8127 29.2244 20.141 29.9186 19.539 30.527C19.3504 30.6934 19.1902 30.8546 19.0223 31.0132C18.1692 31.8824 17.2604 32.6944 16.3019 33.4442C16.0436 33.6288 15.8472 33.7848 15.6483 33.9226C15.4739 34.055 15.2928 34.1782 15.1058 34.2918C14.9759 34.3828 14.8405 34.4653 14.7001 34.5388C14.6489 34.5655 14.5997 34.5959 14.5529 34.6298C14.4901 34.6656 14.4244 34.696 14.3565 34.7208V34.739C14.3495 34.7433 14.3433 34.7489 14.3384 34.7556C14.3335 34.7623 14.33 34.7699 14.3281 34.778Z" fill="url(#paint6_linear)"/>
<g style="mix-blend-mode:overlay" opacity="0.2">
<path d="M14.3281 34.778C14.6846 34.752 16.9788 34.518 19.6294 34.0136V33.9928C19.8129 33.972 19.9885 33.92 20.1823 33.8784C21.5791 33.6022 22.9551 33.2287 24.3004 32.7604V32.7422C24.5524 32.674 24.7953 32.5753 25.0237 32.4484C25.3605 32.3371 25.6858 32.1934 25.9951 32.0194C26.1501 31.957 26.2974 31.866 26.4369 31.7932C26.6293 31.696 26.8134 31.583 26.9872 31.4552C27.4632 31.1061 27.9583 30.784 28.4701 30.4906V30.4724C29.5605 29.8553 30.6912 29.3132 31.8545 28.85C31.923 28.8165 31.9949 28.7904 32.0689 28.772V28.7512C32.1981 28.6992 32.3272 28.6446 32.4409 28.6108C32.5109 28.5985 32.5794 28.5785 32.645 28.551C34.549 27.8932 36.745 27.4226 38.9745 27.6124C38.9784 27.6087 38.9835 27.6067 38.9888 27.6067C38.994 27.6067 38.9991 27.6087 39.003 27.6124C39.0675 27.6173 39.1322 27.6173 39.1967 27.6124C39.1967 27.641 39.2148 27.6124 39.2148 27.6124C39.3595 27.6124 39.4938 27.641 39.6385 27.6488H39.6566C39.809 27.6826 39.9537 27.6878 40.1061 27.7216C41.2093 27.9242 42.2755 28.2942 43.2683 28.8188C43.2743 28.5318 43.2491 28.2449 43.1934 27.9634C43.1644 27.776 43.1256 27.5903 43.0771 27.407C42.7619 26.2682 41.9559 24.5912 39.9175 22.922C39.7935 22.831 39.6824 22.7218 39.561 22.6282C39.375 22.4774 39.158 22.3318 38.941 22.1888C38.6413 21.973 38.3106 21.7676 37.9618 21.5518L37.6931 21.4036C37.3845 21.2322 37.0652 21.0811 36.7373 20.9512L36.6597 20.9096C36.3402 20.7804 36.0122 20.6736 35.678 20.5898C35.1379 20.4368 34.5804 20.3547 34.0194 20.3454C33.8477 20.3295 33.6752 20.3226 33.5027 20.3246C33.3045 20.3216 33.1064 20.3372 32.9111 20.3714C32.7376 20.3761 32.5648 20.3953 32.3944 20.4286C32.1583 20.4682 31.9245 20.5212 31.6943 20.5872C31.3576 20.6659 31.0282 20.7738 30.71 20.9096C30.6673 20.9072 30.6252 20.9201 30.5911 20.946C30.3483 21.0318 30.0744 21.1592 29.8161 21.2658L29.4027 21.4842C29.0353 21.6723 28.6775 21.8788 28.3306 22.103C28.2996 22.103 28.2893 22.1316 28.2505 22.1576V22.1784C27.9457 22.3498 27.6562 22.5472 27.385 22.7686C26.9413 23.0749 26.52 23.413 26.1243 23.78C25.143 24.5984 24.212 25.4763 23.3367 26.4086C22.9673 26.822 22.6056 27.2146 22.2232 27.6488L22.0424 27.8438C21.8616 28.0414 21.7091 28.2312 21.5257 28.408C20.8127 29.2244 20.141 29.9186 19.539 30.527C19.3504 30.6934 19.1902 30.8546 19.0223 31.0132C18.1692 31.8824 17.2604 32.6944 16.3019 33.4442C16.0436 33.6288 15.8472 33.7848 15.6483 33.9226C15.4739 34.055 15.2928 34.1782 15.1058 34.2918C14.9759 34.3828 14.8405 34.4653 14.7001 34.5388C14.6489 34.5655 14.5997 34.5959 14.5529 34.6298C14.4901 34.6656 14.4244 34.696 14.3565 34.7208V34.739C14.3495 34.7433 14.3433 34.7489 14.3384 34.7556C14.3335 34.7623 14.33 34.7699 14.3281 34.778Z" fill="black"/>
</g>
<g style="mix-blend-mode:overlay" opacity="0.2">
<g style="mix-blend-mode:overlay" opacity="0.2">
<path d="M39.6996 27.6672C39.7091 27.7 39.7249 27.7306 39.7462 27.7572C39.7674 27.7838 39.7936 27.806 39.8234 27.8224C39.8531 27.8388 39.8858 27.8492 39.9195 27.8529C39.9533 27.8566 39.9874 27.8536 40.0199 27.844C40.0476 27.837 40.0735 27.8241 40.0958 27.8062C40.1181 27.7882 40.1363 27.7657 40.1491 27.74L40.1698 27.7036C40.1877 27.6714 40.1985 27.6357 40.2016 27.599C40.2048 27.5622 40.2001 27.5252 40.1879 27.4904C40.1701 27.4302 40.1431 27.3732 40.1078 27.3214C39.885 26.8918 39.5645 26.5213 39.1726 26.2398C37.266 24.6277 35.0433 23.438 32.6493 22.748C31.2204 22.3435 29.7417 22.1448 28.2574 22.1578V22.1786C27.9508 22.3498 27.6595 22.5472 27.3867 22.7688C29.1056 22.6194 30.8372 22.7859 32.4968 23.2602C34.8219 23.9519 36.9832 25.1115 38.8496 26.6688C39.0657 26.8546 39.2677 27.0562 39.4542 27.272C39.5545 27.3888 39.6317 27.5238 39.6815 27.6698L39.6996 27.6672Z" fill="black"/>
</g>
</g>
<g style="mix-blend-mode:overlay" opacity="0.2">
<g style="mix-blend-mode:overlay" opacity="0.2">
<path d="M21.5391 28.4186C21.831 28.3328 22.1152 28.2652 22.4071 28.1794C23.1216 27.9383 23.8567 27.7642 24.6031 27.6594C25.8147 27.5112 27.0522 27.6594 28.2406 27.8336C29.3076 27.9506 30.4676 28.1196 31.4312 28.6136C31.593 28.6808 31.7457 28.7681 31.8859 28.8736L31.9815 28.9256C32.0564 28.9672 32.1029 29.0192 32.1597 29.0504C32.188 29.0787 32.2237 29.0981 32.2627 29.1064C32.3016 29.1147 32.3422 29.1115 32.3793 29.0972H32.4078C32.4321 29.0922 32.4553 29.0822 32.4757 29.0679C32.4961 29.0536 32.5134 29.0353 32.5266 29.014L32.5473 28.9776C32.5779 28.9235 32.5882 28.8602 32.5763 28.7992C32.5645 28.7381 32.5312 28.6833 32.4827 28.6448C32.4439 28.624 32.3974 28.5746 32.3509 28.572C32.2574 28.4792 32.1491 28.4027 32.0306 28.3458C30.8603 27.6542 29.4471 27.4748 28.3078 27.3344C27.0703 27.1732 25.8147 27.0016 24.5281 27.1576C23.7583 27.2769 22.9977 27.4507 22.2521 27.6776H22.2237L22.0428 27.8726C21.862 28.052 21.7096 28.2418 21.5391 28.4186Z" fill="black"/>
</g>
</g>
<g style="mix-blend-mode:overlay" opacity="0.2">
<g style="mix-blend-mode:overlay" opacity="0.2">
<path d="M19.043 31.0238C19.6191 31.094 20.1875 31.133 20.7532 31.1746C22.5229 31.3072 24.3494 31.4346 26.0158 32.0196C26.0458 32.0154 26.0763 32.0228 26.101 32.0404C26.1641 32.0645 26.2338 32.0642 26.2968 32.0398C26.3597 32.0153 26.4114 31.9683 26.4421 31.9078L26.4627 31.8714C26.4716 31.8462 26.4716 31.8186 26.4627 31.7934C26.4709 31.7362 26.4577 31.678 26.4257 31.63C26.3938 31.582 26.3453 31.5476 26.2896 31.5334C24.5199 30.9042 22.634 30.7534 20.8075 30.639L19.5571 30.5454C19.3633 30.704 19.2031 30.8652 19.043 31.0238Z" fill="black"/>
</g>
</g>
<g style="mix-blend-mode:overlay" opacity="0.2">
<g style="mix-blend-mode:overlay" opacity="0.2">
<path d="M31.3125 39.2578C31.6019 39.2214 31.886 39.1538 32.1857 39.0966C32.7742 38.463 33.3148 37.786 33.803 37.0712C34.4875 36.035 35.1003 34.9525 35.6372 33.8316L35.8129 33.4598C36.7275 31.6892 37.7325 29.7938 39.1198 28.2364C39.1648 28.161 39.2186 28.0912 39.28 28.0284C39.2916 28.0252 39.3023 28.0193 39.3113 28.0112C39.3203 28.0031 39.3272 27.9929 39.3316 27.9816C39.3619 27.9273 39.3718 27.8638 39.3595 27.8027C39.3472 27.7416 39.3134 27.687 39.2645 27.6488C39.2464 27.6488 39.2464 27.6488 39.2386 27.6098C39.1741 27.6147 39.1094 27.6147 39.0449 27.6098C39.0449 27.6098 39.0087 27.589 39.0164 27.6098C38.9697 27.6126 38.9252 27.6309 38.8899 27.6618C38.7297 27.8204 38.5773 28.0102 38.4352 28.1818C37.1434 29.7262 36.203 31.5228 35.335 33.218L35.1567 33.5898C34.6272 34.6899 34.031 35.7562 33.3715 36.7826C32.7536 37.663 32.065 38.4908 31.3125 39.2578Z" fill="black"/>
</g>
</g>
<g style="mix-blend-mode:overlay" opacity="0.2">
<g style="mix-blend-mode:overlay" opacity="0.2">
<path d="M25.7461 39.1098C25.9476 39.1462 26.1672 39.193 26.379 39.2112C26.9119 38.6301 27.3869 37.9979 27.7974 37.3236C28.4072 36.2897 28.9517 35.2181 29.4276 34.1152C30.3266 32.1886 31.1662 30.327 32.6621 28.9776C32.6905 28.9776 32.6905 28.9776 32.7008 28.949L32.7422 28.8736C32.7685 28.8247 32.78 28.7692 32.7754 28.7137C32.7709 28.6583 32.7503 28.6055 32.7163 28.5616H32.6957C32.6511 28.5168 32.5907 28.4917 32.5277 28.4917C32.4648 28.4917 32.4044 28.5168 32.3598 28.5616H32.3288C32.2535 28.6241 32.1835 28.6928 32.1196 28.767C32.069 28.8103 32.0254 28.8611 31.9904 28.9178C31.7971 29.0929 31.6191 29.2843 31.4582 29.4898C30.3783 30.7898 29.6497 32.3732 28.9341 33.9098C28.4722 34.9947 27.9406 36.0482 27.3427 37.0636C26.8806 37.7982 26.3457 38.4838 25.7461 39.1098Z" fill="black"/>
</g>
</g>
<g style="mix-blend-mode:overlay" opacity="0.2">
<g style="mix-blend-mode:overlay" opacity="0.2">
<path d="M21.0234 37.5469C21.1552 37.6197 21.318 37.6847 21.5065 37.7887H21.5246C21.6151 37.6665 21.6977 37.5625 21.783 37.4403C22.4314 36.6083 22.9946 35.7087 23.5553 34.8559C24.0074 34.1175 24.4879 33.3687 25.002 32.6875L25.0227 32.6511C25.0531 32.5843 25.0594 32.509 25.0408 32.4379C25.0348 32.41 25.0226 32.3838 25.0051 32.3613C24.9877 32.3388 24.9654 32.3206 24.94 32.3079C24.9132 32.2862 24.8823 32.2701 24.8492 32.2606C24.8162 32.251 24.7815 32.2482 24.7473 32.2523C24.7132 32.2564 24.6801 32.2674 24.6502 32.2845C24.6203 32.3017 24.5941 32.3247 24.5731 32.3521C24.4777 32.4784 24.3914 32.6113 24.3148 32.7499C23.8679 33.3453 23.4907 33.9511 23.1109 34.5699C22.5503 35.4201 21.9974 36.3015 21.38 37.1231C21.2712 37.2727 21.1521 37.4143 21.0234 37.5469Z" fill="black"/>
</g>
</g>
<g style="mix-blend-mode:overlay" opacity="0.2">
<g style="mix-blend-mode:overlay" opacity="0.2">
<path d="M18.043 36.2053C18.2135 36.2989 18.4047 36.3535 18.5752 36.4471C19.0802 35.964 19.5151 35.4117 19.8669 34.8065C20.0059 34.5563 20.1251 34.2955 20.2234 34.0265C20.2305 33.9793 20.2224 33.931 20.2002 33.8887C20.2048 33.8404 20.1911 33.7922 20.1619 33.7536C20.1327 33.715 20.0901 33.689 20.0426 33.6807C20.0105 33.6659 19.9756 33.6584 19.9403 33.6587C19.905 33.659 19.8702 33.6672 19.8383 33.6826C19.8065 33.6979 19.7785 33.7202 19.7562 33.7477C19.7339 33.7753 19.7179 33.8074 19.7093 33.8419C19.6949 33.906 19.6705 33.9675 19.637 34.0239C19.2855 34.8682 18.739 35.616 18.043 36.2053Z" fill="black"/>
</g>
</g>
<path d="M79.367 32.7474C79.1733 32.9138 78.1683 33.725 77.1246 34.6064C77.029 34.7104 76.9076 34.7936 76.812 34.9002C76.3134 35.3153 75.8365 35.7562 75.3833 36.221C75.3084 36.3016 75.2102 36.3848 75.1043 36.4992C74.3033 37.2264 73.4247 37.8621 72.4846 38.3946C72.3529 38.4674 72.2108 38.5506 72.0687 38.613C71.0015 39.1811 69.854 39.581 68.6662 39.7986C68.4544 39.8402 68.2451 39.861 68.0229 39.8922C65.1191 40.2302 61.6469 39.3488 58.1024 35.5554C58.0559 35.5112 58.0094 35.4462 57.9525 35.3942C57.8824 35.1962 57.833 34.9915 57.8053 34.7832C57.7818 34.6463 57.7654 34.5083 57.7562 34.3698C57.7123 33.5092 57.8828 32.1598 58.9084 30.527C58.973 30.436 59.0247 30.332 59.0867 30.241C59.1823 30.0902 59.2985 29.9394 59.4148 29.7912C59.5724 29.5702 59.7532 29.3518 59.9444 29.1204L60.1175 28.9332C60.2912 28.7421 60.4776 28.5631 60.6755 28.3976L60.7169 28.3508C60.9081 28.1862 61.111 28.0358 61.324 27.901C61.6614 27.6673 62.028 27.4794 62.4142 27.342C62.5322 27.2894 62.6529 27.2434 62.7759 27.2042C62.912 27.1561 63.052 27.1205 63.1944 27.0976C63.3178 27.0605 63.4439 27.0336 63.5716 27.017C63.7424 26.9872 63.9151 26.969 64.0883 26.9624C64.3401 26.9403 64.5934 26.9403 64.8453 26.9624C64.8743 26.9507 64.9067 26.9507 64.9357 26.9624C65.1243 26.9624 65.3361 26.991 65.5376 27.004L65.8735 27.0586C66.1717 27.1033 66.4674 27.1632 66.7596 27.238C66.7829 27.238 66.7932 27.238 66.8268 27.2562H66.8397C67.0887 27.3053 67.3332 27.3749 67.5708 27.4642C67.9483 27.5725 68.3177 27.7072 68.6766 27.8672C69.5459 28.2078 70.394 28.6011 71.2161 29.045C71.5701 29.2452 71.9111 29.4324 72.2754 29.643L72.4459 29.7366C72.6164 29.8302 72.7636 29.9264 72.9238 29.9966C73.6059 30.3944 74.2311 30.7168 74.7891 30.9976C74.957 31.0704 75.1043 31.1406 75.2515 31.2134C76.0434 31.6138 76.8607 31.9612 77.6981 32.2534C77.9125 32.3236 78.0934 32.3834 78.2613 32.4328C78.4292 32.4822 78.5997 32.5316 78.7237 32.5602C78.8338 32.593 78.9461 32.6182 79.0596 32.6356C79.1015 32.6425 79.1429 32.6521 79.1836 32.6642C79.2347 32.6746 79.2865 32.6807 79.3386 32.6824H79.3515C79.3568 32.6856 79.3615 32.6898 79.3651 32.6948C79.3688 32.6998 79.3714 32.7055 79.3728 32.7116C79.3743 32.7176 79.3745 32.7239 79.3735 32.7301C79.3725 32.7362 79.3703 32.7421 79.367 32.7474Z" fill="url(#paint7_linear)"/>
<g style="mix-blend-mode:overlay" opacity="0.2">
<path d="M79.3698 32.7476C79.1114 32.8152 77.4709 33.1818 75.523 33.46C75.387 33.4836 75.2499 33.5001 75.1122 33.5094C74.0844 33.6446 73.0485 33.708 72.012 33.6992H71.9991C71.809 33.7119 71.618 33.7005 71.4307 33.6654C71.1707 33.6673 70.9112 33.6438 70.6557 33.5952C70.5359 33.5849 70.4169 33.5676 70.2992 33.5432C70.1433 33.5201 69.9895 33.4845 69.8393 33.4366C69.4288 33.3065 69.0113 33.1997 68.5889 33.1168C67.6872 32.9331 66.7739 32.8123 65.8556 32.7554C65.7998 32.7487 65.7434 32.7487 65.6877 32.7554C65.5913 32.7491 65.4947 32.7491 65.3983 32.7554C65.346 32.7617 65.2931 32.7617 65.2407 32.7554C63.6674 32.7125 62.1021 32.9957 60.6421 33.5874C60.6393 33.5848 60.6356 33.5834 60.6318 33.5834C60.628 33.5834 60.6243 33.5848 60.6214 33.5874C60.5791 33.6078 60.535 33.6243 60.4897 33.6368C60.4897 33.6602 60.4897 33.6368 60.4897 33.6368C60.3915 33.6732 60.3037 33.7226 60.2055 33.759C60.1073 33.8188 60.0066 33.8552 59.911 33.915C59.1939 34.3131 58.5414 34.819 57.976 35.4152C57.9058 35.2172 57.8564 35.0124 57.8287 34.8042C57.8053 34.6673 57.7889 34.5293 57.7796 34.3908C57.7357 33.5302 57.9062 32.1808 58.9318 30.548C58.9964 30.457 59.0481 30.353 59.1101 30.262C59.2057 30.1112 59.322 29.9604 59.4382 29.8122C59.5958 29.5912 59.7766 29.3728 59.9678 29.1414L60.1409 28.9542C60.3146 28.7631 60.5011 28.5841 60.6989 28.4186L60.7403 28.3718C60.9315 28.2072 61.1344 28.0568 61.3474 27.922C61.6849 27.6883 62.0514 27.5004 62.4376 27.363C62.5556 27.3104 62.6763 27.2644 62.7993 27.2252C62.9354 27.1771 63.0755 27.1415 63.2178 27.1186C63.3412 27.0815 63.4674 27.0546 63.595 27.038C63.7659 27.0082 63.9385 26.99 64.1117 26.9834C64.3636 26.9613 64.6168 26.9613 64.8687 26.9834C64.8977 26.9717 64.9301 26.9717 64.9591 26.9834C65.1477 26.9834 65.3595 27.012 65.5611 27.025L65.8969 27.0796C66.1951 27.1243 66.4909 27.1842 66.783 27.259C66.8063 27.259 66.8166 27.259 66.8502 27.2772H66.8631C67.1121 27.3263 67.3566 27.3959 67.5943 27.4852C67.9717 27.5935 68.3411 27.7282 68.7 27.8882C69.5694 28.2288 70.4174 28.6221 71.2396 29.066C71.5935 29.2662 71.9345 29.4534 72.2988 29.664L72.4693 29.7576C72.6398 29.8512 72.7871 29.9474 72.9472 30.0176C73.6293 30.4154 74.2545 30.7378 74.8125 31.0186C74.9804 31.0914 75.1277 31.1616 75.275 31.2344C76.0669 31.6348 76.8842 31.9822 77.7215 32.2744C77.9359 32.3446 78.1168 32.4044 78.2847 32.4538C78.4526 32.5032 78.6231 32.5526 78.7472 32.5812C78.8573 32.614 78.9695 32.6392 79.083 32.6566C79.1249 32.6635 79.1663 32.6731 79.207 32.6852C79.2581 32.6956 79.3099 32.7017 79.362 32.7034H79.3749C79.3778 32.7106 79.3788 32.7184 79.3779 32.7261C79.377 32.7338 79.3742 32.7412 79.3698 32.7476Z" fill="black"/>
</g>
<g style="mix-blend-mode:overlay" opacity="0.2">
<g style="mix-blend-mode:overlay" opacity="0.2">
<path d="M60.1728 33.764C60.1746 33.7893 60.1711 33.8147 60.1627 33.8387C60.1543 33.8626 60.1411 33.8845 60.1239 33.903C60.1067 33.9216 60.0858 33.9363 60.0627 33.9464C60.0395 33.9565 60.0146 33.9617 59.9894 33.9616C59.969 33.9633 59.9484 33.9605 59.9292 33.9533C59.91 33.9461 59.8926 33.9347 59.8783 33.92L59.855 33.8992C59.8349 33.8814 59.819 33.8593 59.8083 33.8346C59.7976 33.8099 59.7924 33.7832 59.793 33.7562C59.7925 33.7107 59.7977 33.6652 59.8085 33.621C59.8605 33.2704 59.9942 32.9372 60.1986 32.6486C61.1462 31.0862 62.4103 29.7423 63.9085 28.7044C64.8039 28.0892 65.7816 27.6051 66.8124 27.2666H66.8253C67.0742 27.3157 67.3187 27.3853 67.5564 27.4746C66.3317 27.7731 65.1709 28.2928 64.1307 29.0086C62.6791 30.0289 61.4486 31.3354 60.5138 32.8488C60.4075 33.0281 60.3143 33.2149 60.2348 33.4078C60.1914 33.5115 60.1694 33.6229 60.1702 33.7354L60.1728 33.764Z" fill="black"/>
</g>
</g>
<g style="mix-blend-mode:overlay" opacity="0.2">
<g style="mix-blend-mode:overlay" opacity="0.2">
<path d="M72.9057 30.0487C72.6835 30.0487 72.4717 30.0747 72.2495 30.0851C71.6992 30.0865 71.1501 30.1378 70.609 30.2385C69.7453 30.455 68.9127 30.7818 68.1314 31.2109C67.3856 31.5165 66.6978 31.9492 66.0982 32.4901C66.001 32.5718 65.9142 32.6652 65.8399 32.7683L65.7856 32.8255C65.7443 32.8723 65.7236 32.9191 65.69 32.9529C65.6774 32.979 65.6575 33.0008 65.6327 33.0156C65.6079 33.0304 65.5793 33.0375 65.5505 33.0361H65.5273C65.5093 33.038 65.491 33.0363 65.4737 33.0309C65.4564 33.0255 65.4404 33.0167 65.4265 33.0049L65.4033 32.9841C65.3691 32.9544 65.347 32.913 65.3413 32.8679C65.3356 32.8228 65.3466 32.7772 65.3723 32.7397C65.3929 32.7163 65.4136 32.6695 65.4472 32.6591C65.4885 32.5722 65.5454 32.4938 65.6151 32.4277C66.2636 31.6737 67.1936 31.2213 67.9583 30.8677C68.7738 30.4226 69.6418 30.0828 70.5418 29.8563C71.1033 29.763 71.6703 29.7074 72.2392 29.6899H72.2624L72.4329 29.7835C72.5983 29.8563 72.7455 29.9525 72.9057 30.0487Z" fill="black"/>
</g>
</g>
<g style="mix-blend-mode:overlay" opacity="0.2">
<g style="mix-blend-mode:overlay" opacity="0.2">
<path d="M75.2352 31.2524C74.8528 31.437 74.4601 31.5982 74.0881 31.7568C72.8945 32.2768 71.6545 32.7734 70.6392 33.5768C70.6185 33.5768 70.5978 33.6002 70.5849 33.6132C70.5487 33.6437 70.503 33.6604 70.4557 33.6604C70.4085 33.6604 70.3628 33.6437 70.3266 33.6132L70.3033 33.5924C70.2904 33.5924 70.2904 33.5586 70.2904 33.5378C70.2698 33.4999 70.2642 33.4555 70.2747 33.4135C70.2853 33.3716 70.3112 33.3352 70.3472 33.3116C71.4271 32.4614 72.6982 31.918 73.9357 31.411C74.2199 31.2862 74.4937 31.1744 74.7805 31.0522C74.9407 31.1094 75.0879 31.1796 75.2352 31.2524Z" fill="black"/>
</g>
</g>
<g style="mix-blend-mode:overlay" opacity="0.2">
<g style="mix-blend-mode:overlay" opacity="0.2">
<path d="M68.6472 39.8249C68.4354 39.8665 68.2261 39.8873 68.0039 39.9185C67.4504 39.6175 66.9201 39.2751 66.4177 38.8941C65.7026 38.3359 65.0275 37.7278 64.3974 37.0741L64.1907 36.8583C63.1573 35.8469 62.0154 34.7783 60.6953 34.0165C60.6459 33.9759 60.5922 33.941 60.5351 33.9125C60.5263 33.9124 60.5177 33.9105 60.5097 33.9069C60.5017 33.9033 60.4945 33.8981 60.4886 33.8917C60.4523 33.8599 60.429 33.8158 60.4233 33.7677C60.4175 33.7197 60.4298 33.6712 60.4576 33.6317C60.4576 33.6317 60.4576 33.6317 60.4576 33.5979C60.5029 33.5855 60.547 33.5689 60.5893 33.5485C60.5893 33.5485 60.61 33.5251 60.61 33.5485C60.6426 33.537 60.6781 33.537 60.7108 33.5485C60.858 33.6213 61.0079 33.7149 61.1448 33.8085C62.3874 34.5885 63.4699 35.5999 64.4568 36.5697L64.6661 36.7855C65.2869 37.4227 65.9461 38.021 66.6398 38.5769C67.2733 39.0484 67.9447 39.4658 68.6472 39.8249Z" fill="black"/>
</g>
</g>
<g style="mix-blend-mode:overlay" opacity="0.2">
<g style="mix-blend-mode:overlay" opacity="0.2">
<path d="M72.4643 38.4208C72.3326 38.4936 72.1905 38.5768 72.0484 38.6392C71.5462 38.3599 71.0713 38.0335 70.6301 37.6642C69.9707 37.0904 69.3486 36.4747 68.7674 35.8208C67.7004 34.6976 66.7006 33.6056 65.3417 33.0206C65.3184 33.0206 65.3184 33.0206 65.3081 33.0206L65.2616 32.9764C65.2319 32.9491 65.2109 32.9135 65.2013 32.8742C65.1916 32.8349 65.1937 32.7935 65.2073 32.7554C65.2275 32.7136 65.263 32.6813 65.3064 32.6653C65.3498 32.6493 65.3976 32.6508 65.4399 32.6696H65.4605C65.528 32.6945 65.5928 32.7258 65.6543 32.7632C65.699 32.7812 65.7407 32.8057 65.7783 32.836C65.9523 32.9135 66.1199 33.0048 66.2795 33.109C67.3284 33.7616 68.199 34.669 69.0464 35.5764C69.6167 36.2219 70.2277 36.8298 70.8755 37.3964C71.3703 37.7896 71.9025 38.1328 72.4643 38.4208Z" fill="black"/>
</g>
</g>
<g style="mix-blend-mode:overlay" opacity="0.2">
<g style="mix-blend-mode:overlay" opacity="0.2">
<path d="M75.374 36.234C75.299 36.3146 75.2009 36.3978 75.0949 36.5122L74.8366 36.3302C74.1985 35.909 73.5991 35.4176 73.0127 34.9574C72.5311 34.545 72.0293 34.1571 71.5091 33.7952L71.4884 33.7744C71.4509 33.7361 71.4289 33.6852 71.4264 33.6314C71.4245 33.6107 71.427 33.5898 71.4337 33.5701C71.4403 33.5504 71.4511 33.5323 71.4651 33.517C71.4925 33.4757 71.5349 33.4469 71.5832 33.4367C71.6315 33.4265 71.6819 33.4357 71.7235 33.4624C71.8195 33.5283 71.9118 33.5995 71.9999 33.6756C72.4443 33.9824 72.8473 34.3152 73.2503 34.6454C73.8342 35.1056 74.4207 35.5866 75.0381 36.0104C75.1454 36.0918 75.2576 36.1664 75.374 36.234Z" fill="black"/>
</g>
</g>
<g style="mix-blend-mode:overlay" opacity="0.2">
<g style="mix-blend-mode:overlay" opacity="0.2">
<path d="M77.1235 34.6063C77.0279 34.7103 76.9065 34.7935 76.8109 34.9001C76.3508 34.683 75.9237 34.4011 75.5424 34.0629C75.3882 33.9197 75.2448 33.765 75.1136 33.6001C75.0972 33.569 75.0917 33.5333 75.0981 33.4987C75.0839 33.4663 75.0821 33.4298 75.093 33.3962C75.104 33.3626 75.127 33.3343 75.1575 33.3167C75.1763 33.3008 75.1983 33.2891 75.2219 33.2822C75.2456 33.2754 75.2704 33.2737 75.2947 33.2771C75.3191 33.2805 75.3424 33.2891 75.3633 33.3022C75.3842 33.3153 75.4021 33.3326 75.4158 33.3531C75.4412 33.3933 75.4726 33.4292 75.5089 33.4597C75.9485 33.9661 76.5021 34.3592 77.1235 34.6063Z" fill="black"/>
</g>
</g>
<path d="M63.0883 33.1192C63.1025 33.2027 63.0833 33.2884 63.0349 33.3576C62.9865 33.4268 62.9128 33.4738 62.8299 33.4884C60.1819 34.0942 57.7043 35.3734 55.4438 36.9126C53.3161 38.382 51.3501 40.0755 49.5792 41.9644C49.5274 43.8647 49.3687 45.7606 49.1039 47.6428C48.7164 50.3312 48.0705 52.8012 47.9852 55.3596C47.7269 60.4764 48.3521 65.7206 49.4268 70.6996V70.7646C49.4576 70.9026 49.4608 71.0454 49.4363 71.1847C49.4118 71.3239 49.3601 71.4569 49.2841 71.5759C49.2082 71.6949 49.1095 71.7975 48.9939 71.8778C48.8783 71.9581 48.7479 72.0146 48.6104 72.0438C48.3281 72.1011 48.0347 72.0447 47.7932 71.8867C47.5516 71.7288 47.3813 71.4818 47.3187 71.1988V71.1754C46.3292 65.9078 45.8125 60.5986 46.2001 55.2218C46.3499 52.5334 47.0836 49.8892 47.5125 47.3958C47.9288 44.8452 48.131 42.2638 48.117 39.679C48.0798 37.1457 47.8709 34.6178 47.4918 32.113C46.9641 31.5266 46.3712 31.0032 45.7247 30.553C44.9824 30.02 44.1803 29.5767 43.335 29.2322C41.6157 28.5435 39.778 28.2041 37.9277 28.2338C37.8996 28.2338 37.8717 28.2283 37.8457 28.2174C37.8197 28.2066 37.796 28.1907 37.7761 28.1706C37.7562 28.1506 37.7404 28.1268 37.7296 28.1006C37.7189 28.0744 37.7133 28.0464 37.7133 28.018C37.7089 27.9893 37.7106 27.9599 37.7182 27.9319C37.7258 27.9038 37.7392 27.8777 37.7574 27.8551C37.7757 27.8326 37.7984 27.8142 37.8242 27.801C37.85 27.7879 37.8782 27.7803 37.9071 27.7788C39.8389 27.6454 41.778 27.8954 43.614 28.5146C44.5292 28.8554 45.4106 29.282 46.2466 29.7886C46.6108 30.0278 46.9338 30.2436 47.28 30.5036C47.1508 29.6794 47.0216 28.8578 46.957 27.9894C46.8776 26.6345 46.9495 25.2748 47.1714 23.936C48.055 18.6476 51.3489 13.575 56.3247 11.4066C56.4136 11.3666 56.5145 11.3633 56.6058 11.3973C56.6971 11.4314 56.7715 11.5 56.813 11.5886C56.8519 11.6749 56.8556 11.7732 56.8232 11.8622C56.7908 11.9512 56.725 12.0238 56.6399 12.0644C51.9664 14.2328 48.9721 19.0844 48.241 24.0972C48.0771 25.3547 48.0408 26.6257 48.1325 27.8906C48.2617 29.1256 48.52 30.4464 48.737 31.749C49.1852 34.3677 49.4605 37.0134 49.5612 39.6686C49.5844 39.9286 49.5844 40.2094 49.5844 40.4928C51.235 38.8879 53.0383 37.4502 54.9684 36.2002C57.3297 34.6792 59.9132 33.4286 62.7008 32.8592C62.7863 32.8431 62.8747 32.8612 62.9471 32.9098C63.0195 32.9584 63.0702 33.0336 63.0883 33.1192Z" fill="url(#paint8_linear)"/>
<path d="M91.1724 83.9309H0.164062C0.164062 83.9309 6.57368 77.5714 15.7166 75.4992C24.8596 73.427 26.9703 72.4026 30.2487 69.3086C33.5272 66.2146 36.3302 68.5286 40.9753 64.652C45.6204 60.7754 51.5185 62.858 55.3989 64.652C56.1544 65.0125 56.8683 65.4554 57.5277 65.9728C58.9667 67.0908 60.1112 68.3726 61.9351 69.3268C63.2803 70.0063 64.7369 70.4344 66.234 70.5904C72.4344 71.3704 73.9845 71.1234 77.56 74.7322C79.2644 76.4909 81.0903 78.126 83.0241 79.6253C85.574 81.6403 88.3771 83.3069 91.1724 83.9309Z" fill="url(#paint9_linear)"/>
<g style="mix-blend-mode:overlay" opacity="0.2">
<path d="M91.1724 83.9309H0.164062C0.164062 83.9309 6.57368 77.5714 15.7166 75.4992C24.8596 73.427 26.9703 72.4026 30.2487 69.3086C33.5272 66.2146 36.3302 68.5286 40.9753 64.652C45.6204 60.7754 51.5185 62.858 55.3989 64.652C56.1544 65.0125 56.8683 65.4554 57.5277 65.9728C55.6883 65.4788 53.3941 64.9328 50.9734 64.4882C45.4008 63.4794 44.7085 63.2428 42.2128 66.2094C39.7172 69.176 41.7581 69.0148 37.5626 69.7116C33.367 70.4084 31.2795 73.687 29.6597 74.3916C28.0398 75.0962 27.4172 76.6458 26.7093 78.1303C26.0015 79.6149 30.6595 81.6325 39.1824 82.3475C47.7053 83.0625 53.606 81.0995 60.8165 82.3475C68.027 83.5955 91.1724 83.9309 91.1724 83.9309Z" fill="black"/>
</g>
<path style="mix-blend-mode:overlay" opacity="0.1" d="M83.0243 79.623C82.544 79.5523 82.0692 79.448 81.6033 79.311C76.9531 77.9564 76.3769 75.0964 74.0466 73.5754C71.7163 72.0544 67.6629 72.6888 64.6867 72.8604C61.7105 73.032 59.9331 73.76 56.3265 75.9206C52.72 78.0812 54.469 77.4416 50.1727 77.0776C47.4993 76.8696 44.814 76.8696 42.1406 77.0776C42.1406 77.0776 44.4658 75.7932 49.7516 75.281C55.0374 74.7688 52.6657 74.8026 56.2723 72.161C57.967 70.9156 60.132 69.964 61.9353 69.3218C63.2805 70.0013 64.7371 70.4294 66.2342 70.5854C72.4346 71.3654 73.9846 71.1184 77.5602 74.7272C79.2645 76.4868 81.0904 78.1228 83.0243 79.623Z" fill="url(#paint10_linear)"/>
<defs>
<linearGradient id="paint0_linear" x1="114.784" y1="72.4312" x2="-7.69274" y2="120.035" gradientUnits="userSpaceOnUse">
<stop stop-color="#AECD8B"/>
<stop offset="0.54" stop-color="#A2BF83"/>
<stop offset="1" stop-color="#9EBA80"/>
</linearGradient>
<linearGradient id="paint1_linear" x1="94.067" y1="68.9813" x2="7.3898" y2="130.168" gradientUnits="userSpaceOnUse">
<stop stop-color="#75BB7D"/>
<stop offset="0.32" stop-color="#6BA973"/>
<stop offset="0.69" stop-color="#649A6B"/>
<stop offset="1" stop-color="#619568"/>
</linearGradient>
<linearGradient id="paint2_linear" x1="17640.1" y1="7893.57" x2="7772.8" y2="19411.4" gradientUnits="userSpaceOnUse">
<stop stop-color="#75BB7D"/>
<stop offset="0.32" stop-color="#6BA973"/>
<stop offset="0.69" stop-color="#649A6B"/>
<stop offset="1" stop-color="#619568"/>
</linearGradient>
<linearGradient id="paint3_linear" x1="7446.91" y1="6186.5" x2="1634.66" y2="10240.6" gradientUnits="userSpaceOnUse">
<stop stop-color="#75BB7D"/>
<stop offset="0.32" stop-color="#6BA973"/>
<stop offset="0.69" stop-color="#649A6B"/>
<stop offset="1" stop-color="#619568"/>
</linearGradient>
<linearGradient id="paint4_linear" x1="4138.38" y1="2521.44" x2="-800.401" y2="5730.05" gradientUnits="userSpaceOnUse">
<stop stop-color="#75BB7D"/>
<stop offset="0.32" stop-color="#6BA973"/>
<stop offset="0.69" stop-color="#649A6B"/>
<stop offset="1" stop-color="#619568"/>
</linearGradient>
<linearGradient id="paint5_linear" x1="63.4013" y1="4.35551" x2="35.754" y2="33.8405" gradientUnits="userSpaceOnUse">
<stop offset="0.14" stop-color="#AECD8B"/>
<stop offset="0.6" stop-color="#A2BF83"/>
<stop offset="1" stop-color="#9EBA80"/>
</linearGradient>
<linearGradient id="paint6_linear" x1="11469.4" y1="-5711.4" x2="14922.4" y2="-5875.32" gradientUnits="userSpaceOnUse">
<stop offset="0.14" stop-color="#AECD8B"/>
<stop offset="0.6" stop-color="#A2BF83"/>
<stop offset="1" stop-color="#9EBA80"/>
</linearGradient>
<linearGradient id="paint7_linear" x1="3078.91" y1="337.895" x2="1405.94" y2="881.694" gradientUnits="userSpaceOnUse">
<stop offset="0.14" stop-color="#AECD8B"/>
<stop offset="0.6" stop-color="#A2BF83"/>
<stop offset="1" stop-color="#9EBA80"/>
</linearGradient>
<linearGradient id="paint8_linear" x1="5316.9" y1="2006.92" x2="2695.46" y2="15410.4" gradientUnits="userSpaceOnUse">
<stop stop-color="#75BB7D"/>
<stop offset="0.32" stop-color="#6BA973"/>
<stop offset="0.69" stop-color="#649A6B"/>
<stop offset="1" stop-color="#619568"/>
</linearGradient>
<linearGradient id="paint9_linear" x1="68.6496" y1="50.027" x2="27.6937" y2="109.675" gradientUnits="userSpaceOnUse">
<stop stop-color="#784732"/>
<stop offset="0.11" stop-color="#6E4230"/>
<stop offset="0.44" stop-color="#56372A"/>
<stop offset="0.75" stop-color="#472F26"/>
<stop offset="1" stop-color="#422D25"/>
</linearGradient>
<linearGradient id="paint10_linear" x1="42.1406" y1="74.475" x2="83.0243" y2="74.475" gradientUnits="userSpaceOnUse">
<stop offset="0.07" stop-color="#75BB7D"/>
<stop offset="0.36" stop-color="#6BA973"/>
<stop offset="0.71" stop-color="#649A6B"/>
<stop offset="1" stop-color="#619568"/>
</linearGradient>
</defs>
</svg>
