<svg xmlns="http://www.w3.org/2000/svg" xmlns:xlink="http://www.w3.org/1999/xlink" width="1080" zoomAndPan="magnify" viewBox="0 0 810 809.999993" height="1080" preserveAspectRatio="xMidYMid meet" version="1.0"><rect x="-81" width="972" fill="#ffffff" y="-80.999999" height="971.999992" fill-opacity="1"/><rect x="-81" width="972" fill="#ffffff" y="-80.999999" height="971.999992" fill-opacity="1"/><rect x="-81" width="972" fill="#ffffff" y="-80.999999" height="971.999992" fill-opacity="1"/><path fill="#292f33" d="M 429.367188 778.722656 L 275.625 256.332031 C 275.625 256.332031 243.675781 273.460938 217.035156 293.179688 C 209.992188 298.378906 172.550781 355.980469 165.015625 361.609375 C 125.371094 391.207031 85.09375 425.554688 79.695312 432.894531 C 69.367188 446.9375 0 789.976562 0 789.976562 Z M 429.367188 778.722656 " fill-opacity="1" fill-rule="nonzero"/><path fill="#4b545d" d="M 720 767.464844 L 596.25 322.914062 L 405 81.890625 L 284.109375 176.269531 L 262.261719 202.648438 C 253.125 220.230469 225 322.914062 225 322.914062 L 196.875 429.832031 L 73.171875 656.136719 L 20.632812 762.761719 Z M 720 767.464844 " fill-opacity="1" fill-rule="nonzero"/><path fill="#ffffff" d="M 73.171875 656.136719 C 73.171875 656.136719 250.3125 413.421875 250.785156 399.804688 C 251.257812 386.210938 225 322.914062 225 322.914062 L 196.875 429.832031 Z M 73.171875 656.136719 " fill-opacity="1" fill-rule="nonzero"/><path fill="#292f33" d="M 270 744.957031 L 315 744.957031 L 360 390.441406 L 387.765625 349.992188 L 468.269531 232.179688 L 470.386719 199.117188 L 396.425781 299.371094 L 337.5 379.230469 L 283.769531 544.941406 L 270 587.394531 L 229.703125 657.9375 L 180 744.957031 Z M 541.328125 348.441406 L 497.113281 481.175781 L 472.5 564.886719 L 535.320312 736.515625 L 615.238281 735.121094 C 615.238281 735.121094 517.5 578.953125 517.5 564.886719 C 517.5 562.183594 531.5625 504.40625 531.5625 504.40625 L 556.175781 402.417969 L 562.5 367.933594 Z M 541.328125 348.441406 " fill-opacity="1" fill-rule="nonzero"/><path fill="#f1f1f1" d="M 541.328125 348.441406 L 501.324219 333.472656 L 466.875 353.167969 L 436.996094 329.238281 L 387.765625 349.992188 L 468.269531 232.179688 Z M 605.925781 514.535156 L 567.425781 483.289062 L 531.5625 504.40625 L 556.175781 402.394531 L 588.511719 453.757812 Z M 605.925781 514.535156 " fill-opacity="1" fill-rule="nonzero"/><path fill="#ffffff" d="M 497.113281 481.175781 L 472.5 564.886719 L 466.875 510.480469 Z M 270 587.394531 L 229.703125 657.9375 L 237.644531 603.21875 C 237.644531 603.21875 252.988281 590.207031 258.75 582.714844 C 264.488281 575.21875 283.769531 544.941406 283.769531 544.941406 Z M 342.179688 339.796875 L 396.425781 299.371094 L 337.5 379.230469 Z M 342.179688 339.796875 " fill-opacity="1" fill-rule="nonzero"/><path fill="#292f33" d="M 810 789.976562 C 810 789.976562 801.359375 703.429688 790.785156 630.542969 C 782.484375 573.304688 728.753906 488.671875 698.558594 470.394531 L 670.792969 390.800781 L 625.273438 275.960938 L 574.46875 224.4375 L 532.980469 187.839844 L 521.617188 173.859375 L 405 81.890625 L 456.503906 194.589844 L 468.292969 232.179688 L 541.328125 348.441406 L 556.175781 402.394531 L 588.53125 453.738281 L 605.949219 514.535156 L 630 598.648438 L 585 744.957031 Z M 810 789.976562 " fill-opacity="1" fill-rule="nonzero"/><path fill="#5c903f" d="M 758.429688 709.796875 C 728.167969 709.796875 646.875 722.449219 635.625 722.449219 C 590.625 722.449219 540 683.058594 517.5 683.058594 C 495 683.058594 436.636719 722.449219 391.636719 722.449219 C 353.65625 722.449219 337.5 704.171875 285.457031 704.171875 C 268.628906 704.171875 193.296875 723.777344 177.1875 721.75 C 136.171875 716.617188 115.085938 699.941406 104.761719 699.941406 C 45 699.941406 0 789.976562 0 789.976562 L 810 789.976562 C 810 789.976562 790.3125 709.796875 758.429688 709.796875 Z M 758.429688 709.796875 " fill-opacity="1" fill-rule="nonzero"/><path fill="#f1f1f1" d="M 284.109375 176.269531 L 331.875 165.351562 L 346.636719 206.859375 L 394.449219 187.164062 L 456.503906 194.589844 L 405 30.296875 Z M 284.109375 176.269531 " fill-opacity="1" fill-rule="nonzero"/><path fill="#a8b6c0" d="M 521.617188 173.859375 L 489.148438 168.390625 L 456.503906 194.589844 L 405 30.296875 Z M 628.941406 272.269531 L 670.769531 390.800781 L 631.867188 327.144531 L 595.550781 290.570312 L 574.449219 224.4375 Z M 790.785156 630.542969 C 790.785156 630.542969 787.5 543.097656 762.1875 514.242188 C 736.875 485.382812 697.5 469.695312 697.5 469.695312 L 729.855469 543.324219 L 762.660156 575.21875 Z M 790.785156 630.542969 " fill-opacity="1" fill-rule="nonzero"/></svg>