<svg xmlns="http://www.w3.org/2000/svg" xmlns:xlink="http://www.w3.org/1999/xlink" width="1080" zoomAndPan="magnify" viewBox="0 0 810 809.999993" height="1080" preserveAspectRatio="xMidYMid meet" version="1.0"><defs><clipPath id="4da098c584"><path d="M 304 29.363281 L 794 29.363281 L 794 480 L 304 480 Z M 304 29.363281 " clip-rule="nonzero"/></clipPath><clipPath id="2185e53463"><path d="M 450 29.363281 L 794 29.363281 L 794 454 L 450 454 Z M 450 29.363281 " clip-rule="nonzero"/></clipPath></defs><rect x="-81" width="972" fill="#ffffff" y="-80.999999" height="971.999992" fill-opacity="1"/><rect x="-81" width="972" fill="#ffffff" y="-80.999999" height="971.999992" fill-opacity="1"/><g clip-path="url(#4da098c584)"><path fill="#999999" d="M 788.40625 29.4375 C 788.40625 29.4375 809.933594 119.234375 766.355469 181.59375 C 722.777344 243.957031 435.214844 465.066406 435.214844 465.066406 C 435.214844 465.066406 367.804688 482.433594 364.777344 478.953125 C 361.75 475.472656 304.78125 413.453125 304.78125 413.453125 C 304.78125 413.453125 379.46875 356.125 380.679688 350.484375 C 381.890625 344.847656 381.71875 329.710938 385.085938 328.3125 C 388.453125 326.910156 404 332.492188 407.480469 329.464844 C 410.960938 326.4375 408.730469 311.566406 413.835938 308.652344 C 418.941406 305.738281 426.566406 313.628906 432.597656 309.144531 C 438.632812 304.660156 434.488281 293.742188 438.40625 290.335938 C 442.320312 286.933594 452.609375 291.738281 456.410156 289.957031 C 460.214844 288.179688 456.730469 273.628906 459.777344 270.980469 C 462.824219 268.332031 476.6875 274.613281 478.425781 273.101562 C 480.167969 271.585938 476.277344 257.417969 480.542969 254.246094 C 484.808594 251.078125 498.972656 259.289062 501.859375 255.15625 C 504.75 251.019531 501.113281 236.894531 504.496094 233.949219 L 556.789062 188.464844 C 556.789062 188.464844 695.222656 144.308594 788.40625 29.4375 Z M 788.40625 29.4375 " fill-opacity="1" fill-rule="evenodd"/></g><g clip-path="url(#2185e53463)"><path fill="#b6b6b6" d="M 788.457031 29.648438 C 788.988281 31.914062 809.371094 120.035156 766.355469 181.59375 C 728.679688 235.515625 508.925781 407.851562 450.039062 453.585938 C 451.601562 438.605469 454.605469 418.492188 460.144531 405.832031 C 487.835938 381.152344 658.945312 257.042969 730.625 157.945312 C 758.117188 119.9375 773.957031 65.34375 788.457031 29.648438 Z M 788.457031 29.648438 " fill-opacity="1" fill-rule="evenodd"/></g><path fill="#918a67" d="M 301.164062 436.269531 C 301.164062 436.269531 259 451.058594 205.628906 487.480469 C 152.257812 523.898438 22.109375 673.386719 22.109375 673.386719 L 116.96875 742.226562 C 116.96875 742.226562 127.988281 680.105469 148.824219 659.476562 C 169.65625 638.851562 182.449219 651.398438 221.523438 620.0625 C 279.628906 572.378906 293.535156 525.683594 348.859375 503.101562 Z M 301.164062 436.269531 " fill-opacity="1" fill-rule="evenodd"/><path fill="#736e52" d="M 301.164062 436.269531 L 348.859375 503.101562 C 293.5 525.707031 279.699219 572.308594 221.523438 620.0625 C 182.449219 651.398438 169.65625 638.851562 148.824219 659.476562 C 127.988281 680.105469 116.96875 742.226562 116.96875 742.226562 L 22.109375 673.386719 C 22.109375 673.386719 29.707031 664.667969 41.789062 651.128906 C 62.621094 671.914062 87.925781 699.855469 92.464844 700.375 C 100.09375 701.238281 107.863281 663.53125 135.621094 640.273438 C 161.324219 618.734375 189.808594 619.34375 213.617188 603.113281 C 239.921875 585.183594 306.121094 513.890625 305.207031 507.804688 C 304.535156 503.335938 278.800781 473.53125 261.722656 454.039062 C 274.507812 447.308594 287.65625 441.386719 301.164062 436.269531 Z M 301.164062 436.269531 " fill-opacity="1" fill-rule="evenodd"/><path fill="#3d4725" d="M 274.714844 447.308594 C 274.714844 447.308594 285.996094 418.820312 282.851562 401.539062 C 279.710938 384.257812 275.019531 379.582031 274.894531 376.5625 C 274.769531 373.542969 280.546875 357.886719 280.546875 357.886719 C 280.546875 357.886719 409.941406 511.769531 413.78125 519.0625 C 417.617188 526.355469 405.003906 572.976562 399.121094 580.59375 C 398.355469 581.675781 397.484375 582.664062 396.507812 583.558594 C 395.535156 584.453125 394.472656 585.234375 393.332031 585.90625 C 392.191406 586.574219 390.992188 587.117188 389.734375 587.535156 C 388.476562 587.949219 387.1875 588.226562 385.871094 588.367188 C 385.871094 588.367188 397.714844 548.046875 371.769531 526.835938 C 345.824219 505.621094 328.535156 513.78125 328.535156 513.78125 Z M 274.714844 447.308594 " fill-opacity="1" fill-rule="evenodd"/><path fill="#3d4725" d="M 160.527344 765.003906 C 160.527344 765.003906 149.660156 776.957031 146.289062 777.390625 C 142.914062 777.824219 106.90625 781 78.347656 758.933594 C 49.789062 736.871094 0.00390625 673.851562 1.878906 670.972656 C 3.75 668.089844 26.179688 662.964844 29.769531 664.21875 C 33.359375 665.472656 63.609375 701.707031 86.332031 716.339844 C 109.058594 730.96875 130.542969 729.792969 137.324219 733.277344 C 144.101562 736.757812 160.527344 765.003906 160.527344 765.003906 Z M 160.527344 765.003906 " fill-opacity="1" fill-rule="evenodd"/></svg>