<svg width="121" height="100" viewBox="0 0 121 100" fill="none" xmlns="http://www.w3.org/2000/svg">
<path d="M67.5669 80.0076H72.705C74.5451 80.0076 76.3884 80.0076 78.2285 80.0076C79.9947 80.0076 81.761 79.9817 83.5208 80.0076C90.6627 80.1206 97.7983 80.4081 104.94 80.4921C106.652 80.5115 108.364 80.5664 110.078 80.6149C110.693 80.591 111.308 80.6585 111.902 80.8152C112.033 80.8368 112.167 80.828 112.294 80.7893C112.365 80.7893 112.378 80.7247 112.339 80.6763C112.301 80.6278 112.31 80.6214 112.291 80.6181C112.214 80.5977 112.133 80.5977 112.057 80.6181C111.73 80.7377 111.382 80.7894 111.035 80.77L98.1997 81.2836C96.2729 81.3676 94.3461 81.4806 92.4193 81.5388C90.8972 81.5872 89.3718 81.5776 87.8496 81.584C84.7475 81.5969 81.6432 81.6045 78.5368 81.6066C76.8252 81.6066 75.1135 81.5873 73.3987 81.5905C71.337 81.5905 69.2786 81.6325 67.2201 81.6422C64.6832 81.6422 62.1462 81.6422 59.6061 81.6422C57.0659 81.6422 54.5322 81.6842 51.992 81.6906C50.4988 81.6906 49.0023 81.6648 47.4962 81.668C45.6786 81.668 43.861 81.7132 42.0369 81.7165C37.92 81.7165 33.8031 81.7165 29.6862 81.7165C28.5398 81.7165 27.3901 81.6325 26.2437 81.6002C25.3381 81.5743 24.4293 81.5711 23.5237 81.5517L19.198 81.4483C18.0484 81.4225 16.8987 81.4063 15.7491 81.3773C14.2269 81.3364 12.7058 81.2911 11.1858 81.2416C11.054 81.2326 10.9241 81.2043 10.8004 81.1576C10.7789 81.1434 10.761 81.1243 10.7481 81.1019C10.7353 81.0794 10.7279 81.0542 10.7266 81.0284C10.7294 81.0051 10.7379 80.9829 10.7514 80.9637C10.7648 80.9446 10.7828 80.929 10.8036 80.9186C10.9079 80.8849 11.0156 80.8632 11.1248 80.854C11.5262 80.8249 11.9244 80.7861 12.3258 80.7732C15.6121 80.6569 18.8962 80.5417 22.1781 80.4275C24.821 80.3339 27.464 80.224 30.1069 80.14C31.3079 80.1045 32.5122 80.1174 33.7164 80.1142C35.0523 80.1142 36.3882 80.1142 37.7273 80.1142C39.9753 80.1142 42.2232 80.1142 44.4711 80.1142C46.4493 80.1142 48.4242 80.0851 50.4024 80.0786C53.7722 80.0657 57.1398 80.0571 60.5052 80.0528H67.5669V80.0076Z" fill="#004747"/>
<path d="M34.3203 77.4942C34.3749 77.3456 34.513 77.3295 34.6414 77.2972C35.8521 76.9741 37.0724 76.6511 38.2767 76.328C40.1064 75.8299 41.896 75.1927 43.6299 74.4221C45.1672 73.6585 46.5265 72.5763 47.6184 71.2466C48.7648 69.9286 49.224 68.3684 49.4232 66.6789C49.4734 65.8539 49.4788 65.0267 49.4392 64.2011C49.4392 63.933 49.3653 63.6261 49.5452 63.4194C49.8952 63.0059 50.1874 62.531 50.8554 62.5019C52.3776 62.4341 53.8997 62.4729 55.4251 62.4632C57.6955 62.447 59.9627 62.7152 62.2331 62.5763C64.3943 62.4438 66.5588 62.4697 68.72 62.46C69.3076 62.46 69.8953 62.4955 70.483 62.5084C70.6432 62.4885 70.8056 62.5165 70.9501 62.5889C71.0946 62.6613 71.2147 62.7749 71.2955 62.9154C71.8542 63.2191 71.8992 63.7263 71.8799 64.2981C71.8362 65.289 71.8727 66.2818 71.9891 67.2668C72.212 68.9289 72.949 70.4783 74.0957 71.6957C75.2759 73.0228 76.7408 74.0623 78.3796 74.7355C79.9142 75.3625 81.4827 75.9018 83.0778 76.3507C84.3366 76.706 85.6083 77.0258 86.8736 77.3618C86.9257 77.3712 86.9752 77.3916 87.019 77.4217C87.0627 77.4518 87.0996 77.4908 87.1273 77.5362C87.0803 77.5836 87.0232 77.6196 86.9603 77.6415C86.8974 77.6633 86.8304 77.6704 86.7644 77.6622H85.2294C82.6603 77.6751 80.0977 77.7117 77.5415 77.772C74.2563 77.856 70.9679 77.814 67.6795 77.814C60.8394 77.814 53.9993 77.814 47.156 77.7979C45.3705 77.7979 43.5818 77.856 41.7931 77.6945C40.7847 77.6041 39.7635 77.6719 38.7487 77.6687C37.5188 77.6687 36.2889 77.6687 35.0621 77.6687C34.8116 77.6331 34.5323 77.73 34.3203 77.4942Z" fill="#8AB0BA"/>
<path d="M34.3179 77.4941C34.5299 77.7397 34.8189 77.633 35.0726 77.6363C36.2993 77.6524 37.5292 77.6363 38.7592 77.6363C39.7739 77.6363 40.7951 77.5717 41.8035 77.6621C43.5922 77.8236 45.3809 77.759 47.1664 77.7655C54.0097 77.7881 60.8498 77.7817 67.6899 77.7817C70.9783 77.7817 74.2667 77.8236 77.5519 77.7397C80.121 77.675 82.6836 77.6384 85.2398 77.6298H86.762C86.828 77.638 86.895 77.6309 86.9579 77.6091C87.0208 77.5873 87.0779 77.5512 87.1248 77.5038C87.2565 77.5329 87.3882 77.5458 87.5166 77.5878C87.8699 77.7041 87.8827 77.7235 87.7992 78.1596C87.759 78.4527 87.7655 78.7504 87.8185 79.0415C87.8455 79.365 87.8315 79.6907 87.7767 80.0106C87.7066 80.2995 87.5455 80.5579 87.3175 80.7471C87.2764 80.7802 87.2289 80.8044 87.1781 80.8183C87.1273 80.8322 87.0742 80.8355 87.0221 80.8279C85.7375 80.6728 84.453 80.7924 83.1685 80.7859C81.672 80.7859 80.1788 80.8408 78.6726 80.8441C72.6322 80.8441 66.5885 80.8441 60.548 80.8441C56.643 80.8441 52.7412 80.8667 48.8395 80.8602C45.8433 80.8602 42.8504 80.8279 39.8478 80.8085L35.0308 80.7762C34.8715 80.7648 34.7116 80.7648 34.5523 80.7762C34.3404 80.8118 34.1124 80.899 33.9422 80.7213C33.7144 80.5313 33.5572 80.2695 33.4958 79.9783C33.4669 79.6553 33.4669 79.3322 33.4637 79.0092C33.515 78.6658 33.4986 78.3157 33.4155 77.9787C33.3513 77.8139 33.4765 77.6557 33.65 77.6169C33.8234 77.5781 34.1092 77.5394 34.3179 77.4941Z" fill="#458696"/>
<g style="mix-blend-mode:multiply" opacity="0.4">
<path d="M73.3163 70.8885C72.4364 71.3795 71.6047 71.919 70.7087 72.3196C69.9476 72.7015 69.14 72.9817 68.3067 73.153C67.7575 73.2435 67.218 73.3985 66.6657 73.476C66.224 73.5492 65.7773 73.587 65.3298 73.5891C63.5699 73.6024 61.8147 73.404 60.1017 72.998C57.5227 72.3794 55.1051 71.213 53.0111 69.577C52.099 68.8692 51.2857 68.0413 50.593 67.1154C49.9764 66.2981 49.7099 65.3419 49.4787 64.376C49.429 64.1113 49.429 63.8396 49.4787 63.5749C49.4878 63.4528 49.5344 63.3365 49.6121 63.2422C49.6898 63.1479 49.7946 63.0801 49.9122 63.0483C50.0632 63.0063 50.2623 62.9547 50.3297 62.8416C50.532 62.5024 50.8563 62.5024 51.1678 62.4798C51.595 62.4475 52.0221 62.4346 52.4524 62.4346C54.5911 62.4346 56.7299 62.4636 58.875 62.5347C60.6637 62.5961 62.4556 62.4895 64.2476 62.4701C66.0395 62.4507 67.78 62.4507 69.5398 62.4475C69.7787 62.4726 70.0189 62.4834 70.2591 62.4798C70.8725 62.4087 71.2514 62.8028 71.6207 63.1679C71.7636 63.3255 71.8496 63.5269 71.8648 63.7397C71.8905 64.2468 71.8648 64.7572 71.8648 65.2676C71.8648 65.4001 71.8198 65.5357 71.8295 65.6682C71.9772 67.4481 72.2084 69.2022 73.297 70.7076C73.3111 70.7668 73.3176 70.8276 73.3163 70.8885Z" fill="#458696"/>
</g>
<g style="mix-blend-mode:screen">
<path d="M42.0243 76.6351C41.819 76.6484 41.613 76.6484 41.4077 76.6351C41.358 76.6271 41.3107 76.6081 41.2691 76.5797C41.2275 76.5512 41.1926 76.5139 41.1669 76.4704C41.1476 76.409 41.2311 76.2701 41.305 76.2281C41.5091 76.1014 41.724 75.9933 41.9472 75.905C43.7616 75.2331 45.409 74.2317 47.0853 73.2949C47.8668 72.8674 48.499 72.2089 48.8965 71.4083C49.2732 70.7584 49.5739 70.0668 49.7925 69.3473C49.8007 69.2933 49.8204 69.2417 49.8502 69.196C49.88 69.1503 49.9193 69.1116 49.9653 69.0825C50.0112 69.0534 50.0629 69.0345 50.1168 69.0273C50.1706 69.02 50.2254 69.0245 50.2774 69.0404C50.3315 69.0441 50.3842 69.0592 50.432 69.0848C50.4799 69.1103 50.5219 69.1458 50.5552 69.1888C50.5886 69.2318 50.6125 69.2813 50.6255 69.3343C50.6385 69.3872 50.6402 69.4423 50.6306 69.4959C50.6349 69.7666 50.6057 70.0368 50.5439 70.3003C50.266 71.2279 49.8846 72.1208 49.4071 72.9621C49.1179 73.4808 48.7255 73.9339 48.2543 74.2931C46.4735 75.7122 44.2938 76.5316 42.0243 76.6351Z" fill="white"/>
</g>
<path d="M112.96 96.4439C112.867 96.3144 112.781 96.1796 112.703 96.0401C112.435 95.5718 112.082 95.1578 111.663 94.819C111.354 94.5624 111.067 94.2815 110.802 93.9791C110.125 93.2167 109.45 92.4511 108.766 91.6952C106.949 89.6859 105.129 87.6798 103.307 85.677C103.179 85.5381 103.111 85.3539 102.986 85.2215C102.7 84.8984 102.411 84.5754 101.881 84.5754C98.9118 84.6142 95.9434 84.6346 92.9762 84.6368C85.3525 84.6368 77.7288 84.6174 70.1052 84.6174C63.6054 84.6174 57.1057 84.6174 50.606 84.6174C43.8408 84.6174 37.0735 84.6174 30.3041 84.6174C26.7202 84.6174 23.1364 84.6002 19.5526 84.5657C19.2103 84.5481 18.8745 84.6638 18.6149 84.8888C18.4365 84.9989 18.3032 85.1697 18.2391 85.3701C18.207 85.5122 18.0561 85.6285 17.9469 85.7448C17.6739 86.0388 17.3881 86.3198 17.1184 86.6202C15.4635 88.4529 13.8107 90.2835 12.1601 92.1119C11.46 92.8904 10.8049 93.7271 10.047 94.4313C9.41182 95.0044 8.85079 95.6556 8.37716 96.3696C7.7349 97.3936 7.90831 98.4273 8.93272 99.0476C9.23205 99.2217 9.55737 99.346 9.89612 99.4158C10.6571 99.5583 11.4318 99.6125 12.2051 99.5773C17.2886 99.516 22.3689 99.4417 27.4524 99.432C38.5015 99.4126 49.5506 99.4126 60.5997 99.432V99.3997C65.7121 99.3997 70.8213 99.3997 75.9305 99.3997C82.3788 99.4126 88.8261 99.4374 95.2723 99.474C98.3744 99.474 101.48 99.5127 104.585 99.5353C106.216 99.5353 107.851 99.5353 109.479 99.587C110.174 99.605 110.867 99.5344 111.544 99.3771C112.02 99.2807 112.456 99.0433 112.796 98.6954C113.094 98.4062 113.276 98.0165 113.306 97.6011C113.336 97.1857 113.213 96.7737 112.96 96.4439Z" fill="#8AB0BA"/>
<path d="M60.6393 96.0468H57.6078C57.4729 96.0468 57.338 96.0468 57.2064 96.0468C56.8114 96.0468 56.7728 95.9887 56.7825 95.559C56.7825 95.4783 56.7825 95.3975 56.7825 95.3167C56.7946 94.7817 56.8603 94.2492 56.9784 93.7274C57.4922 93.5303 58.0285 93.6369 58.5551 93.6305C60.209 93.6143 61.8628 93.6305 63.5166 93.6305C63.7029 93.6305 63.8923 93.6305 64.0786 93.6305C64.3227 93.6305 64.4254 93.7306 64.4447 93.9535C64.4961 94.5673 64.5378 95.1843 64.5764 95.7981C64.5805 95.8245 64.5789 95.8514 64.5719 95.8772C64.5648 95.9029 64.5523 95.9268 64.5353 95.9473C64.5182 95.9678 64.497 95.9844 64.4731 95.996C64.4492 96.0076 64.4231 96.0139 64.3965 96.0145C64.2103 96.0145 64.024 96.0306 63.8377 96.0306H60.6264L60.6393 96.0468Z" fill="white"/>
<path d="M44.7279 96.063H41.8378C41.6779 96.0668 41.518 96.0592 41.3593 96.0403C41.234 96.021 41.1987 95.9176 41.2212 95.8013C41.2304 95.7487 41.2466 95.6977 41.2694 95.6495C41.5552 95.0712 41.8474 94.4962 42.1268 93.9147C42.1665 93.8155 42.2379 93.7325 42.3298 93.6787C42.4217 93.6248 42.5288 93.6033 42.6342 93.6175C43.1961 93.6337 43.7581 93.6175 44.3201 93.6175H48.2476C48.3549 93.616 48.4623 93.6224 48.5687 93.6369C48.6218 93.6445 48.6706 93.6707 48.7064 93.7109C48.7422 93.751 48.7628 93.8027 48.7646 93.8566C48.7773 93.9358 48.7773 94.0165 48.7646 94.0957C48.6393 94.619 48.5237 95.1423 48.3856 95.6624C48.2957 95.9854 48.2251 96.0371 47.8686 96.0403C46.8249 96.0403 45.7813 96.0403 44.7376 96.0403L44.7279 96.063Z" fill="white"/>
<path d="M76.6164 96.0534C75.576 96.0534 74.5323 96.0534 73.4886 96.0534C73.0711 96.0534 73.0519 96.0534 72.9395 95.6269C72.7982 95.1101 72.6729 94.5868 72.5541 94.0634C72.4802 93.7404 72.5798 93.6402 72.9362 93.6338C73.4179 93.6338 73.8996 93.6338 74.3813 93.6338H78.7102C78.8804 93.6338 79.0313 93.6338 79.118 93.8211C79.4392 94.4672 79.7603 95.1133 80.0814 95.7594C80.0963 95.7893 80.1036 95.8225 80.1027 95.856C80.1017 95.8895 80.0926 95.9222 80.0761 95.9513C80.0596 95.9804 80.0362 96.0049 80.008 96.0227C79.9798 96.0405 79.9477 96.051 79.9144 96.0534C79.7539 96.0534 79.5933 96.0534 79.4327 96.0534H76.6228H76.6164Z" fill="white"/>
<path d="M60.691 90.2737H63.5009C63.6606 90.2721 63.8203 90.2786 63.9794 90.2931C64.0475 90.2932 64.1134 90.3181 64.1647 90.3632C64.2161 90.4084 64.2495 90.4706 64.2587 90.5386C64.2877 91.1297 64.3037 91.7177 64.3069 92.3088C64.3069 92.4219 64.1977 92.4865 64.0853 92.493C63.9248 92.493 63.7642 92.5156 63.6036 92.5156H57.6691C56.9594 92.5156 56.9466 92.493 56.9915 91.7855C57.014 91.4108 57.0493 91.0361 57.0847 90.6613C57.1104 90.3641 57.1778 90.2866 57.4829 90.2801C58.26 90.2801 59.0339 90.2801 59.8111 90.2801H60.691V90.2737Z" fill="white"/>
<path d="M72.1942 95.9498C72.0458 96.0333 71.8749 96.0672 71.7061 96.0467H65.9257C65.8198 96.0467 65.7138 96.0467 65.6046 96.0467C65.4954 96.0467 65.3381 95.9401 65.3573 95.7883C65.4248 95.1713 65.2835 94.5607 65.3027 93.9437C65.2979 93.9036 65.302 93.863 65.3146 93.8247C65.3272 93.7863 65.348 93.7513 65.3756 93.722C65.4032 93.6927 65.4369 93.6698 65.4742 93.6551C65.5116 93.6404 65.5517 93.6342 65.5918 93.6368H65.8326H70.9707C71.1056 93.6368 71.2373 93.6368 71.3721 93.6368C71.4258 93.6367 71.4784 93.6514 71.5243 93.6793C71.5701 93.7072 71.6075 93.7473 71.6322 93.7951C71.7012 93.9403 71.753 94.0932 71.7864 94.2506C71.8988 94.8321 72.2103 95.3619 72.1942 95.9498Z" fill="white"/>
<path d="M52.5323 96.0464C51.5464 96.0464 50.5606 96.0464 49.5715 96.0464C49.0609 96.0464 49.0352 96.0012 49.1861 95.4779C49.337 94.9545 49.4816 94.4474 49.6357 93.9337C49.6583 93.8418 49.7128 93.7611 49.7893 93.706C49.8658 93.6509 49.9594 93.6252 50.0532 93.6333C50.9074 93.6333 51.7616 93.6333 52.6222 93.6333C53.6113 93.6333 54.5972 93.6333 55.5863 93.6333C55.9459 93.6333 56.0037 93.6979 56.0005 94.0533C56.0005 94.5895 55.9813 95.1257 55.9652 95.6684C55.9652 95.9915 55.8978 96.0496 55.5863 96.0529C54.7867 96.0529 53.9806 96.0529 53.1842 96.0529H52.5419L52.5323 96.0464Z" fill="white"/>
<path d="M87.7979 96.0371C87.3997 96.0371 86.979 96.0532 86.5615 96.0564C85.0362 96.0564 83.514 96.0758 81.9886 96.0564C80.9835 96.0564 81.2179 96.1727 80.8261 95.2973C80.6174 94.8321 80.4215 94.3605 80.232 93.8889C80.1871 93.7726 80.2609 93.6821 80.383 93.6563C80.4613 93.6417 80.5409 93.6352 80.6206 93.6369C82.3322 93.6369 84.0439 93.6369 85.7587 93.6369C85.904 93.622 86.0506 93.648 86.1821 93.7118C86.3136 93.7757 86.4249 93.875 86.5037 93.9987C86.8827 94.5511 87.3001 95.0776 87.6984 95.6139C87.7551 95.6663 87.7949 95.7347 87.8127 95.8101C87.8304 95.8855 87.8253 95.9646 87.7979 96.0371Z" fill="white"/>
<path d="M41.1107 93.721C41.1781 93.8631 41.0818 93.9762 41.0336 94.0925C40.8313 94.5609 40.5969 95.0164 40.4235 95.4977C40.3826 95.6797 40.2748 95.8394 40.1217 95.9449C39.9687 96.0503 39.7817 96.0937 39.5982 96.0663C38.6637 96.0307 37.726 96.0663 36.7915 96.0663H33.7439C33.5384 96.0663 33.4517 95.9144 33.5673 95.7432C34.0201 95.0971 34.4858 94.4866 34.9482 93.8631C34.9956 93.7979 35.0581 93.7453 35.1303 93.7098C35.2025 93.6744 35.2822 93.6571 35.3624 93.6596H36.1653H40.735C40.8634 93.637 41.0015 93.6079 41.1107 93.721Z" fill="white"/>
<path d="M97.0611 93.6237C97.8607 93.6237 98.6667 93.6237 99.4631 93.6237C99.5948 93.6126 99.7271 93.6366 99.8466 93.6933C99.9662 93.75 100.069 93.8375 100.144 93.9468C100.574 94.5283 101.027 95.0903 101.467 95.6621C101.531 95.7461 101.605 95.8333 101.541 95.9496C101.477 96.0659 101.358 96.0433 101.258 96.0433C100.378 96.0433 99.4984 96.0433 98.6185 96.0433C97.896 96.0433 97.1767 96.0433 96.4573 96.0433C96.3114 96.0535 96.1654 96.0262 96.0328 95.964C95.9003 95.9019 95.7856 95.8069 95.6995 95.688C95.2595 95.113 94.8003 94.5573 94.3539 93.9888C94.2897 93.9112 94.1933 93.8176 94.2929 93.711C94.352 93.6633 94.4259 93.6381 94.5016 93.6399C95.1953 93.6399 95.8889 93.6399 96.5826 93.6399H97.0611V93.6237Z" fill="white"/>
<path d="M24.3335 93.6435C25.162 93.6435 25.9873 93.6435 26.8158 93.6435C27.0342 93.6435 27.1177 93.7857 26.9925 93.944C26.5011 94.59 25.997 95.2038 25.5024 95.8337C25.4526 95.8967 25.389 95.9472 25.3166 95.9813C25.2442 96.0155 25.1649 96.0324 25.0849 96.0308C24.7381 96.0308 24.3913 96.0308 24.0445 96.0308H20.3579C20.1973 96.0308 20.0368 96.0308 19.8762 96.0146C19.8505 96.0132 19.8255 96.0054 19.8036 95.9918C19.7817 95.9781 19.7636 95.9592 19.7508 95.9367C19.738 95.9143 19.731 95.8889 19.7305 95.863C19.73 95.8371 19.7359 95.8115 19.7477 95.7885C19.7871 95.7189 19.8311 95.652 19.8794 95.5882C20.2904 95.0584 20.7143 94.5416 21.1158 94.0053C21.204 93.8722 21.3255 93.7647 21.4682 93.6939C21.6108 93.623 21.7695 93.5911 21.9282 93.6015C22.7278 93.6209 23.5339 93.6015 24.3271 93.6015L24.3335 93.6435Z" fill="white"/>
<path d="M78.359 92.4545C78.2301 92.472 78.1004 92.4828 77.9704 92.4868H72.7777C72.6975 92.4868 72.6172 92.4868 72.5369 92.4868C72.2318 92.4868 72.158 92.4287 72.0745 92.1638C71.9203 91.6502 71.779 91.1333 71.6377 90.6164C71.5896 90.4323 71.6795 90.316 71.885 90.2934C72.0905 90.2708 72.2575 90.2708 72.4438 90.2708H76.6795C76.8144 90.2708 76.946 90.2708 77.0777 90.2708C77.1584 90.2679 77.2383 90.2872 77.309 90.3264C77.3797 90.3657 77.4385 90.4235 77.4791 90.4937C77.8193 91.0693 78.1207 91.6672 78.3815 92.2833C78.3975 92.3221 78.3686 92.3835 78.359 92.4545Z" fill="white"/>
<path d="M46.046 92.4838C45.1115 92.4838 44.177 92.4838 43.2425 92.4838C42.9888 92.4838 42.9053 92.3514 43.0177 92.1155C43.2618 91.6084 43.5283 91.1109 43.7756 90.6037C43.8232 90.4929 43.9045 90.4001 44.0077 90.3386C44.111 90.2771 44.231 90.25 44.3504 90.2613H47.0736C47.8476 90.2613 48.6215 90.2613 49.3954 90.2839C49.662 90.2839 49.7487 90.4002 49.6844 90.6392C49.5431 91.1561 49.3858 91.6665 49.2477 92.1866C49.2364 92.2821 49.1884 92.3693 49.114 92.4297C49.0396 92.4901 48.9447 92.5188 48.8495 92.5096H46.046V92.4838Z" fill="white"/>
<path d="M103.969 93.6009C104.743 93.6009 105.52 93.6203 106.294 93.6009C106.453 93.5873 106.613 93.6166 106.757 93.6859C106.901 93.7552 107.024 93.8619 107.113 93.995C107.45 94.3759 107.759 94.7807 108.038 95.2064C108.058 95.2332 108.072 95.2638 108.08 95.2963C108.088 95.3288 108.09 95.3625 108.085 95.3956C108.08 95.4287 108.068 95.4604 108.051 95.4889C108.033 95.5175 108.01 95.5422 107.983 95.5618C107.893 95.6181 107.818 95.6943 107.762 95.7847C107.708 95.9103 107.613 96.0135 107.492 96.0765C107.372 96.1395 107.233 96.1585 107.1 96.1303C105.925 95.9752 104.749 96.0657 103.568 96.0625C103.371 96.0765 103.175 96.0364 102.999 95.9465C102.824 95.8566 102.676 95.7202 102.572 95.5521C102.19 94.9997 101.744 94.499 101.333 93.9692C101.201 93.798 101.272 93.6461 101.474 93.6461C102.302 93.6461 103.131 93.6461 103.959 93.6461L103.969 93.6009Z" fill="white"/>
<path d="M17.3969 93.6335H19.7123C19.8118 93.6335 19.9274 93.6141 19.9981 93.7239C20.0687 93.8337 19.9981 93.9339 19.9499 94.0146C19.4521 94.6446 18.9512 95.268 18.4502 95.8915C18.3946 95.9496 18.3258 95.9935 18.2498 96.0193C18.1738 96.0452 18.0928 96.0523 18.0135 96.0401C17.4547 96.0401 16.8959 96.0401 16.3372 96.0401C15.6725 96.0061 15.0062 96.032 14.3461 96.1176C14.1332 96.1549 13.9141 96.1099 13.7328 95.9916C13.5337 95.8689 13.5016 95.5846 13.2896 95.4457C13.2479 95.4199 13.2639 95.2293 13.3121 95.1517C13.6436 94.6333 14.0337 94.1553 14.4746 93.7271C14.548 93.6687 14.6329 93.6266 14.7237 93.6038C14.8145 93.5809 14.9092 93.5778 15.0013 93.5947H17.3969V93.6335Z" fill="white"/>
<path d="M53.0649 92.5128H50.5857C50.4784 92.5148 50.371 92.5084 50.2646 92.4934C50.2311 92.4943 50.1978 92.4872 50.1675 92.4727C50.1372 92.4582 50.1108 92.4366 50.0905 92.4098C50.0701 92.383 50.0563 92.3517 50.0503 92.3185C50.0443 92.2853 50.0462 92.2511 50.0559 92.2188C50.1715 91.6955 50.2903 91.1722 50.4284 90.6553C50.5119 90.3323 50.5889 90.2806 50.939 90.2773C51.9762 90.2773 53.0167 90.2773 54.054 90.2773C54.6416 90.2773 55.2261 90.2773 55.8138 90.2773C56.1542 90.2773 56.2537 90.3936 56.2344 90.7135C56.2055 91.1948 56.167 91.6826 56.1253 92.1542C56.1028 92.4062 56.0225 92.4773 55.7752 92.4934C55.027 92.4934 54.282 92.4934 53.5273 92.4934H53.0488L53.0649 92.5128Z" fill="white"/>
<path d="M68.2574 92.5123H65.9324C65.7727 92.5156 65.6129 92.5091 65.4539 92.4929C65.3858 92.4904 65.3213 92.4614 65.2739 92.412C65.2266 92.3626 65.2002 92.2967 65.2003 92.2281C65.1714 91.666 65.1457 91.1039 65.1328 90.5385C65.1328 90.3867 65.2484 90.306 65.3961 90.2963C65.5439 90.2866 65.7173 90.2737 65.8778 90.2737H70.5246C70.6055 90.2708 70.6847 90.2972 70.7478 90.3482C70.8109 90.3993 70.8536 90.4714 70.8682 90.5515C71.0031 91.0716 71.1348 91.5917 71.2439 92.115C71.3018 92.396 71.2022 92.5026 70.9003 92.5059C70.0204 92.5059 69.1373 92.5059 68.2574 92.5059V92.5123Z" fill="white"/>
<path d="M94.3492 90.2256C95.1488 90.2256 95.9549 90.2256 96.7481 90.2256C96.8665 90.2194 96.9847 90.243 97.0918 90.2943C97.1989 90.3457 97.2916 90.4231 97.3614 90.5195C97.7917 91.0655 98.2477 91.5888 98.6909 92.1347C98.7433 92.1929 98.771 92.2695 98.768 92.348C98.7487 92.4869 98.6138 92.4642 98.5143 92.4642C97.7147 92.4642 96.9086 92.4642 96.1154 92.4642C95.2355 92.4642 94.3556 92.4642 93.4789 92.4642C93.373 92.4696 93.2675 92.4485 93.1717 92.4029C93.0758 92.3572 92.9927 92.2884 92.9298 92.2026C92.477 91.6373 92.021 91.0784 91.5682 90.5163C91.5449 90.4919 91.5298 90.4607 91.525 90.4272C91.5203 90.3937 91.5261 90.3595 91.5418 90.3295C91.5574 90.2995 91.582 90.2752 91.6121 90.26C91.6422 90.2449 91.6763 90.2396 91.7095 90.245H94.3492V90.2256Z" fill="white"/>
<path d="M22.5695 92.4642C22.5508 92.3962 22.5498 92.3245 22.5667 92.256C22.5835 92.1876 22.6177 92.1246 22.6658 92.0733C23.0961 91.5565 23.5361 91.0525 23.9503 90.5292C24.0309 90.4234 24.1367 90.3399 24.258 90.2862C24.3793 90.2326 24.512 90.2106 24.644 90.2223C26.2207 90.2223 27.8007 90.2223 29.3775 90.2385C29.4566 90.2335 29.536 90.2335 29.6151 90.2385C29.7692 90.2546 29.8206 90.3967 29.7179 90.5292C29.6151 90.6616 29.4481 90.8522 29.3164 91.0331C29.0146 91.4079 28.7095 91.7826 28.4109 92.1605C28.34 92.2575 28.2462 92.3352 28.138 92.3865C28.0298 92.4379 27.9105 92.4612 27.7911 92.4545C26.057 92.461 24.3228 92.4642 22.5695 92.4642Z" fill="white"/>
<path d="M29.3783 96.0434C28.5787 96.0434 27.7726 96.0434 26.9794 96.0434C26.946 96.0472 26.9122 96.0403 26.8828 96.0237C26.8534 96.0072 26.83 95.9817 26.8158 95.951C26.8016 95.9203 26.7973 95.8858 26.8036 95.8526C26.81 95.8193 26.8265 95.7888 26.851 95.7655C27.3744 95.1195 27.9043 94.4734 28.431 93.8435C28.4928 93.7727 28.5705 93.7177 28.6576 93.6829C28.7446 93.6481 28.8386 93.6345 28.9319 93.6432C29.465 93.6432 29.9981 93.6432 30.5376 93.6432H33.0167C33.1767 93.6442 33.3365 93.655 33.4952 93.6755C33.5278 93.6781 33.5591 93.6896 33.5859 93.7085C33.6126 93.7275 33.6338 93.7534 33.6473 93.7834C33.6607 93.8134 33.6659 93.8465 33.6623 93.8792C33.6588 93.912 33.6465 93.9431 33.6269 93.9694C33.5723 94.0599 33.5048 94.1471 33.4438 94.2343C33.1034 94.7124 32.7438 95.1841 32.4226 95.6751C32.3538 95.804 32.2491 95.91 32.1213 95.98C31.9936 96.05 31.8483 96.081 31.7033 96.0692C30.9326 96.0466 30.1586 96.0692 29.3847 96.0692L29.3783 96.0434Z" fill="white"/>
<path d="M94.6722 96.0043C94.4345 96.0301 94.3318 96.0495 94.2322 96.0495C92.7903 96.0495 91.342 96.0657 89.9098 96.0495C89.0588 96.0495 89.2675 96.1271 88.7987 95.4939C88.4775 95.0643 88.1725 94.6249 87.8642 94.1856C87.7743 94.0564 87.6105 93.9304 87.6747 93.7689C87.7678 93.546 87.9959 93.6397 88.1725 93.6397C89.5084 93.6397 90.8411 93.6397 92.1738 93.6397C92.3451 93.6262 92.517 93.6564 92.6736 93.7276C92.8303 93.7987 92.9665 93.9085 93.0697 94.0467C93.5771 94.6702 94.0781 95.2775 94.6722 96.0043Z" fill="white"/>
<path d="M38.9248 92.4769H36.2819C36.2487 92.4792 36.2155 92.4722 36.186 92.4566C36.1566 92.441 36.132 92.4175 36.115 92.3887C36.098 92.3599 36.0893 92.3269 36.0899 92.2935C36.0904 92.26 36.1002 92.2273 36.1181 92.1991C36.4745 91.6338 36.8374 91.0717 37.1971 90.5064C37.2572 90.4173 37.3405 90.3467 37.438 90.3022C37.5355 90.2577 37.6432 90.2412 37.7494 90.2544H40.068C40.8419 90.2544 41.6159 90.2544 42.3898 90.2544C42.7912 90.2544 42.8362 90.332 42.6692 90.6679C42.4155 91.1686 42.1457 91.6629 41.9049 92.17C41.87 92.2723 41.802 92.3598 41.7117 92.4184C41.6214 92.477 41.5141 92.5033 41.4071 92.4931C40.5786 92.4931 39.7501 92.4931 38.9248 92.4931V92.4769Z" fill="white"/>
<path d="M78.5078 90.3998C78.5827 90.3417 78.6686 90.2997 78.7603 90.2763C78.852 90.253 78.9475 90.2488 79.0409 90.2642C80.4796 90.2642 81.9311 90.2642 83.3601 90.2416C83.544 90.218 83.7306 90.2527 83.894 90.3406C84.0575 90.4286 84.1896 90.5656 84.2721 90.7326C84.5772 91.2882 84.9883 91.7825 85.2709 92.309C85.2131 92.5125 85.0846 92.4802 84.9915 92.4802C83.3376 92.4802 81.687 92.4802 80.0332 92.4802C79.9017 92.501 79.7671 92.477 79.6508 92.412C79.5344 92.347 79.443 92.2448 79.3909 92.1216C79.1244 91.5563 78.8033 90.9942 78.5078 90.3998Z" fill="white"/>
<path d="M20.1784 90.2383C21.0069 90.2383 21.8322 90.2383 22.6575 90.2383C22.8245 90.2383 22.9016 90.3805 22.8053 90.4968C22.3171 91.1009 21.8226 91.6953 21.3345 92.2961C21.2921 92.3478 21.2385 92.3889 21.1778 92.4163C21.1171 92.4438 21.051 92.4568 20.9844 92.4544H20.8271L16.1097 92.4156C16.0342 92.4149 15.9615 92.3874 15.9041 92.3381C15.811 92.2412 15.8817 92.1346 15.9491 92.0571C16.3794 91.5434 16.8162 91.0395 17.2336 90.5259C17.318 90.4231 17.4255 90.3423 17.5473 90.29C17.6691 90.2377 17.8016 90.2156 17.9337 90.2254C18.6884 90.248 19.4334 90.2383 20.1784 90.2383Z" fill="white"/>
<path d="M102.8 92.4612C102.052 92.4612 101.303 92.4612 100.552 92.4612C100.419 92.4715 100.287 92.4472 100.166 92.3906C100.046 92.334 99.9419 92.247 99.8647 92.1381C99.4376 91.5857 98.9816 91.0592 98.5385 90.5229C98.5088 90.4958 98.4885 90.4599 98.4805 90.4204C98.4724 90.381 98.4769 90.3399 98.4935 90.3032C98.5385 90.216 98.6219 90.2257 98.699 90.2257H102.469C102.576 90.2354 102.683 90.2354 102.79 90.2257C103.117 90.1531 103.459 90.1872 103.766 90.3232C104.072 90.4591 104.328 90.6897 104.495 90.9816C104.765 91.3822 105.112 91.7279 105.414 92.1026C105.459 92.165 105.481 92.2419 105.475 92.319C105.475 92.4224 105.363 92.4159 105.285 92.4159H102.797L102.8 92.4612Z" fill="white"/>
<path d="M87.5582 90.245C88.2518 90.245 88.9455 90.245 89.6391 90.245C89.7704 90.2335 89.9024 90.2573 90.0215 90.3141C90.1406 90.3709 90.2425 90.4585 90.3167 90.5681C90.6892 91.0914 91.0874 91.5953 91.4728 92.1122C91.5338 92.193 91.6205 92.2802 91.5434 92.3965C91.4664 92.5128 91.354 92.4708 91.2576 92.4708L87.0155 92.4934C86.8969 92.5057 86.7771 92.4858 86.6687 92.4358C86.5602 92.3858 86.4671 92.3076 86.3989 92.2091C86.0136 91.66 85.5993 91.1366 85.2043 90.5939C85.0502 90.3872 85.124 90.2709 85.397 90.2709C86.1163 90.2709 86.8357 90.2709 87.5582 90.2709V90.245Z" fill="white"/>
<path d="M29.6953 92.3188C30.1513 91.7083 30.6009 91.1107 31.0473 90.5098C31.1092 90.4233 31.1915 90.3535 31.2867 90.3067C31.382 90.2599 31.4873 90.2376 31.5932 90.2417C32.2066 90.2417 32.8199 90.2417 33.4301 90.2417C34.2843 90.2417 35.1353 90.2417 35.9991 90.2643C36.1597 90.2643 36.2432 90.4064 36.1565 90.5292C35.7165 91.1365 35.2702 91.7374 34.8238 92.3382C34.7694 92.3973 34.7015 92.4421 34.6259 92.4686C34.5503 92.4951 34.4694 92.5024 34.3903 92.49H32.9516H30.0614C29.9907 92.4973 29.9194 92.4852 29.855 92.455C29.7905 92.4249 29.7354 92.3779 29.6953 92.3188Z" fill="white"/>
<path d="M60.7036 89.0981H57.8969C57.7107 89.0981 57.5244 89.0981 57.3382 89.0723C57.3117 89.0704 57.2859 89.0629 57.2626 89.05C57.2393 89.0372 57.2191 89.0194 57.2033 88.998C57.1516 88.8748 57.125 88.7424 57.125 88.6087C57.125 88.475 57.1516 88.3426 57.2033 88.2194C57.2611 88.0385 57.4441 88.0321 57.6047 88.0224C57.7653 88.0127 57.9258 88.0224 58.0864 88.0224H63.292C63.4268 88.0224 63.5585 88.0224 63.6934 88.0224C64.0787 88.0514 64.1526 88.129 64.1686 88.5134C64.1911 89.0561 64.1686 89.0981 63.5938 89.1013C62.6304 89.1013 61.667 89.0981 60.7036 89.0981Z" fill="white"/>
<path d="M25.2344 89.1016C25.2912 88.8202 25.4505 88.5704 25.6811 88.4013C25.9116 88.2321 26.1967 88.1558 26.4804 88.1874C28.0025 88.2067 29.5247 88.1874 31.0437 88.168C31.2042 88.168 31.3648 88.168 31.5254 88.168C31.5452 88.168 31.5648 88.1733 31.5819 88.1834C31.5991 88.1935 31.6133 88.2079 31.6231 88.2253C31.6329 88.2427 31.6379 88.2625 31.6377 88.2825C31.6374 88.3025 31.6319 88.322 31.6217 88.3392C31.3262 88.7527 31.0372 89.1209 30.4174 89.1048C28.8696 89.0628 27.3217 89.0886 25.7739 89.0886L25.2344 89.1016Z" fill="white"/>
<path d="M96.0509 89.0722C95.7523 89.0722 95.4665 89.1077 95.1807 89.1077C93.7677 89.1077 92.3547 89.0851 90.9417 89.1077C90.7301 89.1257 90.5177 89.0845 90.3279 88.9888C90.138 88.893 89.9782 88.7464 89.8659 88.565C89.8049 88.4778 89.7086 88.3938 89.7471 88.2872C89.8017 88.1224 89.9623 88.1612 90.0875 88.1644C91.7125 88.1644 93.3406 88.1644 94.9655 88.187C95.6046 88.2 95.7491 88.3292 96.0509 89.0722Z" fill="white"/>
<path d="M90.9865 86.4039H93.7836C93.8885 86.3867 93.996 86.3945 94.0975 86.4264C94.1989 86.4584 94.2916 86.5137 94.3681 86.588C94.4901 86.7334 94.6667 86.911 94.6185 87.0726C94.5704 87.2341 94.2974 87.2341 94.1304 87.2308L90.8613 87.1856C90.2768 87.1635 89.6915 87.1721 89.1079 87.2115C88.9518 87.2375 88.7916 87.2193 88.6452 87.1588C88.4989 87.0983 88.3722 86.998 88.2794 86.869C88.1904 86.7666 88.1079 86.6587 88.0321 86.546C88.0196 86.5307 88.0115 86.5122 88.0088 86.4925C88.0061 86.4729 88.0089 86.4529 88.0169 86.4348C88.025 86.4166 88.0378 86.4011 88.0541 86.3899C88.0704 86.3788 88.0895 86.3724 88.1092 86.3716C88.2685 86.3618 88.4283 86.3618 88.5877 86.3716H90.9865V86.4039Z" fill="white"/>
<path d="M30.2947 86.3652H33.0885C33.156 86.3652 33.2651 86.3652 33.2716 86.4654C33.2752 86.5408 33.2525 86.6151 33.2073 86.6753C33.1023 86.8442 32.9544 86.9817 32.7788 87.0737C32.6032 87.1657 32.4063 87.2089 32.2086 87.1987C31.3351 87.1599 30.4552 87.1987 29.5818 87.1987C28.7854 87.1987 27.9761 87.2245 27.1958 87.231C27.0416 87.231 26.8457 87.2762 26.7622 87.1082C26.6787 86.9402 26.8329 86.7626 26.9292 86.614C26.9648 86.5591 27.012 86.513 27.0676 86.4789C27.1232 86.4448 27.1856 86.4236 27.2503 86.4169C27.4623 86.4008 27.6774 86.3911 27.8926 86.3911H30.285L30.2947 86.3652Z" fill="white"/>
<path d="M60.6975 87.1827H58.0578C57.9261 87.1827 57.7913 87.1827 57.6596 87.1827C57.5837 87.1792 57.51 87.1551 57.4466 87.113C57.3832 87.0708 57.3323 87.0122 57.2994 86.9433C57.2664 86.8743 57.2527 86.7977 57.2595 86.7216C57.2664 86.6454 57.2937 86.5725 57.3385 86.5107C57.3893 86.4509 57.4601 86.4119 57.5376 86.4009C57.6695 86.383 57.8027 86.3765 57.9358 86.3815H63.6134C63.9923 86.3815 64.0533 86.4558 64.0854 86.8596C64.1047 87.0696 64.0341 87.1827 63.8318 87.1827C63.1895 87.1827 62.5472 87.1827 61.905 87.1827H60.7039H60.6975Z" fill="white"/>
<path d="M56.2514 89.0366C56.0973 89.0366 55.9303 89.0786 55.7858 89.0786H51.5436C51.4377 89.0786 51.3317 89.0786 51.2225 89.0786C51.0266 89.0592 50.956 88.9655 50.9945 88.7555C51.0171 88.6241 51.0493 88.4946 51.0908 88.3679C51.1109 88.2746 51.1648 88.1922 51.242 88.1367C51.3191 88.0811 51.4141 88.0565 51.5083 88.0675C52.1698 88.1256 52.8346 88.0449 53.4993 88.0675C54.3215 88.1095 55.1457 88.0933 55.9656 88.019C56.3285 87.9706 56.4441 88.1224 56.3959 88.4939C56.3799 88.6005 56.3574 88.7071 56.3317 88.8169C56.306 88.9268 56.2868 88.9526 56.2514 89.0366Z" fill="white"/>
<path d="M70.3667 89.001C70.2222 89.1334 70.0456 89.0946 69.9043 89.0946H65.5883C65.4551 89.0958 65.322 89.0872 65.1901 89.0688C65.1371 89.0622 65.0879 89.0374 65.0511 88.9986C65.0142 88.9597 64.9918 88.9092 64.9878 88.8556C64.9668 88.723 64.9539 88.5892 64.9492 88.455C64.9492 88.0641 65.0199 87.9898 65.4116 88.0125C66.3413 88.0812 67.2739 88.0995 68.2055 88.0674C68.761 88.0415 69.3198 88.174 69.8754 88.0674C69.9437 88.0533 70.0149 88.0658 70.0744 88.1024C70.134 88.139 70.1776 88.1968 70.1965 88.2644C70.3028 88.4956 70.3608 88.7463 70.3667 89.001Z" fill="white"/>
<path d="M70.9854 88.1549C71.4792 88.0777 71.9798 88.0538 72.4786 88.0838C73.4902 88.0645 74.505 88.0839 75.5197 88.1C76.3097 88.1 76.4221 88.1872 76.6084 89.0271C76.4634 89.096 76.3012 89.1196 76.1427 89.095H71.74C71.1812 89.095 71.1812 89.095 71.0143 88.5684C70.955 88.4387 70.9448 88.2917 70.9854 88.1549Z" fill="white"/>
<path d="M47.4464 89.0885C46.6211 89.0885 45.7958 89.0885 44.9673 89.0885C44.9276 89.0933 44.8874 89.0868 44.8512 89.0699C44.815 89.0531 44.7841 89.0263 44.7621 88.9928C44.7402 88.9593 44.7279 88.9203 44.7267 88.8801C44.7255 88.84 44.7354 88.8003 44.7553 88.7655C44.7939 88.6653 44.8517 88.5749 44.8934 88.4747C44.9421 88.3477 45.032 88.2409 45.1486 88.1717C45.2652 88.1025 45.4016 88.075 45.5357 88.0935C46.4991 88.0935 47.4625 88.0935 48.4259 88.0935C48.9846 88.0935 49.5434 88.0935 50.1022 88.0935C50.3462 88.0935 50.4233 88.2163 50.3591 88.4586C50.3591 88.4844 50.343 88.5103 50.3366 88.5361C50.1793 89.0659 50.1632 89.0853 49.6269 89.0885H47.4657H47.4464Z" fill="white"/>
<path d="M38.25 89.0368C38.3388 88.7336 38.5075 88.4601 38.7381 88.2454C38.8216 88.1807 38.925 88.1475 39.0304 88.1517C39.268 88.1517 39.5088 88.1517 39.7497 88.1517C41.0556 88.1517 42.3637 88.1517 43.6739 88.1517C43.9308 88.1517 43.9951 88.2809 43.8762 88.52C43.8152 88.6395 43.7349 88.7493 43.6803 88.8689C43.6409 88.9545 43.5756 89.0253 43.4936 89.0711C43.4117 89.117 43.3174 89.1355 43.2243 89.1241L38.3399 89.0788C38.3206 89.0788 38.3014 89.053 38.25 89.0368Z" fill="white"/>
<path d="M83.0965 89.101H80.5274C79.7792 89.101 79.0309 89.0752 78.2795 89.101C78.1088 89.1259 77.9349 89.088 77.7897 88.9942C77.6446 88.9004 77.538 88.7571 77.4895 88.5906C77.4702 88.5389 77.4381 88.4969 77.4156 88.4485C77.3161 88.2417 77.3707 88.1254 77.573 88.1254C77.679 88.1254 77.7881 88.1254 77.8941 88.1254C79.1786 88.1254 80.4632 88.1707 81.7477 88.1254C82.4702 88.0673 82.846 88.3548 83.0965 89.101Z" fill="white"/>
<path d="M86.6481 89.1048C85.9513 89.1048 85.2576 89.1048 84.564 89.1048C84.4312 89.1195 84.2971 89.0945 84.1783 89.0331C84.0596 88.9716 83.9614 88.8764 83.896 88.7592C83.8029 88.6009 83.5942 88.4555 83.6616 88.2746C83.7547 88.0162 84.0309 88.1389 84.2236 88.1357C85.37 88.1357 86.5197 88.1357 87.6693 88.1357C88.4432 88.1357 88.4818 88.1357 88.9282 88.7818C88.9729 88.8434 88.9945 88.9189 88.9892 88.995C88.9635 89.1436 88.8254 89.1016 88.7323 89.1016C88.0354 89.1081 87.3418 89.1048 86.6481 89.1048Z" fill="white"/>
<path d="M32.2422 89.0691C32.3642 88.872 32.422 88.788 32.4702 88.6976C32.5806 88.4986 32.7483 88.3378 32.9512 88.2364C33.154 88.1349 33.3826 88.0975 33.607 88.129C34.7534 88.1613 35.9031 88.129 37.0495 88.129C37.2089 88.1209 37.3686 88.1209 37.528 88.129C37.5548 88.1283 37.5813 88.1346 37.605 88.1473C37.6286 88.16 37.6486 88.1787 37.6628 88.2015C37.6771 88.2243 37.6852 88.2505 37.6864 88.2775C37.6875 88.3044 37.6816 88.3312 37.6693 88.3552C37.4606 88.7719 37.239 89.1078 36.6577 89.0885C35.3251 89.0465 33.9924 89.0885 32.6564 89.0885C32.5441 89.1014 32.4413 89.0852 32.2422 89.0691Z" fill="white"/>
<path d="M100.833 87.1629C100.685 87.3179 100.486 87.2662 100.31 87.2662C99.0057 87.2662 97.702 87.2404 96.3982 87.2662C96.1729 87.2751 95.9496 87.2221 95.7521 87.1128C95.5546 87.0035 95.3905 86.8421 95.2774 86.646C95.2671 86.6238 95.2617 86.5995 95.2617 86.5749C95.2617 86.5504 95.2671 86.5261 95.2774 86.5039C95.2905 86.4824 95.3083 86.4643 95.3295 86.4509C95.3506 86.4374 95.3746 86.429 95.3994 86.4264C95.849 86.4264 96.3018 86.4263 96.7546 86.4619C97.6826 86.519 98.6136 86.5017 99.5388 86.4102C99.7453 86.3599 99.9624 86.3768 100.159 86.4587C100.355 86.5406 100.52 86.6831 100.631 86.8657C100.688 86.9658 100.865 86.9884 100.833 87.1629Z" fill="white"/>
<path d="M20.457 87.1402C20.6217 86.8579 20.8739 86.6377 21.175 86.5134C21.476 86.3891 21.8093 86.3676 22.1237 86.4522C22.8976 86.5878 23.7294 86.478 24.5129 86.4522C24.9111 86.4522 25.3093 86.4231 25.7075 86.4134C25.8328 86.4134 26.003 86.3617 26.0479 86.5265C26.0929 86.6912 25.942 86.7526 25.8649 86.8495C25.7698 86.9787 25.6443 87.082 25.4997 87.1502C25.3551 87.2185 25.1959 87.2494 25.0364 87.2404C23.6266 87.2404 22.2168 87.2404 20.8071 87.2404C20.6786 87.2598 20.5373 87.2856 20.457 87.1402Z" fill="white"/>
<path d="M96.875 88.3517C96.9456 88.2419 97.0581 88.2645 97.1544 88.2678L101.557 88.2904C101.663 88.2732 101.771 88.2828 101.872 88.3184C101.973 88.3539 102.063 88.4142 102.135 88.4939C102.254 88.6522 102.559 88.7491 102.427 88.9946C102.334 89.1658 102.084 89.0527 101.907 89.056C100.576 89.071 99.2418 89.0829 97.9058 89.0915C97.2507 89.0947 97.2122 89.0657 96.875 88.3517Z" fill="white"/>
<path d="M21.9926 88.2647H24.1474C24.2469 88.2647 24.3786 88.2389 24.4299 88.339C24.4813 88.4392 24.3882 88.591 24.3079 88.6879C24.2327 88.8125 24.1273 88.9159 24.0014 88.9882C23.8756 89.0606 23.7335 89.0995 23.5886 89.1014C22.1017 89.0659 20.6117 89.0691 19.1216 89.0562C19.051 89.0562 18.9643 89.0562 18.9257 88.9592C18.9129 88.9222 18.9106 88.8824 18.9191 88.8441C18.9276 88.8059 18.9466 88.7708 18.9739 88.7428C19.0752 88.5865 19.2169 88.461 19.3838 88.3796C19.5507 88.2982 19.7365 88.2641 19.9213 88.2809C20.6085 88.3164 21.3021 88.2809 21.9926 88.2809V88.2647Z" fill="white"/>
<path d="M48.5172 86.3654C49.2622 86.3654 50.0073 86.3654 50.7651 86.3654C51.0124 86.3654 51.0863 86.501 51.0092 86.7336C50.9321 86.9662 50.8358 87.1827 50.5275 87.1794L46.0477 87.1633C45.9684 87.1606 45.8902 87.1442 45.8165 87.1148C45.7952 87.1028 45.7769 87.0861 45.763 87.066C45.7491 87.0458 45.7399 87.0228 45.7362 86.9985C45.7294 86.9119 45.7414 86.8249 45.7713 86.7434C45.8012 86.662 45.8483 86.588 45.9093 86.5266C45.9704 86.4652 46.0439 86.4178 46.1249 86.3877C46.2059 86.3577 46.2924 86.3456 46.3785 86.3524C47.0946 86.3524 47.8139 86.3524 48.5301 86.3524L48.5172 86.3654Z" fill="white"/>
<path d="M73.0446 87.1791C72.2995 87.1791 71.5577 87.1791 70.8127 87.1791C70.7356 87.1696 70.6611 87.1447 70.5936 87.106C70.526 87.0673 70.4668 87.0155 70.4193 86.9536C70.3718 86.8917 70.337 86.8209 70.3169 86.7454C70.2968 86.6699 70.2918 86.5911 70.3021 86.5136C70.3067 86.4897 70.317 86.4672 70.3321 86.4481C70.3472 86.4289 70.3666 86.4138 70.3888 86.4038C70.4937 86.3764 70.6016 86.3623 70.7099 86.3618C72.1165 86.3618 73.5263 86.3618 74.936 86.3618C75.3439 86.3618 75.4242 86.4329 75.5622 86.8302C75.6297 87.0208 75.5622 87.1533 75.3631 87.1533C74.5924 87.1533 73.8217 87.1533 73.051 87.1533L73.0446 87.1791Z" fill="white"/>
<path d="M39.668 87.1146C39.668 86.8335 39.835 86.7172 39.9409 86.5686C39.9967 86.493 40.0709 86.433 40.1564 86.3946C40.2419 86.3561 40.3358 86.3404 40.4291 86.349H44.8382C45.0373 86.349 45.0983 86.4911 44.9923 86.672C44.8446 86.9304 44.7001 87.1662 44.3308 87.1598C42.8343 87.1436 41.3379 87.1598 39.835 87.1436C39.7785 87.1392 39.7226 87.1294 39.668 87.1146Z" fill="white"/>
<path d="M76.2344 86.3493H79.8953C80.1615 86.3671 80.4286 86.3671 80.6949 86.3493C80.881 86.3228 81.0706 86.3587 81.2343 86.4516C81.398 86.5445 81.5267 86.689 81.6005 86.863C81.7 87.0342 81.6262 87.1666 81.411 87.1699C80.8747 87.1699 80.3416 87.1699 79.8054 87.1699C78.9511 87.1699 78.0937 87.1472 77.2363 87.1892C76.6872 87.2151 76.3949 86.9889 76.2344 86.3493Z" fill="white"/>
<path d="M67.2794 87.1826C66.5889 87.1826 65.8953 87.1826 65.2016 87.1826C64.8612 87.1826 64.7809 87.1083 64.7103 86.7853C64.6396 86.4622 64.7296 86.375 65.0314 86.375C66.4465 86.375 67.8606 86.375 69.2736 86.375C69.5305 86.375 69.842 86.866 69.7328 87.076C69.7197 87.098 69.702 87.117 69.6809 87.1315C69.6599 87.146 69.6359 87.1557 69.6108 87.16C69.4799 87.1784 69.3479 87.187 69.2158 87.1858H67.289L67.2794 87.1826Z" fill="white"/>
<path d="M53.9971 87.1791C53.2778 87.1791 52.5585 87.1791 51.8359 87.1791C51.5822 87.1791 51.5148 87.0628 51.6143 86.8109C51.7685 86.3974 51.7909 86.3715 52.2566 86.3683C53.5625 86.3683 54.8695 86.3683 56.1776 86.3683C56.2582 86.3672 56.3387 86.3726 56.4185 86.3845C56.4716 86.3877 56.5214 86.4113 56.5578 86.4503C56.5942 86.4894 56.6145 86.5409 56.6144 86.5944C56.6144 87.0273 56.5469 87.1953 56.0813 87.1856C55.3876 87.1856 54.694 87.1856 54.0003 87.1856L53.9971 87.1791Z" fill="white"/>
<path d="M85.1207 87.1762C84.427 87.1762 83.7334 87.1762 83.0397 87.1762C82.8587 87.1439 82.689 87.065 82.5472 86.9473C82.4054 86.8296 82.2963 86.6769 82.2305 86.5042C82.2305 86.4687 82.269 86.4073 82.3043 86.3847C82.3525 86.3624 82.4055 86.3524 82.4585 86.3556C83.8201 86.3556 85.1817 86.375 86.5433 86.3556C86.729 86.3461 86.9129 86.396 87.0687 86.4981C87.2245 86.6003 87.3441 86.7494 87.4103 86.9242C87.4231 86.9471 87.4298 86.9729 87.4297 86.9991C87.4296 87.0253 87.4227 87.0511 87.4098 87.0738C87.3968 87.0966 87.3783 87.1156 87.3558 87.129C87.3334 87.1424 87.3079 87.1498 87.2819 87.1503C86.9897 87.1503 86.6942 87.1762 86.402 87.1762C85.9749 87.1762 85.5478 87.1762 85.1175 87.1762H85.1207Z" fill="white"/>
<path d="M36.1514 87.1631C35.4578 87.1631 34.7642 87.1631 34.0705 87.1631C33.8971 87.1631 33.8329 87.0404 33.9132 86.9047C33.9911 86.7337 34.118 86.5901 34.2776 86.4922C34.4373 86.3944 34.6224 86.3468 34.8091 86.3555C36.1707 86.3717 37.5323 86.3555 38.8907 86.3555C38.9613 86.3555 39.0641 86.3555 39.0705 86.4653C39.0767 86.5163 39.0677 86.568 39.0448 86.6139C38.9473 86.8047 38.795 86.9615 38.6078 87.064C38.4205 87.1666 38.2069 87.2101 37.9947 87.189C37.3846 87.147 36.7712 87.189 36.1579 87.189L36.1514 87.1631Z" fill="white"/>
<g style="mix-blend-mode:multiply" opacity="0.4">
<path d="M100.935 84.7082C101.445 84.5434 101.85 84.6242 102.219 84.5596C102.434 84.7082 102.63 84.8406 102.823 84.9795C102.884 85.0247 102.984 85.0764 102.993 85.1378C103.083 85.7031 103.581 85.9454 103.912 86.3169C105.392 87.9773 106.898 89.6216 108.385 91.2755C109.284 92.2737 110.164 93.2849 111.06 94.283C111.506 94.7805 111.972 95.2522 112.422 95.7593C112.659 96.0065 112.874 96.2747 113.064 96.5605C113.277 96.9208 113.357 97.3452 113.289 97.7588C113.222 98.1725 113.011 98.5489 112.695 98.8217C112.319 99.1276 111.871 99.3312 111.394 99.4129C110.759 99.535 110.114 99.5934 109.467 99.5874C107.569 99.5454 105.668 99.5421 103.77 99.5292C98.4459 99.4904 93.1248 99.4388 87.8004 99.4258C76.002 99.4 64.2047 99.386 52.4084 99.3838C42.0808 99.3838 31.7543 99.414 21.4288 99.4743C18.4873 99.4743 15.5457 99.5421 12.6041 99.5615C11.8366 99.5615 11.0691 99.5098 10.3048 99.4678C9.98018 99.4652 9.66456 99.3601 9.40243 99.1674C9.2365 99.0292 9.04871 98.92 8.84688 98.8444C8.17571 98.6118 7.99267 98.0658 7.97661 97.4488C7.97449 97.154 8.04511 96.8632 8.18213 96.6025C8.4279 96.2093 8.69595 95.8308 8.98496 95.4686C9.07091 95.5377 9.15045 95.6144 9.2226 95.698C9.64139 96.2607 10.2274 96.6748 10.8957 96.8803C12.5643 97.4734 14.3296 97.743 16.098 97.675C17.6748 97.6427 19.2483 97.5554 20.8251 97.5328C22.2413 97.5134 23.6575 97.5522 25.0705 97.5651H27.3184C28.7892 97.5651 30.2567 97.5974 31.7275 97.5877C32.9029 97.5877 34.0782 97.5167 35.26 97.5005C37.4501 97.4725 39.6413 97.4531 41.8336 97.4424C44.5332 97.4294 47.2318 97.4219 49.9293 97.4198C53.1406 97.4198 56.3519 97.4424 59.5633 97.4391C64.4295 97.4391 69.2957 97.4241 74.1619 97.3939C75.9795 97.3939 77.7971 97.3519 79.6212 97.3616C83.4426 97.3778 87.2609 97.3971 91.0824 97.4424C95.3052 97.4973 99.5281 97.5813 103.751 97.6556C104.448 97.6556 105.142 97.704 105.835 97.7266C107.146 97.7726 108.457 97.6838 109.75 97.4617C110.159 97.4277 110.551 97.2788 110.88 97.0321C110.774 96.8835 110.691 96.7478 110.591 96.6283C109.669 95.5106 108.757 94.3864 107.823 93.2784C106.731 91.9862 105.598 90.7328 104.522 89.4278C103.533 88.2293 102.595 86.9888 101.632 85.7548C101.4 85.4835 101.204 85.1249 100.935 84.7082Z" fill="#458696"/>
</g>
<g style="mix-blend-mode:screen">
<path d="M10.9591 95.1421C10.8949 95.0323 10.7761 94.9225 10.7857 94.8191C10.8076 94.661 10.8707 94.5117 10.9688 94.3862C11.5018 93.6464 12.0317 92.9002 12.5969 92.1863C13.4318 91.1397 14.2957 90.1124 15.1659 89.0819C16.2325 87.8056 17.3644 86.5861 18.5571 85.4283C18.7664 85.218 19.0427 85.0887 19.3375 85.0633C19.559 85.0439 19.7838 85.2474 19.7292 85.4606C19.6758 85.6929 19.5777 85.9124 19.4402 86.1067C18.9714 86.6946 18.4768 87.2632 17.9855 87.8285C16.8358 89.1207 15.683 90.4451 14.5205 91.7405C13.7155 92.6386 12.8988 93.5269 12.0702 94.4056C11.8376 94.6266 11.5862 94.8265 11.3188 95.0032C11.2047 95.0634 11.084 95.11 10.9591 95.1421Z" fill="white"/>
</g>
<path d="M109.222 11.0616C109.218 9.83037 109.111 8.60169 108.901 7.38865C108.754 6.3459 108.371 5.35115 107.781 4.48129C107.194 3.55408 106.422 2.75981 105.513 2.14895C104.054 1.18863 102.351 0.669563 100.606 0.653273C100.368 0.684133 100.126 0.684133 99.8871 0.653273C99.1228 0.430376 98.3456 0.54021 97.5749 0.517597C97.2826 0.485433 96.9871 0.497408 96.6982 0.55313C96.3102 0.657781 95.9075 0.696005 95.5068 0.666195C94.7297 0.633891 93.9782 0.898782 93.2011 0.856787C92.7395 0.996762 92.2548 1.04288 91.7753 0.992463H63.3583C63.0656 0.965622 62.7705 0.979756 62.4816 1.03446C62.0921 1.13011 61.6906 1.16713 61.2902 1.14429C58.0532 1.14429 54.8151 1.14429 51.576 1.14429C51.31 1.11963 51.0419 1.13268 50.7796 1.18306C50.3598 1.28744 49.9265 1.32558 49.495 1.29612C45.9112 1.29612 42.3263 1.29612 38.7403 1.29612C38.4745 1.27031 38.2064 1.28227 37.9439 1.33166C37.5017 1.43873 37.046 1.47901 36.592 1.45118H33.3004C33.086 1.42781 32.8694 1.43761 32.6581 1.48025C32.1902 1.59069 31.7091 1.63419 31.2291 1.60947C30.4037 1.63854 29.572 1.51902 28.7563 1.75484C28.5975 1.77601 28.4367 1.77601 28.2779 1.75484C27.7705 1.75484 27.2599 1.75484 26.7525 1.75484C26.5367 1.74199 26.3202 1.76159 26.1102 1.81298C25.7962 1.89641 25.4709 1.92805 25.1468 1.90667H21.1327C20.9186 1.8829 20.7023 1.89052 20.4904 1.92928C19.8481 2.12956 19.2059 2.04557 18.5636 2.06819C18.3495 2.05003 18.134 2.05654 17.9213 2.08757C17.1153 2.30077 16.2771 2.19417 15.4711 2.39122C14.8683 2.49302 14.2712 2.62673 13.6824 2.79179C12.3671 3.24245 11.1265 3.88928 10.0022 4.71065C9.67345 4.99002 9.39247 5.32178 9.1705 5.69269C8.83188 6.17777 8.55161 6.70152 8.33555 7.25297C7.9165 8.15632 7.70887 9.14428 7.72861 10.1409C7.75762 10.5438 7.72074 10.9486 7.61943 11.3394C7.51227 11.7316 7.51227 12.1457 7.61943 12.5379C7.70172 12.8539 7.7353 13.1808 7.71898 13.507C7.71898 14.2048 7.71898 14.9058 7.71898 15.6068C7.69921 15.7934 7.70896 15.982 7.74788 16.1656C7.86659 16.6084 7.90788 17.0686 7.86991 17.5256C7.86991 18.4657 7.86991 19.4089 7.86991 20.349C7.84668 20.5646 7.85643 20.7825 7.89881 20.9951C8.01604 21.4656 8.05725 21.9521 8.02084 22.4358C8.02084 23.4308 8.02084 24.4257 8.02084 25.4207C8.00005 25.6083 8.00872 25.7979 8.04653 25.9828C8.17283 26.5057 8.21511 27.0455 8.17178 27.5818C8.17178 28.5251 8.17178 29.4684 8.17178 30.4084C8.14998 30.5958 8.15757 30.7855 8.19426 30.9705C8.32338 31.5204 8.36671 32.0871 8.32271 32.6503C8.32271 33.5128 8.32271 34.3754 8.32271 35.2346C8.30048 35.4504 8.31131 35.6683 8.35482 35.8807C8.4693 36.3232 8.50946 36.7817 8.47364 37.2375C8.47364 38.1808 8.47364 39.1208 8.47364 40.0641C8.45041 40.2797 8.46015 40.4976 8.50254 40.7102C8.61921 41.1797 8.66148 41.6649 8.62778 42.1477C8.62778 43.0361 8.62778 43.9244 8.62778 44.8128C8.6071 45.0003 8.61577 45.19 8.65347 45.3749C8.77993 45.8977 8.82221 46.4376 8.77872 46.9739C8.77872 47.8073 8.77872 48.644 8.77872 49.4775C8.77364 49.7718 8.80383 50.0658 8.86863 50.3529C8.98589 50.8521 8.98589 51.372 8.86863 51.8712C8.82135 52.0835 8.7934 52.2998 8.78514 52.5173C8.68238 53.8353 8.94249 55.1403 8.97461 56.4551C8.97461 56.8686 9.10306 57.295 9.1159 57.7279C9.13763 57.8867 9.17973 58.0419 9.24115 58.1898C9.37923 58.6259 9.53338 59.0556 9.65862 59.482C9.83849 60.0164 10.1223 60.5095 10.4936 60.9324C11.0009 61.5785 11.5051 62.2246 12.2726 62.5476C13.4005 63.0384 14.6119 63.3061 15.8404 63.3358C17.8218 63.3617 19.8 63.3358 21.7814 63.3358C22.0205 63.3116 22.2619 63.3236 22.4975 63.3714C22.9165 63.4804 23.3504 63.5197 23.782 63.4877C27.687 63.4877 31.593 63.4877 35.5001 63.4877C35.7669 63.4604 36.0363 63.4723 36.2997 63.5232C36.7411 63.6291 37.1957 63.6683 37.6485 63.6395H52.4206C52.6868 63.6169 52.9549 63.6321 53.217 63.6847C53.5799 63.7762 53.9545 63.8122 54.3281 63.7913H65.2466C65.5125 63.7666 65.7806 63.7796 66.043 63.8301C66.4318 63.93 66.8338 63.9681 67.2344 63.9432H73.657C73.9237 63.9271 74.1914 63.9455 74.4534 63.9981C74.7683 64.0763 75.0927 64.109 75.4168 64.095H82.3212C82.5867 64.0745 82.8537 64.0919 83.1143 64.1467C83.4525 64.2295 83.8007 64.2632 84.1484 64.2468H90.8922C91.1327 64.2265 91.3749 64.2406 91.6115 64.2888C91.9461 64.3798 92.293 64.4169 92.6391 64.3987H100.989C101.655 64.4197 102.322 64.3644 102.976 64.2339C104.624 63.8559 106.127 63.2066 107.283 61.9209C108.122 61.0368 108.595 59.8644 108.606 58.6421C108.606 56.4357 108.606 54.2294 108.606 52.023C108.581 51.7813 108.594 51.5371 108.644 51.2994C108.747 50.9099 108.785 50.5061 108.757 50.1042C108.757 48.0044 108.757 45.9046 108.757 43.8049C108.739 43.5364 108.758 43.2668 108.815 43.0037C108.891 42.6868 108.923 42.3605 108.908 42.0346C108.908 39.9887 108.908 37.9428 108.908 35.8969C108.887 35.6287 108.905 35.359 108.959 35.0957C109.042 34.7567 109.075 34.4074 109.059 34.0588C109.059 31.0179 109.059 27.977 109.059 24.9361C109.037 24.6682 109.053 24.3985 109.107 24.135C109.198 23.7699 109.233 23.3931 109.213 23.0173C109.213 20.8637 109.213 18.7101 109.213 16.5565C109.216 14.7766 109.203 12.9191 109.222 11.0616Z" fill="#8AB0BA"/>
<path d="M102.907 19.0213C102.933 17.4675 103.013 15.9105 102.942 14.3534C102.915 13.2273 102.745 12.1093 102.438 11.0261C102.029 9.76589 101.234 8.668 100.168 7.88941C99.2666 7.20843 98.2235 6.7423 97.117 6.52619C95.46 6.18053 93.774 6.27745 92.0945 6.24837C91.9623 6.25641 91.8311 6.27697 91.7027 6.30975C91.6331 6.22648 91.538 6.16867 91.4323 6.14531C91.3266 6.12195 91.2162 6.13433 91.1183 6.18053C90.7343 6.28981 90.3351 6.33563 89.9365 6.31621C89.7576 6.29757 89.577 6.30519 89.4002 6.33882C88.8575 6.47241 88.297 6.51821 87.74 6.4745L84.5543 6.5165C83.8607 6.5165 83.1638 6.5165 82.4702 6.5165C82.1769 6.49769 81.8831 6.54401 81.6096 6.65217C81.3816 6.37113 81.0636 6.48419 80.7842 6.48419C71.9595 6.48419 63.1348 6.48419 54.3101 6.48419C54.0955 6.46088 53.8786 6.47288 53.6679 6.51972C53.2796 6.62313 52.8771 6.66133 52.4765 6.63279H37.9549C37.6891 6.60546 37.4208 6.61743 37.1585 6.66832C36.7171 6.77396 36.2627 6.81423 35.8097 6.78785C35.0069 6.78785 34.2041 6.78785 33.4012 6.78785C33.1617 6.7795 32.9221 6.8023 32.6883 6.85569C32.4038 6.92634 32.1108 6.95572 31.818 6.94291H26.924C26.6836 6.91982 26.4412 6.93288 26.2047 6.98167C25.8171 7.08292 25.4161 7.12216 25.0165 7.09797C24.4813 7.05851 23.9435 7.07149 23.4108 7.13673C22.5694 7.32409 21.712 7.21426 20.8739 7.40485C20.3601 7.52115 19.8238 7.56637 19.3164 7.72789C18.3936 7.99867 17.5096 8.38848 16.6863 8.8876C15.4416 9.64622 14.5345 10.8571 14.1526 12.2698C14.0209 12.7382 14.0402 13.2389 13.931 13.6912C13.7846 14.3766 13.7694 15.0837 13.886 15.7748C13.9574 16.2777 13.9939 16.7851 13.9952 17.2931C13.9952 18.3171 13.9952 19.3379 13.9952 20.3587C13.975 20.5462 13.9826 20.7356 14.0177 20.9208C14.1435 21.4438 14.1868 21.9834 14.1462 22.5199C14.1462 23.6763 14.1462 24.8328 14.1462 25.9893C14.1249 26.1766 14.1314 26.366 14.1654 26.5514C14.3003 27.1278 14.3447 27.7218 14.2971 28.312C14.2971 29.3618 14.2971 30.4117 14.2971 31.4584C14.2738 31.674 14.2836 31.8918 14.326 32.1045C14.4432 32.5739 14.4844 33.0593 14.448 33.542C14.448 34.6726 14.448 35.8033 14.448 36.9307C14.4254 37.1461 14.434 37.3638 14.4737 37.5767C14.5952 38.073 14.6375 38.5854 14.5989 39.095C14.5989 40.1707 14.5989 41.2465 14.5989 42.3254C14.5856 42.5671 14.605 42.8094 14.6568 43.0458C14.7368 43.3622 14.7682 43.689 14.7499 44.0149C14.7499 46.1965 14.7499 48.3759 14.7499 50.5532C14.7499 50.7664 14.7499 50.9829 14.7499 51.1993C14.7494 51.2803 14.771 51.3599 14.8123 51.4293C14.8536 51.4988 14.9131 51.5556 14.9843 51.5934C14.9426 51.6645 14.8655 51.7323 14.8687 51.8002C14.8268 52.3058 14.888 52.8148 15.0485 53.2958C15.1511 54.1887 15.4625 55.0445 15.9573 55.7929C16.1083 56.0417 16.2335 56.3098 16.5579 56.3744C16.6285 56.7362 16.9272 56.8848 17.2001 57.0496C17.681 57.3316 18.2052 57.5314 18.7512 57.6407C19.6834 57.8833 20.6431 58.0028 21.606 57.9961C22.2997 57.9767 22.9933 57.9799 23.687 57.9961C25.4789 58.0316 27.2676 58.093 29.0563 58.1156C35.0144 58.2039 40.9714 58.2825 46.9273 58.3514C47.4347 58.3514 47.9453 58.3772 48.4527 58.374C48.6903 58.374 48.928 58.3417 49.1656 58.3256C50.0937 58.3611 51.0282 58.2254 51.9466 58.4709C52.0787 58.4888 52.2127 58.4888 52.3448 58.4709H56.4264C56.3821 58.425 56.3434 58.374 56.3108 58.3191C56.3434 58.374 56.3821 58.425 56.4264 58.4709L56.5934 58.4289C56.9145 58.4451 57.2356 58.4742 57.5568 58.4774H62.9325C63.172 58.4553 63.4134 58.4695 63.6486 58.5194C64.011 58.6146 64.3858 58.6527 64.7598 58.6325C66.4425 58.6325 68.1284 58.6325 69.8144 58.6325C70.0803 58.6185 70.3469 58.6391 70.6076 58.6938C70.9228 58.7697 71.2472 58.8002 71.571 58.7843C73.3886 58.7843 75.2062 58.7843 77.0302 58.7843C77.2441 58.7592 77.4605 58.7657 77.6725 58.8037C78.2724 58.9409 78.8896 58.9855 79.5029 58.9361C81.054 58.9361 82.6051 58.9361 84.1561 58.9361C84.3704 58.9127 84.587 58.9225 84.7984 58.9652C85.2651 59.0831 85.7476 59.1245 86.2274 59.0879C87.5922 59.0879 88.9571 59.0879 90.3187 59.0879C91.1183 59.0879 91.9243 58.991 92.7111 59.2268C92.8172 59.2467 92.9261 59.2467 93.0322 59.2268C94.23 59.1752 95.4247 59.2947 96.6289 59.1009C97.6027 58.9582 98.5518 58.6787 99.4484 58.2707C100.083 57.9786 100.645 57.5496 101.096 57.014C101.767 56.2193 102.229 55.3439 102.201 54.2456C102.165 52.821 102.201 51.3931 102.201 49.9685C102.176 49.7534 102.182 49.5357 102.22 49.3225C102.416 48.6764 102.345 48.0303 102.351 47.4004C102.351 46.1373 102.351 44.871 102.351 43.6079C102.328 43.3923 102.338 43.1744 102.38 42.9618C102.501 42.4654 102.542 41.9529 102.502 41.4435C102.502 40.1514 102.502 38.8592 102.502 37.567C102.481 37.3511 102.493 37.1332 102.538 36.921C102.639 36.5301 102.679 36.1258 102.657 35.7225C102.734 33.3611 102.525 30.9964 102.798 28.6382C102.842 27.859 102.834 27.0775 102.772 26.2994C102.83 25.6534 102.885 25.0363 102.942 24.4032C102.942 23.3016 102.965 22.2001 102.968 21.0985C102.951 20.9942 102.918 20.893 102.872 20.7981C102.865 20.2554 102.888 19.6384 102.907 19.0213Z" fill="#BDFFF5"/>
<path d="M49.1543 58.322C48.9166 58.3382 48.679 58.3705 48.4414 58.3705C47.934 58.3705 47.4234 58.3705 46.916 58.3479C40.9601 58.2703 35.0031 58.1917 29.045 58.112C27.2563 58.0894 25.4676 58.0281 23.6757 57.9925C22.982 57.9925 22.2884 57.9925 21.5947 57.9925C20.6318 57.9992 19.6721 57.8798 18.7399 57.6372C18.2189 57.5235 17.7192 57.3272 17.2595 57.0557C16.9897 56.891 16.691 56.7327 16.6172 56.3806C17.8439 55.4825 19.0578 54.5651 20.3006 53.6896C22.054 52.4621 23.8191 51.2539 25.596 50.0651C27.844 48.563 30.0919 47.09 32.3398 45.6072C33.9048 44.5735 35.4676 43.5419 37.0283 42.5125L44.6713 37.4795C46.7008 36.14 48.7282 34.7951 50.7535 33.4448L58.5153 28.302C61.0843 26.6093 63.6534 24.9187 66.2224 23.2303L75.4582 17.1184L81.8198 12.9188C84.299 11.2843 86.7877 9.65615 89.2637 8.01511C90.0826 7.4724 90.8693 6.89739 91.6946 6.3353C91.823 6.30252 91.9542 6.28197 92.0864 6.27393C93.7659 6.303 95.4519 6.20609 97.1089 6.55174C98.2153 6.76785 99.2585 7.23399 100.16 7.91496C101.226 8.69355 102.021 9.79144 102.43 11.0517C102.737 12.1349 102.907 13.2529 102.934 14.379C103.005 15.936 102.934 17.4931 102.899 19.0469C102.899 19.6639 102.857 20.2809 102.835 20.8979L100.786 22.3161C99.1995 23.4112 97.6067 24.4998 96.0267 25.6046C94.3343 26.7837 92.658 27.9822 90.9657 29.158C89.4017 30.2434 87.7961 31.3192 86.2193 32.4207C85.2559 33.0927 84.2925 33.7872 83.3291 34.4656C81.7299 35.5854 80.1242 36.7042 78.5122 37.822C77.3497 38.6296 76.1583 39.3984 75.015 40.2351C74.5205 40.5969 74.0163 40.9425 73.5121 41.2914C72.4331 42.0376 71.3766 42.8129 70.3008 43.5527C69.6586 44.0114 68.9617 44.4346 68.3066 44.8933C66.9707 45.8333 65.6508 46.7895 64.3149 47.7296C62.979 48.6696 61.7202 49.5321 60.4228 50.4366C58.9092 51.4897 57.3956 52.5461 55.882 53.6057C55.0952 54.1548 54.3181 54.7201 53.5313 55.2693C52.7837 55.8356 52.0077 56.3629 51.2063 56.849C50.5062 57.2398 49.9571 57.8439 49.2314 58.1831C49.2089 58.2154 49.1864 58.28 49.1543 58.322Z" fill="white"/>
<path d="M84.5393 6.51648C84.3857 6.7378 84.1821 6.91935 83.9452 7.04626C81.1621 8.91989 78.3854 10.7892 75.6151 12.6542C73.5727 14.0271 71.5206 15.3904 69.4814 16.7665C67.2175 18.2913 64.9631 19.8322 62.7024 21.3634C60.1526 23.0863 57.6017 24.8091 55.0498 26.532C52.8308 28.0277 50.5989 29.504 48.3799 30.9996C46.2732 32.4178 44.1827 33.8585 42.0793 35.2799C41.1159 35.926 40.1139 36.5721 39.1377 37.2182C37.9848 37.9902 36.8609 38.8107 35.6855 39.544C34.7221 40.1352 33.8519 40.82 32.9174 41.4338C31.9829 42.0476 31.0965 42.6581 30.1845 43.2719L25.602 46.3602C24.3592 47.1936 23.11 48.0238 21.8672 48.8605C20.2969 49.9168 18.7362 50.9958 17.1498 52.0295C16.5132 52.5117 15.83 52.9284 15.1106 53.2732C14.9501 52.7922 14.8889 52.2832 14.9308 51.7775C14.9308 51.7097 15.0046 51.6419 15.0464 51.5708C15.7845 51.1522 16.4956 50.6872 17.1755 50.1785C18.1389 49.5486 19.0798 48.8863 20.0368 48.2596C20.4382 47.9948 20.8171 47.6976 21.2217 47.4359C22.5063 46.6089 23.7298 45.7335 24.9854 44.8806C25.4478 44.5576 25.9199 44.2572 26.3855 43.9438C28.2898 42.6517 30.1909 41.3595 32.0985 40.0674C32.6733 39.6797 33.2545 39.2888 33.8615 38.9593C34.1569 38.801 34.34 38.5426 34.6097 38.3682C35.9103 37.5315 37.1788 36.6658 38.4633 35.7839C39.2148 35.2767 39.9501 34.7404 40.7112 34.23C41.6393 33.584 42.577 32.9831 43.5083 32.3532C44.5263 31.6683 45.5378 30.9673 46.5558 30.2825C47.4678 29.6687 48.3831 29.0679 49.2951 28.4606C49.7639 28.1375 50.2296 27.8371 50.6952 27.5205C52.8404 26.0604 54.9823 24.5938 57.1179 23.1433C60.0337 21.2008 62.9464 19.2604 65.8559 17.3222C67.8983 15.946 69.931 14.5634 71.9574 13.1872C73.5309 12.1277 75.1173 11.0875 76.6909 10.0247C78.2644 8.96189 79.9022 7.82156 81.5271 6.71999C81.5477 6.70145 81.565 6.67962 81.5785 6.65539C81.852 6.54722 82.1458 6.5009 82.4391 6.51971C83.1488 6.51971 83.8457 6.51648 84.5393 6.51648Z" fill="white"/>
<path d="M56.4145 58.474C56.3207 58.3983 56.2585 58.29 56.2401 58.1704C56.2216 58.0509 56.2483 57.9287 56.3149 57.828C56.4356 57.6516 56.5676 57.4832 56.7099 57.324C57.4671 56.5267 58.3105 55.817 59.2244 55.2081L64.3529 51.5642C65.859 50.4982 67.3715 49.4386 68.8776 48.3694C70.5346 47.1935 72.1821 46.0047 73.8391 44.8159C75.4084 43.7025 76.9819 42.5913 78.5597 41.4822C81.2722 39.5633 83.9837 37.6455 86.694 35.7288C89.1218 34.0135 91.556 32.3111 93.9837 30.5925C96.0357 29.1388 98.0814 27.6851 100.13 26.2089C100.894 25.6661 101.66 25.1277 102.426 24.5937C102.571 24.4935 102.719 24.3417 102.93 24.458C102.873 25.1041 102.818 25.7243 102.76 26.3542C101.447 27.2749 100.127 28.1923 98.8135 29.1162L87.3266 37.2536C84.7062 39.1111 82.0986 40.9847 79.4589 42.8163C78.1198 43.7467 76.816 44.7255 75.4576 45.6332C73.8808 46.6863 72.3683 47.8396 70.8172 48.9379C68.9868 50.2301 67.1435 51.5222 65.3066 52.8144C63.4055 54.155 61.5012 55.4892 59.6097 56.8427C58.8559 57.3461 58.0695 57.7983 57.2558 58.1962C57.0382 58.2918 56.8125 58.3675 56.5815 58.4224L56.4145 58.474Z" fill="white"/>
<g style="mix-blend-mode:multiply" opacity="0.29">
<path d="M102.269 10.7867C101.771 10.5537 101.305 10.2585 100.881 9.90807C100.801 9.8402 100.715 9.77966 100.624 9.72717C100.303 9.5818 99.9822 9.45581 99.6803 9.30075C98.1902 8.55453 96.5878 8.30256 94.95 8.21211C91.3405 8.01829 87.7278 8.09259 84.115 8.08936C79.9703 8.08936 75.8255 8.08936 71.6808 8.08936C69.0861 8.08936 66.4913 8.12489 63.8966 8.14104C62.0533 8.14104 60.21 8.14104 58.3667 8.16366C56.1187 8.1895 53.8708 8.23795 51.6229 8.27349C50.0493 8.2961 48.4758 8.33487 46.9023 8.32518C45.4379 8.32518 43.9767 8.35748 42.5156 8.38655C40.9934 8.41886 39.4713 8.50285 37.9491 8.58361C36.2696 8.67083 34.5868 8.7742 32.9073 8.8808C31.8669 8.94864 30.8296 9.04555 29.7891 9.10047C28.6973 9.15539 27.6119 9.31691 26.5136 9.27168C26.2472 9.27835 25.9819 9.30753 25.7204 9.3589C24.4744 9.51073 23.2123 9.54949 21.9953 9.89192C20.8537 10.1774 19.7427 10.5745 18.678 11.0775C17.9072 11.4651 17.4769 12.137 17.1173 12.8574C17.0025 13.1589 16.9532 13.4817 16.9727 13.8039C16.9385 15.6086 16.9128 17.4123 16.8957 19.2148C16.8411 24.5418 16.7769 29.8751 16.7512 35.2021C16.7351 38.216 16.7512 41.23 16.9406 44.2472C17.0945 47.1227 17.4098 49.9873 17.8848 52.8271C18.048 53.8094 18.3095 54.7726 18.6651 55.7021C18.8227 56.1016 19.0207 56.4837 19.256 56.8425C19.3528 57.0279 19.5172 57.1685 19.7148 57.2347C19.9123 57.301 20.1277 57.2878 20.3157 57.1978L20.4635 57.7922C20.3639 57.8439 20.3157 57.8923 20.274 57.8891C19.3114 57.826 18.3692 57.5816 17.4962 57.1687C17.0146 56.9351 16.6059 56.573 16.3144 56.1221C15.9085 55.4585 15.5686 54.7562 15.2997 54.0256C14.8565 52.9208 14.8533 51.7643 14.8501 50.6175C14.8501 49.7324 14.8822 48.844 14.8758 47.9557C14.8758 46.6635 14.8522 45.3713 14.8051 44.0792C14.7505 42.0053 14.6831 39.9378 14.6221 37.8671C14.5685 36.0387 14.515 34.2082 14.4615 32.3755C14.408 30.4932 14.3545 28.611 14.3009 26.7287C14.2474 24.9003 14.1939 23.0698 14.1404 21.2371C14.0975 19.7295 14.0537 18.222 14.0087 16.7145C13.9926 16.0684 13.9348 15.3836 13.9348 14.7375C13.9277 14.3056 13.9513 13.8738 14.0055 13.4454C14.2367 11.5717 14.9689 9.99529 16.6548 8.98094C18.0739 8.11313 19.6684 7.57664 21.3209 7.41097C23.9317 7.159 26.5489 7.0524 29.1726 7.04594C30.7204 7.04594 32.2715 6.92318 33.8193 6.85535C34.3267 6.83273 34.8341 6.81012 35.3415 6.7972C37.4824 6.7412 39.6233 6.68952 41.7641 6.64214C41.9247 6.64214 42.0853 6.64214 42.2458 6.64214C45.7783 6.64214 49.3107 6.63245 52.8432 6.61307C54.876 6.61307 56.9087 6.61307 58.9447 6.5743C64.6962 6.44186 70.4476 6.44832 76.1991 6.46124C77.6731 6.46124 79.1439 6.50646 80.6147 6.50969C81.4143 6.50969 82.2203 6.44832 83.0168 6.46124C84.2467 6.46124 85.4734 6.53554 86.7001 6.58076C87.7162 6.59589 88.7322 6.54301 89.7413 6.42247C90.5377 6.34494 91.3469 6.23188 92.1305 6.1705C92.6375 6.14304 93.1456 6.14304 93.6526 6.1705C94.4555 6.19958 95.2583 6.21896 96.0547 6.29972C97.3858 6.42229 98.6679 6.8655 99.7927 7.59188C100.781 8.23651 101.594 9.11787 102.159 10.1568C102.246 10.3313 102.403 10.5186 102.269 10.7867Z" fill="#01B1B1"/>
</g>
<g style="mix-blend-mode:screen">
<path d="M14.2919 60.6804C13.8069 61.0616 13.3509 61.0616 13.0073 60.6352C12.7475 60.3288 12.5432 59.9789 12.4036 59.6015C12.1312 58.8146 11.9018 58.0133 11.7164 57.2013C11.5654 56.5197 11.5044 55.8187 11.3952 55.1274C11.3278 54.646 11.2604 54.1583 11.2122 53.6866C11.0131 51.7484 10.8044 49.7843 10.6406 47.8299C10.525 46.4085 10.4736 44.9839 10.3997 43.5593C10.3387 42.3512 10.3002 41.1398 10.2263 39.9348C10.1043 37.974 9.95337 36.0164 9.83133 34.0587C9.74784 32.7149 9.68361 31.3711 9.62581 30.0272C9.53375 27.7422 9.44598 25.4573 9.36248 23.1723C9.33358 22.3098 9.32074 21.4505 9.30468 20.588C9.27257 18.6239 9.20513 16.6598 9.22118 14.6958C9.23724 13.003 9.35285 11.3103 9.4235 9.62081C9.47809 8.32865 10.0882 7.30138 10.8654 6.36134C11.2997 5.89054 11.7665 5.45119 12.2623 5.04656C12.3873 4.94718 12.5354 4.88157 12.6926 4.85597C12.7439 4.85316 12.7952 4.86217 12.8425 4.88233C12.8898 4.90248 12.9319 4.93324 12.9656 4.97226C12.9943 5.01488 13.0126 5.0638 13.0187 5.11494C13.0248 5.16607 13.0187 5.21795 13.0009 5.26623C12.8436 5.51174 12.6573 5.7411 12.4775 5.97369C12.2109 6.31288 11.938 6.63915 11.6778 6.98157C11.0677 7.80964 10.7106 8.7986 10.6502 9.82755C10.4602 12.1618 10.442 14.507 10.5956 16.844C10.5956 17.0313 10.6213 17.2187 10.6213 17.4093C10.6213 20.2068 10.8172 23.0011 10.9425 25.8083C11.0227 27.6367 11.087 29.4651 11.1801 31.3C11.2315 32.2917 11.3374 33.2834 11.4113 34.2752C11.4595 34.9213 11.498 35.5673 11.5365 36.2134C11.6233 37.6929 11.7132 39.1692 11.7935 40.6455C11.8737 42.1218 11.954 43.5529 12.0311 44.9969C12.0504 45.3748 12.0664 45.7495 12.0825 46.1275C12.1306 47.2258 12.2013 48.3274 12.227 49.429C12.2687 51.2315 12.455 53.0244 12.5899 54.8205C12.6824 56.0814 12.8541 57.3351 13.1037 58.5742C13.1518 58.8133 13.2129 59.0459 13.2771 59.2817C13.5051 60.0634 13.5597 60.1442 14.2919 60.6804Z" fill="white"/>
</g>
<g style="mix-blend-mode:screen">
<path d="M18.073 3.30176C18.2303 3.35344 18.3523 3.35991 18.4198 3.42451C18.5136 3.50973 18.5777 3.62295 18.6028 3.74755C18.5933 3.79789 18.5721 3.84523 18.5408 3.88567C18.5095 3.92611 18.4691 3.95849 18.423 3.98014C17.7807 4.18042 17.1449 4.36779 16.5155 4.54223C16.4053 4.55921 16.2927 4.53994 16.1943 4.48731C16.1164 4.46593 16.0466 4.42159 15.994 4.35999C15.9413 4.29839 15.9082 4.22235 15.8989 4.14166C15.8947 4.05988 15.9196 3.97928 15.969 3.9142C16.0184 3.84913 16.0891 3.80381 16.1686 3.78632C16.827 3.6151 17.4692 3.45682 18.073 3.30176Z" fill="white"/>
</g>
</svg>
