<svg xmlns="http://www.w3.org/2000/svg" xmlns:xlink="http://www.w3.org/1999/xlink" width="1080" zoomAndPan="magnify" viewBox="0 0 810 809.999993" height="1080" preserveAspectRatio="xMidYMid meet" version="1.0"><defs><clipPath id="c4b77ced6a"><path d="M 344 632 L 735 632 L 735 809.746094 L 344 809.746094 Z M 344 632 " clip-rule="nonzero"/></clipPath></defs><rect x="-81" width="972" fill="#ffffff" y="-80.999999" height="971.999992" fill-opacity="1"/><rect x="-81" width="972" fill="#ffffff" y="-80.999999" height="971.999992" fill-opacity="1"/><rect x="-81" width="972" fill="#ffffff" y="-80.999999" height="971.999992" fill-opacity="1"/><path fill="#81d4fa" d="M 497.320312 194.402344 C 497.226562 192.582031 498.308594 191.011719 499.972656 190.339844 C 502.613281 189.359375 505.417969 191.203125 505.5625 194.003906 L 505.953125 202.25 C 506.046875 204.066406 504.964844 205.640625 503.289062 206.308594 C 500.667969 207.296875 497.851562 205.453125 497.707031 202.648438 Z M 516.980469 433.167969 C 517.074219 434.976562 515.980469 436.558594 514.316406 437.226562 C 511.675781 438.207031 508.871094 436.363281 508.726562 433.5625 L 508.335938 425.308594 C 508.246094 423.5 509.328125 421.925781 511 421.25 C 513.632812 420.269531 516.4375 422.113281 516.582031 424.921875 Z M 515.398438 400.175781 C 515.492188 401.996094 514.410156 403.566406 512.742188 404.234375 C 510.113281 405.214844 507.296875 403.371094 507.152344 400.574219 L 506.765625 392.328125 C 506.671875 390.507812 507.753906 388.9375 509.417969 388.269531 C 512.050781 387.277344 514.867188 389.121094 515.007812 391.929688 Z M 513.824219 367.195312 C 513.917969 369.003906 512.835938 370.578125 511.160156 371.246094 C 508.53125 372.234375 505.722656 370.390625 505.582031 367.582031 L 505.183594 359.335938 C 505.089844 357.519531 506.171875 355.945312 507.847656 355.277344 C 510.476562 354.296875 513.292969 356.140625 513.4375 358.941406 Z M 512.253906 334.203125 C 512.34375 336.011719 511.261719 337.59375 509.589844 338.261719 C 506.957031 339.242188 504.152344 337.398438 504.007812 334.601562 L 503.609375 326.347656 C 503.515625 324.535156 504.597656 322.964844 506.273438 322.289062 C 508.902344 321.304688 511.710938 323.148438 511.855469 325.957031 Z M 510.679688 301.210938 C 510.773438 303.03125 509.691406 304.605469 508.015625 305.273438 C 505.386719 306.253906 502.570312 304.410156 502.433594 301.609375 L 502.039062 293.355469 C 501.945312 291.546875 503.027344 289.972656 504.699219 289.304688 C 507.332031 288.316406 510.136719 290.160156 510.28125 292.96875 Z M 509.105469 268.230469 C 509.199219 270.039062 508.117188 271.613281 506.441406 272.289062 C 503.8125 273.269531 501.003906 271.425781 500.851562 268.621094 L 500.464844 260.375 C 500.371094 258.554688 501.453125 256.984375 503.128906 256.316406 C 505.757812 255.332031 508.566406 257.175781 508.710938 259.976562 Z M 507.523438 235.238281 C 507.617188 237.058594 506.535156 238.632812 504.871094 239.300781 C 502.238281 240.28125 499.425781 238.4375 499.28125 235.636719 L 498.890625 227.382812 C 498.796875 225.574219 499.878906 224 501.554688 223.324219 C 504.183594 222.34375 506.992188 224.1875 507.136719 226.996094 L 507.523438 235.238281 " fill-opacity="1" fill-rule="nonzero"/><path fill="#81d4fa" d="M 557.949219 195.855469 C 557.679688 194.054688 558.609375 192.386719 560.21875 191.558594 C 562.738281 190.332031 565.714844 191.90625 566.121094 194.6875 L 567.285156 202.859375 C 567.550781 204.660156 566.617188 206.324219 565.019531 207.152344 C 562.492188 208.371094 559.523438 206.808594 559.117188 204.023438 Z M 599.980469 431.710938 C 600.242188 433.511719 599.3125 435.179688 597.714844 436 C 595.183594 437.226562 592.214844 435.660156 591.800781 432.878906 L 590.636719 424.699219 C 590.371094 422.910156 591.304688 421.242188 592.910156 420.414062 C 595.4375 419.1875 598.40625 420.761719 598.8125 423.542969 Z M 595.3125 399.015625 C 595.574219 400.820312 594.644531 402.484375 593.035156 403.304688 C 590.515625 404.539062 587.539062 402.957031 587.132812 400.183594 L 585.96875 392.015625 C 585.703125 390.214844 586.636719 388.546875 588.234375 387.71875 C 590.761719 386.492188 593.738281 388.066406 594.136719 390.847656 Z M 590.636719 366.324219 C 590.898438 368.125 589.96875 369.789062 588.367188 370.617188 C 585.839844 371.84375 582.871094 370.273438 582.464844 367.488281 L 581.300781 359.320312 C 581.035156 357.519531 581.96875 355.851562 583.566406 355.023438 C 586.09375 353.796875 589.0625 355.371094 589.46875 358.152344 Z M 585.96875 333.628906 C 586.230469 335.429688 585.300781 337.09375 583.699219 337.925781 C 581.171875 339.152344 578.203125 337.578125 577.796875 334.796875 L 576.632812 326.625 C 576.359375 324.824219 577.300781 323.160156 578.898438 322.339844 C 581.417969 321.101562 584.394531 322.675781 584.800781 325.457031 Z M 581.300781 300.933594 C 581.5625 302.734375 580.632812 304.410156 579.03125 305.230469 C 576.503906 306.457031 573.535156 304.882812 573.121094 302.109375 L 571.953125 293.929688 C 571.691406 292.136719 572.621094 290.464844 574.230469 289.644531 C 576.75 288.417969 579.726562 289.988281 580.132812 292.765625 Z M 576.632812 268.246094 C 576.894531 270.039062 575.964844 271.714844 574.355469 272.535156 C 571.835938 273.761719 568.859375 272.1875 568.453125 269.414062 L 567.285156 261.238281 C 567.023438 259.433594 567.953125 257.769531 569.5625 256.949219 C 572.082031 255.722656 575.058594 257.296875 575.457031 260.070312 Z M 571.953125 235.550781 C 572.21875 237.355469 571.296875 239.019531 569.6875 239.839844 C 567.160156 241.066406 564.191406 239.492188 563.785156 236.71875 L 562.617188 228.550781 C 562.355469 226.75 563.285156 225.082031 564.886719 224.253906 C 567.414062 223.027344 570.382812 224.601562 570.789062 227.375 L 571.953125 235.550781 " fill-opacity="1" fill-rule="nonzero"/><path fill="#81d4fa" d="M 460.5 195.855469 C 460.761719 194.054688 459.832031 192.386719 458.234375 191.558594 C 455.703125 190.332031 452.734375 191.90625 452.320312 194.6875 L 451.15625 202.859375 C 450.894531 204.660156 451.832031 206.324219 453.429688 207.152344 C 455.949219 208.371094 458.925781 206.808594 459.332031 204.023438 Z M 418.472656 431.710938 C 418.207031 433.511719 419.128906 435.179688 420.738281 436 C 423.265625 437.226562 426.234375 435.660156 426.640625 432.878906 L 427.804688 424.699219 C 428.070312 422.910156 427.136719 421.242188 425.539062 420.414062 C 423.011719 419.1875 420.042969 420.761719 419.636719 423.542969 Z M 423.136719 399.015625 C 422.875 400.820312 423.808594 402.484375 425.40625 403.304688 C 427.933594 404.539062 430.902344 402.957031 431.308594 400.183594 L 432.472656 392.015625 C 432.746094 390.214844 431.816406 388.546875 430.207031 387.71875 C 427.6875 386.492188 424.710938 388.066406 424.304688 390.847656 Z M 427.804688 366.324219 C 427.542969 368.125 428.476562 369.789062 430.074219 370.617188 C 432.601562 371.84375 435.570312 370.273438 435.984375 367.488281 L 437.152344 359.320312 C 437.414062 357.519531 436.484375 355.851562 434.882812 355.023438 C 432.355469 353.796875 429.386719 355.371094 428.972656 358.152344 Z M 432.472656 333.628906 C 432.210938 335.429688 433.144531 337.09375 434.75 337.925781 C 437.269531 339.152344 440.246094 337.578125 440.652344 334.796875 L 441.820312 326.625 C 442.082031 324.824219 441.152344 323.160156 439.550781 322.339844 C 437.023438 321.101562 434.054688 322.675781 433.648438 325.457031 Z M 437.152344 300.933594 C 436.890625 302.734375 437.820312 304.410156 439.417969 305.230469 C 441.945312 306.457031 444.914062 304.882812 445.320312 302.109375 L 446.488281 293.929688 C 446.75 292.136719 445.820312 290.464844 444.21875 289.644531 C 441.691406 288.417969 438.722656 289.988281 438.316406 292.765625 Z M 441.820312 268.246094 C 441.558594 270.039062 442.488281 271.714844 444.085938 272.535156 C 446.613281 273.761719 449.582031 272.1875 449.988281 269.414062 L 451.15625 261.238281 C 451.425781 259.433594 450.496094 257.769531 448.886719 256.949219 C 446.359375 255.722656 443.390625 257.296875 442.984375 260.070312 Z M 446.488281 235.550781 C 446.226562 237.355469 447.15625 239.019531 448.761719 239.839844 C 451.28125 241.066406 454.25 239.492188 454.664062 236.71875 L 455.832031 228.550781 C 456.09375 226.75 455.164062 225.082031 453.566406 224.253906 C 451.035156 223.027344 448.066406 224.601562 447.652344 227.375 L 446.488281 235.550781 " fill-opacity="1" fill-rule="nonzero"/><path fill="#dbc0b2" d="M 431.316406 496.507812 C 438.699219 494.074219 448.109375 502.464844 452.3125 515.25 C 456.523438 528.027344 453.945312 540.367188 446.554688 542.800781 C 439.164062 545.238281 429.761719 536.847656 425.546875 524.0625 C 421.335938 511.285156 423.917969 498.945312 431.316406 496.507812 " fill-opacity="1" fill-rule="evenodd"/><path fill="#dbc0b2" d="M 647.410156 496.507812 C 640.011719 494.074219 630.609375 502.472656 626.40625 515.25 C 622.195312 528.027344 624.773438 540.367188 632.164062 542.800781 C 639.554688 545.238281 648.960938 536.847656 653.171875 524.0625 C 657.382812 511.285156 654.800781 498.945312 647.410156 496.507812 " fill-opacity="1" fill-rule="evenodd"/><g clipPath="url(#c4b77ced6a)"><path fill="#ffddcc" d="M 500.457031 632.277344 C 414.023438 670.171875 388.09375 690.367188 377.847656 699.441406 C 362.058594 713.414062 353.324219 765.515625 344.003906 809.746094 L 735.085938 809.746094 C 725.769531 765.515625 717.035156 713.414062 701.246094 699.441406 C 690.996094 690.367188 666.015625 670.6875 579.589844 632.792969 L 500.457031 632.277344 " fill-opacity="1" fill-rule="evenodd"/></g><path fill="#eccebe" d="M 581.511719 556.738281 L 581.511719 652.558594 C 558.425781 680.820312 520.65625 679.847656 497.582031 652.558594 L 497.582031 556.738281 C 497.582031 505.007812 581.511719 505.007812 581.511719 556.738281 " fill-opacity="1" fill-rule="evenodd"/><path fill="#dfc4b6" d="M 581.511719 556.738281 L 581.511719 620.894531 C 565.628906 632.464844 550.324219 638.949219 539.542969 638.949219 C 528.769531 638.949219 513.460938 632.464844 497.582031 620.894531 L 497.582031 556.738281 C 497.582031 505.007812 581.511719 505.007812 581.511719 556.738281 " fill-opacity="1" fill-rule="evenodd"/><path fill="#eccebe" d="M 539.542969 384.734375 C 398.699219 384.734375 449.34375 554.929688 458.546875 568.476562 C 468.695312 583.421875 516.792969 623.015625 539.542969 623.015625 C 562.296875 623.015625 610.390625 583.421875 620.535156 568.476562 C 629.746094 554.929688 680.390625 384.734375 539.542969 384.734375 " fill-opacity="1" fill-rule="evenodd"/><path fill="#424242" d="M 475.164062 441.691406 C 467.003906 486.328125 446.539062 482.15625 448.160156 534.539062 C 442.105469 496.957031 430.335938 449.371094 454.214844 420.421875 C 449.226562 418.925781 432.304688 396.617188 429.566406 383.3125 C 454.183594 403.929688 472.988281 384.988281 502.605469 376.007812 C 515.753906 372.023438 530.003906 368.894531 545.46875 369.476562 C 563.304688 370.152344 582.695312 375.238281 603.503906 388.445312 C 638.042969 410.375 656.460938 456.433594 631.785156 527.265625 C 628.039062 502.3125 628.503906 483.179688 611.335938 466.214844 C 593.402344 448.507812 552.980469 496.628906 475.164062 441.691406 " fill-opacity="1" fill-rule="evenodd"/><path fill="#80cbc4" d="M 81 46.554688 L 475.332031 43.65625 C 475.332031 43.65625 489.742188 46.175781 490.949219 61.210938 C 492.152344 76.257812 489.023438 163.921875 489.023438 163.921875 L 520.4375 151.886719 L 518.90625 51.46875 C 518.90625 51.46875 517.902344 20.28125 491.746094 13.886719 C 465.582031 7.484375 81 16.839844 81 16.839844 L 81 46.554688 " fill-opacity="1" fill-rule="nonzero"/><path fill="#26a69a" d="M 472.550781 98.828125 C 518.519531 81.222656 570.296875 104.882812 588.214844 151.667969 C 590.492188 157.613281 592.105469 163.652344 593.105469 169.699219 C 590.804688 168.828125 588.316406 168.335938 585.714844 168.394531 L 416.332031 171.6875 C 420.144531 139.683594 440.796875 111 472.550781 98.828125 " fill-opacity="1" fill-rule="nonzero"/><path fill="#00796b" d="M 415.824219 171.703125 L 416.332031 171.6875 L 585.714844 168.394531 C 588.316406 168.335938 590.804688 168.828125 593.105469 169.699219 C 600.425781 172.480469 605.722656 179.484375 605.890625 187.796875 L 605.914062 189.089844 C 606.101562 198.445312 599.71875 206.394531 591.007812 208.609375 C 589.550781 208.972656 588.0625 209.234375 586.507812 209.269531 L 420.839844 212.492188 L 416.617188 212.566406 C 405.683594 212.777344 396.660156 204.09375 396.433594 193.167969 L 396.417969 191.878906 C 396.203125 180.945312 404.890625 171.914062 415.824219 171.703125 " fill-opacity="1" fill-rule="nonzero"/></svg>