<svg xmlns="http://www.w3.org/2000/svg" xmlns:xlink="http://www.w3.org/1999/xlink" width="1080" zoomAndPan="magnify" viewBox="0 0 810 809.999993" height="1080" preserveAspectRatio="xMidYMid meet" version="1.0"><defs><clipPath id="8a7b712e39"><path d="M 460 477.570312 L 478 477.570312 L 478 490 L 460 490 Z M 460 477.570312 " clip-rule="nonzero"/></clipPath><clipPath id="5d68f724b8"><path d="M 477.191406 477.878906 C 473.21875 481.0625 469.246094 484.25 465.269531 487.429688 C 463.824219 488.59375 462.105469 489.382812 460.183594 489.683594 L 472.105469 480.132812 C 474.03125 479.828125 475.746094 479.035156 477.191406 477.878906 Z M 477.191406 477.878906 " clip-rule="nonzero"/></clipPath><clipPath id="896e7871a9"><path d="M 116 39.78125 L 133 39.78125 L 133 65 L 116 65 Z M 116 39.78125 " clip-rule="nonzero"/></clipPath><clipPath id="14eaf001c8"><path d="M 121.03125 49.5 C 125.003906 46.320312 128.980469 43.132812 132.953125 39.949219 C 129.007812 43.109375 127.058594 49.023438 128.410156 55.324219 L 116.492188 64.878906 C 115.136719 58.578125 117.082031 52.664062 121.03125 49.5 Z M 121.03125 49.5 " clip-rule="nonzero"/></clipPath><clipPath id="0e9a2622eb"><path d="M 212 503.003906 L 240.949219 503.003906 L 240.949219 526.617188 L 212 526.617188 Z M 212 503.003906 " clip-rule="nonzero"/></clipPath><clipPath id="eb39c1b5bc"><path d="M 240.914062 516.753906 L 228.992188 526.304688 C 221.835938 527.441406 214.535156 521.390625 212.6875 512.785156 L 224.605469 503.230469 C 226.457031 511.839844 233.757812 517.886719 240.914062 516.753906 Z M 240.914062 516.753906 " clip-rule="nonzero"/></clipPath></defs><rect x="-81" width="972" fill="#ffffff" y="-80.999999" height="971.999992" fill-opacity="1"/><rect x="-81" width="972" fill="#ffffff" y="-80.999999" height="971.999992" fill-opacity="1"/><rect x="-81" width="972" fill="#ffffff" y="-80.999999" height="971.999992" fill-opacity="1"/><path fill="#f0d0b4" d="M 81.480469 810 L 255.308594 810 C 252.949219 771.285156 268.722656 607.761719 278.933594 587.761719 C 309.871094 527.175781 240.285156 499.308594 144.414062 494.808594 C 138.148438 494.515625 134.828125 494.742188 128.558594 494.691406 L 128.703125 498.441406 C 127.34375 500.046875 117.964844 553.050781 116.289062 571.113281 C 111.734375 620.253906 90.28125 708.292969 81.480469 809.992188 Z M 81.480469 810 " fill-opacity="1" fill-rule="nonzero"/><path fill="#f0d0b4" d="M 157.382812 608.363281 C 169.859375 618.550781 184.226562 625.960938 200.492188 629.847656 C 223.617188 635.375 189.402344 707.652344 212.144531 678.628906 C 270.617188 603.992188 268.695312 582.339844 276.285156 558.398438 C 307.167969 460.984375 318.035156 549.875 277.285156 519.917969 C 248.660156 498.878906 236.125 446.378906 225.726562 390.257812 L 157.382812 390.257812 L 157.382812 608.371094 Z M 157.382812 608.363281 " fill-opacity="1" fill-rule="nonzero"/><path fill="#f0d0b4" d="M 269.527344 594.628906 C 290.546875 579.585938 397.398438 502.222656 407.070312 422.710938 C 414.667969 360.234375 323.246094 371.65625 279.199219 387.609375 C 224.59375 407.390625 208.433594 431.828125 214.734375 491.480469 C 219.398438 535.65625 243.148438 561.117188 269.527344 594.628906 " fill-opacity="1" fill-rule="nonzero"/><path fill="#bdbdbd" d="M 447.632812 413.066406 L 435.714844 422.621094 L 355.710938 50.027344 L 367.625 40.472656 Z M 447.632812 413.066406 " fill-opacity="1" fill-rule="nonzero"/><path fill="#bdbdbd" d="M 367.625 40.472656 L 355.710938 50.027344 L 143.957031 83.5625 L 155.894531 74.007812 Z M 367.625 40.472656 " fill-opacity="1" fill-rule="nonzero"/><g clip-path="url(#8a7b712e39)"><g clip-path="url(#5d68f724b8)"><path fill="#bfbfbf" d="M 477.191406 477.878906 L 465.269531 487.429688 C 463.824219 488.59375 462.105469 489.382812 460.183594 489.683594 L 472.105469 480.132812 C 474.03125 479.828125 475.746094 479.035156 477.191406 477.878906 " fill-opacity="1" fill-rule="nonzero"/></g></g><g clip-path="url(#896e7871a9)"><g clip-path="url(#14eaf001c8)"><path fill="#bfbfbf" d="M 128.425781 55.3125 L 116.503906 64.867188 C 115.148438 58.566406 117.097656 52.652344 121.042969 49.488281 L 132.964844 39.9375 C 129.015625 43.097656 127.070312 49.015625 128.425781 55.3125 " fill-opacity="1" fill-rule="nonzero"/></g></g><path fill="#4d4d4d" d="M 235.898438 446.597656 L 223.980469 456.152344 L 143.957031 83.5625 L 155.894531 74.007812 Z M 235.898438 446.597656 " fill-opacity="1" fill-rule="nonzero"/><path fill="#4d4d4d" d="M 367.625 40.472656 L 447.652344 413.066406 L 235.898438 446.597656 L 155.894531 74.007812 Z M 367.625 40.472656 " fill-opacity="1" fill-rule="nonzero"/><path fill="#4d4d4d" d="M 447.652344 413.066406 L 435.714844 422.621094 L 223.980469 456.152344 L 235.898438 446.597656 Z M 447.652344 413.066406 " fill-opacity="1" fill-rule="nonzero"/><path fill="#bdbdbd" d="M 472.105469 480.132812 L 460.167969 489.6875 L 228.976562 526.289062 L 240.914062 516.753906 Z M 472.105469 480.132812 " fill-opacity="1" fill-rule="nonzero"/><path fill="#bdbdbd" d="M 224.597656 503.222656 L 212.683594 512.777344 L 116.488281 64.867188 L 128.425781 55.3125 Z M 224.597656 503.222656 " fill-opacity="1" fill-rule="nonzero"/><path fill="#eeeeee" d="M 369.226562 1.070312 C 376.398438 -0.0625 383.683594 5.988281 385.53125 14.59375 L 481.714844 462.5 C 483.5625 471.109375 479.269531 478.996094 472.097656 480.128906 L 240.90625 516.746094 C 233.75 517.875 226.449219 511.832031 224.601562 503.222656 L 128.417969 55.3125 C 126.570312 46.707031 130.878906 38.816406 138.035156 37.683594 Z M 447.640625 413.046875 L 367.628906 40.453125 L 155.878906 73.988281 L 235.886719 446.582031 L 447.640625 413.046875 " fill-opacity="1" fill-rule="nonzero"/><g clip-path="url(#0e9a2622eb)"><g clip-path="url(#eb39c1b5bc)"><path fill="#bfbfbf" d="M 240.914062 516.753906 L 228.992188 526.304688 C 221.835938 527.441406 214.535156 521.390625 212.6875 512.785156 L 224.605469 503.230469 C 226.457031 511.839844 233.757812 517.886719 240.914062 516.753906 " fill-opacity="1" fill-rule="nonzero"/></g></g><path fill="#f0d0b4" d="M 171.027344 469.886719 L 202.257812 499.476562 C 194.175781 457.578125 204.105469 383.074219 186.136719 361.230469 L 187.394531 362.761719 C 170.394531 319.148438 193.0625 254.109375 156.226562 215.507812 C 145.253906 204.011719 122.632812 194.574219 118.136719 211.257812 C 117.105469 215.082031 128.117188 243.734375 132.40625 263.675781 C 136.960938 284.863281 126.261719 296.96875 130.453125 333.347656 C 132.777344 353.53125 122.53125 435.78125 125.96875 456.109375 C 130.378906 482.15625 126.871094 510.753906 131.007812 537.261719 C 136.082031 569.777344 149.472656 598.207031 171.023438 615.113281 L 171.023438 469.886719 Z M 171.027344 469.886719 " fill-opacity="1" fill-rule="nonzero"/><path fill="#f5e0cd" d="M 142.25 242.925781 C 138.328125 226.527344 135.273438 198.25 116.699219 200.085938 C 114.066406 205.785156 125.253906 237.902344 129.414062 252.917969 C 132.847656 256.84375 141.039062 252.714844 142.25 242.925781 Z M 142.25 242.925781 " fill-opacity="1" fill-rule="nonzero"/><path fill="#000000" d="M 314.214844 171.792969 C 313.535156 171.191406 315.089844 168.488281 313.269531 170.796875 C 298.460938 204.359375 322.507812 243.59375 339.316406 273.785156 C 357.535156 306.503906 371.960938 343.597656 378.4375 378.84375 C 382.683594 401.960938 387.039062 426.953125 385.433594 451.414062 C 361.492188 433.902344 348.832031 404.324219 327.808594 383.714844 C 311.785156 368.007812 285.859375 339.914062 262.324219 337.886719 C 262.578125 345.992188 270.496094 355.105469 273.335938 363.101562 C 276.402344 371.722656 279.128906 380.238281 282.429688 388.835938 C 290.136719 408.945312 299.601562 428.777344 307.863281 448.851562 C 318 473.472656 320.503906 486.777344 333.695312 510.039062 C 333.695312 510.039062 360.351562 503.265625 374.167969 510.871094 C 389.289062 519.199219 408.894531 583.058594 412.351562 567.464844 C 415.394531 553.738281 418.617188 540.132812 425.339844 527.5 C 441.765625 496.625 448.5 466.03125 452.351562 430.953125 C 455.460938 402.609375 456.203125 370.550781 439.902344 346.179688 C 425.40625 324.503906 413.683594 303.164062 401.453125 279.871094 C 393.824219 265.347656 387.527344 249.957031 377.195312 236.890625 C 368.824219 226.296875 357.648438 219.039062 349.339844 208.121094 C 339.097656 194.671875 326.496094 178.503906 313.003906 169.367188 " fill-opacity="0.298" fill-rule="nonzero"/><path fill="#f0d0b4" d="M 324.007812 452.574219 C 333.207031 474.496094 387.160156 585.972656 431.359375 615.117188 C 466.253906 638.128906 496.394531 683.191406 501.320312 696.929688 C 515.046875 735.164062 530.058594 773.941406 544.558594 810.003906 L 745.808594 810.003906 C 710.722656 756.457031 667.730469 693.207031 650.890625 639.847656 C 661.570312 599.375 668.457031 465.824219 657.195312 451.34375 C 647.160156 438.441406 638.351562 415.808594 638.351562 415.808594 C 636.507812 407.949219 612.476562 373.847656 587.410156 369.488281 C 570.113281 352.535156 543.699219 331.75 524.347656 346.78125 C 508.078125 324.074219 481.652344 317.714844 465.316406 330.554688 C 444.117188 289.746094 454.984375 315.351562 433.414062 275.488281 C 413.011719 237.773438 398.015625 230.523438 370.335938 198.433594 L 330.664062 162.1875 C 306.617188 149.488281 309.46875 188.316406 314.992188 204.019531 C 321.8125 223.394531 339.222656 238.171875 351.945312 254.398438 C 383.171875 294.238281 398.855469 329.226562 413.527344 376.449219 C 421.15625 401 418.921875 440.675781 405.15625 457.992188 C 402.625 451.34375 375.601562 436.867188 368.558594 417.726562 C 357.210938 386.890625 347.925781 362.761719 327.816406 346.679688 C 313.746094 335.421875 294.035156 320.78125 273.332031 325.976562 C 251.898438 331.355469 269.855469 349.785156 278.746094 365.1875 C 294.871094 393.105469 311.835938 423.566406 324.007812 452.570312 Z M 324.007812 452.574219 " fill-opacity="1" fill-rule="nonzero"/><path fill="#f5e0cd" d="M 263.640625 338.640625 C 263.777344 339.214844 263.941406 339.796875 264.144531 340.390625 C 264.183594 340.3125 264.230469 340.234375 264.277344 340.15625 C 264.125 339.710938 263.988281 339.289062 263.859375 338.90625 C 263.785156 338.816406 263.710938 338.726562 263.640625 338.640625 Z M 263.640625 338.640625 " fill-opacity="1" fill-rule="nonzero"/><path fill="#f5e0cd" d="M 258.769531 331.230469 C 259.085938 332.175781 273.152344 364.136719 285.621094 378.273438 C 289.371094 379.570312 293.46875 378.0625 297.816406 371.855469 C 306.828125 358.996094 265.75 318.636719 258.769531 331.230469 Z M 258.769531 331.230469 " fill-opacity="1" fill-rule="nonzero"/><path fill="#f5e0cd" d="M 351.292969 180.546875 C 351.292969 180.546875 327.839844 155.140625 316.941406 154.230469 C 311.777344 153.554688 312.050781 158.601562 312.703125 162.40625 C 313.722656 168.378906 324.253906 184.851562 329.425781 188.292969 C 350.367188 202.21875 361.261719 190.148438 351.292969 180.546875 Z M 351.292969 180.546875 " fill-opacity="1" fill-rule="nonzero"/></svg>