<svg width="30" height="30" viewBox="0 0 30 30" fill="none" xmlns="http://www.w3.org/2000/svg">
<circle cx="14.9998" cy="15.0001" r="15" fill="#ED1C24"/>
<path d="M12.1155 9.45033C12.3727 8.95923 13.1081 8.84264 13.5002 9.23632C15.0781 10.8062 16.6496 12.3825 18.2235 13.9573C18.4519 14.2088 18.7665 14.4116 18.8631 14.7558C18.9582 15.088 18.8368 15.4545 18.5845 15.6853C16.89 17.3742 15.2043 19.0711 13.5066 20.7568C13.156 21.1105 12.5124 21.073 12.2066 20.6801C11.9183 20.3479 11.9343 19.8041 12.2473 19.4935C13.7429 17.993 15.2466 16.499 16.7398 14.9961C15.2362 13.5029 13.7429 12 12.2433 10.5036C11.9774 10.2281 11.9207 9.78172 12.1155 9.45033Z" fill="white"/>
</svg>
