<svg width="30" height="30" viewBox="0 0 30 30" fill="none" xmlns="http://www.w3.org/2000/svg">
<circle cx="15" cy="15" r="15" fill="white"/>
<path d="M12.1158 9.45027C12.3729 8.95917 13.1084 8.84258 13.5004 9.23626C15.0783 10.8062 16.6499 12.3825 18.2238 13.9572C18.4521 14.2087 18.7668 14.4116 18.8634 14.7557C18.9584 15.0879 18.837 15.4544 18.5847 15.6852C16.8902 17.3741 15.2045 19.071 13.5068 20.7567C13.1563 21.1105 12.5127 21.0729 12.2068 20.68C11.9185 20.3479 11.9345 19.8041 12.2475 19.4934C13.7432 17.993 15.2468 16.4989 16.7401 14.9961C15.2365 13.5028 13.7432 12 12.2435 10.5035C11.9776 10.228 11.9209 9.78166 12.1158 9.45027Z" fill="#ED1C24"/>
</svg>
