<svg width="23" height="24" viewBox="0 0 23 24" fill="none" xmlns="http://www.w3.org/2000/svg">
<g clipPath="url(#clip0)">
<path d="M17.8889 0.287109H5.12427C4.08468 0.287109 3.17188 1.18121 3.17188 2.23953V21.9806C3.17188 22.3349 3.26619 22.6301 3.41818 22.8582C3.59995 23.1309 3.89264 23.2872 4.20649 23.2871C4.50321 23.2871 4.81914 23.149 5.11089 22.8885L10.8218 17.8193C10.9982 17.6618 11.2515 17.5715 11.515 17.5715C11.7783 17.5715 12.0311 17.6618 12.208 17.8197L17.8998 22.8877C18.1926 23.149 18.4867 23.2872 18.783 23.2872C19.2839 23.2872 19.7721 22.8833 19.7721 21.9807V2.23953C19.7721 1.18121 18.9285 0.287109 17.8889 0.287109Z" fill="#ED1C24"/>
</g>
<defs>
<clipPath id="clip0">
<rect width="22" height="23" fill="white" transform="translate(0.472656 0.287109)"/>
</clipPath>
</defs>
</svg>
