<svg width="248" height="238" viewBox="0 0 248 238" fill="none" xmlns="http://www.w3.org/2000/svg">
<path d="M246.758 130.363C244.54 108.147 234.575 87.2026 218.696 71.3877C205.126 57.8733 188.517 49.1887 171.041 45.3271V33.1192C178.179 31.3506 183.485 24.9156 183.485 17.2669C183.485 8.25889 176.127 0.930664 167.082 0.930664H132.347C123.303 0.930664 115.945 8.25889 115.945 17.2669C115.945 24.9151 121.25 31.3501 128.388 33.1192V45.3613C110.965 49.2392 94.4109 57.9118 80.8797 71.3882C77.9185 74.3373 75.188 77.4311 72.6885 80.6465C72.5674 80.6373 72.4463 80.6282 72.3228 80.6282H37.9444C35.2805 80.6282 33.1201 82.7793 33.1201 85.433C33.1201 88.0866 35.2805 90.2377 37.9444 90.2377H66.1241C62.5869 96.1356 59.7348 102.329 57.5639 108.705H5.05867C2.39469 108.705 0.234375 110.856 0.234375 113.51C0.234375 116.164 2.39469 118.315 5.05867 118.315H54.8377C53.4473 124.393 52.6494 130.579 52.4434 136.783H31.1099C28.4459 136.783 26.2856 138.934 26.2856 141.588C26.2856 144.241 28.4459 146.392 31.1099 146.392H52.5973C53.0044 152.612 54.0084 158.798 55.6096 164.86H24.3558C21.6919 164.86 19.5316 167.012 19.5316 169.665C19.5316 172.319 21.6919 174.47 24.3558 174.47H58.6884C63.4211 186.939 70.8172 198.625 80.8797 208.647C96.7738 224.477 117.825 234.405 140.155 236.602C143.342 236.915 146.531 237.07 149.716 237.07C168.541 237.07 187.128 231.644 202.898 221.416C205.131 219.968 205.762 216.991 204.308 214.768C202.854 212.544 199.866 211.915 197.633 213.363C163.112 235.752 116.879 230.911 87.7022 201.852C53.4681 167.757 53.4681 112.28 87.7022 78.1835C121.936 44.0885 177.639 44.0885 211.873 78.1835C241.012 107.204 245.899 153.21 223.493 187.575C222.042 189.801 222.677 192.777 224.911 194.221C227.147 195.667 230.134 195.034 231.585 192.808C243.556 174.447 248.945 152.271 246.758 130.363ZM125.593 17.2673C125.593 13.5581 128.623 10.5407 132.347 10.5407H167.082C170.806 10.5407 173.836 13.5581 173.836 17.2673C173.836 20.9766 170.806 23.994 167.082 23.994H166.217H133.212H132.347C128.623 23.994 125.593 20.9761 125.593 17.2673ZM138.036 43.7094V33.6035H161.392V43.6921C153.637 42.7734 145.791 42.7792 138.036 43.7094Z" fill="#666666"/>
<path d="M215.285 200.443C214.012 200.443 212.772 200.957 211.875 201.851C210.973 202.744 210.461 203.984 210.461 205.248C210.461 206.511 210.973 207.751 211.875 208.644C212.772 209.543 214.012 210.052 215.285 210.052C216.554 210.052 217.794 209.543 218.696 208.644C219.593 207.751 220.109 206.511 220.109 205.248C220.109 203.984 219.594 202.744 218.696 201.851C217.794 200.957 216.553 200.443 215.285 200.443Z" fill="#666666"/>
<path d="M149.788 65.4814C108.522 65.4814 74.9492 98.9178 74.9492 140.017C74.9492 181.117 108.522 214.553 149.788 214.553C191.054 214.553 224.627 181.117 224.627 140.017C224.627 98.9178 191.054 65.4814 149.788 65.4814ZM149.788 204.943C113.842 204.943 84.5978 175.817 84.5978 140.017C84.5978 104.217 113.842 75.091 149.788 75.091C185.734 75.091 214.978 104.217 214.978 140.017C214.978 175.817 185.734 204.943 149.788 204.943Z" fill="#666666"/>
<path d="M180.303 102.829L156.408 126.627C154.41 125.643 152.162 125.087 149.786 125.087C147.41 125.087 145.163 125.643 143.164 126.627L132.47 115.976C130.586 114.1 127.532 114.1 125.647 115.976C123.763 117.852 123.763 120.895 125.647 122.771L136.341 133.421C135.353 135.412 134.795 137.65 134.795 140.017C134.795 148.249 141.52 154.947 149.786 154.947C158.053 154.947 164.777 148.249 164.777 140.017C164.777 137.65 164.219 135.412 163.231 133.421L186.424 110.322L187.125 109.624C189.009 107.748 189.009 104.705 187.125 102.829C185.241 100.953 182.187 100.953 180.303 102.829ZM149.786 145.338C146.84 145.338 144.444 142.951 144.444 140.017C144.444 137.083 146.84 134.696 149.786 134.696C152.732 134.696 155.129 137.083 155.129 140.017C155.129 142.951 152.732 145.338 149.786 145.338Z" fill="#666666"/>
<path d="M201.368 135.271H196.898C194.235 135.271 192.074 137.422 192.074 140.076C192.074 142.729 194.235 144.88 196.898 144.88H201.368C204.032 144.88 206.192 142.729 206.192 140.076C206.192 137.422 204.032 135.271 201.368 135.271Z" fill="#666666"/>
<path d="M102.676 135.154H98.207C95.5431 135.154 93.3828 137.305 93.3828 139.958C93.3828 142.612 95.5431 144.763 98.207 144.763H102.676C105.34 144.763 107.5 142.612 107.5 139.958C107.5 137.305 105.34 135.154 102.676 135.154Z" fill="#666666"/>
<path d="M149.848 97.9008C152.512 97.9008 154.672 95.7497 154.672 93.0961V88.645C154.672 85.9914 152.512 83.8403 149.848 83.8403C147.184 83.8403 145.023 85.9914 145.023 88.645V93.0961C145.023 95.7497 147.184 97.9008 149.848 97.9008Z" fill="#666666"/>
<path d="M149.73 182.133C147.067 182.133 144.906 184.284 144.906 186.938V191.389C144.906 194.043 147.067 196.194 149.73 196.194C152.394 196.194 154.555 194.043 154.555 191.389V186.938C154.555 184.284 152.394 182.133 149.73 182.133Z" fill="#666666"/>
<path d="M5.05859 164.859C3.78982 164.859 2.54518 165.373 1.64787 166.267C0.750566 167.16 0.234375 168.4 0.234375 169.664C0.234375 170.932 0.750084 172.167 1.64787 173.06C2.54566 173.954 3.78982 174.468 5.05859 174.468C6.32736 174.468 7.57201 173.954 8.46883 173.06C9.36614 172.167 9.88281 170.927 9.88281 169.664C9.88281 168.4 9.36662 167.16 8.46883 166.267C7.57201 165.373 6.32736 164.859 5.05859 164.859Z" fill="#666666"/>
</svg>
