<svg width="168" height="238" viewBox="0 0 168 238" fill="none" xmlns="http://www.w3.org/2000/svg">
<path d="M146.528 41.8524H145.778V42.6024V63.4382C145.778 87.3055 132.118 108.056 112.175 118.334L110.881 119L112.175 119.667C132.118 129.945 145.778 150.695 145.778 174.563V195.399V196.149H146.528H166.685V236.32H0.921875V196.149H21.0798H21.8298V195.399V174.563C21.8298 150.695 35.489 129.945 55.4327 119.667L56.7264 119L55.4327 118.334C35.489 108.056 21.8298 87.3055 21.8298 63.4382V42.6024V41.8524H21.0798H0.921875V1.68066H166.685V41.8524H146.528ZM13.3605 28.7118V29.4618H14.1105H14.1345H14.1614H14.1911H14.2237H14.2591H14.2973H14.3383H14.3821H14.4288H14.4781H14.5303H14.5852H14.6429H14.7032H14.7663H14.8322H14.9007H14.9719H15.0457H15.1223H15.2015H15.2833H15.3678H15.4548H15.5445H15.6368H15.7317H15.8292H15.9292H16.0317H16.1369H16.2445H16.3547H16.4673H16.5825H16.7002H16.8203H16.9429H17.0679H17.1954H17.3253H17.4577H17.5924H17.7296H17.8691H18.011H18.1553H18.3019H18.4509H18.6022H18.7558H18.9117H19.0699H19.2304H19.3932H19.5583H19.7256H19.8951H20.0669H20.2408H20.417H20.5954H20.776H20.9588H21.1437H21.3307H21.52H21.7113H21.9048H22.1003H22.298H22.4977H22.6995H22.9034H23.1094H23.3173H23.5274H23.7394H23.9534H24.1694H24.3875H24.6074H24.8294H25.0533H25.2791H25.5069H25.7366H25.9682H26.2017H26.4371H26.6743H26.9135H27.1544H27.3972H27.6419H27.8883H28.1366H28.3866H28.6385H28.8921H29.1475H29.4046H29.6635H29.9241H30.1864H30.4504H30.7161H30.9835H31.2526H31.5234H31.7957H32.0698H32.3454H32.6227H32.9016H33.1821H33.4641H33.7478H34.033H34.3197H34.608H34.8978H35.1891H35.482H35.7763H36.0721H36.3694H36.6682H36.9684H37.27H37.5731H37.8776H38.1835H38.4908H38.7994H39.1095H39.4209H39.7336H40.0477H40.3632H40.6799H40.998H41.3173H41.6379H41.9598H42.283H42.6074H42.933H43.2599H43.588H43.9173H44.2478H44.5795H44.9123H45.2463H45.5815H45.9178H46.2552H46.5937H46.9334H47.2741H47.6159H47.9588H48.3028H48.6478H48.9938H49.3409H49.689H50.0381H50.3881H50.7392H51.0913H51.4442H51.7982H52.1531H52.5089H52.8656H53.2233H53.5818H53.9412H54.3015H54.6626H55.0246H55.3874H55.7511H56.1156H56.4808H56.8469H57.2138H57.5814H57.9498H58.3189H58.6888H59.0594H59.4307H59.8027H60.1754H60.5488H60.9228H61.2976H61.6729H62.0489H62.4256H62.8028H63.1807H63.5591H63.9381H64.3177H64.6979H65.0786H65.4598H65.8416H66.2239H66.6067H66.9899H67.3737H67.7579H68.1426H68.5278H68.9133H69.2993H69.6857H70.0726H70.4598H70.8474H71.2353H71.6236H72.0123H72.4013H72.7907H73.1803H73.5703H73.9605H74.351H74.7418H75.1329H75.5242H75.9157H76.3074H76.6994H77.0916H77.484H77.8765H78.2692H78.6621H79.0551H79.4483H79.8416H80.235H80.6285H81.0221H81.4158H81.8095H82.2033H82.5972H82.991H83.3849H83.7789H84.1728H84.5667H84.9606H85.3545H85.7483H86.1421H86.5358H86.9294H87.323H87.7164H88.1098H88.503H88.8961H89.289H89.6818H90.0744H90.4669H90.8591H91.2512H91.6431H92.0347H92.4261H92.8173H93.2082H93.5988H93.9892H94.3793H94.7691H95.1585H95.5477H95.9365H96.325H96.7131H97.1009H97.4883H97.8753H98.2619H98.6481H99.0338H99.4192H99.8041H100.188H100.572H100.956H101.339H101.721H102.104H102.485H102.866H103.246H103.626H104.005H104.384H104.762H105.14H105.517H105.893H106.269H106.644H107.018H107.392H107.765H108.137H108.509H108.88H109.25H109.619H109.988H110.356H110.723H111.09H111.455H111.82H112.184H112.547H112.91H113.271H113.632H113.992H114.351H114.709H115.066H115.422H115.777H116.132H116.485H116.838H117.189H117.54H117.889H118.238H118.585H118.932H119.277H119.622H119.965H120.307H120.649H120.989H121.328H121.666H122.003H122.338H122.673H123.006H123.338H123.669H123.999H124.328H124.655H124.981H125.306H125.63H125.953H126.274H126.594H126.912H127.23H127.546H127.86H128.174H128.486H128.796H129.106H129.414H129.72H130.025H130.329H130.631H130.932H131.232H131.53H131.826H132.121H132.415H132.707H132.997H133.286H133.574H133.859H134.144H134.427H134.708H134.987H135.265H135.542H135.817H136.09H136.361H136.631H136.899H137.166H137.43H137.694H137.955H138.215H138.472H138.729H138.983H139.236H139.487H139.736H139.983H140.228H140.472H140.714H140.954H141.192H141.428H141.662H141.895H142.125H142.354H142.581H142.806H143.028H143.249H143.468H143.685H143.9H144.113H144.324H144.533H144.74H144.945H145.147H145.348H145.547H145.743H145.938H146.13H146.32H146.508H146.694H146.878H147.059H147.239H147.416H147.591H147.764H147.934H148.102H148.268H148.432H148.594H148.753H148.91H149.065H149.217H149.367H149.515H149.66H149.803H149.944H150.082H150.218H150.351H150.482H150.611H150.737H150.861H150.982H151.101H151.217H151.331H151.442H151.551H151.657H151.761H151.862H151.961H152.057H152.15H152.241H152.329H152.415H152.498H152.578H152.656H152.731H152.804H152.873H152.94H153.005H153.066H153.125H153.181H153.235H153.285H153.333H153.378H153.421H153.46H153.497H154.247V28.7118V14.8212V14.0712H153.497H14.1105H13.3605V14.8212V28.7118ZM133.339 42.6024V41.8524H132.589H35.0185H34.2685V42.6024V56.4929V57.2429H35.0185H132.589H133.339V56.4929V42.6024ZM77.5844 126.444V125.579L76.728 125.702C56.2699 128.631 39.8125 144.061 35.4239 163.954L35.1268 165.301L36.4189 164.818L77.0969 149.616L77.5844 149.434V148.914V126.444ZM154.247 209.289V208.539H153.497H14.1105H13.3605V209.289V223.18V223.93H14.1105H14.1522H14.1966H14.2438H14.2936H14.346H14.4012H14.459H14.5194H14.5825H14.6482H14.7164H14.7873H14.8608H14.9369H15.0155H15.0967H15.1804H15.2667H15.3555H15.4468H15.5406H15.637H15.7357H15.837H15.9407H16.0469H16.1555H16.2666H16.38H16.4959H16.6142H16.7349H16.8579H16.9833H17.1111H17.2412H17.3736H17.5084H17.6454H17.7848H17.9265H18.0704H18.2167H18.3652H18.5159H18.6689H18.8241H18.9815H19.1411H19.3029H19.4669H19.6331H19.8015H19.972H20.1446H20.3194H20.4963H20.6753H20.8564H21.0396H21.2249H21.4123H21.6017H21.7931H21.9866H22.1822H22.3797H22.5793H22.7808H22.9843H23.1898H23.3973H23.6067H23.8181H24.0313H24.2465H24.4637H24.6827H24.9036H25.1264H25.351H25.5775H25.8059H26.0361H26.2681H26.5019H26.7376H26.975H27.2142H27.4552H27.698H27.9424H28.1887H28.4367H28.6863H28.9377H29.1908H29.4456H29.7021H29.9602H30.22H30.4814H30.7444H31.0091H31.2754H31.5433H31.8128H32.0839H32.3565H32.6307H32.9065H33.1838H33.4626H33.7429H34.0247H34.3081H34.5929H34.8792H35.167H35.4562H35.7468H36.0389H36.3325H36.6274H36.9237H37.2214H37.5205H37.821H38.1228H38.426H38.7305H39.0363H39.3435H39.6519H39.9617H40.2727H40.585H40.8986H41.2134H41.5295H41.8468H42.1653H42.4851H42.806H43.1281H43.4514H43.7759H44.1015H44.4282H44.7561H45.0852H45.4153H45.7466H46.0789H46.4123H46.7468H47.0824H47.419H47.7566H48.0953H48.435H48.7757H49.1174H49.4601H49.8037H50.1483H50.4939H50.8405H51.1879H51.5363H51.8856H52.2358H52.5869H52.9389H53.2917H53.6454H54H54.3554H54.7116H55.0686H55.4265H55.7851H56.1445H56.5047H56.8657H57.2274H57.5899H57.9531H58.317H58.6816H59.0469H59.413H59.7797H60.147H60.5151H60.8837H61.253H61.623H61.9935H62.3647H62.7364H63.1088H63.4817H63.8551H64.2292H64.6037H64.9788H65.3544H65.7306H66.1072H66.4843H66.8619H67.24H67.6185H67.9974H68.3768H68.7567H69.1369H69.5175H69.8986H70.28H70.6618H71.0439H71.4264H71.8092H72.1924H72.5759H72.9597H73.3438H73.7282H74.1128H74.4977H74.8829H75.2683H75.654H76.0399H76.426H76.8123H77.1987H77.5854H77.9722H78.3592H78.7464H79.1337H79.5211H79.9086H80.2962H80.684H81.0718H81.4597H81.8476H82.2356H82.6237H83.0118H83.3999H83.788H84.1761H84.5642H84.9523H85.3403H85.7284H86.1163H86.5042H86.892H87.2798H87.6674H88.055H88.4424H88.8297H89.2168H89.6038H89.9907H90.3774H90.7639H91.1502H91.5363H91.9222H92.3079H92.6933H93.0785H93.4634H93.8481H94.2325H94.6166H95.0005H95.384H95.7672H96.15H96.5326H96.9148H97.2966H97.678H98.0591H98.4398H98.82H99.1999H99.5793H99.9583H100.337H100.715H101.093H101.47H101.846H102.223H102.598H102.973H103.348H103.722H104.096H104.469H104.841H105.213H105.584H105.955H106.325H106.694H107.063H107.431H107.798H108.165H108.531H108.896H109.261H109.625H109.988H110.351H110.713H111.074H111.434H111.793H112.152H112.51H112.867H113.224H113.579H113.934H114.287H114.64H114.992H115.344H115.694H116.043H116.392H116.739H117.086H117.431H117.776H118.12H118.463H118.805H119.145H119.485H119.824H120.162H120.498H120.834H121.169H121.502H121.834H122.166H122.496H122.825H123.153H123.48H123.806H124.13H124.454H124.776H125.097H125.417H125.735H126.053H126.369H126.684H126.998H127.31H127.621H127.931H128.24H128.547H128.853H129.158H129.461H129.763H130.063H130.363H130.66H130.957H131.252H131.546H131.838H132.129H132.418H132.706H132.992H133.277H133.561H133.843H134.123H134.402H134.68H134.955H135.23H135.503H135.774H136.043H136.311H136.578H136.843H137.106H137.368H137.627H137.886H138.142H138.397H138.65H138.902H139.152H139.4H139.646H139.891H140.134H140.375H140.614H140.852H141.088H141.322H141.554H141.784H142.013H142.24H142.464H142.687H142.908H143.128H143.345H143.56H143.774H143.985H144.195H144.403H144.608H144.812H145.014H145.213H145.411H145.607H145.8H145.992H146.182H146.369H146.555H146.738H146.919H147.099H147.276H147.451H147.624H147.794H147.963H148.129H148.293H148.455H148.615H148.773H148.928H149.081H149.232H149.381H149.527H149.672H149.813H149.953H150.09H150.225H150.358H150.488H150.616H150.742H150.865H150.986H151.104H151.221H151.334H151.446H151.554H151.661H151.765H151.866H151.965H152.062H152.156H152.247H152.336H152.423H152.507H152.588H152.667H152.743H152.817H152.888H152.957H153.023H153.086H153.147H153.205H153.26H153.313H153.363H153.41H153.455H153.497H154.247V223.18V209.289ZM34.2685 195.399V196.149H35.0185H132.589H133.339V195.399V179.376V178.855L132.851 178.673L84.0657 160.442L83.8032 160.344L83.5406 160.442L34.7559 178.673L34.2685 178.855V179.376V195.399ZM131.188 164.818L132.481 165.301L132.183 163.954C127.795 144.061 111.337 128.631 90.8793 125.702L90.023 125.579V126.444V148.914V149.434L90.5104 149.616L131.188 164.818ZM35.5184 69.6335H34.6525L34.7761 70.4905C38.2209 94.3845 58.893 112.805 83.8037 112.805C108.715 112.805 129.386 94.3844 132.831 70.4905L132.955 69.6335H132.089H35.5184Z" fill="#666666" stroke="white" stroke-width="1.5"/>
</svg>
