<svg width="23" height="22" viewBox="0 0 23 22" fill="none" xmlns="http://www.w3.org/2000/svg">
<path d="M0.00999975 2.2C0.58 1.65 1.71 0.55 2.28 0C5.09 3.02 8.11 5.85 11 8.79C13.96 5.92 16.87 2.99 19.74 0.04C20.32 0.57 21.47 1.63 22.05 2.16C19.1 5.12 16.14 8.07 13.19 11.04C16.2 13.91 19.08 16.9 22.01 19.85C21.44 20.38 20.31 21.44 19.74 21.97C16.89 19 13.93 16.13 11.03 13.22C8.08 16.11 5.16 19.02 2.29 21.98C1.71 21.45 0.57 20.38 0 19.84C2.95 16.9 5.86 13.92 8.84 11C5.86 8.1 2.97 5.12 0.00999975 2.2Z" fill="white"/>
</svg>
