<svg width="676" height="669" viewBox="0 0 676 669" fill="none" xmlns="http://www.w3.org/2000/svg">
<path fill-rule="evenodd" clip-rule="evenodd" d="M248.753 129.347C188.876 142.916 112.527 140.495 80.7324 193.016C49.0038 245.428 90.5388 310.904 102.463 371C113.179 425.002 112.274 483.013 146.787 525.908C182.504 570.299 235.698 601.828 292.43 607.102C346.449 612.124 397.513 584.64 441.823 553.335C479.982 526.376 497.551 482.537 523.621 443.765C552.561 400.724 603.935 366.013 602.637 314.163C601.325 261.745 556.057 221.895 517.187 186.702C481.376 154.278 438.382 132.764 391.139 122.67C343.508 112.493 296.255 118.581 248.753 129.347Z" fill="url(#paint0_linear)"/>
<path d="M580.299 623.788C580.299 623.788 477.443 635.03 350.625 635.03C223.806 635.03 121 623.788 121 623.788C121 623.788 223.806 612.545 350.625 612.545C477.443 612.545 580.299 623.788 580.299 623.788Z" fill="#E0E0E0"/>
<path d="M298.949 567.28L298.16 575.169L391.105 572.26L390.266 567.724L298.949 567.28Z" fill="url(#paint1_linear)"/>
<path d="M299.394 505.449L287.363 622.899H292.737L310.192 506.681L299.394 505.449Z" fill="url(#paint2_linear)"/>
<path d="M390.267 505.449L402.347 622.899H396.923L379.518 506.681L390.267 505.449Z" fill="url(#paint3_linear)"/>
<path d="M291.802 504.267C291.971 505.393 292.526 506.426 293.371 507.19C294.216 507.954 295.299 508.402 296.437 508.458L390.762 510.726C392.07 510.726 393.324 510.206 394.248 509.282C395.173 508.357 395.693 507.103 395.693 505.795V504.661C395.57 503.441 394.997 502.31 394.085 501.489C393.173 500.669 391.988 500.217 390.762 500.223L296.486 499.139C295.187 499.203 293.965 499.777 293.088 500.738C292.21 501.699 291.748 502.967 291.802 504.267Z" fill="#7C2D27"/>
<path d="M381.146 501.308C370.84 502.406 360.419 501.553 350.428 498.793L346.68 479.711C346.68 479.711 379.914 488.833 381.146 501.308Z" fill="url(#paint4_radial)"/>
<path d="M339.826 608.402L339.234 619.595L341.305 620.433C341.305 620.433 336.374 626.448 357.872 627.089C358.47 625.739 358.697 624.253 358.532 622.786C358.367 621.318 357.814 619.921 356.931 618.737C356.048 617.553 354.867 616.625 353.507 616.048C352.147 615.471 350.659 615.265 349.194 615.453C348.064 613.697 347.153 611.809 346.482 609.832L339.826 608.402Z" fill="#100F23"/>
<path d="M295.646 466.003C292.737 485.085 293.575 498.792 303.93 501.307C314.496 503.275 325.163 504.657 335.881 505.449L337.755 610.276C337.755 610.276 349.589 612.545 349.589 610.276C349.589 608.008 363.296 516.888 362.063 501.8C360.831 486.712 337.952 480.203 337.952 480.203L338.396 469.454L295.646 466.003Z" fill="#222222"/>
<path d="M342.537 403.333C331.929 387.185 325.181 368.812 322.814 349.637L310.98 312.558L342.537 313.001C342.537 313.001 376.165 316.305 374.094 317.143C372.023 317.981 361.027 356.145 361.027 356.145C361.027 356.145 352.103 392.091 342.537 403.333Z" fill="url(#paint5_linear)"/>
<path d="M350.181 381.045L351.216 391.696C348.679 395.828 345.775 399.722 342.538 403.332C339.28 399.716 336.344 395.822 333.761 391.696L334.797 381.045L339.728 331.738L331.838 324.243L342.637 312.656L353.484 324.44L345.595 331.935L350.181 381.045Z" fill="url(#paint6_radial)"/>
<path d="M346.285 471.426C344.214 473.891 298.112 470.982 294.365 469.355C292.738 468.566 293.28 461.515 294.365 451.506C296.045 436.772 296.276 421.908 295.055 407.129C294.217 400.275 292.047 398.155 289.286 398.747C281.249 400.571 268.084 426.211 268.084 426.211C267.671 425.906 267.291 425.559 266.95 425.176C256.447 413.983 262.019 373.501 267.295 347.516V346.481C268.478 340.465 269.612 335.337 270.451 331.689C271.289 328.04 272.028 325.032 272.028 325.032L312.707 311.325C312.707 311.325 318.328 328.484 324.935 348.207C324.935 348.65 325.28 349.094 325.428 349.587C332.972 371.973 341.601 397.12 344.658 403.825C345.83 406.85 346.592 410.017 346.926 413.243C346.926 414.328 347.222 415.413 347.37 416.596C349.54 436.664 347.913 469.454 346.285 471.426Z" fill="url(#paint7_radial)"/>
<path style="mix-blend-mode:multiply" opacity="0.5" d="M346.878 413.146C346.533 414.281 346.089 415.415 345.645 416.499C341.511 426.757 334.427 435.558 325.291 441.789C316.154 448.02 305.375 451.403 294.316 451.508H292.64C294.346 436.775 294.577 421.909 293.33 407.131C292.689 401.707 291.21 399.242 289.238 398.749C282.384 396.924 269.515 420 266.901 425.177C256.399 413.985 261.971 373.503 267.247 347.518V346.483C268.43 340.467 269.564 335.339 270.402 331.691C279.82 327.401 295.056 321.829 303.34 321.829C314.089 321.829 314.73 342.785 323.063 348.11L325.183 349.491C332.727 371.876 341.356 397.023 344.413 403.729C345.652 406.744 346.481 409.911 346.878 413.146Z" fill="url(#paint8_radial)"/>
<path d="M342.537 403.332C339.28 399.716 336.343 395.822 333.761 391.696C326.217 380.207 317.292 364.379 317.588 360.977C318.004 357.551 318.987 354.219 320.497 351.116C320.497 351.116 313.841 351.559 312.608 348.65C311.375 345.741 305.557 312.114 305.557 312.114L313.002 305.457C313.002 305.457 325.181 350.524 334.796 381.144C337.804 390.364 340.516 398.352 342.537 403.332Z" fill="#266686"/>
<path d="M394.409 362.457C399.845 357.734 404.293 351.983 407.5 345.535C410.707 339.088 412.609 332.07 413.097 324.885L372.418 311.178C372.418 311.178 348.356 392.141 342.538 404.862C336.719 417.583 336.719 468.962 338.79 471.279C340.861 473.596 390.662 469.208 394.409 467.532C398.156 465.855 386.964 433.904 390.267 406.933C393.571 379.962 394.409 362.457 394.409 362.457Z" fill="url(#paint9_radial)"/>
<path d="M293.28 440.364L293.181 444.654L308.417 447.317L309.009 443.471L293.28 440.364Z" fill="#1B2636"/>
<path d="M288.448 560.919C287.93 565.391 286.75 569.761 284.948 573.887L280.017 572.358L280.559 570.189C276.745 571.308 272.712 571.46 268.824 570.632C264.886 569.046 261.049 567.219 257.335 565.159C258.847 563.77 260.632 562.71 262.576 562.048C264.52 561.386 266.581 561.135 268.627 561.313C272.801 561.725 276.872 562.86 280.658 564.666L284.553 560.524L288.448 560.919Z" fill="#100F23"/>
<path d="M269.662 560.477C270.204 560.97 275.036 564.816 275.036 564.816H277.107L274.001 560.772L269.662 560.477Z" fill="#696A77"/>
<path d="M393.177 440.364L393.275 444.654L378.039 447.317L377.448 443.471L393.177 440.364Z" fill="#1B2636"/>
<path d="M348.553 485.923C341.058 502.539 289.384 568.956 289.384 568.956L281.101 561.462C281.101 561.462 320.941 468.517 330.063 458.557C339.185 448.597 389.232 459.346 394.804 471.821C400.375 484.296 390.267 500.863 381.54 501.405C369.065 501.849 348.553 485.923 348.553 485.923Z" fill="#333333"/>
<path d="M349.194 612.545C348.553 612.545 342.538 613.975 342.538 613.975L344.411 616.49L349.983 614.419L349.194 612.545Z" fill="#696A77"/>
<path d="M437.307 425.325C436.518 430.256 383.069 425.325 383.069 425.325L387.605 409.152L408.758 403.334L397.861 372.467L394.41 362.606C394.41 362.606 398.551 338.297 413.097 325.034C418.075 332.666 421.943 340.967 424.586 349.687C429.254 364.945 432.652 380.563 434.743 396.382C436.351 405.948 437.208 415.625 437.307 425.325Z" fill="url(#paint10_radial)"/>
<path d="M434.743 396.38L408.512 403.579L397.861 372.466C404.912 366.302 418.669 354.32 424.586 349.636C429.257 364.91 432.655 380.545 434.743 396.38Z" fill="url(#paint11_radial)"/>
<path d="M347.814 417.582C347.823 418.111 347.676 418.63 347.389 419.075C347.102 419.519 346.69 419.868 346.204 420.077C345.719 420.286 345.182 420.346 344.662 420.249C344.143 420.152 343.664 419.902 343.286 419.532C342.909 419.161 342.65 418.687 342.544 418.169C342.437 417.651 342.487 417.114 342.687 416.624C342.887 416.135 343.228 415.716 343.667 415.421C344.106 415.126 344.622 414.969 345.151 414.969C345.849 414.969 346.518 415.242 347.016 415.731C347.514 416.22 347.801 416.884 347.814 417.582Z" fill="black"/>
<path d="M347.667 444.849C347.579 445.487 347.264 446.071 346.779 446.494C346.294 446.917 345.672 447.15 345.029 447.15C344.385 447.15 343.763 446.917 343.278 446.494C342.793 446.071 342.478 445.487 342.391 444.849C342.478 444.211 342.793 443.627 343.278 443.204C343.763 442.781 344.385 442.548 345.029 442.548C345.672 442.548 346.294 442.781 346.779 443.204C347.264 443.627 347.579 444.211 347.667 444.849Z" fill="#1B2636"/>
<path d="M324.54 287.903C323.702 288.692 318.476 308.07 318.476 308.07L342.538 313.001L367.438 306.344L363.345 285.438L324.54 287.903Z" fill="url(#paint12_linear)"/>
<path d="M305.114 243.527C305.114 243.527 294.07 244.316 292.294 246.535C290.519 248.753 294.365 264.581 296.387 266.258C298.409 267.934 309.256 266.258 309.256 266.258L305.114 243.527Z" fill="url(#paint13_linear)"/>
<path d="M371.729 235.689C371.729 235.689 382.676 233.964 384.845 235.689C387.015 237.415 386.916 253.687 385.388 255.856C383.859 258.026 372.814 258.667 372.814 258.667L371.729 235.689Z" fill="#FABE82"/>
<path d="M374.589 204.377C374.145 208.223 371.975 229.721 371.926 229.869C371.926 231.003 371.926 232.68 372.222 234.8C373.208 248.409 376.462 278.831 372.863 286.622C371.175 289.454 368.589 291.64 365.516 292.835C365.212 293.032 364.879 293.182 364.53 293.278C362.162 294.32 359.723 295.194 357.232 295.892C353.267 297.003 349.231 297.843 345.152 298.406H344.117H343.229C339.764 298.604 336.29 298.604 332.825 298.406C330.243 298.301 327.672 298.004 325.133 297.519H324.048C320.791 297.095 317.779 295.563 315.518 293.18C310.292 286.474 306.544 256.051 304.424 242.59C304.079 240.569 303.832 238.942 303.586 237.66C303.586 237.66 296.535 217.098 295.204 213.45C293.872 209.801 303.438 203.588 303.438 203.588C303.438 203.588 294.415 191.853 309.503 181.104C311.204 179.892 313.133 179.036 315.173 178.589C316.052 178.393 316.941 178.245 317.836 178.145C324.338 177.774 330.845 178.8 336.918 181.153L338.15 181.597C347.726 184.846 356.607 189.864 364.333 196.389C364.333 196.389 375.032 200.58 374.589 204.377Z" fill="url(#paint14_linear)"/>
<path d="M374.589 204.377C374.145 208.223 371.975 229.721 371.926 229.869C371.926 231.003 371.926 232.68 372.222 234.8L304.424 242.59C304.079 240.569 303.832 238.942 303.586 237.66C303.586 237.66 296.535 217.098 295.204 213.45C293.872 209.801 303.438 203.588 303.438 203.588C303.438 203.588 294.415 191.853 309.503 181.104C311.204 179.892 313.133 179.036 315.173 178.589C316.052 178.393 316.941 178.245 317.836 178.145C324.338 177.774 330.845 178.8 336.918 181.153L338.15 181.597C347.726 184.846 356.607 189.864 364.333 196.389C364.333 196.389 375.032 200.58 374.589 204.377Z" fill="url(#paint15_linear)"/>
<g style="mix-blend-mode:screen" opacity="0.5">
<g style="mix-blend-mode:screen" opacity="0.5">
<path d="M325.132 297.767H324.047C319.761 286.433 317.362 274.474 316.947 262.364H317.835C318.231 274.494 320.699 286.468 325.132 297.767Z" fill="#BA5C47"/>
</g>
</g>
<g style="mix-blend-mode:screen" opacity="0.5">
<g style="mix-blend-mode:screen" opacity="0.5">
<path d="M364.528 293.083C364.878 292.986 365.21 292.836 365.514 292.639C367.166 280.648 366.8 268.465 364.43 256.595L363.591 256.842C365.94 268.783 366.257 281.036 364.528 293.083Z" fill="#BA5C47"/>
</g>
</g>
<g style="mix-blend-mode:screen" opacity="0.5">
<g style="mix-blend-mode:screen" opacity="0.5">
<path d="M322.42 206.5V207.338C313.298 204.281 308.072 197.92 308.515 190.425C308.666 188.032 309.368 185.705 310.565 183.627C311.762 181.549 313.423 179.775 315.418 178.444C316.297 178.248 317.186 178.1 318.081 178C315.586 179.058 313.43 180.781 311.847 182.981C310.264 185.181 309.317 187.773 309.107 190.475C308.762 197.575 313.742 203.541 322.42 206.5Z" fill="#BA5C47"/>
</g>
</g>
<g style="mix-blend-mode:screen" opacity="0.5">
<g style="mix-blend-mode:screen" opacity="0.5">
<path d="M343.623 204.081V204.919C339.991 204.025 336.833 201.789 334.783 198.66C332.734 195.531 331.946 191.742 332.578 188.056C332.733 186.609 333.242 185.223 334.058 184.02C334.875 182.816 335.976 181.831 337.262 181.153L338.495 181.597C337.147 182.141 335.974 183.045 335.105 184.21C334.235 185.375 333.702 186.757 333.564 188.204C332.914 191.632 333.592 195.18 335.459 198.128C337.327 201.076 340.245 203.204 343.623 204.081Z" fill="#BA5C47"/>
</g>
</g>
<g style="mix-blend-mode:screen" opacity="0.5">
<g style="mix-blend-mode:screen" opacity="0.5">
<path d="M344.115 298.261H343.228C341.184 289.487 339.816 280.569 339.135 271.585H340.023C340.708 280.568 342.076 289.486 344.115 298.261Z" fill="#BA5C47"/>
</g>
</g>
<path d="M366.306 213.352L364.087 206.843C363.463 204.998 362.217 203.428 360.561 202.402C358.905 201.377 356.944 200.959 355.014 201.222C355.014 201.222 339.729 204.822 334.503 205.463C329.276 206.104 313.547 205.956 313.547 205.956C311.612 206.151 309.805 207.008 308.43 208.383C307.055 209.758 306.198 211.565 306.003 213.5L305.313 220.354C304.174 231.763 305.658 243.282 309.652 254.031L310.983 257.679C311.63 259.424 312.838 260.903 314.418 261.885C315.998 262.867 317.86 263.296 319.71 263.103L337.855 261.229L340.863 260.884L343.871 260.539L361.967 258.271C363.817 258.027 365.534 257.179 366.853 255.86C368.173 254.541 369.02 252.823 369.264 250.973L369.757 247.128C371.185 235.753 370.004 224.203 366.306 213.352Z" fill="#FABE82"/>
<path d="M361.769 227.603C364.234 244.368 361.769 248.263 361.769 248.263L341.109 251.517C341.109 251.517 338.791 253.144 338.989 241.656C338.794 236.588 339.258 231.516 340.369 226.568L350.872 225.877L361.769 227.603Z" fill="url(#paint16_linear)"/>
<path d="M361.126 237.957C360.503 239.881 359.745 241.76 358.858 243.578C358.382 243.871 357.839 244.041 357.28 244.071C354.723 244.498 352.132 244.696 349.539 244.662C349.249 244.742 348.942 244.742 348.652 244.662C347.863 244.268 346.531 239.091 346.531 239.091C347.438 238.209 348.524 237.533 349.715 237.107C350.906 236.682 352.174 236.518 353.434 236.625C356.059 236.587 358.667 237.038 361.126 237.957Z" fill="white"/>
<path d="M357.281 244.07C354.723 244.497 352.133 244.695 349.54 244.661C348.956 243.956 348.581 243.102 348.455 242.196C348.179 241.493 348.068 240.735 348.13 239.982C348.193 239.229 348.428 238.5 348.818 237.852C349.207 237.205 349.74 236.655 350.375 236.246C351.011 235.837 351.732 235.58 352.483 235.493C353.234 235.407 353.994 235.495 354.706 235.75C355.417 236.005 356.061 236.419 356.586 236.962C357.112 237.505 357.506 238.162 357.738 238.881C357.969 239.6 358.032 240.363 357.922 241.111C358.024 242.14 357.8 243.175 357.281 244.07Z" fill="#825035"/>
<path d="M346.532 238.893L345.792 238.104C345.792 238.104 347.025 235.146 352.893 234.899C354.418 234.727 355.962 234.87 357.429 235.319C358.897 235.769 360.256 236.515 361.423 237.512L361.127 237.956C358.501 236.712 355.588 236.201 352.695 236.477C350.424 236.548 348.247 237.401 346.532 238.893Z" fill="url(#paint17_linear)"/>
<path d="M312.806 233.273C312.806 249.889 317.145 253.39 317.145 253.39L338.052 251.911C337.562 245.049 336.706 238.219 335.488 231.448C334.255 224.545 332.283 224.545 332.283 224.545L321.484 226.912L312.806 233.273Z" fill="url(#paint18_linear)"/>
<path d="M343.622 253.39C339.924 244.219 338.691 221.686 341.058 217.248L330.309 218.037C333.711 221.784 337.902 244.466 336.324 254.229C333.612 252.947 330.605 254.87 331.788 257.434C332.971 259.998 337.409 260.737 340.713 260.343C344.016 259.948 348.306 257.631 348.75 255.412C349.194 253.193 346.087 251.763 343.622 253.39Z" fill="url(#paint19_linear)"/>
<path d="M328.831 268.181C338.249 270.054 349.491 268.772 354.915 263.25C353.76 265.543 352.093 267.539 350.042 269.083C347.992 270.628 345.613 271.679 343.09 272.156C340.568 272.633 337.97 272.522 335.497 271.833C333.024 271.144 330.743 269.894 328.831 268.181Z" fill="url(#paint20_linear)"/>
<path d="M332.479 217.69C333.515 221.379 333.997 225.201 333.909 229.031C326.298 228.86 318.811 230.973 312.411 235.096C311.554 233.455 310.956 231.692 310.636 229.869C311.489 228.193 312.623 226.675 313.989 225.382C314.605 226.325 315.298 227.216 316.06 228.045C315.799 226.811 315.47 225.593 315.074 224.396C319.068 221.281 323.813 219.274 328.831 218.578L332.381 226.714L331.493 217.937L332.479 217.69Z" fill="url(#paint21_linear)"/>
<path d="M330.161 240.815C330.2 242.816 329.934 244.811 329.372 246.732C329.123 246.91 328.836 247.028 328.534 247.077C325.994 247.7 323.403 248.096 320.793 248.26C320.259 248.394 319.7 248.394 319.166 248.26C317.901 246.7 316.747 245.052 315.714 243.329C317.31 240.937 319.704 239.19 322.469 238.399C323.851 238.088 325.289 238.148 326.64 238.572C327.991 238.997 329.206 239.77 330.161 240.815Z" fill="white"/>
<path d="M328.535 247.078C325.995 247.701 323.405 248.097 320.794 248.261C320.113 247.506 319.683 246.559 319.561 245.549C319.38 244.758 319.396 243.935 319.609 243.151C319.822 242.368 320.224 241.649 320.782 241.059C321.339 240.469 322.033 240.026 322.803 239.768C323.573 239.511 324.395 239.447 325.195 239.584C325.995 239.72 326.749 240.052 327.39 240.549C328.031 241.047 328.54 241.695 328.87 242.437C329.201 243.178 329.343 243.99 329.285 244.799C329.226 245.609 328.969 246.392 328.535 247.078Z" fill="#825035"/>
<path d="M330.161 240.766L330.704 239.829C329.576 238.892 328.232 238.252 326.793 237.968C325.355 237.684 323.868 237.764 322.469 238.202C320.991 238.339 319.569 238.832 318.323 239.639C317.078 240.446 316.047 241.544 315.32 242.837L315.714 243.182C317.723 241.212 320.32 239.948 323.11 239.583C325.527 239.165 328.013 239.583 330.161 240.766Z" fill="url(#paint22_linear)"/>
<path d="M376.757 254.474C378.773 254.237 380.658 253.355 382.132 251.959C383.857 249.938 382.575 238.646 382.575 238.646C382.575 238.646 377.645 238.055 376.363 239.583C375.547 244.527 375.681 249.581 376.757 254.474Z" fill="url(#paint23_linear)"/>
<path style="mix-blend-mode:multiply" opacity="0.4" d="M304.474 262.758C302.457 263.005 300.416 262.59 298.656 261.575C296.535 259.948 295.204 248.706 295.204 248.706C295.204 248.706 300.135 246.931 301.466 248.213C303.415 252.816 304.438 257.759 304.474 262.758Z" fill="url(#paint24_linear)"/>
<path d="M382.576 238.596C382.576 238.596 375.771 237.512 375.476 239.139C374.982 244.101 375.383 249.111 376.659 253.931V254.375C376.187 249.554 376.187 244.699 376.659 239.878C378.576 239.226 380.561 238.796 382.576 238.596Z" fill="#CC6A5A"/>
<path d="M295.204 248.704C295.204 248.704 301.565 246.091 302.255 247.57C303.874 252.328 304.625 257.339 304.474 262.362V262.806C303.889 258.013 302.832 253.289 301.318 248.704C299.287 248.47 297.235 248.47 295.204 248.704Z" fill="#CC6A5A"/>
<path d="M339.531 217.985C339.277 221.758 339.593 225.548 340.468 229.227C347.68 227.003 355.395 227.003 362.607 229.227C363.129 227.467 363.378 225.638 363.347 223.803C362.166 222.439 360.745 221.303 359.156 220.45C358.733 221.534 358.239 222.588 357.676 223.606C357.676 223.606 357.676 221.338 357.676 219.809C353.124 217.935 348.155 217.305 343.279 217.985L341.553 226.712L340.567 218.083L339.531 217.985Z" fill="url(#paint25_linear)"/>
<path d="M367.438 302.055C364.972 303.732 342.538 312.854 342.538 312.854L354.569 331.935L374.292 312.213L367.438 302.055Z" fill="url(#paint26_linear)"/>
<path d="M310.142 286.573C303.782 274.936 304.324 262.757 305.705 262.215C307.085 261.673 309.058 270.203 310.142 274.641C310.757 278.594 310.757 282.619 310.142 286.573Z" fill="url(#paint27_radial)"/>
<path d="M308.074 270.105C305.066 269.069 306.101 283.368 312.215 291.257C315.125 295.005 311.821 301.612 311.821 301.612L318.477 304.127C319.748 302.498 320.663 300.621 321.164 298.617C321.666 296.612 321.741 294.525 321.387 292.49C319.71 286.672 315.125 285.439 313.054 280.459C310.983 275.479 310.588 270.893 308.074 270.105Z" fill="#FABE82"/>
<path d="M379.469 312.015C379.469 312.015 373.651 345.643 372.418 348.552C371.185 351.461 364.529 351.017 364.529 351.017C366.039 354.12 367.022 357.453 367.438 360.879C367.734 364.281 358.809 380.108 351.216 391.597C348.679 395.729 345.774 399.624 342.538 403.234C344.559 398.303 347.468 390.266 350.18 380.947C359.795 350.327 372.023 305.26 372.023 305.26L379.469 312.015Z" fill="#266686"/>
<path d="M317.637 302.055C320.102 303.732 342.537 312.854 342.537 312.854L330.506 331.935L310.783 312.213L317.637 302.055Z" fill="#FBFAF2"/>
<path d="M309.108 297.765L322.815 303.977C322.815 303.977 303.536 398.352 299.247 409.545C294.957 420.737 271.881 429.909 267.739 426.161C263.597 422.414 256.201 390.463 309.108 297.765Z" fill="#374F6D"/>
<path d="M473.401 388.688C467.682 368.965 470.147 359.104 472.465 352.398C466.866 362.979 464.908 375.108 466.893 386.913C467.576 391.463 468.939 395.884 470.936 400.029L473.401 388.688Z" fill="url(#paint28_linear)"/>
<path d="M479.022 358.711C479.91 367.048 479.744 375.464 478.529 383.759L475.422 384.893C474.777 380.793 474.777 376.617 475.422 372.517C477.254 368.103 478.465 363.457 479.022 358.711Z" fill="url(#paint29_linear)"/>
<path d="M475.422 384.893C484.297 373.897 483.212 357.084 484.1 357.231C487.552 368.079 481.487 385.633 479.465 391.747C478.303 394.904 477.719 398.244 477.739 401.608L473.893 399.981L475.422 384.893Z" fill="url(#paint30_linear)"/>
<path d="M467.335 399.931C468.124 389.182 473.104 391.45 473.548 380.602C473.917 374.658 473.917 368.697 473.548 362.753C473.548 362.753 476.506 365.169 476.654 382.969C476.802 400.769 471.724 404.073 471.724 404.073L467.335 399.931Z" fill="url(#paint31_linear)"/>
<path d="M469.505 399.043C463.423 389.74 458.924 379.493 456.192 368.719C455.36 379.492 458.023 390.247 463.786 399.388C468.421 403.185 469.505 399.043 469.505 399.043Z" fill="url(#paint32_linear)"/>
<path d="M464.574 398.897C461.236 391.401 456.481 384.62 450.571 378.927C454.89 385.55 458.54 392.587 461.467 399.932C465.166 403.581 464.574 398.897 464.574 398.897Z" fill="url(#paint33_linear)"/>
<path d="M470.441 396.628C465.309 383.899 462.632 370.314 462.552 356.59C461.177 371.397 463.131 386.323 468.272 400.277C471.822 401.312 470.441 396.628 470.441 396.628Z" fill="url(#paint34_linear)"/>
<path d="M482.177 401.312C483.12 390.215 486.486 379.459 492.038 369.805C485.271 378.693 480.129 388.709 476.851 399.389C474.731 408.363 477.69 403.038 477.69 403.038L482.177 401.312Z" fill="url(#paint35_linear)"/>
<path d="M483.162 401.312C485.643 395.231 488.873 389.483 492.777 384.202C488.439 388.167 484.892 392.919 482.324 398.205C479.612 404.911 483.162 401.312 483.162 401.312Z" fill="url(#paint36_linear)"/>
<path d="M492.284 378.975C485.332 378.383 479.859 401.607 479.859 401.607H481.93C481.93 401.607 487.403 381.884 492.284 378.975Z" fill="url(#paint37_linear)"/>
<path d="M489.819 397.81C489.743 401.11 489.479 404.402 489.03 407.672C489.03 408.214 489.03 408.756 488.783 409.249L488.191 412.553C488.191 413.293 487.846 414.082 487.649 414.772C486.939 417.748 485.914 420.641 484.592 423.401C484.189 424.373 483.503 425.203 482.625 425.783C481.746 426.363 480.714 426.666 479.661 426.655H466.151C465.097 426.673 464.062 426.372 463.182 425.791C462.302 425.21 461.618 424.377 461.22 423.401C460.078 421.098 459.169 418.686 458.508 416.202C458.065 414.575 457.67 412.898 457.374 411.271C457.078 409.644 456.98 409.101 456.832 408.017C456.684 406.932 456.832 406.143 456.437 405.157C456.191 402.839 456.043 400.522 455.944 398.106L489.819 397.81Z" fill="url(#paint38_linear)"/>
<g style="mix-blend-mode:screen" opacity="0.3">
<path d="M457.77 411.172L488.192 412.553C488.192 413.293 487.847 414.082 487.65 414.772L458.904 416.202C458.46 414.377 458.065 412.701 457.77 411.172Z" fill="#DCAA66"/>
</g>
<g style="mix-blend-mode:screen" opacity="0.3">
<path d="M489.031 407.475C489.031 408.017 489.031 408.56 488.784 409.053L457.03 407.722C457.03 406.785 457.03 405.848 456.635 404.862L489.031 407.475Z" fill="#DCAA66"/>
</g>
<path d="M191.065 405.504C191.065 405.504 182.535 399.785 180.908 401.313C179.28 402.842 180.908 418.768 182.19 421.036C183.472 423.304 192.495 418.176 192.495 418.176V416.5C190.268 417.566 187.81 418.057 185.345 417.93C183.077 417.24 183.225 404.568 184.507 404.568C187.052 405.301 189.527 406.258 191.903 407.427L191.065 405.504Z" fill="#DB0027"/>
<path d="M192.053 426.755L188.158 397.171C197.718 393.722 208.183 393.722 217.743 397.171C215.721 403.137 212.417 425.72 212.417 425.72L192.053 426.755Z" fill="url(#paint39_linear)"/>
<path d="M202.309 390.021C202.309 390.021 193.237 386.915 194.026 382.773C194.815 378.631 200.879 379.568 202.852 377.842C204.824 376.117 198.463 369.904 198.463 369.904C198.463 369.904 210.692 373.355 210.494 378.878C210.297 384.4 201.027 382.231 199.055 383.808C197.083 385.386 202.309 390.021 202.309 390.021Z" fill="#CCC7DF"/>
<path d="M168.087 431.538L152.703 624.034H155.07L178.195 431.538H168.087Z" fill="url(#paint40_linear)"/>
<path d="M207.782 431.538L223.215 624.034H220.848L197.723 431.538H207.782Z" fill="url(#paint41_linear)"/>
<path d="M471.575 431.538L456.142 624.034H458.509L481.634 431.538H471.575Z" fill="url(#paint42_linear)"/>
<path d="M511.268 431.538L526.652 624.034H524.285L501.209 431.538H511.268Z" fill="url(#paint43_linear)"/>
<path d="M520.243 425.769H159.953V433.855H520.243V425.769Z" fill="#222138"/>
<path d="M399.34 362.457H290.864C290.5 362.46 290.141 362.541 289.811 362.694C289.481 362.847 289.188 363.069 288.95 363.344C288.712 363.619 288.536 363.941 288.432 364.29C288.328 364.639 288.3 365.005 288.349 365.366L296.189 423.548C296.283 424.163 296.592 424.724 297.062 425.13C297.532 425.537 298.132 425.763 298.753 425.767H391.451C392.07 425.772 392.668 425.548 393.132 425.138C393.596 424.729 393.893 424.163 393.966 423.548L401.855 365.366C401.904 365.005 401.876 364.639 401.772 364.29C401.668 363.941 401.492 363.619 401.254 363.344C401.016 363.069 400.722 362.847 400.392 362.694C400.062 362.541 399.704 362.46 399.34 362.457Z" fill="url(#paint44_linear)"/>
<defs>
<linearGradient id="paint0_linear" x1="234.025" y1="106.567" x2="441.379" y2="561.925" gradientUnits="userSpaceOnUse">
<stop stop-color="white"/>
<stop offset="1" stop-color="white" stop-opacity="0"/>
</linearGradient>
<linearGradient id="paint1_linear" x1="346.136" y1="583.108" x2="343.917" y2="569.302" gradientUnits="userSpaceOnUse">
<stop stop-color="#B7B289"/>
<stop offset="0.24" stop-color="#B3AB86"/>
<stop offset="0.6" stop-color="#A7987C"/>
<stop offset="1" stop-color="#94796E"/>
</linearGradient>
<linearGradient id="paint2_linear" x1="4469.92" y1="9584.36" x2="4705" y2="9003.53" gradientUnits="userSpaceOnUse">
<stop stop-color="#B7B289"/>
<stop offset="0.24" stop-color="#B3AB86"/>
<stop offset="0.6" stop-color="#A7987C"/>
<stop offset="1" stop-color="#94796E"/>
</linearGradient>
<linearGradient id="paint3_linear" x1="4982.13" y1="9764.06" x2="4551.06" y2="9274.27" gradientUnits="userSpaceOnUse">
<stop stop-color="#B7B289"/>
<stop offset="0.24" stop-color="#B3AB86"/>
<stop offset="0.6" stop-color="#A7987C"/>
<stop offset="1" stop-color="#94796E"/>
</linearGradient>
<radialGradient id="paint4_radial" cx="0" cy="0" r="1" gradientUnits="userSpaceOnUse" gradientTransform="translate(364.678 502.393) scale(34.0222)">
<stop stop-color="#100F23"/>
<stop offset="0.29" stop-color="#1E253D"/>
<stop offset="0.75" stop-color="#304360"/>
<stop offset="1" stop-color="#374F6D"/>
</radialGradient>
<linearGradient id="paint5_linear" x1="13760.4" y1="6299.17" x2="13760.4" y2="5186.27" gradientUnits="userSpaceOnUse">
<stop offset="0.18" stop-color="#FBFAF2"/>
<stop offset="0.44" stop-color="#F2F0E5"/>
<stop offset="0.77" stop-color="#E1DECE"/>
</linearGradient>
<radialGradient id="paint6_radial" cx="0" cy="0" r="1" gradientUnits="userSpaceOnUse" gradientTransform="translate(4937.67 5140.27) scale(291.571 1221.41)">
<stop offset="0.06" stop-color="#E30000"/>
<stop offset="0.73" stop-color="#F60000"/>
<stop offset="1" stop-color="#FF0000"/>
</radialGradient>
<radialGradient id="paint7_radial" cx="0" cy="0" r="1" gradientUnits="userSpaceOnUse" gradientTransform="translate(17462.6 14041.2) scale(1242.05 2288.58)">
<stop stop-color="#100F23"/>
<stop offset="0.29" stop-color="#1E253D"/>
<stop offset="0.75" stop-color="#304360"/>
<stop offset="1" stop-color="#374F6D"/>
</radialGradient>
<radialGradient id="paint8_radial" cx="0" cy="0" r="1" gradientUnits="userSpaceOnUse" gradientTransform="translate(294.809 373.109) scale(41.6648)">
<stop stop-color="#100F23"/>
<stop offset="0.19" stop-color="#484756"/>
<stop offset="0.48" stop-color="#96959E"/>
<stop offset="0.72" stop-color="#CFCED2"/>
<stop offset="0.9" stop-color="#F2F2F3"/>
<stop offset="1" stop-color="white"/>
</radialGradient>
<radialGradient id="paint9_radial" cx="0" cy="0" r="1" gradientUnits="userSpaceOnUse" gradientTransform="translate(17842.1 12636.8) scale(1376.79 2929.09)">
<stop stop-color="#100F23"/>
<stop offset="0.29" stop-color="#1E253D"/>
<stop offset="0.75" stop-color="#304360"/>
<stop offset="1" stop-color="#374F6D"/>
</radialGradient>
<radialGradient id="paint10_radial" cx="0" cy="0" r="1" gradientUnits="userSpaceOnUse" gradientTransform="translate(12271 7920.03) scale(480.008 906.973)">
<stop stop-color="#100F23"/>
<stop offset="0.29" stop-color="#1E253D"/>
<stop offset="0.75" stop-color="#304360"/>
<stop offset="1" stop-color="#374F6D"/>
</radialGradient>
<radialGradient id="paint11_radial" cx="0" cy="0" r="1" gradientUnits="userSpaceOnUse" gradientTransform="translate(8686.34 4179.54) scale(241.946 353.862)">
<stop stop-color="#100F23"/>
<stop offset="0.29" stop-color="#1E253D"/>
<stop offset="0.75" stop-color="#304360"/>
<stop offset="1" stop-color="#374F6D"/>
</radialGradient>
<linearGradient id="paint12_linear" x1="343.08" y1="309.648" x2="342.242" y2="290.96" gradientUnits="userSpaceOnUse">
<stop stop-color="#FABE82"/>
<stop offset="0.21" stop-color="#F7B47A"/>
<stop offset="0.57" stop-color="#EE9866"/>
<stop offset="1" stop-color="#E06E48"/>
</linearGradient>
<linearGradient id="paint13_linear" x1="307.777" y1="254.522" x2="293.379" y2="256.495" gradientUnits="userSpaceOnUse">
<stop offset="0.06" stop-color="#D16E43"/>
<stop offset="0.18" stop-color="#DA8051"/>
<stop offset="0.45" stop-color="#EBA26C"/>
<stop offset="0.68" stop-color="#F6B67C"/>
<stop offset="0.83" stop-color="#FABE82"/>
</linearGradient>
<linearGradient id="paint14_linear" x1="338.193" y1="235.356" x2="347.956" y2="312.603" gradientUnits="userSpaceOnUse">
<stop offset="0.23" stop-color="#8C5A3C"/>
<stop offset="0.81" stop-color="#512214"/>
</linearGradient>
<linearGradient id="paint15_linear" x1="330.964" y1="174.991" x2="339.502" y2="249.351" gradientUnits="userSpaceOnUse">
<stop offset="0.16" stop-color="#8C5A3C"/>
<stop offset="0.82" stop-color="#512214"/>
</linearGradient>
<linearGradient id="paint16_linear" x1="341.829" y1="264.12" x2="338.612" y2="235.173" gradientUnits="userSpaceOnUse">
<stop offset="0.11" stop-color="#FABE82"/>
<stop offset="0.29" stop-color="#F8B97E"/>
<stop offset="0.51" stop-color="#F3A973"/>
<stop offset="0.75" stop-color="#EB9061"/>
<stop offset="1" stop-color="#E06E48"/>
</linearGradient>
<linearGradient id="paint17_linear" x1="350.62" y1="246.735" x2="335.195" y2="248.449" gradientUnits="userSpaceOnUse">
<stop offset="0.1" stop-color="#8C5A3C"/>
<stop offset="0.92" stop-color="#512214"/>
</linearGradient>
<linearGradient id="paint18_linear" x1="326.606" y1="254.605" x2="323.338" y2="226.145" gradientUnits="userSpaceOnUse">
<stop offset="0.11" stop-color="#FABE82"/>
<stop offset="0.28" stop-color="#F8B87E"/>
<stop offset="0.51" stop-color="#F2A771"/>
<stop offset="0.78" stop-color="#E98B5D"/>
<stop offset="1" stop-color="#E06E48"/>
</linearGradient>
<linearGradient id="paint19_linear" x1="336.092" y1="219.667" x2="340.98" y2="262.236" gradientUnits="userSpaceOnUse">
<stop offset="0.2" stop-color="#FABE82"/>
<stop offset="0.34" stop-color="#FAB87F"/>
<stop offset="0.53" stop-color="#F9A676"/>
<stop offset="0.74" stop-color="#F88A66"/>
<stop offset="0.97" stop-color="#F76252"/>
<stop offset="1" stop-color="#F75D4F"/>
</linearGradient>
<linearGradient id="paint20_linear" x1="5805.6" y1="658.634" x2="5943.59" y2="658.634" gradientUnits="userSpaceOnUse">
<stop offset="0.2" stop-color="#FABE82"/>
<stop offset="0.34" stop-color="#FAB87F"/>
<stop offset="0.53" stop-color="#F9A676"/>
<stop offset="0.74" stop-color="#F88A66"/>
<stop offset="0.97" stop-color="#F76252"/>
<stop offset="1" stop-color="#F75D4F"/>
</linearGradient>
<linearGradient id="paint21_linear" x1="15243.7" y1="-954.224" x2="15256.3" y2="-906.766" gradientUnits="userSpaceOnUse">
<stop offset="0.1" stop-color="#8C5A3C"/>
<stop offset="0.92" stop-color="#512214"/>
</linearGradient>
<linearGradient id="paint22_linear" x1="3470.56" y1="79.6507" x2="3518.86" y2="74.1053" gradientUnits="userSpaceOnUse">
<stop offset="0.1" stop-color="#8C5A3C"/>
<stop offset="0.92" stop-color="#512214"/>
</linearGradient>
<linearGradient id="paint23_linear" x1="2010.9" y1="707.869" x2="2022.3" y2="707.394" gradientUnits="userSpaceOnUse">
<stop offset="0.06" stop-color="#D16E43"/>
<stop offset="0.18" stop-color="#DA8051"/>
<stop offset="0.45" stop-color="#EBA26C"/>
<stop offset="0.68" stop-color="#F6B67C"/>
<stop offset="0.83" stop-color="#FABE82"/>
</linearGradient>
<linearGradient id="paint24_linear" x1="333.406" y1="217.919" x2="326.024" y2="219.974" gradientUnits="userSpaceOnUse">
<stop offset="0.06" stop-color="#D16E43"/>
<stop offset="0.11" stop-color="#D57B54"/>
<stop offset="0.3" stop-color="#E4AA91"/>
<stop offset="0.47" stop-color="#F0CFC0"/>
<stop offset="0.62" stop-color="#F8E9E2"/>
<stop offset="0.75" stop-color="#FDF9F7"/>
<stop offset="0.83" stop-color="white"/>
</linearGradient>
<linearGradient id="paint25_linear" x1="264.668" y1="362.985" x2="264.984" y2="395.365" gradientUnits="userSpaceOnUse">
<stop offset="0.1" stop-color="#8C5A3C"/>
<stop offset="0.92" stop-color="#512214"/>
</linearGradient>
<linearGradient id="paint26_linear" x1="7137.89" y1="1915.59" x2="7304.2" y2="1751.92" gradientUnits="userSpaceOnUse">
<stop offset="0.18" stop-color="#FBFAF2"/>
<stop offset="0.44" stop-color="#F2F0E5"/>
<stop offset="0.77" stop-color="#E1DECE"/>
</linearGradient>
<radialGradient id="paint27_radial" cx="0" cy="0" r="1" gradientUnits="userSpaceOnUse" gradientTransform="translate(307.726 274.345) scale(8.87539)">
<stop offset="0.06" stop-color="#D16E43"/>
<stop offset="0.21" stop-color="#DA8051"/>
<stop offset="0.54" stop-color="#EBA26C"/>
<stop offset="0.82" stop-color="#F6B67C"/>
<stop offset="1" stop-color="#FABE82"/>
</radialGradient>
<linearGradient id="paint28_linear" x1="469.358" y1="367.535" x2="471.528" y2="390.365" gradientUnits="userSpaceOnUse">
<stop stop-color="#6CD759"/>
<stop offset="1" stop-color="#597E28"/>
</linearGradient>
<linearGradient id="paint29_linear" x1="1591.63" y1="1971.01" x2="1539.34" y2="2064.79" gradientUnits="userSpaceOnUse">
<stop stop-color="#6CD759"/>
<stop offset="1" stop-color="#597E28"/>
</linearGradient>
<linearGradient id="paint30_linear" x1="3187.48" y1="3152.13" x2="3034.36" y2="3316.13" gradientUnits="userSpaceOnUse">
<stop stop-color="#6CD759"/>
<stop offset="1" stop-color="#597E28"/>
</linearGradient>
<linearGradient id="paint31_linear" x1="474.14" y1="372.91" x2="471.23" y2="400.572" gradientUnits="userSpaceOnUse">
<stop stop-color="#6CD759"/>
<stop offset="0.08" stop-color="#6AD055"/>
<stop offset="0.96" stop-color="#597E28"/>
</linearGradient>
<linearGradient id="paint32_linear" x1="3639.77" y1="2450.56" x2="3713.71" y2="2582.75" gradientUnits="userSpaceOnUse">
<stop stop-color="#6CD759"/>
<stop offset="1" stop-color="#597E28"/>
</linearGradient>
<linearGradient id="paint33_linear" x1="3753.31" y1="1851.23" x2="3813.93" y2="1930.18" gradientUnits="userSpaceOnUse">
<stop stop-color="#6CD759"/>
<stop offset="1" stop-color="#597E28"/>
</linearGradient>
<linearGradient id="paint34_linear" x1="2500.14" y1="3198.03" x2="2608.81" y2="3278.01" gradientUnits="userSpaceOnUse">
<stop stop-color="#6CD759"/>
<stop offset="1" stop-color="#597E28"/>
</linearGradient>
<linearGradient id="paint35_linear" x1="488.932" y1="369.509" x2="478.626" y2="405.355" gradientUnits="userSpaceOnUse">
<stop stop-color="#6CD759"/>
<stop offset="0.77" stop-color="#597E28"/>
</linearGradient>
<linearGradient id="paint36_linear" x1="3270.25" y1="1578.02" x2="3243.55" y2="1614.95" gradientUnits="userSpaceOnUse">
<stop stop-color="#6CD759"/>
<stop offset="1" stop-color="#597E28"/>
</linearGradient>
<linearGradient id="paint37_linear" x1="3495.01" y1="1867.3" x2="3437.71" y2="1934.34" gradientUnits="userSpaceOnUse">
<stop stop-color="#6CD759"/>
<stop offset="1" stop-color="#597E28"/>
</linearGradient>
<linearGradient id="paint38_linear" x1="456.339" y1="412.159" x2="489.819" y2="412.159" gradientUnits="userSpaceOnUse">
<stop stop-color="#C97D00"/>
<stop offset="1" stop-color="#7E1F00"/>
</linearGradient>
<linearGradient id="paint39_linear" x1="188.158" y1="410.78" x2="217.743" y2="410.78" gradientUnits="userSpaceOnUse">
<stop offset="0.07" stop-color="#DB0027"/>
<stop offset="0.63" stop-color="#9E0025"/>
<stop offset="0.7" stop-color="#980024"/>
<stop offset="0.79" stop-color="#870021"/>
<stop offset="0.9" stop-color="#6B001C"/>
<stop offset="0.91" stop-color="#67001B"/>
</linearGradient>
<linearGradient id="paint40_linear" x1="4028.24" y1="17480.9" x2="6952.28" y2="15642.7" gradientUnits="userSpaceOnUse">
<stop stop-color="#B7B289"/>
<stop offset="0.24" stop-color="#B3AB86"/>
<stop offset="0.6" stop-color="#A7987C"/>
<stop offset="1" stop-color="#94796E"/>
</linearGradient>
<linearGradient id="paint41_linear" x1="-1141.02" y1="21491.1" x2="-4066.56" y2="19649.2" gradientUnits="userSpaceOnUse">
<stop stop-color="#B7B289"/>
<stop offset="0.24" stop-color="#B3AB86"/>
<stop offset="0.6" stop-color="#A7987C"/>
<stop offset="1" stop-color="#94796E"/>
</linearGradient>
<linearGradient id="paint42_linear" x1="5900.71" y1="17480.9" x2="8826.25" y2="15639.1" gradientUnits="userSpaceOnUse">
<stop stop-color="#B7B289"/>
<stop offset="0.24" stop-color="#B3AB86"/>
<stop offset="0.6" stop-color="#A7987C"/>
<stop offset="1" stop-color="#94796E"/>
</linearGradient>
<linearGradient id="paint43_linear" x1="122.853" y1="21491.1" x2="-2798.73" y2="19658" gradientUnits="userSpaceOnUse">
<stop stop-color="#B7B289"/>
<stop offset="0.24" stop-color="#B3AB86"/>
<stop offset="0.6" stop-color="#A7987C"/>
<stop offset="1" stop-color="#94796E"/>
</linearGradient>
<linearGradient id="paint44_linear" x1="345.003" y1="362.259" x2="345.003" y2="428.331" gradientUnits="userSpaceOnUse">
<stop offset="0.11" stop-color="#9DA9AA"/>
<stop offset="0.3" stop-color="#8F9FA3"/>
<stop offset="0.65" stop-color="#6B868F"/>
<stop offset="1" stop-color="#416878"/>
</linearGradient>
</defs>
</svg>
