<svg width="586" height="628" viewBox="0 0 586 628" fill="none" xmlns="http://www.w3.org/2000/svg">
<path d="M585.963 392.982C585.964 392.959 585.964 392.936 585.963 392.914C585.959 392.94 585.963 392.982 585.963 392.982Z" fill="#381911"/>
<path fill-rule="evenodd" clip-rule="evenodd" d="M409.908 158.424C443.857 196.745 497.605 213.262 520.787 259.088C548.027 312.933 574.692 378.394 549.551 434.462C524.48 490.376 450.295 498.289 398.717 531.324C347.108 564.379 308.149 626.501 247.565 627.881C186.167 629.279 138.085 579.835 93.701 538.271C51.642 498.886 6.16899 455.077 1.02399 397.012C-3.91001 341.339 48.867 299.013 67.792 245.888C88.139 188.773 73.882 119.409 115.656 75.235C161.271 27.0007 233 -12.7601 295.644 4.9504C358.718 22.7823 366.585 109.523 409.908 158.424Z" fill="url(#paint0_linear)"/>
<path d="M259.494 387.659C261.302 388.628 263.029 389.741 264.659 390.987C265.297 391.785 264.353 396.216 264.353 396.216L256.267 390.539L257.103 388.665L259.494 387.659Z" fill="#F3C9A8"/>
<path d="M214.052 378.35C222.1 387.98 248.732 391.69 257.588 389.5C258.123 388.79 258.766 388.168 259.494 387.659C259.494 387.659 235.855 374.05 228.788 372.72C221.721 371.39 214.052 378.35 214.052 378.35Z" fill="#F3C9A8"/>
<path d="M232.805 365.236C230.935 361.082 225.612 356.054 225.612 356.054C225.612 356.054 222.349 380.282 230.815 377.938C232.567 377.453 234.641 374.724 234.641 374.724C234.641 374.724 234.532 369.073 232.805 365.236Z" fill="#B4CAD6"/>
<path d="M326.445 519.145C330.07 515.52 330.07 509.644 326.445 506.019C322.82 502.394 316.943 502.394 313.319 506.019C309.694 509.644 309.694 515.52 313.319 519.145C316.943 522.77 322.82 522.77 326.445 519.145Z" fill="#808DA0"/>
<path d="M319.883 516.239C321.902 516.239 323.539 514.602 323.539 512.582C323.539 510.563 321.902 508.926 319.883 508.926C317.863 508.926 316.226 510.563 316.226 512.582C316.226 514.602 317.863 516.239 319.883 516.239Z" fill="#BACBDB"/>
<path d="M240.377 406.958C239.775 406.956 239.195 406.726 238.756 406.313C238.317 405.9 238.051 405.335 238.013 404.733C237.975 404.132 238.166 403.538 238.55 403.073C238.933 402.607 239.479 402.305 240.076 402.227L249.979 400.948C250.291 400.902 250.609 400.919 250.915 400.998C251.22 401.076 251.507 401.214 251.758 401.405C252.01 401.595 252.221 401.834 252.379 402.107C252.537 402.38 252.64 402.681 252.68 402.994C252.721 403.307 252.698 403.625 252.615 403.929C252.531 404.233 252.387 404.517 252.193 404.765C251.998 405.013 251.755 405.22 251.48 405.374C251.204 405.527 250.901 405.624 250.587 405.659L240.685 406.937C240.583 406.95 240.48 406.957 240.377 406.958Z" fill="#808DA0"/>
<path d="M316.373 508.618C315.913 508.618 315.464 508.485 315.079 508.236C314.694 507.986 314.389 507.63 314.202 507.21L267.226 401.873L264.094 402.277C263.781 402.323 263.463 402.307 263.157 402.228C262.851 402.15 262.564 402.012 262.312 401.821C262.06 401.631 261.849 401.392 261.69 401.119C261.532 400.846 261.43 400.544 261.389 400.231C261.349 399.918 261.371 399.6 261.455 399.295C261.539 398.991 261.683 398.706 261.878 398.458C262.074 398.21 262.316 398.004 262.592 397.85C262.868 397.697 263.172 397.6 263.486 397.566L268.371 396.937C268.878 396.872 269.392 396.971 269.837 397.221C270.283 397.471 270.636 397.858 270.845 398.325L318.54 505.277C318.701 505.638 318.769 506.034 318.738 506.429C318.707 506.823 318.578 507.204 318.363 507.536C318.148 507.868 317.853 508.141 317.505 508.33C317.158 508.519 316.768 508.619 316.373 508.619V508.618Z" fill="#CEC6C6"/>
<path d="M263.787 402.297C263.184 402.295 262.605 402.065 262.166 401.652C261.727 401.239 261.461 400.674 261.423 400.073C261.384 399.471 261.576 398.877 261.959 398.412C262.343 397.947 262.888 397.644 263.486 397.566L268.371 396.937C268.683 396.891 269.001 396.908 269.306 396.986C269.612 397.064 269.899 397.203 270.15 397.393C270.402 397.584 270.613 397.822 270.771 398.095C270.929 398.368 271.032 398.67 271.072 398.983C271.112 399.295 271.09 399.613 271.006 399.917C270.923 400.221 270.779 400.506 270.584 400.754C270.39 401.002 270.147 401.209 269.872 401.362C269.596 401.516 269.293 401.613 268.979 401.647L264.093 402.277C263.992 402.29 263.89 402.297 263.787 402.297Z" fill="#847474"/>
<path d="M287.948 380.708L250.754 399.122L276.227 450.572L313.421 432.157L287.948 380.708Z" fill="#EAA871"/>
<path d="M287.947 380.706L266.008 391.569L291.48 443.018L313.42 432.156L287.947 380.706Z" fill="#FFC692"/>
<path d="M279.452 384.912L274.451 387.388L299.924 438.838L304.925 436.362L279.452 384.912Z" fill="#EAA871"/>
<path d="M260.581 394.255L255.706 396.669L281.179 448.119L286.054 445.705L260.581 394.255Z" fill="#D19A75"/>
<path d="M286.268 385.22L279.517 388.562L285.211 400.064L291.962 396.721L286.268 385.22Z" fill="#FFE4D2"/>
<path d="M276.817 413.637L261.774 421.405L264.305 426.307L279.348 418.539L276.817 413.637Z" fill="#D19A75"/>
<path d="M298.614 402.382L276.817 413.637L279.348 418.54L301.146 407.284L298.614 402.382Z" fill="#EAA871"/>
<path d="M313.946 391.83L279.452 408.01L295.217 441.619L329.711 425.439L313.946 391.83Z" fill="#DBB8A1"/>
<path d="M313.946 391.83L293.599 401.374L309.364 434.983L329.711 425.438L313.946 391.83Z" fill="#F2D6C4"/>
<path d="M306.067 395.525L301.429 397.701L317.194 431.31L321.832 429.134L306.067 395.525Z" fill="#DBB8A1"/>
<path d="M288.567 403.734L284.045 405.855L299.81 439.463L304.331 437.343L288.567 403.734Z" fill="#C9A693"/>
<path d="M320.73 415.966L314.469 418.902L317.994 426.415L324.254 423.479L320.73 415.966Z" fill="#F9E5D9"/>
<path d="M341.591 417.904L272.972 447.684L282.494 469.627L351.114 439.847L341.591 417.904Z" fill="#C99C77"/>
<path d="M341.591 417.903L299.423 436.203L308.945 458.145L351.113 439.845L341.591 417.903Z" fill="#EAC19B"/>
<path d="M288.442 443.85L277.393 448.645L281.102 457.192L292.151 452.398L288.442 443.85Z" fill="#F2D6C4"/>
<path d="M344.741 440.605L279.293 470.625L299.238 514.108L364.686 484.088L344.741 440.605Z" fill="#DB995D"/>
<path d="M344.668 440.605L312.652 455.291L332.597 498.774L364.613 484.089L344.668 440.605Z" fill="#FFBF80"/>
<path d="M330.512 452.948L320.284 457.639L328.291 475.093L338.518 470.402L330.512 452.948Z" fill="#FFDCC0"/>
<path d="M334.525 445.218L331.261 446.784L351.984 489.979L355.248 488.413L334.525 445.218Z" fill="#FFD2A9"/>
<path d="M297.874 461.995L292.965 464.35L313.683 507.532L318.591 505.177L297.874 461.995Z" fill="#DBB79C"/>
<path d="M298.424 519.249C297.885 519.249 297.362 519.065 296.941 518.729C296.52 518.392 296.226 517.922 296.107 517.396C295.989 516.87 296.053 516.319 296.289 515.834C296.525 515.35 296.919 514.96 297.407 514.729L348.247 490.571C348.296 490.546 348.346 490.525 348.397 490.506L368.566 482.578C369.128 482.365 369.75 482.373 370.306 482.6C370.862 482.828 371.312 483.257 371.564 483.803C371.816 484.348 371.852 484.969 371.665 485.54C371.477 486.111 371.08 486.59 370.554 486.88L320.858 513.423C320.692 513.511 320.516 513.579 320.333 513.626L299.022 519.16C298.828 519.215 298.627 519.245 298.424 519.249Z" fill="#BACBDB"/>
<path d="M304.989 523.437C308.614 519.812 308.614 513.935 304.989 510.311C301.364 506.686 295.487 506.686 291.863 510.311C288.238 513.935 288.238 519.812 291.863 523.437C295.487 527.062 301.364 527.062 304.989 523.437Z" fill="#808DA0"/>
<path d="M301.953 517.781C302.466 515.828 301.298 513.829 299.345 513.317C297.392 512.804 295.393 513.972 294.88 515.925C294.368 517.879 295.536 519.877 297.489 520.39C299.442 520.902 301.441 519.734 301.953 517.781Z" fill="#BACBDB"/>
<path d="M209.237 351.156C209.739 349.361 220.473 349.914 221.904 352.65C221.214 355.161 218.728 353.83 218.728 353.83C216.743 353.837 214.765 353.592 212.841 353.102C211.712 352.499 207.247 351.922 210.155 350.466L209.237 351.156Z" fill="#7898B1"/>
<path d="M211.542 339C211.467 339.238 211.738 352.574 211.38 353.605C211.022 354.636 214.516 356.47 220.136 355.2C218.856 352.395 217.801 349.492 216.979 346.519C216.198 342.906 211.542 339 211.542 339Z" fill="url(#paint1_radial)"/>
<path d="M222.491 322.518C225.67 319.512 225.627 314.162 223.413 313.359C221.2 312.556 219.68 314.303 217.413 313.761C215.145 313.218 216.1 307.619 211.488 308.021C206.876 308.422 207.148 317.103 203.513 320.781C199.877 324.46 199.606 333.466 206.095 335.604C209.35 336.689 213.474 338.989 216.772 335.398C220.071 331.806 222.491 322.518 222.491 322.518Z" fill="url(#paint2_linear)"/>
<path d="M210.284 331.394C201.006 332.055 200.236 327.118 200.811 324.449C201.386 321.78 202.525 320.912 202.069 322.517C201.614 324.123 202.33 331.263 210.143 330.591C211.195 330.254 210.284 331.394 210.284 331.394Z" fill="url(#paint3_linear)"/>
<path d="M210.349 325.003C203.73 323.136 204.554 317.19 205.607 316.192C206.66 315.193 205.162 317.928 205.607 319.794C206.052 321.661 208.114 323.918 210.349 325.003Z" fill="url(#paint4_linear)"/>
<path d="M208.233 310.495C214.092 307.489 215.622 314.965 214.244 318.904C212.866 322.843 212.454 323.049 212.454 323.049L214.059 323.451C215.324 320.718 215.873 317.708 215.655 314.705C215.09 310.43 211.466 307.825 209.47 308.194C207.473 308.563 208.233 310.495 208.233 310.495Z" fill="url(#paint5_linear)"/>
<path d="M219.94 321.747C224.454 318.405 223.684 313.197 222.208 312.665C220.733 312.133 222.208 313.598 222.208 315.269C222.152 317.453 221.258 319.531 219.713 321.074C218.964 321.747 219.94 321.747 219.94 321.747Z" fill="url(#paint6_linear)"/>
<path d="M226.679 334.769C226.81 341.279 223.728 348.061 221.352 348.419C216.881 349.081 213.105 344.285 211.672 340.14C211.596 339.923 211.521 339.684 211.445 339.434C211.217 339.836 210.761 340.52 210.208 340.606C207.766 341.019 205.433 335.93 205.867 334.866C206.301 333.803 207.375 333.868 210.62 336.179C209.535 331.546 208.699 325.589 209.394 324.178C211.184 320.543 220.375 320.109 221.579 320.575C222.48 320.923 224.064 323.125 225.334 327.216C225.796 328.805 226.159 330.422 226.419 332.056C226.582 332.951 226.67 333.859 226.679 334.769Z" fill="#FBCAA3"/>
<path style="mix-blend-mode:multiply" opacity="0.5" d="M226.679 334.768L222.805 335.929C221.694 333.592 221.241 330.996 221.492 328.421C221.962 328.429 222.427 328.325 222.849 328.117C223.467 327.845 224.39 327.032 225.29 327.216C225.753 328.805 226.115 330.421 226.375 332.056C226.553 332.95 226.655 333.857 226.679 334.768Z" fill="url(#paint7_linear)"/>
<g style="mix-blend-mode:multiply" opacity="0.5">
<path style="mix-blend-mode:multiply" opacity="0.5" d="M217.652 327.52C217.652 327.52 212.878 327.271 212.227 330.07C212.32 332.171 212.829 334.233 213.724 336.136C213.724 336.136 220.235 335.637 220.072 334.736C219.992 333.81 219.855 332.889 219.659 331.98C218.748 328.421 217.652 327.52 217.652 327.52Z" fill="url(#paint8_linear)"/>
</g>
<path d="M212.129 330.059C211.879 328.572 214.169 326.185 216.469 325.718C216.657 326.102 216.882 326.465 217.142 326.804L217.337 325.339L217.934 325.675L217.685 327.476C215.61 327.741 213.669 328.644 212.129 330.059Z" fill="url(#paint9_linear)"/>
<path d="M220.581 326.814L221.493 328.42L221.894 328.474L221.232 326.814H220.581Z" fill="url(#paint10_linear)"/>
<path d="M224.737 326.413C223.717 326.301 222.686 326.439 221.731 326.815C221.75 327.333 221.92 327.834 222.22 328.258C223.12 328.139 225.182 326.25 225.844 327.954C225.768 327.542 225.996 326.576 224.737 326.413Z" fill="url(#paint11_linear)"/>
<path d="M218.368 333.032C218.292 333.434 217.641 333.716 216.849 333.846C216.452 333.924 216.048 333.964 215.644 333.965C214.765 333.965 213.962 333.846 213.778 333.553C213.593 333.26 213.691 330.298 215.362 329.668C217.803 328.757 218.552 332.001 218.368 333.032Z" fill="url(#paint12_linear)"/>
<path d="M218.368 333.032C218.292 333.434 217.641 333.716 216.849 333.846C216.452 333.924 216.049 333.964 215.644 333.965C214.765 333.965 213.962 333.846 213.778 333.553C213.684 332.868 213.804 332.17 214.12 331.555C214.437 330.939 214.935 330.436 215.547 330.113C217.218 329.484 218.552 332.001 218.368 333.032Z" fill="white"/>
<path d="M224.282 332.533C224.182 332.784 223.992 332.989 223.749 333.107C223.506 333.226 223.228 333.249 222.969 333.173C222.713 333.132 222.475 333.018 222.282 332.845C222.09 332.672 221.951 332.447 221.883 332.197C221.756 331.749 221.708 331.283 221.742 330.819C221.808 329.875 222.198 329.18 222.828 329.159C223.913 329.126 224.618 331.513 224.282 332.533Z" fill="url(#paint13_linear)"/>
<path d="M224.281 332.533C224.181 332.784 223.991 332.989 223.749 333.107C223.506 333.226 223.228 333.249 222.968 333.173C222.713 333.132 222.474 333.018 222.282 332.845C222.089 332.672 221.951 332.447 221.883 332.197C221.755 331.749 221.708 331.283 221.742 330.819C221.742 330.135 222.078 329.571 222.74 329.538C223.804 329.506 224.618 331.513 224.281 332.533Z" fill="white"/>
<path d="M217.446 332.674C217.461 332.904 217.416 333.134 217.315 333.342C217.214 333.549 217.061 333.727 216.871 333.857C216.443 333.92 216.012 333.956 215.579 333.965C215.361 333.87 215.173 333.719 215.033 333.526C214.893 333.334 214.807 333.108 214.784 332.871C214.761 332.634 214.802 332.396 214.902 332.18C215.002 331.964 215.158 331.779 215.353 331.644C215.549 331.509 215.777 331.428 216.014 331.411C216.251 331.393 216.489 331.439 216.702 331.544C216.915 331.649 217.097 331.809 217.227 332.008C217.358 332.206 217.434 332.436 217.446 332.674Z" fill="#5F3A04"/>
<path d="M222.968 333.173C222.863 333.159 222.761 333.13 222.664 333.087C222.473 333.009 222.302 332.888 222.165 332.734C222.027 332.58 221.927 332.396 221.872 332.197C221.784 331.889 221.733 331.572 221.72 331.253C221.704 331.109 221.704 330.963 221.72 330.819C221.85 330.667 222.032 330.57 222.23 330.547C222.795 330.482 223.316 331.068 223.402 331.839C223.445 332.08 223.428 332.328 223.353 332.56C223.277 332.793 223.145 333.004 222.968 333.173Z" fill="#5F3A04"/>
<path d="M220.82 330.873C222.394 334.378 223.5 337.991 223.088 339.185C222.838 339.89 220.777 339.434 219.93 339.185C219.084 338.935 220.386 333.835 219.93 331.372C219.475 328.909 220.451 329.419 220.82 330.873Z" fill="url(#paint14_linear)"/>
<path d="M216.577 340.194C218.465 344.252 220.82 344.057 221.656 342.548C220.31 342.993 217.489 341.539 216.577 340.194Z" fill="white"/>
<path d="M216.371 341.084C216.374 340.964 216.408 340.847 216.468 340.744C216.529 340.641 216.615 340.555 216.718 340.494C216.821 340.433 216.938 340.4 217.058 340.396C217.177 340.393 217.296 340.421 217.402 340.476C216.621 339.727 216.046 340.129 216.371 341.084Z" fill="#F6682A"/>
<path style="mix-blend-mode:multiply" opacity="0.5" d="M207.17 335.853C207.408 334.768 209.904 336.19 210.175 337.155C209.578 336.96 208.906 336.786 208.808 337.394C208.71 338.002 210.49 339.13 210.49 339.13C210.49 339.13 206.518 338.74 207.17 335.853Z" fill="url(#paint15_linear)"/>
<path style="mix-blend-mode:screen" opacity="0.7" d="M217.174 332.761C217.174 333.048 217.06 333.324 216.856 333.528C216.653 333.731 216.377 333.846 216.089 333.846C215.801 333.846 215.525 333.731 215.322 333.528C215.118 333.324 215.004 333.048 215.004 332.761C215.004 332.473 215.118 332.197 215.322 331.993C215.525 331.79 215.801 331.676 216.089 331.676C216.377 331.676 216.653 331.79 216.856 331.993C217.06 332.197 217.174 332.473 217.174 332.761Z" fill="url(#paint16_linear)"/>
<path style="mix-blend-mode:screen" opacity="0.5" d="M222.665 333.086C222.474 333.009 222.303 332.888 222.165 332.734C222.028 332.58 221.928 332.396 221.873 332.197C221.785 331.889 221.734 331.572 221.721 331.253C222.068 331.111 222.687 330.949 222.915 331.307C223.058 331.594 223.111 331.918 223.067 332.235C223.022 332.553 222.882 332.85 222.665 333.086Z" fill="url(#paint17_linear)"/>
<path d="M217.489 331.838C217.489 331.945 217.447 332.047 217.372 332.122C217.296 332.198 217.194 332.24 217.088 332.24C216.979 332.24 216.875 332.198 216.796 332.124C216.717 332.049 216.67 331.947 216.665 331.838C216.665 331.729 216.708 331.624 216.785 331.547C216.863 331.469 216.967 331.426 217.077 331.426C217.186 331.426 217.291 331.469 217.368 331.547C217.446 331.624 217.489 331.729 217.489 331.838Z" fill="white"/>
<path d="M223.619 331.111C223.617 331.168 223.603 331.223 223.578 331.274C223.553 331.325 223.519 331.371 223.476 331.408C223.434 331.446 223.384 331.474 223.331 331.492C223.277 331.51 223.22 331.517 223.164 331.513C223.107 331.51 223.052 331.496 223.001 331.471C222.95 331.447 222.904 331.412 222.867 331.37C222.829 331.327 222.801 331.278 222.783 331.224C222.765 331.17 222.758 331.113 222.762 331.057C222.757 330.995 222.765 330.932 222.787 330.874C222.808 330.815 222.841 330.762 222.885 330.717C222.929 330.673 222.981 330.638 223.039 330.616C223.098 330.594 223.16 330.584 223.222 330.588C223.284 330.592 223.345 330.609 223.4 330.639C223.455 330.668 223.503 330.709 223.54 330.759C223.578 330.809 223.605 330.866 223.618 330.926C223.632 330.987 223.632 331.05 223.619 331.111Z" fill="white"/>
<path d="M218.209 519.11L217.769 520.802H226.668C226.668 520.802 226.832 520.319 226.404 520.165C225.976 520.011 221.076 520.044 220.021 518.748C219.011 517.726 218.209 519.11 218.209 519.11Z" fill="#563223"/>
<path d="M213.379 519.526L209.465 519.282C209.852 518.849 210.17 518.36 210.409 517.831L212.907 518.321C212.938 518.761 213.103 519.182 213.379 519.526Z" fill="#3D2419"/>
<path d="M207.507 520.801H215.231C214.779 520.148 214.181 519.61 213.484 519.229C212.168 518.884 210.799 518.784 209.447 518.932C209.063 519.037 207.507 520.801 207.507 520.801Z" fill="#563223"/>
<path d="M203.175 482.231C203.106 486.194 203.482 490.152 204.296 494.03C204.623 495.867 205.012 497.751 205.417 499.619C206.071 502.592 206.802 505.534 207.487 508.165C209.044 513.894 210.289 518.128 210.289 518.128C210.289 518.128 212.079 518.89 212.546 517.832C212.546 514.392 212.546 510.967 212.546 507.589C212.862 486.54 214.981 465.557 218.882 444.871C220.594 453.028 233.312 472.891 233.312 472.891C233.312 472.891 228.16 475.6 225.186 483.445C223.287 488.489 221.17 501.409 219.894 510.033C219.178 514.843 218.726 518.299 218.726 518.299L220.672 519.513C220.672 519.513 222.229 516.4 224.408 511.621C229.95 499.759 239.741 478.184 239.788 473.638C239.788 468.439 235.336 442.816 234.153 424.121C234.06 422.564 233.997 421.147 233.935 419.731C233.935 419.388 233.935 419.061 233.935 418.719C233.935 418.376 233.935 418.345 233.935 418.159C233.935 417.053 233.935 415.979 233.935 415.045C233.935 414.423 233.935 413.815 233.935 413.224L220.065 410.531L216.376 409.815L212.219 409.005C212.219 409.005 211.706 409.317 210.896 409.893C210.429 410.235 209.869 410.655 209.246 411.169L209.059 411.309L208.655 411.636L208.297 411.932C204.623 415.045 199.626 420.307 199.175 426.347C198.459 436.014 208.048 466.026 208.048 466.026C205.094 470.935 203.418 476.507 203.175 482.231Z" fill="url(#paint18_linear)"/>
<path opacity="0.1" d="M209.636 466.4C208.92 467.489 203.176 476.736 204.296 494.046C204.623 495.883 205.012 497.767 205.417 499.635C202.304 477.748 210.087 466.727 210.087 466.602L210.165 466.509V466.384C210.072 466.026 201.261 430.581 202.6 425.382C203.643 421.319 207.129 416.633 210.725 413.022C214.928 415.543 223.35 419.139 230.215 419.139C231.452 419.146 232.685 419.005 233.889 418.719C233.889 418.532 233.889 418.345 233.889 418.159C227.008 419.949 216.034 415.528 211.13 412.648C212.08 411.714 213.029 410.858 213.948 410.111L213.59 409.69C212.64 410.469 211.628 411.356 210.632 412.352C210.088 412.015 209.568 411.641 209.075 411.232L208.671 411.558C209.161 411.984 209.681 412.374 210.227 412.726C206.6 416.384 203.113 421.132 202.055 425.179C200.747 430.503 208.966 463.753 209.636 466.4Z" fill="black"/>
<path style="mix-blend-mode:multiply" d="M218.882 444.871V445.073C219.191 446.279 219.576 447.465 220.034 448.622L220.174 449.012C221.836 452.929 223.728 456.744 225.841 460.438C227.319 463.084 228.783 465.621 230.028 467.676C235.336 463.239 234.9 445.307 233.141 437.01C231.787 430.783 228.285 428.23 225.981 427.218C225.841 427.981 225.654 428.775 225.389 429.771C224.346 433.445 222.276 436.87 220.081 437.975L218.882 444.871Z" fill="url(#paint19_radial)"/>
<path d="M218.726 518.299L220.672 519.514C220.672 519.514 222.229 516.4 224.408 511.621C222.811 511.423 221.274 510.892 219.894 510.065C219.178 514.921 218.726 518.299 218.726 518.299Z" fill="#24353A"/>
<path d="M207.487 508.181C209.044 513.909 210.289 518.144 210.289 518.144C210.289 518.144 212.079 518.906 212.546 517.848C212.546 514.408 212.546 510.983 212.546 507.605C210.962 508.322 209.192 508.524 207.487 508.181Z" fill="#24353A"/>
<path d="M224.424 409.721C224.424 409.854 224.476 409.98 224.57 410.074C224.663 410.167 224.79 410.22 224.922 410.22C224.989 410.222 225.055 410.21 225.118 410.186C225.18 410.162 225.237 410.126 225.284 410.079C225.332 410.033 225.37 409.977 225.396 409.916C225.422 409.854 225.436 409.788 225.436 409.721C225.436 409.585 225.382 409.455 225.285 409.358C225.189 409.262 225.058 409.208 224.922 409.208C224.855 409.208 224.789 409.221 224.728 409.247C224.666 409.273 224.611 409.311 224.564 409.359C224.518 409.407 224.481 409.464 224.457 409.526C224.433 409.588 224.422 409.655 224.424 409.721Z" fill="#EDE8F5"/>
<path d="M234.662 424.552C233.486 425.057 232.165 425.109 230.953 424.699C229.741 424.289 228.724 423.445 228.097 422.33C227.848 421.93 227.634 421.511 227.457 421.075C226.126 416.933 222.812 379.502 223.691 376.276L223.766 375.999C224.38 372.888 224.825 369.745 225.097 366.585C225.097 366.585 224.77 359.958 224.858 359.707C224.946 359.456 224.77 354.824 224.77 354.824C226.762 358.252 228.294 361.928 229.327 365.757C231.136 374.601 232.244 383.575 232.641 392.594C233.08 402.447 234.122 418.426 234.662 424.552Z" fill="#FA353D"/>
<path opacity="0.5" d="M228.097 422.33C227.849 421.93 227.634 421.51 227.457 421.074C226.126 416.932 222.812 379.501 223.691 376.275L223.766 375.999L224.03 376.275C224.03 376.275 227.921 415.275 228.084 419.505C228.084 420.823 228.122 421.702 228.097 422.33Z" fill="#ED1C24"/>
<path d="M209.543 350.698L206.176 352.075C207.6 355.607 211.437 363.399 213.216 366.766C215.706 371.254 219.762 372.871 223.603 376.275C224.971 372.509 226.393 362.599 225.765 358.808C225.435 356.692 225.153 354.217 223.176 352.727L220.715 351.616C220.715 351.616 219.337 353.605 217.042 353.299C214.746 352.993 212.471 351.773 209.543 350.698Z" fill="#B4CAD6"/>
<path d="M208.151 354.159C208.151 354.159 202.113 374.042 202.025 374.242C201.937 374.443 204.536 385.1 206.004 394.037C207.473 402.975 204.646 415.586 204.646 415.586C204.646 415.586 223.01 424.424 225.306 423.85C226.53 423.544 227.871 423.686 227.695 419.468C227.519 415.251 223.64 376.238 223.64 376.238C223.64 376.238 215.029 367.452 214.038 365.305C213.335 363.676 212.752 361.998 212.293 360.284L208.151 354.159Z" fill="url(#paint20_radial)"/>
<path d="M224.632 407.166C224.632 407.363 224.554 407.551 224.415 407.69C224.276 407.829 224.088 407.907 223.891 407.907C223.695 407.907 223.506 407.829 223.368 407.69C223.229 407.551 223.151 407.363 223.151 407.166C223.151 406.97 223.229 406.781 223.368 406.642C223.506 406.504 223.695 406.426 223.891 406.426C224.088 406.426 224.276 406.504 224.415 406.642C224.554 406.781 224.632 406.97 224.632 407.166Z" fill="#ED1C24"/>
<path d="M222.824 387.861C222.826 387.959 222.808 388.057 222.771 388.148C222.735 388.24 222.681 388.323 222.612 388.393C222.543 388.463 222.461 388.519 222.37 388.557C222.279 388.595 222.182 388.614 222.084 388.614C221.977 388.628 221.869 388.619 221.767 388.588C221.665 388.557 221.57 388.504 221.489 388.433C221.409 388.363 221.345 388.276 221.3 388.178C221.256 388.08 221.233 387.974 221.233 387.867C221.233 387.76 221.256 387.654 221.3 387.557C221.345 387.459 221.409 387.372 221.489 387.302C221.57 387.231 221.665 387.178 221.767 387.147C221.869 387.116 221.977 387.107 222.084 387.121C222.181 387.121 222.277 387.14 222.367 387.177C222.457 387.214 222.538 387.269 222.607 387.337C222.676 387.406 222.731 387.488 222.768 387.578C222.805 387.668 222.824 387.764 222.824 387.861Z" fill="#ED1C24"/>
<path d="M208.992 406.339L209.067 407.33L214.126 407.155L214.038 406.502L208.992 406.339Z" fill="#ED1C24"/>
<path d="M232.101 406.339L232.176 407.406L234.41 407.067L234.084 406.464L232.101 406.339Z" fill="#ED1C24"/>
<path fill-rule="evenodd" clip-rule="evenodd" d="M199.791 356.267C201.731 354.288 204.084 352.763 206.682 351.798L209.343 356.129C207.88 360.432 206.718 364.832 205.866 369.296C205.425 371.835 204.455 376.959 203.484 382.02L196.986 363.943C197.947 360.104 198.935 357.198 199.791 356.267Z" fill="#FA353D"/>
<path d="M239.828 398.88C241.9 399.991 243.878 401.266 245.745 402.693C246.476 403.608 245.395 408.684 245.395 408.684L236.13 402.18L237.088 400.033L239.828 398.88Z" fill="#F3C9A8"/>
<path d="M187.762 388.215C196.984 399.248 227.497 403.499 237.644 400.989C238.257 400.176 238.994 399.464 239.828 398.88C239.828 398.88 212.743 383.288 204.646 381.764C196.549 380.24 187.762 388.215 187.762 388.215Z" fill="#F3C9A8"/>
<path d="M189.954 373.348C192.051 366.023 194.851 356.564 200.208 356.207C203.882 355.962 204.535 359.483 205.258 363.094C206.941 371.511 200.208 381.764 200.208 381.764C200.208 381.764 197.275 382.221 194.851 383.907C191.368 386.33 188.73 389.151 187.811 388.345C183.365 384.442 188.297 379.135 189.954 373.348Z" fill="#B4CAD6"/>
<path d="M279.328 355.171C279.092 355.25 279.29 355.252 279.757 355.203L279.427 355.149C279.394 355.154 279.361 355.161 279.328 355.171Z" fill="#EEB48D"/>
<path d="M279.429 355.15L279.76 355.203C279.913 355.188 280.089 355.167 280.293 355.143C280.005 355.124 279.717 355.127 279.429 355.15Z" fill="#EEB48D"/>
<path opacity="0.09" d="M153 523.607C153 523.607 182.371 529.211 218.559 529.211C254.747 529.211 284.119 523.607 284.119 523.607C284.119 523.607 254.766 518 218.559 518C182.352 518 153 523.607 153 523.607Z" fill="#2C2D33"/>
<path d="M94.709 374.8C94.709 374.8 106.787 367.704 126.638 373.05C145.403 378.115 122.374 404.938 122.374 404.938L96.306 403.865L91.476 383.144L94.709 374.8Z" fill="#ED1C24"/>
<path d="M129.277 373.939C128.068 375.167 126.746 376.582 125.462 377.977C122.113 381.699 119.042 385.198 119.042 385.198L101.177 386.873L98.553 375.186C103.205 372.971 114.446 372.841 122.168 373.325C124.548 373.389 126.922 373.594 129.277 373.939Z" fill="#C5D7E1"/>
<path d="M129.278 373.94C128.068 375.168 126.747 376.582 125.463 377.978C124.526 377.573 123.721 376.914 123.139 376.075C122.557 375.237 122.221 374.252 122.169 373.232C124.551 373.327 126.924 373.564 129.278 373.94Z" fill="#8DB3C2"/>
<path d="M137.968 586.161H135.772C131.975 570.657 127.233 555.399 121.573 540.474C116.646 528.017 110.96 515.873 104.545 504.112C101.677 511.326 99.526 518.806 98.125 526.443C96.041 538.353 95.222 553.296 94.403 560.424C93.585 567.551 80.446 586.626 80.446 586.626L78.381 585.751C82.996 540.716 83.61 519.539 82.884 496.091C82.884 495.775 82.884 495.458 82.884 495.142C82.735 490.396 82.531 485.521 82.289 480.254C82.754 471.806 121.052 468.568 121.052 468.568L125.63 474.15C127.897 483.936 129.323 493.897 129.892 503.926C131.194 522.33 135.195 526.015 139.085 545.927C142.974 565.839 137.968 586.161 137.968 586.161Z" fill="url(#paint21_linear)"/>
<path d="M120.959 478.841C120.828 478.282 120.68 477.743 120.549 477.166L121.182 476.924C121.331 477.501 121.461 478.059 121.61 478.599L120.959 478.841Z" fill="#1D2A2E"/>
<path d="M122.671 483.493L122.02 483.679C122.243 484.796 122.429 485.875 122.616 486.936L123.285 486.787C123.099 485.708 122.895 484.61 122.671 483.493ZM124.048 491.756L123.378 491.867C123.527 492.965 123.676 494.082 123.807 495.18L124.476 495.068C124.346 493.952 124.197 492.854 124.048 491.756ZM125.109 500.037L124.439 500.149C124.588 501.228 124.737 502.326 124.886 503.461L125.556 503.349C125.407 502.214 125.258 501.116 125.109 500.037ZM126.282 508.3L125.63 508.448C125.798 509.509 125.965 510.607 126.17 511.742L126.84 511.575C126.635 510.44 126.449 509.342 126.282 508.3ZM128.143 518.516C127.994 517.828 127.845 517.139 127.714 516.488L127.063 516.674C127.193 517.325 127.342 518.014 127.473 518.702C127.603 519.391 127.64 519.54 127.733 519.93L128.384 519.726C128.329 519.316 128.236 518.926 128.161 518.516H128.143ZM129.501 524.564L128.85 524.806C129.11 525.904 129.371 526.965 129.65 528.044L130.283 527.784C130.041 526.741 129.78 525.662 129.52 524.564H129.501ZM131.548 532.585L130.915 532.845C131.213 533.906 131.492 534.985 131.79 536.028L132.441 535.767C132.162 534.706 131.864 533.664 131.567 532.585H131.548ZM133.763 540.531L133.13 540.792C133.428 541.871 133.707 542.932 133.986 543.992L134.637 543.732C134.377 542.671 134.079 541.61 133.781 540.531H133.763ZM135.884 548.552L135.233 548.775C135.518 549.854 135.779 550.934 136.014 552.013L136.721 551.883C136.424 550.71 136.182 549.631 135.903 548.552H135.884ZM137.745 556.703L137.094 556.87C137.298 557.968 137.484 559.066 137.633 560.145L138.303 559.997C138.08 558.917 137.894 557.801 137.689 556.703H137.745ZM139.085 566.863C139.085 566.249 138.992 565.617 138.917 565.002H138.247L138.415 566.863C138.415 567.366 138.415 567.868 138.508 568.352H139.196L139.085 566.863ZM138.713 573.395C138.713 574.53 138.713 575.647 138.713 576.726H139.383C139.383 575.647 139.383 574.512 139.383 573.377L138.713 573.395Z" fill="#1D2A2E"/>
<path d="M82.754 478.394L82.475 482.246C82.475 482.246 88.057 483.307 100.842 481.185C109.285 479.658 117.561 477.321 125.555 474.207L124.513 471.545L82.754 478.394Z" fill="#2A2522"/>
<path d="M122.541 499.869L122.354 500.688C122.078 500.557 121.81 500.408 121.554 500.241C118.074 497.989 115.275 494.83 113.459 491.104C111.974 488.069 111.119 484.764 110.947 481.39H111.635C111.802 484.617 112.605 487.779 113.999 490.695C115.791 494.392 118.59 497.507 122.075 499.683L122.541 499.869Z" fill="#1D2A2E"/>
<path d="M82.866 496.054C82.866 495.738 82.866 495.421 82.866 495.105C84.727 493.672 88.077 490.043 87.407 482.078H88.077C88.784 490.769 84.876 494.658 82.866 496.054Z" fill="#1D2A2E"/>
<path d="M103.224 498.678C102.628 498.678 96.413 494.23 94.868 479.473H95.538C96.822 491.718 101.4 497.599 102.833 497.859L100.451 478.524L101.121 478.356L103.67 498.827H103.224V498.678Z" fill="#1D2A2E"/>
<path d="M103.783 363.164C104.155 372.674 102.648 378.48 100.936 381.122C99.223 383.765 101.847 387.989 108.826 387.989C116.27 387.989 125.574 381.941 125.574 381.941C125.574 381.941 123.155 371.557 123.844 366.719C124.532 361.88 103.783 363.164 103.783 363.164Z" fill="url(#paint22_radial)"/>
<path d="M137.968 586.161L138.564 589.288H125.314C125.314 589.288 126.858 586.366 129.036 585.715C130.804 585.522 132.584 585.943 134.079 586.906L135.847 586.161H137.968Z" fill="#2E373B"/>
<path d="M78.362 585.715L80.837 586.161L81.414 589.288H68.182C68.182 589.288 69.727 586.366 71.904 585.715C73.672 585.522 75.453 585.943 76.947 586.906L78.362 585.715Z" fill="#2E373B"/>
<path d="M131.249 330.877C131.219 331.408 131.157 331.936 131.063 332.459C131.051 332.657 131.051 332.856 131.063 333.055C130.48 337.47 130.281 341.929 130.468 346.379C130.561 346.9 128.402 347.291 125.146 347.588C121.889 347.886 116.846 330.84 112.528 330.84C108.211 330.84 104.08 348.351 100.99 348.37H96.952C96.714 345.35 95.75 342.433 94.142 339.866C94.037 339.564 94.037 339.236 94.142 338.935C94.195 338.663 94.27 338.395 94.366 338.135C94.794 336.925 95.575 335.548 95.203 334.413C94.719 332.961 92.914 331.435 94.031 328.625C94.151 328.281 94.307 327.951 94.496 327.639C94.607 327.434 94.738 327.248 94.868 327.044C97.176 323.62 101.195 323.061 103.875 320.214C104.232 319.844 104.55 319.439 104.824 319.004C105.231 318.4 105.699 317.839 106.22 317.33C107.733 315.938 109.461 314.8 111.337 313.961C112.082 313.608 112.807 313.31 113.44 313.068C114.103 312.823 114.781 312.618 115.469 312.454C117.33 312.007 114.594 316.176 114.464 316.287C114.613 316.139 117.441 313.589 119.097 314.147C119.281 314.215 119.447 314.322 119.585 314.46C119.723 314.598 119.83 314.764 119.898 314.948C120.214 315.599 120.363 316.474 120.735 317.33C120.93 317.891 121.267 318.392 121.714 318.784C122.161 319.175 122.702 319.444 123.285 319.563C124.17 319.745 125.041 319.994 125.89 320.307C126.213 320.436 126.524 320.591 126.82 320.772C127.352 321.03 127.796 321.44 128.094 321.95C128.392 322.461 128.532 323.048 128.495 323.638C128.495 326.002 127.918 327.49 129.519 327.49C130.654 327.621 131.342 328.756 131.249 330.877Z" fill="#46271E"/>
<g style="mix-blend-mode:screen" opacity="0.5">
<g style="mix-blend-mode:screen" opacity="0.5">
<path d="M99.502 338.506C99.128 338.957 98.662 339.324 98.137 339.584C97.611 339.844 97.036 339.99 96.451 340.014C96.077 340.005 95.708 339.942 95.353 339.828C94.873 339.646 94.436 339.367 94.069 339.009C94.122 338.736 94.196 338.469 94.292 338.209C94.612 338.654 95.06 338.992 95.576 339.176C96.198 339.349 96.857 339.334 97.47 339.132C98.083 338.93 98.622 338.55 99.019 338.041L99.502 338.506Z" fill="#46271E"/>
</g>
</g>
<g style="mix-blend-mode:screen" opacity="0.5">
<g style="mix-blend-mode:screen" opacity="0.5">
<path d="M101.363 331.566C100.786 331.566 100.265 331.566 99.781 331.566C95.891 331.566 94.533 329.947 94.068 328.886C94.06 328.805 94.06 328.724 94.068 328.644C94.188 328.3 94.344 327.969 94.533 327.658C94.567 327.984 94.649 328.304 94.775 328.607C95.538 330.337 97.957 331.138 101.381 330.803L101.363 331.566Z" fill="#46271E"/>
</g>
</g>
<g style="mix-blend-mode:screen" opacity="0.5">
<g style="mix-blend-mode:screen" opacity="0.5">
<path d="M105.085 328.272L104.973 328.942C104.47 328.858 104.002 328.628 103.629 328.281C103.255 327.933 102.991 327.484 102.871 326.988C102.429 324.735 102.723 322.4 103.708 320.326C104.065 319.956 104.383 319.551 104.657 319.116C105.064 318.512 105.532 317.951 106.053 317.441C103.987 320.251 102.759 324.457 103.522 326.746C103.588 327.133 103.775 327.489 104.056 327.763C104.337 328.037 104.697 328.215 105.085 328.272Z" fill="#46271E"/>
</g>
</g>
<g style="mix-blend-mode:screen" opacity="0.5">
<g style="mix-blend-mode:screen" opacity="0.5">
<path d="M107.746 322.633C107.679 323.522 107.897 324.409 108.369 325.166C108.841 325.922 109.542 326.508 110.37 326.839L110.091 327.471C109.134 327.09 108.324 326.413 107.779 325.54C107.233 324.666 106.981 323.641 107.058 322.614C107.347 319.359 108.816 316.321 111.189 314.073C111.933 313.719 112.659 313.421 113.292 313.179C111.751 314.273 110.46 315.681 109.504 317.311C108.548 318.94 107.949 320.754 107.746 322.633Z" fill="#46271E"/>
</g>
</g>
<g style="mix-blend-mode:screen" opacity="0.5">
<g style="mix-blend-mode:screen" opacity="0.5">
<path d="M120.587 317.404C120.571 319.349 120.113 321.266 119.25 323.01C118.386 324.754 117.138 326.279 115.6 327.471L115.209 326.913C116.951 325.506 118.288 323.662 119.086 321.57C119.884 319.478 120.113 317.212 119.75 315.003C120.066 315.71 120.215 316.585 120.587 317.404Z" fill="#46271E"/>
</g>
</g>
<g style="mix-blend-mode:screen" opacity="0.5">
<g style="mix-blend-mode:screen" opacity="0.5">
<path d="M126.914 324.494C126.665 325.576 126.06 326.544 125.196 327.242C124.333 327.94 123.26 328.329 122.15 328.346V327.676C123.122 327.676 124.065 327.347 124.825 326.742C125.585 326.137 126.119 325.292 126.337 324.345C126.615 323.021 126.431 321.642 125.816 320.437C126.139 320.566 126.45 320.722 126.747 320.902C127.152 322.058 127.21 323.306 126.914 324.494Z" fill="#46271E"/>
</g>
</g>
<g style="mix-blend-mode:screen" opacity="0.5">
<g style="mix-blend-mode:screen" opacity="0.5">
<path d="M131.25 330.896C131.22 331.426 131.158 331.954 131.064 332.478C131.052 332.676 131.052 332.875 131.064 333.073L130.729 333.464C130.104 334.077 129.356 334.551 128.536 334.855C127.715 335.16 126.839 335.288 125.965 335.232H125.556V334.562C126.391 334.659 127.238 334.571 128.035 334.304C128.833 334.037 129.562 333.598 130.171 333.017C130.712 332.418 131.085 331.686 131.25 330.896Z" fill="#46271E"/>
</g>
</g>
<path d="M99.502 347.31C97.008 347.087 94.85 347.422 94.626 349.171C94.403 350.92 96.487 355.182 97.567 356.615C98.646 358.048 100.06 356.28 100.06 356.28L99.502 347.31Z" fill="#FDB77E"/>
<path d="M127.138 346.043C129.576 345.504 131.753 345.559 132.218 347.327C132.683 349.095 131.102 353.524 130.264 354.994C129.427 356.465 127.752 354.994 127.752 354.994L127.138 346.043Z" fill="#FDB77E"/>
<path style="mix-blend-mode:multiply" opacity="0.5" d="M130.598 347.03C128.867 346.733 127.639 352.836 129.537 353.99C130.561 352.464 130.598 347.03 130.598 347.03Z" fill="url(#paint23_linear)"/>
<path style="mix-blend-mode:multiply" opacity="0.5" d="M96.358 348.928C98.051 348.426 100.08 354.344 98.219 355.721C97.065 354.325 96.358 348.928 96.358 348.928Z" fill="url(#paint24_linear)"/>
<path d="M98.795 336.33C98.67 344.608 99.05 352.886 99.93 361.118C100.842 365.993 108.751 372.562 117.256 370.515C125.76 368.468 129.017 362.253 128.57 355.014C128.124 347.775 127.1 332.292 125.556 329.426C124.011 326.56 115.469 325.909 110.668 326.485C105.867 327.062 98.907 328.979 98.795 336.33Z" fill="#FBCAA3"/>
<path d="M116.252 340.666C113.758 344.053 115.637 348.277 116.735 350.473C117.833 352.669 123.267 353.395 124.458 349.822C125.456 347.033 125.515 343.994 124.626 341.168C123.9 339.307 117.498 338.544 116.252 340.666Z" fill="url(#paint25_linear)"/>
<path d="M110.406 337.688C113.737 342.155 112.714 345.616 111.821 349.412C111.113 351.846 109.613 353.975 107.559 355.46C107.559 355.46 102.925 354.102 101.623 352.352C100.32 350.603 101.288 341.931 102.702 340.07C104.116 338.209 109.383 336.888 110.406 337.688Z" fill="url(#paint26_linear)"/>
<path d="M116.772 347.179C116.874 346.188 117.328 345.267 118.052 344.584C118.777 343.901 119.723 343.501 120.717 343.457C121.177 343.428 121.639 343.499 122.069 343.665C122.499 343.831 122.888 344.088 123.21 344.419C123.531 344.749 123.778 345.145 123.932 345.58C124.087 346.014 124.145 346.477 124.104 346.937C121.669 347.195 119.219 347.276 116.772 347.179Z" fill="#823F00"/>
<path d="M102.461 347.402C102.465 346.894 102.576 346.393 102.787 345.932C102.998 345.47 103.304 345.058 103.685 344.722C104.066 344.387 104.514 344.136 104.999 343.985C105.484 343.834 105.995 343.788 106.499 343.848C107.04 343.86 107.574 343.979 108.069 344.2C108.564 344.421 109.01 344.738 109.381 345.133C109.752 345.528 110.04 345.993 110.229 346.501C110.418 347.009 110.504 347.549 110.481 348.091C107.79 348.172 105.098 347.941 102.461 347.402Z" fill="#823F00"/>
<path d="M117.144 348.761C115.804 347.18 118.093 344.425 119.991 344.053C120.464 343.892 120.968 343.845 121.463 343.915C121.958 343.986 122.429 344.172 122.839 344.458C123.248 344.744 123.585 345.123 123.821 345.564C124.056 346.004 124.185 346.494 124.197 346.993C124.364 348.352 119.396 351.441 117.144 348.761Z" fill="white"/>
<path d="M110.668 348.463C110.642 347.889 110.502 347.326 110.256 346.807C110.009 346.289 109.662 345.824 109.234 345.441C108.806 345.058 108.306 344.764 107.763 344.577C107.22 344.39 106.645 344.313 106.072 344.35C105.548 344.368 105.034 344.497 104.564 344.727C104.093 344.957 103.677 345.284 103.341 345.686C103.006 346.088 102.759 346.557 102.617 347.061C102.475 347.565 102.441 348.094 102.517 348.612C102.647 349.822 104.843 351.068 107.002 350.808C109.626 350.491 110.538 349.58 110.668 348.463Z" fill="white"/>
<path d="M109.719 347.96C109.719 348.483 109.563 348.995 109.272 349.43C108.981 349.865 108.567 350.204 108.083 350.403C107.599 350.603 107.067 350.654 106.554 350.55C106.041 350.447 105.57 350.193 105.201 349.822C104.832 349.45 104.582 348.978 104.482 348.464C104.382 347.95 104.437 347.418 104.64 346.936C104.843 346.453 105.185 346.042 105.622 345.754C106.059 345.466 106.571 345.314 107.095 345.317C107.441 345.317 107.784 345.386 108.103 345.519C108.423 345.652 108.713 345.847 108.957 346.093C109.201 346.338 109.394 346.63 109.524 346.95C109.655 347.271 109.721 347.614 109.719 347.96Z" fill="#5F3A04"/>
<path d="M122.671 347.068C122.701 347.432 122.656 347.799 122.538 348.145C122.419 348.491 122.23 348.809 121.983 349.078C121.735 349.347 121.434 349.562 121.1 349.709C120.765 349.856 120.403 349.932 120.037 349.932C119.672 349.932 119.31 349.856 118.975 349.709C118.64 349.562 118.34 349.347 118.092 349.078C117.844 348.809 117.656 348.491 117.537 348.145C117.419 347.799 117.373 347.432 117.404 347.068C117.46 346.408 117.761 345.792 118.249 345.344C118.736 344.896 119.375 344.647 120.037 344.647C120.7 344.647 121.338 344.896 121.826 345.344C122.314 345.792 122.615 346.408 122.671 347.068Z" fill="#5F3A04"/>
<path d="M122.856 346.006C122.852 346.187 122.778 346.36 122.649 346.488C122.521 346.616 122.349 346.69 122.168 346.695C121.988 346.69 121.818 346.615 121.693 346.487C121.568 346.358 121.498 346.186 121.498 346.006C121.498 345.829 121.568 345.658 121.694 345.533C121.82 345.407 121.99 345.336 122.168 345.336C122.347 345.336 122.52 345.406 122.648 345.531C122.777 345.657 122.851 345.827 122.856 346.006Z" fill="white"/>
<path d="M109.887 346.695C109.887 346.873 109.817 347.043 109.691 347.169C109.565 347.295 109.395 347.365 109.217 347.365C109.119 347.381 109.018 347.376 108.921 347.35C108.825 347.323 108.735 347.276 108.659 347.211C108.583 347.146 108.522 347.066 108.48 346.975C108.438 346.885 108.416 346.786 108.416 346.686C108.416 346.586 108.438 346.487 108.48 346.396C108.522 346.306 108.583 346.225 108.659 346.161C108.735 346.096 108.825 346.049 108.921 346.022C109.018 345.996 109.119 345.99 109.217 346.007C109.307 346.007 109.395 346.025 109.478 346.059C109.56 346.094 109.635 346.145 109.698 346.209C109.76 346.274 109.809 346.35 109.842 346.433C109.874 346.517 109.89 346.606 109.887 346.695Z" fill="white"/>
<path d="M110.315 353.822C110.315 353.822 112.604 356.204 114.036 356.204C115.469 356.204 117.423 353.487 117.423 353.487C116.317 354.086 115.151 354.566 113.943 354.92C112.661 354.866 111.412 354.488 110.315 353.822Z" fill="#E86321"/>
<path d="M120.215 354.623C120.474 354.596 120.736 354.635 120.978 354.734C119.189 357.145 116.616 358.856 113.701 359.573C115.276 359.599 116.829 359.204 118.2 358.429C119.571 357.653 120.71 356.526 121.499 355.162C121.641 355.355 121.736 355.578 121.778 355.814C122.224 354.623 121.275 353.99 120.215 354.623Z" fill="#E86321"/>
<path d="M115.022 338.414C115.022 338.414 115.153 340.74 116.195 340.665C117.237 340.591 123.229 338.804 124.662 341.503C124.391 340.454 123.863 339.49 123.125 338.697C122.387 337.905 121.464 337.308 120.438 336.962C119.16 337.149 117.91 337.493 116.716 337.986L116.362 340.014L115.73 338.321L115.022 338.414Z" fill="#823F00"/>
<path d="M111.04 335.138C111.174 336.056 111.13 336.991 110.91 337.892C110.519 338.451 104.788 337.65 101.996 341.763C101.936 340.667 102.107 339.57 102.499 338.544C103.224 336.85 104.974 335.827 109.217 335.399C109.412 336.053 109.567 336.717 109.682 337.39L110.315 335.306L111.04 335.138Z" fill="#823F00"/>
<path d="M172.408 434.011C172.408 457.039 165.141 446.322 165.141 446.322C165.141 446.322 155.637 441.025 141.225 446.322C138.731 439.929 150.154 458.306 152.945 446.322C155.737 434.337 138.731 425.041 138.731 425.041C138.731 425.041 126.803 435.035 125.053 439.929C123.304 444.823 124.532 471.565 124.532 471.565C116.41 474.358 108.069 476.468 99.596 477.874H98.851H98.218C93.087 478.489 87.909 478.613 82.754 478.246C82.754 478.246 78.548 452.974 79.032 434.011C79.516 415.048 80.781 398.653 80.781 398.653C80.781 398.653 71.89 389.069 71.89 385.664C82.348 378.76 98.07 378.462 98.07 378.462L98.609 375.131C98.609 375.131 100.731 380.36 102.461 385.143C102.461 385.31 102.573 385.496 102.648 385.664C102.786 385.487 102.935 385.319 103.094 385.161C104.458 383.749 105.982 382.499 107.635 381.439C109.751 380.063 111.951 378.82 114.223 377.718L119.024 378.722L141.225 381.439C141.225 381.439 148.74 387.843 152.945 394.338C157.151 400.833 174.865 421.543 172.408 434.011Z" fill="#B4CAD6"/>
<path opacity="0.2" d="M121.833 382.537C120.307 383.952 106.257 386.78 102.647 385.72C104.508 384.045 106.164 382.668 107.634 381.532C109.751 380.156 111.951 378.912 114.222 377.811L119.023 378.815C120.81 380.174 122.578 381.793 121.833 382.537Z" fill="#7898B1"/>
<path d="M98.553 375.186C97.278 375.939 96.196 376.978 95.392 378.222C94.587 379.465 94.083 380.879 93.92 382.351L100.452 379.69L98.553 375.186Z" fill="#7898B1"/>
<g style="mix-blend-mode:multiply" opacity="0.5">
<g style="mix-blend-mode:multiply" opacity="0.3">
<g style="mix-blend-mode:multiply" opacity="0.3">
<path d="M94.311 450.983C95.427 466.726 98.033 475.343 98.851 477.948H98.219C97.288 475.156 94.795 466.503 93.715 450.946C91.89 428.636 94.853 406.195 102.406 385.124C102.406 385.292 102.518 385.478 102.592 385.645C102.73 385.469 102.879 385.301 103.039 385.143C95.45 406.212 92.474 428.664 94.311 450.983Z" fill="#89A5BB"/>
</g>
</g>
</g>
<path d="M99.465 468.439C99.887 468.439 100.228 468.097 100.228 467.676C100.228 467.254 99.887 466.913 99.465 466.913C99.044 466.913 98.702 467.254 98.702 467.676C98.702 468.097 99.044 468.439 99.465 468.439Z" fill="#C5D7E1"/>
<path d="M97.809 448.116C97.809 448.318 97.728 448.512 97.585 448.656C97.442 448.799 97.248 448.879 97.046 448.879C96.945 448.879 96.846 448.859 96.754 448.821C96.661 448.783 96.577 448.726 96.506 448.656C96.435 448.585 96.379 448.501 96.341 448.408C96.302 448.315 96.283 448.216 96.283 448.116C96.287 447.915 96.369 447.724 96.511 447.582C96.653 447.44 96.845 447.358 97.046 447.353C97.248 447.353 97.442 447.433 97.585 447.577C97.728 447.72 97.809 447.914 97.809 448.116Z" fill="#C5D7E1"/>
<path d="M96.86 430.177C97.282 430.177 97.623 429.835 97.623 429.414C97.623 428.992 97.282 428.651 96.86 428.651C96.439 428.651 96.097 428.992 96.097 429.414C96.097 429.835 96.439 430.177 96.86 430.177Z" fill="#C5D7E1"/>
<path d="M99.503 411.102C99.52 411.211 99.513 411.323 99.483 411.429C99.453 411.535 99.401 411.633 99.329 411.717C99.257 411.801 99.168 411.868 99.068 411.914C98.968 411.96 98.859 411.984 98.749 411.984C98.639 411.984 98.53 411.96 98.43 411.914C98.329 411.868 98.24 411.801 98.169 411.717C98.097 411.633 98.045 411.535 98.015 411.429C97.985 411.323 97.978 411.211 97.995 411.102C97.978 410.994 97.985 410.882 98.015 410.776C98.045 410.67 98.097 410.572 98.169 410.488C98.24 410.404 98.329 410.337 98.43 410.291C98.53 410.245 98.639 410.221 98.749 410.221C98.859 410.221 98.968 410.245 99.068 410.291C99.168 410.337 99.257 410.404 99.329 410.488C99.401 410.572 99.453 410.67 99.483 410.776C99.513 410.882 99.52 410.994 99.503 411.102Z" fill="#C5D7E1"/>
<path d="M102.796 393.963C103.218 393.963 103.559 393.622 103.559 393.2C103.559 392.779 103.218 392.437 102.796 392.437C102.375 392.437 102.033 392.779 102.033 393.2C102.033 393.622 102.375 393.963 102.796 393.963Z" fill="#C5D7E1"/>
<path d="M86.885 478.152C86.885 478.84 87.574 483.158 87.574 483.158C87.574 483.158 89.621 483.158 89.546 482.86C89.472 482.562 88.634 478.077 88.634 478.077L86.885 478.152Z" fill="#24353A"/>
<path d="M112.752 474.746C113.106 476.367 113.56 477.964 114.111 479.529C114.26 479.287 115.86 478.989 115.86 478.989L114.185 474.132L112.752 474.746Z" fill="#24353A"/>
<path d="M95.074 477.928C95.558 479.524 96.181 481.075 96.935 482.562C97.158 482.32 103.001 481.502 103.001 481.502L101.866 477.091L95.074 477.928Z" fill="#7BA4AB"/>
<g style="mix-blend-mode:screen" opacity="0.4">
<g style="mix-blend-mode:screen" opacity="0.4">
<path d="M112.361 407.158L124.346 412.927L123.285 414.899L111.301 408.665L112.361 407.158Z" fill="#B4CAD6"/>
</g>
</g>
<path opacity="0.09" d="M22 589.21C22 589.21 57.457 595.974 101.143 595.974C144.829 595.974 180.286 589.21 180.286 589.21C180.286 589.21 144.852 582.441 101.143 582.441C57.434 582.441 22 589.21 22 589.21Z" fill="#2C2D33"/>
<path d="M76.928 391.379L75.546 390.679C71.526 398.172 75.505 416.779 71.397 419.837C65.115 419.837 47.13 406.046 47.13 406.046C47.13 406.046 55.704 433.96 72.972 433.905C82.836 433.873 89.945 413.386 93.694 399.194C88.048 396.739 82.435 394.17 76.928 391.379Z" fill="#B4CAD6"/>
<path d="M120.89 311.991C120.499 311.831 120.096 311.686 119.715 311.546C108.152 307.78 92.554 315.649 93.087 328.889C93.176 331.05 95.567 331.388 99.18 332.096C102.25 330.548 105.602 329.638 109.033 329.424C113.73 329.05 119.165 329.095 123.246 332.051C123.649 332.345 124.021 332.679 124.357 333.047C125.837 333.37 127.478 333.957 131.165 334.659C131.263 334.685 131.366 334.687 131.465 334.667C131.564 334.646 131.657 334.603 131.737 334.54C131.817 334.477 131.881 334.397 131.924 334.306C131.967 334.214 131.989 334.114 131.987 334.012C132.068 333.163 132.09 332.309 132.051 331.457C131.836 326.365 130.587 320.957 127.382 316.88C125.679 314.715 123.441 313.03 120.89 311.991Z" fill="#E62930"/>
<path d="M96.105 329.395C90.665 334.422 90.259 338.322 90.832 340.658C90.832 340.658 91.711 342.583 95.491 341.813C95.491 341.813 97.638 333.133 105.708 332.301C113.777 331.47 118.847 333.854 118.847 333.854C118.847 333.854 101.544 324.369 96.105 329.395Z" fill="#ED1C24"/>
<path d="M93.131 330.075C88.794 336.706 90.832 340.658 90.832 340.658C90.832 340.658 93.13 330.881 101.66 329.424C110.668 327.893 112.827 335.32 117.518 336.688C121.716 337.893 131.316 334.816 131.316 334.816C119.198 319.862 97.466 323.433 93.131 330.075Z" fill="#FA353D"/>
<path d="M117.666 335.317C113.601 333.696 109.919 326.762 101.385 328.176C92.85 329.59 90.511 339.543 90.511 339.543C90.561 340.024 90.729 340.484 91.001 340.884C91.001 340.884 93.01 330.849 101.547 329.445C109.505 328.144 113.3 335.155 117.356 336.779C121.411 338.402 131.311 334.817 131.311 334.817C131.023 334.468 130.727 334.132 130.432 333.801C128.26 334.627 121.136 336.702 117.666 335.317Z" fill="#ED1C24"/>
<path d="M149.853 391.692C149.328 385.595 141.763 380.202 130.771 374.998C132.368 377.201 135.205 390.755 119.569 395.425L105.823 470.915C105.632 471.954 105.658 473.02 105.898 474.048C106.139 475.076 106.589 476.044 107.22 476.89C107.852 477.736 108.651 478.443 109.568 478.966C110.486 479.489 111.501 479.817 112.551 479.929C133.031 482.064 140.064 477.322 140.064 477.322C143.892 459.266 146.511 441.98 148.105 427.451C148.169 426.881 148.281 425.748 148.281 425.748C148.281 425.748 148.423 424.471 148.49 423.841C149.974 409.068 150.361 397.57 149.853 391.692Z" fill="#FA353D"/>
<path opacity="0.08" d="M148.092 427.447C148.156 426.877 148.268 425.744 148.268 425.744C148.268 425.744 148.41 424.466 148.477 423.836C149.974 409.067 150.362 397.568 149.852 391.695C149.327 385.597 141.886 380.202 130.895 374.997C132.492 377.201 135.204 390.757 119.569 395.427L105.824 470.913C105.633 471.952 105.658 473.018 105.899 474.047C106.139 475.075 106.589 476.042 107.221 476.888C107.852 477.734 108.652 478.441 109.569 478.964C110.486 479.487 111.501 479.815 112.551 479.928C133.032 482.062 140.064 477.32 140.064 477.32C143.897 459.265 146.499 441.966 148.092 427.447ZM132.35 392.091C132.822 391.184 133.388 390.328 134.037 389.539C134.737 388.661 135.482 387.811 136.226 386.971C137.005 385.983 138.024 385.211 139.186 384.729C140.195 384.384 141.384 384.498 142.007 385.437C142.363 386.104 142.455 386.881 142.265 387.613C141.928 389.285 141.264 390.873 140.312 392.287C138.817 394.559 136.46 397.214 133.49 397.213C133.034 397.229 132.588 397.075 132.239 396.781C131.373 395.976 131.543 394.351 131.848 393.337C131.98 392.908 132.148 392.491 132.35 392.091ZM126.094 422.251C123.611 421.221 121.08 419.594 119.905 417.072C118.729 414.55 119.399 411.852 120.293 409.346C121.186 406.84 122.578 404.171 125.114 403.065C127.271 402.093 130.018 402.378 132.328 403.152C132.729 403.123 133.132 403.196 133.497 403.365C135.549 404.251 136.204 405.864 136.81 407.881C137.371 409.696 137.738 411.566 137.905 413.459C137.935 413.816 137.905 414.175 137.816 414.522C138.02 415.315 138.14 416.127 138.175 416.944C138.428 423.827 131.03 424.3 126.094 422.251Z" fill="black"/>
<path d="M148.092 427.447C148.094 427.224 148.042 427.004 147.94 426.806C143.445 427.148 131.835 427.447 114.382 423.888L114.052 425.7L114.246 425.74C131.756 429.292 143.271 429.021 147.955 428.655L148.092 427.447Z" fill="#ED1C24"/>
<path d="M140.564 398.569C137.456 399.136 130.778 399.722 119.057 398.227L118.727 400.04C129.96 401.482 136.67 401.11 140.201 400.544C140.339 399.862 140.417 399.342 140.564 398.569Z" fill="#ED1C24"/>
<path d="M127.376 373.228C127.497 373.26 127.617 373.298 127.734 373.343C128.079 373.458 128.417 373.596 128.745 373.754C130.026 374.351 131.191 375.17 132.187 376.172C132.933 376.926 133.541 377.804 133.982 378.768C134.233 379.343 134.416 379.945 134.529 380.562C134.64 381.236 134.659 381.923 134.585 382.603C134.497 383.29 134.339 383.966 134.114 384.622C133.886 385.313 133.606 385.987 133.278 386.637C132.565 388.061 131.562 389.32 130.334 390.334C129.032 391.344 127.612 392.192 126.105 392.859C124.66 393.562 123.246 394.234 122.262 395.242C122.014 395.488 121.789 395.757 121.591 396.045L121.452 396.271L121.382 396.383L121.375 396.415C121.364 396.469 121.384 396.37 121.375 396.415L121.36 396.492C121.28 396.645 121.211 396.804 121.155 396.967C120.88 397.701 120.634 398.539 120.403 399.38C119.936 401.075 119.521 402.847 119.104 404.647C117.433 411.863 115.891 419.651 114.387 427.432C112.884 435.213 111.386 443.015 110.079 450.333C109.417 453.991 108.793 457.529 108.248 460.886C107.975 462.56 107.718 464.194 107.523 465.757C107.485 465.947 107.478 466.143 107.453 466.335C107.428 466.527 107.418 466.718 107.403 466.907C107.364 467.308 107.335 467.683 107.316 468.05C107.27 468.788 107.252 469.527 107.273 470.231C107.271 471.543 107.483 472.846 107.9 474.089C108.273 475.142 108.921 476.076 109.776 476.795C110.57 477.446 111.462 477.966 112.418 478.337C113.279 478.685 114.162 478.977 115.06 479.211C116.703 479.662 118.043 479.934 118.954 480.142C119.866 480.351 120.36 480.465 120.36 480.465L119.99 480.503C119.745 480.528 119.385 480.568 118.916 480.586C117.549 480.667 116.177 480.637 114.814 480.496C113.82 480.389 112.837 480.199 111.875 479.928C111.312 479.761 110.762 479.556 110.228 479.312C109.638 479.029 109.078 478.689 108.555 478.296C107.998 477.853 107.5 477.34 107.075 476.769C106.632 476.165 106.273 475.504 106.007 474.804C105.477 473.357 105.189 471.832 105.156 470.29C105.118 469.507 105.126 468.724 105.168 467.92C105.185 467.51 105.205 467.11 105.237 466.722C105.254 466.518 105.268 466.314 105.285 466.111C105.303 465.908 105.326 465.701 105.345 465.494C105.52 463.866 105.75 462.221 105.991 460.527C106.477 457.134 107.04 453.574 107.635 449.898C108.859 442.544 110.245 434.716 111.708 426.903C112.458 423 113.239 419.103 114.032 415.266C114.824 411.428 115.635 407.664 116.492 404.018C116.927 402.199 117.379 400.411 117.88 398.661C118.139 397.774 118.397 396.92 118.749 396.018C118.843 395.773 118.951 395.533 119.074 395.3L119.112 395.227C119.112 395.227 119.173 395.113 119.162 395.144L119.171 395.099L119.274 394.936L119.486 394.613C119.777 394.195 120.108 393.805 120.473 393.45C121.159 392.79 121.931 392.226 122.768 391.773C123.553 391.331 124.338 390.983 125.042 390.642C126.38 390.076 127.644 389.349 128.807 388.478C130.879 386.836 131.916 384.411 132.324 382.332C132.645 380.33 131.844 378.537 130.957 377.187C130.55 376.571 130.097 375.987 129.601 375.441C129.171 374.94 128.763 374.547 128.439 374.219C127.76 373.583 127.376 373.228 127.376 373.228Z" fill="#FA353D"/>
<path d="M93.399 475.405C97.866 440.57 98.326 395.604 98.326 395.604C90.121 385.611 91.963 378.34 94.684 374.523C85.765 376.25 81.464 380.15 78.567 382.25C77.098 383.309 76.14 387.504 75.445 393.785C75.353 394.65 76.002 396.672 76.002 396.672C76.002 396.672 75.054 397.86 74.994 398.569C74.566 403.837 74.243 410.081 73.93 416.919C73.893 417.693 74.506 419.259 74.506 419.259C74.506 419.259 73.741 421.128 73.7 422.072C73.272 431.664 73.106 437.811 72.374 448.117C72.314 448.983 73.124 451.46 73.124 451.46C73.124 451.46 71.743 453.878 71.642 455.024C71.153 460.9 70.536 470.124 69.8 475.571C69.777 475.571 91.811 487.783 93.399 475.405Z" fill="#FA353D"/>
<path opacity="0.08" d="M94.68 374.523C85.76 376.25 81.459 380.15 78.563 382.25C77.094 383.309 76.136 387.504 75.441 393.785C75.349 394.65 75.998 396.672 75.998 396.672C75.998 396.672 75.049 397.86 74.99 398.569C74.561 403.837 74.239 410.081 73.926 416.919C73.889 417.693 74.501 419.259 74.501 419.259C74.501 419.259 73.737 421.128 73.696 422.072C73.267 431.664 73.102 437.811 72.369 448.117C72.31 448.983 73.12 451.46 73.12 451.46C73.12 451.46 71.739 453.878 71.637 455.024C71.149 460.9 70.532 470.124 69.795 475.571C69.795 475.571 91.829 487.783 93.418 475.405C97.866 440.57 98.327 395.604 98.327 395.604C90.116 385.611 91.958 378.34 94.68 374.523ZM79.521 386.035C80.308 383.327 83.509 379.431 86.631 379.768C87.393 379.806 88.119 380.104 88.688 380.613C89.257 381.122 89.634 381.81 89.757 382.563C90.144 384.957 91.291 387.126 92.06 389.396C92.695 391.238 93.667 394.181 92.124 395.843C91.496 396.423 90.676 396.751 89.822 396.764C83.886 397.225 77.766 392.698 79.461 386.242C79.475 386.159 79.498 386.072 79.521 386.012V386.035ZM77.043 408.773C77.683 406.061 79.185 403.538 81.938 402.603C84.982 401.567 89.343 402.023 92.202 403.395C94.044 404.27 95.016 405.845 95.329 407.811C95.845 411.094 96.089 415.266 93.948 418.061C91.222 421.639 86.746 421.285 82.896 420.083C80.865 419.457 78.466 418.803 77.274 416.86C75.883 414.622 76.477 411.15 77.043 408.75V408.773ZM90.139 473.563C87.763 476.732 83.983 476.98 80.405 476.165C77.702 475.548 74.911 474.715 73.419 472.182C71.485 468.894 72.07 464.718 73.079 461.232C74 458.008 76.822 456.369 79.986 455.872C83.149 455.374 87.754 455.738 90.314 457.746C94.486 461.024 92.884 469.907 90.139 473.563ZM89.757 448.103C88.462 448.976 86.952 449.473 85.392 449.54C83.047 449.633 80.748 448.876 78.917 447.408C75.234 444.535 74.529 439.741 75.293 435.38C75.546 433.864 75.999 432.388 76.643 430.992C77.868 428.39 79.99 427.649 82.712 427.538C86.156 427.395 90.54 427.492 92.967 430.333C93.712 431.227 94.217 432.297 94.431 433.441C95.449 438.424 94.095 445.184 89.757 448.112V448.103Z" fill="black"/>
<path d="M98.225 401.268C98.225 400.6 98.253 399.983 98.262 399.426C85.097 399.104 77.83 396.258 75.602 395.222C75.767 395.977 75.993 396.682 75.993 396.682C75.993 396.682 75.804 396.917 75.588 397.243C78.627 398.542 85.893 400.978 98.225 401.268Z" fill="#ED1C24"/>
<path d="M97.351 426.52C97.383 425.898 97.41 425.286 97.438 424.678C82.385 423.614 75.915 421.068 74.142 420.225C73.917 420.819 73.762 421.437 73.682 422.067C76.085 423.131 82.813 425.502 97.351 426.52Z" fill="#ED1C24"/>
<path d="M95.412 456.277C95.467 455.664 95.518 455.052 95.568 454.435C81.68 453.634 75.432 451.773 72.88 450.687C73.009 451.147 73.115 451.456 73.115 451.456C73.115 451.456 72.848 451.916 72.544 452.538C75.611 453.763 82.141 455.508 95.412 456.277Z" fill="#ED1C24"/>
<path d="M101.242 373.063C101.242 373.063 100.753 373.155 99.86 373.408C98.628 373.763 97.449 374.282 96.356 374.951C95.563 375.411 94.877 376.032 94.34 376.775C93.804 377.517 93.43 378.365 93.243 379.261C93.056 380.377 93.073 381.518 93.294 382.627C93.413 383.309 93.542 383.894 93.717 384.548C93.898 385.193 94.114 385.828 94.366 386.449C94.943 387.764 95.681 389.001 96.563 390.133C97.023 390.764 97.521 391.432 97.981 392.178C98.458 392.948 98.851 393.766 99.156 394.618C99.46 395.489 99.68 396.386 99.814 397.298L99.842 397.469V397.653C99.842 397.759 99.865 397.865 99.874 397.994C99.874 398.242 99.915 398.454 99.929 398.694C99.957 399.154 99.975 399.587 99.989 400.034C100.049 401.816 100.067 403.621 100.072 405.453C100.072 409.137 100.003 412.904 99.915 416.745C99.828 420.585 99.699 424.49 99.547 428.39C99.395 432.29 99.174 436.186 98.948 440.022C98.723 443.858 98.488 447.634 98.179 451.29C97.871 454.946 97.539 458.469 97.162 461.812C96.784 465.155 96.356 468.314 95.826 471.238C95.555 472.698 95.269 474.098 94.878 475.447C94.686 476.137 94.438 476.81 94.136 477.459C94.063 477.62 93.952 477.805 93.851 477.98L93.809 478.044V478.076L93.763 478.141L93.694 478.233L93.556 478.417C93.35 478.695 93.129 478.961 92.893 479.214C92.45 479.686 91.955 480.107 91.419 480.471C90.905 480.797 90.355 481.064 89.78 481.267C88.794 481.609 87.757 481.777 86.713 481.765C85.319 481.745 83.941 481.469 82.647 480.95C82.311 480.817 81.983 480.663 81.666 480.489C81.455 480.374 80.391 479.937 80.391 479.937L81.422 480.107C81.422 480.107 81.91 480.185 82.804 480.259C84.066 480.366 85.337 480.323 86.589 480.13C88.379 479.891 90.029 479.035 91.254 477.708C91.406 477.51 91.544 477.376 91.714 477.095L91.848 476.907L91.912 476.815C91.871 476.874 91.912 476.815 91.912 476.815V476.782C91.97 476.684 92.022 476.582 92.069 476.478C92.306 475.946 92.498 475.394 92.644 474.83C92.98 473.619 93.243 472.265 93.487 470.847C93.947 468.01 94.339 464.883 94.675 461.573C95.011 458.262 95.292 454.748 95.555 451.11C95.817 447.473 96.075 443.72 96.291 439.898C96.508 436.076 96.687 432.189 96.867 428.298C97.235 420.53 97.507 412.748 97.613 405.467C97.641 403.625 97.659 401.857 97.613 400.126C97.613 399.693 97.613 399.26 97.576 398.846C97.576 398.634 97.576 398.427 97.544 398.247C97.544 398.159 97.544 398.049 97.516 397.938V397.805V397.657C97.418 396.888 97.247 396.129 97.005 395.392C96.474 393.967 95.726 392.632 94.786 391.436C93.824 390.149 93.029 388.746 92.419 387.26C92.14 386.552 91.906 385.828 91.719 385.091C91.544 384.391 91.396 383.64 91.295 383.005C91.052 381.629 91.098 380.218 91.429 378.861C91.748 377.643 92.384 376.531 93.271 375.637C93.999 374.909 94.863 374.328 95.812 373.929C96.55 373.611 97.323 373.382 98.115 373.247C98.68 373.14 99.253 373.075 99.828 373.054C100.298 373.015 100.771 373.018 101.242 373.063Z" fill="#FA353D"/>
<path d="M79.834 403.57L79.171 412.83L94.417 414.465L95.389 404.873L79.834 403.57Z" fill="#EFEFEF"/>
<path d="M81.358 404.684L80.828 412.051L92.957 413.354L93.731 405.72L81.358 404.684Z" fill="#BCBCBC"/>
<path d="M39.395 398.65C39.395 398.65 38.935 395.657 43.079 394.17C45.538 393.286 50.102 409.039 50.102 409.039H44.921C44.921 409.039 42.043 401.593 39.395 398.65Z" fill="#E8BC98"/>
<path d="M54.854 383.712H42.421C42.089 383.71 41.772 383.578 41.537 383.344L39.064 380.843C38.942 380.719 38.848 380.571 38.787 380.408C38.726 380.245 38.7 380.071 38.71 379.898C38.721 379.724 38.767 379.555 38.847 379.4C38.927 379.246 39.039 379.11 39.175 379.001L40.289 378.112C40.524 377.926 40.818 377.831 41.117 377.844C41.416 377.856 41.701 377.976 41.919 378.182L43.812 379.991L43.079 380.779L41.187 378.974C41.16 378.95 41.126 378.937 41.09 378.937C41.055 378.937 41.02 378.95 40.993 378.974L39.856 379.853C39.84 379.866 39.827 379.882 39.818 379.9C39.808 379.919 39.802 379.939 39.801 379.959C39.8 380 39.815 380.039 39.842 380.07L42.32 382.57C42.333 382.583 42.349 382.594 42.366 382.601C42.384 382.608 42.402 382.611 42.421 382.611H54.854C54.883 382.612 54.911 382.605 54.935 382.589C54.959 382.573 54.977 382.551 54.988 382.524C55.004 382.502 55.012 382.475 55.012 382.448C55.012 382.421 55.004 382.394 54.988 382.372L53.426 380.59C53.211 380.342 53.102 380.02 53.123 379.692C53.143 379.365 53.292 379.059 53.537 378.84L54.458 378.025C54.687 377.817 54.985 377.702 55.294 377.702C55.603 377.702 55.901 377.817 56.13 378.025L57.396 379.208L56.627 380.028L55.356 378.845C55.33 378.82 55.295 378.807 55.259 378.807C55.223 378.807 55.189 378.82 55.163 378.845L54.242 379.655C54.215 379.683 54.201 379.72 54.201 379.759C54.201 379.797 54.215 379.834 54.242 379.862L55.803 381.644C55.96 381.823 56.063 382.042 56.098 382.277C56.134 382.513 56.102 382.753 56.005 382.97C55.907 383.187 55.75 383.371 55.551 383.501C55.352 383.631 55.119 383.701 54.882 383.703L54.854 383.712Z" fill="#CECECE"/>
<path d="M93.12 418.091L92.07 419.141L57.212 418.091L31.609 380.401L32.659 379.346H68.562L93.12 418.091Z" fill="#775E5E"/>
<path d="M92.07 419.141H56.162L31.609 380.401H67.513L92.07 419.141Z" fill="#604C4C"/>
<path opacity="0.07" d="M92.07 419.141H56.162L31.609 380.401L92.07 419.141Z" fill="black"/>
<path d="M54.227 379.867C54.201 379.839 54.187 379.802 54.187 379.764C54.187 379.725 54.201 379.688 54.227 379.66L55.148 378.849C55.175 378.825 55.209 378.812 55.245 378.812C55.281 378.812 55.315 378.825 55.342 378.849L55.374 378.877C55.252 378.503 55.221 378.105 55.282 377.717C54.966 377.707 54.658 377.817 54.421 378.025L53.5 378.84C53.255 379.059 53.106 379.365 53.086 379.692C53.065 380.02 53.174 380.342 53.389 380.59L54.95 382.372C54.966 382.394 54.975 382.421 54.975 382.448C54.975 382.475 54.966 382.502 54.95 382.524C54.94 382.551 54.921 382.573 54.898 382.589C54.874 382.605 54.845 382.613 54.817 382.612H42.384C42.365 382.612 42.346 382.608 42.329 382.601C42.312 382.594 42.296 382.583 42.282 382.57L39.856 380.07C39.828 380.04 39.813 380 39.814 379.959C39.816 379.939 39.822 379.919 39.831 379.901C39.841 379.882 39.854 379.866 39.87 379.853L40.984 378.965C40.984 378.965 41.016 378.965 41.035 378.965C40.925 378.609 40.897 378.232 40.952 377.864C40.714 377.886 40.488 377.977 40.302 378.127L39.188 379.015C39.052 379.124 38.941 379.26 38.861 379.414C38.781 379.569 38.734 379.738 38.724 379.912C38.713 380.085 38.739 380.259 38.8 380.422C38.861 380.585 38.956 380.733 39.078 380.857L41.55 383.358C41.785 383.592 42.103 383.724 42.434 383.726H54.867C55.105 383.724 55.338 383.655 55.537 383.525C55.736 383.395 55.893 383.21 55.99 382.993C56.088 382.776 56.12 382.536 56.084 382.301C56.049 382.066 55.946 381.846 55.788 381.668L54.227 379.867Z" fill="#CECECE"/>
<path d="M39.718 397.499C41.303 397.144 42.908 396.887 44.525 396.73C46.058 396.578 51.243 395.901 51.639 398.111C51.651 398.281 51.695 398.446 51.768 398.599C51.933 398.777 52.162 398.883 52.404 398.894C53.256 399.055 54.246 399.516 54.31 400.381C54.343 400.791 54.158 401.215 54.31 401.606C54.473 401.932 54.743 402.192 55.075 402.343C55.719 402.73 56.682 403.987 55.729 405.147C55.443 405.497 55.945 406.008 56.079 406.441C56.792 408.67 53.454 409.545 51.934 409.992C50.525 410.406 47.859 411.373 46.408 410.609C44.958 409.844 37.714 399.502 39.718 397.499Z" fill="#F8CFAE"/>
<path opacity="0.51" d="M56.06 406.427C55.927 405.994 55.425 405.483 55.71 405.133C56.664 403.973 55.71 402.716 55.057 402.329C54.725 402.178 54.455 401.918 54.292 401.592C54.159 401.201 54.343 400.777 54.292 400.367C54.214 399.502 53.238 399.041 52.386 398.88C52.143 398.869 51.915 398.763 51.75 398.585C51.677 398.432 51.633 398.267 51.621 398.097C51.225 395.901 46.04 396.578 44.507 396.716C42.89 396.873 41.285 397.13 39.699 397.485C37.696 399.488 44.903 409.775 46.399 410.581C47.896 411.387 50.498 410.378 51.925 409.964C53.436 409.531 56.774 408.656 56.06 406.427ZM41.095 400.952C40.008 400.851 39.626 399.138 40.316 398.65C40.316 398.65 49.181 396.863 50.447 398.047C51.713 399.23 42.158 401.054 41.095 400.952ZM41.901 402.476C41.901 402.476 50.59 399.313 52.892 400.119C55.195 400.925 44.318 405.092 43.485 405.05C42.651 405.009 41.15 403.024 41.901 402.476ZM44.286 405.843C44.286 405.843 52.777 402.573 54.734 402.9C56.691 403.227 46.819 407.592 45.93 407.657C44.751 407.744 43.568 406.478 44.286 405.843ZM47.454 410.203C45.898 410.166 46.123 408.642 46.648 408.44C46.648 408.44 54.656 405.787 55.139 406.391C55.945 407.399 48.776 410.231 47.454 410.203Z" fill="#E8BC98"/>
<path d="M114.166 377.81C116.201 381.024 117.674 384.56 118.521 388.268C118.67 387.896 130.077 382.686 131.194 381.327C131.032 378.753 130.402 376.23 129.333 373.883C124.45 375.788 119.359 377.106 114.166 377.81Z" fill="#C5D7E1"/>
<path d="M131.357 434.813L131.725 434.74L132.057 434.993L172.109 433.809L166.726 461.42L123.975 476.708L102.07 459.228L107.287 430.061L131.357 434.813Z" fill="#9F856C"/>
<path d="M107.144 430.088L131.357 434.813L131.725 434.739L132.001 434.951L123.975 476.707L102.07 459.227L107.144 430.088Z" fill="#B2997C"/>
<path d="M172.082 433.805L129.902 445.884L107.145 430.089L148.653 417.619L172.082 433.805Z" fill="#CEB897"/>
<path d="M158.497 427.404L166.703 432.815C166.771 432.861 166.825 432.925 166.858 433C166.89 433.075 166.901 433.158 166.889 433.239C166.876 433.32 166.841 433.396 166.787 433.458C166.733 433.52 166.662 433.565 166.584 433.588L151.986 437.783C151.798 437.836 151.6 437.852 151.406 437.828C151.212 437.804 151.024 437.742 150.853 437.645L142.031 432.626C141.956 432.584 141.896 432.522 141.857 432.446C141.819 432.37 141.804 432.284 141.814 432.2C141.824 432.115 141.86 432.036 141.916 431.971C141.971 431.907 142.045 431.861 142.127 431.838L158.148 427.349C158.206 427.332 158.268 427.328 158.329 427.338C158.389 427.347 158.447 427.37 158.497 427.404Z" fill="#E4DFD0"/>
<path d="M105.652 451.248L104.58 457.588C104.564 457.684 104.573 457.782 104.607 457.872C104.641 457.963 104.698 458.043 104.773 458.104L111.8 463.888C111.874 463.949 111.963 463.989 112.058 464.005C112.153 464.021 112.25 464.012 112.34 463.978C112.43 463.945 112.51 463.888 112.571 463.814C112.632 463.74 112.673 463.651 112.689 463.556L113.743 457.335C113.758 457.242 113.749 457.146 113.716 457.057C113.682 456.968 113.627 456.89 113.554 456.829L106.537 450.921C106.463 450.861 106.375 450.821 106.281 450.806C106.187 450.79 106.091 450.799 106.001 450.832C105.912 450.865 105.833 450.921 105.772 450.994C105.711 451.067 105.67 451.154 105.652 451.248Z" fill="#E2D8C0"/>
<path d="M162.677 465.045C162.677 465.045 161.575 476.208 159.378 479.114C157.182 482.02 145.762 486.15 142.953 485.326C140.144 484.502 134.098 476.333 134.098 476.333L162.677 465.045Z" fill="#F8CFAE"/>
<path d="M155.708 468.983C155.708 468.983 147.351 467.201 142.953 471.506C138.555 475.812 136.465 479.334 136.465 479.334L145.108 481.752L155.708 468.983Z" fill="#F8CFAE"/>
<path opacity="0.36" d="M160.193 476.323C157.407 479.086 153.41 480.26 149.551 480.163C146.498 480.089 143.105 479.284 141.263 476.622C140.781 475.928 140.441 475.145 140.263 474.32L139.803 474.835L136.243 479.104C136.243 479.104 140.111 484.51 142.92 485.334C145.729 486.159 157.145 482.037 159.346 479.122C160.104 477.984 160.655 476.722 160.976 475.393C160.736 475.72 160.475 476.031 160.193 476.323Z" fill="#E8BC98"/>
<path opacity="0.5" d="M147.037 483.281C142.626 483.12 137.501 479.505 139.706 474.992L136.276 479.109C136.276 479.109 140.144 484.515 142.953 485.339C145.762 486.164 157.177 482.042 159.378 479.127C159.683 478.705 159.944 478.253 160.157 477.778C156.744 481.011 151.522 483.442 147.037 483.281Z" fill="#E8BC98"/>
<path d="M175.792 429.342C174.517 418.848 167.301 408.105 154.352 397.417C152.381 403.864 154.222 408.123 149.373 412.815C158.583 418.746 160.708 425.288 161.445 431.293C162.647 441.156 157.983 456.741 152.945 468.741L161.445 473.545C164.208 467.748 177.924 446.781 175.792 429.342Z" fill="#B4CAD6"/>
<path d="M134.871 401.051L135.024 401.065C135.095 401.098 135.17 401.13 135.219 401.192C135.903 402.01 136.587 402.827 137.272 403.645C137.314 403.699 137.359 403.769 137.337 403.841C137.314 403.896 137.247 403.905 137.195 403.901C136.866 403.874 136.539 403.836 136.211 403.811C136.058 403.792 135.902 403.905 135.884 404.06C135.822 404.643 135.776 405.227 135.715 405.81C135.699 405.969 135.537 406.081 135.382 406.065C134.804 406.014 134.225 405.958 133.646 405.903C133.479 405.894 133.352 405.726 133.378 405.563C133.429 404.998 133.485 404.434 133.536 403.87C133.562 403.705 133.428 403.545 133.263 403.534C132.909 403.494 132.553 403.47 132.199 403.431C132.142 403.426 132.072 403.388 132.081 403.321C132.094 403.224 132.183 403.167 132.252 403.109C133.057 402.452 133.861 401.792 134.666 401.134C134.724 401.086 134.8 401.069 134.871 401.051Z" fill="white"/>
<path d="M130.662 404.412C130.714 404.372 130.775 404.321 130.846 404.34C130.917 404.372 130.915 404.464 130.911 404.53C130.767 406.067 130.622 407.605 130.478 409.142C130.468 409.23 130.467 409.319 130.445 409.405C130.433 409.452 130.389 409.498 130.337 409.485C130.226 409.465 130.168 409.358 130.099 409.281C129.471 408.518 128.841 407.756 128.212 406.994C128.144 406.908 128.053 406.83 128.04 406.714L128.044 406.661C128.061 406.57 128.117 406.492 128.189 406.436C129.013 405.761 129.837 405.086 130.662 404.412Z" fill="white"/>
<path d="M138.411 405.106C138.482 405.101 138.519 405.172 138.56 405.217C139.237 406.015 139.916 406.812 140.593 407.61C140.698 407.721 140.727 407.921 140.6 408.028C139.776 408.703 138.95 409.377 138.127 410.054C138.074 410.091 138.027 410.161 137.955 410.149C137.879 410.114 137.886 410.017 137.892 409.948C138.039 408.383 138.185 406.818 138.333 405.254C138.34 405.199 138.349 405.126 138.411 405.106Z" fill="white"/>
<path d="M133.084 408.696C133.09 408.531 133.249 408.401 133.411 408.419C133.948 408.464 134.483 408.52 135.019 408.567C135.135 408.578 135.264 408.593 135.347 408.683C135.416 408.75 135.435 408.851 135.422 408.944C135.367 409.535 135.31 410.127 135.256 410.718C135.231 410.877 135.331 411.059 135.499 411.08C135.815 411.117 136.133 411.137 136.449 411.174C136.509 411.182 136.59 411.21 136.589 411.283C136.563 411.355 136.488 411.39 136.435 411.439C135.634 412.103 134.834 412.768 134.034 413.433C133.97 413.488 133.888 413.522 133.803 413.526L133.762 413.522C133.678 413.507 133.602 413.46 133.547 413.394C132.877 412.582 132.208 411.769 131.536 410.959C131.497 410.903 131.42 410.855 131.434 410.778C131.471 410.711 131.558 410.714 131.624 410.719C131.952 410.746 132.28 410.784 132.608 410.808C132.777 410.817 132.908 410.658 132.913 410.498C132.972 409.898 133.025 409.297 133.084 408.696Z" fill="white"/>
<defs>
<linearGradient id="paint0_linear" x1="495.178" y1="483.856" x2="-8.975" y2="228.728" gradientUnits="userSpaceOnUse">
<stop stop-color="white" stop-opacity="0.925506"/>
<stop offset="1" stop-color="white" stop-opacity="0"/>
</linearGradient>
<radialGradient id="paint1_radial" cx="0" cy="0" r="1" gradientUnits="userSpaceOnUse" gradientTransform="translate(1526.29 1380.94) scale(52.3246 100.199)">
<stop stop-color="#DB8E50"/>
<stop offset="1" stop-color="#F5BF95"/>
</radialGradient>
<linearGradient id="paint2_linear" x1="213.625" y1="309.757" x2="212.368" y2="332.77" gradientUnits="userSpaceOnUse">
<stop stop-color="#814600"/>
<stop offset="1" stop-color="#632400"/>
</linearGradient>
<linearGradient id="paint3_linear" x1="201.057" y1="324.709" x2="207.193" y2="329.502" gradientUnits="userSpaceOnUse">
<stop stop-color="#8E4600"/>
<stop offset="1" stop-color="#632400"/>
</linearGradient>
<linearGradient id="paint4_linear" x1="-490.266" y1="663.398" x2="-527.363" y2="676.764" gradientUnits="userSpaceOnUse">
<stop stop-color="#8E4600"/>
<stop offset="1" stop-color="#632400"/>
</linearGradient>
<linearGradient id="paint5_linear" x1="212.897" y1="310.755" x2="209.843" y2="320.745" gradientUnits="userSpaceOnUse">
<stop stop-color="#9A5200"/>
<stop offset="1" stop-color="#632400"/>
</linearGradient>
<linearGradient id="paint6_linear" x1="-344.486" y1="618.317" x2="-311.448" y2="661.1" gradientUnits="userSpaceOnUse">
<stop stop-color="#9A5200"/>
<stop offset="1" stop-color="#632400"/>
</linearGradient>
<linearGradient id="paint7_linear" x1="223.934" y1="331.34" x2="221.764" y2="326.153" gradientUnits="userSpaceOnUse">
<stop offset="0.31" stop-color="white"/>
<stop offset="0.96" stop-color="#E17C1F"/>
</linearGradient>
<linearGradient id="paint8_linear" x1="-2534.51" y1="776.603" x2="-2521.74" y2="720.959" gradientUnits="userSpaceOnUse">
<stop stop-color="#FBCAA3" stop-opacity="0"/>
<stop offset="1" stop-color="#FFDABB"/>
</linearGradient>
<linearGradient id="paint9_linear" x1="-565.858" y1="544.827" x2="-597.133" y2="544.827" gradientUnits="userSpaceOnUse">
<stop stop-color="#814600"/>
<stop offset="1" stop-color="#632400"/>
</linearGradient>
<linearGradient id="paint10_linear" x1="34.9133" y1="403.914" x2="33.3373" y2="403.914" gradientUnits="userSpaceOnUse">
<stop stop-color="#814600"/>
<stop offset="1" stop-color="#632400"/>
</linearGradient>
<linearGradient id="paint11_linear" x1="-364.18" y1="413.247" x2="-379.931" y2="413.247" gradientUnits="userSpaceOnUse">
<stop stop-color="#814600"/>
<stop offset="1" stop-color="#632400"/>
</linearGradient>
<linearGradient id="paint12_linear" x1="949.62" y1="485.801" x2="969.89" y2="485.463" gradientUnits="userSpaceOnUse">
<stop stop-color="#814600"/>
<stop offset="1" stop-color="#632400"/>
</linearGradient>
<linearGradient id="paint13_linear" x1="694.816" y1="605.817" x2="701.38" y2="606.21" gradientUnits="userSpaceOnUse">
<stop stop-color="#814600"/>
<stop offset="1" stop-color="#632400"/>
</linearGradient>
<linearGradient id="paint14_linear" x1="221.992" y1="340.085" x2="220.267" y2="334.161" gradientUnits="userSpaceOnUse">
<stop stop-color="#F4AF77"/>
<stop offset="1" stop-color="#FBCAA3"/>
</linearGradient>
<linearGradient id="paint15_linear" x1="763.035" y1="533.861" x2="777.907" y2="540.137" gradientUnits="userSpaceOnUse">
<stop offset="0.31" stop-color="white"/>
<stop offset="0.96" stop-color="#E17C1F"/>
</linearGradient>
<linearGradient id="paint16_linear" x1="216.211" y1="333.976" x2="216.265" y2="332.49" gradientUnits="userSpaceOnUse">
<stop stop-color="#2A50AD"/>
<stop offset="1"/>
</linearGradient>
<linearGradient id="paint17_linear" x1="504.016" y1="466.646" x2="504.309" y2="464.125" gradientUnits="userSpaceOnUse">
<stop stop-color="#2A50AD"/>
<stop offset="1"/>
</linearGradient>
<linearGradient id="paint18_linear" x1="-14924.9" y1="16369.6" x2="-15985.9" y2="16369.6" gradientUnits="userSpaceOnUse">
<stop stop-color="#24353A"/>
<stop offset="1" stop-color="#444F54"/>
</linearGradient>
<radialGradient id="paint19_radial" cx="0" cy="0" r="1" gradientUnits="userSpaceOnUse" gradientTransform="translate(209.262 454.18) rotate(180) scale(25.0468)">
<stop stop-color="#2F4345"/>
<stop offset="0.33" stop-color="#7B8889"/>
<stop offset="0.65" stop-color="#C2C8C8"/>
<stop offset="0.88" stop-color="#EEF0F0"/>
<stop offset="1" stop-color="white"/>
</radialGradient>
<radialGradient id="paint20_radial" cx="0" cy="0" r="1" gradientUnits="userSpaceOnUse" gradientTransform="translate(8787.2 7266.78) scale(440.137 1221.94)">
<stop stop-color="#ED1C24"/>
<stop offset="1" stop-color="#FA353D"/>
</radialGradient>
<linearGradient id="paint21_linear" x1="98.925" y1="492.034" x2="109.272" y2="569.598" gradientUnits="userSpaceOnUse">
<stop stop-color="#24353A"/>
<stop offset="1" stop-color="#444F54"/>
</linearGradient>
<radialGradient id="paint22_radial" cx="0" cy="0" r="1" gradientUnits="userSpaceOnUse" gradientTransform="translate(112.393 365.602) scale(20.4332)">
<stop stop-color="#E19D65"/>
<stop offset="1" stop-color="#F6C197"/>
</radialGradient>
<linearGradient id="paint23_linear" x1="130.821" y1="350.622" x2="128.756" y2="350.324" gradientUnits="userSpaceOnUse">
<stop offset="0.35" stop-color="white"/>
<stop offset="1" stop-color="#E17C1F"/>
</linearGradient>
<linearGradient id="paint24_linear" x1="-285.896" y1="968.35" x2="-283.005" y2="967.84" gradientUnits="userSpaceOnUse">
<stop offset="0.35" stop-color="white"/>
<stop offset="1" stop-color="#E17C1F"/>
</linearGradient>
<linearGradient id="paint25_linear" x1="120.135" y1="339.387" x2="120.135" y2="352.311" gradientUnits="userSpaceOnUse">
<stop stop-color="#F1A96F"/>
<stop offset="1" stop-color="#FDB77E" stop-opacity="0"/>
</linearGradient>
<linearGradient id="paint26_linear" x1="106.855" y1="337.45" x2="106.855" y2="355.46" gradientUnits="userSpaceOnUse">
<stop stop-color="#F1A96F"/>
<stop offset="1" stop-color="#FDB77E" stop-opacity="0"/>
</linearGradient>
</defs>
</svg>
