<svg width="617" height="383" viewBox="0 0 617 383" fill="none" xmlns="http://www.w3.org/2000/svg">
<path d="M531.963 331.982C531.964 331.959 531.964 331.936 531.963 331.914C531.959 331.94 531.963 331.982 531.963 331.982Z" fill="#381911"/>
<path d="M277.639 234.627L262.072 222.17L240.5 205.725C240.5 205.725 226.54 195.612 225.552 209.954C224.648 223.088 245.661 229.9 245.481 229.655L237.588 229.247L218.363 220.117L212.839 235.072L218.761 245.95L210.46 249.93L213.583 261.098L209.824 264.844L213.647 275.93L210.707 281.877C210.707 281.877 220.653 292.073 223.784 293.737C226.916 295.402 282.86 296.184 282.86 296.184L283.098 279.691L291.227 255.699L281.943 249.584L277.639 234.627Z" fill="#F8CFAE"/>
<path d="M237.098 229.177C237.098 229.177 252.725 238.461 251.593 240.499C250.461 242.538 251.593 250.463 247.298 252.276C243.002 254.088 232.577 251.144 232.577 251.144C232.577 251.144 246.157 255.703 247.072 258.39C248.264 261.893 244.765 268.106 243.674 267.675L231.445 266.315C231.445 266.315 242.543 269.26 242.996 270.396C243.449 271.532 244.355 279.002 243.674 279.908C240.547 284.079 228.275 279.23 228.954 279.694C229.633 280.157 236.881 285.355 236.881 285.355L236.653 292.601C236.653 292.601 223.982 294.64 225.331 294.186C226.679 293.733 253.417 296.24 253.191 295.561C252.966 294.882 248.204 279.238 248.204 278.106C248.204 276.974 264.149 270.637 262.471 269.945C249.11 264.509 251.827 240.276 251.827 240.276L245.489 229.649C245.489 229.649 237.854 228.874 237.098 229.177Z" fill="#EEB48D"/>
<path d="M249.102 241.406L247.517 250.237C247.517 250.237 240.27 250.691 237.779 247.293C235.287 243.895 239.364 238.917 239.364 238.917C239.364 238.917 246.161 238.461 249.102 241.406Z" fill="#FFDCC5"/>
<path d="M244.119 259.975L243.213 265.864C243.213 265.864 237.779 264.958 236.419 261.334C235.06 257.711 239.364 257.254 239.364 257.254L244.119 259.975Z" fill="#FFDCC5"/>
<path d="M241.174 272.883C241.402 274.243 240.496 279.678 240.496 279.678C240.496 279.678 235.513 279.893 234.156 275.828C232.798 271.762 238.236 271.073 238.236 271.073L241.174 272.883Z" fill="#FFDCC5"/>
<path d="M234.834 285.793C234.607 286.925 232.796 291.454 232.796 291.454C232.796 291.454 227.135 292.586 226.003 288.057C224.871 283.527 234.834 285.793 234.834 285.793Z" fill="#F8CFAE"/>
<path d="M234.166 355.592C234.132 356.252 230.449 356.926 230.352 357.613C229.922 360.652 229.493 363.59 227.407 365.85C218.698 375.315 205.045 367.998 205.045 357.641C205.041 355.059 205.832 352.538 207.309 350.42C208.402 348.855 208.121 346.711 206.819 345.313L206.07 344.51C203.679 341.963 199.429 342.165 197.537 345.101C194.239 350.238 193.021 356.438 194.13 362.441C195.954 372.68 204.603 380.686 214.938 381.846C229.461 383.478 241.293 372.07 241.293 357.931C241.293 354.604 240.977 351.548 239.751 348.668L234.192 355.521C234.176 355.541 234.167 355.566 234.166 355.592Z" fill="#444444"/>
<path d="M241.295 358.664L230.393 362.654V182.775H241.295V358.664Z" fill="#444444"/>
<path d="M299.728 251.289L284.539 249.127L279.969 297.708L304.402 301.626L299.728 251.289Z" fill="#FDFBFC"/>
<path d="M301.887 257.408L314.749 305.197L291.227 299.515L294.608 250.559L302.067 251.62C302.273 252.531 301.635 255.707 301.887 257.408Z" fill="#E2DCDF"/>
<path d="M617.593 297.498L294.61 312.579L299.397 243.038L617.593 218.891V297.498Z" fill="#444444"/>
<path d="M226.293 294.143C229.132 293.793 236.645 292.586 236.645 292.586L236.873 285.34C236.873 285.34 229.626 280.129 228.945 279.678C228.264 279.227 240.543 284.075 243.666 279.893C244.347 278.987 243.44 271.517 242.987 270.381C242.534 269.245 231.437 266.3 231.437 266.3L243.666 267.66C244.757 268.089 248.256 261.878 247.064 258.375C246.149 255.688 232.568 251.129 232.568 251.129C232.568 251.129 242.987 254.071 247.289 252.26C251.591 250.45 250.459 242.523 251.585 240.484C252.71 238.446 237.089 229.162 237.089 229.162C237.135 229.142 237.208 229.119 237.304 229.089L218.363 220.117L212.839 235.072L218.761 245.95L210.46 249.93L213.583 261.098L209.824 264.844L213.647 275.931L210.707 281.878C210.707 281.878 220.653 292.073 223.784 293.738C224.061 293.886 224.643 294.027 225.429 294.167C225.716 294.138 226.005 294.13 226.293 294.143Z" fill="#F8CFAE"/>
<path d="M225.328 294.171C225.092 294.25 225.29 294.252 225.757 294.203L225.427 294.149C225.394 294.154 225.361 294.161 225.328 294.171Z" fill="#EEB48D"/>
<path d="M225.429 294.15L225.76 294.203C225.913 294.188 226.089 294.167 226.293 294.143C226.005 294.124 225.717 294.127 225.429 294.15Z" fill="#EEB48D"/>
<path d="M249.102 241.406L247.517 250.237C247.517 250.237 240.27 250.691 237.779 247.293C235.287 243.895 239.364 238.917 239.364 238.917C239.364 238.917 246.161 238.461 249.102 241.406Z" fill="#FFE5D7"/>
<path d="M244.119 259.975L243.213 265.864C243.213 265.864 237.779 264.958 236.419 261.334C235.06 257.711 239.364 257.254 239.364 257.254L244.119 259.975Z" fill="#FFE5D7"/>
<path d="M241.174 272.883C241.402 274.243 240.496 279.678 240.496 279.678C240.496 279.678 235.513 279.893 234.156 275.828C232.798 271.762 238.236 271.073 238.236 271.073L241.174 272.883Z" fill="#FFE5D7"/>
<path d="M234.834 285.793C234.607 286.925 232.796 291.454 232.796 291.454C232.796 291.454 227.135 292.586 226.003 288.057C224.871 283.527 234.834 285.793 234.834 285.793Z" fill="#FFE5D7"/>
<path d="M247.289 252.275C247.728 252.09 248.132 251.829 248.481 251.504C236.709 250.097 219.156 239.906 213.408 236.116L218.761 245.95L218.715 245.972L233.705 251.914L235.938 252.344C233.988 251.61 232.568 251.133 232.568 251.133C232.568 251.133 242.987 254.086 247.289 252.275Z" fill="#EEB48D"/>
<path d="M231.436 266.315L242.39 267.533C233.354 264.281 213.277 252.069 210.603 250.435L213.582 261.079L231.896 266.558L232.878 266.71C232.001 266.465 231.436 266.315 231.436 266.315Z" fill="#EEB48D"/>
<path d="M229.877 280.331C229.407 279.998 229.068 279.76 228.945 279.687C228.488 279.382 233.9 281.476 238.44 281.62C223.112 276.21 214.482 270.26 210.593 267.08L213.539 275.63L229.025 280.015L229.877 280.331Z" fill="#EEB48D"/>
<path d="M211.115 282.281C213.011 284.214 221.031 292.264 223.786 293.727C224.063 293.875 224.645 294.017 225.432 294.156C225.717 294.135 226.005 294.135 226.291 294.156C228.501 293.884 233.548 293.082 235.672 292.754C225.285 290.737 214.701 284.489 211.115 282.281Z" fill="#EEB48D"/>
<path d="M241.988 194.362H229.362V224.346H241.988V194.362Z" fill="#444444"/>
<path d="M236.69 46.365C235.109 46.365 233.816 44.626 233.816 42.499V3.866C233.816 1.742 235.105 0 236.69 0C238.268 0 239.561 1.738 239.561 3.866V42.499C239.561 44.617 238.268 46.365 236.69 46.365Z" fill="#444444"/>
<path d="M237.173 26.044H235.784C232.49 26.044 229.819 28.714 229.819 32.008V66.432C229.819 69.726 232.49 72.396 235.784 72.396H237.173C240.467 72.396 243.137 69.726 243.137 66.432V32.008C243.137 28.714 240.467 26.044 237.173 26.044Z" fill="#444444"/>
<path d="M475.754 214.33C452.969 111.724 354.974 34.575 237.538 34.575C121.243 34.575 24.012 110.235 -0.000976562 211.351C17.258 203.793 37.732 201.179 58.973 205.032C81.971 209.205 102.04 220.268 116.762 235.281C152.396 221.402 193.166 213.52 236.488 213.52C279.853 213.52 320.66 221.417 356.319 235.321C370.923 220.897 390.549 210.29 412.955 206.224C435.794 202.077 457.741 205.416 475.754 214.33Z" fill="#FA353D"/>
<path d="M231.243 34.665C170.462 45.371 115.566 132.445 116.769 235.281C149.722 222.407 196.946 213.52 236.561 213.52C277.847 213.52 322.378 221.417 356.325 235.321C358.024 223.062 354.906 211.134 353.907 195.625C347.011 100.875 300.585 48.625 245.545 34.575C237.281 33.705 246.063 34.575 237.56 34.575C235.444 34.575 233.342 34.611 231.243 34.665Z" fill="#ED1C24"/>
<path d="M624.727 211.98H439.245V312.874H624.727V211.98Z" fill="url(#paint0_linear)"/>
<path d="M244.894 148.035C243.883 148.035 243.055 148.863 243.055 149.874C243.055 150.897 243.055 159.059 243.055 160.082C243.055 161.094 242.228 161.921 241.216 161.921C240.204 161.921 232.135 161.921 231.123 161.921C230.112 161.921 229.284 161.094 229.284 160.082C229.284 159.059 229.284 150.897 229.284 149.874C229.284 148.863 228.456 148.035 227.445 148.035C226.835 148.035 222.042 148.035 221.433 148.035C220.421 148.035 220.18 147.449 220.892 146.736C222.283 145.357 233.319 134.31 234.71 132.93C235.422 132.218 236.595 132.218 237.308 132.93C238.687 134.31 249.734 145.357 251.113 146.736C251.826 147.449 251.585 148.035 250.573 148.035C249.435 148.035 245.458 148.035 244.894 148.035ZM240.975 123.481C240.975 126.229 238.744 128.447 236.009 128.447C233.261 128.447 231.043 126.229 231.043 123.481C231.043 120.745 233.261 118.515 236.009 118.515C238.744 118.515 240.975 120.745 240.975 123.481ZM267.713 137.873C250.562 120.722 241.032 111.193 239.135 109.285C237.411 107.572 234.595 107.572 232.882 109.285C230.02 112.147 207.156 135.011 204.293 137.873C202.569 139.598 202.569 142.402 204.293 144.127C207.156 146.989 230.02 169.853 232.882 172.715C234.595 174.428 237.411 174.428 239.135 172.715C241.986 169.853 264.862 146.989 267.713 144.127C269.437 142.402 269.437 139.598 267.713 137.873Z" fill="white"/>
<defs>
<linearGradient id="paint0_linear" x1="615.045" y1="252.236" x2="439.245" y2="251.217" gradientUnits="userSpaceOnUse">
<stop stop-color="#F4F4F4"/>
<stop offset="1" stop-color="#F4F4F4" stop-opacity="0"/>
</linearGradient>
</defs>
</svg>
