<svg width="266" height="260" viewBox="0 0 266 260" fill="none" xmlns="http://www.w3.org/2000/svg">
<path d="M265.963 80.982C265.964 80.959 265.964 80.936 265.963 80.914C265.959 80.94 265.963 80.982 265.963 80.982Z" fill="#381911"/>
<path d="M14.525 133.218L11.261 134.784L31.984 177.979L35.248 176.413L14.525 133.218Z" fill="#FFD2A9"/>
<path d="M213.99 207.062H207.832V242.086L210.911 246.127L213.99 207.062Z" fill="#CBCBCB"/>
<path d="M132.353 249.85L146.488 249.962V247.034C146.488 247.034 145.099 245.645 144.743 247.034C141.664 248.48 133.179 246.415 132.353 249.85Z" fill="#404242"/>
<path d="M157.376 248.968C157.977 250.544 161.262 250.188 161.863 248.442C161.986 246.34 161.872 244.23 161.525 242.153C160.924 236.804 159.854 229.99 159.76 229.539L157.883 229.708C157.883 229.708 157.339 237.742 157.151 243.467C157.041 245.304 157.117 247.146 157.376 248.968Z" fill="#404242"/>
<path d="M112.175 127.685C112.175 127.685 112.362 137.24 112.757 143.284C112.85 144.505 112.925 145.593 113.001 146.419C113.001 146.644 113.001 146.907 113.094 147.17C113.376 149.648 113.733 152.52 114.146 155.636C116.023 169.114 119.101 187.041 123.757 195.919C126.762 200.7 130.186 205.204 133.987 209.379C136.99 212.926 140.369 216.699 143.617 220.229C146.245 223.101 148.798 225.86 151.125 228.094C153.453 230.328 155.255 232.223 156.625 233.481C157.237 234.026 158.04 234.309 158.858 234.266C159.677 234.224 160.446 233.861 160.999 233.256C161.881 232.299 160.999 229.915 160.192 228.957C159.385 228 156.306 222.5 151.538 215.911C148.237 211.143 144.697 206.545 140.932 202.133C139.761 200.996 138.67 199.779 137.666 198.491C135.23 195.624 133.753 192.066 133.443 188.317C133.142 181.09 133.443 173.3 133.649 167.912C133.856 164.308 134.081 161.906 134.156 161.699C134.231 161.493 133.856 159.447 133.311 156.349C132.767 153.252 132.091 149.085 131.434 144.955C130.026 137.09 128.6 129.168 128.431 128.248L112.175 127.685Z" fill="url(#paint0_radial)"/>
<path d="M133.987 209.379C136.99 212.926 140.369 216.7 143.617 220.229C146.245 223.101 148.798 225.86 151.125 228.094C153.453 230.328 155.255 232.223 156.625 233.481C157.237 234.027 158.04 234.309 158.858 234.266C159.677 234.224 160.446 233.861 160.999 233.256C161.881 232.299 160.999 229.915 160.192 228.957C159.385 228 156.306 222.5 151.538 215.911C148.237 211.143 144.697 206.545 140.932 202.133C139.761 200.996 138.67 199.779 137.666 198.491L133.987 209.379Z" fill="url(#paint1_radial)"/>
<path d="M119.814 132.659C120.592 137.162 122.404 141.422 125.108 145.105C126.405 146.788 128.197 148.022 130.232 148.634L130.382 149.591C130.382 149.591 130.683 151.938 131.471 156.593C131.959 159.459 132.66 163.213 133.573 167.856C133.799 168.888 134.024 169.94 134.23 171.047C136.108 179.832 138.792 191.696 140.857 202.076C142.152 208.59 143.184 214.465 143.522 218.445C143.522 219.046 143.522 219.628 143.616 220.172C145.493 240.614 142.997 245.757 143.71 247.147C144.423 248.536 147.37 248.742 148.065 247.334C149.454 240.969 150.451 234.525 151.05 228.037C151.275 225.916 151.463 223.945 151.557 222.406C151.728 220.255 151.696 218.093 151.463 215.948C151.256 214.071 150.918 212.194 150.524 210.054C150.074 207.633 149.548 204.817 149.116 201.063C147.896 190.738 151.406 174.107 153.847 160.31C154.87 155.068 155.311 149.73 155.161 144.392C155.044 141.282 154.488 138.204 153.509 135.25C152.281 131.82 150.365 128.677 147.877 126.014L128.261 128.286L127.585 128.38C127.585 128.38 118.763 127.066 119.814 132.659Z" fill="#585C5C"/>
<path style="mix-blend-mode:multiply" opacity="0.3" d="M112.175 127.685C112.175 127.685 112.362 137.24 112.756 143.284C112.85 144.505 112.925 145.593 113 146.419C113 146.645 113 146.907 113.094 147.17C113.376 149.648 113.733 152.52 114.146 155.636C117.137 156.325 120.184 156.752 123.25 156.912C125.805 157.027 128.366 156.946 130.908 156.668H131.472C132.072 156.668 132.654 156.537 133.236 156.424C141.752 155.201 149.539 150.941 155.161 144.429C155.045 141.32 154.489 138.242 153.509 135.288C152.282 131.857 150.365 128.714 147.878 126.052L128.262 128.324L112.175 127.685Z" fill="url(#paint2_radial)"/>
<g style="mix-blend-mode:multiply" opacity="0.2">
<g style="mix-blend-mode:multiply" opacity="0.2">
<g style="mix-blend-mode:multiply" opacity="0.2">
<g style="mix-blend-mode:multiply" opacity="0.2">
<path d="M143.13 129.092L143.731 128.717L143.149 127.835L142.567 128.229C142.773 128.473 142.961 128.811 143.13 129.092Z" fill="#37496F"/>
</g>
</g>
</g>
<g style="mix-blend-mode:multiply" opacity="0.2">
<g style="mix-blend-mode:multiply" opacity="0.2">
<g style="mix-blend-mode:multiply" opacity="0.2">
<path d="M147.091 240.576C147.223 239.882 147.335 239.206 147.448 238.511L146.753 238.399C146.66 239.074 146.528 239.769 146.397 240.445L147.091 240.576ZM148.011 234.363C148.011 233.65 148.142 232.955 148.199 232.26H147.504C147.504 232.955 147.373 233.65 147.317 234.344L148.011 234.363ZM148.424 228.074C148.424 227.361 148.424 226.667 148.424 225.972H147.729C147.729 226.667 147.729 227.361 147.729 228.056L148.424 228.074ZM147.673 221.805H148.387L148.274 219.702H147.579C147.617 220.453 147.654 221.11 147.673 221.805ZM147.26 215.573H147.974C147.974 214.859 147.842 214.165 147.767 213.489H147.072C147.129 214.184 147.204 214.822 147.26 215.573ZM146.603 209.359L147.298 209.265C147.298 208.571 147.11 207.876 147.035 207.182H146.34C146.322 207.97 146.509 208.665 146.603 209.359ZM145.796 203.127H146.491C146.491 202.433 146.303 201.738 146.228 201.044H145.533C145.608 201.682 145.702 202.433 145.796 203.127ZM145.045 196.895H145.74C145.74 196.2 145.627 195.506 145.59 194.811H144.895C144.933 195.506 144.989 196.2 145.045 196.895ZM144.707 190.607H145.421C145.421 190.1 145.421 189.593 145.421 189.086V188.542H144.726V190.625L144.707 190.607ZM145.514 184.356L145.627 182.272H144.933L144.82 184.356H145.514ZM145.965 178.124C145.965 177.429 146.096 176.734 146.171 176.04H145.477C145.477 176.734 145.346 177.429 145.27 178.124H145.965ZM146.641 171.891C146.735 171.216 146.81 170.521 146.904 169.827L146.209 169.733C146.115 170.427 146.04 171.122 145.946 171.816L146.641 171.891ZM147.41 165.678C147.41 164.984 147.579 164.289 147.654 163.595H146.96C146.96 164.289 146.81 164.984 146.716 165.659L147.41 165.678ZM148.124 159.427C148.124 158.733 148.255 158.038 148.311 157.344H147.617C147.617 158.038 147.485 158.714 147.429 159.427H148.124ZM148.574 153.158C148.574 152.463 148.574 151.75 148.574 151.055H147.861C147.861 151.731 147.861 152.425 147.861 153.12L148.574 153.158ZM147.898 146.888H148.612C148.612 146.175 148.612 145.48 148.48 144.786H147.786C147.842 145.499 147.88 146.193 147.898 146.888ZM147.298 140.693L147.992 140.581C147.88 139.886 147.729 139.173 147.598 138.516L146.904 138.666C147.054 139.379 147.185 140.055 147.298 140.693ZM145.796 134.686L146.453 134.442C146.209 133.785 145.965 133.11 145.683 132.471L145.045 132.753C145.308 133.372 145.552 134.105 145.796 134.686Z" fill="#37496F"/>
</g>
</g>
</g>
<g style="mix-blend-mode:multiply" opacity="0.2">
<g style="mix-blend-mode:multiply" opacity="0.2">
<g style="mix-blend-mode:multiply" opacity="0.2">
<path d="M145.927 245.738C145.927 245.4 146.096 245.062 146.19 244.724L145.514 244.555C145.42 244.893 145.345 245.231 145.251 245.569L145.927 245.738Z" fill="#37496F"/>
</g>
</g>
</g>
</g>
<path d="M162.482 116.441C162.777 120.327 162.777 124.23 162.482 128.117C162.238 133.954 157.921 152.97 157.921 152.97L156.175 152.501C156.175 152.501 156.532 129.637 156.532 123.799C156.443 121.38 156.544 118.957 156.832 116.553L162.482 116.441Z" fill="#FBCAA3"/>
<path d="M157.977 152.97C159.004 154.91 159.901 156.917 160.661 158.977C159.841 160.492 158.62 161.752 157.132 162.619C156.344 162.788 154.692 161.042 154.692 161.042L156.231 152.501C156.231 152.501 157.602 151.712 157.977 152.97Z" fill="#FBCAA3"/>
<path d="M158.709 159.126C158.709 159.126 156.607 162.355 155.818 162.524C155.03 162.693 153.378 161.041 153.378 161.041L156.006 157.887L158.709 159.126Z" fill="#FBCAA3"/>
<path d="M157.357 158.019C157.357 158.019 156.043 161.529 154.635 161.773C154.142 161.828 153.643 161.75 153.19 161.548C152.983 161.463 152.801 161.33 152.658 161.158C152.515 160.987 152.416 160.783 152.37 160.565C152.323 160.346 152.331 160.12 152.392 159.905C152.453 159.691 152.566 159.494 152.72 159.333L155.236 156.442L157.357 158.019Z" fill="#FBCAA3"/>
<path d="M156.212 155.259C156.212 155.259 153.546 160.891 152.458 160.891C151.369 160.891 153.077 155.822 153.772 155.034C154.466 154.245 156.212 155.259 156.212 155.259Z" fill="#FBCAA3"/>
<path d="M156.531 152.463C154.547 152.854 152.754 153.906 151.444 155.447C151.031 155.823 151.143 156.874 151.049 157.625C150.918 158.882 150.787 159.69 151.049 159.746C152.157 159.934 153.114 157.531 153.114 156.498C153.114 154.997 156.268 155.879 156.268 155.879L156.531 152.463Z" fill="#FBCAA3"/>
<path d="M169.395 23.875C174.533 30.506 176.356 39.639 170.074 42.954C163.792 46.27 162.318 44.893 162.532 50.71C162.745 56.526 152.256 59.609 149.289 49.915C146.323 40.22 169.395 23.875 169.395 23.875Z" fill="url(#paint3_linear)"/>
<path d="M124.899 72.154C125.074 74.984 126.004 77.679 128.253 78.416C132.868 79.967 150.744 65.775 150.744 65.775C149.612 64.287 148.643 62.681 147.855 60.986C148.397 56.571 149.71 52.286 151.733 48.325L142.523 51.853C141.217 54.729 139.549 57.427 137.56 59.88C136.988 60.357 136.33 60.719 135.621 60.947L134.962 61.199H134.749L132.81 61.839C129.517 63.637 126.797 66.325 124.957 69.594C124.877 70.445 124.857 71.3 124.899 72.154Z" fill="url(#paint4_linear)"/>
<path d="M126.237 37.467C126.636 36.106 127.209 34.803 127.943 33.589C128.937 31.795 129.837 29.951 130.638 28.063C131.646 25.484 131.879 22.634 132.771 20.443C132.924 20.074 133.105 19.718 133.313 19.377C136.416 14.297 142.368 10.284 149.794 13.056C158.112 16.158 161.563 24.088 156.871 37.486H156.968C156.061 39.671 155.518 41.99 155.359 44.35C151.617 51.272 140.933 55.983 134.671 55.595C132.325 55.44 125.248 41.79 126.237 37.467Z" fill="url(#paint5_linear)"/>
<path d="M157.277 18.195C151.79 26.765 156.715 37.468 156.715 37.468L164.374 37.584L169.396 23.876C167.882 22.138 166.023 20.735 163.936 19.757C161.849 18.778 159.581 18.247 157.277 18.195Z" fill="url(#paint6_linear)"/>
<path d="M127.944 33.569L133.567 36.342L135.971 31.456C139.073 23.138 139.015 20.54 136.533 19.609C135.875 19.4 135.175 19.359 134.497 19.491C133.82 19.623 133.186 19.924 132.655 20.366C131.763 22.556 131.531 25.407 130.522 27.985C129.761 29.89 128.9 31.754 127.944 33.569Z" fill="url(#paint7_linear)"/>
<path d="M150.414 37.641C151.135 35.058 151.074 32.319 150.24 29.77C147.971 24.767 144.035 22.014 141.243 24.418C139.943 25.856 138.953 27.548 138.336 29.386C137.718 31.224 137.487 33.17 137.656 35.101C138.025 39.328 150.414 37.641 150.414 37.641Z" fill="url(#paint8_linear)"/>
<path d="M151.19 29.518C147.467 28.315 147.312 22.266 141.243 24.418C142.736 22.092 145.606 22.189 147.758 24.418C149.91 26.648 149.425 28.219 151.19 29.518Z" fill="url(#paint9_linear)"/>
<path d="M138.646 21.064C138.134 20.577 137.508 20.227 136.826 20.044C136.144 19.861 135.427 19.853 134.74 20.018C134.054 20.184 133.42 20.52 132.896 20.993C132.373 21.467 131.976 22.065 131.743 22.732C130.909 18.893 139.285 15.403 138.646 21.064Z" fill="url(#paint10_linear)"/>
<path d="M140.875 34.734C142.271 26.358 150.395 27.677 149.328 35.103C146.924 38.088 141.67 37.332 140.875 34.734Z" fill="#8E143A"/>
<path d="M140.876 34.733C142.368 28.218 149.698 28.509 149.329 35.101C146.925 38.087 141.67 37.331 140.876 34.733Z" fill="white"/>
<path d="M144.229 41.984C143.363 43.483 141.945 44.583 140.279 45.05C138.613 45.518 136.829 45.315 135.31 44.485C136.889 44.693 138.493 44.579 140.026 44.149C141.559 43.719 142.989 42.983 144.229 41.984Z" fill="#F66C47"/>
<path d="M142.619 33.938C142.62 34.462 142.776 34.974 143.068 35.409C143.361 35.843 143.776 36.181 144.261 36.379C144.746 36.577 145.279 36.626 145.792 36.519C146.306 36.412 146.775 36.155 147.142 35.781C147.508 35.406 147.754 34.931 147.849 34.416C147.945 33.9 147.884 33.368 147.675 32.888C147.467 32.407 147.12 31.999 146.679 31.717C146.237 31.434 145.722 31.289 145.198 31.301C144.509 31.316 143.853 31.601 143.371 32.094C142.889 32.586 142.619 33.248 142.619 33.938Z" fill="#5F3A04"/>
<path style="mix-blend-mode:screen" d="M143.086 33.939C143.086 34.371 143.215 34.793 143.456 35.151C143.697 35.509 144.04 35.787 144.44 35.95C144.84 36.112 145.28 36.152 145.703 36.063C146.125 35.975 146.512 35.762 146.813 35.452C147.115 35.143 147.317 34.751 147.394 34.326C147.471 33.901 147.42 33.462 147.246 33.067C147.073 32.671 146.786 32.336 146.421 32.104C146.056 31.873 145.631 31.756 145.199 31.767C144.633 31.782 144.096 32.018 143.701 32.423C143.306 32.829 143.085 33.373 143.086 33.939Z" fill="url(#paint11_linear)"/>
<path d="M142.445 32.659C142.426 32.785 142.435 32.915 142.471 33.038C142.506 33.161 142.568 33.275 142.652 33.372C142.736 33.469 142.839 33.547 142.956 33.601C143.072 33.654 143.199 33.682 143.327 33.682C143.455 33.682 143.582 33.654 143.699 33.601C143.815 33.547 143.919 33.469 144.003 33.372C144.086 33.275 144.148 33.161 144.184 33.038C144.22 32.915 144.228 32.785 144.209 32.659C144.178 32.447 144.072 32.254 143.91 32.114C143.748 31.975 143.541 31.898 143.327 31.898C143.113 31.898 142.907 31.975 142.745 32.114C142.583 32.254 142.476 32.447 142.445 32.659Z" fill="white"/>
<path d="M131.53 33.395C131.859 34.016 132.557 33.977 133.236 33.744C133.928 33.495 134.58 33.149 135.175 32.717C135.407 31.592 135.388 30.642 135.543 29.886C136.183 26.706 134.69 25.504 133.604 26.008C132.208 26.764 130.715 31.922 131.53 33.395Z" fill="#8E143A"/>
<path d="M131.53 33.395C131.859 34.016 132.557 33.977 133.236 33.744C133.928 33.495 134.58 33.149 135.175 32.717C135.381 31.786 135.504 30.839 135.543 29.886C135.66 26.997 134.535 26.377 133.469 26.939C132.624 27.762 132.002 28.786 131.663 29.916C131.323 31.046 131.278 32.243 131.53 33.395Z" fill="white"/>
<path d="M132.886 31.495C132.708 32.262 132.833 33.068 133.235 33.744C133.417 33.693 133.593 33.622 133.759 33.531C134.23 33.31 134.678 33.044 135.097 32.736C135.194 32.329 135.252 31.941 135.31 31.592C135.394 31.059 135.445 30.522 135.465 29.983C135.39 29.839 135.286 29.713 135.159 29.613C135.032 29.512 134.885 29.44 134.728 29.401C133.972 29.168 133.119 30.157 132.886 31.495Z" fill="#5F3A04"/>
<path d="M132.906 30.041C132.865 30.211 132.893 30.39 132.984 30.539C133.075 30.688 133.221 30.795 133.391 30.836C133.476 30.847 133.563 30.84 133.646 30.816C133.729 30.793 133.807 30.752 133.874 30.698C133.941 30.644 133.996 30.576 134.036 30.5C134.077 30.424 134.101 30.34 134.108 30.254C134.14 30.169 134.152 30.078 134.145 29.987C134.137 29.897 134.11 29.809 134.065 29.73C134.02 29.651 133.958 29.583 133.884 29.531C133.809 29.479 133.724 29.443 133.635 29.428C133.545 29.412 133.454 29.416 133.366 29.439C133.278 29.463 133.197 29.505 133.127 29.564C133.058 29.622 133.002 29.695 132.963 29.778C132.925 29.86 132.906 29.95 132.906 30.041Z" fill="white"/>
<path style="mix-blend-mode:screen" d="M133.76 33.532C134.231 33.311 134.679 33.045 135.098 32.737C135.236 32.371 135.308 31.984 135.311 31.593C135.344 31.346 135.309 31.094 135.21 30.865C135.111 30.637 134.951 30.439 134.749 30.294C133.566 29.576 132.713 32.737 133.76 33.532Z" fill="url(#paint12_linear)"/>
<path d="M138.432 28.141C134.865 33.357 134.206 34.733 132.015 36.284C129.824 37.836 134.555 39.949 135.737 39.038C136.92 38.126 135.194 36.711 135.194 36.711C135.194 36.711 137.153 32.077 138.432 28.141Z" fill="url(#paint13_linear)"/>
<path d="M164.588 40.433C163.483 43.787 156.29 47.626 155.301 44.311C155.46 41.951 156.004 39.632 156.91 37.447C162.843 36.11 165.79 37.118 164.588 40.433Z" fill="url(#paint14_linear)"/>
<path d="M157.724 39.445C161.815 36.09 165.053 39.076 162.203 41.558C161.507 42.273 160.638 42.796 159.68 43.078C158.722 43.36 157.708 43.391 156.736 43.167C156.736 43.167 159.353 42.547 159.353 41.228C159.353 39.91 157.724 39.445 157.724 39.445Z" fill="url(#paint15_linear)"/>
<path d="M156.832 19.009C154.279 16.472 151.044 14.729 147.52 13.993C143.996 13.256 140.334 13.557 136.978 14.86C134.012 15.887 134.244 7.434 142.232 7.104C150.221 6.775 156.832 16.547 156.832 19.009Z" fill="url(#paint16_linear)"/>
<path d="M125.106 12.82C120.538 13.962 120.538 15.104 119.647 17.48C119.647 17.48 119.647 17.571 119.647 17.594L119.75 17.788C120.795 19.221 122.23 20.323 123.884 20.963C126.313 21.999 128.919 22.558 131.559 22.608C131.714 22.287 131.885 21.974 132.073 21.671C133.19 20.065 134.664 18.74 136.379 17.8C137.367 17.223 138.407 16.741 139.485 16.36C133.901 14.27 127.459 12.249 125.106 12.82Z" fill="#B71117"/>
<path d="M143.757 1.079C137.921 2.884 133.204 6.92697 132.496 13.037C131.753 19.581 159.769 20.552 159.769 20.552C159.769 20.552 158.879 20.552 169.123 23.739C169.181 23.758 169.242 23.765 169.303 23.76C169.363 23.754 169.422 23.737 169.475 23.708C169.529 23.679 169.576 23.639 169.614 23.592C169.651 23.544 169.679 23.489 169.694 23.43C169.831 22.756 169.923 22.083 170.003 21.397C170.54 16.623 170.003 11.392 167.239 7.24599C162.625 0.427989 152.06 -1.456 143.757 1.079Z" fill="#ED1C24"/>
<path d="M149.891 11.77C143.461 8.94898 124.65 10.365 121.03 13.837C120.387 14.472 119.912 15.257 119.648 16.121C119.442 17.081 119.648 16.578 119.648 17.263C119.682 17.351 119.682 17.449 119.648 17.537C120.904 14.328 123.897 11.05 130.886 16.041C144.592 25.818 161.906 20.735 161.906 20.735C161.906 20.735 159.736 16.11 149.891 11.77Z" fill="#FA353D"/>
<path d="M153.386 21.386C148.788 21.659 144.179 21.094 139.783 19.718C135.146 18.256 131.788 15.024 127.22 13.471C126.187 13.106 125.092 12.955 123.999 13.025H123.816C122.575 13.209 121.423 13.78 120.527 14.659C120.055 15.111 119.722 15.69 119.568 16.326C119.446 16.763 119.47 17.228 119.636 17.651C119.932 16.978 120.291 16.336 120.71 15.732C121.117 15.128 121.655 14.624 122.284 14.256C122.912 13.888 123.616 13.667 124.342 13.608C126.74 13.459 129.036 14.83 130.84 16.121C144.546 25.897 161.963 21.214 161.963 21.214C161.948 20.88 161.81 20.562 161.575 20.323C159.051 21.283 155.773 21.26 153.386 21.386Z" fill="#ED1C24"/>
<path d="M161.62 20.324L169.775 23.008C169.775 23.008 170.472 24.15 169.124 23.739C167.776 23.327 161.597 21.306 161.597 21.306L161.62 20.324Z" fill="#B71117"/>
<path d="M138.543 142.171C123.791 145.49 113.834 137.746 113.834 137.746C113.834 137.746 116.718 90.515 117.067 86.211C117.416 81.906 129.743 62.749 129.743 62.749L133.296 61.315H134.323C133.025 64.044 132.117 66.942 131.628 69.924C137.714 68.033 143.64 65.66 149.35 62.828L150.493 63.642L151.017 67.869L134.672 100.985L138.543 142.171Z" fill="#FA353D"/>
<path d="M129.863 62.711C129.863 62.711 123.232 65.91 121.176 69.575C119.121 73.239 118.443 81.809 118.443 81.809C118.443 81.809 129.184 65.232 129.863 62.711Z" fill="#FA353D"/>
<path d="M150.55 64.32C150.55 64.32 161.058 73.452 162.319 79.734C163.579 86.016 162.699 115.249 162.699 115.249C162.699 115.249 159.661 117.695 156.614 116.171C155.316 106.837 154.893 93.345 152.023 88.711C144.714 96.37 140.72 103.097 141.069 108.701C141.418 114.304 154.641 130.184 155.223 135.671C147.351 141.604 133.74 143.097 133.74 142.748C133.74 142.399 131.122 121.846 131.006 113.044C130.89 104.241 131.355 90.534 131.355 90.534C131.355 90.534 137.753 79.908 137.753 79.579C137.753 79.249 150.55 64.32 150.55 64.32Z" fill="#FA353D"/>
<path d="M123.232 72.541C120.382 78.706 115.593 81.576 114.1 85.803C112.607 90.029 116.136 109.729 110.106 133.887C109.524 136.175 117.153 139.221 117.153 139.221C117.153 139.221 117.299 113.335 117.532 105.909C118.169 97.06 119.505 88.276 121.526 79.637C122.282 77.698 123.697 73.82 123.697 73.82L123.232 72.541Z" fill="#FA353D"/>
<path d="M163.852 114.676C163.965 115.126 164.303 117.773 164.303 117.773L155.442 118.993L155.123 116.121L163.852 114.676Z" fill="#B71117"/>
<path d="M142.099 80.061L142.22 80.105C142.27 80.147 142.325 80.189 142.351 80.25C142.732 81.062 143.114 81.872 143.495 82.683C143.518 82.737 143.54 82.803 143.506 82.857C143.476 82.897 143.419 82.89 143.378 82.875C143.117 82.783 142.859 82.682 142.597 82.592C142.477 82.544 142.326 82.602 142.278 82.724C142.103 83.184 141.941 83.65 141.767 84.11C141.72 84.237 141.564 84.293 141.441 84.247C140.982 84.081 140.523 83.912 140.065 83.744C139.931 83.701 139.863 83.536 139.919 83.409C140.082 82.962 140.248 82.515 140.41 82.067C140.466 81.938 140.392 81.779 140.26 81.736C139.98 81.628 139.697 81.531 139.417 81.424C139.372 81.408 139.323 81.362 139.344 81.309C139.376 81.234 139.46 81.206 139.529 81.173C140.324 80.812 141.119 80.447 141.915 80.084C141.972 80.058 142.037 80.06 142.099 80.061Z" fill="white"/>
<path d="M137.958 81.893C138.008 81.871 138.069 81.843 138.122 81.873C138.174 81.914 138.152 81.989 138.134 82.041C137.688 83.261 137.241 84.48 136.795 85.699C136.769 85.768 136.749 85.84 136.712 85.905C136.693 85.941 136.647 85.969 136.607 85.947C136.522 85.907 136.497 85.808 136.458 85.73C136.111 84.976 135.762 84.222 135.413 83.467C135.376 83.383 135.319 83.3 135.333 83.203L135.348 83.161C135.381 83.09 135.443 83.039 135.514 83.008C136.328 82.637 137.143 82.264 137.958 81.893Z" fill="white"/>
<path d="M144.109 84.115C144.168 84.126 144.182 84.192 144.206 84.238C144.586 85.031 144.967 85.824 145.347 86.618C145.409 86.73 145.389 86.9 145.264 86.959C144.449 87.332 143.633 87.703 142.819 88.077C142.768 88.096 142.715 88.143 142.659 88.118C142.605 88.073 142.631 87.995 142.65 87.94C143.105 86.7 143.559 85.459 144.014 84.219C144.031 84.175 144.054 84.118 144.109 84.115Z" fill="white"/>
<path d="M139.01 85.894C139.05 85.761 139.207 85.689 139.335 85.739C139.762 85.89 140.185 86.05 140.611 86.203C140.702 86.237 140.804 86.276 140.853 86.368C140.894 86.437 140.888 86.523 140.858 86.596C140.687 87.065 140.514 87.533 140.343 88.002C140.289 88.126 140.331 88.296 140.464 88.349C140.712 88.447 140.967 88.531 141.216 88.629C141.262 88.648 141.323 88.688 141.306 88.748C141.269 88.8 141.201 88.812 141.147 88.841C140.354 89.209 139.562 89.579 138.769 89.948C138.705 89.979 138.631 89.989 138.561 89.975L138.528 89.963C138.463 89.932 138.411 89.878 138.381 89.812C138.01 89.009 137.64 88.205 137.267 87.402C137.247 87.349 137.195 87.293 137.223 87.233C137.267 87.187 137.338 87.208 137.39 87.226C137.651 87.319 137.909 87.419 138.171 87.51C138.306 87.553 138.447 87.451 138.485 87.323C138.662 86.847 138.833 86.37 139.01 85.894Z" fill="white"/>
<path d="M15.01 219.763H8.85199V259.02H15.01V219.763Z" fill="#E1E1E1"/>
<path d="M15.01 219.763H21.168V254.786L15.01 259.02V219.763Z" fill="#CBCBCB"/>
<path d="M217.069 207.062H210.911V246.319H217.069V207.062Z" fill="#E1E1E1"/>
<path d="M148.176 219.763H142.018V259.02H148.176V219.763Z" fill="#E1E1E1"/>
<path d="M148.176 219.763H154.334V254.786L148.176 259.02V219.763Z" fill="#CBCBCB"/>
<path d="M52.343 195.131H46.185V234.388H52.343V195.131Z" fill="#E1E1E1"/>
<path d="M52.343 195.131H58.501V230.155L52.343 234.388V195.131Z" fill="#CBCBCB"/>
<path d="M104.443 66.846H48.813C48.114 66.883 47.457 67.195 46.986 67.714C46.515 68.233 46.268 68.916 46.299 69.616V115.845C46.268 116.545 46.515 117.228 46.986 117.747C47.457 118.266 48.114 118.578 48.813 118.615H104.443C105.142 118.578 105.799 118.266 106.27 117.747C106.741 117.228 106.988 116.545 106.957 115.845V69.616C106.988 68.916 106.741 68.233 106.27 67.714C105.799 67.195 105.142 66.883 104.443 66.846Z" fill="#292C30"/>
<path d="M100.216 66.846H44.586C43.887 66.884 43.23 67.196 42.759 67.715C42.289 68.233 42.041 68.917 42.072 69.617V115.845C42.041 116.545 42.289 117.229 42.759 117.747C43.23 118.266 43.887 118.578 44.586 118.616H100.216C100.916 118.578 101.572 118.266 102.043 117.747C102.514 117.229 102.761 116.545 102.731 115.845V69.617C102.761 68.917 102.514 68.233 102.043 67.715C101.572 67.196 100.916 66.884 100.216 66.846Z" fill="#404449"/>
<path d="M88.088 81.588H57.559C56.855 81.623 56.194 81.935 55.721 82.457C55.247 82.978 55 83.666 55.033 84.37V109.181C55.003 109.882 55.25 110.567 55.72 111.087C56.191 111.608 56.847 111.922 57.548 111.962H88.088C88.795 111.93 89.46 111.62 89.938 111.098C90.415 110.577 90.667 109.887 90.636 109.181V84.37C90.653 84.02 90.6 83.67 90.48 83.34C90.361 83.01 90.178 82.708 89.941 82.449C89.704 82.191 89.419 81.982 89.101 81.834C88.783 81.686 88.439 81.603 88.088 81.588Z" fill="#2F3235"/>
<path d="M84.428 81.588H57.013C55.987 81.646 55.025 82.106 54.336 82.868C53.646 83.63 53.285 84.634 53.331 85.66V107.912C53.285 108.939 53.646 109.943 54.336 110.705C55.025 111.467 55.987 111.927 57.013 111.985H84.428C85.455 111.927 86.418 111.468 87.109 110.706C87.8 109.944 88.164 108.94 88.122 107.912V85.66C88.164 84.633 87.8 83.629 87.109 82.867C86.418 82.105 85.455 81.646 84.428 81.588Z" fill="#4C5054"/>
<path d="M75.182 94.583H66.9379C66.6599 94.597 66.388 94.666 66.137 94.786C65.886 94.905 65.661 95.073 65.475 95.28C65.289 95.487 65.146 95.728 65.053 95.99C64.96 96.253 64.92 96.531 64.935 96.808V132.567H77.174V96.775C77.195 96.221 76.999 95.682 76.626 95.272C76.254 94.862 75.735 94.615 75.182 94.583Z" fill="#2F3235"/>
<path d="M73.324 94.583H65.046C64.769 94.597 64.496 94.666 64.245 94.786C63.994 94.905 63.769 95.073 63.583 95.28C63.397 95.487 63.254 95.728 63.161 95.99C63.069 96.253 63.029 96.531 63.044 96.808V132.567H75.282V96.775C75.304 96.227 75.112 95.692 74.746 95.283C74.381 94.874 73.871 94.623 73.324 94.583Z" fill="#34373D"/>
<path opacity="0.09" d="M85.874 111.962H80.489V113.052H85.874V111.962Z" fill="black"/>
<path d="M80.478 115.5C80.475 115.558 80.484 115.616 80.504 115.67C80.524 115.725 80.554 115.775 80.593 115.817C80.633 115.86 80.68 115.894 80.733 115.918C80.786 115.942 80.843 115.955 80.901 115.956H85.285C85.445 115.947 85.596 115.876 85.704 115.757C85.812 115.639 85.869 115.482 85.863 115.322V111.984H80.478V115.5Z" fill="#222528"/>
<path d="M79.043 115.5C79.04 115.557 79.048 115.614 79.067 115.668C79.086 115.722 79.116 115.771 79.154 115.813C79.192 115.856 79.238 115.89 79.29 115.915C79.341 115.939 79.397 115.953 79.454 115.956H83.905C84.065 115.947 84.216 115.876 84.324 115.757C84.432 115.639 84.489 115.482 84.483 115.322V111.984H79.043V115.5Z" fill="#2D3135"/>
<path opacity="0.09" d="M84.428 111.962H79.043V113.052H84.428V111.962Z" fill="black"/>
<path d="M62.376 86.483H54.799C54.77 86.485 54.741 86.492 54.715 86.504C54.689 86.517 54.665 86.534 54.645 86.556C54.626 86.578 54.61 86.603 54.601 86.631C54.591 86.658 54.586 86.688 54.588 86.717V86.995C54.586 87.024 54.591 87.053 54.601 87.081C54.61 87.109 54.626 87.134 54.645 87.156C54.665 87.177 54.689 87.195 54.715 87.207C54.741 87.22 54.77 87.227 54.799 87.229H62.376C62.434 87.223 62.488 87.196 62.527 87.153C62.566 87.11 62.588 87.053 62.588 86.995V86.717C62.588 86.658 62.566 86.602 62.527 86.559C62.488 86.516 62.434 86.489 62.376 86.483Z" fill="#222528"/>
<path d="M62.376 88.263H54.8C54.769 88.265 54.74 88.272 54.712 88.285C54.685 88.299 54.661 88.317 54.641 88.34C54.621 88.363 54.607 88.39 54.597 88.419C54.588 88.447 54.585 88.478 54.588 88.508V88.775C54.587 88.804 54.591 88.833 54.601 88.861C54.611 88.889 54.626 88.914 54.645 88.936C54.665 88.957 54.689 88.975 54.715 88.987C54.742 89 54.77 89.007 54.8 89.009H62.376C62.406 89.007 62.434 89 62.461 88.987C62.487 88.975 62.511 88.957 62.531 88.936C62.55 88.914 62.565 88.889 62.575 88.861C62.585 88.833 62.589 88.804 62.588 88.775V88.508C62.591 88.448 62.571 88.389 62.531 88.343C62.492 88.297 62.436 88.269 62.376 88.263Z" fill="#222528"/>
<path d="M62.376 89.955H54.8C54.769 89.956 54.74 89.964 54.712 89.977C54.685 89.99 54.661 90.009 54.641 90.032C54.621 90.055 54.607 90.082 54.597 90.11C54.588 90.139 54.585 90.17 54.588 90.2V90.489C54.587 90.518 54.591 90.548 54.601 90.575C54.611 90.603 54.626 90.628 54.645 90.65C54.665 90.672 54.689 90.689 54.715 90.702C54.742 90.714 54.77 90.721 54.8 90.723H62.376C62.406 90.721 62.434 90.714 62.461 90.702C62.487 90.689 62.511 90.672 62.531 90.65C62.55 90.628 62.565 90.603 62.575 90.575C62.585 90.548 62.589 90.518 62.588 90.489V90.222C62.592 90.191 62.591 90.158 62.582 90.128C62.574 90.097 62.56 90.068 62.54 90.043C62.52 90.018 62.495 89.997 62.467 89.982C62.439 89.967 62.408 89.958 62.376 89.955Z" fill="#222528"/>
<path d="M62.376 91.69H54.8C54.769 91.692 54.74 91.699 54.712 91.713C54.685 91.726 54.661 91.744 54.641 91.767C54.621 91.79 54.607 91.817 54.597 91.846C54.588 91.875 54.585 91.905 54.588 91.935V92.202C54.585 92.232 54.588 92.263 54.597 92.292C54.607 92.321 54.621 92.347 54.641 92.37C54.661 92.393 54.685 92.412 54.712 92.425C54.74 92.438 54.769 92.446 54.8 92.447H62.376C62.436 92.441 62.492 92.413 62.531 92.367C62.571 92.322 62.591 92.262 62.588 92.202V91.935C62.591 91.875 62.571 91.816 62.531 91.77C62.492 91.725 62.436 91.696 62.376 91.69Z" fill="#222528"/>
<path d="M62.376 93.426H54.8C54.769 93.427 54.74 93.435 54.712 93.448C54.685 93.461 54.661 93.48 54.641 93.503C54.621 93.526 54.607 93.552 54.597 93.581C54.588 93.61 54.585 93.64 54.588 93.671V93.938C54.585 93.968 54.588 93.998 54.597 94.027C54.607 94.056 54.621 94.083 54.641 94.105C54.661 94.128 54.685 94.147 54.712 94.16C54.74 94.173 54.769 94.181 54.8 94.182H62.376C62.436 94.177 62.492 94.148 62.531 94.102C62.571 94.057 62.591 93.998 62.588 93.938V93.671C62.591 93.61 62.571 93.551 62.531 93.506C62.492 93.46 62.436 93.431 62.376 93.426Z" fill="#222528"/>
<path d="M62.376 95.162H54.8C54.769 95.163 54.74 95.171 54.712 95.184C54.685 95.197 54.661 95.216 54.641 95.239C54.621 95.262 54.607 95.289 54.597 95.317C54.588 95.346 54.585 95.377 54.588 95.407V95.674C54.585 95.704 54.588 95.734 54.597 95.763C54.607 95.792 54.621 95.819 54.641 95.842C54.661 95.865 54.685 95.883 54.712 95.897C54.74 95.91 54.769 95.917 54.8 95.919H62.376C62.436 95.913 62.492 95.884 62.531 95.839C62.571 95.793 62.591 95.734 62.588 95.674V95.407C62.591 95.347 62.571 95.288 62.531 95.242C62.492 95.196 62.436 95.168 62.376 95.162Z" fill="#222528"/>
<path d="M62.376 96.908H54.8C54.77 96.91 54.742 96.917 54.715 96.93C54.689 96.942 54.665 96.96 54.645 96.981C54.626 97.003 54.611 97.029 54.601 97.056C54.591 97.084 54.587 97.113 54.588 97.142V97.409C54.585 97.439 54.588 97.47 54.597 97.499C54.607 97.527 54.621 97.554 54.641 97.577C54.661 97.6 54.685 97.619 54.712 97.632C54.74 97.645 54.769 97.653 54.8 97.654H62.376C62.436 97.648 62.492 97.62 62.531 97.574C62.571 97.528 62.591 97.469 62.588 97.409V97.164C62.593 97.133 62.591 97.102 62.582 97.072C62.574 97.041 62.559 97.013 62.539 96.989C62.519 96.965 62.495 96.945 62.467 96.931C62.438 96.917 62.408 96.91 62.376 96.908Z" fill="#222528"/>
<path d="M62.376 98.644H54.8C54.77 98.645 54.742 98.653 54.715 98.665C54.689 98.678 54.665 98.695 54.645 98.717C54.626 98.739 54.611 98.764 54.601 98.792C54.591 98.819 54.587 98.848 54.588 98.878V99.145C54.585 99.175 54.588 99.205 54.597 99.234C54.607 99.263 54.621 99.29 54.641 99.313C54.661 99.336 54.685 99.354 54.712 99.367C54.74 99.381 54.769 99.388 54.8 99.389H62.376C62.436 99.384 62.492 99.355 62.531 99.31C62.571 99.264 62.591 99.205 62.588 99.145V98.878C62.589 98.848 62.585 98.819 62.575 98.792C62.565 98.764 62.55 98.739 62.531 98.717C62.511 98.695 62.487 98.678 62.461 98.665C62.434 98.653 62.406 98.645 62.376 98.644Z" fill="#222528"/>
<path d="M62.376 100.38H54.8C54.769 100.381 54.74 100.389 54.712 100.402C54.685 100.415 54.661 100.434 54.641 100.457C54.621 100.48 54.607 100.506 54.597 100.535C54.588 100.564 54.585 100.595 54.588 100.625V100.892C54.587 100.921 54.591 100.95 54.601 100.978C54.611 101.005 54.626 101.031 54.645 101.052C54.665 101.074 54.689 101.092 54.715 101.104C54.742 101.117 54.77 101.124 54.8 101.125H62.376C62.406 101.124 62.434 101.117 62.461 101.104C62.487 101.092 62.511 101.074 62.531 101.052C62.55 101.031 62.565 101.005 62.575 100.978C62.585 100.95 62.589 100.921 62.588 100.892V100.625C62.591 100.564 62.571 100.505 62.531 100.46C62.492 100.414 62.436 100.386 62.376 100.38Z" fill="#222528"/>
<path d="M62.376 102.116H54.8C54.769 102.117 54.74 102.125 54.712 102.138C54.685 102.151 54.661 102.17 54.641 102.193C54.621 102.215 54.607 102.242 54.597 102.271C54.588 102.3 54.585 102.33 54.588 102.36V102.628C54.587 102.657 54.591 102.686 54.601 102.714C54.611 102.741 54.626 102.766 54.645 102.788C54.665 102.81 54.689 102.828 54.715 102.84C54.742 102.853 54.77 102.86 54.8 102.861H62.376C62.406 102.86 62.434 102.853 62.461 102.84C62.487 102.828 62.511 102.81 62.531 102.788C62.55 102.766 62.565 102.741 62.575 102.714C62.585 102.686 62.589 102.657 62.588 102.628V102.36C62.591 102.3 62.571 102.241 62.531 102.196C62.492 102.15 62.436 102.121 62.376 102.116Z" fill="#222528"/>
<path d="M62.376 103.84H54.8C54.769 103.841 54.74 103.849 54.712 103.862C54.685 103.875 54.661 103.894 54.641 103.917C54.621 103.94 54.607 103.967 54.597 103.995C54.588 104.024 54.585 104.055 54.588 104.085V104.352C54.585 104.382 54.588 104.412 54.597 104.441C54.607 104.47 54.621 104.497 54.641 104.52C54.661 104.543 54.685 104.561 54.712 104.575C54.74 104.588 54.769 104.595 54.8 104.597H62.376C62.436 104.591 62.492 104.562 62.531 104.517C62.571 104.471 62.591 104.412 62.588 104.352V104.085C62.591 104.025 62.571 103.966 62.531 103.92C62.492 103.874 62.436 103.846 62.376 103.84Z" fill="#222528"/>
<path d="M62.376 105.587H54.8C54.769 105.588 54.74 105.596 54.712 105.609C54.685 105.622 54.661 105.641 54.641 105.664C54.621 105.686 54.607 105.713 54.597 105.742C54.588 105.771 54.585 105.801 54.588 105.831V106.065C54.585 106.095 54.588 106.126 54.597 106.155C54.607 106.183 54.621 106.21 54.641 106.233C54.661 106.256 54.685 106.275 54.712 106.288C54.74 106.301 54.769 106.308 54.8 106.31H62.376C62.436 106.304 62.492 106.276 62.531 106.23C62.571 106.184 62.591 106.125 62.588 106.065V105.798C62.583 105.744 62.559 105.693 62.52 105.654C62.482 105.616 62.431 105.592 62.376 105.587Z" fill="#222528"/>
<path d="M62.376 107.322H54.8C54.769 107.323 54.74 107.331 54.712 107.344C54.685 107.357 54.661 107.376 54.641 107.399C54.621 107.422 54.607 107.448 54.597 107.477C54.588 107.506 54.585 107.536 54.588 107.567V107.834C54.585 107.864 54.588 107.894 54.597 107.923C54.607 107.952 54.621 107.979 54.641 108.001C54.661 108.024 54.685 108.043 54.712 108.056C54.74 108.069 54.769 108.077 54.8 108.078H62.376C62.436 108.073 62.492 108.044 62.531 107.998C62.571 107.953 62.591 107.894 62.588 107.834V107.567C62.591 107.506 62.571 107.447 62.531 107.402C62.492 107.356 62.436 107.327 62.376 107.322Z" fill="#222528"/>
<path d="M82.592 132.801L82.625 115.934L81.435 115.967V132.801H82.592Z" fill="#222528"/>
<path d="M101.506 130.287H47.556C47.394 130.288 47.234 130.321 47.085 130.385C46.935 130.448 46.8 130.54 46.686 130.656C46.573 130.772 46.483 130.909 46.422 131.059C46.362 131.21 46.331 131.371 46.333 131.533V132.645C46.333 132.971 46.461 133.283 46.69 133.515C46.92 133.746 47.231 133.877 47.556 133.88H101.506C101.832 133.877 102.143 133.746 102.372 133.515C102.602 133.283 102.73 132.971 102.73 132.645V131.533C102.732 131.371 102.701 131.21 102.64 131.059C102.58 130.909 102.49 130.772 102.376 130.656C102.263 130.54 102.127 130.448 101.978 130.385C101.829 130.321 101.668 130.288 101.506 130.287Z" fill="#242628"/>
<path d="M82.67 130.32H47.245C47.01 130.325 46.786 130.423 46.622 130.591C46.458 130.76 46.366 130.986 46.366 131.221V132.945C46.362 133.065 46.381 133.184 46.423 133.295C46.465 133.407 46.528 133.509 46.61 133.596C46.692 133.683 46.79 133.753 46.899 133.802C47.008 133.851 47.126 133.877 47.245 133.88H82.67C82.907 133.874 83.132 133.775 83.297 133.604C83.461 133.433 83.552 133.205 83.549 132.968V131.243C83.552 131.125 83.532 131.007 83.489 130.896C83.446 130.786 83.383 130.685 83.301 130.599C83.219 130.513 83.122 130.445 83.013 130.397C82.905 130.349 82.788 130.322 82.67 130.32Z" fill="#404449"/>
<path d="M152.229 130.287H105.122C104.329 130.287 103.687 130.929 103.687 131.722V132.734C103.687 133.527 104.329 134.17 105.122 134.17H152.229C153.022 134.17 153.665 133.527 153.665 132.734V131.722C153.665 130.929 153.022 130.287 152.229 130.287Z" fill="#242628"/>
<path d="M214.011 125.084H11.91C10.221 125.084 8.85199 126.948 8.85199 129.247V133.622C8.85199 135.921 10.221 137.785 11.91 137.785H214.011C215.7 137.785 217.069 135.921 217.069 133.622V129.247C217.069 126.948 215.7 125.084 214.011 125.084Z" fill="#F2EEEE"/>
<path d="M215.583 125.084H148.561V137.785H217.069V127.112C217.069 126.574 216.912 126.059 216.634 125.678C216.355 125.298 215.977 125.084 215.583 125.084Z" fill="#E1E1E1"/>
<path d="M141.361 223.6H217.107V136.896H141.361V223.6Z" fill="#E1E1E1"/>
<path d="M8.76196 223.612H148.393V135.242H8.76196V223.612Z" fill="#F2EEEE"/>
<path opacity="0.1" d="M217.107 180.574V173.776C217.107 173.44 216.973 173.117 216.735 172.879C216.498 172.641 216.175 172.508 215.839 172.508H10.008C9.672 172.508 9.34899 172.641 9.11099 172.879C8.87299 173.117 8.73999 173.44 8.73999 173.776V179.339H148.371L217.107 180.574Z" fill="black"/>
<path d="M226.775 169.47H69.342C68.113 169.47 67.117 170.467 67.117 171.696V173.264C67.117 174.493 68.113 175.49 69.342 175.49H226.775C228.004 175.49 229 174.493 229 173.264V171.696C229 170.467 228.004 169.47 226.775 169.47Z" fill="#D6D6D6"/>
<path d="M148.646 169.47H2.07199C0.927991 169.47 0 170.484 0 171.734V173.33C0 174.581 0.927991 175.594 2.07199 175.594H148.646C149.79 175.594 150.718 174.581 150.718 173.33V171.734C150.718 170.484 149.79 169.47 148.646 169.47Z" fill="#F7F7F7"/>
<defs>
<radialGradient id="paint0_radial" cx="0" cy="0" r="1" gradientUnits="userSpaceOnUse" gradientTransform="translate(131.772 168.814) rotate(180) scale(29.9592)">
<stop stop-color="#494D4D"/>
<stop offset="1" stop-color="#585C5C"/>
</radialGradient>
<radialGradient id="paint1_radial" cx="0" cy="0" r="1" gradientUnits="userSpaceOnUse" gradientTransform="translate(-7106.26 6284.56) rotate(180) scale(393.17 513.791)">
<stop stop-color="#494D4D"/>
<stop offset="1" stop-color="#585C5C"/>
</radialGradient>
<radialGradient id="paint2_radial" cx="0" cy="0" r="1" gradientUnits="userSpaceOnUse" gradientTransform="translate(126.948 90.931) rotate(180) scale(63.241)">
<stop offset="0.68" stop-color="#494D4D"/>
<stop offset="1" stop-color="white"/>
</radialGradient>
<linearGradient id="paint3_linear" x1="165.052" y1="24.922" x2="159.313" y2="52.939" gradientUnits="userSpaceOnUse">
<stop offset="0.09" stop-color="#333333"/>
<stop offset="1" stop-color="#222222"/>
</linearGradient>
<linearGradient id="paint4_linear" x1="139.984" y1="44.777" x2="138.297" y2="62.847" gradientUnits="userSpaceOnUse">
<stop stop-color="#CE7A35"/>
<stop offset="1" stop-color="#FBCAA3"/>
</linearGradient>
<linearGradient id="paint5_linear" x1="138.801" y1="23.895" x2="151.461" y2="51.659" gradientUnits="userSpaceOnUse">
<stop offset="0.78" stop-color="#FBCAA3"/>
<stop offset="0.96" stop-color="#F1A160"/>
</linearGradient>
<linearGradient id="paint6_linear" x1="162.125" y1="24.322" x2="156.386" y2="52.339" gradientUnits="userSpaceOnUse">
<stop offset="0.09" stop-color="#333333"/>
<stop offset="1" stop-color="#222222"/>
</linearGradient>
<linearGradient id="paint7_linear" x1="140.198" y1="18.427" x2="133.644" y2="27.772" gradientUnits="userSpaceOnUse">
<stop stop-color="#DF8B47"/>
<stop offset="0.4" stop-color="#F1A160"/>
<stop offset="0.77" stop-color="#FDB77E"/>
<stop offset="0.99" stop-color="#FDB77E" stop-opacity="0.25"/>
</linearGradient>
<linearGradient id="paint8_linear" x1="144.849" y1="18.233" x2="144.21" y2="34.694" gradientUnits="userSpaceOnUse">
<stop offset="0.15" stop-color="#DF8B47"/>
<stop offset="0.38" stop-color="#F1A160"/>
<stop offset="1" stop-color="#FDB77E" stop-opacity="0.16"/>
</linearGradient>
<linearGradient id="paint9_linear" x1="-2400.95" y1="476.946" x2="-2451.97" y2="476.946" gradientUnits="userSpaceOnUse">
<stop offset="0.09" stop-color="#E44720"/>
<stop offset="1" stop-color="#C41B40"/>
</linearGradient>
<linearGradient id="paint10_linear" x1="-1711.04" y1="314.045" x2="-1736.23" y2="314.045" gradientUnits="userSpaceOnUse">
<stop offset="0.09" stop-color="#E44720"/>
<stop offset="1" stop-color="#C41B40"/>
</linearGradient>
<linearGradient id="paint11_linear" x1="145.315" y1="36.013" x2="145.218" y2="32.388" gradientUnits="userSpaceOnUse">
<stop stop-color="#A2371A"/>
<stop offset="1"/>
</linearGradient>
<linearGradient id="paint12_linear" x1="-377.042" y1="123.633" x2="-376.549" y2="119.003" gradientUnits="userSpaceOnUse">
<stop stop-color="#A2371A"/>
<stop offset="1"/>
</linearGradient>
<linearGradient id="paint13_linear" x1="136.59" y1="32.348" x2="132.015" y2="41.151" gradientUnits="userSpaceOnUse">
<stop stop-color="#FDB77E" stop-opacity="0.15"/>
<stop offset="1" stop-color="#FC9D50"/>
</linearGradient>
<linearGradient id="paint14_linear" x1="-2375.63" y1="674.382" x2="-2364.51" y2="701.201" gradientUnits="userSpaceOnUse">
<stop offset="0.645833" stop-color="#FCA761" stop-opacity="0.65"/>
<stop offset="1" stop-color="#FDB77E"/>
</linearGradient>
<linearGradient id="paint15_linear" x1="156.27" y1="40.86" x2="161.835" y2="40.472" gradientUnits="userSpaceOnUse">
<stop offset="0.34" stop-color="#E78536"/>
<stop offset="0.61" stop-color="#F4A768"/>
<stop offset="0.85" stop-color="#FBCAA3"/>
<stop offset="1" stop-color="#FBCAA3"/>
</linearGradient>
<linearGradient id="paint16_linear" x1="-5727.42" y1="664.09" x2="-5728.14" y2="708.32" gradientUnits="userSpaceOnUse">
<stop offset="0.09" stop-color="#E44200"/>
<stop offset="1" stop-color="#C40000"/>
</linearGradient>
</defs>
</svg>
