<svg width="22" height="16" viewBox="0 0 22 16" fill="none" xmlns="http://www.w3.org/2000/svg">
<path d="M5.81631 0.0590627C6.74664 -0.0725267 7.73034 0.00569082 8.59349 0.395858C9.34438 0.731733 9.96 1.35839 10.283 2.1148C11.1443 4.12729 10.2407 6.76552 8.24842 7.72806C7.21595 8.21853 5.93502 8.23417 4.93475 7.6526C3.96946 7.10232 3.3336 6.0993 3.04097 5.04658C2.72258 3.86872 2.79712 2.5289 3.48543 1.4909C3.9989 0.694005 4.88874 0.194333 5.81631 0.0590627ZM5.98563 1.79181C5.497 1.88751 5.05438 2.21142 4.86114 2.67613C4.62464 3.25402 4.64765 3.9046 4.75807 4.50918C4.90255 5.25731 5.34885 5.99807 6.07673 6.29714C6.78989 6.61185 7.67881 6.3818 8.18124 5.79471C8.76833 5.13584 8.93397 4.19907 8.86219 3.34236C8.81802 2.793 8.56037 2.21879 8.04413 1.96481C7.41287 1.64918 6.66474 1.68323 5.98563 1.79181Z" fill="white" fill-opacity="0.6"/>
<path d="M14.6539 1.90419C15.667 1.74131 16.7842 1.86922 17.6317 2.48668C18.2225 2.90353 18.6319 3.54123 18.8427 4.22679C19.2071 5.4479 19.0129 6.81532 18.3513 7.90025C17.9317 8.57568 17.2986 9.13976 16.5339 9.38454C15.4204 9.7655 14.1009 9.53821 13.2221 8.74132C11.8371 7.49536 11.4396 5.29238 12.2623 3.62773C12.7104 2.70016 13.6426 2.05786 14.6539 1.90419ZM15.091 3.61669C14.4984 3.6765 13.9214 4.02618 13.6776 4.58383C13.2368 5.59973 13.6058 6.91379 14.526 7.53677C15.1361 7.94442 16.0057 7.8754 16.5458 7.37849C17.363 6.65153 17.6473 5.31079 17.0612 4.36114C16.6471 3.71515 15.8097 3.52835 15.091 3.61669Z" fill="white" fill-opacity="0.6"/>
<path d="M2.20904 10.2374C3.74394 9.32644 5.58804 9.15528 7.33735 9.21049C8.8971 9.27031 10.5314 9.57397 11.8022 10.5374C12.8448 11.3214 13.4917 12.5923 13.5303 13.8934C13.5469 14.5376 13.5681 15.1808 13.5855 15.8249C12.9939 15.8268 12.4012 15.8295 11.8095 15.8249C11.7884 15.1495 11.7847 14.4741 11.7562 13.7996C11.7037 12.9594 11.182 12.1975 10.4624 11.7788C9.41333 11.1622 8.16369 11.0343 6.97019 11.0058C5.67361 11.0012 4.30987 11.1052 3.15685 11.753C2.41056 12.1625 1.875 12.9419 1.81611 13.7977C1.78666 14.4667 1.7701 15.1375 1.76458 15.8074C1.17841 15.8461 0.588556 15.8286 0.00146484 15.8157C0.0207892 15.1449 0.0345922 14.4732 0.0456347 13.8014C0.11373 12.3493 0.958479 10.9736 2.20904 10.2374Z" fill="white" fill-opacity="0.6"/>
<path d="M13.7649 10.8099C15.4452 10.5632 17.2157 10.6148 18.8085 11.2534C19.9027 11.6923 20.8781 12.5242 21.3069 13.6441C21.6004 14.3333 21.6198 15.0925 21.6814 15.8277C21.0934 15.8287 20.5045 15.8176 19.9165 15.8342C19.8502 15.3106 19.8797 14.7621 19.6561 14.2717C19.3809 13.6008 18.7598 13.138 18.1 12.884C16.9654 12.4515 15.7277 12.4487 14.5333 12.5141C14.3741 11.9067 14.0934 11.3417 13.7649 10.8099Z" fill="white" fill-opacity="0.6"/>
</svg>
