<svg width="77" height="71" viewBox="0 0 77 71" fill="none" xmlns="http://www.w3.org/2000/svg">
<path d="M48.5703 30.7109V0.0957031H76.8418V24.2656C76.8418 37.3516 75.2793 46.8242 72.1543 52.6836C68.0527 60.4961 61.5586 66.4043 52.6719 70.4082L46.2266 60.1543C51.5977 57.9082 55.5527 54.5391 58.0918 50.0469C60.6309 45.6523 62.0469 39.207 62.3398 30.7109H48.5703ZM3.16016 30.7109V0.0957031H31.4316V24.2656C31.4316 37.3516 29.8691 46.8242 26.7441 52.6836C22.6426 60.4961 16.1484 66.4043 7.26172 70.4082L0.816406 60.1543C6.1875 57.9082 10.1426 54.5391 12.6816 50.0469C15.2207 45.6523 16.6367 39.207 16.9297 30.7109H3.16016Z" fill="black" fill-opacity="0.1"/>
</svg>
