<svg width="164" height="165" viewBox="0 0 164 165" fill="none" xmlns="http://www.w3.org/2000/svg">
<g filter="url(#filter0)">
<path d="M96.4802 66.0427C94.8287 66.0427 93.4775 67.3939 93.4775 69.0453C93.4775 70.7156 93.4775 84.0402 93.4775 85.7104C93.4775 87.3619 92.1262 88.7132 90.4748 88.7132C88.8233 88.7132 75.6489 88.7132 73.9974 88.7132C72.3459 88.7132 70.9947 87.3619 70.9947 85.7104C70.9947 84.0402 70.9947 70.7156 70.9947 69.0453C70.9947 67.3939 69.6434 66.0427 67.9919 66.0427C66.9973 66.0427 59.1715 66.0427 58.1768 66.0427C56.5253 66.0427 56.1312 65.0856 57.2948 63.922C59.5656 61.67 77.5818 43.6349 79.8526 41.3829C81.0162 40.2193 82.9304 40.2193 84.094 41.3829C86.346 43.6349 104.381 61.67 106.633 63.922C107.797 65.0856 107.403 66.0427 105.751 66.0427C103.893 66.0427 97.3998 66.0427 96.4802 66.0427ZM90.0806 25.9565C90.0806 30.4418 86.4399 34.0637 81.9733 34.0637C77.488 34.0637 73.866 30.4418 73.866 25.9565C73.866 21.4899 77.488 17.8491 81.9733 17.8491C86.4399 17.8491 90.0806 21.4899 90.0806 25.9565ZM133.733 49.4526C105.732 21.4523 90.1745 5.89453 87.0779 2.77921C84.2629 -0.0170623 79.665 -0.0170623 76.8687 2.77921C72.1957 7.45219 34.8682 44.7797 30.1953 49.4526C27.3802 52.2677 27.3802 56.8468 30.1953 59.6619C34.8682 64.3348 72.1957 101.662 76.8687 106.335C79.665 109.132 84.2629 109.132 87.0779 106.335C91.7321 101.662 129.078 64.3348 133.733 59.6619C136.548 56.8468 136.548 52.2677 133.733 49.4526Z" fill="#ED1C24"/>
</g>
<path d="M80.4884 18.2033C82.1683 17.9082 83.945 18.1172 85.4898 18.8488C87.2785 19.6686 88.7624 21.1394 89.5843 22.9281C90.3236 24.4675 90.5467 26.241 90.255 27.9219C89.9012 30.0056 88.7156 31.9337 87.0216 33.1976C85.7762 34.136 84.264 34.7228 82.7072 34.8491C80.8488 35.0222 78.9414 34.541 77.3814 33.5188C75.8322 32.5128 74.6281 30.9821 74.0337 29.2316C73.3282 27.2306 73.4338 24.9618 74.3069 23.0294C75.4119 20.5363 77.7994 18.6681 80.4884 18.2033Z" fill="white"/>
<path d="M81.5664 39.3504C82.5419 39.2143 83.5565 39.5812 84.237 40.2889C91.898 47.9434 99.5525 55.6044 107.212 63.2611C107.595 63.641 108.001 64.0329 108.185 64.5544C108.303 64.9006 108.182 65.3317 107.854 65.5146C107.341 65.839 106.709 65.7922 106.13 65.7966C103.043 65.7977 99.9564 65.7922 96.87 65.7988C95.6104 65.8347 94.4499 66.7307 94.059 67.9228C93.8478 68.5205 93.8979 69.1639 93.8935 69.7877C93.8914 75.304 93.8957 80.8203 93.8914 86.3367C93.8598 87.912 92.4434 89.2783 90.8757 89.2935C85.1449 89.3011 79.4141 89.2957 73.6833 89.2968C72.083 89.3207 70.6372 87.9272 70.5969 86.328C70.5926 80.5601 70.5958 74.7923 70.5958 69.0245C70.6035 68.38 70.438 67.7225 70.07 67.189C69.5333 66.3583 68.5709 65.8249 67.5846 65.7966C64.1389 65.7933 60.6921 65.7998 57.2465 65.7933C56.7054 65.7781 56.0239 65.6942 55.7485 65.1554C55.5547 64.5827 55.964 64.0373 56.344 63.6497C64.1041 55.9147 71.8424 48.1589 79.5905 40.4141C80.0989 39.8425 80.8055 39.4473 81.5664 39.3504Z" fill="white"/>
<defs>
<filter id="filter0" x="0.0839844" y="0.682007" width="163.76" height="163.75" filterUnits="userSpaceOnUse" color-interpolation-filters="sRGB">
<feFlood flood-opacity="0" result="BackgroundImageFix"/>
<feColorMatrix in="SourceAlpha" type="matrix" values="0 0 0 0 0 0 0 0 0 0 0 0 0 0 0 0 0 0 127 0" result="hardAlpha"/>
<feOffset dy="28"/>
<feGaussianBlur stdDeviation="14"/>
<feComposite in2="hardAlpha" operator="out"/>
<feColorMatrix type="matrix" values="0 0 0 0 0.929412 0 0 0 0 0.109804 0 0 0 0 0.141176 0 0 0 0.28 0"/>
<feBlend mode="normal" in2="BackgroundImageFix" result="effect1_dropShadow_51:580"/>
<feBlend mode="normal" in="SourceGraphic" in2="effect1_dropShadow_51:580" result="shape"/>
</filter>
</defs>
</svg>
