<svg width="412" height="487" viewBox="0 0 412 487" fill="none" xmlns="http://www.w3.org/2000/svg">
<g clip-path="url(#clip0_355_99)">
<path d="M199.84 0.286151C198.23 0.776151 195.92 1.89615 194.59 2.66615C193.33 3.50615 160.71 35.7062 122.21 74.3462C44.58 152.046 49.48 146.586 49.48 156.106C49.48 165.626 44.58 160.096 122.56 238.216C201.03 316.826 196.27 312.556 205.93 312.556C215.59 312.556 210.83 316.826 289.3 238.216C367.28 160.096 362.38 165.626 362.38 156.106C362.38 146.586 367.28 152.116 289.3 73.9962C231.97 16.5262 218.18 3.15615 215.24 1.68615C210.76 -0.553849 204.11 -1.11385 199.84 0.286151ZM216.15 51.8062C230.29 58.7362 233.86 77.0062 223.36 88.5562C218.18 94.1562 213.49 96.1862 205.93 96.1862C200.89 96.1862 199.42 95.9062 195.99 94.2962C190.81 91.7762 185.49 85.9662 183.81 81.0662C176.88 60.9062 197.25 42.5662 216.15 51.8062ZM208.59 115.506C209.22 115.506 225.46 131.186 244.57 150.296C269.77 175.426 279.43 185.576 279.43 186.696C279.43 187.536 278.8 188.586 278.1 189.006C277.26 189.426 270.54 189.706 261.23 189.706C244.22 189.706 243.03 189.986 240.65 193.906C239.67 195.656 239.53 199.086 239.53 222.256C239.53 251.306 239.53 251.446 235.12 254.106C233.02 255.436 231.41 255.506 206.63 255.506C181.5 255.506 180.31 255.436 178.07 254.106C173.87 251.516 173.73 250.606 173.73 221.906C173.73 193.416 173.66 192.926 169.53 190.756C167.92 189.916 164.42 189.706 151.33 189.706C141.53 189.706 134.6 189.426 133.76 189.006C133.06 188.586 132.43 187.536 132.43 186.696C132.43 185.576 142.16 175.426 166.94 150.646C200.33 117.256 203.62 114.316 206.49 115.226C207.05 115.366 207.96 115.506 208.59 115.506Z" fill="#FF0000"/>
<path d="M104.81 365.678C99.84 367.568 94.59 372.468 92.21 377.368C90.53 380.868 90.32 382.198 90.25 388.358C90.25 394.518 90.46 395.848 92.07 399.278C94.38 404.108 98.44 408.308 103.34 410.898C106.77 412.718 107.68 412.858 115.1 412.858C122.1 412.858 123.57 412.648 126.37 411.248C131.62 408.658 135.12 405.158 137.64 400.048C139.81 395.708 139.95 394.868 139.95 388.358C139.95 382.128 139.74 380.938 137.99 377.368C135.54 372.398 130.29 367.568 125.18 365.678C119.93 363.648 109.99 363.718 104.81 365.678ZM118.67 373.378C120.14 373.868 122.45 375.128 123.85 376.248C133.51 384.298 130.01 400.888 117.97 404.108C109.85 406.278 100.89 398.158 100.89 388.708C100.89 381.848 104.95 375.758 111.04 373.518C114.05 372.468 115.45 372.468 118.67 373.378Z" fill="#FF0000"/>
<path d="M188.255 365.542C183.075 367.922 180.205 372.192 180.205 377.582C180.205 383.812 183.635 387.732 193.015 392.282C198.615 395.012 202.605 398.232 202.605 400.052C202.605 401.452 198.475 404.812 196.655 404.812C194.205 404.812 190.845 403.342 188.185 401.102C186.925 400.052 185.525 399.212 185.035 399.282C183.845 399.282 179.505 404.602 179.505 405.932C179.505 407.332 184.685 410.832 188.675 412.162C193.225 413.702 201.835 413.352 205.685 411.462C211.215 408.802 214.225 401.592 212.405 395.502C210.935 390.532 209.325 389.062 200.435 384.512C191.125 379.752 189.655 378.212 191.685 375.132C194.135 371.352 201.275 372.192 201.765 376.322C201.975 378.212 202.115 378.212 206.945 378.212H211.845L211.565 373.872C211.285 370.022 211.005 369.392 208.835 367.572C205.825 364.982 202.815 364.212 196.305 364.212C192.665 364.212 190.215 364.632 188.255 365.542Z" fill="#FF0000"/>
<path d="M6.0415 368.76C6.0415 372.54 6.0415 372.61 8.1415 372.61H10.2415V392.56V412.51H15.4915H20.7415V404.46V396.41H26.2715C32.3615 396.41 35.4415 395.64 38.8015 393.12C45.3815 388.22 46.2915 376.11 40.4815 369.67C36.4915 365.26 34.9515 364.91 19.6215 364.91H6.0415V368.76ZM29.0015 373.38C31.8715 374.36 33.3415 376.81 33.3415 380.66C33.3415 383.32 32.9915 384.3 31.3115 385.98C29.4915 387.8 28.7915 388.01 25.0115 388.01H20.7415V380.31V372.61H23.8215C25.4315 372.61 27.8115 372.96 29.0015 373.38Z" fill="#FF0000"/>
<path d="M47.3101 368.76C47.3101 372.54 47.3101 372.61 49.4101 372.61H51.5101V392.56V412.51H56.7601H62.0101V403.69V394.94L64.9501 395.15L67.9601 395.36L72.1601 403.27C74.5401 407.61 76.8501 411.46 77.4101 411.81C77.9701 412.23 80.5601 412.51 83.2201 412.51H87.9101V408.66C87.9101 405.16 87.7701 404.81 86.1601 404.39C84.8301 404.04 83.6401 402.5 81.3301 398.02L78.2501 392.07L80.9101 389.48C85.8801 384.79 86.2301 375.06 81.7501 369.67C78.2501 365.47 75.8001 364.91 60.8201 364.91H47.3101V368.76ZM72.3001 374.99C74.5401 377.65 74.5401 382.2 72.1601 384.79C70.6901 386.4 69.9201 386.61 66.2101 386.61H62.0101V379.54V372.47L66.3501 372.75C69.9201 373.03 70.9001 373.38 72.3001 374.99Z" fill="#FF0000"/>
<path d="M143.72 368.76C143.72 372.54 143.72 372.61 145.82 372.61H147.92V392.56V412.51H153.17H158.42V403.06V393.61H166.12H173.89L173.68 389.55L173.47 385.56L165.98 385.35L158.42 385.14V378.91V372.61H162.62C166.75 372.61 166.89 372.68 167.31 374.71C167.66 376.81 167.73 376.81 172.14 376.81H176.62V371.7C176.62 368.69 176.27 366.24 175.78 365.75C175.15 365.12 170.53 364.91 159.33 364.91H143.72V368.76Z" fill="#FF0000"/>
<path d="M216.622 368.76C216.622 372.54 216.622 372.61 218.722 372.61H220.822V392.56V412.51H226.072H231.322V404.46V396.41H236.852C242.942 396.41 246.022 395.64 249.382 393.12C255.962 388.22 256.872 376.11 251.062 369.67C247.072 365.26 245.532 364.91 230.202 364.91H216.622V368.76ZM239.582 373.38C242.452 374.36 243.922 376.81 243.922 380.66C243.922 383.32 243.572 384.3 241.892 385.98C240.072 387.8 239.372 388.01 235.592 388.01H231.322V380.31V372.61H234.402C236.012 372.61 238.392 372.96 239.582 373.38Z" fill="#FF0000"/>
<path d="M258.07 368.76V372.61H260.52H262.97V388.71V404.81H260.52H258.07V408.66V412.51H267.87H277.67V408.66V404.81H275.22H272.77V388.71V372.61H275.22H277.67V368.76V364.91H267.87H258.07V368.76Z" fill="#FF0000"/>
<path d="M282.019 368.69C282.019 372.33 282.089 372.54 283.979 372.75L285.869 372.96L286.079 391.44C286.219 407.47 286.429 410.13 287.409 411.25C288.389 412.37 289.929 412.51 302.039 412.51C318.209 412.51 317.719 412.72 317.719 405.09V399.84L313.029 400.05C308.339 400.26 308.269 400.33 307.919 402.36L307.569 404.46H302.319H297.069L296.719 385.35C296.439 369.39 296.229 366.17 295.319 365.61C294.759 365.26 291.539 364.91 288.179 364.91H282.019V368.69Z" fill="#FF0000"/>
<path d="M319.825 368.69C319.825 372.33 319.895 372.54 321.785 372.75L323.675 372.96L323.885 392.7L324.025 412.51H329.275H334.525V402.29V392.14L336.835 392.35C338.935 392.56 339.285 393.05 343.695 401.59C346.215 406.56 348.875 411.04 349.645 411.6C350.415 412.16 352.865 412.51 356.015 412.51H361.125V408.73C361.125 405.16 361.055 404.95 359.025 404.6C357.205 404.18 356.505 403.27 353.495 397.32C351.605 393.54 349.575 389.83 349.015 389.06C348.105 387.87 348.105 387.45 348.875 386.61C349.365 386.05 351.605 382.27 353.775 378.21C356.015 374.15 358.535 369.53 359.515 367.85L361.195 364.91H355.245H349.295L344.955 373.1C339.775 382.97 339.075 383.81 336.485 383.81H334.525V375.48C334.525 364.91 334.525 364.91 326.055 364.91H319.825V368.69Z" fill="#FF0000"/>
<path d="M371.91 384.235C366.24 399.845 364.63 403.695 363.37 404.325C361.97 404.955 361.76 405.585 361.76 408.805V412.515H366.38C368.9 412.515 371.56 412.235 372.26 411.815C372.96 411.465 374.36 408.805 375.41 405.865L377.37 400.615H384.44H391.58L393.26 405.305C395.57 411.885 396.41 412.515 402.36 412.515H407.26V408.805C407.26 405.655 407.05 405.025 405.72 404.465C404.39 403.905 402.78 400.125 397.11 384.515L390.04 365.265L384.51 365.055L378.91 364.845L371.91 384.235ZM389.06 392.355C389.06 392.635 387.03 392.915 384.51 392.915C381.99 392.915 379.96 392.705 379.96 392.425C379.96 392.145 381.01 388.855 382.2 385.075L384.51 378.145L386.75 385.005C388.01 388.715 389.06 392.075 389.06 392.355Z" fill="#FF0000"/>
<path d="M96.7415 451.023C85.0515 456.413 84.9815 473.213 96.6715 479.233C98.9115 480.353 100.452 480.563 104.862 480.353C109.552 480.143 110.672 479.863 113.262 478.043C114.872 476.853 116.972 474.543 117.882 472.793C119.352 470.133 119.562 468.873 119.352 464.323C119.212 459.983 118.792 458.513 117.252 456.203C113.402 450.393 103.532 447.873 96.7415 451.023ZM109.342 457.463C114.242 461.733 114.242 468.453 109.342 472.723C103.322 477.973 94.9915 473.493 94.9915 465.093C94.9915 456.903 103.462 452.353 109.342 457.463Z" fill="black"/>
<path d="M224.052 451.023C212.362 456.413 212.292 473.213 223.982 479.233C226.222 480.353 227.762 480.563 232.172 480.353C236.862 480.143 237.982 479.863 240.572 478.043C242.182 476.853 244.282 474.543 245.192 472.793C246.662 470.133 246.872 468.873 246.662 464.323C246.522 459.983 246.102 458.513 244.562 456.203C240.712 450.393 230.842 447.873 224.052 451.023ZM236.652 457.463C237.982 458.653 239.452 460.823 239.872 462.363C240.992 466.073 239.802 469.923 236.652 472.723C230.632 477.973 222.302 473.493 222.302 465.093C222.302 456.903 230.772 452.353 236.652 457.463Z" fill="black"/>
<path d="M254.298 450.672C251.218 452.072 249.818 454.312 249.818 458.162C249.818 462.362 251.428 464.462 256.678 466.912C261.788 469.362 263.118 470.552 263.118 472.582C263.118 474.892 260.318 475.872 257.238 474.612C255.908 474.052 254.648 473.282 254.438 472.862C253.108 470.762 248.488 474.332 249.398 476.712C250.658 479.932 261.858 481.682 265.918 479.302C268.928 477.552 270.398 474.332 269.908 470.692C269.418 467.052 268.018 465.582 261.998 462.362C259.408 460.962 256.958 459.352 256.538 458.652C255.488 456.972 257.238 455.292 260.038 455.292C261.998 455.292 262.558 455.642 263.118 457.042C263.678 458.512 264.238 458.792 266.618 458.792C269.278 458.792 269.418 458.652 269.418 456.622C269.418 453.752 268.368 452.002 265.918 450.742C263.398 449.412 257.238 449.412 254.298 450.672Z" fill="black"/>
<path d="M58.4499 462.646C58.4499 474.406 58.3799 474.896 57.0499 474.896C55.8599 474.896 55.6499 475.386 55.6499 477.696V480.496H59.4299C61.6699 480.496 63.4899 480.146 63.9099 479.586C64.3999 479.096 64.8199 475.036 64.8899 470.556L65.0999 462.436L71.3299 471.466L77.5599 480.566L80.4299 480.356L83.2999 480.146L83.5099 467.826C83.6499 456.136 83.7899 455.436 85.0499 455.086C86.0999 454.806 86.4499 454.106 86.4499 452.566V450.396H81.8999C76.5099 450.396 76.7199 450.046 76.4399 460.546L76.2999 467.546L70.4899 458.936L64.6799 450.396H61.5999H58.4499V462.646Z" fill="black"/>
<path d="M120.36 452.7C120.36 454.03 120.78 455.29 121.27 455.5C121.76 455.71 124.21 461.38 126.66 468.17L131.21 480.56L134.71 480.35L138.21 480.14L142.76 467.68C145.35 460.54 147.66 455.29 148.15 455.29C148.71 455.29 149.06 454.38 149.06 452.84V450.39H145.63C143.67 450.39 141.92 450.74 141.64 451.16C141.43 451.58 139.68 456.2 137.86 461.38L134.57 470.83L131.14 460.82L127.71 450.74L124 450.53L120.36 450.32V452.7Z" fill="black"/>
<path d="M158.04 451.231C153.56 463.971 149.64 473.981 148.87 474.611C148.31 475.031 147.89 476.571 147.89 477.971C147.89 480.421 147.96 480.491 150.55 480.491C153.98 480.491 154.96 479.791 156.29 476.151L157.34 473.141L161.96 472.931L166.58 472.721L167.49 475.661C168.82 479.581 169.87 480.491 173.16 480.491C175.89 480.491 175.89 480.491 175.89 477.761C175.89 476.221 175.54 474.891 175.12 474.751C174.7 474.611 172.39 469.151 170.01 462.641L165.74 450.741L162.03 450.531C159.51 450.391 158.25 450.601 158.04 451.231ZM164.69 467.331C164.69 467.681 163.43 467.891 161.82 467.891C159.79 467.891 159.02 467.611 159.23 466.981C159.44 466.561 160.14 464.461 160.84 462.361L162.1 458.581L163.36 462.711C164.06 464.951 164.69 467.051 164.69 467.331Z" fill="black"/>
<path d="M189.22 452.84C189.22 454.8 189.5 455.29 190.62 455.29C191.95 455.29 192.02 455.78 192.02 467.89V480.49H195.17H198.32V475.31V470.13L203.29 469.85C207.98 469.57 208.4 469.43 210.64 466.98C212.74 464.74 213.02 463.97 213.02 460.54C213.02 456.13 211.83 453.26 209.24 451.51C207.84 450.6 205.67 450.39 198.32 450.39H189.22V452.84ZM204.83 456.13C205.46 456.62 206.23 458.02 206.44 459.28C207.07 462.36 204.2 465.3 200.91 464.95L198.67 464.74L198.46 459.98L198.25 455.29H200.98C202.45 455.29 204.2 455.71 204.83 456.13Z" fill="black"/>
<path d="M272.43 452.84C272.43 454.8 272.71 455.29 273.83 455.29C275.16 455.29 275.23 455.78 275.23 467.89V480.49H278.38H281.53V474.19V467.89H287.48H293.36L293.57 473.98L293.78 480.14L297.14 480.35L300.43 480.56V468.03C300.43 456.06 300.5 455.43 301.83 455.08C302.88 454.8 303.23 454.1 303.23 452.56V450.39H298.75C293.57 450.39 293.43 450.53 293.43 458.3V463.06L287.69 462.85L281.88 462.64L281.53 456.69L281.18 450.74L276.84 450.53L272.43 450.32V452.84Z" fill="black"/>
<path d="M304.605 450.809C304.325 451.089 304.115 452.839 304.115 454.729V458.089H306.915C309.225 458.089 309.715 457.879 309.715 456.689C309.715 455.569 310.205 455.289 312.165 455.289H314.615V467.889V480.489H317.765H320.915V467.889V455.289H322.945C324.345 455.289 325.045 455.709 325.325 456.689C325.605 457.809 326.305 458.089 328.615 458.089H331.485L331.275 454.379L331.065 450.739L318.045 450.529C310.905 450.459 304.885 450.599 304.605 450.809Z" fill="black"/>
<path d="M339.72 451.231C335.24 463.971 331.32 473.981 330.55 474.611C329.99 475.031 329.57 476.571 329.57 477.971C329.57 480.421 329.64 480.491 332.23 480.491C335.66 480.491 336.64 479.791 337.97 476.151L339.02 473.141L343.64 472.931L348.26 472.721L349.17 475.661C350.5 479.581 351.55 480.491 354.84 480.491C357.57 480.491 357.57 480.491 357.57 477.761C357.57 476.221 357.22 474.891 356.8 474.751C356.38 474.611 354.07 469.151 351.69 462.641L347.42 450.741L343.71 450.531C341.19 450.391 339.93 450.601 339.72 451.231ZM346.37 467.331C346.37 467.681 345.11 467.891 343.5 467.891C341.47 467.891 340.7 467.611 340.91 466.981C341.12 466.561 341.82 464.461 342.52 462.361L343.78 458.581L345.04 462.711C345.74 464.951 346.37 467.051 346.37 467.331Z" fill="black"/>
</g>
<defs>
<clipPath id="clip0_355_99">
<rect width="412" height="487" fill="white"/>
</clipPath>
</defs>
</svg>
