<svg width="130" height="111" viewBox="0 0 130 111" fill="none" xmlns="http://www.w3.org/2000/svg">
<path d="M72.592 45.0579C71.4535 45.0579 70.522 45.9894 70.522 47.1279C70.522 48.2793 70.522 57.4649 70.522 58.6163C70.522 59.7548 69.5905 60.6864 68.452 60.6864C67.3135 60.6864 58.2314 60.6864 57.0929 60.6864C55.9544 60.6864 55.0229 59.7548 55.0229 58.6163C55.0229 57.4649 55.0229 48.2793 55.0229 47.1279C55.0229 45.9894 54.0914 45.0579 52.9529 45.0579C52.2673 45.0579 46.8723 45.0579 46.1867 45.0579C45.0482 45.0579 44.7765 44.3981 45.5786 43.596C47.144 42.0435 59.564 29.6106 61.1294 28.0581C61.9315 27.256 63.2511 27.256 64.0533 28.0581C65.6058 29.6106 78.0386 42.0435 79.5911 43.596C80.3933 44.3981 80.1216 45.0579 78.9831 45.0579C77.7023 45.0579 73.2259 45.0579 72.592 45.0579ZM68.1803 17.4235C68.1803 20.5156 65.6704 23.0125 62.5913 23.0125C59.4993 23.0125 57.0024 20.5156 57.0024 17.4235C57.0024 14.3444 59.4993 11.8346 62.5913 11.8346C65.6704 11.8346 68.1803 14.3444 68.1803 17.4235ZM98.2728 33.6212C78.9701 14.3185 68.245 3.59337 66.1103 1.44576C64.1697 -0.48192 61 -0.48192 59.0724 1.44576C55.8509 4.66718 30.1184 30.3997 26.8969 33.6212C24.9563 35.5618 24.9563 38.7185 26.8969 40.6591C30.1184 43.8806 55.8509 69.6131 59.0724 72.8346C61 74.7622 64.1697 74.7622 66.1103 72.8346C69.3188 69.6131 95.0643 43.8806 98.2728 40.6591C100.213 38.7185 100.213 35.5618 98.2728 33.6212Z" fill="#ED1C24"/>
<path d="M50.6759 83.8963L51.905 84.2715L52.94 84.8795L53.755 85.6687L54.3631 86.6261L54.7253 87.7128L54.8547 88.916L54.7253 90.158L54.3631 91.2835L53.755 92.2668L52.94 93.0819L51.905 93.7028L50.6759 94.0909L49.2528 94.2204V95.7987H46.1219V94.2204L44.7117 94.0909L43.4697 93.7028L42.4347 93.0819L41.6197 92.2668L41.0116 91.2835L40.6494 90.158L40.52 88.916L40.6494 87.7128L41.0116 86.6261L41.6197 85.6687L42.4347 84.8795L43.4697 84.2715L44.7117 83.8963L46.1219 83.7669V82.4731H49.2528V83.7669L50.6759 83.8963ZM35.759 83.7539L37.0657 84.7372L38.0619 86.018L38.6958 87.5575L38.9158 89.2653L38.6958 91.0248L38.0619 92.5902L37.0657 93.9099L35.759 94.919L34.1807 95.5658L32.3824 95.7987L30.597 95.5658L29.0186 94.919L27.7119 93.9099L26.7158 92.5902L26.0818 91.0248L25.8619 89.2653L26.0818 87.5575L26.7158 86.018L27.7119 84.7372L29.0186 83.7539L30.597 83.12L32.3824 82.9001L34.1807 83.12L35.759 83.7539ZM64.3249 83.0165L65.1141 83.1976L65.9033 83.4694L66.6148 83.8575L67.197 84.362L67.5981 85.0089L67.7404 85.811V87.4541H64.9459V86.7684L64.8941 86.5226L64.7518 86.3156L64.5448 86.1345L64.2861 86.005L63.9885 85.9016L63.6651 85.824L63.3416 85.7851L63.0182 85.7722L62.3584 85.824L61.7504 85.9922L61.194 86.2638L60.7024 86.639L60.3014 87.1307L60.0038 87.7128L59.8097 88.4115L59.745 89.2136L59.8097 89.9639L60.0038 90.6496L60.3143 91.2835L60.7283 91.8269L61.2328 92.2797L61.8021 92.6291L62.4231 92.836L63.0958 92.9137L63.8721 92.849L64.5707 92.6679L65.1788 92.4091L65.6963 92.1245L66.1103 91.8269L66.4078 91.5682L66.589 91.4L66.6536 91.3224L68.2449 93.5605L68.1544 93.6511L67.8956 93.9099L67.4687 94.2721L66.8865 94.6731L66.1491 95.0872L65.2564 95.4494L64.2214 95.6953L63.0441 95.7987L61.6339 95.6694L60.3531 95.2942L59.2405 94.699L58.2831 93.9099L57.5327 92.9396L56.9635 91.8269L56.6142 90.572L56.4977 89.2136L56.6271 87.9198L56.9764 86.7167L57.5586 85.6428L58.3349 84.7113L59.2793 83.948L60.379 83.3788L61.608 83.0165L62.9535 82.9001L63.5875 82.926L64.3249 83.0165ZM101.662 83.1459L101.856 83.2106L102.025 83.3012L102.154 83.4047L102.27 83.547L102.348 83.7152L102.413 83.9092L102.452 84.1292L102.464 84.375V92.5773V92.6549L102.477 92.7196L102.49 92.7714L102.529 92.8231L102.555 92.8619L102.607 92.9007L102.659 92.9266L102.71 92.9525L102.775 92.9654H102.84H103.59V95.5917H100.614L100.356 95.5788L100.136 95.54L99.9417 95.4753L99.7735 95.3976L99.6441 95.2812L99.5277 95.1389L99.4371 94.9836L99.3854 94.7896L99.3465 94.5697L99.3336 94.3109V86.1086V86.0309L99.3207 85.9663L99.2948 85.9145L99.2689 85.8627L99.2301 85.824L99.1913 85.7851L99.1396 85.7592L99.0878 85.7334L99.0231 85.7205H98.9455H96.9661V87.2471L96.9014 88.9548L96.7332 90.4685L96.4486 91.7622L96.0604 92.8619L95.5559 93.7675L94.9478 94.492L94.2363 95.0484L93.4342 95.4235L92.5156 95.6564L91.5194 95.7211V92.9525L91.9463 92.8619L92.3474 92.7067L92.7097 92.4738L93.0331 92.1375L93.3177 91.6846L93.5635 91.1024L93.7576 90.3779L93.8999 89.4982L93.9775 88.4502L94.0163 87.2083V85.7205H92.8649V83.1071H101.184L101.442 83.12L101.662 83.1459ZM128.624 92.6938L128.663 92.7843L128.715 92.8619L128.779 92.9137L128.844 92.9396L128.934 92.9654H129.051H129.374V95.5917H127.369L127.033 95.5658L126.748 95.5141L126.502 95.4235L126.308 95.2812L126.153 95.1001L126.024 94.8672L125.907 94.5697L125.364 92.9654H121.728L121.198 94.5697L121.081 94.8672L120.952 95.1001L120.784 95.2812L120.59 95.4235L120.357 95.5141L120.072 95.5658L119.723 95.5917H117.718V92.9654H118.054H118.158L118.248 92.9396L118.326 92.9137L118.378 92.8619L118.429 92.7843L118.481 92.6938L118.52 92.5773L121.922 83.1071H125.17L128.572 92.5773L128.624 92.6938ZM80.3156 83.1459L80.5096 83.2106L80.6649 83.3012L80.8072 83.4047L80.9236 83.547L81.0013 83.7152L81.0659 83.9092L81.0918 84.1292L81.1048 84.375V92.5773L81.1177 92.6549L81.1306 92.7196L81.1436 92.7714L81.1694 92.8231L81.2083 92.8619L81.2471 92.9007L81.2988 92.9266L81.3635 92.9525L81.4282 92.9654H81.4929H82.2433V95.5917H79.2547L79.0089 95.5788L78.789 95.54L78.5949 95.4753L78.4267 95.3976L78.2844 95.2812L78.1809 95.1389L78.0903 94.9836L78.0386 94.7896L77.9998 94.5697L77.9868 94.3109V86.1086V86.0309L77.9739 85.9663L77.948 85.9145L77.9221 85.8627L77.8833 85.824L77.8445 85.7851L77.7928 85.7592L77.741 85.7334L77.6763 85.7205H77.5987H73.9762V95.5917H70.8454V85.7205H69.7069V83.1071H79.8369L80.0827 83.12L80.3156 83.1459ZM22.4076 83.6634L23.2097 84.3102L23.8178 85.1642L24.2059 86.2121L24.3353 87.4023L24.2059 88.5925L23.8178 89.6405L23.2097 90.5073L22.4076 91.1671L21.4114 91.5811L20.2729 91.7234H18.4746V95.5917H15.3437V85.7205H14.2182V83.1071H20.2729L21.4114 83.2494L22.4076 83.6634ZM10.6086 83.1459L10.8027 83.2106L10.9579 83.3012L11.1003 83.4047L11.2167 83.547L11.2943 83.7152L11.359 83.9092L11.3978 84.1292V84.375V92.5773L11.4108 92.6549L11.4237 92.7196L11.4366 92.7714L11.4625 92.8231L11.5013 92.8619L11.5531 92.9007L11.5919 92.9266L11.6566 92.9525L11.7213 92.9654H11.7859H12.5363V95.5917H9.54777L9.30196 95.5788L9.08202 95.54L8.88796 95.4753L8.71977 95.3976L8.57746 95.2812L8.47396 95.1389L8.3834 94.9836L8.33165 94.7896L8.29284 94.5697L8.2799 94.3109V86.1086V86.0309L8.26696 85.9663L8.24109 85.9145L8.21521 85.8627L8.1764 85.824L8.13759 85.7851L8.08584 85.7592L8.03409 85.7334L7.9694 85.7205H7.89178H4.26929V95.5917H1.13843V85.7205H-6.10352e-05V83.1071H10.13L10.3758 83.12L10.6086 83.1459ZM88.4791 85.7205V92.9654H89.7858V95.5917H84.2227V92.9654H85.5294V85.7205H84.2227V83.1071H89.7858V85.7205H88.4791ZM108.752 83.1459L108.946 83.2106L109.101 83.3012L109.244 83.4047L109.36 83.547L109.438 83.7152L109.502 83.9092L109.541 84.1292L109.554 84.375V87.9198H109.968H110.098H110.214L110.33 87.9069L110.434 87.8939L110.537 87.868L110.628 87.8422L110.706 87.7904L110.783 87.7257L110.861 87.6481L110.926 87.5317L113.034 83.1071H116.437L113.953 88.1527L113.824 88.3856L113.694 88.5925L113.565 88.7607L113.435 88.9031L113.332 89.0065L113.228 89.0971L113.138 89.1618L113.073 89.2006L113.034 89.2265H113.021V89.2653H113.034L113.073 89.2912L113.151 89.317L113.228 89.3688L113.332 89.4335L113.461 89.537L113.578 89.6664L113.72 89.8216L113.849 90.0157L113.979 90.2615L115.117 92.5643L115.169 92.6679L115.234 92.7455L115.311 92.8101L115.389 92.8619L115.48 92.9007L115.57 92.9266L115.661 92.9525L115.764 92.9654H115.868H115.971H116.308V95.5917H114.47L114.225 95.5788L113.992 95.5658L113.772 95.54L113.578 95.4882L113.41 95.4235L113.241 95.32L113.099 95.2036L112.957 95.0613L112.827 94.8802L112.711 94.6602L110.835 90.9213L110.77 90.8178L110.693 90.7272L110.615 90.6626L110.512 90.6108L110.408 90.572L110.305 90.5461L110.188 90.5331L110.059 90.5203H109.929H109.787H109.554V95.5917H106.423V86.1086V86.0309L106.41 85.9663L106.385 85.9145L106.359 85.8627L106.32 85.824L106.281 85.7851L106.229 85.7592L106.178 85.7334L106.113 85.7205H106.035H105.285V83.1071H108.273L108.519 83.12L108.752 83.1459ZM30.0666 86.7684L29.3679 87.881L29.1092 89.2653L29.3679 90.7143L30.0666 91.8657L31.1145 92.642L32.3824 92.9137L33.6632 92.642L34.7111 91.8657L35.4097 90.7143L35.6685 89.2653L35.4097 87.881L34.7111 86.7684L33.6632 86.0439L32.3824 85.7722L31.1145 86.0439L30.0666 86.7684ZM44.3366 87.1177L43.8708 87.9198L43.7156 88.916L43.8708 89.9768L44.3366 90.8308L45.0869 91.4L46.1219 91.607V86.3803L45.0869 86.5743L44.3366 87.1177ZM50.2878 91.4L51.0511 90.8308L51.5039 89.9768L51.6591 88.916L51.5039 87.9198L51.0511 87.1177L50.2878 86.5743L49.2528 86.3803V91.607L50.2878 91.4ZM123.488 86.5096L123.371 87.0271L123.203 87.6998L123.022 88.3597L122.401 90.4297H124.704L124.07 88.3597L123.889 87.6998L123.734 87.0271L123.604 86.5096L123.565 86.3027H123.527L123.488 86.5096ZM18.4746 89.1101H19.639L20.3117 88.9807L20.7775 88.6314L21.0492 88.088L21.1397 87.4023L21.0492 86.7167L20.7775 86.1862L20.3247 85.8498L19.6907 85.7205H18.4746V89.1101Z" fill="#ED1C24"/>
<path d="M22.7828 104.803C22.7828 104.648 22.6923 104.557 22.537 104.557C22.5112 104.557 22.343 104.557 22.0583 104.557V102.888C23.2098 102.888 23.8437 102.888 23.9731 102.888C24.5423 102.888 24.7882 103.134 24.7882 103.703C24.7882 103.859 24.7882 104.648 24.7882 106.084H27.4791C27.4791 104.648 27.4791 103.859 27.4791 103.703C27.4791 103.134 27.7249 102.888 28.2942 102.888C28.4236 102.888 29.0575 102.888 30.2089 102.888V104.557C29.9243 104.557 29.7561 104.557 29.7303 104.557C29.575 104.557 29.4844 104.648 29.4844 104.803C29.4844 105.204 29.4844 107.235 29.4844 110.871H27.4791V107.74H24.7882V110.871H22.7828V104.803Z" fill="#333333"/>
<path d="M37.5702 106.821C37.5702 105.553 36.6258 104.596 35.4614 104.596C34.31 104.596 33.3655 105.553 33.3655 106.821C33.3655 108.154 34.31 109.163 35.4614 109.163C36.6258 109.163 37.5702 108.154 37.5702 106.821ZM35.4614 102.746C37.8807 102.746 39.6402 104.544 39.6402 106.821C39.6402 109.176 37.8807 111 35.4614 111C33.055 111 31.2955 109.176 31.2955 106.821C31.2955 104.544 33.055 102.746 35.4614 102.746Z" fill="#333333"/>
<path d="M44.5823 109.189C45.1257 109.189 45.3844 108.801 45.3844 108.361C45.3844 107.908 45.1386 107.546 44.5953 107.546C44.5176 107.546 44.1166 107.546 43.3921 107.546C43.3921 108.387 43.3921 108.853 43.3921 108.943C43.3921 109.098 43.4826 109.189 43.6379 109.189C43.8319 109.189 44.4918 109.189 44.5823 109.189ZM44.4141 105.98C44.8928 105.98 45.0998 105.618 45.0998 105.243C45.0998 104.868 44.8928 104.557 44.3883 104.557C44.3236 104.557 43.9872 104.557 43.3921 104.557V105.98C43.9354 105.98 44.2848 105.98 44.4141 105.98ZM41.4385 104.557H40.714V102.888C42.9004 102.888 44.1166 102.888 44.3624 102.888C45.9537 102.888 47.0792 103.6 47.0792 104.971C47.0792 105.864 46.5617 106.446 46.1478 106.666C46.1478 106.679 46.1478 106.692 46.1478 106.692C47.0663 106.977 47.4027 107.792 47.4027 108.49C47.4027 110.237 45.9537 110.871 44.3624 110.871C44.1554 110.871 42.4606 110.871 42.2536 110.871C41.6843 110.871 41.4385 110.625 41.4385 110.056C41.4385 109.693 41.4385 107.856 41.4385 104.557Z" fill="#333333"/>
<path d="M52.7201 107.572C52.4872 106.783 52.3449 106.33 52.319 106.252C52.1638 105.748 51.9956 104.932 51.9956 104.932H51.9826C51.9826 104.932 51.8144 105.748 51.6592 106.252C51.6204 106.33 51.491 106.783 51.2452 107.572H52.7201ZM48.2567 109.189C48.386 109.189 48.4636 109.189 48.4766 109.189C48.6448 109.189 48.7095 109.137 48.7742 108.943C48.9165 108.542 49.641 106.524 50.9476 102.888H53.0306C54.3373 106.524 55.0618 108.542 55.2041 108.943C55.2688 109.137 55.3205 109.189 55.5016 109.189C55.5146 109.189 55.5922 109.189 55.7216 109.189V110.871C54.9453 110.871 54.5184 110.871 54.4278 110.871C53.8715 110.871 53.6516 110.703 53.4963 110.224C53.4704 110.146 53.354 109.81 53.147 109.189H50.8312C50.6242 109.81 50.5078 110.146 50.4819 110.224C50.3266 110.703 50.1067 110.871 49.5375 110.871C49.4598 110.871 49.0329 110.871 48.2567 110.871V109.189Z" fill="#333333"/>
<path d="M60.8188 104.557H60.0943V102.888C63.9755 102.888 66.1361 102.888 66.563 102.888C67.1323 102.888 67.3781 103.134 67.3781 103.703C67.3781 104.221 67.3781 108.426 67.3781 108.943C67.3781 109.098 67.4686 109.189 67.6239 109.189C67.6627 109.189 67.8179 109.189 68.1026 109.189V110.871C66.9641 110.871 66.3301 110.871 66.2008 110.871C65.6315 110.871 65.3857 110.625 65.3857 110.056C65.3857 109.525 65.3857 105.334 65.3857 104.803C65.3857 104.648 65.2952 104.557 65.1399 104.557C64.9847 104.557 64.2084 104.557 62.8112 104.557V110.871H60.8188V104.557Z" fill="#333333"/>
<path d="M75.464 106.821C75.464 105.553 74.5196 104.596 73.3681 104.596C72.2038 104.596 71.2723 105.553 71.2723 106.821C71.2723 108.154 72.2038 109.163 73.3681 109.163C74.5196 109.163 75.464 108.154 75.464 106.821ZM73.3681 102.746C75.7745 102.746 77.534 104.544 77.534 106.821C77.534 109.176 75.7745 111 73.3681 111C70.9488 111 69.1894 109.176 69.1894 106.821C69.1894 104.544 70.9488 102.746 73.3681 102.746Z" fill="#333333"/>
<path d="M79.3323 104.803C79.3323 104.648 79.2547 104.557 79.0865 104.557C79.0607 104.557 78.9054 104.557 78.6078 104.557V102.888C79.7593 102.888 80.3932 102.888 80.5226 102.888C81.0918 102.888 81.3377 103.134 81.3377 103.703C81.3377 104.221 81.3377 108.426 81.3377 108.943C81.3377 109.098 81.4282 109.189 81.5835 109.189C81.6999 109.189 82.2562 109.189 83.2783 109.189V102.888H85.2706V109.189C86.2927 109.189 86.8619 109.189 86.9784 109.189C87.1336 109.189 87.2242 109.098 87.2242 108.943C87.2242 108.426 87.2242 104.221 87.2242 103.703C87.2242 103.134 87.47 102.888 88.0392 102.888C88.1557 102.888 88.8026 102.888 89.9411 102.888V104.557C89.6564 104.557 89.4882 104.557 89.4624 104.557C89.3071 104.557 89.2165 104.648 89.2165 104.803C89.2165 105.334 89.2165 109.525 89.2165 110.056C89.2165 110.625 88.9707 110.871 88.4015 110.871C87.5735 110.871 80.9754 110.871 80.1474 110.871C79.5782 110.871 79.3323 110.625 79.3323 110.056C79.3323 109.706 79.3323 107.96 79.3323 104.803Z" fill="#333333"/>
<path d="M93.4211 104.557C93.033 104.557 92.826 104.557 92.7743 104.557C92.619 104.557 92.5285 104.648 92.5285 104.803C92.5285 104.842 92.5285 104.984 92.5285 105.243H90.8078C90.8078 104.286 90.8078 103.768 90.8078 103.652C90.8078 103.082 91.0018 102.888 91.5711 102.888C92.1403 102.888 96.7072 102.888 97.2765 102.888C97.8457 102.888 98.0527 103.082 98.0527 103.652C98.0527 103.768 98.0527 104.286 98.0527 105.243H96.3191C96.3191 104.984 96.3191 104.842 96.3191 104.803C96.3191 104.648 96.2286 104.557 96.0733 104.557C96.0345 104.557 95.8146 104.557 95.4264 104.557V110.871H93.4211V104.557Z" fill="#333333"/>
<path d="M102.529 107.572C102.296 106.783 102.154 106.33 102.128 106.252C101.973 105.748 101.805 104.932 101.805 104.932H101.792C101.792 104.932 101.624 105.748 101.468 106.252C101.442 106.33 101.3 106.783 101.067 107.572H102.529ZM98.0658 109.189C98.1952 109.189 98.2728 109.189 98.2857 109.189C98.4669 109.189 98.5186 109.137 98.5833 108.943C98.7256 108.542 99.4501 106.524 100.757 102.888H102.84C104.146 106.524 104.871 108.542 105.013 108.943C105.078 109.137 105.13 109.189 105.311 109.189C105.324 109.189 105.401 109.189 105.531 109.189V110.871C104.754 110.871 104.328 110.871 104.237 110.871C103.681 110.871 103.461 110.703 103.305 110.224C103.28 110.146 103.163 109.81 102.956 109.189H100.64C100.433 109.81 100.317 110.146 100.291 110.224C100.136 110.703 99.9159 110.871 99.3596 110.871C99.269 110.871 98.8421 110.871 98.0658 110.871V109.189Z" fill="#333333"/>
</svg>
