<svg width="193" height="66" viewBox="0 0 193 66" fill="none" xmlns="http://www.w3.org/2000/svg">
<path d="M42.8929 40.0351C41.8813 40.0351 41.0537 40.8628 41.0537 41.8743C41.0537 42.8974 41.0537 51.0591 41.0537 52.0821C41.0537 53.0937 40.226 53.9214 39.2145 53.9214C38.2029 53.9214 30.1332 53.9214 29.1216 53.9214C28.11 53.9214 27.2824 53.0937 27.2824 52.0821C27.2824 51.0591 27.2824 42.8974 27.2824 41.8743C27.2824 40.8628 26.4547 40.0351 25.4431 40.0351C24.8339 40.0351 20.0404 40.0351 19.4311 40.0351C18.4195 40.0351 18.1781 39.4489 18.8908 38.7362C20.2818 37.3567 31.3172 26.3098 32.7081 24.9303C33.4208 24.2176 34.5934 24.2176 35.3061 24.9303C36.6855 26.3098 47.7324 37.3567 49.1119 38.7362C49.8246 39.4489 49.5832 40.0351 48.5716 40.0351C47.4336 40.0351 43.4562 40.0351 42.8929 40.0351ZM38.9731 15.4813C38.9731 18.2286 36.743 20.4472 34.0071 20.4472C31.2597 20.4472 29.0412 18.2286 29.0412 15.4813C29.0412 12.7454 31.2597 10.5153 34.0071 10.5153C36.743 10.5153 38.9731 12.7454 38.9731 15.4813ZM65.711 29.8733C48.5601 12.7224 39.0305 3.19281 37.1338 1.28459C35.4095 -0.428198 32.5932 -0.428198 30.8804 1.28459C28.0181 4.14691 5.15401 27.011 2.29169 29.8733C0.567402 31.5976 0.567402 34.4024 2.29169 36.1267C5.15401 38.989 28.0181 61.8531 30.8804 64.7154C32.5932 66.4282 35.4095 66.4282 37.1338 64.7154C39.9846 61.8531 62.8602 38.989 65.711 36.1267C67.4353 34.4024 67.4353 31.5976 65.711 29.8733Z" fill="#ED1C24"/>
<path d="M122.279 20.2645L123.371 20.5979L124.291 21.1381L125.015 21.8394L125.555 22.69L125.877 23.6556L125.992 24.7246L125.877 25.8282L125.555 26.8283L125.015 27.7019L124.291 28.4261L123.371 28.9779L122.279 29.3227L121.015 29.4377V30.8401H118.233V29.4377L116.98 29.3227L115.876 28.9779L114.957 28.4261L114.233 27.7019L113.692 26.8283L113.37 25.8282L113.255 24.7246L113.37 23.6556L113.692 22.69L114.233 21.8394L114.957 21.1381L115.876 20.5979L116.98 20.2645L118.233 20.1495V19H121.015V20.1495L122.279 20.2645ZM109.025 20.138L110.186 21.0117L111.071 22.1497L111.635 23.5176L111.83 25.035L111.635 26.5983L111.071 27.9893L110.186 29.1618L109.025 30.0584L107.623 30.6332L106.025 30.8401L104.439 30.6332L103.036 30.0584L101.875 29.1618L100.99 27.9893L100.427 26.5983L100.231 25.035L100.427 23.5176L100.99 22.1497L101.875 21.0117L103.036 20.138L104.439 19.5748L106.025 19.3794L107.623 19.5748L109.025 20.138ZM134.407 19.4828L135.108 19.6437L135.809 19.8852L136.441 20.23L136.959 20.6783L137.315 21.2531L137.441 21.9658V23.4257H134.958V22.8164L134.912 22.598L134.786 22.4141L134.602 22.2532L134.372 22.1382L134.108 22.0463L133.82 21.9773L133.533 21.9428L133.246 21.9313L132.659 21.9773L132.119 22.1267L131.625 22.3681L131.188 22.7015L130.832 23.1383L130.567 23.6556L130.395 24.2764L130.337 24.9891L130.395 25.6557L130.567 26.265L130.843 26.8283L131.211 27.311L131.659 27.7134L132.165 28.0238L132.717 28.2077L133.315 28.2767L134.004 28.2192L134.625 28.0583L135.165 27.8283L135.625 27.5755L135.993 27.311L136.257 27.0812L136.418 26.9318L136.476 26.8628L137.89 28.8514L137.809 28.9319L137.579 29.1618L137.2 29.4837L136.683 29.84L136.028 30.2079L135.234 30.5298L134.315 30.7482L133.269 30.8401L132.016 30.7252L130.878 30.3918L129.889 29.863L129.038 29.1618L128.372 28.2997L127.866 27.311L127.556 26.196L127.452 24.9891L127.567 23.8395L127.877 22.7705L128.395 21.8164L129.084 20.9887L129.924 20.3105L130.901 19.8047L131.993 19.4828L133.188 19.3794L133.751 19.4024L134.407 19.4828ZM167.582 19.5978L167.754 19.6552L167.904 19.7357L168.019 19.8277L168.122 19.9541L168.191 20.1036L168.249 20.276L168.283 20.4714L168.295 20.6898V27.9778V28.0468L168.306 28.1042L168.318 28.1502L168.352 28.1962L168.375 28.2307L168.421 28.2652L168.467 28.2882L168.513 28.3112L168.571 28.3226H168.628H169.295V30.6562H166.651L166.421 30.6447L166.226 30.6102L166.053 30.5527L165.904 30.4837L165.789 30.3803L165.685 30.2538L165.605 30.1159L165.559 29.9435L165.524 29.7481L165.513 29.5182V22.2302V22.1612L165.501 22.1037L165.478 22.0578L165.455 22.0118L165.421 21.9773L165.386 21.9428L165.34 21.9198L165.294 21.8968L165.237 21.8853H165.168H163.409V23.2418L163.352 24.7591L163.202 26.1041L162.949 27.2536L162.605 28.2307L162.156 29.0353L161.616 29.6791L160.984 30.1734L160.271 30.5068L159.455 30.7137L158.57 30.7711V28.3112L158.949 28.2307L159.305 28.0928L159.627 27.8858L159.915 27.587L160.168 27.1846L160.386 26.6673L160.558 26.0236L160.685 25.2419L160.754 24.3108L160.788 23.2073V21.8853H159.765V19.5633H167.157L167.387 19.5748L167.582 19.5978ZM191.538 28.0813L191.573 28.1618L191.619 28.2307L191.676 28.2767L191.734 28.2997L191.814 28.3226H191.917H192.205V30.6562H190.423L190.124 30.6332L189.871 30.5872L189.653 30.5068L189.48 30.3803L189.342 30.2194L189.228 30.0125L189.124 29.7481L188.641 28.3226H185.411L184.94 29.7481L184.836 30.0125L184.721 30.2194L184.572 30.3803L184.4 30.5068L184.193 30.5872L183.94 30.6332L183.629 30.6562H181.848V28.3226H182.146H182.238L182.319 28.2997L182.388 28.2767L182.434 28.2307L182.48 28.1618L182.526 28.0813L182.56 27.9778L185.584 19.5633H188.469L191.492 27.9778L191.538 28.0813ZM148.615 19.5978L148.787 19.6552L148.925 19.7357L149.052 19.8277L149.155 19.9541L149.224 20.1036L149.282 20.276L149.305 20.4714L149.316 20.6898V27.9778L149.328 28.0468L149.339 28.1042L149.351 28.1502L149.374 28.1962L149.408 28.2307L149.442 28.2652L149.488 28.2882L149.546 28.3112L149.603 28.3226H149.661H150.328V30.6562H147.672L147.454 30.6447L147.258 30.6102L147.086 30.5527L146.937 30.4837L146.81 30.3803L146.718 30.2538L146.638 30.1159L146.592 29.9435L146.557 29.7481L146.546 29.5182V22.2302V22.1612L146.534 22.1037L146.511 22.0578L146.488 22.0118L146.454 21.9773L146.419 21.9428L146.373 21.9198L146.327 21.8968L146.27 21.8853H146.201H142.982V30.6562H140.2V21.8853H139.189V19.5633H148.189L148.408 19.5748L148.615 19.5978ZM97.1621 20.0575L97.8748 20.6323L98.415 21.391L98.7599 22.3221L98.8748 23.3797L98.7599 24.4372L98.415 25.3683L97.8748 26.1386L97.1621 26.7248L96.2769 27.0926L95.2653 27.2191H93.6675V30.6562H90.8856V21.8853H89.8856V19.5633H95.2653L96.2769 19.6898L97.1621 20.0575ZM86.6784 19.5978L86.8508 19.6552L86.9888 19.7357L87.1152 19.8277L87.2187 19.9541L87.2876 20.1036L87.3451 20.276L87.3796 20.4714V20.6898V27.9778L87.3911 28.0468L87.4026 28.1042L87.4141 28.1502L87.4371 28.1962L87.4716 28.2307L87.5175 28.2652L87.552 28.2882L87.6095 28.3112L87.667 28.3226H87.7245H88.3912V30.6562H85.7358L85.5174 30.6447L85.3219 30.6102L85.1495 30.5527L85.0001 30.4837L84.8736 30.3803L84.7817 30.2538L84.7012 30.1159L84.6552 29.9435L84.6207 29.7481L84.6092 29.5182V22.2302V22.1612L84.5977 22.1037L84.5747 22.0578L84.5518 22.0118L84.5173 21.9773L84.4828 21.9428L84.4368 21.9198L84.3908 21.8968L84.3334 21.8853H84.2644H81.0457V30.6562H78.2639V21.8853H77.2523V19.5633H86.2531L86.4715 19.5748L86.6784 19.5978ZM155.868 21.8853V28.3226H157.029V30.6562H152.086V28.3226H153.247V21.8853H152.086V19.5633H157.029V21.8853H155.868ZM173.881 19.5978L174.054 19.6552L174.192 19.7357L174.318 19.8277L174.422 19.9541L174.491 20.1036L174.548 20.276L174.583 20.4714L174.594 20.6898V23.8395H174.962H175.077H175.18L175.284 23.828L175.376 23.8165L175.468 23.7935L175.548 23.7706L175.617 23.7245L175.686 23.6671L175.755 23.5981L175.813 23.4947L177.686 19.5633H180.71L178.502 24.0464L178.388 24.2533L178.273 24.4372L178.158 24.5867L178.043 24.7132L177.951 24.8051L177.859 24.8856L177.778 24.943L177.721 24.9775L177.686 25.0006H177.675V25.035H177.686L177.721 25.058L177.79 25.081L177.859 25.127L177.951 25.1845L178.066 25.2764L178.169 25.3914L178.296 25.5293L178.411 25.7018L178.525 25.9202L179.537 27.9663L179.583 28.0583L179.641 28.1272L179.709 28.1847L179.778 28.2307L179.859 28.2652L179.939 28.2882L180.02 28.3112L180.112 28.3226H180.204H180.296H180.595V30.6562H178.962L178.744 30.6447L178.537 30.6332L178.342 30.6102L178.169 30.5642L178.02 30.5068L177.87 30.4148L177.744 30.3114L177.617 30.1849L177.502 30.024L177.399 29.8285L175.732 26.5064L175.675 26.4145L175.606 26.334L175.537 26.2765L175.445 26.2305L175.353 26.196L175.261 26.173L175.157 26.1615L175.042 26.1501H174.927H174.801H174.594V30.6562H171.812V22.2302V22.1612L171.801 22.1037L171.778 22.0578L171.755 22.0118L171.72 21.9773L171.686 21.9428L171.64 21.9198L171.594 21.8968L171.536 21.8853H171.467H170.801V19.5633H173.456L173.674 19.5748L173.881 19.5978ZM103.967 22.8164L103.347 23.805L103.117 25.035L103.347 26.3225L103.967 27.3456L104.898 28.0353L106.025 28.2767L107.163 28.0353L108.094 27.3456L108.715 26.3225L108.945 25.035L108.715 23.805L108.094 22.8164L107.163 22.1727L106.025 21.9313L104.898 22.1727L103.967 22.8164ZM116.647 23.1268L116.233 23.8395L116.095 24.7246L116.233 25.6672L116.647 26.426L117.313 26.9318L118.233 27.1156V22.4716L117.313 22.644L116.647 23.1268ZM121.934 26.9318L122.613 26.426L123.015 25.6672L123.153 24.7246L123.015 23.8395L122.613 23.1268L121.934 22.644L121.015 22.4716V27.1156L121.934 26.9318ZM186.974 22.5865L186.871 23.0464L186.722 23.6441L186.561 24.2303L186.009 26.0696H188.055L187.492 24.2303L187.331 23.6441L187.193 23.0464L187.078 22.5865L187.043 22.4026H187.009L186.974 22.5865ZM93.6675 24.8971H94.7021L95.2998 24.7821L95.7136 24.4718L95.9551 23.989L96.0355 23.3797L95.9551 22.7705L95.7136 22.2991L95.3113 22.0002L94.748 21.8853H93.6675V24.8971Z" fill="#ED1C24"/>
<path d="M77.8961 40.8402C77.8961 40.7022 77.8156 40.6218 77.6777 40.6218C77.6547 40.6218 77.5052 40.6218 77.2523 40.6218V39.1389C78.2754 39.1389 78.8387 39.1389 78.9536 39.1389C79.4594 39.1389 79.6778 39.3573 79.6778 39.8631C79.6778 40.0011 79.6778 40.7022 79.6778 41.9782H82.0688C82.0688 40.7022 82.0688 40.0011 82.0688 39.8631C82.0688 39.3573 82.2873 39.1389 82.793 39.1389C82.908 39.1389 83.4713 39.1389 84.4943 39.1389V40.6218C84.2415 40.6218 84.092 40.6218 84.069 40.6218C83.9311 40.6218 83.8506 40.7022 83.8506 40.8402C83.8506 41.1965 83.8506 43.0013 83.8506 46.2315H82.0688V43.4496H79.6778V46.2315H77.8961V40.8402Z" fill="#222222"/>
<path d="M91.0352 42.6337C91.0352 41.5072 90.196 40.6566 89.1614 40.6566C88.1384 40.6566 87.2992 41.5072 87.2992 42.6337C87.2992 43.8177 88.1384 44.7144 89.1614 44.7144C90.196 44.7144 91.0352 43.8177 91.0352 42.6337ZM89.1614 39.0127C91.311 39.0127 92.8744 40.6106 92.8744 42.6337C92.8744 44.7259 91.311 46.3467 89.1614 46.3467C87.0233 46.3467 85.46 44.7259 85.46 42.6337C85.46 40.6106 87.0233 39.0127 89.1614 39.0127Z" fill="#222222"/>
<path d="M97.2656 44.7371C97.7484 44.7371 97.9783 44.3922 97.9783 44.0014C97.9783 43.5991 97.7599 43.2772 97.2771 43.2772C97.2081 43.2772 96.8517 43.2772 96.208 43.2772C96.208 44.0244 96.208 44.4382 96.208 44.5187C96.208 44.6566 96.2885 44.7371 96.4264 44.7371C96.5988 44.7371 97.1851 44.7371 97.2656 44.7371ZM97.1161 41.8862C97.5414 41.8862 97.7254 41.5644 97.7254 41.2311C97.7254 40.8977 97.5414 40.6218 97.0931 40.6218C97.0357 40.6218 96.7368 40.6218 96.208 40.6218V41.8862C96.6908 41.8862 97.0012 41.8862 97.1161 41.8862ZM94.4722 40.6218H93.8285V39.1389C95.7712 39.1389 96.8517 39.1389 97.0701 39.1389C98.4841 39.1389 99.4841 39.7711 99.4841 40.9896C99.4841 41.7828 99.0243 42.3001 98.6565 42.4955C98.6565 42.507 98.6565 42.5185 98.6565 42.5185C99.4727 42.7714 99.7715 43.4956 99.7715 44.1163C99.7715 45.6682 98.4841 46.2315 97.0701 46.2315C96.8862 46.2315 95.3803 46.2315 95.1964 46.2315C94.6906 46.2315 94.4722 46.0131 94.4722 45.5073C94.4722 45.1854 94.4722 43.5531 94.4722 40.6218Z" fill="#222222"/>
<path d="M104.496 43.3002C104.289 42.599 104.163 42.1966 104.14 42.1277C104.002 41.6793 103.852 40.9551 103.852 40.9551H103.841C103.841 40.9551 103.691 41.6793 103.553 42.1277C103.519 42.1966 103.404 42.599 103.186 43.3002H104.496ZM100.53 44.7371C100.645 44.7371 100.714 44.7371 100.726 44.7371C100.875 44.7371 100.933 44.6911 100.99 44.5187C101.116 44.1623 101.76 42.3691 102.921 39.1389H104.772C105.933 42.3691 106.577 44.1623 106.703 44.5187C106.761 44.6911 106.807 44.7371 106.968 44.7371C106.979 44.7371 107.048 44.7371 107.163 44.7371V46.2315C106.473 46.2315 106.094 46.2315 106.013 46.2315C105.519 46.2315 105.324 46.082 105.186 45.6567C105.163 45.5877 105.059 45.2889 104.875 44.7371H102.818C102.634 45.2889 102.53 45.5877 102.507 45.6567C102.369 46.082 102.174 46.2315 101.668 46.2315C101.599 46.2315 101.22 46.2315 100.53 46.2315V44.7371Z" fill="#222222"/>
<path d="M111.692 40.6218H111.048V39.1389C114.497 39.1389 116.417 39.1389 116.796 39.1389C117.302 39.1389 117.52 39.3573 117.52 39.8631C117.52 40.3229 117.52 44.0589 117.52 44.5187C117.52 44.6566 117.601 44.7371 117.739 44.7371C117.773 44.7371 117.911 44.7371 118.164 44.7371V46.2315C117.152 46.2315 116.589 46.2315 116.474 46.2315C115.968 46.2315 115.75 46.0131 115.75 45.5073C115.75 45.036 115.75 41.3115 115.75 40.8402C115.75 40.7022 115.67 40.6218 115.532 40.6218C115.394 40.6218 114.704 40.6218 113.462 40.6218V46.2315H111.692V40.6218Z" fill="#222222"/>
<path d="M124.705 42.6337C124.705 41.5072 123.866 40.6566 122.843 40.6566C121.808 40.6566 120.98 41.5072 120.98 42.6337C120.98 43.8177 121.808 44.7144 122.843 44.7144C123.866 44.7144 124.705 43.8177 124.705 42.6337ZM122.843 39.0127C124.981 39.0127 126.544 40.6106 126.544 42.6337C126.544 44.7259 124.981 46.3467 122.843 46.3467C120.693 46.3467 119.13 44.7259 119.13 42.6337C119.13 40.6106 120.693 39.0127 122.843 39.0127Z" fill="#222222"/>
<path d="M128.142 40.8402C128.142 40.7022 128.073 40.6218 127.923 40.6218C127.9 40.6218 127.763 40.6218 127.498 40.6218V39.1389C128.521 39.1389 129.084 39.1389 129.199 39.1389C129.705 39.1389 129.924 39.3573 129.924 39.8631C129.924 40.3229 129.924 44.0589 129.924 44.5187C129.924 44.6566 130.004 44.7371 130.142 44.7371C130.245 44.7371 130.74 44.7371 131.648 44.7371V39.1389H133.418V44.7371C134.326 44.7371 134.832 44.7371 134.936 44.7371C135.073 44.7371 135.154 44.6566 135.154 44.5187C135.154 44.0589 135.154 40.3229 135.154 39.8631C135.154 39.3573 135.372 39.1389 135.878 39.1389C135.982 39.1389 136.556 39.1389 137.568 39.1389V40.6218C137.315 40.6218 137.166 40.6218 137.143 40.6218C137.005 40.6218 136.924 40.7022 136.924 40.8402C136.924 41.3115 136.924 45.036 136.924 45.5073C136.924 46.0131 136.706 46.2315 136.2 46.2315C135.464 46.2315 129.602 46.2315 128.866 46.2315C128.36 46.2315 128.142 46.0131 128.142 45.5073C128.142 45.1969 128.142 43.645 128.142 40.8402Z" fill="#222222"/>
<path d="M140.66 40.6218C140.315 40.6218 140.131 40.6218 140.085 40.6218C139.947 40.6218 139.867 40.7022 139.867 40.8402C139.867 40.8747 139.867 41.0012 139.867 41.2311H138.338C138.338 40.3804 138.338 39.9206 138.338 39.8171C138.338 39.3113 138.511 39.1389 139.016 39.1389C139.522 39.1389 143.58 39.1389 144.086 39.1389C144.592 39.1389 144.775 39.3113 144.775 39.8171C144.775 39.9206 144.775 40.3804 144.775 41.2311H143.235C143.235 41.0012 143.235 40.8747 143.235 40.8402C143.235 40.7022 143.155 40.6218 143.017 40.6218C142.982 40.6218 142.787 40.6218 142.442 40.6218V46.2315H140.66V40.6218Z" fill="#222222"/>
<path d="M148.753 43.3002C148.546 42.599 148.419 42.1966 148.396 42.1277C148.258 41.6793 148.109 40.9551 148.109 40.9551H148.098C148.098 40.9551 147.948 41.6793 147.81 42.1277C147.787 42.1966 147.661 42.599 147.454 43.3002H148.753ZM144.787 44.7371C144.902 44.7371 144.971 44.7371 144.982 44.7371C145.143 44.7371 145.189 44.6911 145.247 44.5187C145.373 44.1623 146.017 42.3691 147.178 39.1389H149.029C150.19 42.3691 150.833 44.1623 150.96 44.5187C151.017 44.6911 151.063 44.7371 151.224 44.7371C151.236 44.7371 151.305 44.7371 151.42 44.7371V46.2315C150.73 46.2315 150.351 46.2315 150.27 46.2315C149.776 46.2315 149.58 46.082 149.442 45.6567C149.419 45.5877 149.316 45.2889 149.132 44.7371H147.074C146.891 45.2889 146.787 45.5877 146.764 45.6567C146.626 46.082 146.431 46.2315 145.936 46.2315C145.856 46.2315 145.477 46.2315 144.787 46.2315V44.7371Z" fill="#222222"/>
</svg>
