<svg width="226" height="75" viewBox="0 0 226 75" fill="none" xmlns="http://www.w3.org/2000/svg">
<path d="M122.549 24.2195C119.892 24.8627 117.634 26.9312 116.749 29.5038C115.655 32.7022 116.505 36.283 118.919 38.5428C120.621 40.1246 122.375 40.8373 124.667 40.8373C128.574 40.8373 131.857 38.369 132.846 34.6665C133.194 33.3802 133.159 30.9987 132.76 29.7298C131.926 27.0529 129.703 24.967 126.89 24.2369C125.709 23.924 123.799 23.924 122.549 24.2195ZM126.317 27.5396C128.001 28.1306 129.304 29.8167 129.547 31.7288C129.842 34.0928 128.227 36.7698 126.126 37.3608C123.104 38.2299 120.17 36.0745 119.926 32.8239C119.753 30.2861 121.125 28.1132 123.365 27.4353C124.094 27.2093 125.536 27.2615 126.317 27.5396Z" fill="#FF0000"/>
<path d="M151.632 24.1503C150.104 24.5327 148.663 25.7147 148.124 26.9662C147.708 28.0092 147.777 29.6605 148.315 30.7209C148.923 31.9377 149.652 32.4939 152.118 33.6933C154.393 34.8058 155.157 35.4142 155.157 36.1269C155.157 38.0042 152.257 38.178 150.156 36.405C149.878 36.1616 149.514 35.9704 149.375 35.9704C149.236 35.9704 148.715 36.4571 148.246 37.0481L147.36 38.1432L147.985 38.769C150.434 41.3069 155.244 41.5155 157.397 39.1862C158.335 38.1606 158.63 37.3958 158.63 35.9356C158.63 33.5369 157.866 32.6503 154.289 30.8426C152.882 30.1472 151.649 29.4519 151.528 29.3129C151.181 28.8783 151.372 27.9744 151.858 27.592C152.379 27.2096 153.699 27.1401 154.463 27.4529C154.949 27.6615 155.053 27.8527 155.192 28.7566C155.244 29.0521 155.4 29.1043 156.373 29.1564C156.981 29.1912 157.675 29.1564 157.901 29.1043C158.3 29 158.318 28.9479 158.248 27.6268C158.196 26.3057 158.179 26.2362 157.519 25.5582C156.564 24.5848 155.383 24.1155 153.681 24.046C152.917 24.0112 151.997 24.0633 151.632 24.1503Z" fill="#FF0000"/>
<path d="M87.0528 24.5511C87.0007 24.6901 86.9833 25.3333 87.0181 25.9938L87.0702 27.1932L87.7301 27.2454L88.3726 27.2975V33.7812C88.3726 39.135 88.4073 40.3171 88.6157 40.4735C88.772 40.6126 89.3971 40.6647 90.3175 40.63L91.7589 40.5778L91.8457 37.8835L91.9325 35.1892L94.0164 35.1023C96.3955 34.9806 97.0033 34.7894 98.1494 33.7291C99.3129 32.6513 99.7297 31.5389 99.7297 29.6268C99.7123 27.9407 99.5386 27.367 98.653 26.1329C98.3057 25.6462 97.7673 25.229 97.038 24.8639L95.9613 24.3251H91.5505C88.0079 24.3251 87.1223 24.3772 87.0528 24.5511ZM95.1451 27.5409C95.8571 27.9059 96.1871 28.636 96.1871 29.818C96.1871 30.6871 96.135 30.8436 95.614 31.365C94.9889 31.9908 94.1206 32.2168 92.714 32.1125L91.9325 32.0603L91.8804 29.6615L91.8283 27.2801H93.2349C94.1553 27.2801 94.8152 27.367 95.1451 27.5409Z" fill="#FF0000"/>
<path d="M101.314 24.5517C101.262 24.6907 101.244 25.3339 101.279 25.9944L101.331 27.1938L101.991 27.246L102.634 27.2981V33.7818C102.634 39.1357 102.668 40.3177 102.877 40.4741C103.033 40.6132 103.658 40.6653 104.579 40.6306L106.02 40.5784L106.072 37.6581L106.107 34.7552H107.131C107.878 34.7552 108.208 34.8422 108.399 35.0508C108.555 35.2246 109.18 36.3892 109.823 37.6581C110.535 39.0835 111.143 40.0396 111.421 40.2308C112.011 40.6132 114.321 40.8044 114.703 40.4915C114.894 40.3351 114.963 39.9353 114.963 39.1009C114.963 37.8493 114.842 37.606 114.095 37.5017C113.748 37.4669 113.504 37.1367 112.792 35.7808C112.324 34.8595 111.82 33.9904 111.698 33.8514C111.525 33.6254 111.577 33.5037 112.098 33.1213C113.14 32.3217 113.626 31.2614 113.713 29.5926C113.834 27.3329 113.14 25.9423 111.334 24.8819L110.535 24.4126L105.968 24.3605C102.182 24.3083 101.401 24.3431 101.314 24.5517ZM109.667 27.8544C110.205 28.4628 110.379 29.384 110.118 30.2184C109.806 31.3135 109.406 31.5395 107.652 31.5916L106.107 31.6612V29.4536V27.246L107.687 27.3155C109.163 27.3677 109.285 27.4024 109.667 27.8544Z" fill="#FF0000"/>
<path d="M134.942 24.5511C134.89 24.6901 134.873 25.3333 134.908 25.9938L134.96 27.1932L135.619 27.2454L136.262 27.2975V33.7812C136.262 39.135 136.297 40.3171 136.505 40.4735C136.661 40.6126 137.287 40.6647 138.207 40.63L139.648 40.5778L139.7 37.4142L139.735 34.2505L142.218 34.1984L144.684 34.1462V32.6687V31.1912L142.218 31.1391L139.735 31.0869V29.1748V27.2627L141.263 27.3149L142.774 27.367L142.826 28.0276L142.878 28.6881L144.389 28.636L145.9 28.5838L145.952 27.1932C146.004 25.5766 145.935 25.1421 145.466 24.6727C145.136 24.3425 144.858 24.3251 140.082 24.3251C136.002 24.3251 135.012 24.3772 134.942 24.5511Z" fill="#FF0000"/>
<path d="M160.61 24.5511C160.558 24.6901 160.541 25.3333 160.576 25.9938L160.628 27.1932L161.288 27.2454L161.93 27.2975V33.7812C161.93 39.135 161.965 40.3171 162.173 40.4735C162.33 40.6126 162.955 40.6647 163.875 40.63L165.317 40.5778L165.403 37.8835L165.49 35.1892L167.574 35.1023C169.953 34.9806 170.561 34.7894 171.707 33.7291C172.871 32.6513 173.287 31.5389 173.287 29.6268C173.27 27.9407 173.096 27.367 172.211 26.1329C171.863 25.6462 171.325 25.229 170.596 24.8639L169.519 24.3251H165.108C161.566 24.3251 160.68 24.3772 160.61 24.5511ZM168.703 27.5409C169.415 27.9059 169.745 28.636 169.745 29.818C169.745 30.6871 169.693 30.8436 169.172 31.365C168.547 31.9908 167.678 32.2168 166.272 32.1125L165.49 32.0603L165.438 29.6615L165.386 27.2801H166.793C167.713 27.2801 168.373 27.367 168.703 27.5409Z" fill="#FF0000"/>
<path d="M175.1 25.751L175.152 27.1938L175.899 27.2459L176.628 27.2981V32.4086V37.519L175.899 37.5712L175.152 37.6233V39.1009V40.5784L177.93 40.6305C181.733 40.7 181.508 40.8043 181.455 39.0487L181.403 37.6233L180.674 37.5712L179.927 37.519V32.4086V27.2981L180.674 27.2459L181.403 27.1938V25.8032V24.4126L178.226 24.3604L175.048 24.3257L175.1 25.751Z" fill="#FF0000"/>
<path d="M183.399 24.5505C183.347 24.6896 183.33 25.3327 183.365 25.9933L183.417 27.1927L184.077 27.2448L184.719 27.297L184.736 33.1549C184.736 37.2224 184.806 39.204 184.945 39.6212C185.275 40.5946 185.848 40.6989 190.502 40.6294L194.479 40.5772L194.895 40.0905C195.295 39.6212 195.329 39.4821 195.277 37.9177L195.225 36.2316H193.749H192.273L192.221 36.8921L192.169 37.5527L190.224 37.5005L188.279 37.4484L188.227 31.2949C188.175 23.7335 188.418 24.3245 185.466 24.3245C183.972 24.3245 183.469 24.3767 183.399 24.5505Z" fill="#FF0000"/>
<path d="M196.602 24.551C196.55 24.6901 196.532 25.3332 196.567 25.9938L196.619 27.1932L197.314 27.2801L198.008 27.367L198.095 33.9724L198.182 40.5778L199.623 40.6299C200.544 40.6647 201.169 40.6125 201.325 40.4735C201.516 40.317 201.568 39.587 201.568 36.9796V33.6943L202.315 33.7464L203.044 33.7986L204.607 36.8405C205.562 38.7004 206.344 39.9868 206.622 40.1953C207.125 40.5604 209.018 40.7864 209.817 40.5951C210.268 40.4735 210.268 40.4735 210.216 39.0481L210.164 37.6227L209.522 37.5706L208.879 37.5184L207.49 34.8067L206.118 32.1124L207.282 29.9918C209.47 26.0981 210.251 24.551 210.129 24.4467C210.077 24.3772 209.226 24.325 208.271 24.325H206.517L204.902 27.367C204.017 29.0357 203.235 30.4263 203.166 30.4785C203.096 30.5132 202.714 30.6002 202.332 30.6697L201.603 30.774L201.551 28.0102C201.481 25.3332 201.464 25.2116 201.065 24.777C200.648 24.3424 200.561 24.325 198.668 24.325C197.175 24.325 196.671 24.3772 196.602 24.551Z" fill="#FF0000"/>
<path d="M216.64 25.0554C216.484 25.4726 215.407 28.4276 214.226 31.626C212.299 36.8929 212.073 37.4492 211.673 37.5361C211.257 37.6404 211.239 37.6752 211.239 39.1005V40.5781L212.021 40.6302C213.219 40.7171 214.278 40.5085 214.695 40.0913C214.903 39.8827 215.338 38.9789 215.65 38.0923L216.223 36.4758L218.654 36.5279L221.103 36.5801L221.676 38.1271C221.989 38.9962 222.457 39.8827 222.683 40.1261C223.083 40.5259 223.274 40.5607 224.559 40.5781H226V39.1005C226 37.7099 225.983 37.6404 225.601 37.5361C225.236 37.4492 224.906 36.6844 222.805 30.9307L220.426 24.4123L218.672 24.3601L216.918 24.308L216.64 25.0554ZM220.183 33.399C220.183 33.486 219.488 33.5381 218.637 33.5381H217.074L217.873 31.1741L218.654 28.81L219.418 31.0524C219.835 32.2692 220.165 33.3295 220.183 33.399Z" fill="#FF0000"/>
<path d="M88.6721 48.0215C88.6721 50.3856 88.6374 50.8028 88.4116 50.8028C88.238 50.8028 88.1511 50.994 88.1511 51.4111C88.1511 52.0021 88.1685 52.0195 88.8284 52.0195C90.0613 52.0195 90.0613 52.0195 90.0613 50.0032C90.0613 49.0123 90.1134 48.1954 90.2003 48.1954C90.2697 48.1954 90.9122 49.0645 91.6242 50.1248C92.8919 52.0021 92.9266 52.0369 93.5344 51.9848L94.1422 51.9326L94.1943 49.1862C94.229 46.9264 94.2811 46.4571 94.4895 46.4571C94.6632 46.4571 94.75 46.2659 94.75 45.8487C94.75 45.2751 94.7153 45.2403 94.1943 45.2403C92.8572 45.2403 92.8572 45.2403 92.8051 47.3958L92.753 49.3252L91.3637 47.2915C90.0092 45.2925 89.9571 45.2403 89.332 45.2403H88.6721V48.0215Z" fill="black"/>
<path d="M97.4422 45.5709C96.296 46.0924 95.7403 46.9789 95.6709 48.3695C95.532 50.7509 96.9038 52.1242 99.2829 51.9851C100.776 51.8982 101.558 51.4115 102.183 50.1426C102.982 48.526 102.513 46.753 101.054 45.7448C100.221 45.1885 98.4494 45.0842 97.4422 45.5709ZM99.9775 46.7182C100.603 47.0485 101.019 47.7959 101.019 48.6303C101.019 50.4033 99.1961 51.4289 97.911 50.3685C95.9835 48.7346 97.7721 45.5709 99.9775 46.7182Z" fill="black"/>
<path d="M102.929 45.8125C102.929 46.1428 102.999 46.4556 103.103 46.4904C103.19 46.5078 103.711 47.7593 104.266 49.2369L105.274 51.9312H106.038H106.802L107.792 49.2542C108.33 47.7767 108.868 46.5252 108.972 46.4904C109.094 46.4556 109.181 46.1601 109.181 45.8299C109.181 45.3258 109.129 45.2389 108.764 45.2389C107.722 45.2389 107.548 45.4475 106.836 47.5334C106.472 48.6111 106.124 49.5497 106.072 49.6193C106.003 49.6888 105.673 48.8718 105.308 47.7941C104.961 46.7338 104.596 45.743 104.509 45.6213C104.44 45.4822 104.041 45.3432 103.641 45.291L102.929 45.1867V45.8125Z" fill="black"/>
<path d="M110.551 47.8825C110.03 49.3252 109.492 50.6115 109.388 50.7332C109.266 50.8549 109.162 51.1852 109.162 51.4807C109.162 51.9674 109.214 52.0195 109.735 52.0195C110.482 52.0195 110.673 51.8631 110.951 51.0635C111.194 50.3682 111.211 50.3682 112.166 50.316L113.139 50.2639L113.538 51.0983C113.92 51.8979 113.972 51.9326 114.632 51.9326C115.292 51.9326 115.327 51.8979 115.379 51.359C115.414 50.9766 115.362 50.8028 115.205 50.8028C115.066 50.8028 114.858 50.5072 114.737 50.1422C114.598 49.7946 114.146 48.543 113.729 47.361L112.948 45.2403H112.218H111.489L110.551 47.8825ZM112.739 48.7864C112.844 49.2209 112.809 49.2383 112.201 49.2383C111.715 49.2383 111.576 49.1688 111.645 48.995C111.698 48.8559 111.836 48.4213 111.958 48.0042L112.184 47.2741L112.41 47.7956C112.514 48.0911 112.67 48.5256 112.739 48.7864Z" fill="black"/>
<path d="M118.768 45.8306C118.768 46.2652 118.837 46.4564 119.028 46.4564C119.254 46.4564 119.289 46.8736 119.289 49.2376V52.0188H119.983H120.678V50.9063V49.8112L121.703 49.7069C123.335 49.5679 123.978 48.9247 123.978 47.4819C123.978 46.6997 123.613 45.9349 123.04 45.5872C122.814 45.4308 121.946 45.3265 120.73 45.2744L118.768 45.1874V45.8306ZM122.241 46.804C122.953 47.5167 122.397 48.5423 121.286 48.5423H120.678V47.4993V46.4564H121.286C121.668 46.4564 122.033 46.5954 122.241 46.804Z" fill="black"/>
<path d="M126.473 45.5709C125.327 46.0924 124.771 46.9789 124.702 48.3695C124.563 50.7509 125.935 52.1242 128.314 51.9851C129.807 51.8982 130.589 51.4115 131.214 50.1426C132.013 48.526 131.544 46.753 130.085 45.7448C129.252 45.1885 127.48 45.0842 126.473 45.5709ZM129.009 46.7182C129.634 47.0485 130.051 47.7959 130.051 48.6303C130.051 50.4033 128.227 51.4289 126.942 50.3685C125.015 48.7346 126.803 45.5709 129.009 46.7182Z" fill="black"/>
<path d="M133.197 45.5875C132.537 45.9873 132.225 46.6652 132.364 47.43C132.503 48.0906 133.093 48.6816 134.239 49.2378C135.299 49.7419 135.594 50.1243 135.264 50.5241C134.951 50.9066 134.239 50.8718 133.51 50.4372L132.919 50.0722L132.607 50.4546C132.433 50.6632 132.294 50.9413 132.294 51.0804C132.294 51.4802 133.597 52.019 134.552 52.019C136.028 52.019 136.809 51.3585 136.809 50.107C136.809 49.1857 136.462 48.7685 135.212 48.108C134.552 47.7603 133.961 47.3605 133.909 47.2215C133.649 46.5435 134.899 46.1785 135.281 46.8043C135.437 47.0302 135.698 47.1519 136.063 47.1519C136.601 47.1519 136.636 47.1172 136.636 46.5435C136.636 46.0394 136.532 45.8656 136.08 45.5875C135.316 45.1182 133.961 45.1182 133.197 45.5875Z" fill="black"/>
<path d="M137.664 45.8487C137.664 46.2659 137.751 46.4571 137.925 46.4571C138.15 46.4571 138.185 46.8743 138.185 49.2383V52.0195H138.88H139.574V50.6289V49.2383H140.964H142.353V50.6289V52.0195H143.048H143.742V49.2383C143.742 46.8743 143.777 46.4571 144.003 46.4571C144.176 46.4571 144.263 46.2659 144.263 45.8487C144.263 45.2751 144.228 45.2403 143.707 45.2403C142.422 45.2403 142.353 45.3272 142.353 46.7352V48.0215H140.964H139.574V46.7352C139.574 45.3272 139.505 45.2403 138.237 45.2403C137.699 45.2403 137.664 45.2751 137.664 45.8487Z" fill="black"/>
<path d="M145.27 45.362C145.027 45.4141 144.958 45.6227 144.958 46.2137C144.958 46.9786 144.958 46.9786 145.566 46.9786C145.982 46.9786 146.173 46.8917 146.173 46.7178C146.173 46.544 146.347 46.4571 146.694 46.4571H147.215V49.2383V52.0195H147.91H148.604V49.2383V46.4571H149.039C149.282 46.4571 149.525 46.5788 149.577 46.7178C149.646 46.8743 149.907 46.9786 150.272 46.9786C150.845 46.9786 150.862 46.9612 150.862 46.2137C150.862 45.5706 150.793 45.4315 150.48 45.3446C150.028 45.2229 145.722 45.2403 145.27 45.362Z" fill="black"/>
<path d="M152.051 47.8825C151.53 49.3252 150.992 50.6115 150.888 50.7332C150.766 50.8549 150.662 51.1852 150.662 51.4807C150.662 51.9674 150.714 52.0195 151.235 52.0195C151.982 52.0195 152.173 51.8631 152.45 51.0635C152.694 50.3682 152.711 50.3682 153.666 50.316L154.638 50.2639L155.038 51.0983C155.42 51.8979 155.472 51.9326 156.132 51.9326C156.792 51.9326 156.827 51.8979 156.879 51.359C156.913 50.9766 156.861 50.8028 156.705 50.8028C156.566 50.8028 156.358 50.5072 156.236 50.1422C156.097 49.7946 155.646 48.543 155.229 47.361L154.447 45.2403H153.718H152.989L152.051 47.8825ZM154.239 48.7864C154.343 49.2209 154.309 49.2383 153.701 49.2383C153.215 49.2383 153.076 49.1688 153.145 48.995C153.197 48.8559 153.336 48.4213 153.458 48.0042L153.683 47.2741L153.909 47.7956C154.013 48.0911 154.17 48.5256 154.239 48.7864Z" fill="black"/>
<path d="M35.5179 0.861951C34.0139 1.57506 1.26926 34.4575 0.688771 35.8045C0.187443 37.0459 0.187443 38.1551 0.688771 39.3965C1.26926 40.7435 34.0139 73.6259 35.5179 74.339C36.8636 74.9729 38.1301 74.9729 39.4758 74.339C40.9798 73.6259 73.7244 40.7435 74.3049 39.3965C74.516 38.8418 74.7007 38.0495 74.7007 37.6005C74.7007 37.1515 74.516 36.3592 74.3049 35.8045C73.7244 34.4575 40.9798 1.57506 39.4758 0.861951C38.8953 0.597835 37.9982 0.360131 37.4968 0.360131C36.9955 0.360131 36.0984 0.597835 35.5179 0.861951ZM39.5549 12.6679C40.7951 13.1698 41.8769 14.1998 42.5629 15.5204C42.9851 16.3392 43.0642 16.9202 42.9851 18.2144C42.8004 21.2781 40.584 23.3382 37.4968 23.3382C34.4097 23.3382 32.1933 21.2781 32.0086 18.2144C31.9295 16.9202 32.0086 16.3392 32.4308 15.5204C33.8556 12.7736 36.89 11.5322 39.5549 12.6679ZM38.4995 28.198C38.8953 28.4093 42.7476 32.1333 47.0749 36.4912C52.7478 42.1697 54.9378 44.5468 54.8586 44.8901C54.7795 45.3391 54.4101 45.3919 50.8216 45.524C48.6316 45.6032 46.6791 45.7617 46.4416 45.8673C45.5445 46.3163 45.4126 47.2936 45.4126 53.6852V59.9711L44.7265 60.605L44.0405 61.2389H37.576H31.1115L30.4782 60.4994C29.845 59.7598 29.845 59.7334 29.845 53.3418C29.845 45.0222 30.3199 45.7089 24.5415 45.524C20.5836 45.3919 20.2142 45.3391 20.135 44.8901C20.0559 44.5468 22.2195 42.1961 27.7869 36.6233C32.035 32.3446 35.8873 28.5941 36.3095 28.33C37.2594 27.7226 37.576 27.7226 38.4995 28.198Z" fill="#FF0000"/>
</svg>
