<svg width="150" height="52" viewBox="0 0 150 52" fill="none" xmlns="http://www.w3.org/2000/svg">
<path d="M32.8659 31.4073C32.0723 31.4073 31.423 32.0565 31.423 32.8501C31.423 33.6527 31.423 40.0555 31.423 40.8581C31.423 41.6516 30.7737 42.301 29.9802 42.301C29.1866 42.301 22.856 42.301 22.0624 42.301C21.2688 42.301 20.6195 41.6516 20.6195 40.8581C20.6195 40.0555 20.6195 33.6527 20.6195 32.8501C20.6195 32.0565 19.9702 31.4073 19.1767 31.4073C18.6987 31.4073 14.9382 31.4073 14.4603 31.4073C13.6667 31.4073 13.4773 30.9473 14.0364 30.3882C15.1276 29.3061 23.7848 20.6398 24.876 19.5577C25.4351 18.9986 26.3549 18.9986 26.9141 19.5577C27.9962 20.6398 36.6625 29.3061 37.7446 30.3882C38.3037 30.9473 38.1143 31.4073 37.3208 31.4073C36.428 31.4073 33.3078 31.4073 32.8659 31.4073ZM29.7908 12.145C29.7908 14.3002 28.0413 16.0407 25.895 16.0407C23.7397 16.0407 21.9993 14.3002 21.9993 12.145C21.9993 9.99868 23.7397 8.24919 25.895 8.24919C28.0413 8.24919 29.7908 9.99868 29.7908 12.145ZM50.7665 23.4354C37.3117 9.98061 29.8359 2.50473 28.3479 1.00776C26.9952 -0.335918 24.7858 -0.335918 23.4422 1.00776C21.1967 3.25322 3.25999 21.1899 1.01452 23.4354C-0.338173 24.7881 -0.338173 26.9885 1.01452 28.3411C3.25999 30.5866 21.1967 48.5233 23.4422 50.7688C24.7858 52.1124 26.9952 52.1124 28.3479 50.7688C30.5844 48.5233 48.5301 30.5866 50.7665 28.3411C52.1192 26.9885 52.1192 24.7881 50.7665 23.4354Z" fill="white"/>
<path d="M95.1438 15.8973L96.0005 16.1588L96.722 16.5826L97.2901 17.1327L97.714 17.8001L97.9665 18.5575L98.0566 19.3962L97.9665 20.2619L97.714 21.0465L97.2901 21.7319L96.722 22.3L96.0005 22.7328L95.1438 23.0034L94.1519 23.0936V24.1937H91.9695V23.0936L90.9866 23.0034L90.1209 22.7328L89.3994 22.3L88.8313 21.7319L88.4074 21.0465L88.1549 20.2619L88.0648 19.3962L88.1549 18.5575L88.4074 17.8001L88.8313 17.1327L89.3994 16.5826L90.1209 16.1588L90.9866 15.8973L91.9695 15.8071V14.9053H94.1519V15.8071L95.1438 15.8973ZM84.7462 15.798L85.657 16.4834L86.3514 17.3762L86.7932 18.4493L86.9465 19.6397L86.7932 20.8661L86.3514 21.9573L85.657 22.8772L84.7462 23.5805L83.646 24.0314L82.3925 24.1937L81.148 24.0314L80.0478 23.5805L79.137 22.8772L78.4426 21.9573L78.0007 20.8661L77.8474 19.6397L78.0007 18.4493L78.4426 17.3762L79.137 16.4834L80.0478 15.798L81.148 15.3562L82.3925 15.2029L83.646 15.3562L84.7462 15.798ZM104.658 15.284L105.208 15.4103L105.758 15.5997L106.254 15.8702L106.66 16.2219L106.939 16.6728L107.039 17.2319V18.3772H105.091V17.8992L105.055 17.7279L104.955 17.5836L104.811 17.4574L104.631 17.3672L104.423 17.2951L104.198 17.2409L103.972 17.2139L103.747 17.2048L103.287 17.2409L102.863 17.3582L102.475 17.5475L102.133 17.8091L101.853 18.1518L101.646 18.5575L101.511 19.0445L101.465 19.6036L101.511 20.1266L101.646 20.6046L101.862 21.0465L102.151 21.4252L102.502 21.7409L102.899 21.9844L103.332 22.1287L103.801 22.1828L104.342 22.1377L104.829 22.0114L105.253 21.831L105.614 21.6327L105.902 21.4252L106.11 21.2449L106.236 21.1277L106.281 21.0736L107.39 22.6337L107.327 22.6968L107.147 22.8772L106.849 23.1296L106.443 23.4092L105.929 23.6978L105.307 23.9503L104.586 24.1216L103.765 24.1937L102.782 24.1036L101.889 23.8421L101.114 23.4272L100.446 22.8772L99.9234 22.2008L99.5266 21.4252L99.2831 20.5505L99.2019 19.6036L99.2921 18.7018L99.5356 17.8632L99.9414 17.1147L100.482 16.4654L101.141 15.9333L101.907 15.5365L102.764 15.284L103.702 15.2029L104.144 15.2209L104.658 15.284ZM130.684 15.3742L130.819 15.4193L130.936 15.4824L131.026 15.5546L131.107 15.6538L131.162 15.771L131.207 15.9063L131.234 16.0596L131.243 16.2309V21.9483V22.0024L131.252 22.0475L131.261 22.0836L131.288 22.1196L131.306 22.1467L131.342 22.1737L131.378 22.1918L131.414 22.2098L131.459 22.2188H131.504H132.027V24.0495H129.953L129.773 24.0405L129.619 24.0134L129.484 23.9683L129.367 23.9142L129.277 23.8331L129.196 23.7338L129.132 23.6256L129.096 23.4904L129.069 23.3371L129.06 23.1567V17.4393V17.3852L129.051 17.3401L129.033 17.3041L129.015 17.268L128.988 17.2409L128.961 17.2139L128.925 17.1958L128.889 17.1778L128.844 17.1688H128.79H127.41V18.2329L127.365 19.4233L127.248 20.4784L127.049 21.3802L126.779 22.1467L126.427 22.7779L126.003 23.2829L125.507 23.6707L124.948 23.9322L124.308 24.0946L123.614 24.1396V22.2098L123.911 22.1467L124.191 22.0385L124.443 21.8761L124.669 21.6417L124.867 21.326L125.038 20.9202L125.174 20.4152L125.273 19.802L125.327 19.0716L125.354 18.2059V17.1688H124.551V15.3471H130.35L130.53 15.3562L130.684 15.3742ZM149.477 22.0295L149.504 22.0926L149.54 22.1467L149.585 22.1828L149.63 22.2008L149.693 22.2188H149.775H150V24.0495H148.602L148.368 24.0314L148.169 23.9954L147.998 23.9322L147.863 23.8331L147.755 23.7068L147.664 23.5445L147.583 23.3371L147.204 22.2188H144.67L144.301 23.3371L144.219 23.5445L144.129 23.7068L144.012 23.8331L143.877 23.9322L143.715 23.9954L143.516 24.0314L143.273 24.0495H141.875V22.2188H142.109H142.181L142.245 22.2008L142.299 22.1828L142.335 22.1467L142.371 22.0926L142.407 22.0295L142.434 21.9483L144.806 15.3471H147.069L149.441 21.9483L149.477 22.0295ZM115.804 15.3742L115.939 15.4193L116.047 15.4824L116.147 15.5546L116.228 15.6538L116.282 15.771L116.327 15.9063L116.345 16.0596L116.354 16.2309V21.9483L116.363 22.0024L116.372 22.0475L116.381 22.0836L116.399 22.1196L116.426 22.1467L116.453 22.1737L116.489 22.1918L116.534 22.2098L116.58 22.2188H116.625H117.148V24.0495H115.064L114.893 24.0405L114.74 24.0134L114.605 23.9683L114.487 23.9142L114.388 23.8331L114.316 23.7338L114.253 23.6256L114.217 23.4904L114.19 23.3371L114.181 23.1567V17.4393V17.3852L114.172 17.3401L114.154 17.3041L114.136 17.268L114.109 17.2409L114.082 17.2139L114.045 17.1958L114.009 17.1778L113.964 17.1688H113.91H111.385V24.0495H109.203V17.1688H108.409V15.3471H115.47L115.642 15.3562L115.804 15.3742ZM75.4396 15.7349L75.9987 16.1858L76.4226 16.781L76.6931 17.5115L76.7833 18.3411L76.6931 19.1707L76.4226 19.9012L75.9987 20.5054L75.4396 20.9654L74.7453 21.2539L73.9517 21.3531H72.6982V24.0495H70.5158V17.1688H69.7313V15.3471H73.9517L74.7453 15.4464L75.4396 15.7349ZM67.2153 15.3742L67.3505 15.4193L67.4588 15.4824L67.558 15.5546L67.6391 15.6538L67.6932 15.771L67.7383 15.9063L67.7654 16.0596V16.2309V21.9483L67.7744 22.0024L67.7834 22.0475L67.7924 22.0836L67.8105 22.1196L67.8375 22.1467L67.8736 22.1737L67.9006 22.1918L67.9457 22.2098L67.9908 22.2188H68.0359H68.5589V24.0495H66.4758L66.3045 24.0405L66.1512 24.0134L66.0159 23.9683L65.8986 23.9142L65.7995 23.8331L65.7273 23.7338L65.6642 23.6256L65.6281 23.4904L65.6011 23.3371L65.592 23.1567V17.4393V17.3852L65.583 17.3401L65.565 17.3041L65.547 17.268L65.5199 17.2409L65.4928 17.2139L65.4568 17.1958L65.4207 17.1778L65.3756 17.1688H65.3215H62.7965V24.0495H60.6141V17.1688H59.8206V15.3471H66.8816L67.0529 15.3562L67.2153 15.3742ZM121.494 17.1688V22.2188H122.405V24.0495H118.527V22.2188H119.438V17.1688H118.527V15.3471H122.405V17.1688H121.494ZM135.625 15.3742L135.761 15.4193L135.869 15.4824L135.968 15.5546L136.049 15.6538L136.103 15.771L136.148 15.9063L136.175 16.0596L136.185 16.2309V18.7018H136.473H136.563H136.644L136.726 18.6928L136.798 18.6838L136.87 18.6657L136.933 18.6477L136.987 18.6116L137.041 18.5666L137.095 18.5125L137.14 18.4313L138.61 15.3471H140.982L139.251 18.8642L139.16 19.0265L139.07 19.1707L138.98 19.288L138.89 19.3872L138.818 19.4593L138.746 19.5225L138.682 19.5675L138.637 19.5946L138.61 19.6127H138.601V19.6397H138.61L138.637 19.6577L138.691 19.6757L138.746 19.7119L138.818 19.7569L138.908 19.8291L138.989 19.9192L139.088 20.0275L139.178 20.1628L139.269 20.3341L140.062 21.9393L140.098 22.0114L140.143 22.0655L140.197 22.1106L140.252 22.1467L140.315 22.1737L140.378 22.1918L140.441 22.2098L140.513 22.2188H140.585H140.657H140.892V24.0495H139.611L139.44 24.0405L139.278 24.0314L139.124 24.0134L138.989 23.9773L138.872 23.9322L138.755 23.8601L138.655 23.779L138.556 23.6797L138.466 23.5535L138.385 23.4002L137.077 20.794L137.032 20.7219L136.978 20.6587L136.924 20.6136L136.852 20.5775L136.78 20.5505L136.708 20.5325L136.626 20.5234L136.536 20.5145H136.446H136.347H136.185V24.0495H134.002V17.4393V17.3852L133.993 17.3401L133.975 17.3041L133.957 17.268L133.93 17.2409L133.903 17.2139L133.867 17.1958L133.831 17.1778L133.786 17.1688H133.732H133.209V15.3471H135.292L135.463 15.3562L135.625 15.3742ZM80.7783 17.8992L80.2913 18.6748L80.1109 19.6397L80.2913 20.6497L80.7783 21.4523L81.5087 21.9934L82.3925 22.1828L83.2852 21.9934L84.0157 21.4523L84.5027 20.6497L84.683 19.6397L84.5027 18.6748L84.0157 17.8992L83.2852 17.3942L82.3925 17.2048L81.5087 17.3942L80.7783 17.8992ZM90.7251 18.1427L90.4004 18.7018L90.2922 19.3962L90.4004 20.1357L90.7251 20.7309L91.2481 21.1277L91.9695 21.2719V17.6287L91.2481 17.7639L90.7251 18.1427ZM94.8733 21.1277L95.4054 20.7309L95.721 20.1357L95.8292 19.3962L95.721 18.7018L95.4054 18.1427L94.8733 17.7639L94.1519 17.6287V21.2719L94.8733 21.1277ZM145.897 17.7189L145.816 18.0796L145.698 18.5485L145.572 19.0084L145.139 20.4513H146.745L146.303 19.0084L146.176 18.5485L146.068 18.0796L145.978 17.7189L145.951 17.5746H145.924L145.897 17.7189ZM72.6982 19.5315H73.5098L73.9787 19.4413L74.3034 19.1978L74.4928 18.8191L74.5559 18.3411L74.4928 17.8632L74.3034 17.4934L73.9877 17.2589L73.5459 17.1688H72.6982V19.5315Z" fill="white"/>
<path d="M60.3256 32.038C60.3256 31.9298 60.2624 31.8667 60.1542 31.8667C60.1362 31.8667 60.019 31.8667 59.8206 31.8667V30.7034C60.6232 30.7034 61.065 30.7034 61.1552 30.7034C61.552 30.7034 61.7233 30.8747 61.7233 31.2715C61.7233 31.3797 61.7233 31.9298 61.7233 32.9308H63.5991C63.5991 31.9298 63.5991 31.3797 63.5991 31.2715C63.5991 30.8747 63.7704 30.7034 64.1672 30.7034C64.2574 30.7034 64.6993 30.7034 65.5019 30.7034V31.8667C65.3035 31.8667 65.1862 31.8667 65.1682 31.8667C65.06 31.8667 64.9969 31.9298 64.9969 32.038C64.9969 32.3176 64.9969 33.7334 64.9969 36.2674H63.5991V34.0851H61.7233V36.2674H60.3256V32.038Z" fill="#222222"/>
<path d="M70.633 33.4459C70.633 32.5621 69.9747 31.8948 69.1631 31.8948C68.3605 31.8948 67.7021 32.5621 67.7021 33.4459C67.7021 34.3747 68.3605 35.0781 69.1631 35.0781C69.9747 35.0781 70.633 34.3747 70.633 33.4459ZM69.1631 30.6052C70.8494 30.6052 72.0758 31.8587 72.0758 33.4459C72.0758 35.0872 70.8494 36.3587 69.1631 36.3587C67.4857 36.3587 66.2593 35.0872 66.2593 33.4459C66.2593 31.8587 67.4857 30.6052 69.1631 30.6052Z" fill="#222222"/>
<path d="M75.5208 35.0958C75.8996 35.0958 76.0799 34.8253 76.0799 34.5187C76.0799 34.203 75.9086 33.9505 75.5298 33.9505C75.4757 33.9505 75.1962 33.9505 74.6912 33.9505C74.6912 34.5367 74.6912 34.8614 74.6912 34.9245C74.6912 35.0327 74.7543 35.0958 74.8625 35.0958C74.9978 35.0958 75.4577 35.0958 75.5208 35.0958ZM75.4036 32.8593C75.7373 32.8593 75.8815 32.6069 75.8815 32.3454C75.8815 32.0839 75.7373 31.8674 75.3856 31.8674C75.3405 31.8674 75.106 31.8674 74.6912 31.8674V32.8593C75.0699 32.8593 75.3134 32.8593 75.4036 32.8593ZM73.3295 31.8674H72.8245V30.7041C74.3485 30.7041 75.1962 30.7041 75.3675 30.7041C76.4767 30.7041 77.2613 31.2001 77.2613 32.156C77.2613 32.7782 76.9006 33.184 76.612 33.3373C76.612 33.3463 76.612 33.3554 76.612 33.3554C77.2523 33.5538 77.4867 34.1219 77.4867 34.6088C77.4867 35.8263 76.4767 36.2682 75.3675 36.2682C75.2232 36.2682 74.0419 36.2682 73.8976 36.2682C73.5008 36.2682 73.3295 36.0968 73.3295 35.7C73.3295 35.4475 73.3295 34.167 73.3295 31.8674Z" fill="#222222"/>
<path d="M81.1932 33.9686C81.0309 33.4185 80.9317 33.1029 80.9137 33.0487C80.8055 32.697 80.6882 32.1289 80.6882 32.1289H80.6792C80.6792 32.1289 80.562 32.697 80.4537 33.0487C80.4267 33.1029 80.3365 33.4185 80.1652 33.9686H81.1932ZM78.082 35.0958C78.1722 35.0958 78.2263 35.0958 78.2353 35.0958C78.3526 35.0958 78.3977 35.0598 78.4428 34.9245C78.5419 34.6449 79.047 33.2381 79.9578 30.7041H81.4097C82.3205 33.2381 82.8255 34.6449 82.9247 34.9245C82.9698 35.0598 83.0058 35.0958 83.1321 35.0958C83.1411 35.0958 83.1952 35.0958 83.2854 35.0958V36.2682C82.7443 36.2682 82.4467 36.2682 82.3836 36.2682C81.9958 36.2682 81.8425 36.1509 81.7343 35.8173C81.7163 35.7632 81.6351 35.5287 81.4908 35.0958H79.8766C79.7323 35.5287 79.6512 35.7632 79.6331 35.8173C79.5249 36.1509 79.3716 36.2682 78.9748 36.2682C78.9207 36.2682 78.6231 36.2682 78.082 36.2682V35.0958Z" fill="#222222"/>
<path d="M86.8385 31.8674H86.3335V30.7041C89.0389 30.7041 90.5449 30.7041 90.8425 30.7041C91.2393 30.7041 91.4106 30.8754 91.4106 31.2722C91.4106 31.633 91.4106 34.5638 91.4106 34.9245C91.4106 35.0327 91.4737 35.0958 91.5819 35.0958C91.609 35.0958 91.7172 35.0958 91.9156 35.0958V36.2682C91.122 36.2682 90.6801 36.2682 90.59 36.2682C90.1932 36.2682 90.0218 36.0968 90.0218 35.7C90.0218 35.3303 90.0218 32.4085 90.0218 32.0387C90.0218 31.9305 89.9587 31.8674 89.8505 31.8674C89.7423 31.8674 89.2012 31.8674 88.2273 31.8674V36.2682H86.8385V31.8674Z" fill="#222222"/>
<path d="M97.0466 33.4459C97.0466 32.5621 96.3882 31.8948 95.5856 31.8948C94.774 31.8948 94.1247 32.5621 94.1247 33.4459C94.1247 34.3747 94.774 35.0781 95.5856 35.0781C96.3882 35.0781 97.0466 34.3747 97.0466 33.4459ZM95.5856 30.6052C97.263 30.6052 98.4894 31.8587 98.4894 33.4459C98.4894 35.0872 97.263 36.3587 95.5856 36.3587C93.8993 36.3587 92.6729 35.0872 92.6729 33.4459C92.6729 31.8587 93.8993 30.6052 95.5856 30.6052Z" fill="#222222"/>
<path d="M99.743 32.0387C99.743 31.9305 99.6889 31.8674 99.5717 31.8674C99.5537 31.8674 99.4454 31.8674 99.238 31.8674V30.7041C100.041 30.7041 100.483 30.7041 100.573 30.7041C100.969 30.7041 101.141 30.8754 101.141 31.2722C101.141 31.633 101.141 34.5638 101.141 34.9245C101.141 35.0327 101.204 35.0958 101.312 35.0958C101.393 35.0958 101.781 35.0958 102.494 35.0958V30.7041H103.882V35.0958C104.595 35.0958 104.991 35.0958 105.073 35.0958C105.181 35.0958 105.244 35.0327 105.244 34.9245C105.244 34.5638 105.244 31.633 105.244 31.2722C105.244 30.8754 105.415 30.7041 105.812 30.7041C105.893 30.7041 106.344 30.7041 107.138 30.7041V31.8674C106.939 31.8674 106.822 31.8674 106.804 31.8674C106.696 31.8674 106.633 31.9305 106.633 32.0387C106.633 32.4085 106.633 35.3303 106.633 35.7C106.633 36.0968 106.461 36.2682 106.065 36.2682C105.487 36.2682 100.888 36.2682 100.311 36.2682C99.9144 36.2682 99.743 36.0968 99.743 35.7C99.743 35.4565 99.743 34.2391 99.743 32.0387Z" fill="#222222"/>
<path d="M109.564 31.8674C109.293 31.8674 109.149 31.8674 109.113 31.8674C109.004 31.8674 108.941 31.9305 108.941 32.0387C108.941 32.0658 108.941 32.165 108.941 32.3454H107.742C107.742 31.678 107.742 31.3173 107.742 31.2361C107.742 30.8393 107.877 30.7041 108.274 30.7041C108.671 30.7041 111.854 30.7041 112.251 30.7041C112.648 30.7041 112.792 30.8393 112.792 31.2361C112.792 31.3173 112.792 31.678 112.792 32.3454H111.584C111.584 32.165 111.584 32.0658 111.584 32.0387C111.584 31.9305 111.52 31.8674 111.412 31.8674C111.385 31.8674 111.232 31.8674 110.961 31.8674V36.2682H109.564V31.8674Z" fill="#222222"/>
<path d="M115.912 33.9686C115.75 33.4185 115.651 33.1029 115.633 33.0487C115.524 32.697 115.407 32.1289 115.407 32.1289H115.398C115.398 32.1289 115.281 32.697 115.173 33.0487C115.155 33.1029 115.056 33.4185 114.893 33.9686H115.912ZM112.801 35.0958C112.891 35.0958 112.945 35.0958 112.954 35.0958C113.081 35.0958 113.117 35.0598 113.162 34.9245C113.261 34.6449 113.766 33.2381 114.677 30.7041H116.129C117.039 33.2381 117.544 34.6449 117.644 34.9245C117.689 35.0598 117.725 35.0958 117.851 35.0958C117.86 35.0958 117.914 35.0958 118.004 35.0958V36.2682C117.463 36.2682 117.166 36.2682 117.103 36.2682C116.715 36.2682 116.562 36.1509 116.453 35.8173C116.435 35.7632 116.354 35.5287 116.21 35.0958H114.596C114.451 35.5287 114.37 35.7632 114.352 35.8173C114.244 36.1509 114.091 36.2682 113.703 36.2682C113.64 36.2682 113.342 36.2682 112.801 36.2682V35.0958Z" fill="#222222"/>
</svg>
