<svg width="14" height="13" viewBox="0 0 14 13" fill="none" xmlns="http://www.w3.org/2000/svg">
<path d="M0.00239163 0.739017C-0.0192767 0.34086 0.342314 -0.0193761 0.74047 0.00161508C1.5808 0.000260811 2.4218 -0.00177057 3.2628 0.00296939C3.65351 -0.00380198 3.98802 0.354403 3.97177 0.741725C3.97651 1.59492 4.10787 2.44676 4.3706 3.25864C4.47217 3.5322 4.40175 3.85249 4.18845 4.05225C3.66638 4.57906 3.14227 5.10384 2.61952 5.62997C3.6508 7.66545 5.34432 9.35558 7.37979 10.3862C7.90187 9.86072 8.42529 9.33662 8.94872 8.81184C9.14712 8.59786 9.47147 8.52609 9.74368 8.63104C10.5562 8.89445 11.4094 9.02243 12.2633 9.02988C12.5186 9.02717 12.7745 9.15921 12.8991 9.38537C13.0075 9.55466 13.0014 9.76321 13.0021 9.9562C12.9966 10.7254 13.0048 11.4947 12.9987 12.2639C13.0095 12.5896 12.7745 12.9031 12.4556 12.9769C12.2545 13.0175 12.0486 12.9925 11.8455 12.9911C9.46402 12.9153 7.11368 12.119 5.17504 10.7349C3.08675 9.25942 1.4799 7.11426 0.65786 4.69282C0.223138 3.42319 0.00239163 2.0811 0.00239163 0.739017Z" fill="white"/>
</svg>
