<svg width="128" height="127" viewBox="0 0 128 127" fill="none" xmlns="http://www.w3.org/2000/svg">
<path d="M0.5 63.8206C0.5 98.6145 28.9299 126.821 64 126.821C99.0701 126.821 127.5 98.6145 127.5 63.8206C127.5 29.0266 99.0701 0.820557 64 0.820557C28.9299 0.820557 0.5 29.0266 0.5 63.8206Z" fill="#1877F2"/>
<path d="M95.75 63.8206C95.75 46.4956 81.4625 32.3206 64 32.3206C46.5375 32.3206 32.25 46.4956 32.25 63.8206C32.25 79.5706 43.7594 92.5643 58.8406 94.9268V72.8768H50.9031V63.8206H58.8406V56.7331C58.8406 48.8581 63.6031 44.5268 70.7469 44.5268C74.3188 44.5268 77.8906 45.3143 77.8906 45.3143V53.1893H73.9219C69.9531 53.1893 68.7625 55.5518 68.7625 57.9143V63.8206H77.4937L75.9062 72.8768H68.3656V95.3206C84.2406 92.9581 95.75 79.5706 95.75 63.8206Z" fill="white"/>
</svg>
