<svg width="25" height="25" viewBox="0 0 25 25" fill="none" xmlns="http://www.w3.org/2000/svg">
<path d="M10.8131 0.11168C13.5243 -0.249642 16.3709 0.265091 18.7283 1.66597C21.8074 3.39992 24.0435 6.51859 24.7289 9.9784C25.2485 12.4229 25.024 15.0309 24.0314 17.33C22.7556 20.3538 20.2588 22.8629 17.1978 24.074C15.0467 24.8754 12.6812 25.265 10.4088 24.8007C7.23665 24.3061 4.30914 22.5016 2.43902 19.8976C0.350546 17.1342 -0.421764 13.4705 0.219132 10.0834C0.807463 7.16857 2.43902 4.43342 4.83278 2.64296C6.53914 1.26226 8.64379 0.410427 10.8131 0.11168ZM11.3529 5.49922C10.1601 6.60135 10.433 8.32722 10.4229 9.78058C9.90738 9.78664 9.38982 9.78664 8.87427 9.78462C8.87629 10.693 8.87831 11.6013 8.87629 12.5097C9.39184 12.5097 9.90738 12.5117 10.4229 12.5137C10.4169 15.1197 10.4128 17.7277 10.425 20.3356C11.5066 20.3336 12.5862 20.3316 13.6678 20.3336C13.6618 17.7256 13.6699 15.1197 13.6638 12.5117C14.3957 12.5117 15.1296 12.5117 15.8615 12.5056C15.9524 11.5973 16.0515 10.691 16.1425 9.7826C15.3156 9.78866 14.4907 9.78664 13.6658 9.7826C13.7063 9.09831 13.5708 8.38172 13.7548 7.71963C14.3694 7.13021 15.3398 7.52585 16.102 7.41685C16.102 6.52667 16.102 5.63648 16.1041 4.74831C14.515 4.77254 12.657 4.32643 11.3529 5.49922Z" fill="#ED1C24"/>
</svg>
