<svg width="25" height="25" viewBox="0 0 25 25" fill="none" xmlns="http://www.w3.org/2000/svg">
<path fill-rule="evenodd" clip-rule="evenodd" d="M10.2937 0.197151C13.2423 -0.336839 16.3951 0.2194 18.9496 1.79912C23.3331 4.374 25.7684 9.80694 24.7822 14.7969C24.0445 18.8524 21.1464 22.4407 17.3409 24.0143C15.2007 24.8375 12.8402 25.2623 10.5645 24.8254C7.63007 24.3926 4.87748 22.8695 2.98382 20.5818C1.17908 18.4782 0.105936 15.7577 0.0190337 12.9846C-0.191149 9.39432 1.35289 5.77775 3.98219 3.3485C5.7364 1.73237 7.93321 0.591576 10.2937 0.197151ZM8.80021 6.14183C7.30266 6.57873 6.07592 7.95416 6.06178 9.55613C6.03955 11.51 6.03753 13.464 6.0638 15.4179C6.09412 17.21 7.59166 18.8039 9.38023 18.9353C10.3278 18.9698 11.2769 18.9645 12.2264 18.9591H12.2265C12.893 18.9554 13.5598 18.9516 14.2266 18.9616C15.1825 18.9758 16.2031 18.9535 17.0499 18.4519C18.1372 17.839 18.9031 16.6659 18.9395 15.4057C18.9694 14.4086 18.9653 13.4107 18.9612 12.4129V12.4126V12.4126C18.9584 11.7266 18.9555 11.0407 18.9637 10.3551C18.9819 9.33364 18.8263 8.23329 18.1432 7.43029C17.4157 6.59694 16.3567 5.98002 15.2249 6.01845C14.2885 6.01283 13.3521 6.01345 12.4157 6.01408H12.4154C11.6664 6.01458 10.9174 6.01508 10.1684 6.01238C10.1124 6.01337 10.0562 6.01406 9.99997 6.01474L9.99986 6.01474C9.59587 6.01968 9.1887 6.02466 8.80021 6.14183ZM15.8615 7.97624C16.4475 7.64856 17.1748 8.30189 16.9283 8.92083C16.8172 9.43257 16.108 9.61259 15.7282 9.28694C15.2736 8.97747 15.3423 8.17648 15.8615 7.97624ZM15.8435 12.3738C15.8597 10.2338 13.5032 8.57722 11.4903 9.29325C10.5122 9.59463 9.70175 10.3794 9.35616 11.3402C8.64276 13.1546 9.85535 15.3836 11.7692 15.7517C13.8104 16.2958 15.9992 14.4794 15.8435 12.3738ZM11.07 14.1396C9.84929 13.1647 10.1949 10.9984 11.6682 10.4624C13.2203 9.73015 15.1079 11.3402 14.635 12.9907C14.348 14.5543 12.2179 15.2238 11.07 14.1396Z" fill="white"/>
</svg>
