<svg width="127" height="127" viewBox="0 0 127 127" fill="none" xmlns="http://www.w3.org/2000/svg">
<defs>
    <linearGradient id="myGradient" x1="83.1082" y1="126.821" x2="45.2357" y2="8.14781" gradientUnits="userSpaceOnUse">
    <stop offset="0.0556726" stop-color="#E09B3D"/>
    <stop offset="0.330726" stop-color="#C74C4D"/>
    <stop offset="0.6" stop-color="#C21975"/>
    <stop offset="1" stop-color="#7024C4"/>
    </linearGradient>
</defs>

<path d="M0.5 63.8206C0.5 98.6145 28.7061 126.821 63.5 126.821C98.2939 126.821 126.5 98.6145 126.5 63.8206C126.5 29.0266 98.2939 0.820557 63.5 0.820557C28.7061 0.820557 0.5 29.0266 0.5 63.8206Z" fill="url('#myGradient')"/>
<path d="M63.5 37.0455C72.1625 37.0455 73.3438 37.0455 76.8875 37.0455C80.0375 37.0455 81.6125 37.833 82.7937 38.2268C84.3687 39.0143 85.55 39.408 86.7312 40.5893C87.9125 41.7705 88.7 42.9518 89.0937 44.5268C89.4875 45.708 89.8812 47.283 90.275 50.433C90.275 53.9768 90.275 54.7643 90.275 63.8205C90.275 72.8768 90.275 73.6643 90.275 77.208C90.275 80.358 89.4875 81.933 89.0937 83.1143C88.3063 84.6893 87.9125 85.8705 86.7312 87.0518C85.55 88.233 84.3687 89.0205 82.7937 89.4143C81.6125 89.808 80.0375 90.2018 76.8875 90.5955C73.3438 90.5955 72.5563 90.5955 63.5 90.5955C54.4438 90.5955 53.6563 90.5955 50.1125 90.5955C46.9625 90.5955 45.3875 89.808 44.2063 89.4143C42.6313 88.6268 41.45 88.233 40.2688 87.0518C39.0875 85.8705 38.3 84.6893 37.9063 83.1143C37.5125 81.933 37.1188 80.358 36.725 77.208C36.725 73.6643 36.725 72.8768 36.725 63.8205C36.725 54.7643 36.725 53.9768 36.725 50.433C36.725 47.283 37.5125 45.708 37.9063 44.5268C38.6938 42.9518 39.0875 41.7705 40.2688 40.5893C41.45 39.408 42.6313 38.6205 44.2063 38.2268C45.3875 37.833 46.9625 37.4393 50.1125 37.0455C53.6563 37.0455 54.8375 37.0455 63.5 37.0455ZM63.5 31.1393C54.4438 31.1393 53.6563 31.1393 50.1125 31.1393C46.5688 31.1393 44.2063 31.9268 42.2375 32.7143C40.2688 33.5018 38.3 34.683 36.3313 36.6518C34.3625 38.6205 33.575 40.1955 32.3938 42.558C31.6063 44.5268 31.2125 46.8893 30.8188 50.433C30.8188 53.9768 30.8188 55.158 30.8188 63.8205C30.8188 72.8768 30.8188 73.6643 30.8188 77.208C30.8188 80.7518 31.6063 83.1143 32.3938 85.083C33.1813 87.0518 34.3625 89.0205 36.3313 90.9893C38.3 92.958 39.875 93.7455 42.2375 94.9268C44.2063 95.7143 46.5688 96.108 50.1125 96.5018C53.6563 96.5018 54.8375 96.5018 63.5 96.5018C72.1625 96.5018 73.3438 96.5018 76.8875 96.5018C80.4312 96.5018 82.7937 95.7143 84.7625 94.9268C86.7312 94.1393 88.7 92.958 90.6687 90.9893C92.6375 89.0205 93.425 87.4455 94.6063 85.083C95.3938 83.1143 95.7875 80.7518 96.1812 77.208C96.1812 73.6643 96.1812 72.483 96.1812 63.8205C96.1812 55.158 96.1812 53.9768 96.1812 50.433C96.1812 46.8893 95.3938 44.5268 94.6063 42.558C93.8187 40.5893 92.6375 38.6205 90.6687 36.6518C88.7 34.683 87.125 33.8955 84.7625 32.7143C82.7937 31.9268 80.4312 31.533 76.8875 31.1393C73.3438 31.1393 72.5563 31.1393 63.5 31.1393Z" fill="white"/>
<path d="M63.5 46.8893C54.05 46.8893 46.5688 54.3705 46.5688 63.8205C46.5688 73.2705 54.05 80.7518 63.5 80.7518C72.95 80.7518 80.4312 73.2705 80.4312 63.8205C80.4312 54.3705 72.95 46.8893 63.5 46.8893ZM63.5 74.8455C57.5938 74.8455 52.475 70.1205 52.475 63.8205C52.475 57.9143 57.2 52.7955 63.5 52.7955C69.4063 52.7955 74.525 57.5205 74.525 63.8205C74.525 69.7268 69.4063 74.8455 63.5 74.8455Z" fill="white"/>
<path d="M80.825 50.433C82.9996 50.433 84.7625 48.6702 84.7625 46.4955C84.7625 44.3209 82.9996 42.558 80.825 42.558C78.6504 42.558 76.8875 44.3209 76.8875 46.4955C76.8875 48.6702 78.6504 50.433 80.825 50.433Z" fill="white"/>

</svg>
