<svg width="127" height="127" viewBox="0 0 127 127" fill="none" xmlns="http://www.w3.org/2000/svg">
<g clip-path="url(#clip0_8:91)">
<circle cx="63.5" cy="63.8001" r="62.9796" fill="url(#paint)"/>
<path d="M91.1609 46.028C90.7426 46.2741 86.682 49.1042 82.1539 52.3034C74.4758 57.742 73.8113 58.1604 72.8516 58.1604C71.8426 58.1604 71.3504 57.8405 64.6074 52.7709C60.6699 49.8178 57.2 47.2831 56.9293 47.1108C56.191 46.7417 55.2559 46.7663 54.3945 47.2092C53.607 47.603 32.8367 76.9374 32.443 78.217C31.9262 79.8413 33.4027 81.6624 35.1992 81.6624C36.2082 81.6624 36.3066 81.5885 47.7254 72.8522C53.041 68.767 53.8285 68.2502 54.6406 68.2502C55.4035 68.2502 57.2 69.2346 65.198 74.0088C70.4891 77.1834 75.1648 79.8413 75.5586 79.9397C76.0754 80.0627 76.5922 79.9643 77.1828 79.6444C77.9703 79.2506 79.0039 77.5526 86.6328 64.362C91.3332 56.2163 95.2461 49.301 95.2953 48.9565C95.4922 47.9967 94.9262 46.7663 94.0402 46.1756C93.0312 45.4866 92.1699 45.462 91.1609 46.028Z" fill="white"/>
</g>
<defs>
<radialGradient id="paint" cx="0" cy="0" r="1" gradientUnits="userSpaceOnUse" gradientTransform="translate(24.7676 126.083) scale(137.245 137.233)">
<stop stop-color="#0099FF"/>
<stop offset="0.6098" stop-color="#A033FF"/>
<stop offset="0.9348" stop-color="#FF5280"/>
<stop offset="1" stop-color="#FF7061"/>
</radialGradient>
<clipPath id="clip0_8:91">
<rect width="126" height="126" fill="white" transform="translate(0.5 0.820557)"/>
</clipPath>
</defs>
</svg>
