<svg width="127" height="127" viewBox="0 0 127 127" fill="none" xmlns="http://www.w3.org/2000/svg">
<path d="M0.5 63.8206C0.5 98.6145 28.7061 126.821 63.5 126.821C98.2939 126.821 126.5 98.6145 126.5 63.8206C126.5 29.0266 98.2939 0.820557 63.5 0.820557C28.7061 0.820557 0.5 29.0266 0.5 63.8206Z" fill="#0088CC"/>
<path d="M32.3934 62.672C49.3048 55.3039 60.5817 50.4465 66.2242 48.0996C82.3344 41.3988 85.682 40.2348 87.8639 40.1959C88.3438 40.1879 89.4168 40.3068 90.1119 40.8708C90.6987 41.347 90.8602 41.9903 90.9375 42.4418C91.0148 42.8933 91.111 43.9218 91.0345 44.7255C90.1615 53.8984 86.3839 76.1587 84.4621 86.4325C83.6489 90.7797 82.0477 92.2374 80.4976 92.38C77.1288 92.69 74.5707 90.1537 71.3078 88.0148C66.2021 84.6679 63.3177 82.5845 58.3617 79.3186C52.6342 75.5442 56.3471 73.4698 59.6112 70.0796C60.4654 69.1923 75.3084 55.6914 75.5957 54.4667C75.6317 54.3135 75.665 53.7425 75.3258 53.4411C74.9866 53.1396 74.486 53.2427 74.1247 53.3247C73.6126 53.4409 65.4562 58.832 49.6553 69.498C47.3401 71.0878 45.2431 71.8624 43.3643 71.8218C41.293 71.7771 37.3086 70.6507 34.3467 69.6879C30.7137 68.5069 27.8263 67.8826 28.0778 65.877C28.2087 64.8324 29.6473 63.764 32.3934 62.672Z" fill="white"/>
</svg>
