<svg width="127" height="127" viewBox="0 0 127 127" fill="none" xmlns="http://www.w3.org/2000/svg">
<g clip-path="url(#clip0_8:98)">
<ellipse cx="63.4608" cy="63.7768" rx="47.7337" ry="47.7337" fill="white"/>
<path d="M59.3164 0.992889C58.5781 1.04211 56.6832 1.23898 55.1328 1.46047C44.0586 2.93703 33.7473 7.26829 24.6172 14.3066C21.9102 16.3984 16.0777 22.2554 13.9859 24.9624C8.15352 32.5175 4.06836 41.057 2.12422 49.8425C-2.03476 68.5456 2.22266 87.4702 14.0106 102.703C15.9793 105.263 21.6148 110.972 24.1004 112.916C33.1813 120.053 43.0988 124.36 54.5176 126.132C59.0703 126.821 67.3391 126.87 71.7442 126.23C83.3844 124.532 93.2527 120.398 102.383 113.31C104.942 111.341 110.652 105.706 112.62 103.196C119.782 94.1148 124.261 83.6066 125.909 72.0648C126.5 68.0042 126.5 59.637 125.909 55.5765C124.507 45.7573 121.184 36.9226 115.967 29.1214C103.318 10.1722 82.0801 -0.385231 59.3164 0.992889ZM74.7957 25.0609C82.5723 26.0206 85.1809 26.7835 88.7738 29.0968C92.982 31.8284 96.575 35.7659 98.5684 39.8265C101.989 46.8648 102.604 64.1159 99.7988 75.0179C98.0762 81.687 90.6688 89.2175 83.5567 91.457C80.0621 92.5644 72.95 93.3519 64.7797 93.5241L57.8399 93.6718L53.607 98.0769C51.2938 100.513 49.0543 102.654 48.6606 102.876C47.627 103.393 45.9289 103.171 45.1168 102.433C43.9109 101.276 43.8125 100.833 43.8125 96.0589C43.8125 91.7031 43.7879 91.58 43.2957 91.457C43.0004 91.3585 41.8191 90.8417 40.6379 90.2757C35.4453 87.7409 30.4742 82.7452 28.2102 77.7988C26.4629 74.0335 25.4785 67.2659 25.4785 59.0218C25.4785 50.507 26.4629 43.887 28.3086 40.048C31.3356 33.748 38.0539 27.9894 44.2309 26.4144C46.3719 25.8484 51.8598 25.0362 55.625 24.7163C59.341 24.3718 71.1289 24.5933 74.7957 25.0609Z" fill="#6F3FAA"/>
<path d="M56.1172 31.6069C52.2781 31.9268 46.8395 32.7635 45.1414 33.3295C41.7207 34.437 36.725 38.8174 34.9039 42.312C32.2953 47.3323 31.5324 60.203 33.2551 70.1698C33.8703 73.6643 34.4117 75.1409 35.9129 77.2573C38.2016 80.5303 41.8684 83.4834 45.043 84.6647L46.7656 85.3045L46.8148 92.5889C46.8887 99.7502 46.8887 99.8733 47.3809 99.8733C47.7254 99.8733 50.0387 97.6831 54.2715 93.3518L60.6207 86.8303L65.3211 86.6827C73.3191 86.412 80.2836 85.4522 82.9168 84.2217C87.1496 82.253 91.7023 77.5772 92.8836 73.9596C94.0648 70.3667 94.9015 61.9749 94.6555 56.5608C94.3355 49.8424 93.4988 45.142 92.1207 42.435C90.3242 38.842 85.3777 34.4616 81.8586 33.3295C77.1336 31.7792 64.509 30.9424 56.1172 31.6069ZM67.1422 39.851C73.1223 41.0815 77.9211 44.8713 80.4805 50.3592C81.5879 52.771 82.1539 55.1581 82.3754 58.2834L82.523 60.5967L81.8832 60.892C81.3172 61.1381 81.1449 61.1135 80.7512 60.769C80.382 60.4491 80.2344 59.8338 80.1113 58.0866C79.7176 53.0663 78.3394 49.867 75.1894 46.717C72.2363 43.7393 69.3324 42.3858 64.9027 41.869C62.5402 41.5983 61.7773 41.2784 61.7773 40.5647C61.7773 39.4081 63.7461 39.1374 67.1422 39.851ZM52.6227 43.0749C54.1238 44.6991 56.9539 48.8335 57.3723 50.0147C57.8644 51.442 57.4707 52.4264 55.6988 54.1245C54.1238 55.6256 54.0746 55.6995 54.2223 56.6838C54.5176 58.9971 57.0277 63.0823 59.4887 65.2725C61.0637 66.6752 64.3613 68.4963 65.8379 68.767C67.093 68.9885 67.8066 68.6194 69.0125 67.1674C70.1445 65.7893 70.6613 65.494 71.941 65.494C72.95 65.5186 74.5742 66.4538 77.8965 68.9393C81.268 71.4741 81.6863 72.2862 80.7019 74.3288C79.8406 76.1252 77.1828 78.66 75.657 79.1768C74.4266 79.5706 74.3281 79.5706 72.8269 79.0784C68.4957 77.6264 61.5312 73.5905 57.3477 70.0959C53.9023 67.2413 50.8262 63.4268 48.0453 58.6526C46.2734 55.601 43.5664 49.3995 43.5664 48.3905C43.5664 45.8557 47.8238 41.6967 50.457 41.6721C51.1707 41.6721 51.4906 41.8936 52.6227 43.0749ZM67.4129 44.7483C72.384 45.9295 76.0262 49.4979 77.1582 54.2721C77.8226 57.1022 77.5273 59.1448 76.4937 59.1448C75.8539 59.1448 75.3125 58.3081 75.3125 57.3237C75.3125 55.8225 74.648 53.3124 73.9098 51.9342C73.0976 50.4577 71.0797 48.5874 69.4801 47.8245C68.8402 47.5292 67.3391 47.0616 66.1578 46.8401C63.6476 46.3233 63.5 46.2495 63.5 45.5112C63.5 44.3053 64.6074 44.0838 67.4129 44.7483ZM68.5449 49.9655C70.932 50.7776 72.7531 53.4846 72.5562 55.9702C72.4824 57.176 71.8918 57.7174 71.2027 57.2745C70.7598 57.0038 70.6859 56.8069 70.1445 54.7151C69.7754 53.3124 68.4957 52.0819 67.2406 51.885C65.5672 51.6389 65.0996 51.4174 65.0258 50.8268C64.8289 49.5471 66.2809 49.178 68.5449 49.9655Z" fill="#6F3FAA"/>
</g>
<defs>
<clipPath id="clip0_8:98">
<rect width="126" height="126" fill="white" transform="translate(0.5 0.820557)"/>
</clipPath>
</defs>
</svg>
