<svg width="25" height="25" viewBox="0 0 25 25" fill="none" xmlns="http://www.w3.org/2000/svg">
<path d="M9.41498 0.417874C15.6278 -1.34138 22.6581 2.64338 24.4421 8.82001C25.8174 13.1316 24.6008 18.1739 21.3357 21.3271C17.9889 24.8168 12.507 25.9463 8.02527 24.1679C2.80305 22.2404 -0.673622 16.5204 0.110192 10.9975C0.66319 6.00328 4.53898 1.60994 9.41498 0.417874ZM9.65542 8.05094C8.54461 8.17111 6.89043 7.85387 6.42879 9.20455C6.01525 11.2474 6.05372 13.3768 6.35666 15.4341C6.46726 16.107 7.01064 16.7896 7.73195 16.828C11.0547 17.1116 14.4304 17.2029 17.7388 16.7319C19.0371 15.9724 18.7534 14.242 18.8833 12.973C18.8159 11.3532 19.1189 9.40643 17.8109 8.18553C15.094 8.07497 12.3771 7.82983 9.65542 8.05094Z" fill="white"/>
<path d="M11.0741 10.5938C12.2233 11.2234 13.3726 11.8483 14.5363 12.4588C13.3678 13.0596 12.2041 13.6749 11.0645 14.3286C11.0693 13.0836 11.0741 11.8387 11.0741 10.5938Z" fill="white"/>
</svg>
