<svg width="26" height="25" viewBox="0 0 26 25" fill="none" xmlns="http://www.w3.org/2000/svg">
<path d="M9.41645 0.417874C15.6293 -1.34138 22.6595 2.64338 24.4436 8.82001C25.8188 13.1316 24.6022 18.1739 21.3372 21.3271C17.9903 24.8168 12.5084 25.9463 8.02674 24.1679C2.80452 22.2404 -0.672157 16.5204 0.111657 10.9975C0.664655 6.00328 4.54045 1.60994 9.41645 0.417874ZM9.65688 8.05094C8.54608 8.17111 6.89189 7.85387 6.43026 9.20455C6.01671 11.2474 6.05518 13.3768 6.35813 15.4341C6.46873 16.107 7.01211 16.7896 7.73341 16.828C11.0562 17.1116 14.4319 17.2029 17.7403 16.7319C19.0386 15.9724 18.7549 14.242 18.8847 12.973C18.8174 11.3532 19.1204 9.40643 17.8124 8.18553C15.0955 8.07497 12.3786 7.82983 9.65688 8.05094Z" fill="#ED1C24"/>
<path d="M11.0754 10.5938C12.2247 11.2234 13.374 11.8483 14.5377 12.4588C13.3692 13.0596 12.2055 13.6749 11.0658 14.3286C11.0706 13.0836 11.0754 11.8387 11.0754 10.5938Z" fill="#ED1C24"/>
</svg>
