<svg width="829" height="539" viewBox="0 0 829 539" fill="none" xmlns="http://www.w3.org/2000/svg">

<defs>
<linearGradient id="paint0" x1="289.158" y1="-10.3721" x2="496.513" y2="444.986" gradientUnits="userSpaceOnUse">
<stop stop-color="#F4F4F4"/>
<stop offset="1" stop-color="#F4F4F4" stop-opacity="0"/>
</linearGradient>
</defs>

<path fill-rule="evenodd" clip-rule="evenodd" d="M303.887 12.4077C244.009 25.9773 167.661 23.5558 135.866 76.0773C104.138 128.489 145.673 193.965 157.597 254.061C168.313 308.063 167.408 366.074 201.92 408.969C237.638 453.361 290.832 484.889 347.564 490.163C401.583 495.185 452.647 467.701 496.956 436.396C535.116 409.437 552.685 365.599 578.755 326.826C607.695 283.785 659.069 249.074 657.771 197.224C656.459 144.806 611.191 104.956 572.321 69.7629C536.51 37.3392 493.516 15.8256 446.273 5.73152C398.642 -4.44562 351.388 1.64261 303.887 12.4077Z" fill="url(#paint0)"/>
<path d="M36.9253 244.131C48.4604 240.392 60.2045 237.276 72.1026 234.924C79.4559 233.61 86.8759 232.272 94.3745 232.353C97.1844 232.329 99.6445 234.501 100.214 237.218C106.367 259.44 112.521 281.662 118.674 303.884C120.061 308.379 118.481 313.037 117.051 317.307C113.483 326.939 108.284 335.938 102.062 344.096C98.534 348.334 94.8624 353.131 89.3296 354.742C78.3067 358.307 66.9593 360.795 55.5735 362.88C49.0477 363.949 42.4925 364.968 35.8829 365.338C32.9445 365.56 30.2019 363.351 29.6389 360.486C20.7319 328.377 11.8443 296.263 2.9553 264.145C2.17312 261.811 2.82899 258.981 4.82506 257.454C6.26222 256.386 7.92785 255.689 9.50446 254.86C18.3758 250.634 27.5793 247.153 36.9253 244.131ZM26.0867 271.938C26.742 274.531 27.4667 277.11 28.206 279.686C47.6583 274.325 67.0998 268.926 86.5454 263.541C85.8644 260.95 85.1494 258.368 84.3823 255.805C64.9351 261.128 45.5096 266.528 26.0867 271.938ZM30.3659 287.485C31.0871 290.071 31.7902 292.667 32.5163 295.251C51.9645 289.876 71.4087 284.486 90.8591 279.1C90.1414 276.508 89.4348 273.919 88.7025 271.331C69.2556 276.711 49.8114 282.101 30.3659 287.485ZM34.681 303.049C35.3619 305.641 36.0769 308.223 36.8441 310.785C56.2885 305.453 75.719 300.051 95.1445 294.651C94.4782 292.056 93.7583 289.475 93.0141 286.901C73.5618 292.262 54.1238 297.655 34.681 303.049ZM78.4334 324.922C80.2176 331.271 81.8608 337.659 83.775 343.966C87.3619 342.664 90.1134 338.855 89.4734 334.975C88.6241 330.849 87.2198 326.856 86.199 322.772C85.5104 320.512 87.0186 317.791 89.3229 317.226C93.2117 316.05 97.1902 315.179 101.055 313.915C104.971 312.647 107.056 308.117 106.285 304.215C99.8859 305.799 93.5619 307.691 87.1984 309.422C80.7033 310.98 76.4677 318.561 78.4334 324.922Z" fill="#F4F4F4"/>
<path d="M760.185 384.107C773.601 387.894 786.819 392.41 799.697 397.755C807.566 401.192 815.515 404.649 822.633 409.512C825.335 411.282 826.301 414.929 825.111 417.89C816.812 443.065 808.513 468.241 800.214 493.416C798.67 498.6 794.187 502.045 790.094 505.215C780.535 512.147 769.82 517.434 758.664 521.262C752.586 523.064 746.014 525.307 739.695 523.315C726.88 519.689 714.442 514.826 702.225 509.552C695.303 506.409 688.384 503.2 681.829 499.335C678.877 497.672 677.665 493.809 678.955 490.71C690.932 454.325 702.93 417.946 714.931 381.562C715.672 378.832 718.106 376.544 720.989 376.358C723.045 376.254 725.082 376.651 727.119 376.864C738.299 378.485 749.32 381.032 760.185 384.107ZM732.074 403.777C731.046 406.675 730.092 409.604 729.156 412.538C751.176 419.828 773.212 427.074 795.242 434.336C796.244 431.423 797.209 428.498 798.111 425.559C776.119 418.236 754.098 411.001 732.074 403.777ZM726.243 421.374C725.282 424.307 724.298 427.237 723.342 430.172C745.369 437.445 767.4 444.702 789.436 451.966C790.404 449.03 791.381 446.103 792.332 443.161C770.304 435.893 748.272 428.636 726.243 421.374ZM720.435 439.01C719.432 441.922 718.468 444.847 717.566 447.787C739.561 455.099 761.587 462.336 783.608 469.571C784.627 466.664 785.586 463.737 786.517 460.8C764.496 453.511 742.468 446.261 720.435 439.01ZM748.309 487.849C745.963 495.058 743.457 502.214 741.262 509.467C745.523 510.511 750.584 508.625 752.449 504.507C754.27 500.02 755.476 495.305 757.107 490.749C757.89 488.149 761.069 486.51 763.633 487.44C768.102 488.798 772.462 490.504 776.964 491.762C781.517 493.049 786.403 490.048 788.156 485.826C781.026 483.256 773.772 481.029 766.583 478.622C759.378 475.966 750.489 480.512 748.309 487.849Z" fill="#F4F4F4"/>

</svg>
