<svg width="114" height="141" viewBox="0 0 114 141" fill="none" xmlns="http://www.w3.org/2000/svg">

<defs>
<linearGradient id="paint0" x1="56.3679" y1="24.2386" x2="56.3679" y2="79.1353" gradientUnits="userSpaceOnUse">
<stop stop-color="#ED1C24"/>
<stop offset="0.576134" stop-color="#ED1C24" stop-opacity="0"/>
</linearGradient>
<linearGradient id="paint1" x1="81.7705" y1="60.0602" x2="64.9803" y2="63.5479" gradientUnits="userSpaceOnUse">
<stop stop-color="#FEDE31"/>
<stop offset="0.85299" stop-color="#FDD62E"/>
<stop offset="0.93986" stop-color="#FDD52D"/>
</linearGradient>
<linearGradient id="paint2" x1="36.2192" y1="60.2174" x2="63.2868" y2="68.129" gradientUnits="userSpaceOnUse">
<stop stop-color="#FEDE31"/>
<stop offset="0.3554" stop-color="#FDD62D"/>
<stop offset="0.90181" stop-color="#FBC123"/>
<stop offset="1" stop-color="#FBBC21"/>
</linearGradient>
</defs>

<path d="M56.6482 60.9506C70.5381 60.9506 79.7981 52.2148 79.7981 39.9264C79.7981 28.5699 71.8776 20.4747 61.1617 20.4747C55.5125 20.4747 50.8243 22.8916 48.8442 26.1821H48.4948L49.8634 12.1175H76.2746V0.498888H38.0118L35.4202 32.6466L48.1454 35.0344C49.7469 32.3554 53.0665 30.6956 56.5608 30.7247C62.0353 30.7247 65.9373 34.5976 65.9081 40.3341C65.9373 46.0415 62.0935 49.8853 56.6482 49.8853C52.0182 49.8853 48.2036 47.0024 47.9998 42.6054H34.0225C34.1972 53.3213 43.6027 60.9506 56.6482 60.9506Z" fill="url(#paint0)"/>
<path d="M56.5425 140.692L11.3613 115.164V69.4956L56.5425 95.0252V140.692Z" fill="#A8020B"/>
<path d="M56.5425 95.0253L11.3613 69.4957L56.5425 43.967L101.724 69.4957L56.5425 95.0253Z" fill="#FF998A"/>
<path d="M38.9152 53.9915L57.6525 64.2418L50.2138 68.429L31.7425 58.0421L38.9152 53.9915Z" fill="#FEF884"/>
<path d="M92.078 83.0855L84.1355 87.4917L57.7227 72.6436L65.3712 68.4702L92.078 83.0855Z" fill="#FEF884"/>
<path d="M65.3712 68.4704L57.7227 72.6438L50.2138 68.4291L57.6525 64.2419L65.3712 68.4704Z" fill="#FFDF31"/>
<path d="M50.2138 68.429L57.7227 72.6436L36.902 84.0019L29.7292 79.9375L50.2138 68.429Z" fill="#FEDE31"/>
<path d="M61.414 52.7736C61.4489 57.4149 60.5312 62.0157 58.7152 66.3033L53.6323 65.4805L53.8517 64.2435C53.8517 64.2435 50.1852 52.8043 52.807 50.3816C53.129 50.0933 53.5511 49.9361 53.9874 49.9418C58.3429 49.901 61.414 49.7478 61.414 52.7736Z" fill="#FBD631"/>
<path d="M52.4915 51.1609C52.4915 51.1609 51.5121 51.5763 52.4915 57.3904C53.4709 63.2044 54.2868 64.9296 54.2868 64.9296C54.2868 64.9296 53.8625 48.5733 52.4915 51.1609Z" fill="#D85E00"/>
<path d="M82.9483 58.8869L65.3712 68.4703L57.6525 64.2419L75.087 54.4453L82.9483 58.8869Z" fill="#FFE763"/>
<path d="M29.7333 125.543V79.9414L36.908 83.996V129.598L29.7333 125.543Z" fill="#FAB01B"/>
<path d="M56.5425 140.692L101.724 115.164V69.4956L56.5425 95.0252V140.692Z" fill="#DB4534"/>
<path d="M84.7397 124.812V79.0928L76.9999 83.4803V129.185L84.7397 124.812Z" fill="#FBD631"/>
<path d="M58.7907 65.8489C58.7907 65.8489 65.1917 67.4313 70.9791 65.8034C74.8643 64.6165 78.5715 62.9304 82.0036 60.7893L83.5882 65.4042C83.5882 65.4042 76.7812 72.8233 58.5981 69.166L58.7907 65.8489Z" fill="#D85E00"/>
<path d="M58.7907 65.8488C58.7907 65.8488 72.256 53.7882 77.974 55.7308C83.6918 57.6734 83.6965 64.8425 83.5882 65.4042C83.5882 65.4042 80.3786 58.7097 69.8126 64.985C66.2944 66.8888 62.5189 68.2964 58.5981 69.166L58.7907 65.8488Z" fill="url(#paint1)"/>
<path d="M57.8903 65.8489C57.8903 65.8489 51.4893 67.4313 45.7017 65.8034C41.8164 64.6164 38.1092 62.9304 34.677 60.7893L33.0926 65.4042C33.0926 65.4042 40.4148 72.8233 58.5981 69.166L57.8903 65.8489Z" fill="#D85E00"/>
<path d="M58.6001 69.1711C58.6001 69.1711 51.6016 67.8011 46.8698 64.99C39.6627 60.7067 35.8711 62.4651 34.1997 64.0085C33.7521 64.4105 33.3777 64.8841 33.0926 65.4092C32.9733 62.715 33.8111 60.0636 35.4636 57.9057C36.3257 56.9061 37.4483 56.1537 38.7121 55.7283C44.4258 53.7859 57.8896 65.8489 57.8896 65.8489L58.6001 69.1711Z" fill="url(#paint2)"/>
<path d="M59.2008 63.1417C59.2008 63.1417 60.2548 59.7955 57.3294 59.8648C54.4037 59.9345 53.6541 59.8705 53.7011 61.9628C53.7479 64.0554 56.1371 66.4193 56.1371 66.4193L59.2008 63.1417Z" fill="#FADD4A"/>
<path d="M57.4765 61.5498C57.4765 61.5498 59.7705 58.8672 61.2918 61.2765C62.813 63.6859 63.2724 64.2585 61.4564 65.3637C59.6405 66.4689 56.3265 65.8237 56.3265 65.8237L57.4765 61.5498Z" fill="#FEC200"/>
<path d="M55.1764 62.0667C55.1764 62.0667 52.8823 59.3842 51.3612 61.7937C49.84 64.2031 49.3804 64.7756 51.1966 65.8809C53.0126 66.9862 56.3265 66.3409 56.3265 66.3409L55.1764 62.0667Z" fill="#FEC200"/>
<path d="M59.7867 64.2415C60.7923 64.8567 60.998 68.0105 56.9212 67.9409C52.8443 67.8716 51.3129 67.8655 51.8649 65.8428C52.6164 63.0896 56.5424 64.2415 56.5424 64.2415C56.5424 64.2415 59.1683 63.8631 59.7867 64.2415Z" fill="#FAB01B"/>
<path d="M53.8697 66.011C53.8697 66.011 52.3282 65.538 50.718 69.0292C48.1087 74.6864 50.1521 79.1142 51.6319 79.5751C54.2868 80.4018 60.38 80.7853 61.2504 77.7184C62.1208 74.6517 59.2392 66.011 59.2392 66.011L57.0016 66.3032L53.8697 66.011Z" fill="#FADD4A"/>
<path d="M53.8697 66.011C53.8697 66.011 52.3282 65.538 50.718 69.0292C48.1087 74.6864 50.1521 79.1142 51.6319 79.5751C54.2868 80.4018 60.38 80.7853 61.2504 77.7184C62.1208 74.6517 59.2392 66.011 59.2392 66.011L57.0016 66.3032L53.8697 66.011Z" fill="#FADD4A"/>
<path d="M59.2392 66.011L58.9295 66.107C59.4977 68.0146 61.136 73.4527 60.5019 75.6873C59.7394 78.3733 54.4021 78.0376 52.0769 77.3134C49.7515 76.589 48.7351 73.5857 51.2764 68.0762C51.3537 67.9086 51.4318 67.7535 51.5105 67.6037C51.2089 68.058 50.9439 68.5346 50.718 69.0292C48.1087 74.6864 50.1521 79.1142 51.6319 79.5751C54.2868 80.4019 60.38 80.7853 61.2504 77.7184C62.1208 74.6517 59.2392 66.011 59.2392 66.011Z" fill="#FAB01B"/>
<path d="M51.6319 74.2933C50.6766 73.9959 50.4702 73.2557 50.0216 72.2725C48.8787 76.4511 49.4932 78.9093 51.6319 79.5752C54.2868 80.402 60.38 80.7854 61.2504 77.7185C61.4968 76.1136 61.432 74.4776 61.0595 72.8962C59.7291 75.4564 54.1444 75.0759 51.6319 74.2933Z" fill="#FFD13B"/>
<path d="M61.356 75.1016C61.3339 75.2876 61.2986 75.4718 61.2504 75.653C60.38 78.7199 54.2868 78.3364 51.6318 77.5097C50.3003 77.0951 49.8982 75.9228 49.6434 74.1658C49.2868 77.1706 49.8412 79.0173 51.6318 79.575C54.2868 80.4018 60.3799 80.7853 61.2504 77.7184C61.4312 76.8576 61.4669 75.9736 61.356 75.1016V75.1016Z" fill="#FAB01B"/>

</svg>
