<svg width="113" height="141" viewBox="0 0 113 141" fill="none" xmlns="http://www.w3.org/2000/svg">

<defs>
<linearGradient id="paint" x1="56.7012" y1="24.3387" x2="56.7012" y2="79.2354" gradientUnits="userSpaceOnUse">
<stop stop-color="#ED1C24"/>
<stop offset="0.576134" stop-color="#ED1C24" stop-opacity="0"/>
</linearGradient>
</defs>

<path d="M68.2943 0.598986H54.9285L40.2233 9.74245V22.2055L53.5599 14.0521H53.9094V60.2354H68.2943V0.598986Z" fill="url(#paint)"/>
<path d="M78.1071 73.154L71.5149 69.3496L56.4675 60.6606L19.3055 82.1189L34.3766 90.8256L40.9437 94.6189L57.2829 104.052L94.4285 82.5961L94.4448 82.5858L78.1071 73.154Z" fill="#FFDDA8"/>
<path d="M56.4675 61.2378L20.3118 82.1191L57.2859 103.31L93.4401 82.586L56.4675 61.2378Z" fill="#DDA866"/>
<path d="M56.4675 61.2378V98.8977L60.9614 101.233L93.4401 82.586L56.4675 61.2378Z" fill="#AA6838"/>
<path d="M57.2824 104.043V140.999L40.9795 131.661L34.3764 127.883L19.3055 119.246V82.1189L34.3764 90.8259L40.9795 94.6269L57.2824 104.043Z" fill="#BC7C46"/>
<path d="M57.2859 104.049V140.997L94.43 119.683V82.5962L57.2859 104.049Z" fill="#DDA866"/>
<path d="M55.8624 60.9229L41.8044 44.3179L5.24844 64.8899V65.7259L19.3054 82.1189L20.0724 82.1949L55.8724 61.5459L55.8624 60.9229Z" fill="#BC7C46"/>
<path d="M5.24817 64.906L20.0721 82.1952L56.4675 61.2223L56.4556 60.6007L42.3331 43.76L5.24817 64.906Z" fill="#EDC893"/>
<path d="M75.1214 44.8079L57.0634 61.2789L93.4404 82.7009L94.4774 82.5749L112.296 66.0939L112.024 65.4959L75.6624 44.4819L75.1214 44.8079Z" fill="#BC7C46"/>
<path d="M93.4401 82.7014L112.024 65.4958L75.078 44.1204L74.5365 44.4466L56.3063 61.1025L93.4401 82.7014Z" fill="#EDC893"/>
<path d="M81.2855 107.835L81.0225 107.988V103.437L81.2855 103.286V107.835Z" fill="#4F2E16"/>
<path d="M82.2174 103.745L82.0324 104.061L81.1534 103.478L80.2775 105.076L80.0854 104.979L81.1534 103.034L82.2174 103.745Z" fill="#4F2E16"/>
<path d="M83.9004 106.325L83.6384 106.479V101.929L83.9004 101.777V106.325Z" fill="#4F2E16"/>
<path d="M84.8394 102.235L84.6434 102.553L83.7724 101.967L82.8924 103.563L82.6974 103.47L83.7724 101.524L84.8394 102.235Z" fill="#4F2E16"/>
<path d="M84.905 105.897L80.0203 108.716C79.9494 108.758 79.8917 108.726 79.8917 108.64C79.894 108.595 79.9069 108.552 79.9292 108.512C79.9516 108.473 79.9828 108.44 80.0203 108.415L84.905 105.597C84.973 105.554 85.0308 105.588 85.0308 105.673C85.0282 105.718 85.0156 105.761 84.9938 105.8C84.972 105.839 84.9416 105.872 84.905 105.897V105.897Z" fill="#4F2E16"/>
<path d="M84.8621 107.13L80.0647 109.902C79.5572 110.195 79.1458 109.957 79.1458 109.373V103.835C79.1632 103.517 79.2554 103.207 79.4151 102.931C79.5748 102.655 79.7973 102.421 80.0647 102.248L84.8621 99.4763C85.3637 99.1862 85.7735 99.4222 85.7735 100.006V105.548C85.7561 105.865 85.6645 106.173 85.5062 106.448C85.3479 106.723 85.1273 106.956 84.8621 107.13ZM80.0647 102.55C79.8741 102.675 79.7155 102.842 79.6016 103.038C79.4877 103.235 79.4218 103.456 79.4092 103.683V109.221C79.4092 109.64 79.7038 109.808 80.0647 109.6L84.8621 106.829C85.0521 106.705 85.21 106.538 85.3226 106.342C85.4353 106.145 85.4996 105.924 85.5102 105.698L85.5161 100.159C85.5161 99.7418 85.2201 99.5717 84.8621 99.7782L80.0647 102.55Z" fill="#4F2E16"/>
<path d="M92.53 102.682L87.7312 105.453C87.2266 105.745 86.8183 105.507 86.8183 104.926V99.3861C86.8354 99.0684 86.9269 98.7592 87.0855 98.4834C87.2441 98.2076 87.4653 97.9729 87.7312 97.7983L92.53 95.0313C93.0345 94.7397 93.44 94.9756 93.44 95.5564V101.099C93.4236 101.416 93.3326 101.724 93.1744 101.999C93.0163 102.275 92.7955 102.508 92.53 102.682V102.682ZM87.7312 98.1031C87.5404 98.2263 87.3817 98.3932 87.2682 98.5899C87.1548 98.7866 87.0897 99.0075 87.0786 99.2344V104.776C87.0786 105.19 87.3672 105.361 87.7312 105.154L92.53 102.382C92.72 102.258 92.8781 102.09 92.9917 101.893C93.1053 101.696 93.1711 101.475 93.184 101.248V95.7081C93.184 95.2931 92.8867 95.1214 92.53 95.3316L87.7312 98.1031Z" fill="#4F2E16"/>
<path d="M90.1298 102.559C90.0544 102.601 89.9937 102.568 89.9937 102.482V98.5173C89.9965 98.4712 90.0103 98.4265 90.034 98.3868C90.0577 98.3472 90.0905 98.3138 90.1298 98.2895C90.1994 98.2481 90.2571 98.2829 90.2571 98.3643V102.334C90.2544 102.379 90.2416 102.423 90.2195 102.462C90.1975 102.501 90.1668 102.534 90.1298 102.559Z" fill="#4F2E16"/>
<path d="M90.7203 102.217L89.5336 102.902C89.4625 102.945 89.4004 102.911 89.4004 102.828C89.403 102.782 89.4165 102.738 89.4396 102.698C89.4628 102.659 89.495 102.626 89.5336 102.601L90.7203 101.913C90.7927 101.872 90.852 101.907 90.852 101.99C90.8488 102.035 90.8352 102.079 90.8124 102.118C90.7896 102.158 90.7581 102.191 90.7203 102.217V102.217Z" fill="#4F2E16"/>
<path d="M91.392 97.1953V99.0486C91.3786 99.321 91.3007 99.5863 91.1646 99.8226C91.0285 100.059 90.8381 100.26 90.6092 100.408L89.6489 100.959C89.2169 101.212 88.8676 101.008 88.8676 100.508V98.6543L89.3426 98.3813V100.365C89.3426 100.446 89.4004 100.483 89.4713 100.44C89.5097 100.416 89.5419 100.382 89.5653 100.343C89.5886 100.303 89.6026 100.259 89.606 100.213V98.2289L91.392 97.1953Z" fill="#4F2E16"/>
<path d="M56.4674 98.6389L52.8421 100.734L57.3361 103.31L60.9614 101.233L56.4674 98.6389Z" fill="#C68B51"/>
<path d="M0.499451 76.4949L20.1294 82.2519L57.2855 103.31L57.2765 104.004L37.4645 99.1089L0.499451 77.1549V76.4949Z" fill="#DDA866"/>
<path d="M20.2038 82.1191L0.499695 76.4946L37.4677 98.4361L57.2859 103.31L20.2038 82.1191Z" fill="#EDC893"/>
<path d="M93.9328 83.186L57.2859 103.31L57.2932 104.078L75.9201 108.626L112.903 87.552V86.9282L93.9328 83.186Z" fill="#BC7C46"/>
<path d="M93.4401 82.5859L57.2859 103.31L75.9201 107.995L112.903 86.9282L94.4448 82.5859H93.4401Z" fill="#EDC893"/>

</svg>
