<svg width="113" height="142" viewBox="0 0 113 142" fill="none" xmlns="http://www.w3.org/2000/svg">

<defs>
<linearGradient id="paint0" x1="56.6531" y1="24.4285" x2="56.6531" y2="79.3252" gradientUnits="userSpaceOnUse">
<stop stop-color="#ED1C24"/>
<stop offset="0.576134" stop-color="#ED1C24" stop-opacity="0"/>
</linearGradient>
</defs>

<path d="M32.0545 50.4246H60.8535V60.3252H74.627V50.4246H81.7612V39.0681H74.627V0.68883H56.4856L32.0545 39.1846V50.4246ZM61.1447 39.0681H46.3812V38.6022L60.6788 15.9474H61.1447V39.0681Z" fill="url(#paint0)"/>
<path d="M56.6375 140.88L13.9251 115.412V69.3799L56.6375 94.8485V140.88Z" fill="#BC7C46"/>
<path d="M56.6375 94.8485L13.9251 69.3798L56.6375 43.9102L99.3498 69.3798L56.6375 94.8485Z" fill="#F9C98A"/>
<path d="M98.7379 69.3798L56.6375 94.4029L13.9251 69.3798L56.6375 94.8485L99.3498 69.3798L56.6375 43.9102L98.7379 69.3798Z" fill="#FFEDB4"/>
<path d="M39.9739 53.9119L57.6876 64.1378L50.6551 68.3151L33.1932 57.9532L39.9739 53.9119Z" fill="#CAAF8F"/>
<path d="M90.2317 82.9366L82.7237 87.3332L57.7529 72.5201L64.9842 68.3557L90.2317 82.9366Z" fill="#CAAF8F"/>
<path d="M64.9842 68.3559L57.7529 72.5203L50.6551 68.3152L57.6876 64.1379L64.9842 68.3559Z" fill="#CAAF8F"/>
<path d="M50.6551 68.3152L57.7529 72.5203L38.0708 83.8516L31.2891 79.7963L50.6551 68.3152Z" fill="#CAAF8F"/>
<path d="M81.5997 58.7956L64.9842 68.3557L57.6875 64.1378L74.8939 54.7969L81.5997 58.7956Z" fill="#CAAF8F"/>
<path d="M31.2929 125.982V79.8003L38.0765 83.8456V130.422L31.2929 125.982Z" fill="#9B7451"/>
<path d="M56.6375 140.88L99.3498 115.412V69.3799L56.6375 94.8485V140.88Z" fill="#DDA866"/>
<path d="M83.2944 124.996V78.9529L75.9776 83.3306V129.358L83.2944 124.996Z" fill="#A67F58"/>
<path d="M85.6193 86.7914L85.4435 86.8986V83.7304L85.6193 83.6262V86.7914Z" fill="#4F2E16"/>
<path d="M86.2524 83.9439L86.1228 84.1651L85.5319 83.7593L84.9411 84.8716L84.8104 84.8041L85.5319 83.4497L86.2524 83.9439Z" fill="#4F2E16"/>
<path d="M87.3813 85.7417L87.2055 85.8468V82.6806L87.3813 82.5754V85.7417Z" fill="#4F2E16"/>
<path d="M88.0144 82.8931L87.8857 83.1133L87.2948 82.7085L86.7021 83.8198L86.5733 83.7543L87.2948 82.3999L88.0144 82.8931Z" fill="#4F2E16"/>
<path d="M88.0585 85.4441L84.7682 87.4053C84.7189 87.4354 84.6805 87.4102 84.6805 87.3511C84.6821 87.3199 84.6909 87.2895 84.7062 87.2625C84.7214 87.2356 84.7427 87.2127 84.7682 87.196L88.0585 85.2348C88.1059 85.2048 88.1453 85.228 88.1453 85.2871C88.1436 85.3184 88.1349 85.349 88.1198 85.3762C88.1048 85.4034 88.0838 85.4267 88.0585 85.4441Z" fill="#4F2E16"/>
<path d="M88.0299 86.3016L84.7964 88.2308C84.4548 88.4333 84.1785 88.2696 84.1785 87.8626V84.007C84.1901 83.7855 84.252 83.57 84.3594 83.3779C84.4667 83.1858 84.6165 83.0225 84.7964 82.9014L88.0299 80.9732C88.3699 80.7716 88.6472 80.9354 88.6472 81.3414V85.2008C88.6354 85.4215 88.5733 85.6362 88.4661 85.8275C88.3588 86.0188 88.2093 86.1812 88.0299 86.3016V86.3016ZM84.7954 83.1136C84.6676 83.2001 84.5611 83.3163 84.4845 83.453C84.408 83.5896 84.3634 83.7429 84.3545 83.9005V87.757C84.3545 88.0476 84.5529 88.1649 84.7964 88.0205L88.0299 86.0922C88.1579 86.0057 88.2645 85.8894 88.341 85.7526C88.4175 85.6157 88.4618 85.4623 88.4703 85.3045L88.4713 81.4479C88.4703 81.1582 88.2729 81.04 88.0299 81.1843L84.7954 83.1136Z" fill="#4F2E16"/>
<path d="M91.2493 83.8511C91.2005 83.8811 91.1606 83.8579 91.1606 83.7988V81.0382C91.1622 81.0065 91.1711 80.9756 91.1865 80.9482C91.2019 80.9207 91.2235 80.8974 91.2493 80.8802C91.2976 80.8501 91.3375 80.8754 91.3375 80.9325L91.338 83.6951C91.336 83.7264 91.327 83.7569 91.3116 83.784C91.2962 83.8111 91.2748 83.834 91.2493 83.8511V83.8511Z" fill="#4F2E16"/>
<path d="M92.8663 83.4082L89.6333 85.3374C89.2913 85.5399 89.0145 85.3742 89.0145 84.9692V81.1117C89.0266 80.8904 89.0889 80.6751 89.1964 80.4832C89.3039 80.2913 89.4535 80.1282 89.6333 80.007L92.8663 78.0778C93.2064 77.8753 93.4831 78.041 93.4831 78.4479V82.3054C93.4715 82.5264 93.4095 82.7414 93.3023 82.933C93.1952 83.1246 93.0458 83.2874 92.8663 83.4082V83.4082ZM89.6323 80.2183C89.5043 80.3047 89.3977 80.4209 89.3211 80.5575C89.2444 80.6942 89.1998 80.8475 89.1909 81.0051V84.8636C89.1909 85.1533 89.3893 85.2715 89.6333 85.1252L92.8663 83.1989C92.9943 83.1122 93.1008 82.9956 93.1771 82.8586C93.2535 82.7216 93.2976 82.568 93.3058 82.4101L93.3067 78.5526C93.3058 78.2619 93.1097 78.1456 92.8663 78.2901L89.6323 80.2183Z" fill="#4F2E16"/>
<path d="M92.5844 81.0661C92.4577 80.5574 91.9083 80.4431 91.2493 80.8365C90.5892 81.2393 90.1094 81.8945 89.9138 82.6601L92.5844 81.0661Z" fill="#4F2E16"/>
<path d="M90.7834 80.765C90.7347 80.7951 90.6957 80.7699 90.6957 80.7117V80.0393C90.6968 80.0078 90.7054 79.9771 90.7207 79.9499C90.736 79.9227 90.7575 79.8998 90.7834 79.8832C90.8322 79.8522 90.8712 79.8764 90.8712 79.9336V80.607C90.8697 80.6386 90.8609 80.6694 90.8457 80.6969C90.8304 80.7243 90.8091 80.7477 90.7834 80.765V80.765Z" fill="#4F2E16"/>
<path d="M91.2493 80.4868C91.2005 80.5178 91.1606 80.4926 91.1606 80.4345V79.761C91.1627 79.7296 91.1718 79.6991 91.1871 79.6718C91.2025 79.6446 91.2238 79.6214 91.2493 79.6041C91.2976 79.576 91.3365 79.5972 91.3365 79.6564V80.3298C91.3352 80.3613 91.3266 80.3919 91.3114 80.4193C91.2962 80.4466 91.2749 80.4697 91.2493 80.4868Z" fill="#4F2E16"/>
<path d="M91.7132 80.2106C91.6654 80.2387 91.6265 80.2165 91.6265 80.1583V79.4839C91.6281 79.4525 91.6368 79.4218 91.6519 79.3944C91.6669 79.367 91.6879 79.3436 91.7132 79.326C91.763 79.2969 91.8019 79.3231 91.8019 79.3783V80.0537C91.8001 80.0852 91.7912 80.1159 91.7758 80.1431C91.7603 80.1704 91.7389 80.1935 91.7132 80.2106V80.2106Z" fill="#4F2E16"/>
<path d="M97.6619 80.5596L94.4269 82.4878C94.0869 82.6903 93.8092 82.5246 93.8101 82.1195L93.8092 78.262C93.8213 78.041 93.8835 77.8259 93.9908 77.6342C94.0981 77.4425 94.2475 77.2795 94.4269 77.1584L97.6614 75.2311C98.001 75.0277 98.2782 75.1934 98.2782 75.5974V79.4559C98.2661 79.6768 98.204 79.8917 98.097 80.0834C97.99 80.275 97.8409 80.4381 97.6619 80.5596V80.5596ZM94.4269 77.3696C94.2985 77.4562 94.1917 77.5728 94.1152 77.71C94.0386 77.8472 93.9945 78.0012 93.9864 78.1594V82.015C93.9864 82.3056 94.184 82.4219 94.4269 82.2785L97.6614 80.3502C97.7897 80.2636 97.8964 80.147 97.9727 80.0097C98.0491 79.8725 98.093 79.7185 98.1009 79.5605L98.1019 75.704C98.1019 75.4142 97.904 75.2951 97.6614 75.4404L94.4269 77.3696Z" fill="#4F2E16"/>
<path d="M96.0439 80.4723C95.9956 80.5014 95.9553 80.478 95.9553 80.4199V77.6583C95.9573 77.6266 95.9664 77.5958 95.9817 77.5682C95.9971 77.5407 96.0184 77.5172 96.0439 77.4995C96.0918 77.4704 96.1326 77.4956 96.1321 77.5527L96.1326 80.3153C96.1305 80.3468 96.1214 80.3773 96.1061 80.4045C96.0907 80.4318 96.0694 80.4549 96.0439 80.4723V80.4723Z" fill="#4F2E16"/>
<path d="M96.445 80.2329L95.6424 80.7105C95.5946 80.7396 95.5537 80.7173 95.5537 80.6601C95.5553 80.6283 95.5642 80.5973 95.5796 80.5697C95.595 80.5421 95.6165 80.5186 95.6424 80.5012L96.445 80.0226C96.4943 79.9935 96.5327 80.0177 96.5327 80.0749C96.5313 80.1065 96.5226 80.1373 96.5073 80.1648C96.4921 80.1923 96.4707 80.2156 96.445 80.2329Z" fill="#4F2E16"/>
<path d="M96.8962 76.7378V78.0285C96.8863 78.218 96.8333 78.4023 96.7414 78.5666C96.6495 78.731 96.5215 78.8706 96.3676 78.9742L95.7207 79.3599C95.428 79.5352 95.1916 79.3918 95.1916 79.044V77.7553L95.5124 77.5634V78.9452C95.5124 79.0033 95.5514 79.0265 95.6002 78.9984C95.626 78.9808 95.6474 78.9571 95.6628 78.9294C95.6782 78.9016 95.6871 78.8705 95.6888 78.8386V77.4578L96.8962 76.7378Z" fill="#4F2E16"/>

</svg>
