<svg width="310" height="414" viewBox="0 0 310 414" fill="none" xmlns="http://www.w3.org/2000/svg">

<defs>
<linearGradient id="paint0" x1="129.984" y1="320.091" x2="195.324" y2="131.275" gradientUnits="userSpaceOnUse">
<stop stop-color="#AA0009"/>
<stop offset="1" stop-color="#610009"/>
</linearGradient>
<linearGradient id="paint1" x1="133.059" y1="190.119" x2="149.122" y2="59.1322" gradientUnits="userSpaceOnUse">
<stop stop-color="white"/>
<stop offset="1" stop-color="white"/>
</linearGradient>
<linearGradient id="paint2" x1="129.884" y1="330.194" x2="186.575" y2="166.372" gradientUnits="userSpaceOnUse">
<stop stop-color="white"/>
<stop offset="1" stop-color="#EDF7FD"/>
</linearGradient>
<linearGradient id="paint3" x1="109.527" y1="379.198" x2="156.359" y2="243.866" gradientUnits="userSpaceOnUse">
<stop stop-color="#BE161D"/>
<stop offset="0.07925" stop-color="#C5171E"/>
<stop offset="0.30431" stop-color="#D41920"/>
<stop offset="0.57354" stop-color="#DC1A22"/>
<stop offset="1" stop-color="#DF1A22"/>
</linearGradient>
<linearGradient id="paint4" x1="113.311" y1="378.238" x2="133.065" y2="321.154" gradientUnits="userSpaceOnUse">
<stop/>
<stop offset="1" stop-color="#ED1C24"/>
</linearGradient>
<linearGradient id="paint5" x1="20.5563" y1="347.862" x2="30.9658" y2="317.781" gradientUnits="userSpaceOnUse">
<stop stop-color="#F47075"/>
<stop offset="1" stop-color="white"/>
</linearGradient>
<linearGradient id="paint6" x1="4076.08" y1="5802.57" x2="4076.08" y2="5260.53" gradientUnits="userSpaceOnUse">
<stop stop-color="#F47075"/>
<stop offset="1" stop-color="white"/>
</linearGradient>
</defs>

<path d="M198.14 132.249C173.672 123.781 35.4937 201.392 35.4937 201.392C35.0261 201.292 34.552 201.212 34.0593 201.125C33.1988 200.953 32.3318 200.8 31.4648 200.646L100.575 309.911L163.61 331.727L280.034 290.088C278.975 290.02 277.95 289.682 277.057 289.106C276.164 288.53 275.432 287.736 274.931 286.798C274.931 286.798 220.011 139.818 198.14 132.249Z" fill="url(#paint0)"/>
<path d="M58.5555 175.824L70.0432 55.3366C70.2276 53.4031 70.7967 51.5262 71.717 49.8167C72.6372 48.1072 73.89 46.5997 75.4014 45.3832C76.9128 44.1666 78.6521 43.2657 80.5167 42.7336C82.3813 42.2015 84.3334 42.049 86.2578 42.2851L214.159 57.9729C217.98 58.4416 221.459 60.4119 223.831 63.4503C226.202 66.4888 227.271 70.3464 226.803 74.1747L212.309 192.771C211.845 196.57 209.905 200.032 206.91 202.407C203.915 204.782 200.106 205.878 196.309 205.459L71.4148 191.661C67.6246 191.242 64.151 189.346 61.7447 186.383C59.3385 183.419 58.1929 179.626 58.5555 175.824Z" fill="#C5D7E1"/>
<path d="M216.848 77.0219L203.317 187.741C203.013 190.227 201.742 192.493 199.781 194.046C197.82 195.599 195.327 196.315 192.843 196.037L76.6339 183.199C74.156 182.923 71.8853 181.683 70.3107 179.747C68.7361 177.81 67.9837 175.332 68.2153 172.845L70.617 147.694L78.9466 60.3659C79.0672 59.1011 79.4395 57.8733 80.0415 56.755C80.6435 55.6367 81.463 54.6505 82.4517 53.8546C83.4404 53.0587 84.5782 52.4694 85.7979 52.1212C87.0177 51.773 88.2947 51.6732 89.5536 51.8275L208.58 66.4269C211.079 66.7335 213.354 68.022 214.905 70.0089C216.455 71.9959 217.154 74.5185 216.848 77.0219Z" fill="url(#paint1)"/>
<path d="M85.6496 183.976C85.6496 183.976 135.29 130.207 141.598 130.293C147.906 130.379 177.614 194.453 177.614 194.453L85.6496 183.976Z" fill="#A8C0CE"/>
<path d="M204.709 176.346L203.317 187.742C203.013 190.227 201.742 192.493 199.781 194.046C197.82 195.599 195.327 196.315 192.843 196.038L76.6339 183.199C74.156 182.923 71.8853 181.684 70.3107 179.747C68.7361 177.81 67.9837 175.332 68.2153 172.845L70.617 147.694C70.617 147.694 81.572 134.9 92.4302 123.319L92.4322 123.303C101.376 113.714 110.251 104.963 112.794 104.878C114.731 104.822 119.212 111.016 124.233 119.141L124.246 119.178C133.755 134.568 145.214 156.844 145.214 156.844C145.214 156.844 147.877 153.528 151.526 149.332L151.547 149.301C157.965 141.905 167.374 131.752 170.666 131.88C173.17 131.98 182.238 143.933 190.903 156.216L190.92 156.218C196.179 163.665 201.3 171.25 204.709 176.346Z" fill="#7898B1"/>
<path d="M179.077 109.376C178.759 111.978 177.678 114.427 175.971 116.413C174.264 118.399 172.007 119.833 169.486 120.535C166.965 121.236 164.293 121.173 161.808 120.353C159.323 119.533 157.137 117.993 155.525 115.928C153.914 113.863 152.95 111.366 152.755 108.752C152.56 106.138 153.143 103.525 154.431 101.244C155.718 98.9621 157.653 97.1142 159.988 95.9337C162.324 94.7532 164.957 94.2931 167.554 94.6117C169.279 94.8232 170.944 95.3729 172.457 96.2293C173.969 97.0858 175.298 98.2323 176.368 99.6033C177.438 100.974 178.228 102.543 178.693 104.22C179.157 105.897 179.288 107.649 179.077 109.376Z" fill="#C5D7E1"/>
<path d="M176.293 62.4673L214.003 100.309L218.273 65.3565L176.293 62.4673Z" fill="#C5D7E1"/>
<path d="M52.5178 286.118L94.5706 152.781C95.2455 150.641 96.3413 148.658 97.7935 146.95C99.2457 145.242 101.025 143.842 103.026 142.833C105.027 141.825 107.209 141.228 109.444 141.079C111.679 140.929 113.921 141.23 116.038 141.962L123.797 144.647L256.748 190.661C260.952 192.116 264.407 195.184 266.353 199.191C268.299 203.198 268.576 207.815 267.123 212.027L222.13 342.5C220.689 346.679 217.662 350.12 213.705 352.078C209.749 354.035 205.181 354.352 200.993 352.959L63.2237 307.124C59.0428 305.733 55.5761 302.75 53.5728 298.819C51.5696 294.889 51.1906 290.326 52.5178 286.118Z" fill="url(#paint2)"/>
<path d="M77.3834 279.417C96.4406 285.719 115.384 292.35 134.389 298.805C153.319 305.477 172.308 311.975 191.184 318.802C172.127 312.502 153.183 305.871 134.179 299.415C115.25 292.741 96.2597 286.244 77.3834 279.417Z" fill="black"/>
<path d="M273.285 268.946L291.506 252.847L295.518 260.178L279.871 271.228L273.285 268.946Z" fill="#ED1C24"/>
<path d="M90.8559 16.568L109.077 0.466309L113.089 7.79677L97.4425 18.8468L90.8559 16.568Z" fill="#ED1C24"/>
<path d="M21.0808 127.001L26.8489 120.252L15.8911 104.877L5.38503 108.24L21.0808 127.001Z" fill="#ED1C24"/>
<path d="M209.67 34.4568L215.441 27.7083L204.483 12.3335L193.977 15.6961L209.67 34.4568Z" fill="#ED1C24"/>
<path d="M235.926 93.9336L250.623 89.032L254.173 95.558L236.055 97.9144L235.926 93.9336Z" fill="#ED1C24"/>
<path d="M273.688 154.471L309.311 148.615L308.126 162.368L273.285 162.373L273.688 154.471Z" fill="#ED1C24"/>
<path d="M148.677 192.864C162.83 197.26 176.899 201.886 191.013 206.389C205.071 211.043 219.175 215.576 233.193 220.339C219.04 215.944 204.971 211.318 190.857 206.814C176.799 202.159 162.696 197.626 148.677 192.864Z" fill="black"/>
<path d="M127.55 186.766C127.197 186.648 126.813 186.84 126.695 187.193C126.577 187.549 125.628 190.392 125.509 190.749C125.392 191.101 125.007 191.293 124.655 191.176C124.303 191.058 121.492 190.121 121.139 190.003C120.787 189.886 120.595 189.501 120.712 189.149C120.831 188.792 121.779 185.949 121.898 185.593C122.015 185.24 121.823 184.856 121.471 184.738C121.259 184.668 119.589 184.111 119.376 184.04C119.024 183.922 119.008 183.69 119.339 183.525C119.984 183.206 125.112 180.639 125.756 180.32C126.088 180.155 126.496 180.291 126.662 180.622C126.982 181.263 129.547 186.395 129.867 187.035C130.033 187.367 129.88 187.543 129.528 187.425C129.132 187.293 127.746 186.831 127.55 186.766ZM129.037 177.756C128.718 178.713 127.683 179.227 126.73 178.909C125.773 178.59 125.258 177.56 125.577 176.603C125.895 175.65 126.927 175.13 127.884 175.45C128.837 175.767 129.355 176.803 129.037 177.756ZM136.679 185.876C132.697 177.909 130.484 173.482 130.045 172.597C129.644 171.8 128.662 171.473 127.867 171.871C126.537 172.535 115.916 177.844 114.586 178.509C113.785 178.909 113.459 179.886 113.86 180.687C114.524 182.017 119.833 192.638 120.498 193.968C120.896 194.763 121.877 195.091 122.676 194.694C124.002 194.028 134.627 188.721 135.953 188.055C136.754 187.654 137.08 186.677 136.679 185.876Z" fill="#ED1C24"/>
<path d="M110.991 200.646C130.048 206.948 148.992 213.579 167.996 220.034C186.926 226.706 205.915 233.204 224.791 240.031C205.734 233.731 186.79 227.1 167.786 220.644C148.857 213.97 129.867 207.473 110.991 200.646Z" fill="black"/>
<path d="M102.589 220.339C121.646 226.641 140.59 233.271 159.594 239.726C178.524 246.398 197.514 252.896 216.39 259.724C197.332 253.423 178.388 246.793 159.384 240.336C140.455 233.663 121.465 227.165 102.589 220.339Z" fill="black"/>
<path d="M94.1869 240.032C113.244 246.334 132.188 252.964 151.193 259.419C170.122 266.092 189.112 272.589 207.988 279.417C188.93 273.116 169.986 266.486 150.982 260.029C132.053 253.356 113.063 246.858 94.1869 240.032Z" fill="black"/>
<path d="M85.7852 259.724C104.842 266.026 123.786 272.657 142.791 279.112C161.72 285.784 180.71 292.282 199.586 299.11C180.528 292.809 161.584 286.178 142.58 279.722C123.651 273.048 104.662 266.551 85.7852 259.724Z" fill="black"/>
<path d="M280.034 290.087C280.034 290.087 251.015 366.417 222.562 413.705C222.562 413.705 104.522 380.308 0.240707 340.175C0.240707 340.175 8.04419 262.682 31.4648 200.646L100.575 309.911L163.61 331.727L280.034 290.087Z" fill="url(#paint3)"/>
<path d="M31.4655 200.647L35.4933 201.392L101.974 305.857L164.308 327.43L274.932 286.799L280.034 290.087L163.611 331.726L100.574 309.91L31.4655 200.647Z" fill="#F47075"/>
<path style="mix-blend-mode:screen" opacity="0.5" d="M5.38557 338.897L100.575 309.911L163.61 331.727L222.574 413.699C222.574 413.699 38.4958 355.039 5.38557 338.897Z" fill="url(#paint4)"/>
<path d="M101.974 305.857L98.7386 307.006L5.38503 338.896L100.574 309.91L101.974 305.857Z" fill="#9F1318"/>
<path d="M164.308 327.43L166.835 330.575L222.575 413.698L163.611 331.726L164.308 327.43Z" fill="#9F1318"/>
<path style="mix-blend-mode:multiply" opacity="0.5" d="M51.4502 324.87C51.4502 324.87 22.3155 338.351 21.062 348.037L0.240753 340.175L51.4502 324.87Z" fill="url(#paint5)"/>
<path style="mix-blend-mode:multiply" opacity="0.5" d="M191.094 369.935C191.094 369.935 206.523 394.159 204.227 408.373L222.574 413.699L191.094 369.935Z" fill="url(#paint6)"/>

</svg>
