<svg width="460" height="458" viewBox="0 0 460 458" fill="none" xmlns="http://www.w3.org/2000/svg">

<defs>
<linearGradient id="paint0" x1="225.27" y1="405.169" x2="223.052" y2="391.363" gradientUnits="userSpaceOnUse">
<stop stop-color="#B7B289"/>
<stop offset="0.24" stop-color="#B3AB86"/>
<stop offset="0.6" stop-color="#A7987C"/>
<stop offset="1" stop-color="#94796E"/>
</linearGradient>
<linearGradient id="paint1" x1="4349.05" y1="9406.42" x2="4584.14" y2="8825.59" gradientUnits="userSpaceOnUse">
<stop stop-color="#B7B289"/>
<stop offset="0.24" stop-color="#B3AB86"/>
<stop offset="0.6" stop-color="#A7987C"/>
<stop offset="1" stop-color="#94796E"/>
</linearGradient>
<linearGradient id="paint2" x1="4861.27" y1="9586.12" x2="4430.2" y2="9096.33" gradientUnits="userSpaceOnUse">
<stop stop-color="#B7B289"/>
<stop offset="0.24" stop-color="#B3AB86"/>
<stop offset="0.6" stop-color="#A7987C"/>
<stop offset="1" stop-color="#94796E"/>
</linearGradient>
<radialGradient id="paint3" cx="0" cy="0" r="1" gradientUnits="userSpaceOnUse" gradientTransform="translate(243.812 324.454) scale(34.0222)">
<stop stop-color="#100F23"/>
<stop offset="0.29" stop-color="#1E253D"/>
<stop offset="0.75" stop-color="#304360"/>
<stop offset="1" stop-color="#374F6D"/>
</radialGradient>
<linearGradient id="paint4" x1="13639.6" y1="6121.23" x2="13639.6" y2="5008.33" gradientUnits="userSpaceOnUse">
<stop offset="0.18" stop-color="#FBFAF2"/>
<stop offset="0.44" stop-color="#F2F0E5"/>
<stop offset="0.77" stop-color="#E1DECE"/>
</linearGradient>
<radialGradient id="paint5" cx="0" cy="0" r="1" gradientUnits="userSpaceOnUse" gradientTransform="translate(4816.8 4962.33) scale(291.571 1221.41)">
<stop offset="0.06" stop-color="#E30000"/>
<stop offset="0.73" stop-color="#F60000"/>
<stop offset="1" stop-color="#FF0000"/>
</radialGradient>
<radialGradient id="paint6" cx="0" cy="0" r="1" gradientUnits="userSpaceOnUse" gradientTransform="translate(17341.8 13863.3) scale(1242.05 2288.58)">
<stop stop-color="#100F23"/>
<stop offset="0.29" stop-color="#1E253D"/>
<stop offset="0.75" stop-color="#304360"/>
<stop offset="1" stop-color="#374F6D"/>
</radialGradient>
<radialGradient id="paint7" cx="0" cy="0" r="1" gradientUnits="userSpaceOnUse" gradientTransform="translate(173.944 195.17) scale(41.6648)">
<stop stop-color="#100F23"/>
<stop offset="0.19" stop-color="#484756"/>
<stop offset="0.48" stop-color="#96959E"/>
<stop offset="0.72" stop-color="#CFCED2"/>
<stop offset="0.9" stop-color="#F2F2F3"/>
<stop offset="1" stop-color="white"/>
</radialGradient>
<radialGradient id="paint8" cx="0" cy="0" r="1" gradientUnits="userSpaceOnUse" gradientTransform="translate(17721.3 12458.9) scale(1376.79 2929.09)">
<stop stop-color="#100F23"/>
<stop offset="0.29" stop-color="#1E253D"/>
<stop offset="0.75" stop-color="#304360"/>
<stop offset="1" stop-color="#374F6D"/>
</radialGradient>
<radialGradient id="paint9" cx="0" cy="0" r="1" gradientUnits="userSpaceOnUse" gradientTransform="translate(12150.1 7742.09) scale(480.008 906.973)">
<stop stop-color="#100F23"/>
<stop offset="0.29" stop-color="#1E253D"/>
<stop offset="0.75" stop-color="#304360"/>
<stop offset="1" stop-color="#374F6D"/>
</radialGradient>
<radialGradient id="paint10" cx="0" cy="0" r="1" gradientUnits="userSpaceOnUse" gradientTransform="translate(8565.47 4001.6) scale(241.946 353.862)">
<stop stop-color="#100F23"/>
<stop offset="0.29" stop-color="#1E253D"/>
<stop offset="0.75" stop-color="#304360"/>
<stop offset="1" stop-color="#374F6D"/>
</radialGradient>
<linearGradient id="paint11" x1="222.214" y1="131.709" x2="221.376" y2="113.022" gradientUnits="userSpaceOnUse">
<stop stop-color="#FABE82"/>
<stop offset="0.21" stop-color="#F7B47A"/>
<stop offset="0.57" stop-color="#EE9866"/>
<stop offset="1" stop-color="#E06E48"/>
</linearGradient>
<linearGradient id="paint12" x1="186.911" y1="76.5836" x2="172.513" y2="78.5559" gradientUnits="userSpaceOnUse">
<stop offset="0.06" stop-color="#D16E43"/>
<stop offset="0.18" stop-color="#DA8051"/>
<stop offset="0.45" stop-color="#EBA26C"/>
<stop offset="0.68" stop-color="#F6B67C"/>
<stop offset="0.83" stop-color="#FABE82"/>
</linearGradient>
<linearGradient id="paint13" x1="217.327" y1="57.4174" x2="227.09" y2="134.664" gradientUnits="userSpaceOnUse">
<stop offset="0.23" stop-color="#8C5A3C"/>
<stop offset="0.81" stop-color="#512214"/>
</linearGradient>
<linearGradient id="paint14" x1="210.098" y1="-2.94811" x2="218.636" y2="71.412" gradientUnits="userSpaceOnUse">
<stop offset="0.16" stop-color="#8C5A3C"/>
<stop offset="0.82" stop-color="#512214"/>
</linearGradient>
<linearGradient id="paint15" x1="220.963" y1="86.1815" x2="217.747" y2="57.2345" gradientUnits="userSpaceOnUse">
<stop offset="0.11" stop-color="#FABE82"/>
<stop offset="0.29" stop-color="#F8B97E"/>
<stop offset="0.51" stop-color="#F3A973"/>
<stop offset="0.75" stop-color="#EB9061"/>
<stop offset="1" stop-color="#E06E48"/>
</linearGradient>
<linearGradient id="paint16" x1="229.754" y1="68.7965" x2="214.329" y2="70.5104" gradientUnits="userSpaceOnUse">
<stop offset="0.1" stop-color="#8C5A3C"/>
<stop offset="0.92" stop-color="#512214"/>
</linearGradient>
<linearGradient id="paint17" x1="205.74" y1="76.6664" x2="202.472" y2="48.2058" gradientUnits="userSpaceOnUse">
<stop offset="0.11" stop-color="#FABE82"/>
<stop offset="0.28" stop-color="#F8B87E"/>
<stop offset="0.51" stop-color="#F2A771"/>
<stop offset="0.78" stop-color="#E98B5D"/>
<stop offset="1" stop-color="#E06E48"/>
</linearGradient>
<linearGradient id="paint18" x1="215.226" y1="41.7285" x2="220.114" y2="84.297" gradientUnits="userSpaceOnUse">
<stop offset="0.2" stop-color="#FABE82"/>
<stop offset="0.34" stop-color="#FAB87F"/>
<stop offset="0.53" stop-color="#F9A676"/>
<stop offset="0.74" stop-color="#F88A66"/>
<stop offset="0.97" stop-color="#F76252"/>
<stop offset="1" stop-color="#F75D4F"/>
</linearGradient>
<linearGradient id="paint19" x1="5684.74" y1="480.695" x2="5822.72" y2="480.695" gradientUnits="userSpaceOnUse">
<stop offset="0.2" stop-color="#FABE82"/>
<stop offset="0.34" stop-color="#FAB87F"/>
<stop offset="0.53" stop-color="#F9A676"/>
<stop offset="0.74" stop-color="#F88A66"/>
<stop offset="0.97" stop-color="#F76252"/>
<stop offset="1" stop-color="#F75D4F"/>
</linearGradient>
<linearGradient id="paint20" x1="15122.9" y1="-1132.16" x2="15135.4" y2="-1084.7" gradientUnits="userSpaceOnUse">
<stop offset="0.1" stop-color="#8C5A3C"/>
<stop offset="0.92" stop-color="#512214"/>
</linearGradient>
<linearGradient id="paint21" x1="3349.7" y1="-98.2881" x2="3397.99" y2="-103.833" gradientUnits="userSpaceOnUse">
<stop offset="0.1" stop-color="#8C5A3C"/>
<stop offset="0.92" stop-color="#512214"/>
</linearGradient>
<linearGradient id="paint22" x1="1890.03" y1="529.93" x2="1901.43" y2="529.455" gradientUnits="userSpaceOnUse">
<stop offset="0.06" stop-color="#D16E43"/>
<stop offset="0.18" stop-color="#DA8051"/>
<stop offset="0.45" stop-color="#EBA26C"/>
<stop offset="0.68" stop-color="#F6B67C"/>
<stop offset="0.83" stop-color="#FABE82"/>
</linearGradient>
<linearGradient id="paint23" x1="212.54" y1="39.9798" x2="205.159" y2="42.0354" gradientUnits="userSpaceOnUse">
<stop offset="0.06" stop-color="#D16E43"/>
<stop offset="0.11" stop-color="#D57B54"/>
<stop offset="0.3" stop-color="#E4AA91"/>
<stop offset="0.47" stop-color="#F0CFC0"/>
<stop offset="0.62" stop-color="#F8E9E2"/>
<stop offset="0.75" stop-color="#FDF9F7"/>
<stop offset="0.83" stop-color="white"/>
</linearGradient>
<linearGradient id="paint24" x1="143.802" y1="185.047" x2="144.118" y2="217.426" gradientUnits="userSpaceOnUse">
<stop offset="0.1" stop-color="#8C5A3C"/>
<stop offset="0.92" stop-color="#512214"/>
</linearGradient>
<linearGradient id="paint25" x1="7017.03" y1="1737.65" x2="7183.33" y2="1573.98" gradientUnits="userSpaceOnUse">
<stop offset="0.18" stop-color="#FBFAF2"/>
<stop offset="0.44" stop-color="#F2F0E5"/>
<stop offset="0.77" stop-color="#E1DECE"/>
</linearGradient>
<radialGradient id="paint26" cx="0" cy="0" r="1" gradientUnits="userSpaceOnUse" gradientTransform="translate(186.861 96.4059) scale(8.87539)">
<stop offset="0.06" stop-color="#D16E43"/>
<stop offset="0.21" stop-color="#DA8051"/>
<stop offset="0.54" stop-color="#EBA26C"/>
<stop offset="0.82" stop-color="#F6B67C"/>
<stop offset="1" stop-color="#FABE82"/>
</radialGradient>
<linearGradient id="paint27" x1="348.492" y1="189.596" x2="350.662" y2="212.426" gradientUnits="userSpaceOnUse">
<stop stop-color="#6CD759"/>
<stop offset="1" stop-color="#597E28"/>
</linearGradient>
<linearGradient id="paint28" x1="1470.76" y1="1793.07" x2="1418.47" y2="1886.86" gradientUnits="userSpaceOnUse">
<stop stop-color="#6CD759"/>
<stop offset="1" stop-color="#597E28"/>
</linearGradient>
<linearGradient id="paint29" x1="3066.61" y1="2974.2" x2="2913.5" y2="3138.19" gradientUnits="userSpaceOnUse">
<stop stop-color="#6CD759"/>
<stop offset="1" stop-color="#597E28"/>
</linearGradient>
<linearGradient id="paint30" x1="353.274" y1="194.971" x2="350.365" y2="222.633" gradientUnits="userSpaceOnUse">
<stop stop-color="#6CD759"/>
<stop offset="0.08" stop-color="#6AD055"/>
<stop offset="0.96" stop-color="#597E28"/>
</linearGradient>
<linearGradient id="paint31" x1="3518.91" y1="2272.62" x2="3592.85" y2="2404.81" gradientUnits="userSpaceOnUse">
<stop stop-color="#6CD759"/>
<stop offset="1" stop-color="#597E28"/>
</linearGradient>
<linearGradient id="paint32" x1="3632.44" y1="1673.29" x2="3693.07" y2="1752.24" gradientUnits="userSpaceOnUse">
<stop stop-color="#6CD759"/>
<stop offset="1" stop-color="#597E28"/>
</linearGradient>
<linearGradient id="paint33" x1="2379.27" y1="3020.09" x2="2487.95" y2="3100.07" gradientUnits="userSpaceOnUse">
<stop stop-color="#6CD759"/>
<stop offset="1" stop-color="#597E28"/>
</linearGradient>
<linearGradient id="paint34" x1="368.066" y1="191.57" x2="357.761" y2="227.417" gradientUnits="userSpaceOnUse">
<stop stop-color="#6CD759"/>
<stop offset="0.77" stop-color="#597E28"/>
</linearGradient>
<linearGradient id="paint35" x1="3149.39" y1="1400.08" x2="3122.68" y2="1437.01" gradientUnits="userSpaceOnUse">
<stop stop-color="#6CD759"/>
<stop offset="1" stop-color="#597E28"/>
</linearGradient>
<linearGradient id="paint36" x1="3374.15" y1="1689.36" x2="3316.84" y2="1756.41" gradientUnits="userSpaceOnUse">
<stop stop-color="#6CD759"/>
<stop offset="1" stop-color="#597E28"/>
</linearGradient>
<linearGradient id="paint37" x1="335.473" y1="234.22" x2="368.953" y2="234.22" gradientUnits="userSpaceOnUse">
<stop stop-color="#C97D00"/>
<stop offset="1" stop-color="#7E1F00"/>
</linearGradient>
<linearGradient id="paint38" x1="67.2924" y1="232.841" x2="96.8769" y2="232.841" gradientUnits="userSpaceOnUse">
<stop offset="0.07" stop-color="#DB0027"/>
<stop offset="0.63" stop-color="#9E0025"/>
<stop offset="0.7" stop-color="#980024"/>
<stop offset="0.79" stop-color="#870021"/>
<stop offset="0.9" stop-color="#6B001C"/>
<stop offset="0.91" stop-color="#67001B"/>
</linearGradient>
<linearGradient id="paint39" x1="3907.38" y1="17303" x2="6831.42" y2="15464.8" gradientUnits="userSpaceOnUse">
<stop stop-color="#B7B289"/>
<stop offset="0.24" stop-color="#B3AB86"/>
<stop offset="0.6" stop-color="#A7987C"/>
<stop offset="1" stop-color="#94796E"/>
</linearGradient>
<linearGradient id="paint40" x1="-1261.88" y1="21313.1" x2="-4187.42" y2="19471.3" gradientUnits="userSpaceOnUse">
<stop stop-color="#B7B289"/>
<stop offset="0.24" stop-color="#B3AB86"/>
<stop offset="0.6" stop-color="#A7987C"/>
<stop offset="1" stop-color="#94796E"/>
</linearGradient>
<linearGradient id="paint41" x1="5779.84" y1="17303" x2="8705.38" y2="15461.2" gradientUnits="userSpaceOnUse">
<stop stop-color="#B7B289"/>
<stop offset="0.24" stop-color="#B3AB86"/>
<stop offset="0.6" stop-color="#A7987C"/>
<stop offset="1" stop-color="#94796E"/>
</linearGradient>
<linearGradient id="paint42" x1="1.98771" y1="21313.1" x2="-2919.6" y2="19480.1" gradientUnits="userSpaceOnUse">
<stop stop-color="#B7B289"/>
<stop offset="0.24" stop-color="#B3AB86"/>
<stop offset="0.6" stop-color="#A7987C"/>
<stop offset="1" stop-color="#94796E"/>
</linearGradient>
<linearGradient id="paint43" x1="224.138" y1="184.32" x2="224.138" y2="250.392" gradientUnits="userSpaceOnUse">
<stop offset="0.11" stop-color="#9DA9AA"/>
<stop offset="0.3" stop-color="#8F9FA3"/>
<stop offset="0.65" stop-color="#6B868F"/>
<stop offset="1" stop-color="#416878"/>
</linearGradient>
</defs>

<path d="M459.433 445.849C459.433 445.849 356.578 457.091 229.759 457.091C102.94 457.091 0.134216 445.849 0.134216 445.849C0.134216 445.849 102.94 434.607 229.759 434.607C356.578 434.607 459.433 445.849 459.433 445.849Z" fill="#E0E0E0"/>
<path d="M178.083 389.341L177.294 397.231L270.239 394.321L269.401 389.785L178.083 389.341Z" fill="url(#paint0)"/>
<path d="M178.528 327.51L166.497 444.96H171.872L189.326 328.743L178.528 327.51Z" fill="url(#paint1)"/>
<path d="M269.401 327.51L281.481 444.96H276.057L258.652 328.743L269.401 327.51Z" fill="url(#paint2)"/>
<path d="M170.936 326.328C171.106 327.454 171.66 328.487 172.505 329.251C173.35 330.015 174.433 330.463 175.571 330.519L269.896 332.787C271.204 332.787 272.458 332.268 273.383 331.343C274.307 330.418 274.827 329.164 274.827 327.856V326.722C274.704 325.502 274.131 324.371 273.219 323.55C272.307 322.73 271.123 322.278 269.896 322.285L175.62 321.2C174.321 321.264 173.099 321.839 172.222 322.799C171.345 323.76 170.882 325.028 170.936 326.328Z" fill="#7C2D27"/>
<path d="M260.281 323.369C249.974 324.467 239.553 323.614 229.562 320.855L225.815 301.773C225.815 301.773 259.048 310.894 260.281 323.369Z" fill="url(#paint3)"/>
<path d="M218.96 430.463L218.368 441.656L220.439 442.494C220.439 442.494 215.508 448.51 237.006 449.151C237.604 447.8 237.832 446.315 237.666 444.847C237.501 443.379 236.948 441.982 236.066 440.798C235.183 439.614 234.001 438.686 232.641 438.109C231.282 437.532 229.793 437.327 228.328 437.514C227.198 435.758 226.287 433.87 225.616 431.893L218.96 430.463Z" fill="#100F23"/>
<path d="M174.78 288.064C171.871 307.146 172.71 320.854 183.064 323.368C193.63 325.336 204.297 326.718 215.015 327.51L216.889 432.338C216.889 432.338 228.723 434.606 228.723 432.338C228.723 430.069 242.43 338.949 241.198 323.861C239.965 308.773 217.086 302.265 217.086 302.265L217.53 291.516L174.78 288.064Z" fill="#222222"/>
<path d="M221.671 225.394C211.064 209.246 204.315 190.873 201.948 171.698L190.115 134.619L221.671 135.063C221.671 135.063 255.299 138.366 253.228 139.204C251.157 140.043 240.162 178.207 240.162 178.207C240.162 178.207 231.237 214.152 221.671 225.394Z" fill="url(#paint4)"/>
<path d="M229.315 203.106L230.35 213.757C227.813 217.889 224.909 221.783 221.672 225.393C218.414 221.777 215.478 217.883 212.896 213.757L213.931 203.106L218.862 153.799L210.973 146.304L221.771 134.717L232.619 146.501L224.729 153.996L229.315 203.106Z" fill="url(#paint5)"/>
<path d="M225.42 293.487C223.349 295.953 177.246 293.043 173.499 291.416C171.872 290.627 172.414 283.576 173.499 273.567C175.179 258.833 175.41 243.969 174.189 229.19C173.351 222.336 171.181 220.216 168.42 220.808C160.383 222.632 147.218 248.272 147.218 248.272C146.805 247.967 146.425 247.62 146.084 247.237C135.581 236.044 141.153 195.563 146.429 169.578V168.542C147.613 162.527 148.747 157.399 149.585 153.75C150.423 150.101 151.163 147.093 151.163 147.093L191.841 133.386C191.841 133.386 197.462 150.545 204.07 170.268C204.07 170.712 204.415 171.155 204.563 171.648C212.107 194.034 220.735 219.181 223.793 225.887C224.964 228.911 225.727 232.078 226.061 235.304C226.061 236.389 226.356 237.474 226.504 238.657C228.674 258.725 227.047 291.515 225.42 293.487Z" fill="url(#paint6)"/>
<path style="mix-blend-mode:multiply" opacity="0.5" d="M226.012 235.208C225.667 236.342 225.223 237.476 224.78 238.561C220.645 248.818 213.562 257.619 204.425 263.85C195.289 270.082 184.509 273.464 173.451 273.569H171.774C173.48 258.836 173.711 243.97 172.464 229.192C171.823 223.768 170.344 221.303 168.372 220.81C161.518 218.985 148.649 242.061 146.036 247.239C135.533 236.046 141.105 195.564 146.381 169.579V168.544C147.564 162.528 148.698 157.4 149.536 153.752C158.954 149.462 174.19 143.89 182.474 143.89C193.223 143.89 193.864 164.846 202.197 170.171L204.317 171.552C211.861 193.937 220.49 219.084 223.547 225.79C224.786 228.805 225.615 231.972 226.012 235.208V235.208Z" fill="url(#paint7)"/>
<path d="M221.672 225.393C218.414 221.777 215.477 217.883 212.895 213.757C205.351 202.268 196.426 186.441 196.722 183.038C197.138 179.613 198.121 176.28 199.631 173.177C199.631 173.177 192.975 173.621 191.742 170.711C190.509 167.802 184.691 134.175 184.691 134.175L192.136 127.518C192.136 127.518 204.315 172.585 213.93 203.205C216.938 212.426 219.65 220.413 221.672 225.393Z" fill="#266686"/>
<path d="M273.543 184.519C278.979 179.795 283.428 174.044 286.635 167.596C289.841 161.149 291.743 154.131 292.231 146.946L251.552 133.239C251.552 133.239 227.49 214.202 221.672 226.923C215.854 239.644 215.854 291.023 217.924 293.34C219.995 295.658 269.796 291.269 273.543 289.593C277.291 287.916 266.098 255.965 269.401 228.994C272.705 202.023 273.543 184.519 273.543 184.519Z" fill="url(#paint8)"/>
<path d="M172.414 262.425L172.315 266.715L187.551 269.378L188.143 265.532L172.414 262.425Z" fill="#1B2636"/>
<path d="M167.583 382.98C167.064 387.452 165.884 391.822 164.082 395.948L159.151 394.419L159.694 392.25C155.879 393.369 151.846 393.521 147.958 392.694C144.02 391.108 140.183 389.28 136.47 387.22C137.982 385.831 139.767 384.771 141.711 384.109C143.655 383.447 145.715 383.197 147.761 383.374C151.935 383.786 156.006 384.921 159.792 386.727L163.687 382.586L167.583 382.98Z" fill="#100F23"/>
<path d="M148.796 382.538C149.338 383.031 154.171 386.877 154.171 386.877H156.241L153.135 382.834L148.796 382.538Z" fill="#696A77"/>
<path d="M272.311 262.425L272.409 266.715L257.173 269.378L256.582 265.532L272.311 262.425Z" fill="#1B2636"/>
<path d="M227.687 307.984C220.193 324.6 168.518 391.018 168.518 391.018L160.235 383.523C160.235 383.523 200.075 290.578 209.197 280.618C218.319 270.658 268.366 281.407 273.938 293.882C279.509 306.357 269.401 322.924 260.674 323.466C248.199 323.91 227.687 307.984 227.687 307.984Z" fill="#333333"/>
<path d="M228.328 434.607C227.687 434.607 221.672 436.036 221.672 436.036L223.546 438.551L229.117 436.48L228.328 434.607Z" fill="#696A77"/>
<path d="M316.441 247.386C315.652 252.317 262.203 247.386 262.203 247.386L266.739 231.213L287.892 225.395L276.995 194.529L273.544 184.667C273.544 184.667 277.686 160.359 292.231 147.095C297.209 154.727 301.077 163.028 303.72 171.749C308.389 187.006 311.786 202.624 313.877 218.443C315.485 228.009 316.342 237.686 316.441 247.386V247.386Z" fill="url(#paint9)"/>
<path d="M313.877 218.441L287.646 225.64L276.996 194.527C284.047 188.363 297.803 176.382 303.72 171.697C308.391 186.971 311.789 202.606 313.877 218.441V218.441Z" fill="url(#paint10)"/>
<path d="M226.948 239.643C226.958 240.172 226.81 240.691 226.523 241.136C226.237 241.58 225.824 241.929 225.339 242.138C224.853 242.347 224.316 242.407 223.797 242.31C223.277 242.213 222.798 241.963 222.421 241.593C222.043 241.222 221.785 240.748 221.678 240.23C221.571 239.713 221.621 239.175 221.821 238.685C222.021 238.196 222.362 237.777 222.801 237.482C223.24 237.187 223.756 237.03 224.285 237.03C224.983 237.03 225.653 237.304 226.151 237.792C226.649 238.281 226.935 238.946 226.948 239.643Z" fill="black"/>
<path d="M226.801 266.91C226.713 267.548 226.398 268.132 225.913 268.555C225.428 268.978 224.806 269.211 224.163 269.211C223.519 269.211 222.897 268.978 222.412 268.555C221.928 268.132 221.612 267.548 221.525 266.91C221.612 266.273 221.928 265.688 222.412 265.265C222.897 264.842 223.519 264.609 224.163 264.609C224.806 264.609 225.428 264.842 225.913 265.265C226.398 265.688 226.713 266.273 226.801 266.91V266.91Z" fill="#1B2636"/>
<path d="M203.675 109.965C202.836 110.753 197.61 130.131 197.61 130.131L221.672 135.062L246.572 128.406L242.48 107.499L203.675 109.965Z" fill="url(#paint11)"/>
<path d="M184.249 65.588C184.249 65.588 173.204 66.3769 171.429 68.5958C169.654 70.8146 173.5 86.6423 175.521 88.3187C177.543 89.9952 188.39 88.3187 188.39 88.3187L184.249 65.588Z" fill="url(#paint12)"/>
<path d="M250.864 57.7505C250.864 57.7505 261.81 56.0248 263.98 57.7505C266.149 59.4763 266.05 75.7477 264.522 77.9173C262.993 80.0868 251.948 80.7278 251.948 80.7278L250.864 57.7505Z" fill="#FABE82"/>
<path d="M253.723 26.4382C253.279 30.2842 251.109 51.7822 251.06 51.9302C251.06 53.0642 251.06 54.7407 251.356 56.8609C252.342 70.4698 255.596 100.892 251.997 108.683C250.309 111.515 247.723 113.701 244.65 114.896C244.346 115.093 244.014 115.243 243.664 115.34C241.296 116.382 238.858 117.255 236.367 117.953C232.401 119.064 228.365 119.904 224.286 120.468H223.251H222.363C218.898 120.665 215.424 120.665 211.959 120.468C209.377 120.362 206.806 120.066 204.267 119.58H203.183C199.925 119.156 196.913 117.624 194.652 115.241C189.426 108.535 185.678 78.1124 183.558 64.6515C183.213 62.6299 182.967 61.0027 182.72 59.7207C182.72 59.7207 175.669 39.1595 174.338 35.5108C173.006 31.862 182.572 25.6493 182.572 25.6493C182.572 25.6493 173.549 13.9141 188.637 3.1651C190.338 1.95295 192.267 1.09756 194.307 0.650423V0.650423C195.186 0.454657 196.075 0.306518 196.97 0.206655V0.206655C203.472 -0.16472 209.979 0.860868 216.052 3.21441L217.285 3.65818C226.861 6.90742 235.742 11.925 243.467 18.4504C243.467 18.4504 254.167 22.6415 253.723 26.4382Z" fill="url(#paint13)"/>
<path d="M253.723 26.4382C253.279 30.2842 251.109 51.7822 251.06 51.9302C251.06 53.0642 251.06 54.7407 251.356 56.8609L183.558 64.6515C183.213 62.6299 182.967 61.0027 182.72 59.7207C182.72 59.7207 175.669 39.1595 174.338 35.5108C173.006 31.862 182.572 25.6493 182.572 25.6493C182.572 25.6493 173.549 13.9141 188.637 3.1651C190.338 1.95295 192.267 1.09756 194.307 0.650423V0.650423C195.186 0.454657 196.075 0.306518 196.97 0.206655V0.206655C203.472 -0.16472 209.979 0.860868 216.052 3.21441L217.285 3.65818C226.861 6.90742 235.742 11.925 243.467 18.4504C243.467 18.4504 254.167 22.6415 253.723 26.4382Z" fill="url(#paint14)"/>
<g style="mix-blend-mode:screen" opacity="0.5">
<g style="mix-blend-mode:screen" opacity="0.5">
<path d="M204.266 119.828H203.182C198.895 108.494 196.496 96.5347 196.081 84.4249H196.969C197.365 96.5556 199.833 108.529 204.266 119.828V119.828Z" fill="#BA5C47"/>
</g>
</g>
<g style="mix-blend-mode:screen" opacity="0.5">
<g style="mix-blend-mode:screen" opacity="0.5">
<path d="M243.662 115.144C244.012 115.047 244.344 114.898 244.649 114.7C246.3 102.709 245.934 90.5263 243.564 78.6564L242.726 78.9029C245.074 90.8445 245.391 103.097 243.662 115.144V115.144Z" fill="#BA5C47"/>
</g>
</g>
<g style="mix-blend-mode:screen" opacity="0.5">
<g style="mix-blend-mode:screen" opacity="0.5">
<path d="M201.554 28.5609V29.3991C192.432 26.342 187.206 19.9814 187.65 12.4866C187.8 10.0929 188.502 7.76629 189.699 5.68805C190.897 3.60981 192.557 1.83604 194.553 0.504925V0.504925C195.432 0.309159 196.32 0.16102 197.215 0.0611572C194.72 1.11897 192.564 2.84187 190.981 5.04178C189.399 7.24169 188.451 9.83407 188.241 12.5359C187.896 19.6362 192.876 25.6024 201.554 28.5609Z" fill="#BA5C47"/>
</g>
</g>
<g style="mix-blend-mode:screen" opacity="0.5">
<g style="mix-blend-mode:screen" opacity="0.5">
<path d="M222.757 26.1419V26.9802C219.125 26.0864 215.967 23.8501 213.917 20.7212C211.868 17.5924 211.08 13.8035 211.712 10.117C211.867 8.67064 212.376 7.28459 213.193 6.08085C214.01 4.87712 215.11 3.89262 216.396 3.21399L217.629 3.65776C216.281 4.202 215.108 5.10598 214.239 6.2711C213.369 7.43622 212.836 8.81773 212.698 10.265C212.049 13.6936 212.726 17.2411 214.594 20.189C216.461 23.1369 219.379 25.2649 222.757 26.1419V26.1419Z" fill="#BA5C47"/>
</g>
</g>
<g style="mix-blend-mode:screen" opacity="0.5">
<g style="mix-blend-mode:screen" opacity="0.5">
<path d="M223.25 120.322H222.362C220.318 111.548 218.95 102.63 218.269 93.6466H219.157C219.842 102.629 221.21 111.547 223.25 120.322V120.322Z" fill="#BA5C47"/>
</g>
</g>
<path d="M245.44 35.4131L243.221 28.9045C242.597 27.0595 241.351 25.4892 239.695 24.4635C238.04 23.4377 236.078 23.0205 234.149 23.2834C234.149 23.2834 218.863 26.8829 213.637 27.5239C208.41 28.1649 192.681 28.0169 192.681 28.0169C190.747 28.2118 188.939 29.0692 187.564 30.444C186.189 31.8188 185.332 33.6265 185.137 35.561L184.447 42.4147C183.308 53.8244 184.792 65.3433 188.786 76.0917L190.117 79.7404C190.764 81.4848 191.972 82.9645 193.552 83.9465C195.132 84.9284 196.994 85.3569 198.845 85.1643L216.99 83.2906L219.997 82.9454L223.005 82.6003L241.101 80.3322C242.951 80.0879 244.668 79.2404 245.988 77.9212C247.307 76.6019 248.154 74.8843 248.399 73.0346L248.892 69.1887C250.319 57.8141 249.139 46.2638 245.44 35.4131V35.4131Z" fill="#FABE82"/>
<path d="M240.903 49.6644C243.368 66.4289 240.903 70.3242 240.903 70.3242L220.243 73.5785C220.243 73.5785 217.926 75.2056 218.123 63.717C217.928 58.6491 218.392 53.5773 219.503 48.6289L230.006 47.9386L240.903 49.6644Z" fill="url(#paint15)"/>
<path d="M240.261 60.0177C239.638 61.9424 238.88 63.8208 237.992 65.6388C237.516 65.9322 236.973 66.1018 236.415 66.1319C233.857 66.5592 231.266 66.7572 228.673 66.7236C228.383 66.8033 228.076 66.8033 227.786 66.7236C226.997 66.3291 225.665 61.1518 225.665 61.1518C226.572 60.2703 227.658 59.594 228.849 59.1686C230.04 58.7433 231.308 58.5788 232.569 58.6864C235.193 58.648 237.802 59.0995 240.261 60.0177V60.0177Z" fill="white"/>
<path d="M236.415 66.1308C233.858 66.5581 231.267 66.7561 228.674 66.7224C228.091 66.0172 227.715 65.1636 227.589 64.2571C227.313 63.5537 227.202 62.7962 227.265 62.0431C227.327 61.29 227.563 60.5614 227.952 59.9136C228.341 59.2658 228.874 58.7162 229.51 58.3072C230.145 57.8982 230.866 57.6407 231.617 57.5546C232.368 57.4686 233.128 57.5563 233.84 57.811C234.551 58.0657 235.195 58.4805 235.721 59.0234C236.246 59.5664 236.64 60.2229 236.872 60.9423C237.103 61.6616 237.166 62.4246 237.056 63.1723C237.158 64.2013 236.934 65.2362 236.415 66.1308V66.1308Z" fill="#825035"/>
<path d="M225.666 60.9541L224.926 60.1652C224.926 60.1652 226.159 57.2068 232.027 56.9602C233.552 56.7877 235.096 56.9307 236.563 57.3802C238.031 57.8298 239.39 58.5764 240.557 59.5735L240.261 60.0173C237.635 58.7735 234.722 58.2624 231.829 58.5381C229.558 58.6092 227.381 59.4626 225.666 60.9541V60.9541Z" fill="url(#paint16)"/>
<path d="M191.94 55.334C191.94 71.9506 196.279 75.4514 196.279 75.4514L217.186 73.9722C216.696 67.1105 215.84 60.2799 214.622 53.5096C213.389 46.6066 211.417 46.6066 211.417 46.6066L200.618 48.9733L191.94 55.334Z" fill="url(#paint17)"/>
<path d="M222.756 75.4516C219.058 66.2804 217.825 43.7469 220.192 39.3092L209.443 40.0981C212.845 43.8455 217.036 66.5269 215.459 76.2898C212.747 75.0078 209.739 76.9308 210.922 79.4948C212.106 82.0588 216.543 82.7984 219.847 82.4039C223.151 82.0095 227.44 79.692 227.884 77.4732C228.328 75.2543 225.221 73.8244 222.756 75.4516Z" fill="url(#paint18)"/>
<path d="M207.965 90.2419C217.383 92.1156 228.625 90.8336 234.049 85.3112C232.894 87.604 231.227 89.6001 229.176 91.1446C227.126 92.6891 224.747 93.7405 222.225 94.2174C219.702 94.6942 217.104 94.5836 214.631 93.8942C212.158 93.2048 209.877 91.955 207.965 90.2419Z" fill="url(#paint19)"/>
<path d="M211.614 39.7516C212.65 43.4401 213.132 47.2621 213.044 51.0923C205.433 50.9216 197.945 53.0339 191.546 57.1571C190.689 55.5166 190.09 53.7536 189.77 51.9305C190.623 50.2539 191.757 48.7361 193.123 47.4436C193.74 48.3863 194.432 49.2768 195.194 50.1062C194.933 48.8726 194.604 47.6545 194.208 46.4574C198.202 43.3417 202.947 41.3348 207.965 40.6391L211.515 48.7749L210.627 39.9981L211.614 39.7516Z" fill="url(#paint20)"/>
<path d="M209.295 62.876C209.334 64.8769 209.068 66.872 208.507 68.7929C208.258 68.9714 207.971 69.0896 207.668 69.138V69.138C205.128 69.7616 202.537 70.1576 199.927 70.3214C199.393 70.455 198.834 70.455 198.3 70.3214C197.035 68.7609 195.882 67.1133 194.848 65.3906C196.444 62.9982 198.838 61.2507 201.603 60.4599C202.985 60.1494 204.424 60.2094 205.774 60.6336C207.125 61.0579 208.34 61.8314 209.295 62.876V62.876Z" fill="white"/>
<path d="M207.67 69.139C205.129 69.7626 202.539 70.1586 199.928 70.3224C199.248 69.5671 198.817 68.6199 198.696 67.6105C198.514 66.8194 198.53 65.9957 198.743 65.2124C198.956 64.4291 199.359 63.7105 199.916 63.1203C200.473 62.5301 201.168 62.0867 201.937 61.8293C202.707 61.5719 203.529 61.5085 204.329 61.6448C205.129 61.7811 205.883 62.1129 206.525 62.6106C207.166 63.1083 207.674 63.7567 208.005 64.498C208.335 65.2394 208.477 66.0509 208.419 66.8605C208.361 67.6701 208.103 68.4528 207.67 69.139V69.139Z" fill="#825035"/>
<path d="M209.295 62.8275L209.838 61.8907C208.71 60.9532 207.366 60.3132 205.928 60.0289C204.489 59.7447 203.003 59.8253 201.603 60.2635C200.126 60.3999 198.703 60.893 197.458 61.7003C196.212 62.5076 195.182 63.605 194.454 64.8984L194.848 65.2436C196.858 63.2729 199.454 62.0095 202.244 61.6441C204.661 61.2265 207.148 61.6438 209.295 62.8275V62.8275Z" fill="url(#paint21)"/>
<path d="M255.891 76.5352C257.907 76.298 259.792 75.416 261.266 74.0205C262.991 71.9989 261.709 60.7075 261.709 60.7075C261.709 60.7075 256.779 60.1158 255.497 61.6444C254.681 66.588 254.815 71.6417 255.891 76.5352V76.5352Z" fill="url(#paint22)"/>
<path style="mix-blend-mode:multiply" opacity="0.4" d="M183.608 84.8195C181.592 85.0663 179.55 84.6509 177.79 83.6361C175.67 82.0089 174.338 70.7668 174.338 70.7668C174.338 70.7668 179.269 68.9918 180.6 70.2738C182.55 74.8774 183.572 79.8203 183.608 84.8195V84.8195Z" fill="url(#paint23)"/>
<path d="M261.71 60.6576C261.71 60.6576 254.906 59.5728 254.61 61.1999C254.116 66.1618 254.517 71.172 255.793 75.9922V76.4359C255.322 71.6153 255.322 66.7602 255.793 61.9395C257.71 61.287 259.695 60.8568 261.71 60.6576V60.6576Z" fill="#CC6A5A"/>
<path d="M174.338 70.7654C174.338 70.7654 180.699 68.1521 181.389 69.6313C183.008 74.3896 183.759 79.3998 183.608 84.4235V84.8673C183.023 80.0742 181.966 75.3506 180.452 70.7654C178.421 70.531 176.37 70.531 174.338 70.7654V70.7654Z" fill="#CC6A5A"/>
<path d="M218.665 40.046C218.412 43.8191 218.727 47.609 219.602 51.2881C226.814 49.0645 234.529 49.0645 241.741 51.2881C242.263 49.5284 242.512 47.6993 242.481 45.8642C241.3 44.5004 239.88 43.364 238.29 42.5113C237.867 43.5949 237.373 44.6491 236.811 45.667C236.811 45.667 236.811 43.3989 236.811 41.8703C232.258 39.9963 227.289 39.3666 222.413 40.046L220.687 48.7734L219.701 40.1446L218.665 40.046Z" fill="url(#paint24)"/>
<path d="M246.572 124.116C244.107 125.793 221.672 134.915 221.672 134.915L233.703 153.997L253.426 134.274L246.572 124.116Z" fill="url(#paint25)"/>
<path d="M189.277 108.634C182.916 96.9976 183.458 84.8187 184.839 84.2763C186.22 83.7339 188.192 92.2641 189.277 96.7017C189.891 100.655 189.891 104.68 189.277 108.634V108.634Z" fill="url(#paint26)"/>
<path d="M187.208 92.1657C184.2 91.1303 185.236 105.429 191.35 113.319C194.259 117.066 190.955 123.673 190.955 123.673L197.612 126.188C198.882 124.559 199.798 122.682 200.299 120.678C200.8 118.673 200.875 116.587 200.521 114.551C198.844 108.733 194.259 107.5 192.188 102.52C190.117 97.5403 189.722 92.9547 187.208 92.1657Z" fill="#FABE82"/>
<path d="M258.603 134.076C258.603 134.076 252.785 167.704 251.552 170.613C250.319 173.522 243.663 173.078 243.663 173.078C245.173 176.181 246.156 179.514 246.572 182.94C246.868 186.342 237.943 202.17 230.35 213.658C227.813 217.79 224.909 221.685 221.672 225.295C223.693 220.364 226.603 212.327 229.314 203.008C238.929 172.388 251.158 127.321 251.158 127.321L258.603 134.076Z" fill="#266686"/>
<path d="M196.771 124.116C199.237 125.793 221.671 134.915 221.671 134.915L209.64 153.997L189.917 134.274L196.771 124.116Z" fill="#FBFAF2"/>
<path d="M188.242 119.826L201.95 126.039C201.95 126.039 182.67 220.413 178.381 231.606C174.091 242.799 151.015 251.97 146.873 248.222C142.731 244.475 135.335 212.524 188.242 119.826Z" fill="#374F6D"/>
<path d="M352.536 210.749C346.816 191.026 349.281 181.165 351.599 174.459C346 185.04 344.042 197.17 346.027 208.974C346.71 213.524 348.073 217.945 350.07 222.09L352.536 210.749Z" fill="url(#paint27)"/>
<path d="M358.156 180.772C359.044 189.109 358.878 197.525 357.663 205.82L354.557 206.954C353.911 202.854 353.911 198.678 354.557 194.578C356.388 190.164 357.599 185.518 358.156 180.772V180.772Z" fill="url(#paint28)"/>
<path d="M354.556 206.954C363.431 195.958 362.347 179.145 363.234 179.293C366.686 190.14 360.621 207.694 358.599 213.808C357.437 216.965 356.853 220.305 356.874 223.669L353.028 222.042L354.556 206.954Z" fill="url(#paint29)"/>
<path d="M346.469 221.992C347.258 211.243 352.238 213.511 352.682 202.663C353.051 196.719 353.051 190.758 352.682 184.814C352.682 184.814 355.641 187.23 355.789 205.03C355.936 222.83 350.858 226.134 350.858 226.134L346.469 221.992Z" fill="url(#paint30)"/>
<path d="M348.64 221.104C342.557 211.801 338.058 201.554 335.327 190.78C334.494 201.554 337.157 212.309 342.92 221.449C347.555 225.246 348.64 221.104 348.64 221.104Z" fill="url(#paint31)"/>
<path d="M343.708 220.958C340.37 213.462 335.615 206.681 329.705 200.988C334.024 207.612 337.675 214.648 340.602 221.993C344.3 225.642 343.708 220.958 343.708 220.958Z" fill="url(#paint32)"/>
<path d="M349.575 218.689C344.443 205.96 341.767 192.376 341.686 178.651C340.311 193.458 342.265 208.385 347.406 222.338C350.956 223.373 349.575 218.689 349.575 218.689Z" fill="url(#paint33)"/>
<path d="M361.311 223.373C362.254 212.276 365.62 201.521 371.172 191.866C364.405 200.755 359.264 210.77 355.986 221.45C353.865 230.424 356.824 225.099 356.824 225.099L361.311 223.373Z" fill="url(#paint34)"/>
<path d="M362.297 223.373C364.777 217.292 368.007 211.544 371.912 206.263C367.573 210.228 364.026 214.98 361.458 220.267C358.746 226.972 362.297 223.373 362.297 223.373Z" fill="url(#paint35)"/>
<path d="M371.419 201.036C364.466 200.444 358.993 223.668 358.993 223.668H361.064C361.064 223.668 366.537 203.945 371.419 201.036Z" fill="url(#paint36)"/>
<path d="M368.953 219.871C368.877 223.171 368.614 226.463 368.164 229.733C368.164 230.275 368.164 230.817 367.917 231.311L367.326 234.614C367.326 235.354 366.981 236.143 366.783 236.833C366.074 239.81 365.049 242.702 363.726 245.462C363.323 246.434 362.638 247.264 361.759 247.844C360.88 248.424 359.848 248.728 358.795 248.716H345.285C344.231 248.734 343.196 248.433 342.316 247.852C341.436 247.272 340.752 246.438 340.354 245.462C339.212 243.159 338.303 240.747 337.643 238.263C337.199 236.636 336.804 234.959 336.509 233.332C336.213 231.705 336.114 231.163 335.966 230.078C335.818 228.993 335.966 228.204 335.572 227.218C335.325 224.901 335.177 222.583 335.079 220.167L368.953 219.871Z" fill="url(#paint37)"/>
<g style="mix-blend-mode:screen" opacity="0.3">
<path d="M336.904 233.234L367.327 234.614C367.327 235.354 366.981 236.143 366.784 236.833L338.038 238.263C337.594 236.438 337.2 234.762 336.904 233.234Z" fill="#DCAA66"/>
</g>
<g style="mix-blend-mode:screen" opacity="0.3">
<path d="M368.165 229.536C368.165 230.079 368.165 230.621 367.918 231.114L336.164 229.783C336.164 228.846 336.164 227.909 335.77 226.923L368.165 229.536Z" fill="#DCAA66"/>
</g>
<path d="M70.1991 227.566C70.1991 227.566 61.6689 221.846 60.0418 223.375C58.4146 224.903 60.0418 240.829 61.3238 243.097C62.6057 245.366 71.6291 240.238 71.6291 240.238V238.561C69.4025 239.627 66.9446 240.118 64.4794 239.991C62.2113 239.301 62.3592 226.629 63.6412 226.629C66.1862 227.362 68.6613 228.319 71.0373 229.489L70.1991 227.566Z" fill="#DB0027"/>
<path d="M71.1877 248.816L67.2924 219.232C76.8523 215.783 87.317 215.783 96.8769 219.232C94.8553 225.198 91.5517 247.781 91.5517 247.781L71.1877 248.816Z" fill="url(#paint38)"/>
<path d="M81.4435 212.082C81.4435 212.082 72.371 208.976 73.1599 204.834C73.9488 200.692 80.0136 201.629 81.9859 199.903C83.9582 198.178 77.5975 191.965 77.5975 191.965C77.5975 191.965 89.8258 195.416 89.6286 200.939C89.4313 206.461 80.1615 204.292 78.1892 205.87C76.2169 207.447 81.4435 212.082 81.4435 212.082Z" fill="#CCC7DF"/>
<path d="M47.2215 253.599L31.8376 446.095H34.2043L57.3295 253.599H47.2215Z" fill="url(#paint39)"/>
<path d="M86.9161 253.599L102.349 446.095H99.9826L76.8574 253.599H86.9161Z" fill="url(#paint40)"/>
<path d="M350.71 253.599L335.276 446.095H337.643L360.768 253.599H350.71Z" fill="url(#paint41)"/>
<path d="M390.402 253.599L405.786 446.095H403.42L380.344 253.599H390.402Z" fill="url(#paint42)"/>
<path d="M399.377 247.83H39.0873V255.917H399.377V247.83Z" fill="#222138"/>
<path d="M278.474 184.518H169.998C169.634 184.521 169.276 184.602 168.946 184.755C168.616 184.908 168.322 185.13 168.084 185.405C167.846 185.68 167.67 186.003 167.566 186.351C167.463 186.7 167.434 187.066 167.483 187.427L175.323 245.61C175.417 246.224 175.727 246.785 176.196 247.191C176.666 247.598 177.266 247.824 177.887 247.828H270.585C271.204 247.833 271.802 247.609 272.266 247.199C272.73 246.79 273.027 246.224 273.1 245.61L280.989 187.427C281.038 187.066 281.01 186.7 280.906 186.351C280.803 186.003 280.626 185.68 280.388 185.405C280.15 185.13 279.857 184.908 279.527 184.755C279.197 184.602 278.838 184.521 278.474 184.518V184.518Z" fill="url(#paint43)"/>

</svg>
