<svg width="262" height="355" viewBox="0 0 262 355" className="absolute top-1/2 transform -translate-y-1/3 sm:-translate-y-1/2 left-1/2 -translate-x-1/2 z-0" fill="none" xmlns="http://www.w3.org/2000/svg">
                <g opacity="0.6">
                <path d="M123.859 0.828864C132.219 -0.639453 141.061 0.400827 148.75 4.04182C157.652 8.12168 165.037 15.4416 169.127 24.3436C172.806 32.0049 173.917 40.831 172.465 49.1966C170.704 59.5669 164.804 69.1625 156.373 75.453C150.175 80.1234 142.649 83.0438 134.901 83.6723C125.652 84.5338 116.16 82.1389 108.395 77.0513C100.685 72.0449 94.6929 64.427 91.7346 55.7146C88.2237 45.7561 88.7492 34.4647 93.0945 24.8475C98.594 12.4399 110.476 3.14241 123.859 0.828864Z" fill="white"></path>
                <path d="M129.228 106.074C134.083 105.397 139.132 107.223 142.519 110.745C180.646 148.839 218.741 186.967 256.863 225.073C258.765 226.964 260.786 228.914 261.702 231.51C262.292 233.232 261.691 235.378 260.055 236.288C257.503 237.903 254.36 237.67 251.478 237.692C236.112 237.697 220.751 237.67 205.391 237.702C199.122 237.881 193.346 242.34 191.401 248.273C190.35 251.248 190.599 254.45 190.578 257.555C190.567 285.008 190.589 312.462 190.567 339.916C190.41 347.756 183.361 354.556 175.559 354.631C147.038 354.669 118.516 354.642 89.9953 354.648C82.0307 354.767 74.8354 347.832 74.6349 339.872C74.6132 311.167 74.6295 282.462 74.6295 253.756C74.6674 250.549 73.8438 247.276 72.0125 244.621C69.3414 240.487 64.5517 237.832 59.6429 237.692C42.4945 237.675 25.3406 237.708 8.1922 237.675C5.49939 237.6 2.10762 237.182 0.736832 234.5C-0.227598 231.65 1.80963 228.936 3.70056 227.007C42.3211 188.511 80.8333 149.912 119.394 111.368C121.924 108.523 125.441 106.556 129.228 106.074Z" fill="white"></path>
                </g>
            </svg>