<svg width="114" height="143" viewBox="0 0 114 143" fill="none" xmlns="http://www.w3.org/2000/svg">

<defs>
<linearGradient id="paint0" x1="57.146" y1="25.4285" x2="57.146" y2="80.3252" gradientUnits="userSpaceOnUse">
<stop stop-color="#ED1C24"/>
<stop offset="0.576134" stop-color="#ED1C24" stop-opacity="0"/>
</linearGradient>
</defs>

<path d="M35.3975 61.3252H79.5424V49.7066H55.3734V49.328L62.5076 42.7471C75.4366 31.4779 78.8144 25.7414 78.8144 18.8983C78.8144 8.15332 70.0495 0.873489 56.509 0.873489C43.318 0.873489 34.4948 8.47363 34.5239 20.6164H48.1809C48.1809 15.2293 51.5005 12.1135 56.4508 12.1135C61.3137 12.1135 64.8371 15.1128 64.8371 20.034C64.8371 24.4893 62.0417 27.5177 57.1496 31.9147L35.3975 50.9587V61.3252Z" fill="url(#paint0)"/>
<path d="M82.6759 60.2578L74.7263 55.6877L56.5805 45.2498L11.7665 71.0272L29.9409 81.4864L37.8602 86.0432L57.5638 97.3753L102.358 71.6004L102.378 71.588L82.6759 60.2578Z" fill="#FFDDA8"/>
<path d="M56.5805 45.9431L12.98 71.0274L57.5674 96.4832L101.166 71.5882L56.5805 45.9431Z" fill="#DDA866"/>
<path d="M56.5806 45.9431V91.1832L61.9998 93.9884L101.166 71.5883L56.5806 45.9431Z" fill="#AA6838"/>
<path d="M57.5635 97.3648V141.759L37.9028 130.541L29.9409 126.003L11.766 115.627V71.0269L29.9409 81.4864L37.9028 86.0527L57.5635 97.3648Z" fill="#BC7C46"/>
<path d="M57.5674 97.372V141.756L102.36 116.152V71.6006L57.5674 97.372Z" fill="#DDA866"/>
<path d="M84.1588 94.7414L83.8404 94.9251V89.4581L84.1588 89.2773V94.7414Z" fill="#4F2E16"/>
<path d="M85.2829 89.8284L85.06 90.2085L84.0001 89.5072L82.9431 91.4274L82.7114 91.3115L84.0001 88.9739L85.2829 89.8284Z" fill="#4F2E16"/>
<path d="M87.3111 92.9272L86.9955 93.1128V87.6468L87.3111 87.4651V92.9272Z" fill="#4F2E16"/>
<path d="M88.445 88.0152L88.2073 88.3973L87.1582 87.693L86.0963 89.6103L85.8607 89.4983L87.1582 87.1606L88.445 88.0152Z" fill="#4F2E16"/>
<path d="M88.5231 92.4143L82.6326 95.8006C82.5471 95.8503 82.4775 95.8121 82.4775 95.7091C82.4804 95.6551 82.4959 95.6026 82.5228 95.5557C82.5498 95.5087 82.5874 95.4688 82.6326 95.439L88.5231 92.0535C88.6052 92.002 88.6748 92.0428 88.6748 92.1451C88.6718 92.1985 88.6565 92.2505 88.6302 92.2972C88.604 92.3438 88.5673 92.3839 88.5231 92.4143Z" fill="#4F2E16"/>
<path d="M88.4714 93.8951L82.6862 97.2245C82.0743 97.5765 81.5782 97.2911 81.5782 96.5891V89.9365C81.599 89.5542 81.7103 89.1823 81.9028 88.851C82.0954 88.5198 82.3638 88.2385 82.6862 88.0301L88.4714 84.7008C89.0762 84.3522 89.5705 84.6358 89.5705 85.3371V91.995C89.5495 92.3753 89.4391 92.7454 89.2481 93.0754C89.0572 93.4055 88.7912 93.6862 88.4714 93.8951V93.8951ZM82.6862 88.3936C82.4564 88.5427 82.2651 88.7435 82.1278 88.9799C81.9905 89.2163 81.911 89.4816 81.8957 89.7543V96.4069C81.8957 96.91 82.2509 97.1117 82.6862 96.8619L88.4714 93.5334C88.7006 93.3849 88.8909 93.1842 89.0268 92.9479C89.1627 92.7116 89.2402 92.4465 89.253 92.1745L89.2601 85.521C89.2601 85.0197 88.9032 84.8153 88.4714 85.0634L82.6862 88.3936Z" fill="#4F2E16"/>
<path d="M97.7182 88.5518L91.9313 91.8803C91.3228 92.2314 90.8304 91.9451 90.8304 91.2474V84.5922C90.8511 84.2106 90.9615 83.8391 91.1527 83.5078C91.3439 83.1765 91.6106 82.8946 91.9313 82.6848L97.7182 79.3609C98.3267 79.0106 98.8156 79.2941 98.8156 79.9918V86.6498C98.7957 87.0305 98.686 87.4011 98.4953 87.7316C98.3046 88.0621 98.0384 88.3431 97.7182 88.5518V88.5518ZM91.9313 83.051C91.7013 83.1991 91.5099 83.3995 91.373 83.6358C91.2362 83.8722 91.1578 84.1375 91.1443 84.41V91.067C91.1443 91.5646 91.4924 91.7693 91.9313 91.5211L97.7182 88.1917C97.9473 88.0418 98.138 87.8404 98.2749 87.6038C98.4119 87.3672 98.4913 87.102 98.5068 86.8293V80.174C98.5068 79.6754 98.1483 79.4692 97.7182 79.7216L91.9313 83.051Z" fill="#4F2E16"/>
<path d="M94.8238 88.4042C94.7328 88.454 94.6597 88.4149 94.6597 88.3117V83.5487C94.6631 83.4933 94.6797 83.4395 94.7083 83.3919C94.7368 83.3442 94.7764 83.3041 94.8238 83.2749C94.9077 83.2252 94.9773 83.2671 94.9773 83.3648V88.134C94.9741 88.1877 94.9586 88.24 94.932 88.2868C94.9054 88.3336 94.8684 88.3738 94.8238 88.4042V88.4042Z" fill="#4F2E16"/>
<path d="M95.5359 87.9926L94.1048 88.8157C94.0191 88.8672 93.9442 88.8264 93.9442 88.7268C93.9474 88.6719 93.9636 88.6186 93.9915 88.5712C94.0194 88.5237 94.0583 88.4836 94.1048 88.454L95.5359 87.6281C95.6232 87.5785 95.6947 87.6203 95.6947 87.7197C95.6908 87.7742 95.6745 87.8271 95.647 87.8744C95.6194 87.9217 95.5815 87.9621 95.5359 87.9926V87.9926Z" fill="#4F2E16"/>
<path d="M96.3459 81.9604V84.1868C96.3298 84.514 96.2358 84.8327 96.0717 85.1166C95.9075 85.4005 95.678 85.6414 95.402 85.8195L94.2439 86.4817C93.7229 86.7857 93.3017 86.5403 93.3017 85.9395V83.7132L93.8746 83.3851V85.7679C93.8746 85.8657 93.9442 85.9092 94.0297 85.8586C94.0761 85.8287 94.1149 85.7885 94.1431 85.7411C94.1713 85.6938 94.188 85.6406 94.1922 85.5857V83.2019L96.3459 81.9604Z" fill="#4F2E16"/>
<path d="M56.5804 90.8723L52.2086 93.3893L57.628 96.4832L61.9997 93.9884L56.5804 90.8723Z" fill="#C68B51"/>
<path d="M56.5805 45.9431L12.98 71.1527L57.628 96.4832L101.166 71.5882L56.5805 45.9431Z" fill="#F9C98A"/>
<path d="M77.9578 57.5451L32.7913 83.1267L32.4019 82.8979L77.6009 57.3103L77.9578 57.5451Z" fill="#BC7C46"/>

</svg>
