<svg width="113" height="142" viewBox="0 0 113 142" fill="none" xmlns="http://www.w3.org/2000/svg">

<defs>
<linearGradient id="paint" x1="56.2012" y1="25.2386" x2="56.2012" y2="80.1353" gradientUnits="userSpaceOnUse">
<stop stop-color="#ED1C24"/>
<stop offset="0.576134" stop-color="#ED1C24" stop-opacity="0"/>
</linearGradient>
</defs>

<path d="M55.9355 61.9506C69.9127 61.9506 79.8424 54.5543 79.8133 44.1878C79.8424 36.8497 75.0377 31.6083 65.836 30.5309V30.0649C72.7373 29.0749 77.6294 24.4449 77.6002 17.7475C77.6294 8.02161 68.8353 0.683547 56.0519 0.683547C43.1812 0.683547 33.8048 8.1381 33.6883 18.7375H47.4617C47.5782 14.6608 51.2472 11.9236 56.0519 11.9236C60.6237 11.9236 63.7394 14.6899 63.7103 18.6793C63.7394 22.8142 60.0704 25.6679 54.7707 25.6679H48.9759V35.9179H54.7707C60.7984 35.9179 64.7295 38.8881 64.6713 43.0813C64.7295 47.3036 61.1187 50.2446 55.9937 50.2446C50.8978 50.2446 47.1414 47.5365 46.9958 43.6054H32.4944C32.6109 54.3796 42.3076 61.9506 55.9355 61.9506Z" fill="url(#paint)"/>
<path d="M81.5206 59.3208L73.5905 54.7104L55.4918 44.1797L10.7922 70.1896L28.9227 80.7434L36.8199 85.3421L56.4715 96.7771L101.151 70.7685L101.172 70.757L81.5206 59.3208Z" fill="#FFDDA8"/>
<path d="M55.4918 44.8777L12.002 70.1897L36.3002 84.3267L45.3988 89.6133L56.4747 95.8757L65.5715 90.771L99.9639 70.7557L55.4918 44.8777Z" fill="#F9C98A"/>
<path d="M56.4715 96.767V141.562L36.8615 130.241L28.9227 125.663L10.7919 115.194V70.1897L28.9227 80.7436L36.8615 85.3509L56.4715 96.767Z" fill="#BC7C46"/>
<path d="M56.4747 96.7746V141.56L101.153 115.722V70.7686L56.4747 96.7746Z" fill="#DDA866"/>
<path d="M80.7655 94.3974L80.5277 94.5387V90.3525L80.7655 90.2141V94.3974Z" fill="#4F2E16"/>
<path d="M81.6219 90.6341L81.4469 90.9258L80.6471 90.3895L79.8463 91.8591L79.6703 91.7709L80.6471 89.9805L81.6219 90.6341Z" fill="#4F2E16"/>
<path d="M83.1518 93.01L82.9141 93.1493V88.964L83.1518 88.8257V93.01Z" fill="#4F2E16"/>
<path d="M84.0102 89.2446L83.8352 89.5363L83.0344 89.001L82.2327 90.4696L82.0576 90.3824L83.0344 88.593L84.0102 89.2446Z" fill="#4F2E16"/>
<path d="M84.0691 92.6162L79.6125 95.2083C79.5458 95.248 79.4937 95.2147 79.4937 95.1365C79.4959 95.0953 79.5078 95.0552 79.5285 95.0195C79.5491 94.9839 79.578 94.9537 79.6125 94.9316L84.0691 92.3396C84.1332 92.2999 84.1867 92.3306 84.1867 92.4087C84.1844 92.4501 84.1726 92.4905 84.1522 92.5265C84.1318 92.5625 84.1033 92.5932 84.0691 92.6162V92.6162Z" fill="#4F2E16"/>
<path d="M84.0303 93.7497L79.6507 96.2994C79.1881 96.5671 78.8138 96.3507 78.8138 95.8128V90.7171C78.8295 90.4244 78.9134 90.1395 79.0588 89.8856C79.2042 89.6317 79.407 89.416 79.6507 89.2559L84.0303 86.7075C84.4909 86.441 84.8665 86.6575 84.8665 87.1941V92.2949C84.8505 92.5866 84.7664 92.8703 84.6211 93.1231C84.4758 93.3759 84.2734 93.5906 84.0303 93.7497V93.7497ZM79.6494 89.5364C79.4762 89.6507 79.332 89.8043 79.2283 89.9849C79.1246 90.1655 79.0643 90.368 79.0522 90.5763V95.6732C79.0522 96.0573 79.3209 96.2124 79.6507 96.0215L84.0303 93.473C84.2037 93.3587 84.3481 93.205 84.4518 93.0241C84.5554 92.8433 84.6154 92.6404 84.6269 92.4319L84.6282 87.3349C84.6269 86.952 84.3595 86.7957 84.0303 86.9865L79.6494 89.5364Z" fill="#4F2E16"/>
<path d="M88.391 90.5107C88.3249 90.5504 88.2709 90.5197 88.2709 90.4416V86.793C88.2731 86.7511 88.2851 86.7104 88.306 86.6741C88.3269 86.6378 88.356 86.607 88.391 86.5843C88.4565 86.5445 88.5105 86.5778 88.5105 86.6534L88.5111 90.3045C88.5085 90.346 88.4962 90.3862 88.4754 90.422C88.4545 90.4578 88.4256 90.4882 88.391 90.5107V90.5107Z" fill="#4F2E16"/>
<path d="M90.5812 89.9256L86.2022 92.4754C85.7389 92.743 85.364 92.524 85.364 91.9887V86.8904C85.3804 86.5979 85.4648 86.3134 85.6104 86.0598C85.756 85.8062 85.9587 85.5906 86.2022 85.4305L90.5812 82.8808C91.0418 82.6131 91.4167 82.8321 91.4167 83.3699V88.4682C91.4009 88.7602 91.317 89.0443 91.1718 89.2976C91.0266 89.5508 90.8243 89.766 90.5812 89.9256V89.9256ZM86.2009 85.7097C86.0275 85.8239 85.8831 85.9774 85.7793 86.158C85.6754 86.3386 85.615 86.5412 85.6029 86.7496V91.8492C85.6029 92.232 85.8718 92.3883 86.2022 92.1949L90.5812 89.6489C90.7546 89.5344 90.8988 89.3804 91.0022 89.1993C91.1056 89.0182 91.1653 88.8152 91.1765 88.6065L91.1778 83.5083C91.1765 83.124 90.9109 82.9703 90.5812 83.1613L86.2009 85.7097Z" fill="#4F2E16"/>
<path d="M90.1994 86.8303C90.0277 86.1579 89.2837 86.0069 88.391 86.5268C87.497 87.0592 86.8471 87.9251 86.5821 88.937L90.1994 86.8303Z" fill="#4F2E16"/>
<path d="M87.76 86.4321C87.6941 86.4719 87.6412 86.4386 87.6412 86.3617V85.473C87.6427 85.4314 87.6544 85.3909 87.6751 85.3549C87.6958 85.3189 87.725 85.2886 87.76 85.2667C87.8261 85.2258 87.879 85.2578 87.879 85.3333V86.2234C87.8769 86.2651 87.865 86.3058 87.8443 86.3421C87.8236 86.3784 87.7948 86.4092 87.76 86.4321V86.4321Z" fill="#4F2E16"/>
<path d="M88.391 86.0644C88.3249 86.1054 88.2709 86.0721 88.2709 85.9953V85.1053C88.2737 85.0637 88.286 85.0233 88.3068 84.9874C88.3277 84.9514 88.3565 84.9207 88.391 84.8978C88.4565 84.8607 88.5092 84.8888 88.5092 84.9669V85.8569C88.5074 85.8985 88.4957 85.9391 88.4751 85.9752C88.4546 86.0113 88.4257 86.0419 88.391 86.0644V86.0644Z" fill="#4F2E16"/>
<path d="M89.0194 85.6995C88.9546 85.7366 88.9019 85.7072 88.9019 85.6304V84.739C88.9042 84.6975 88.9159 84.657 88.9363 84.6208C88.9567 84.5845 88.9851 84.5536 89.0194 84.5303C89.0868 84.4918 89.1395 84.5265 89.1395 84.5994V85.492C89.1371 85.5337 89.125 85.5742 89.1041 85.6103C89.0832 85.6463 89.0542 85.6769 89.0194 85.6995Z" fill="#4F2E16"/>
<path d="M97.0766 86.1606L92.695 88.709C92.2344 88.9767 91.8583 88.7577 91.8594 88.2224L91.8583 83.1241C91.8746 82.8319 91.9589 82.5477 92.1042 82.2943C92.2495 82.041 92.4519 81.8256 92.695 81.6655L97.0759 79.1182C97.5359 78.8494 97.9115 79.0684 97.9115 79.6024V84.7019C97.895 84.9939 97.8109 85.2779 97.666 85.5312C97.521 85.7845 97.3191 86.0001 97.0766 86.1606ZM92.695 81.9446C92.5211 82.059 92.3764 82.2132 92.2727 82.3945C92.169 82.5759 92.1093 82.7794 92.0984 82.9884V88.0841C92.0984 88.4682 92.3659 88.6219 92.695 88.4324L97.0759 85.8839C97.2497 85.7695 97.3942 85.6153 97.4977 85.4339C97.6011 85.2525 97.6606 85.0491 97.6712 84.8402L97.6725 79.7432C97.6725 79.3603 97.4045 79.2028 97.0759 79.3949L92.695 81.9446Z" fill="#4F2E16"/>
<path d="M94.8851 86.0452C94.8197 86.0836 94.7652 86.0528 94.7652 85.9759V82.3261C94.7679 82.2842 94.7801 82.2435 94.8009 82.2071C94.8217 82.1707 94.8505 82.1396 94.8851 82.1162C94.9499 82.0777 95.0052 82.111 95.0046 82.1866L95.0052 85.8377C95.0024 85.8793 94.9902 85.9197 94.9693 85.9557C94.9485 85.9916 94.9197 86.0223 94.8851 86.0452V86.0452Z" fill="#4F2E16"/>
<path d="M95.4284 85.729L94.3413 86.3603C94.2765 86.3987 94.2212 86.3692 94.2212 86.2937C94.2234 86.2516 94.2354 86.2107 94.2563 86.1742C94.2771 86.1377 94.3063 86.1067 94.3413 86.0837L95.4284 85.4511C95.4952 85.4127 95.5472 85.4447 95.5472 85.5202C95.5453 85.562 95.5335 85.6028 95.5128 85.6391C95.4922 85.6754 95.4632 85.7062 95.4284 85.729V85.729Z" fill="#4F2E16"/>
<path d="M96.0396 81.1096V82.8155C96.0262 83.0659 95.9543 83.3095 95.8299 83.5267C95.7055 83.7439 95.532 83.9284 95.3235 84.0653L94.4474 84.5751C94.0509 84.8068 93.7306 84.6173 93.7306 84.1575V82.4543L94.1653 82.2007V84.0269C94.1653 84.1038 94.218 84.1345 94.2841 84.0974C94.319 84.074 94.3481 84.0428 94.369 84.0061C94.3898 83.9694 94.4019 83.9283 94.4042 83.8861V82.0612L96.0396 81.1096Z" fill="#4F2E16"/>
<path d="M36.8615 76.0791V130.241L28.9226 125.663V80.6995L36.8615 76.0791Z" fill="#9B7451"/>
<path d="M81.5205 59.321L36.8615 85.3099L36.8197 85.342L28.9226 80.7437V80.6995L36.8615 76.0792L73.5905 54.7107L81.5205 59.321Z" fill="#CAAF8F"/>

</svg>
