<?xml version="1.0" encoding="UTF-8"?>
<!DOCTYPE svg PUBLIC "-//W3C//DTD SVG 1.1//EN" "http://www.w3.org/Graphics/SVG/1.1/DTD/svg11.dtd">
<!-- Creator: CorelDRAW 2020 (64-Bit) -->
<svg xmlns="http://www.w3.org/2000/svg" xml:space="preserve" width="174.898mm" height="30.4907mm" version="1.1" style="shape-rendering:geometricPrecision; text-rendering:geometricPrecision; image-rendering:optimizeQuality; fill-rule:evenodd; clip-rule:evenodd"
viewBox="0 0 17576.12 3064.11"
 xmlns:xlink="http://www.w3.org/1999/xlink"
 xmlns:xodm="http://www.corel.com/coreldraw/odm/2003">
 <defs>
  <style type="text/css">
   <![CDATA[
    .fil3 {fill:none}
    .fil0 {fill:#C5D7E1;fill-rule:nonzero}
    .fil1 {fill:#266686;fill-rule:nonzero;fill-opacity:0.529412}
    .fil2 {fill:url(#id0)}
   ]]>
  </style>
  <linearGradient id="id0" gradientUnits="userSpaceOnUse" x1="8788.59" y1="702.84" x2="8788.59" y2="1238.91">
   <stop offset="0" style="stop-opacity:1; stop-color:#E5EFF4"/>
   <stop offset="1" style="stop-opacity:1; stop-color:white"/>
  </linearGradient>
 </defs>
 <g id="Layer_x0020_1">
  <metadata id="CorelCorpID_0Corel-Layer"/>
  <g id="_2501749519056">
   <g>
    <path class="fil0" d="M372.18 21.43l16844.76 0c190.87,0 345.66,154.79 345.66,345.66l0 690.79c0,190.87 -154.79,345.66 -345.66,345.66l-16844.76 -0.01c-190.86,0.01 -345.65,-154.78 -345.65,-345.65l0 -690.79c0,-190.87 154.79,-345.66 345.66,-345.66l-0.01 0z"/>
    <path class="fil1" d="M1387.01 509.22l14815.23 0c112.23,0 203.25,91.02 203.25,203.25l0 0c0,112.23 -91.02,203.25 -203.25,203.25l-14815.23 0c-112.22,0 -203.24,-91.02 -203.24,-203.25l-0.01 0c0.01,-112.23 91.03,-203.25 203.26,-203.25l-0.01 0z"/>
   </g>
   <polygon class="fil2" points="1621.85,647.85 15979.83,647.85 15979.83,3064.11 1621.85,3064.11 "/>
  </g>
  <polygon class="fil3" points="-0,0 17576.12,0 17576.12,3047.4 -0,3047.4 "/>
 </g>
</svg>
