<?xml version="1.0" encoding="UTF-8"?>
<!DOCTYPE svg PUBLIC "-//W3C//DTD SVG 1.1//EN" "http://www.w3.org/Graphics/SVG/1.1/DTD/svg11.dtd">
<!-- Creator: CorelDRAW 2020 (64-Bit) -->
<svg xmlns="http://www.w3.org/2000/svg" xml:space="preserve" width="174.898mm" height="32.478mm" version="1.1" style="shape-rendering:geometricPrecision; text-rendering:geometricPrecision; image-rendering:optimizeQuality; fill-rule:evenodd; clip-rule:evenodd"
viewBox="0 0 16288.33 3024.69"
 xmlns:xlink="http://www.w3.org/1999/xlink"
 xmlns:xodm="http://www.corel.com/coreldraw/odm/2003">
 <defs>
  <style type="text/css">
   <![CDATA[
    .fil1 {fill:none}
    .fil0 {fill:white}
   ]]>
  </style>
 </defs>
 <g id="Layer_x0020_1">
  <metadata id="CorelCorpID_0Corel-Layer"/>
  <polygon class="fil0" points="14816.66,9.31 14816.66,2234.43 14820.52,2234.43 14385.59,2977.77 13970.73,2268.76 13555.91,2977.77 13141.08,2268.81 12726.26,2977.77 12311.46,2268.81 11896.63,2977.77 11481.83,2268.81 11067,2977.77 10652.18,2268.81 10237.37,2977.77 9822.57,2268.83 9407.8,2977.77 8992.97,2268.81 8578.14,2977.77 8163.36,2268.83 7748.56,2977.77 7333.74,2268.76 6918.88,2977.77 6504.09,2268.85 6089.31,2977.77 5674.48,2268.81 5259.68,2977.77 4844.88,2268.85 4430.09,2977.77 4015.28,2268.81 3600.45,2977.77 3185.68,2268.85 2770.88,2977.77 2356.04,2268.76 1941.2,2977.77 1506.26,2234.43 1510.68,2234.43 1510.68,9.31 "/>
  <polygon class="fil1" points="16288.33,0 16288.33,3024.69 -0,3024.69 -0,0 "/>
 </g>
</svg>
