<svg width="561" height="491" viewBox="0 0 561 491" fill="none" xmlns="http://www.w3.org/2000/svg">
<path fill-rule="evenodd" clip-rule="evenodd" d="M134.565 156.6C96.5772 198.486 17.039 202.547 3.31952 257.405C-10.1913 311.428 37.1966 361.88 72.444 404.993C103.699 443.222 143.29 475.516 191.251 487.271C235.165 498.034 277.039 471.982 321.872 466.128C374.176 459.298 431.838 479.883 475.418 450.164C523.236 417.555 562.714 361.385 560.263 303.558C557.847 246.58 493.396 216.14 463.438 167.612C433.83 119.651 434.811 50.5251 386.319 21.7949C336.577 -7.6761 268.082 -5.62164 217.112 21.671C169.464 47.1843 170.874 116.564 134.565 156.6Z" fill="url(#paint0_linear)"/>
<mask id="mask0" style="mask-type:alpha" maskUnits="userSpaceOnUse" x="1" y="0" width="560" height="491">
<path fill-rule="evenodd" clip-rule="evenodd" d="M72.545 95.6821C34.5569 137.569 17.1406 203.079 3.42114 257.936C-10.0897 311.96 37.2982 362.412 72.5457 405.524C103.801 443.754 143.392 476.048 191.352 487.803C235.266 498.566 277.141 472.514 321.973 466.659C374.278 459.829 431.939 480.415 475.519 450.696C523.337 418.087 562.816 361.917 560.364 304.09C557.949 247.111 493.498 216.671 463.54 168.144C433.931 120.183 434.913 51.0569 386.421 22.3266C336.678 -7.14436 268.184 -5.08991 217.213 22.2027C169.566 47.716 108.854 55.6466 72.545 95.6821Z" fill="white"/>
</mask>
<g mask="url(#mask0)">
<path d="M99.0797 323.841L343.008 365.541C356.439 367.837 369.305 358.73 371.602 345.295C371.602 345.295 395.488 98.322 373.71 94.6041C373.71 94.6041 117.494 69.1422 113.772 90.9188L78.8362 295.252C76.5399 308.679 85.6493 321.545 99.0797 323.841Z" fill="#C8C8C8"/>
<path d="M112.907 332.601L359.249 356.189C372.812 357.487 384.972 347.454 386.271 333.891C386.271 333.891 391.863 85.8285 369.869 83.7228C369.869 83.7228 112.474 77.2386 110.368 99.2307L90.6072 305.581C89.3103 319.144 99.3443 331.302 112.907 332.601Z" fill="#EDEDED"/>
<path d="M366.921 323.754L144.131 356.189C130.568 357.487 118.409 347.454 117.11 333.891C117.11 333.891 111.512 85.8286 133.51 83.7229C133.51 83.7229 353.853 78.0942 355.959 100.086L379.099 288.441C380.398 302 380.483 322.455 366.921 323.754Z" fill="#EDEDED"/>
<path d="M352.32 71.1978H135.649C124.995 71.1978 114.777 75.4298 107.244 82.9628C99.71 90.4958 95.4777 100.713 95.4777 111.366V314.46C95.4777 317.713 96.1185 320.935 97.3635 323.94C98.6085 326.945 100.433 329.676 102.734 331.977C105.034 334.277 107.765 336.101 110.771 337.346C113.776 338.591 116.998 339.232 120.251 339.232H367.723C370.976 339.232 374.197 338.591 377.203 337.346C380.209 336.101 382.94 334.277 385.24 331.977C387.541 329.676 389.365 326.945 390.61 323.94C391.855 320.935 392.496 317.713 392.496 314.46V111.366C392.496 100.713 388.264 90.4958 380.73 82.9628C373.196 75.4298 362.979 71.1978 352.324 71.1978H352.32Z" fill="white"/>
<path d="M352.321 71.1978H135.65C124.996 71.1978 114.778 75.4298 107.245 82.9628C99.7111 90.4958 95.4788 100.713 95.4788 111.366V140.863H392.492V111.366C392.492 100.713 388.26 90.4958 380.726 82.9628C373.193 75.4298 362.975 71.1978 352.321 71.1978Z" fill="#ED1C24"/>
<path d="M344.158 91.4676C345.759 91.4629 347.293 90.825 348.425 89.6931C349.557 88.5612 350.195 87.0273 350.199 85.4266V71.1978H338.115V85.4266C338.121 87.027 338.76 88.5602 339.892 89.6918C341.024 90.8234 342.557 91.4617 344.158 91.4676Z" fill="#ED1C24"/>
<path d="M272.661 91.4676C274.261 91.4617 275.795 90.8234 276.926 89.6918C278.058 88.5602 278.697 87.027 278.703 85.4266V71.1978H266.619V85.4266C266.624 87.0273 267.262 88.5612 268.394 89.6931C269.526 90.825 271.06 91.4629 272.661 91.4676Z" fill="#ED1C24"/>
<path d="M205.791 91.4676C207.391 91.4629 208.925 90.825 210.057 89.6931C211.189 88.5612 211.827 87.0273 211.832 85.4266V71.1978H199.748V85.4266C199.754 87.027 200.393 88.5602 201.525 89.6918C202.657 90.8234 204.19 91.4617 205.791 91.4676Z" fill="#ED1C24"/>
<path d="M138.446 91.4678C140.046 91.4619 141.58 90.8235 142.712 89.6919C143.844 88.5603 144.482 87.0272 144.488 85.4267V71.1979C144.488 70.2425 132.404 71.3285 132.404 71.3285V85.4267C132.409 87.0275 133.047 88.5613 134.179 89.6932C135.311 90.8251 136.845 91.4631 138.446 91.4678Z" fill="#ED1C24"/>
<path d="M275.044 61.7783H275.044C278.381 61.7783 281.086 64.483 281.086 67.8193V83.3935C281.086 86.7299 278.381 89.4346 275.044 89.4346H275.044C271.707 89.4346 269.002 86.7299 269.002 83.3935V67.8193C269.002 64.483 271.707 61.7783 275.044 61.7783Z" fill="#C8C8C8"/>
<path d="M207.836 61.7783H207.837C211.174 61.7783 213.879 64.483 213.879 67.8193V83.3935C213.879 86.7299 211.174 89.4346 207.837 89.4346H207.836C204.5 89.4346 201.795 86.7299 201.795 83.3935V67.8193C201.795 64.483 204.5 61.7783 207.836 61.7783Z" fill="#C8C8C8"/>
<path d="M140.629 61.7783H140.63C143.967 61.7783 146.672 64.483 146.672 67.8193V83.3935C146.672 86.7299 143.967 89.4346 140.63 89.4346H140.629C137.293 89.4346 134.588 86.7299 134.588 83.3935V67.8193C134.588 64.483 137.293 61.7783 140.629 61.7783Z" fill="#C8C8C8"/>
<path d="M120.534 264.61L190.793 338.477C190.793 338.477 188.136 325.472 188.114 317.298C188.101 312.107 189.163 307.579 189.519 300.124C190.521 279.211 178.41 273.886 172.693 270.789C163.922 266.042 149.543 269.555 140.876 268.992C137.207 268.755 123.262 268.145 120.534 264.61Z" fill="#BABABA"/>
<path d="M97.2609 259.962L190.789 338.477C190.789 338.477 186.138 323.55 185.222 313.976C184.641 307.898 185.439 302.473 185.06 293.7C183.999 269.091 168.685 264.233 161.39 261.257C150.203 256.695 133.09 262.45 122.481 262.778C117.998 262.917 100.972 263.792 97.2609 259.962Z" fill="#E7E6E6"/>
<path d="M322.221 179.844H361.84V205.528H322.221V179.844Z" fill="#EBEBEB"/>
<path d="M322.221 225.558H361.84V251.242H322.221V225.558Z" fill="#EBEBEB"/>
<path d="M259.175 225.558H298.793V251.242H259.175V225.558Z" fill="#EBEBEB"/>
<path d="M196.128 225.558H235.746V251.242H196.128V225.558Z" fill="#EBEBEB"/>
<path d="M134.296 225.558H173.914V251.242H134.296V225.558Z" fill="#EBEBEB"/>
<path d="M322.221 271.271H361.84V296.955H322.221V271.271Z" fill="#EBEBEB"/>
<path d="M259.175 271.271H298.793V296.955H259.175V271.271Z" fill="#EBEBEB"/>
<path d="M196.128 271.271H235.746V296.955H196.128V271.271Z" fill="#EBEBEB"/>
<path d="M259.175 179.844H298.793V205.528H259.175V179.844Z" fill="#EBEBEB"/>
<path d="M196.128 179.844H235.746V205.528H196.128V179.844Z" fill="#EBEBEB"/>
<path d="M133.077 179.844H172.695V205.528H133.077V179.844Z" fill="#EBEBEB"/>
<path d="M346.555 61.7783H346.556C349.893 61.7783 352.598 64.483 352.598 67.8193V83.3935C352.598 86.7299 349.893 89.4346 346.556 89.4346H346.555C343.219 89.4346 340.514 86.7299 340.514 83.3935V67.8193C340.514 64.483 343.219 61.7783 346.555 61.7783Z" fill="#C8C8C8"/>
<path d="M279.805 197.216C279.953 197.409 279.893 197.857 279.49 197.792L279.166 197.046L279.805 197.216Z" fill="#ED1C24"/>
<path d="M277.23 198.814C276.953 198.643 276.711 198.422 276.516 198.161C276.412 198.025 276.341 197.867 276.31 197.699C276.279 197.531 276.288 197.357 276.336 197.193C276.5 197.405 276.703 197.583 276.933 197.72C277.094 197.826 277.265 197.956 277.553 198.367C277.954 198.419 278.221 198.061 278.134 197.788C278.212 197.881 278.363 197.819 278.527 197.805C278.62 197.787 278.715 197.8 278.799 197.843C278.883 197.885 278.95 197.956 278.988 198.041C278.505 198.65 277.88 198.74 277.148 198.315C277.02 198.492 277.183 198.677 277.23 198.814Z" fill="#ED1C24"/>
<path d="M246.523 218.702L246.582 218.453C246.584 218.54 246.564 218.626 246.523 218.702Z" fill="#ED1C24"/>
<path d="M240.233 240.46C240.258 240.286 240.337 240.216 240.406 240.209C240.349 240.369 240.297 240.5 240.233 240.46Z" fill="#ED1C24"/>
<path d="M241.147 244.309C241.118 244.228 241.104 244.159 241.084 244.085C241.159 244.167 241.203 244.252 241.147 244.309Z" fill="#ED1C24"/>
<path d="M246.52 218.702C246.52 218.702 246.484 218.863 246.448 219.022C246.412 219.182 246.386 219.347 246.386 219.347C246.155 219.25 246.393 218.978 246.52 218.702Z" fill="#ED1C24"/>
<path d="M271.609 197.907C271.748 197.914 271.883 197.954 272.004 198.024C271.889 198.016 271.773 198.014 271.658 198.019C271.644 197.981 271.627 197.944 271.609 197.907Z" fill="#ED1C24"/>
<path d="M253.534 211.462L253.669 211.337C253.78 211.371 253.889 211.414 253.992 211.466H253.762L253.534 211.462Z" fill="#ED1C24"/>
<path d="M259.719 206.912C259.588 207.029 259.191 206.515 258.981 206.314C259.208 206.485 259.386 206.522 259.541 206.482C259.622 206.615 259.682 206.76 259.719 206.912Z" fill="#ED1C24"/>
<path d="M270.501 200.896L270.619 200.908L270.738 200.924C270.673 200.91 270.572 200.91 270.501 200.896Z" fill="#ED1C24"/>
<path d="M249.839 215.522C249.895 215.581 249.94 215.65 249.973 215.725C249.911 215.671 249.864 215.601 249.839 215.522Z" fill="#ED1C24"/>
<path d="M283.758 201.665C283.757 201.704 283.754 201.743 283.748 201.781C283.705 201.712 283.694 201.665 283.758 201.665Z" fill="#ED1C24"/>
<path d="M274.259 204.346L274.385 204.386C274.396 204.507 274.4 204.628 274.398 204.75L274.259 204.346Z" fill="#ED1C24"/>
<path d="M242.985 251.034C242.978 251.026 242.971 251.017 242.966 251.007C242.995 250.815 243.007 250.917 242.985 251.034Z" fill="#ED1C24"/>
<path d="M293.554 272.854C293.269 273.227 293.606 273.334 293.902 273.453C294.199 273.572 294.456 273.713 293.99 274.171C294.01 274.034 293.697 273.859 293.483 273.634C293.27 273.409 293.155 273.153 293.554 272.854Z" fill="#ED1C24"/>
<path d="M271.418 198.038C271.304 198.054 271.192 198.079 271.083 198.115C271.186 198.062 271.302 198.035 271.418 198.038Z" fill="#ED1C24"/>
<path d="M293.992 274.171V274.176L293.893 274.266L293.992 274.171Z" fill="#ED1C24"/>
<path d="M249.246 265.395C249.143 265.432 249.033 265.446 248.923 265.438C248.979 265.402 249.066 265.383 249.246 265.395Z" fill="#ED1C24"/>
<path d="M242.867 255.322L243.047 255.579C242.971 255.506 242.91 255.419 242.867 255.322Z" fill="#ED1C24"/>
<path d="M252.765 270.425C252.92 270.488 253.019 270.45 253.133 270.653C253.1 270.665 253.066 270.672 253.032 270.674C253.026 270.556 252.971 270.46 252.765 270.425Z" fill="#ED1C24"/>
<path d="M258.117 273.756C258.066 273.785 258.012 273.81 257.956 273.83C257.904 273.794 257.839 273.756 257.785 273.72L258.117 273.756Z" fill="#ED1C24"/>
<path d="M304.848 205.907C304.655 206.025 304.485 206.175 304.345 206.352C304.599 205.953 303.649 205.463 304.848 205.907Z" fill="#ED1C24"/>
<path d="M271.688 198.263C271.611 198.113 271.532 198.047 271.417 198.038C271.497 198.027 271.577 198.021 271.657 198.019C271.681 198.055 271.696 198.095 271.701 198.137C271.706 198.179 271.702 198.222 271.688 198.263Z" fill="#ED1C24"/>
<path d="M249.735 274.535L250.243 274.881C250.37 274.967 250.495 275.054 250.595 275.114L250.758 275.215C250.393 275.027 250.05 274.799 249.735 274.535Z" fill="#ED1C24"/>
<path d="M329.611 246.907L329.758 246.668C329.755 246.717 329.74 246.764 329.715 246.806C329.689 246.848 329.654 246.882 329.611 246.907Z" fill="#ED1C24"/>
<path d="M253.78 277.293C254.046 277.21 254.328 277.189 254.603 277.232C254.633 277.3 254.649 277.374 254.652 277.448L253.78 277.293Z" fill="#ED1C24"/>
<path d="M304.342 206.358C304.344 206.357 304.346 206.355 304.348 206.353C304.346 206.355 304.344 206.357 304.342 206.358Z" fill="#ED1C24"/>
<path d="M297.508 202.886C298.579 203.107 297.828 203.812 297.946 204.337C299.14 204.861 298.666 203.862 299.198 203.538C299.29 203.589 299.378 203.646 299.461 203.71C299.544 203.776 299.623 203.846 299.698 203.92C299.849 204.067 299.987 204.225 300.12 204.373C300.385 204.669 300.631 204.927 300.925 204.986C301.005 204.862 301.132 204.844 301.046 204.639C301.223 204.857 301.449 205.03 301.706 205.144C301.993 205.272 302.286 205.384 302.586 205.48C302.74 205.533 302.894 205.587 303.044 205.649C303.192 205.713 303.336 205.787 303.475 205.869C303.751 206.025 303.984 206.248 304.152 206.517C304.227 206.48 304.291 206.425 304.339 206.357C304.088 206.666 303.911 207.027 303.82 207.414C304.042 207.496 304.206 207.694 304.358 207.809C304.511 207.923 304.648 207.972 304.825 207.741C304.545 207.658 304.599 207.437 304.527 207.228L304.722 207.427L304.916 207.625C305.614 207.031 304.367 207.129 304.559 206.58C304.781 206.73 304.992 206.893 305.194 207.07L305.816 207.601C306.005 207.762 306.207 207.908 306.42 208.037C306.597 208.152 306.798 208.226 307.007 208.254C307.23 207.922 306.848 207.694 306.557 207.516C306.266 207.338 306.063 207.219 306.665 207.079L306.06 207.005C305.76 206.967 305.458 206.937 305.458 206.937C306.738 206.098 304.748 206.769 305.991 205.818C306.547 205.929 307.071 206.165 307.521 206.509C307.97 206.85 308.48 207.101 309.024 207.247C309.166 207.79 308.65 207.784 308.792 208.326C309.21 208.729 309.56 208.872 309.879 208.885C310.033 208.888 310.187 208.864 310.333 208.814C310.474 208.768 310.612 208.713 310.746 208.648C311.275 208.404 311.745 208.16 312.223 209.013C312.286 209.342 312.231 209.745 312.316 210.077C312.402 210.409 312.626 210.665 313.249 210.737L313.305 210.257C313.333 210.015 313.359 209.774 313.359 209.774C314.039 210.129 314.061 210.512 314.116 210.849C314.13 211.019 314.2 211.18 314.315 211.305C314.396 211.384 314.491 211.447 314.595 211.492C314.752 211.562 314.916 211.615 315.085 211.65C315.062 211.429 314.856 211.199 314.68 211.04C314.503 210.88 314.367 210.776 314.493 210.793C315.118 210.772 315.204 210.986 315.214 211.246C315.225 211.505 315.162 211.823 315.487 212.043L316.064 211.491C316.391 211.757 316.701 212.043 316.992 212.349C317.142 212.504 317.293 212.66 317.439 212.825L317.877 213.326C318.026 213.492 318.168 213.667 318.313 213.839C318.459 214.01 318.604 214.18 318.751 214.352C319.039 214.7 319.341 215.03 319.646 215.359C319.73 215.121 319.66 214.729 320.134 214.835C320.858 215.746 321.741 216.578 322.662 217.39C323.583 218.203 324.538 218.999 325.402 219.779C325.402 219.779 325.395 220.053 325.387 220.326C325.387 220.462 325.374 220.601 325.368 220.7C325.362 220.799 325.358 220.869 325.358 220.869C325.476 221.028 325.824 221.002 325.804 220.748C326.517 221.332 325.476 221.028 325.495 221.523C325.724 221.958 326.176 221.86 326.174 221.482C326.409 222.479 326.699 223.461 327.045 224.424C327.432 225.461 327.876 226.456 328.516 227.076C328.516 227.076 328.534 226.982 328.552 226.889C328.571 226.796 328.583 226.702 328.583 226.702C328.742 226.923 328.812 227.195 328.78 227.465C328.744 227.695 328.678 227.92 328.582 228.133C328.541 228.235 328.505 228.339 328.474 228.444C328.442 228.544 328.425 228.648 328.423 228.753C328.423 228.96 328.504 229.168 328.742 229.397L328.789 229.15C329.078 229.77 329.255 230.446 329.43 231.118C329.57 231.799 329.71 232.479 329.81 233.145C329.838 233.311 329.867 233.475 329.898 233.637C329.913 233.719 329.929 233.8 329.945 233.881L329.984 234.121C330.039 234.44 330.103 234.752 330.182 235.054C330.222 235.206 330.261 235.355 330.299 235.5C330.337 235.646 330.385 235.79 330.434 235.93C330.534 236.208 330.654 236.479 330.793 236.739C330.552 236.849 330.461 237.069 330.441 237.342C330.432 237.49 330.436 237.639 330.451 237.787C330.459 237.865 330.467 237.946 330.475 238.026C330.484 238.106 330.489 238.187 330.494 238.269C330.537 238.913 330.541 239.538 329.848 239.586C329.956 239.885 330.08 240.178 330.222 240.463C330.33 240.681 330.431 240.849 330.508 241.035C330.604 241.258 330.677 241.492 330.724 241.731C330.755 241.882 330.785 242.056 330.817 242.265C330.849 242.474 330.856 242.712 330.871 242.995C330.856 243.294 330.614 243.479 330.344 243.671C330.074 243.864 329.76 244.059 329.623 244.395L330.314 244.55L329.856 244.957C329.743 245.058 329.621 245.155 329.533 245.228L329.385 245.349L329.738 245.696L330.091 246.049L329.924 246.358C329.843 246.513 329.751 246.664 329.751 246.664C329.785 246.393 329.579 246.029 329.378 246.022C329.309 246.142 329.254 246.269 329.214 246.402C329.17 246.538 329.139 246.678 329.121 246.819C329.082 247.105 329.081 247.394 329.115 247.679C329.168 248.227 329.325 248.684 329.496 248.754L329.287 249.099C329.165 249.307 328.983 249.576 328.808 249.846C328.634 250.115 328.457 250.381 328.322 250.579L328.091 250.905C328.371 250.958 328.627 250.608 328.906 250.356C328.796 250.45 328.695 250.554 328.604 250.667C328.552 250.724 328.517 250.793 328.5 250.867C328.485 250.973 328.564 251.033 328.646 251.09C328.809 251.204 328.984 251.312 328.446 251.758C328.358 251.545 328.022 251.68 327.88 251.649C327.923 251.858 327.923 252.073 327.88 252.281C327.832 252.536 327.76 252.785 327.667 253.027C327.566 253.292 327.443 253.547 327.299 253.791C327.164 254.03 327.015 254.261 326.853 254.484L327.376 254.526C327.287 254.745 327.186 254.96 327.075 255.169C326.963 255.382 326.847 255.594 326.724 255.807C326.601 256.019 326.47 256.228 326.332 256.436C326.194 256.644 326.052 256.852 325.911 257.062C325.77 257.272 325.618 257.478 325.468 257.686L325.016 258.311C324.713 258.729 324.399 259.143 324.111 259.577C324.343 258.83 323.539 258.502 323.143 258.944L323.618 259.57C323.012 259.615 323.752 258.902 322.824 259.215C322.451 259.875 323.212 260.133 323.674 259.913L322.911 260.519C323.058 260.698 323.284 260.59 323.546 260.713C323.248 260.735 323.148 261.167 322.995 261.599C322.931 261.809 322.832 262.008 322.7 262.184C322.634 262.266 322.548 262.33 322.45 262.37C322.352 262.41 322.245 262.424 322.141 262.412L322.279 262.599C321.742 263.251 321.153 263.858 320.517 264.414C320.245 264.648 319.981 264.871 319.709 265.111L319.503 265.298L319.286 265.484C319.141 265.611 318.991 265.746 318.834 265.89C318.598 265.668 318.386 265.698 318.144 265.778C317.903 265.858 317.62 265.98 317.262 265.953C317.068 266.194 316.888 266.463 316.688 266.729C316.487 266.995 316.286 267.271 316.07 267.547L315.905 267.753C315.849 267.821 315.791 267.886 315.732 267.951C315.615 268.083 315.493 268.212 315.368 268.338C315.242 268.465 315.11 268.589 314.972 268.712C314.832 268.83 314.686 268.941 314.533 269.043C313.507 269.397 313.965 268.781 313.368 268.742C313.659 269.27 312.413 270.056 313.283 269.972C312.698 270.346 312.093 270.687 311.47 270.993C311.19 271.128 310.88 271.25 310.516 271.392C310.329 271.461 310.135 271.539 309.913 271.612L309.178 271.85C309.271 271.522 309.445 271.298 309.225 271.192C308.833 271.305 308.563 271.857 308.748 272.077H308.871C308.547 272.132 308.233 272.232 307.938 272.374C307.788 272.447 307.641 272.527 307.5 272.615C307.356 272.701 307.213 272.793 307.073 272.895C306.793 273.093 306.518 273.32 306.245 273.548C305.972 273.776 305.7 274.015 305.43 274.248C304.346 275.169 303.243 276.008 302.093 275.786L302.218 275.803L301.883 275.825C301.682 275.839 301.417 275.86 301.147 275.869L300.08 275.915C299.656 276.118 299.823 276.173 300.033 276.256C300.243 276.338 300.492 276.431 300.219 276.722C299.699 276.67 299.173 276.701 298.662 276.815C298.242 276.912 297.832 277.048 297.438 277.222C297.054 277.373 296.686 277.531 296.292 277.643C295.873 277.762 295.435 277.804 295.001 277.767C294.774 278.281 294.348 278.595 293.821 278.818C293.543 278.929 293.255 279.015 292.961 279.072C292.654 279.135 292.334 279.19 292.009 279.229L291.027 279.347C290.702 279.391 290.381 279.431 290.076 279.494C289.466 279.623 288.914 279.806 288.49 280.161L288.53 279.738C287.984 279.427 287.987 280.067 287.644 280.215C287.644 279.893 288.11 279.771 287.775 279.598C285.703 279.678 283.63 280.082 281.524 280.526C279.418 280.97 277.292 281.451 275.179 281.688C274.407 281.763 274.177 281.238 273.904 280.819C273.63 280.4 273.316 280.098 272.344 280.582L272.899 281.343C271.333 280.892 269.733 280.865 268.113 280.783C267.708 280.758 267.303 280.735 266.9 280.703C266.497 280.671 266.092 280.617 265.693 280.558C265.293 280.5 264.895 280.406 264.505 280.305C264.114 280.194 263.731 280.059 263.357 279.901C263.513 280.104 263.48 280.33 263.788 280.377C263.57 280.486 263.324 280.527 263.082 280.493C262.803 280.457 262.531 280.381 262.274 280.267C262.151 280.213 262.031 280.151 261.916 280.081C261.817 280.017 261.723 279.946 261.636 279.867C261.478 279.723 261.392 279.587 261.415 279.472C260.917 279.409 261.209 279.846 260.855 279.994C260.661 280.026 260.463 279.987 260.295 279.886C260.109 279.783 259.931 279.665 259.763 279.535C259.424 279.294 259.129 279.06 258.868 279.269C258.781 279.335 259.001 279.5 259.111 279.58C258.977 279.46 258.821 279.369 258.651 279.311C258.453 279.228 258.227 279.161 258.035 279.07C257.649 278.897 257.388 278.72 257.703 278.497C257.071 278.437 256.552 278.123 256.064 277.854C255.941 277.788 255.823 277.712 255.705 277.644C255.588 277.576 255.469 277.51 255.35 277.457C255.114 277.344 254.863 277.269 254.603 277.234C254.541 277.014 254.395 276.826 254.196 276.713C253.987 276.594 253.772 276.488 253.552 276.394C253.125 276.19 252.755 275.984 252.946 275.504C252.705 275.97 252.137 275.844 251.586 275.491C251.31 275.299 251.06 275.073 250.84 274.82C250.651 274.606 250.502 274.36 250.4 274.094C250.406 274.503 249.669 273.926 249.628 274.451C249.319 274.201 249.057 273.897 248.856 273.554C248.709 273.274 248.721 273.023 248.955 272.879C248.728 272.86 248.506 272.799 248.302 272.698C248.119 272.608 247.956 272.485 247.818 272.335C247.686 272.192 247.568 272.035 247.466 271.869C247.363 271.706 247.27 271.538 247.186 271.365C247.018 271.03 246.858 270.724 246.632 270.525C246.407 270.327 246.117 270.22 245.665 270.306C245.041 269.13 244.486 268.007 243.974 266.92C243.462 265.833 242.998 264.774 242.547 263.748C242.117 264.037 242.407 264.595 242.692 265.13C242.978 265.664 243.262 266.177 242.785 266.43C242.373 265.39 242.218 264.49 242.026 263.631C241.933 263.202 241.811 262.78 241.66 262.367C241.495 261.913 241.28 261.479 241.018 261.072C240.662 260.635 240.738 261.549 240.671 261.794C240.596 261.53 240.52 261.27 240.435 261.018C240.35 260.766 240.255 260.521 240.155 260.281C239.962 259.799 239.763 259.328 239.564 258.865C239.364 258.402 239.202 257.932 239.062 257.465C238.929 256.994 238.85 256.509 238.826 256.019C238.733 256.054 238.702 256.281 238.691 256.49C238.598 256.127 238.272 255.707 238.735 255.604L238.721 255.99C238.932 256.084 239.094 256.005 239.219 255.848C239.361 255.645 239.468 255.42 239.536 255.182C239.707 254.662 239.815 254.091 239.986 254.009C239.419 254.493 239.216 254.08 238.982 253.715C238.748 253.35 238.48 253.033 237.788 253.739C237.808 253.476 237.943 253.123 238.264 253.099C238.09 252.771 237.884 252.7 237.623 253.149C237.589 252.463 237.724 252.216 237.829 251.981C237.934 251.747 238.016 251.548 237.89 250.963C237.667 251.013 237.629 251.269 237.393 251.449C237.561 251.109 237.688 250.751 237.772 250.381C237.859 249.957 237.82 249.517 237.658 249.115C237.533 249.198 237.335 249.115 237.391 249.409C237.339 248.995 237.344 248.575 237.407 248.162C237.432 247.962 237.465 247.764 237.501 247.569C237.536 247.374 237.58 247.178 237.615 246.983C237.651 246.788 237.685 246.593 237.709 246.397C237.732 246.2 237.745 246.001 237.753 245.797C237.767 245.358 237.708 244.921 237.579 244.502C236.617 245.124 237.219 243.878 236.357 243.817C236.357 243.817 236.408 243.555 236.458 243.293C236.509 243.03 236.575 242.771 236.575 242.771L237 243.172C236.984 242.723 237.128 242.297 237.239 241.891C237.35 241.485 237.452 241.101 237.315 240.715L236.953 241.376L237.046 240.537C237.066 240.328 237.101 240.119 237.121 239.962C237.14 239.805 237.157 239.701 237.157 239.701L237.301 240.18C237.336 240.3 237.372 240.418 237.403 240.508L237.452 240.656C237.52 240.49 237.649 240.356 237.812 240.283C237.918 240.248 238.03 240.233 238.142 240.239C238.328 240.232 238.431 240.191 238.336 239.606C238.287 239.722 238.293 239.505 238.251 239.197C238.209 238.889 238.137 238.491 237.898 238.243C238.059 238.042 238.195 237.823 238.304 237.59C238.422 237.327 238.449 237.031 238.382 236.751C238.127 236.552 237.424 236.785 237.254 236.657C237.441 236.564 237.564 236.395 237.652 236.179C237.744 235.94 237.816 235.694 237.869 235.443C237.922 235.188 238 234.938 238.101 234.697C238.194 234.478 238.359 234.298 238.568 234.185C238.361 234.334 237.915 234.273 237.833 234.198L238.469 233.936C238.352 233.501 238.273 233.424 237.909 233.426C237.973 232.803 238.226 232.953 238.434 233.063C238.642 233.174 238.813 233.25 238.726 232.487C238.657 232.59 238.582 232.519 238.446 232.737C238.46 231.991 238.726 231.312 238.965 230.655C239.23 230.002 239.47 229.369 239.537 228.684C239.18 228.368 239.044 228.636 238.925 228.906C238.807 229.176 238.716 229.447 238.424 229.123C238.612 228.649 238.83 228.187 239.077 227.741C239.336 227.29 239.606 226.843 239.874 226.403C240.143 225.963 240.41 225.527 240.647 225.09C240.766 224.872 240.876 224.653 240.972 224.431C241.069 224.209 241.149 223.983 241.226 223.758C241.226 223.758 241.211 223.851 241.197 223.938C241.183 224.025 241.172 224.119 241.172 224.119C241.781 224.236 241.788 223.865 241.754 223.373C241.725 223.115 241.725 222.854 241.754 222.596C241.769 222.47 241.812 222.347 241.878 222.238C241.944 222.129 242.033 222.036 242.139 221.964C241.952 222.134 241.392 221.943 241.545 221.945C241.943 220.675 243.038 219.681 244.401 218.237L244.007 218.276C244.059 218.058 244.134 217.846 244.231 217.644C244.337 217.429 244.468 217.208 244.604 216.991C244.74 216.774 244.876 216.552 245.006 216.338C245.134 216.145 245.25 215.946 245.355 215.74C245.753 215.722 245.989 215.312 246.186 215.815C246.186 215.721 246.193 215.623 246.202 215.535C246.212 215.446 246.227 215.356 246.243 215.271C246.275 215.105 246.321 214.942 246.38 214.784C246.435 214.633 246.502 214.487 246.579 214.347C246.617 214.278 246.657 214.211 246.699 214.145C246.741 214.08 246.792 214.02 246.835 213.959C247.223 213.488 247.68 213.079 248.191 212.746C248.439 212.572 248.683 212.399 248.92 212.224C249.158 212.058 249.382 211.873 249.59 211.672C249.692 211.573 249.787 211.466 249.875 211.354C249.966 211.244 250.049 211.127 250.124 211.004C250.284 210.736 250.398 210.443 250.462 210.137C250.268 210.324 249.808 210.399 249.962 210.245L250.209 210.063L250.462 209.876C250.555 209.811 250.657 209.741 250.758 209.672L251.563 209.118C251.81 209.615 251.594 209.529 251.584 210.105C251.976 210.17 252.524 209.986 252.876 209.685C252.006 209.98 252.311 209.046 252.401 208.572C252.46 208.736 252.674 208.787 252.759 208.934C252.791 208.591 252.86 208.462 252.953 208.442C253.045 208.423 253.165 208.513 253.297 208.602C253.562 208.78 253.881 208.964 254.197 208.291L253.966 208.119C254.088 208.068 254.212 208.025 254.339 207.991C254.468 207.955 254.602 207.927 254.729 207.891C254.988 207.834 255.225 207.708 255.417 207.526C255.224 206.898 254.82 207.626 254.484 207.246C254.656 207.137 254.849 207.068 255.051 207.044C255.157 207.026 255.266 207.014 255.374 207.003C255.482 206.991 255.592 206.986 255.698 206.974C256.122 206.927 256.482 206.825 256.584 206.372C256.223 206.422 255.843 206.695 255.478 206.745C255.571 206.232 255.664 205.999 255.785 205.838C255.905 205.678 256.045 205.594 256.251 205.389L256.215 205.433L256.668 204.928L256.983 204.578C257.069 204.484 257.128 204.421 257.128 204.421C257.128 204.421 257.083 204.506 257.041 204.596L256.956 204.772C257.377 204.966 257.702 205.023 257.982 204.988C258.242 204.946 258.49 204.846 258.706 204.695C258.936 204.54 259.181 204.407 259.437 204.3C259.582 204.244 259.733 204.206 259.887 204.188C260.071 204.167 260.257 204.175 260.439 204.21C260.042 204.141 259.819 204.097 259.692 204.039C259.565 203.982 259.545 203.925 259.558 203.853C259.585 203.713 259.758 203.531 259.542 203.253C259.736 202.919 260.084 202.483 259.86 202.382C260.272 202.475 260.444 202.251 260.668 202.043C260.892 201.835 261.167 201.647 261.745 201.813C261.712 201.704 261.858 201.622 261.967 201.515C262.076 201.408 262.148 201.276 261.961 201.048C262.779 200.855 261.955 201.483 262.147 201.701C262.88 201.779 263.429 201.251 264.094 200.756C264.258 200.631 264.428 200.504 264.607 200.391C264.789 200.278 264.981 200.181 265.18 200.1C265.385 200.017 265.599 199.96 265.819 199.931C266.06 199.902 266.304 199.911 266.543 199.956C266.885 199.926 267.229 199.936 267.569 199.985C267.841 200.031 268.11 200.094 268.375 200.171C268.628 200.242 268.874 200.308 269.148 200.363C269.455 200.425 269.768 200.452 270.081 200.445C270.256 200.206 270.11 200.036 269.916 199.927C269.779 199.855 269.632 199.802 269.481 199.769C270.124 199.227 270.714 199.145 271.477 199.209C271.29 199.058 271.393 198.854 271.552 198.556C272.143 198.483 272.119 199.265 272.797 198.773C272.617 198.557 272.366 198.204 272.03 198.026C272.76 198.064 273.523 198.355 274.253 198.418C274.373 197.997 273.724 197.916 273.423 197.714L274.115 197.723C274.361 197.732 274.606 197.754 274.85 197.789C275.323 197.86 275.729 197.997 275.894 198.292C275.894 198.292 275.773 198.361 275.655 198.434L275.418 198.583C275.708 198.568 275.491 198.034 275.259 197.956C274.498 197.583 274.307 198.324 274.31 198.552L274.833 198.614C274.758 198.96 274.596 199.137 274.379 199.217C274.163 199.297 273.892 199.288 273.596 199.239C273.002 199.133 272.31 198.929 271.823 199.076L272.138 199.496L272.449 199.916L271.858 199.642C271.709 199.572 271.56 199.509 271.448 199.462L271.261 199.382C271.106 199.68 271.1 200.234 271.609 200.25C271.323 200.568 271.151 200.53 270.991 200.486C270.83 200.442 270.681 200.407 270.459 200.745C270.417 200.844 270.459 200.879 270.528 200.898L269.781 200.82C269.968 200.975 269.864 201.5 270.229 201.248C270.014 201.438 269.749 201.564 269.466 201.611C269.234 201.649 268.999 201.658 268.765 201.637C268.336 201.614 267.996 201.576 267.9 202.002L268.016 202.022C267.161 202.161 267.058 202.012 266.99 201.784C266.961 201.647 266.9 201.519 266.811 201.411C266.697 201.289 266.493 201.165 266.113 201.098C266.113 201.098 266.062 201.585 266.019 202.068C265.976 202.551 265.944 203.032 265.944 203.032L265.519 202.446C265.363 202.539 265.063 202.726 265.234 202.96C264.438 202.783 265.217 202.633 264.682 202.371C264.543 202.595 264.343 202.775 264.105 202.888C263.869 203.011 263.627 203.121 263.381 203.219C262.914 203.419 262.552 203.66 262.721 204.202C262.205 203.867 263.267 203.455 262.282 203.549C262.437 204.146 262.183 204.219 261.827 204.251C261.472 204.284 261.024 204.297 260.816 204.727C261.332 205.152 261.808 204.512 261.403 205.37C261.173 205.196 260.982 205.168 260.814 205.226C260.646 205.284 260.509 205.435 260.378 205.607C260.118 205.954 259.895 206.391 259.572 206.484C259.338 206.138 258.991 206.254 258.568 206.503C258.355 206.626 258.133 206.795 257.892 206.948C257.652 207.107 257.398 207.242 257.132 207.352C257.241 207.446 256.888 207.844 256.433 208.32C255.989 208.812 255.439 209.378 255.152 209.822L255.264 209.915C254.922 209.649 254.572 209.716 254.219 209.893C253.866 210.07 253.529 210.377 253.181 210.566C253.543 210.921 253.78 210.979 254.235 210.88L253.7 211.347C253.397 211.26 253.14 211.306 252.732 211.554L253.292 211.891C253.105 212.045 252.902 212.178 252.687 212.289C252.471 212.412 252.242 212.53 252.015 212.662C251.557 212.925 251.135 213.282 250.87 213.867C250.63 213.693 250.497 213.238 250.278 212.906C250.059 212.575 249.75 212.37 249.149 212.736C249.352 212.989 249.722 213.389 250.051 213.22C249.941 213.272 249.585 213.344 249.535 213.605L250.282 213.571C250.084 214.149 249.754 213.491 249.49 213.865C249.837 214.159 249.513 214.331 249.827 214.518C249.936 214.462 249.946 214.102 250.192 214.091C250.049 214.321 249.94 214.57 249.87 214.831C249.801 215.059 249.799 215.302 249.864 215.531C249.695 215.332 249.398 215.137 249.118 215.384C248.801 215.741 248.855 215.888 248.97 216.021C249.084 216.153 249.25 216.265 249.177 216.553C248.79 216.538 248.682 217.206 248.131 216.813C247.964 217.035 248.192 217.269 248.277 217.466C248.108 217.557 247.958 217.678 247.832 217.823C247.672 217.988 247.501 218.178 247.351 218.341C247.045 218.663 246.763 218.853 246.618 218.421L246.65 218.29C246.625 218.301 246.609 218.324 246.58 218.34C246.401 218.459 246.236 218.597 246.087 218.752C245.948 218.909 245.823 219.077 245.714 219.255C245.603 219.436 245.502 219.623 245.412 219.815C245.319 220.002 245.247 220.209 245.17 220.409L244.73 221.604C244.655 221.795 244.569 221.982 244.472 222.163C244.425 222.257 244.373 222.342 244.317 222.427C244.262 222.513 244.209 222.599 244.149 222.681L244.353 222.781C244.03 223.176 243.741 223.598 243.49 224.042C243.365 224.25 243.225 224.449 243.072 224.638C242.936 224.811 242.774 224.961 242.591 225.085C242.482 225.352 242.718 225.866 243.017 225.853C242.795 226.158 242.63 226.312 242.507 226.528C242.439 226.652 242.391 226.787 242.365 226.926C242.323 227.141 242.306 227.36 242.312 227.579C242.463 227.438 242.558 227.393 242.615 227.383C242.632 227.379 242.65 227.381 242.666 227.389C242.681 227.397 242.694 227.41 242.701 227.426C242.719 227.464 242.696 227.452 242.842 226.973C242.812 227.175 242.794 227.379 242.787 227.583C242.788 227.743 242.775 227.902 242.749 228.059C242.718 228.216 242.655 228.365 242.562 228.497C242.423 228.684 242.263 228.855 242.086 229.008C242.413 228.928 242.536 229.153 242.543 229.441C242.543 229.735 242.457 230.024 242.295 230.27C242.295 230.27 242.235 230.084 242.184 229.897L242.079 229.524C241.847 229.98 241.789 230.422 241.722 230.866L242.523 230.83C242.572 231.066 242.579 231.31 242.542 231.548C242.513 231.767 242.452 231.98 242.362 232.181C242.271 232.381 242.165 232.574 242.044 232.757C241.931 232.944 241.809 233.131 241.692 233.308C241.576 233.483 241.468 233.664 241.371 233.85C241.282 234.024 241.219 234.21 241.184 234.402C241.149 234.592 241.156 234.788 241.205 234.975C241.232 235.078 241.27 235.177 241.319 235.272C241.378 235.38 241.448 235.483 241.527 235.578C241.228 235.789 241.169 235.52 241.1 235.24C241.031 234.96 240.97 234.67 240.623 234.846C240.617 234.961 240.626 235.076 240.649 235.189C240.674 235.308 240.709 235.424 240.753 235.538C240.844 235.764 240.952 235.982 241.077 236.191C241.308 236.597 241.558 236.919 241.544 237.055C241.694 237.667 241.383 237.912 241.071 238.174C240.904 238.298 240.758 238.449 240.64 238.621C240.581 238.718 240.541 238.824 240.52 238.936C240.495 239.074 240.497 239.217 240.526 239.354C240.261 239.181 239.54 238.975 239.243 239.939C239.251 240.143 239.322 240.338 239.446 240.499C239.553 240.632 239.695 240.731 239.857 240.785C240.156 240.884 240.473 240.798 240.585 240.522C240.614 240.311 240.534 240.206 240.441 240.212C240.552 239.932 240.684 239.559 240.966 239.921L240.686 240.025C240.756 240.164 240.805 240.313 240.831 240.467C240.873 240.638 240.907 240.821 240.947 240.983C241.028 241.303 241.134 241.533 241.355 241.393C241.087 242.046 240.903 241.673 240.768 241.182C240.919 241.649 240.985 242.138 240.965 242.627C240.936 243.119 240.987 243.613 241.115 244.088C240.956 243.914 240.627 243.76 240.638 243.944C240.683 244.115 240.717 244.289 240.741 244.464C240.76 244.574 240.764 244.685 240.754 244.796C240.749 244.86 240.73 244.922 240.697 244.977C240.665 245.033 240.621 245.08 240.568 245.117C240.393 245.251 240.149 245.323 240.144 245.914C240.633 246.533 241.106 245.577 240.89 246.774C241.254 247.445 241.624 246.829 241.816 246.532C241.767 246.66 241.736 246.793 241.723 246.929C241.715 247.054 241.722 247.18 241.745 247.303C241.792 247.532 241.877 247.753 241.995 247.956C242.105 248.145 242.227 248.327 242.359 248.502C242.468 248.642 242.558 248.795 242.626 248.959L242.75 248.389C242.696 248.676 242.704 248.97 242.773 249.253L242.183 249.047C242.258 249.197 242.307 249.338 242.369 249.436C242.432 249.534 242.501 249.587 242.612 249.562C242.47 249.757 242.239 249.741 241.991 249.766C241.744 249.79 241.496 249.859 241.325 250.232C241.512 250.419 241.497 250.761 241.547 251.056C241.598 251.351 241.697 251.596 242.067 251.583C241.787 250.947 241.974 250.942 242.21 250.954C242.328 250.96 242.459 250.968 242.55 250.905C242.642 250.841 242.691 250.708 242.664 250.423C242.62 250.657 242.69 250.916 242.858 251.205C242.951 251.233 242.993 251.127 243.014 251.033C243.941 252.113 242.351 251.799 242.721 253.098C243.069 252.824 243.546 253.182 243.531 253.41C243.365 252.904 242.799 253.353 242.65 253.926C242.93 254.293 242.939 254.537 242.911 254.74C242.883 254.944 242.803 255.113 242.895 255.321L242.583 254.875C242.255 255.172 242.448 255.574 242.532 256.2C242.844 256.142 242.554 255.599 242.756 255.759C242.705 255.854 242.678 255.96 242.678 256.068C242.683 256.162 242.711 256.254 242.759 256.336C242.879 256.517 243.026 256.678 243.195 256.814C243.539 257.13 243.941 257.443 243.902 257.971C244.324 258.262 244.624 257.707 244.941 257.979C244.915 258.554 245.161 258.754 245.417 258.947C245.48 258.996 245.544 259.04 245.603 259.098C245.67 259.153 245.729 259.216 245.781 259.285C245.912 259.467 245.985 259.683 245.992 259.907C245.365 259.88 245.454 259.761 245.329 260.7C245.329 260.7 245.321 260.673 245.307 260.624C245.294 260.574 245.277 260.504 245.254 260.419C245.21 260.251 245.152 260.027 245.094 259.803C245.036 259.58 244.975 259.358 244.941 259.189C244.906 259.019 244.877 258.909 244.877 258.909L244.84 259.126C244.819 259.256 244.785 259.433 244.763 259.606C244.716 259.956 244.669 260.306 244.669 260.306C244.551 260.048 244.474 259.773 244.442 259.491C244.4 259.219 244.36 258.979 244.248 258.848C244.076 259.543 244.178 259.439 243.652 259.385C243.759 259.413 243.858 259.463 243.943 259.533C244.029 259.602 244.098 259.689 244.147 259.788C244.227 259.972 244.272 260.169 244.279 260.37C244.29 260.583 244.323 260.794 244.38 261C244.448 261.217 244.598 261.398 244.799 261.505L245.982 260.836C246.239 261.023 246.439 261.278 246.56 261.572C246.678 261.862 246.765 262.163 246.819 262.471C246.889 262.805 246.982 263.133 247.099 263.453C247.245 263.811 247.462 264.136 247.737 264.407C247.737 264.407 247.61 264.331 247.488 264.25L247.241 264.09C247.08 264.332 247.204 264.568 247.399 264.8C247.594 265.033 247.835 265.282 247.912 265.566C248.248 265.258 248.585 265.43 248.947 265.441C248.807 265.535 248.988 265.775 249.146 266.065C249.304 266.355 249.414 266.718 249.114 267.066L249.587 267.159L250.054 267.246C250.116 267.296 250.174 267.35 250.228 267.409C250.278 267.46 250.324 267.515 250.365 267.573C250.439 267.68 250.496 267.797 250.533 267.921C250.594 268.165 250.626 268.416 250.627 268.668C250.654 269.168 250.673 269.694 251.216 270.091C251.24 269.774 251.417 269.662 251.537 269.52C251.658 269.377 251.724 269.208 251.537 268.785C251.846 269.077 252.183 269.273 251.974 269.511C252.067 269.501 252.141 269.577 252.212 269.69C252.291 269.826 252.363 269.966 252.427 270.11C252.493 270.261 252.58 270.403 252.683 270.532C252.727 270.586 252.784 270.628 252.848 270.655C252.913 270.681 252.983 270.69 253.052 270.682C253.068 270.948 252.816 271.362 253.229 271.637C253.262 271.618 253.291 271.592 253.314 271.561C253.337 271.53 253.354 271.495 253.363 271.458C253.226 271.635 253.805 272.16 253.155 272.307C253.383 272.267 253.617 272.267 253.845 272.307C254.063 272.341 254.275 272.404 254.477 272.494C254.884 272.693 255.275 272.925 255.644 273.188C255.836 273.315 256.032 273.432 256.223 273.544C256.407 273.658 256.603 273.752 256.806 273.824C256.996 273.891 257.194 273.931 257.394 273.943C257.491 273.946 257.588 273.941 257.684 273.926C257.785 273.906 257.883 273.875 257.976 273.833C258.177 273.959 258.389 274.089 258.607 274.221C258.714 274.289 258.829 274.348 258.943 274.407L259.286 274.585C259.718 274.806 260.164 274.998 260.621 275.16C260.607 275.014 260.683 274.943 260.514 274.938C260.827 274.932 261.007 275.004 261.121 275.136C261.235 275.268 261.287 275.448 261.345 275.63C261.389 275.815 261.482 275.987 261.613 276.126C261.757 276.252 261.986 276.324 262.35 276.289C263.2 275.734 261.724 275.735 262.216 275.564C262.35 275.212 262.511 275.071 262.695 275.047C262.795 275.039 262.895 275.053 262.989 275.089C263.102 275.128 263.212 275.174 263.319 275.227C263.557 275.356 263.807 275.46 264.066 275.537C264.2 275.572 264.34 275.578 264.476 275.555C264.613 275.531 264.742 275.478 264.857 275.4L264.653 275.278C264.744 275.233 264.842 275.207 264.943 275.201C265.043 275.196 265.144 275.21 265.239 275.243C265.465 275.315 265.681 275.413 265.883 275.536L266.234 275.731C266.355 275.795 266.481 275.853 266.607 275.906C266.868 276.021 267.149 276.084 267.434 276.092C267.409 276.018 267.414 275.938 267.447 275.867C267.808 276.274 268.366 276.584 268.981 276.8C269.596 277.017 270.262 277.159 270.832 277.283C270.491 276.688 270.323 276.956 270.552 276.37C271.059 276.47 270.373 277.324 271.398 277.509C271.739 277.199 272.48 276.92 272.576 276.285L272.097 276.268C271.978 276.263 271.858 276.258 271.769 276.253L271.62 276.244C271.869 275.84 272.179 275.847 272.486 275.939C272.793 276.032 273.11 276.21 273.362 276.133L273.295 275.776C273.597 275.793 273.894 275.859 274.174 275.973C274.389 276.067 274.598 276.175 274.798 276.298C275.191 276.521 275.601 276.722 276.396 276.659L276.241 276.939C277.151 277.802 276.949 276.406 277.849 277.032L278.062 276.112C278.353 276.205 278.866 276.392 279.439 276.57C280.013 276.748 280.645 276.904 281.168 276.943C280.525 276.326 279.302 276.072 278.544 275.715C278.948 275.687 279.353 275.689 279.757 275.722C280.205 275.761 280.627 275.86 280.793 276.072C280.557 276.002 280.254 275.802 280.041 275.959C280.405 276.285 280.84 276.523 281.311 276.655C281.819 276.793 282.35 276.827 282.872 276.755C282.68 275.888 283.399 275.707 284.244 275.542C284.674 275.475 285.097 275.37 285.508 275.227C285.896 275.079 286.213 274.854 286.361 274.481C286.611 274.523 286.864 274.543 287.118 274.542C287.365 274.538 287.612 274.516 287.856 274.475C288.103 274.436 288.346 274.384 288.587 274.319C288.829 274.252 289.07 274.176 289.313 274.095C289.801 273.936 290.288 273.74 290.796 273.573C291.05 273.491 291.307 273.402 291.571 273.328C291.835 273.254 292.107 273.192 292.386 273.136C292.271 273.518 292.25 273.695 292.293 273.781C292.336 273.867 292.44 273.847 292.564 273.822C292.811 273.776 293.142 273.713 293.243 274.413C293.791 274.372 293.989 274.297 294.008 274.195L294.688 273.578C294.857 273.425 295.025 273.269 295.148 273.15L295.355 272.954C295.608 272.454 294.784 272.796 294.747 272.478C295.826 272.053 295.048 271.77 295.666 271.202C295.666 271.73 296.256 271.772 296.822 271.394L296.134 272.289C297.016 272.404 297.268 272.02 297.503 271.624C297.738 271.229 297.974 270.85 298.854 270.92L298.228 270.676C298.657 270.658 299.374 270.406 300.115 270.225C300.302 270.18 300.488 270.146 300.675 270.116C300.857 270.085 301.042 270.069 301.227 270.068C301.579 270.057 301.927 270.141 302.235 270.311C302.306 270.102 302.328 269.672 301.955 269.725C302.386 269.484 302.888 269.333 303.402 269.186C303.661 269.116 303.925 269.054 304.191 268.993L304.98 268.798C305.479 268.682 305.965 268.518 306.433 268.309C306.841 268.132 307.198 267.853 307.47 267.501L307.167 267.278C307.535 267.185 308.048 267.504 308.264 266.97C308.171 266.861 307.958 266.754 308.092 266.649C308.325 266.654 308.559 266.635 308.789 266.593C309.083 266.533 309.39 266.418 309.54 266.202L308.98 266.109C309.137 265.944 309.31 265.795 309.498 265.665C309.663 265.546 309.84 265.443 310.027 265.359C310.205 265.28 310.388 265.214 310.576 265.163C310.763 265.108 310.95 265.065 311.136 265.026C311.891 264.879 312.667 264.787 313.375 264.366C313.055 263.974 313.13 263.473 313.334 263.004C313.441 262.768 313.562 262.539 313.698 262.319C313.831 262.105 313.966 261.915 314.071 261.759L313.955 261.666C314.141 261.473 314.328 261.293 314.515 261.126C314.608 261.043 314.707 260.965 314.805 260.89L314.953 260.78L315.097 260.669C315.291 260.525 315.489 260.389 315.691 260.264C315.792 260.201 315.894 260.139 315.996 260.078L316.298 259.891C316.702 259.644 317.127 259.415 317.532 259.145C317.737 259.011 317.945 258.873 318.152 258.726C318.359 258.578 318.553 258.412 318.753 258.239C318.745 258.021 318.771 257.803 318.829 257.593C318.887 257.36 318.967 257.132 319.066 256.913C319.117 256.797 319.174 256.682 319.236 256.564L319.428 256.207C319.559 255.963 319.708 255.717 319.855 255.468C320.443 254.462 321.105 253.379 321.29 252.339C321.308 252.697 322.01 252.666 322.274 252.387C322.295 252.128 322.593 251.905 322.788 251.704C322.983 251.504 323.062 251.326 322.625 251.162L322.565 251.324C322.42 251.174 322.323 250.985 322.285 250.78C322.255 250.593 322.268 250.401 322.324 250.22C322.382 250.03 322.455 249.845 322.545 249.668C322.627 249.481 322.71 249.299 322.774 249.123L323.949 249.459C323.752 248.869 323.741 248.234 323.916 247.637C323.993 247.343 324.091 247.054 324.211 246.774C324.27 246.632 324.336 246.494 324.398 246.352C324.459 246.21 324.52 246.072 324.584 245.934C324.706 245.654 324.839 245.39 324.935 245.127C325.029 244.88 325.103 244.626 325.156 244.367C325.179 244.252 325.192 244.134 325.194 244.017C325.193 243.906 325.18 243.795 325.155 243.687C325.106 243.471 324.996 243.273 324.837 243.117C324.932 243.015 325.016 242.902 325.085 242.781C325.151 242.661 325.208 242.536 325.266 242.408C325.369 242.148 325.509 241.905 325.682 241.686L325.029 241.624C325.029 241.295 325.02 241.008 325.023 240.737C325.023 240.603 325.023 240.472 325.028 240.342C325.034 240.211 325.028 240.083 325.028 239.953C325.033 239.69 325.058 239.42 325.082 239.113C325.107 238.806 325.134 238.47 325.183 238.071L324.709 238.389C324.707 238.283 324.733 238.178 324.786 238.086C324.839 237.989 324.908 237.902 324.99 237.827C325.189 237.657 325.405 237.506 325.634 237.378C325.867 237.245 326.087 237.091 326.293 236.918C326.479 236.751 326.584 236.567 326.581 236.348L326.087 236.247L325.594 236.153C325.585 235.954 325.561 235.755 325.521 235.559C325.478 235.363 325.428 235.168 325.374 234.975L325.291 234.685C325.264 234.592 325.236 234.492 325.198 234.398C325.133 234.211 325.069 234.018 325.012 233.828C324.984 233.734 324.957 233.641 324.934 233.542L324.9 233.399L324.862 233.257C324.815 233.067 324.781 232.874 324.761 232.68C324.753 232.582 324.747 232.483 324.747 232.383C324.747 232.334 324.747 232.284 324.747 232.232C324.747 232.183 324.747 232.132 324.747 232.082C324.756 231.869 324.788 231.658 324.841 231.452C324.71 231.514 324.45 231.631 324.476 231.884C324.423 231.709 324.312 231.461 324.196 231.187C324.059 230.916 323.943 230.636 323.847 230.348C323.77 230.068 323.713 229.817 323.774 229.612C323.836 229.408 324.003 229.256 324.339 229.202C324.134 229.274 323.991 229.216 323.893 229.076C323.84 228.994 323.8 228.904 323.777 228.809C323.741 228.692 323.715 228.573 323.699 228.452C323.68 228.321 323.667 228.179 323.659 228.034C323.65 227.888 323.638 227.739 323.633 227.591C323.619 227.294 323.619 226.997 323.602 226.761L323.089 227.166C323.291 226.663 323.436 226.369 323.495 226.078C323.555 225.787 323.521 225.497 323.353 224.981C323.153 224.808 322.799 225.055 323.11 225.253C322.753 224.984 322.802 224.77 322.836 224.532C322.869 224.294 322.879 224.04 322.462 223.706L322.322 224.245C322.224 224.115 322.139 223.976 322.069 223.829C322.023 223.738 322 223.637 322.002 223.535C322.002 223.348 322.096 223.169 322.154 222.834C322.099 222.539 321.819 222.226 321.486 222.027C321.154 221.829 320.765 221.747 320.501 221.882C320.618 221.69 320.672 221.466 320.654 221.243C320.651 221.118 320.618 220.997 320.557 220.888C320.496 220.78 320.41 220.688 320.305 220.621C320.093 220.715 320.119 220.94 320.119 221.055C319.843 220.887 319.608 220.66 319.43 220.392C319.282 220.168 319.155 219.932 319.051 219.685C318.958 219.463 318.835 219.256 318.685 219.068C318.609 218.979 318.519 218.903 318.42 218.842C318.303 218.777 318.177 218.731 318.046 218.706C317.884 218.845 317.766 218.878 317.661 218.868C318.083 219.249 318.446 219.609 318.712 219.852C318.977 220.094 319.127 220.239 319.114 220.192C318.898 220.394 318.615 220.347 318.378 220.388C318.14 220.429 317.946 220.559 317.888 221.093C317.848 220.889 317.811 220.637 317.755 220.373C317.702 220.095 317.631 219.82 317.544 219.55C317.459 219.288 317.341 219.037 317.193 218.804C317.061 218.599 316.875 218.433 316.657 218.323C316.579 218.335 316.504 218.361 316.435 218.398L316.458 218.509C316.372 218.465 316.295 218.403 316.233 218.328C316.171 218.253 316.126 218.166 316.099 218.072C315.819 217.962 315.641 217.901 315.423 217.739C315.228 217.895 314.988 217.784 314.75 217.602C314.512 217.42 314.266 217.175 314.081 217.048C314.502 216.554 313.952 216.282 314.727 216.187C314.641 216.179 314.751 216.301 314.977 216.51C315.025 216.56 315.063 216.618 315.09 216.682C315.09 216.663 315.099 216.64 315.101 216.619L315.967 217.365C315.895 216.886 315.768 216.417 315.138 216.392C315.2 215.985 315.236 215.575 315.245 215.163C314.185 215.492 312.913 215.211 312.464 215.589C311.99 215.05 311.319 214.572 310.749 214.04C310.464 213.79 310.209 213.509 309.988 213.2C309.774 212.901 309.631 212.557 309.57 212.194C309.276 211.868 308.991 212.287 308.771 212.391C308.924 212.606 309.18 212.716 309.21 212.928C309.041 212.751 308.853 212.593 308.65 212.456C308.432 212.3 308.192 212.154 307.979 211.994C307.55 211.679 307.209 211.349 307.295 210.918C306.742 210.883 306.798 211.124 306.834 211.279C306.869 211.435 306.887 211.515 306.274 211.172L306.345 211.486C305.691 211.529 305.04 211.363 304.487 211.012C304.231 210.848 303.987 210.665 303.758 210.465L303.053 209.843C302.815 209.634 302.573 209.426 302.314 209.237C302.186 209.141 302.052 209.053 301.914 208.972C301.773 208.894 301.627 208.823 301.478 208.762C300.79 208.478 300.025 208.437 299.311 208.646C299.546 208.597 299.663 208.577 299.744 208.451C299.292 208.43 298.843 208.379 298.399 208.297C297.954 208.227 297.512 208.137 297.071 208.028L296.412 207.859C296.19 207.804 295.969 207.746 295.749 207.687L295.087 207.506L294.755 207.413L294.421 207.329C293.976 207.219 293.53 207.113 293.083 207.019C292.636 206.926 292.183 206.864 291.732 206.815C291.507 206.792 291.281 206.773 291.054 206.764C290.827 206.754 290.6 206.758 290.372 206.764C289.914 206.779 289.457 206.834 289.009 206.929C287.982 207.059 287.942 206.508 287.373 206.03L287.085 206.699L286.119 205.8C285.403 205.427 284.72 205.811 283.996 206.111C283.273 206.41 282.516 206.659 281.611 206.039L281.885 205.587C281.201 205.632 279.749 205.179 279.832 205.723C279.768 205.63 279.637 205.225 279.357 205.455L279.316 205.817L277.678 205.106C276.367 205.306 277.809 206.557 275.916 206.538C275.22 206.366 273.957 205.391 274.237 205.16C274.522 205.154 274.973 204.966 275.011 204.6L274.374 204.382C274.304 203.307 273.852 202.188 275.476 201.512L276.554 202.216L276.936 201.715L276.003 201.638C276.553 201.171 276.872 201.623 277.234 201.937C277.272 201.816 277.336 201.704 277.421 201.609C277.506 201.515 277.611 201.439 277.727 201.388L278.767 202.466C278.922 202.054 278.32 201.609 279.066 201.418C279.552 201.92 278.526 202.329 279.354 202.687C279.914 202.23 279.781 201.822 280.381 202.276C280.485 202.006 280.363 201.823 280.121 201.686C280.661 202.05 281.591 201.916 281.841 202.503C282.438 201.943 283.713 202.792 283.733 201.776C283.891 202.028 284.658 202.65 285.166 202.734C284.748 202.09 285.23 202.112 285.802 202.132C286.374 202.151 287.034 202.182 286.973 201.521C287.271 202.099 287.887 202.278 288.579 202.422C288.925 202.492 289.289 202.548 289.639 202.633C289.984 202.712 290.314 202.848 290.615 203.036C290.557 202.942 290.444 202.749 290.327 202.789C291.035 202.789 291.283 202.492 291.761 202.349C291.726 203.256 292.776 203.625 293.264 204.262C293.755 203.902 293.672 203.622 293.512 203.329C293.351 203.037 293.115 202.746 293.316 202.354C293.236 202.713 293.58 202.945 293.892 203.174C294.205 203.402 294.486 203.602 294.288 203.876C295.034 203.461 294.893 203.718 295.366 203.042C295.272 204.162 295.939 203.349 296.344 204.136C296.868 203.959 296.985 203.713 297.091 203.577C297.11 203.543 297.14 203.516 297.175 203.499C297.211 203.483 297.25 203.477 297.289 203.483C297.382 203.494 297.53 203.558 297.771 203.703C298.051 203.592 297.988 203.385 297.849 203.206C297.781 203.122 297.704 203.044 297.621 202.974C297.559 202.922 297.508 202.886 297.508 202.886ZM319.512 215.521L319.521 215.511C319.367 215.355 319.241 215.217 319.154 215.138C319.231 215.216 319.334 215.324 319.512 215.521ZM321.054 217.002C320.851 216.835 320.622 216.606 320.375 216.369C320.166 216.479 320.065 216.701 320.227 216.835C320.237 216.742 320.357 216.757 320.515 216.81C320.674 216.863 320.873 216.955 321.054 217.002ZM314.907 217.507C315.081 217.766 315.238 217.73 315.354 217.653C315.226 217.53 315.106 217.4 314.993 217.263C315.002 217.238 315.005 217.206 315.014 217.18C314.96 217.282 314.924 217.393 314.907 217.507Z" fill="#ED1C24"/>
<path d="M314.998 216.506C314.98 216.464 314.955 216.425 314.926 216.39C315.004 216.384 315.082 216.384 315.16 216.39C315.148 216.467 315.137 216.545 315.123 216.618L314.998 216.506Z" fill="#ED1C24"/>
<path d="M246.59 218.411L246.579 218.454C246.58 218.411 246.571 218.368 246.551 218.329C246.561 218.358 246.574 218.385 246.59 218.411Z" fill="#ED1C24"/>
<path d="M330.482 244.591L330.321 244.555L330.5 244.392L330.482 244.591Z" fill="#ED1C24"/>
<path d="M252.384 208.553C252.359 208.479 252.361 208.399 252.39 208.327C252.408 208.401 252.406 208.48 252.384 208.553Z" fill="#ED1C24"/>
<path d="M256.231 205.374L256.688 204.785C256.556 204.996 256.403 205.194 256.231 205.374Z" fill="#ED1C24"/>
<path d="M259.316 203.039C259.393 203.096 259.461 203.165 259.52 203.241C259.52 203.241 259.52 203.246 259.52 203.249L259.316 203.039Z" fill="#ED1C24"/>
<path d="M238.681 256.48C238.696 256.53 238.703 256.582 238.703 256.633C238.707 257.013 238.673 256.766 238.681 256.48Z" fill="#ED1C24"/>
<path d="M237.891 238.236C237.757 238.41 237.64 238.598 237.543 238.796C237.517 238.47 237.523 238.217 237.891 238.236Z" fill="#ED1C24"/>
<path d="M249.622 274.46C249.622 274.455 249.622 274.46 249.622 274.449C249.658 274.481 249.693 274.506 249.73 274.536L249.622 274.46Z" fill="#ED1C24"/>
<path d="M237.514 239.637C237.463 239.502 237.439 239.358 237.444 239.214C237.449 239.07 237.482 238.928 237.543 238.797C237.563 239.061 237.624 239.38 237.514 239.637Z" fill="#ED1C24"/>
<path d="M275.009 197.189L275.193 197.134C275.195 197.17 275.208 197.205 275.23 197.234L275.009 197.189Z" fill="#ED1C24"/>
<path d="M275.235 197.233L275.453 197.277C275.354 197.292 275.274 197.303 275.235 197.233Z" fill="#ED1C24"/>
<path d="M275.906 197.382L275.679 197.328L275.522 197.291L275.45 197.277C275.6 197.252 275.784 197.209 275.906 197.382Z" fill="#ED1C24"/>
<path d="M270.039 198.552L269.919 198.34C269.977 198.399 270.018 198.472 270.039 198.552Z" fill="#ED1C24"/>
<path d="M268.525 198.925C268.863 198.767 269.281 198.178 269.825 198.173L269.918 198.34C269.754 198.204 269.513 198.423 269.265 198.637C269.017 198.85 268.752 199.062 268.525 198.925Z" fill="#ED1C24"/>
<path d="M263.717 203.927L264.232 203.579C264.359 203.49 264.491 203.408 264.589 203.346L264.753 203.243C264.66 203.557 264.541 203.974 265.07 203.809C264.796 204.131 264.666 204.252 264.604 204.268C264.541 204.284 264.533 204.184 264.519 204.069C264.488 203.838 264.422 203.537 263.717 203.927Z" fill="#ED1C24"/>
<path d="M260.553 206.023C261.173 205.791 260.729 206.34 260.833 206.444C260.364 206.456 260.246 206.46 260.553 206.023Z" fill="#ED1C24"/>
<path d="M243.092 226.181L243.664 226.337C243.405 226.766 243.448 226.258 243.092 226.181Z" fill="#ED1C24"/>
<path d="M238.559 230.376L238.341 229.776L238.926 229.674L238.559 230.376Z" fill="#ED1C24"/>
<path d="M242.003 234.323L242.121 234.128L241.777 234.897L242.003 234.323Z" fill="#ED1C24"/>
<path d="M257.355 272.771L256.9 273.356C256.782 273.23 256.807 272.969 256.905 272.804C256.924 272.765 256.95 272.732 256.983 272.705C257.016 272.678 257.055 272.658 257.096 272.648C257.146 272.643 257.197 272.652 257.243 272.674C257.288 272.695 257.327 272.729 257.355 272.771Z" fill="#ED1C24"/>
<path d="M276.185 276.246C276.391 275.873 276.941 275.624 277.305 275.96C276.858 276.034 276.418 276.331 276.185 276.246Z" fill="#ED1C24"/>
<path d="M323.428 248.228L323.074 248.497L323.504 247.9L323.428 248.228Z" fill="#ED1C24"/>
<path d="M356.189 258.786C358.157 259.155 402.434 296.309 463.984 307.407L417.295 226.205L356.189 258.786Z" fill="#E79354"/>
<path d="M469.508 259.035L435.98 221.497C433.947 219.545 431.712 217.815 429.313 216.336C425.229 213.842 420.388 212.893 415.666 213.659L353.325 223.698L381.138 243.859L411.975 237.356C411.975 237.356 416.146 236.53 420.19 244.845L432.539 265.97C436.875 273.388 436.059 282.801 430.355 289.227C429.343 290.39 428.168 291.399 426.865 292.222L466.742 310.454L473.77 282.587C473.77 282.587 478.034 268.76 469.508 259.035Z" fill="#F3AE6D"/>
<path d="M425.501 401.782L458.271 464.641C458.271 464.641 476.126 465.524 504.435 447.888C528.924 424.795 520.032 410.318 520.032 410.318L494.097 363.97L462.252 381.523L425.626 401.712L425.501 401.782Z" fill="#353B53"/>
<path d="M425.624 401.713L458.276 464.968L497.25 444.915L462.25 381.523L425.624 401.713Z" fill="#DFECF0" fill-opacity="0.2"/>
<path d="M350.031 222.017C350.031 222.017 323.669 218.884 323.081 219.953C322.493 221.022 341.628 241.633 341.628 241.633L347.959 233.559L350.031 222.017Z" fill="#E7B26A"/>
<path d="M349.887 221.954L464.629 271.531L456.341 290.607L341.551 241.6C341.551 241.6 340.487 238.453 343.349 237.877C343.349 237.877 341.614 235.123 345.142 234.077C345.142 234.077 343.507 231.449 346.898 229.664C346.898 229.664 345.276 227.059 348.248 225.989C348.248 225.989 346.806 224.123 349.887 221.954Z" fill="#2E79BD"/>
<path d="M404.727 285.722C402.131 283.638 392.471 274.642 387.336 264.145L376.389 242.856C376.389 242.856 372.397 235.864 364.187 236.391C363.809 236.416 363.434 236.478 363.068 236.578C360.949 237.157 353.737 239.636 351.243 247.046C350.964 247.876 350.878 248.758 350.994 249.626C351.254 251.586 352.27 255.521 355.932 262.18L385.197 320.363C385.197 320.363 393.233 334.686 401.48 342.834C401.606 342.959 401.728 343.089 401.841 343.225C402.961 344.554 409.379 352.104 413.326 355.081C413.97 355.565 414.505 356.179 414.898 356.883L419.675 365.461C419.694 365.495 419.72 365.526 419.751 365.55C419.782 365.575 419.817 365.593 419.855 365.604C419.893 365.615 419.933 365.618 419.972 365.613C420.011 365.609 420.049 365.597 420.084 365.578L465.848 340.265L463.057 335.22C462.387 334.009 462.175 332.596 462.461 331.241L466.836 310.473L429.746 293.527C428.895 293.138 427.835 292.609 426.978 292.233C426.211 291.897 422.372 299.887 404.727 285.722Z" fill="#F3AE6D"/>
<path d="M477.18 276.844L461.09 269.976L452.909 289.143L468.996 296.012C474.793 298.486 481.377 296.199 483.628 290.927C485.878 285.656 482.977 279.319 477.18 276.844Z" fill="#252A26"/>
<path d="M495.112 367.398L427.877 404.491C423.535 406.886 418.024 405.293 415.629 400.953L404.027 379.926C401.632 375.586 403.225 370.075 407.566 367.68L474.801 330.588C479.142 328.193 484.654 329.785 487.049 334.126L498.651 355.151C501.046 359.492 499.453 365.003 495.112 367.398Z" fill="#FBF8EC"/>
<path d="M333.387 220.521C333.387 220.521 323.349 219.302 323.13 219.892C322.855 220.629 329.535 227.9 329.535 227.9L333.387 220.521Z" fill="#282928"/>
</g>
<path d="M169.49 114.042C168.922 114.042 168.458 114.506 168.458 115.074C168.458 115.648 168.458 120.227 168.458 120.801C168.458 121.368 167.994 121.833 167.426 121.833C166.859 121.833 162.331 121.833 161.763 121.833C161.196 121.833 160.731 121.368 160.731 120.801C160.731 120.227 160.731 115.648 160.731 115.074C160.731 114.506 160.267 114.042 159.7 114.042C159.358 114.042 156.668 114.042 156.326 114.042C155.759 114.042 155.623 113.713 156.023 113.313C156.804 112.539 162.995 106.341 163.776 105.567C164.176 105.167 164.833 105.167 165.233 105.567C166.007 106.341 172.205 112.539 172.979 113.313C173.379 113.713 173.244 114.042 172.676 114.042C172.038 114.042 169.806 114.042 169.49 114.042ZM167.291 100.265C167.291 101.807 166.04 103.051 164.504 103.051C162.963 103.051 161.718 101.807 161.718 100.265C161.718 98.7302 162.963 97.4789 164.504 97.4789C166.04 97.4789 167.291 98.7302 167.291 100.265ZM182.293 108.34C172.67 98.7172 167.323 93.3705 166.259 92.2998C165.291 91.3389 163.711 91.3389 162.75 92.2998C161.144 93.9058 148.316 106.734 146.71 108.34C145.743 109.308 145.743 110.881 146.71 111.849C148.316 113.455 161.144 126.283 162.75 127.889C163.711 128.85 165.291 128.85 166.259 127.889C167.858 126.283 180.693 113.455 182.293 111.849C183.26 110.881 183.26 109.308 182.293 108.34Z" fill="white"/>
<defs>
<linearGradient id="paint0_linear" x1="188.934" y1="33.9955" x2="521.901" y2="320.769" gradientUnits="userSpaceOnUse">
<stop stop-color="white" stop-opacity="0"/>
<stop offset="1" stop-color="white"/>
</linearGradient>
</defs>
</svg>
