<svg width="550" height="547" viewBox="0 0 550 547" fill="none" xmlns="http://www.w3.org/2000/svg">
<path fill-rule="evenodd" clip-rule="evenodd" d="M177.612 137.46C152.967 165.279 113.949 177.269 97.1203 210.536C77.3459 249.624 57.9885 297.145 76.2392 337.847C94.4398 378.437 148.293 384.181 185.736 408.163C223.201 432.159 250.773 442.072 294.753 443.074C339.324 444.089 374.938 443.378 407.159 413.206C437.691 384.615 470.701 352.812 474.437 310.66C478.018 270.245 439.706 239.519 425.967 200.954C411.196 159.492 419.807 134.618 389.481 102.551C356.367 67.5359 305.558 62.4525 260.082 75.3092C214.295 88.2541 209.061 101.961 177.612 137.46Z" fill="url(#paint0_linear)"/>
<path d="M349.804 224.236L349.684 224.22C349.625 224.232 349.562 224.243 349.513 224.282C348.843 224.782 348.173 225.282 347.503 225.782C347.461 225.816 347.414 225.861 347.418 225.92C347.425 225.967 347.475 225.985 347.516 225.992C347.771 226.03 348.028 226.061 348.283 226.101C348.403 226.114 348.502 226.228 348.487 226.35C348.429 226.806 348.359 227.26 348.3 227.716C348.283 227.84 348.387 227.955 348.508 227.971C348.959 228.036 349.41 228.098 349.862 228.161C349.991 228.184 350.119 228.079 350.128 227.949C350.191 227.51 350.25 227.069 350.313 226.629C350.324 226.499 350.455 226.4 350.583 226.422C350.86 226.456 351.136 226.501 351.413 226.535C351.457 226.542 351.518 226.525 351.523 226.473C351.53 226.397 351.473 226.337 351.431 226.28C350.935 225.633 350.441 224.984 349.945 224.337C349.91 224.289 349.855 224.263 349.804 224.236Z" fill="white"/>
<path d="M352.411 227.562C352.378 227.522 352.341 227.473 352.284 227.474C352.223 227.485 352.208 227.556 352.2 227.607C352.032 228.806 351.865 230.006 351.697 231.205C351.688 231.274 351.673 231.342 351.674 231.412C351.675 231.45 351.7 231.493 351.742 231.493C351.83 231.497 351.894 231.426 351.96 231.379C352.578 230.911 353.196 230.443 353.814 229.975C353.881 229.922 353.965 229.879 353.996 229.793L354.002 229.752C354.006 229.679 353.978 229.609 353.933 229.553C353.425 228.89 352.918 228.226 352.411 227.562Z" fill="white"/>
<path d="M346.372 226.691C346.319 226.675 346.278 226.723 346.238 226.75C345.577 227.236 344.915 227.721 344.254 228.208C344.154 228.274 344.096 228.422 344.173 228.526C344.68 229.19 345.189 229.854 345.695 230.519C345.729 230.557 345.752 230.619 345.809 230.623C345.873 230.61 345.885 230.534 345.893 230.48C346.064 229.26 346.235 228.039 346.405 226.819C346.41 226.775 346.415 226.718 346.372 226.691Z" fill="white"/>
<path d="M349.787 230.394C349.812 230.267 349.714 230.139 349.587 230.123C349.17 230.06 348.751 230.006 348.333 229.946C348.243 229.933 348.142 229.921 348.062 229.975C347.997 230.014 347.965 230.088 347.957 230.161C347.893 230.622 347.829 231.083 347.764 231.544C347.754 231.67 347.645 231.791 347.513 231.777C347.265 231.748 347.019 231.705 346.771 231.677C346.724 231.673 346.656 231.679 346.644 231.735C346.651 231.794 346.702 231.834 346.734 231.881C347.225 232.533 347.715 233.185 348.206 233.837C348.245 233.891 348.301 233.931 348.365 233.95L348.397 233.955C348.464 233.958 348.531 233.936 348.584 233.895C349.243 233.397 349.9 232.898 350.559 232.4C350.599 232.365 350.667 232.342 350.67 232.281C350.654 232.223 350.586 232.21 350.535 232.201C350.28 232.163 350.023 232.132 349.768 232.092C349.638 232.068 349.567 231.923 349.592 231.8C349.655 231.331 349.723 230.863 349.787 230.394Z" fill="white"/>
<mask id="mask0" style="mask-type:alpha" maskUnits="userSpaceOnUse" x="71" y="42" width="385" height="431">
<path fill-rule="evenodd" clip-rule="evenodd" d="M174.388 150.253C151.095 176.546 114.216 187.879 98.3102 219.321C79.6201 256.266 61.3242 301.181 78.5741 339.651C95.7767 378.016 146.677 383.445 182.067 406.112C217.477 428.792 244.208 471.416 285.777 472.362C327.904 473.322 360.894 439.396 391.348 410.878C420.206 383.855 451.407 353.796 454.937 313.956C458.322 275.756 422.11 246.715 409.125 210.265C395.164 171.076 404.947 123.483 376.284 93.1739C344.986 60.0788 295.77 32.7976 252.788 44.9494C209.511 57.1844 204.113 116.7 174.388 150.253Z" fill="#F4F4F4"/>
</mask>
<g mask="url(#mask0)">
<path fill-rule="evenodd" clip-rule="evenodd" d="M134.055 319.89C132.457 315.803 133.006 300.957 132.249 296.651C131.704 293.134 130.687 289.708 129.224 286.464C128.943 285.867 128.895 285.684 129.712 285.379C133.03 284.159 136.299 282.731 139.569 281.316C145.607 278.694 151.768 276.339 157.526 273.045C162.205 270.444 167.05 268.154 172.031 266.19C176.912 264.223 181.681 261.987 186.316 259.492C187.962 258.577 188.121 256.955 188.755 255.467C190.902 250.514 191.573 253.149 195.148 247.232C198.527 241.657 201.003 235.582 204.029 229.8C208.652 220.943 213.288 212.099 218.131 203.377C218.46 202.779 218.765 202.157 219.082 201.583C220.424 201.108 221.742 200.607 223.035 200.046C223.378 199.871 223.759 199.779 224.145 199.779C224.531 199.779 224.911 199.871 225.255 200.046C229.244 202.035 233.038 204.377 236.893 206.609C237.157 206.758 237.386 206.962 237.564 207.207C239.321 209.83 241.346 212.294 242.443 215.32C242.646 215.787 242.745 216.294 242.732 216.804C242.719 217.313 242.596 217.814 242.37 218.272C241.024 220.9 239.508 223.439 237.832 225.872C237.399 226.793 236.627 227.512 235.678 227.88C234.729 228.248 233.674 228.236 232.733 227.848C231.964 227.628 231.123 227.616 230.293 227.458C229.494 227.204 228.679 227.005 227.853 226.86C229.501 228.125 231.275 229.217 233.148 230.117C234.539 230.703 234.636 231.008 233.941 232.374C233.099 234.021 233.05 235.924 232.245 237.558C233.746 235.838 235.466 234.338 236.966 232.606C239.626 229.519 241.846 226.103 244.591 223.066C246.14 221.346 247.591 219.553 249.104 217.796C250.795 215.937 252.231 213.861 253.374 211.623C253.844 210.612 254.567 209.738 255.472 209.086C262.267 206.341 268.44 202.425 274.771 198.802C275.21 198.558 275.613 198.204 276.186 198.351C278.157 198.895 280.021 199.769 281.7 200.937C281.265 200.053 280.56 199.331 279.687 198.875C279.285 198.619 278.687 198.485 278.858 197.777C280.458 197.123 282.167 196.771 283.896 196.74C288.556 197.375 291.057 200.546 292.862 204.475C293.192 205.17 293.387 205.926 293.704 206.634C293.748 206.779 293.824 206.912 293.926 207.023C294.029 207.134 294.156 207.221 294.297 207.276C294.438 207.331 294.589 207.354 294.74 207.342C294.891 207.33 295.037 207.284 295.168 207.207C297.925 206.268 300.598 205.097 303.158 203.706C304.079 203.198 304.831 202.432 305.321 201.502C305.81 200.572 306.017 199.519 305.915 198.473C305.881 197.316 305.742 196.164 305.5 195.032C305.073 193.19 304.183 191.788 302.121 191.47C301.731 191.409 301.109 191.47 301.28 190.69C301.894 190.444 302.558 190.347 303.217 190.407C303.877 190.466 304.512 190.68 305.073 191.031C306.458 191.611 307.594 192.661 308.282 193.996C309.331 199.363 308.038 204.365 305.842 209.208C305.546 209.874 305.133 210.481 304.622 211.001C301.536 213.965 299.084 217.552 295.729 220.272C294.359 221.368 292.898 222.343 291.362 223.188C287.793 225.349 283.876 226.872 279.785 227.689C279.357 227.727 278.947 227.876 278.596 228.122C278.245 228.369 277.965 228.703 277.784 229.092C276.807 230.965 275.576 232.693 274.124 234.228C270.634 238.02 267.791 242.36 265.707 247.074C265.627 247.273 265.529 247.465 265.414 247.647C265.268 247.842 265.146 248.135 264.853 248.074C264.56 248.013 264.536 247.696 264.524 247.44C264.47 246.413 264.31 245.396 264.048 244.402C264.006 244.512 264.006 244.634 264.048 244.744C264.399 248.326 263.936 251.942 262.694 255.32C261.389 259.565 260.364 263.86 259.242 268.227C258.648 270.857 257.831 273.432 256.802 275.924C255.789 278.206 255.423 280.694 254.508 283C252.669 288.036 250.336 292.879 247.543 297.456C246.205 299.53 244.263 301.143 241.98 302.079C241.022 302.555 240.125 303.145 239.308 303.836C235.52 306.726 231.327 309.044 226.865 310.716C222.043 312.412 216.959 313.238 211.848 313.156C208.806 313.13 205.769 312.89 202.76 312.436C201.235 312.204 200.101 310.985 198.966 309.996C197.392 308.581 196.429 306.654 195.05 305.117C194.707 304.659 194.341 304.219 193.952 303.799C193.867 304.519 193.781 305.129 193.708 305.727C193.63 306.762 193.239 307.749 192.586 308.557C192.425 308.703 192.303 308.888 192.232 309.094C191.744 311.265 189.963 311.802 188.17 312.326C184.413 313.424 181.033 315.425 177.484 317.023C168.42 321.122 159.563 325.672 150.56 329.881C146.9 331.601 143.131 333.236 139.447 334.968C139.069 335.139 138.691 335.419 138.227 335.151C137.446 332.979 137.141 330.698 136.519 328.478C135.897 326.258 135.189 323.733 134.531 321.354C134.689 320.854 135.336 320.597 135.287 319.963C134.884 319.682 134.457 320 134.055 319.89Z" fill="#F3AE6D"/>
<path fill-rule="evenodd" clip-rule="evenodd" d="M283.991 197.082C282.304 197.262 280.629 197.548 278.977 197.936C278.139 198.357 277.208 198.563 276.269 198.533C274.256 199.631 272.207 200.693 270.17 201.852C266.266 204.133 262.484 206.67 258.154 208.122C257.275 208.427 256.617 209.208 255.641 209.342C255.128 208.89 255.177 208.256 255.128 207.671C253.323 184.724 251.469 161.778 249.663 138.831C249.431 135.794 249.139 132.732 248.956 129.731C248.956 128.999 248.651 128.304 248.565 127.584C248.943 126.596 249.785 126.779 250.529 126.888C260.372 128.058 270.338 127.646 280.051 125.668C285.21 124.813 290.293 123.549 295.251 121.887C299.326 120.578 303.333 119.064 307.255 117.349C313.55 114.238 320.039 111.53 326.151 108.029C329.994 105.774 334.007 103.824 338.155 102.198C338.529 101.99 338.947 101.873 339.375 101.856C339.702 101.944 339.99 102.14 340.192 102.413C340.393 102.685 340.497 103.018 340.485 103.356C340.581 106.432 340.451 109.51 340.095 112.567C339.741 119.349 339.29 126.132 338.875 132.915C338.594 137.404 338.289 141.881 338.009 146.334C337.643 152.092 337.301 157.85 336.947 163.608C336.947 164.547 336.801 165.486 336.728 166.426C336.081 172.357 335.095 178.247 333.776 184.065C333.601 185.118 333.303 186.146 332.885 187.127C332.049 188.285 330.845 189.123 329.469 189.506C328.872 189.323 328.835 188.835 328.92 188.359C329.152 186.871 329.042 185.371 329.262 183.882C330.095 177.815 330.6 171.706 330.775 165.584C330.994 159.887 331.202 154.202 331.592 148.505C332.08 141.539 332.617 134.574 332.812 127.596C332.812 126.669 332.617 126.205 331.592 126.169C328.493 126.083 326.542 124.022 324.809 121.801C324.571 121.439 324.224 121.163 323.819 121.011C323.413 120.86 322.969 120.842 322.552 120.96C316.599 121.789 311.573 124.961 306.108 127.059C300.643 129.157 295.605 131.304 290.249 133.159C285.992 134.65 281.543 135.521 277.038 135.745C274.805 135.855 272.597 136.086 270.377 136.294C269.023 136.416 269.023 136.416 269.157 137.746C269.494 139.511 269.278 141.337 268.538 142.975C267.798 144.613 266.57 145.982 265.022 146.895C263.773 147.664 262.341 148.085 260.874 148.115C259.935 148.115 259.654 148.456 259.74 149.444C260.703 157.24 261.521 165.035 262.094 172.867C262.472 178.161 263.594 183.394 263.79 188.725C263.924 191.983 264.143 195.24 264.095 198.485C264.095 199.9 264.229 200.046 265.546 199.705C270.731 198.192 276.05 197.192 281.246 195.679C281.924 195.559 282.543 195.215 283.003 194.703C287.883 188.408 294.69 185.237 302.253 183.431C304.803 182.661 307.459 182.302 310.122 182.37C314.171 182.611 318.051 184.079 321.247 186.578C322.701 187.866 323.773 189.529 324.346 191.385C324.486 191.75 324.486 192.154 324.346 192.519C323.345 193.812 321.784 194.313 320.466 195.13C317.429 197.021 314.281 198.79 311.122 200.424C310.732 200.632 310.341 200.998 309.829 200.741C309.453 198.85 308.96 196.984 308.353 195.154C308.231 194.837 308.145 194.508 308.011 194.191C307.338 193.025 306.33 192.089 305.119 191.504C303.907 190.919 302.547 190.712 301.216 190.909C300.765 191.348 300.155 191.251 299.606 191.373C297.618 191.543 296.056 192.763 294.324 193.568C291.896 194.812 289.355 195.821 286.736 196.582C285.847 196.869 284.924 197.037 283.991 197.082Z" fill="#779968"/>
<path fill-rule="evenodd" clip-rule="evenodd" d="M308.135 194.13C309.342 196.088 310.003 198.333 310.051 200.632C310.344 202.098 310.213 203.617 309.672 205.011C308.603 209.612 306.197 213.793 302.756 217.027C302.495 217.228 302.25 217.448 302.024 217.686C298.193 221.419 293.557 223.944 288.897 226.421C286.576 227.532 284.42 228.96 282.493 230.666C282.354 230.831 282.179 230.96 281.981 231.044C280.126 231.569 279.394 233.081 278.577 234.619C277.423 236.627 276.07 238.516 274.539 240.255C269.521 246.648 265.74 253.921 263.389 261.7C262.572 264.138 261.96 266.639 261.559 269.178C260.101 279.422 257.029 289.369 252.459 298.651C251.375 301.224 249.902 303.614 248.092 305.739C247.774 306.081 247.506 306.495 246.994 306.581C245.915 307.415 244.907 308.337 243.98 309.338C240.033 312.971 235.495 315.904 230.561 318.011C226.253 319.753 221.63 320.584 216.984 320.451C213.568 320.231 210.141 320.231 206.725 320.451C203.059 320.673 199.565 322.082 196.77 324.465C189.659 330.526 182.201 336.167 174.434 341.36C165.589 347.57 156.916 354.011 148.169 360.354C147.937 360.525 147.681 360.671 147.376 360.867C145.851 357.207 144.351 353.706 143.082 350.058C141.594 345.728 140.154 341.372 138.703 337.03C138.507 336.42 138.398 335.81 138.239 335.163C145.29 331.882 152.353 328.624 159.392 325.306C165.602 322.379 171.786 319.365 177.996 316.401C180.436 315.181 183.083 314.193 185.523 312.863C187.06 312.022 188.902 311.936 190.475 311.131C190.658 311.058 190.822 310.946 190.957 310.802C191.092 310.659 191.194 310.488 191.256 310.301C191.55 309.505 191.961 308.757 192.476 308.081C193.611 306.654 193.367 304.861 193.696 303.202C194.929 304.095 195.936 305.265 196.636 306.617C198.089 308.772 199.93 310.637 202.065 312.119C202.687 312.595 203.455 312.229 204.163 312.326C208.381 312.971 212.662 313.098 216.911 312.705C223.74 312.026 230.295 309.666 235.99 305.837C238.368 304.016 240.885 302.385 243.517 300.957C245.709 299.737 247.443 297.835 248.458 295.541C250.495 291.735 252.251 287.794 253.923 283.817C254.899 281.499 255.143 278.938 256.192 276.644C258.4 271.63 259.376 266.251 260.876 261.017C261.815 257.711 262.572 254.357 263.719 251.087C264.177 249.352 264.215 247.533 263.828 245.781C263.729 244.994 263.779 244.195 263.975 243.426C264.687 244.898 265.019 246.526 264.938 248.16C265.597 246.696 266.061 245.415 266.719 244.244C269.082 240.122 271.879 236.265 275.064 232.74C276.077 231.638 276.901 230.377 277.503 229.007C277.633 228.623 277.868 228.282 278.18 228.024C278.492 227.765 278.871 227.599 279.272 227.543C283.73 226.693 287.996 225.04 291.862 222.663C295.512 220.413 298.723 217.52 301.34 214.124C301.888 213.418 302.496 212.761 303.158 212.16C305.512 210.184 306.488 207.451 307.33 204.67C308.407 201.265 308.682 197.658 308.135 194.13Z" fill="#E79354"/>
<path fill-rule="evenodd" clip-rule="evenodd" d="M248.764 127.401C249.667 128.877 249.399 130.56 249.545 132.146C250.179 139.539 250.765 146.944 251.302 154.336C252.204 165.811 253.115 177.287 254.034 188.762C254.571 195.61 255.12 202.453 255.681 209.293C254.144 210.513 253.461 212.404 252.448 214.026C251.602 215.465 250.599 216.807 249.46 218.027C248.813 218.284 248.508 217.844 248.24 217.393C247.994 216.936 247.825 216.441 247.74 215.929C246.922 211.562 245.129 207.512 243.628 203.364C241.691 197.91 239.464 192.563 236.956 187.347C236.746 187.016 236.648 186.627 236.675 186.237C236.858 181.016 235.699 175.965 234.662 170.903C230.238 149.367 225.814 127.815 221.39 106.248C221.329 105.955 221.304 105.662 221.255 105.357C221.158 104.015 221.951 104.466 222.561 104.759C225.39 105.993 228.041 107.601 230.441 109.541C231.565 110.323 232.648 111.162 233.686 112.054C234.199 112.591 234.76 112.335 235.345 112.054C239.859 109.993 244.226 107.589 248.923 105.955C255.154 103.701 261.588 102.055 268.136 101.039C275.126 100.002 282.226 99.8186 289.155 98.2693C291.961 97.6594 294.779 97.0494 297.609 96.6591C301.037 96.1467 304.416 95.305 307.869 94.9878C308.21 95.061 308.54 95.1342 308.625 95.549C308.344 96.2931 307.612 96.4395 307.003 96.7689C302.123 98.9769 296.951 100.685 291.924 102.685C287.13 104.588 282.055 105.503 277.066 106.748C268.393 108.919 259.56 110.102 250.74 111.396C246.821 111.813 242.949 112.598 239.176 113.738C238.749 113.884 238.066 113.848 238.053 114.409C238.041 114.97 238.639 115.202 239.09 115.458C239.695 115.783 240.351 116.002 241.03 116.104C241.259 116.128 241.478 116.216 241.659 116.359C241.84 116.501 241.978 116.692 242.055 116.909C241.469 117.983 241.469 117.983 242.323 119.105C243.198 120.214 244.131 121.277 245.117 122.289C245.373 122.606 245.605 122.948 245.885 123.241C247.129 124.408 248.11 125.826 248.764 127.401Z" fill="#5E7552"/>
<path fill-rule="evenodd" clip-rule="evenodd" d="M241.005 116.361C239.808 116.224 238.689 115.697 237.821 114.86C237.175 114.25 237.211 113.982 238.078 113.64C241.738 112.461 245.505 111.644 249.325 111.2C256.059 110.334 262.744 109.444 269.466 108.053C276.187 106.662 282.885 105.503 289.375 103.173C295.864 100.843 302.354 98.55 308.588 95.5978C308.676 95.502 308.758 95.4001 308.832 95.2929C308.661 95.4026 308.259 94.9879 307.868 95.2929C302.062 96.3298 296.218 97.1715 290.448 98.4158C283.995 99.8187 277.419 100.233 270.93 101.039C265.628 101.729 260.387 102.826 255.254 104.32C248.605 106.187 242.481 109.2 236.248 112.054C235.906 112.213 235.601 112.469 235.26 112.652C235.018 112.831 234.723 112.922 234.423 112.908C234.123 112.895 233.837 112.779 233.613 112.579C230.306 109.539 226.549 107.029 222.475 105.138C222.024 104.918 221.45 104.393 221.316 105.442C220.901 104.454 221.316 103.979 222.268 103.637C228.233 101.356 234.32 99.4161 240.395 97.5375C251.171 93.9799 262.262 91.4555 273.516 89.9985C276.358 89.6813 279.152 88.7786 282.055 88.6322C290.877 87.9327 299.733 87.7576 308.576 88.1076C310.54 88.2174 312.516 88.254 314.48 88.3028C315.429 88.3727 316.327 88.7594 317.03 89.4007C317.874 90.0559 318.801 90.5973 319.787 91.011C322.943 92.4254 326.011 94.0305 328.973 95.8174C326.911 97.615 324.726 99.2659 322.434 100.758C319.665 102.551 316.969 104.418 314.139 106.138C310.114 108.334 305.935 110.233 301.635 111.823C296.047 114.116 290.155 115.214 284.312 116.568C271.796 119.471 259.023 120.606 246.385 122.668C246.185 122.741 245.971 122.767 245.759 122.744C245.548 122.72 245.344 122.648 245.165 122.533C243.696 121.182 242.371 119.682 241.213 118.056C240.603 117.312 241.871 117.544 242.091 117.141L241.005 116.361Z" fill="#95B776"/>
<path fill-rule="evenodd" clip-rule="evenodd" d="M296.951 106.93C297.756 106.43 298.549 105.918 299.391 105.442C300.233 104.966 300.964 104.466 301.831 104.1C304.197 102.783 306.649 101.66 309.15 100.55C309.821 100.184 310.541 99.9038 311.187 99.5013C312.822 98.7083 314.335 97.6958 315.921 96.8053C316.262 96.5735 316.652 96.4149 316.982 96.1709C317.128 96.0733 316.982 96.0611 316.982 96.0855C316.647 96.3904 316.263 96.6377 315.847 96.8175C314.261 97.708 312.724 98.6717 311.102 99.5135C310.455 99.9282 309.736 100.197 309.065 100.575C306.625 101.697 304.185 102.807 301.818 104.113C300.964 104.491 300.22 105.088 299.379 105.454C294.826 107.66 289.996 109.24 285.02 110.151L296.951 106.93Z" fill="#95B776"/>
<path fill-rule="evenodd" clip-rule="evenodd" d="M263.133 261.407C265.503 253.667 269.278 246.43 274.271 240.059C276.302 237.798 277.995 235.254 279.297 232.508C279.472 232.125 279.756 231.802 280.114 231.581C285.592 227.628 291.74 224.774 297.364 221.065C298.986 220.008 300.491 218.781 301.853 217.405C302.231 217.405 302.231 217.698 302.28 217.942C301.945 219.447 301.296 220.864 300.377 222.102C298.044 226.032 295.076 229.549 291.593 232.508C290.853 233.161 290.034 233.719 289.154 234.167C288.41 234.545 287.702 234.96 286.958 235.387C285.488 236.183 283.964 236.872 282.395 237.448C281.892 237.622 281.431 237.901 281.044 238.267C280.657 238.634 280.352 239.078 280.151 239.571C276.951 246.314 274.216 253.267 271.965 260.383C271.538 261.688 271.148 263.005 270.684 264.299C269.778 266.799 269.44 269.471 269.696 272.118C270.428 281.097 270.477 290.112 270.599 299.115C270.513 299.73 270.641 300.356 270.964 300.888C271.286 301.419 271.782 301.823 272.368 302.03C273.508 302.636 274.517 303.463 275.336 304.462C276.155 305.46 276.767 306.612 277.138 307.849C277.65 309.301 277.638 309.289 279.15 308.825C281.839 307.935 284.451 306.825 286.958 305.507C287.406 305.307 287.792 304.992 288.077 304.593C288.362 304.194 288.536 303.726 288.58 303.238C289.742 295.277 293.458 287.909 299.169 282.243C299.468 282.001 299.708 281.694 299.871 281.345C300.033 280.996 300.115 280.615 300.108 280.23C299.912 277.795 300.16 275.343 300.84 272.996C301.609 270.618 301.694 268.117 302.365 265.677C303.615 261.481 305.455 257.485 307.83 253.807C311.937 247.223 316.855 241.182 322.469 235.826C322.63 235.71 322.765 235.562 322.866 235.391C322.967 235.221 323.032 235.031 323.057 234.835C323.082 234.638 323.067 234.439 323.012 234.248C322.957 234.058 322.864 233.881 322.738 233.728C321.687 231.877 321.016 229.834 320.765 227.721C320.513 225.607 320.686 223.465 321.274 221.419C321.811 219.26 322.25 217.076 322.872 214.941C324.287 210.537 326.397 206.402 328.069 202.108C329.118 199.436 330.045 196.74 330.85 193.983C330.984 193.544 330.923 192.91 331.667 192.897C331.782 193.126 331.85 193.376 331.867 193.632C331.884 193.887 331.849 194.144 331.765 194.386C331.24 198.045 330.899 201.644 330.142 205.206C329.484 208.305 328.923 211.44 328.483 214.563C327.91 218.674 327.264 222.797 326.727 226.908C326.324 229.702 325.507 232.447 325.251 235.265C325.08 236.924 324.86 238.571 324.555 240.218C324.474 240.855 324.248 241.466 323.895 242.003C323.542 242.54 323.071 242.989 322.518 243.316C321.493 243.938 320.53 244.658 319.529 245.317C315.43 248.074 312.686 252.002 310.148 256.101C307.77 259.828 305.872 263.841 304.5 268.044C303.654 271.187 303.127 274.408 302.926 277.657C302.901 278.346 303.052 279.03 303.366 279.645C303.466 279.823 303.528 280.019 303.549 280.222C303.57 280.425 303.549 280.63 303.487 280.825C303.425 281.019 303.324 281.199 303.19 281.353C303.056 281.507 302.891 281.631 302.707 281.719C297.327 285.013 295.387 290.258 294.753 296.126C294.575 298.847 295.23 301.557 296.632 303.897C297.022 305.056 298.205 305.617 298.754 306.654C296.071 309.557 292.655 311.265 289.105 312.851C282.261 315.949 275.198 318.584 268.244 321.39C266.39 322.146 264.585 323.013 262.743 323.83C261.12 324.598 261.132 324.611 260.096 323.098C260.291 316.998 261.047 310.899 261.62 304.799C262.41 297.001 262.772 289.166 262.706 281.328C262.609 275.229 262.523 269.068 262.889 262.944C262.987 262.493 263.255 261.981 263.133 261.407Z" fill="#779968"/>
<path fill-rule="evenodd" clip-rule="evenodd" d="M296.569 304.312C293.788 299.883 293.983 295.223 295.606 290.502C296.948 286.586 299.082 283.183 302.925 281.268C303.486 280.975 303.511 280.633 303.242 280.133C302.693 278.879 302.532 277.49 302.779 276.144C303.124 271.042 304.498 266.063 306.817 261.505C309.298 256.177 312.65 251.3 316.734 247.074C318.225 245.645 319.894 244.415 321.699 243.414C322.428 243.092 323.059 242.585 323.53 241.943C324.001 241.3 324.295 240.546 324.383 239.754C324.542 238.29 324.737 236.802 324.969 235.338C325.908 229.239 327.152 223.285 327.897 217.21C328.885 209.013 330.824 200.961 331.739 192.812C331.57 192.515 331.494 192.173 331.52 191.832C331.546 191.491 331.673 191.165 331.886 190.897C332.532 191.165 332.557 191.165 332.459 192.031C332.215 193.898 331.934 195.764 331.642 197.619C331.119 202.17 331.176 206.769 331.812 211.306C331.983 213.124 332.239 214.966 332.569 216.771C333.078 219.154 334.366 221.3 336.228 222.871C337.36 223.778 338.756 224.294 340.205 224.34C341.655 224.386 343.081 223.96 344.268 223.127C344.56 222.907 344.865 222.505 345.268 222.785C345.671 223.066 345.39 223.407 345.268 223.737C344.823 226.385 343.372 228.758 341.218 230.361C340.746 230.697 340.334 231.109 339.998 231.581C339.473 232.349 339.717 232.959 340.645 232.959C341.572 232.959 342.23 233.289 343.084 233.252C343.255 233.234 343.426 233.234 343.597 233.252C344.024 233.35 344.463 233.508 344.487 233.996C344.512 234.484 344.085 234.704 343.658 234.814C343.491 234.831 343.324 234.831 343.158 234.814C342.564 234.694 341.957 234.653 341.352 234.692L340.205 234.826C335.564 235.163 331.181 237.094 327.799 240.291C324.835 243.121 321.858 245.939 318.686 248.574C316.176 250.843 314.002 253.46 312.233 256.345C309.369 260.933 307.198 265.919 305.792 271.142C305.286 272.47 305.086 273.895 305.209 275.31C305.331 276.726 305.773 278.095 306.499 279.316C306.74 279.754 307.031 280.164 307.366 280.536C309.915 283.171 311.281 282.975 313.465 280.926C315.185 279.377 316.856 277.766 318.454 276.046C321.573 273.004 324.873 270.152 328.336 267.507C330.092 266.158 331.725 264.656 333.215 263.018C334.435 261.517 336.35 260.81 337.753 259.504C339.105 258.448 340.388 257.307 341.596 256.089C344.865 252.819 348.33 249.733 351.05 245.951C351.307 245.598 351.575 244.975 352.27 245.39V247.415C352.318 247.689 352.291 247.97 352.192 248.23C352.093 248.49 351.926 248.718 351.709 248.891C349.481 251.247 347.476 253.803 345.719 256.528C344.864 258.002 344.181 259.57 343.682 261.2C342.279 264.433 340.742 267.592 339.473 270.874C339.146 271.713 338.628 272.465 337.961 273.07C334.382 276.461 330.723 279.743 326.982 282.914C323.993 285.44 320.772 287.635 317.747 290.1C315.169 292.014 312.485 293.782 309.708 295.394C307.939 296.529 306.182 297.688 304.499 298.932C302.193 300.627 299.705 302.091 297.46 303.885C297.227 304.134 296.909 304.286 296.569 304.312Z" fill="#E79354"/>
<path fill-rule="evenodd" clip-rule="evenodd" d="M248.763 127.401C247.897 127.011 247.958 125.986 247.384 125.376C246.811 124.766 246.274 123.997 245.725 123.314C245.994 122.448 246.799 122.619 247.409 122.509C251.779 121.898 256.184 121.572 260.596 121.533C267.069 121.332 273.512 120.552 279.846 119.203C291.257 116.582 302.266 112.442 312.576 106.894C315.829 105.163 318.966 103.223 321.969 101.088C324.153 99.5261 326.312 97.8914 328.642 96.5251C328.926 96.3326 329.245 96.1998 329.582 96.1348L339.414 101.759C339.102 102.127 338.67 102.373 338.194 102.454C331.729 105.003 325.8 108.553 319.639 111.737C316.858 113.152 313.894 114.177 311.1 115.665C305.197 118.677 299.016 121.108 292.643 122.924C283.907 125.668 274.863 127.307 265.72 127.803C260.609 128.107 255.48 127.903 250.41 127.194C249.853 127.068 249.271 127.141 248.763 127.401Z" fill="#95B776"/>
<path fill-rule="evenodd" clip-rule="evenodd" d="M340.109 234.765C340.439 234.619 340.806 234.581 341.158 234.655C341.768 234.411 342.378 234.924 342.988 234.655C343.5 234.728 344.208 234.728 344.135 234.118C344.062 233.508 343.33 233.74 342.915 233.594C342.754 233.482 342.619 233.337 342.519 233.169C342.42 233 342.358 232.812 342.339 232.617C342.319 232.422 342.342 232.225 342.405 232.04C342.469 231.855 342.572 231.686 342.707 231.544C345.269 228.214 345.147 224.225 345.477 220.394C345.538 219.65 345.294 219.467 344.537 219.492C343.91 219.511 343.29 219.362 342.74 219.059C342.191 218.756 341.733 218.312 341.414 217.772C340.711 216.688 340.237 215.471 340.024 214.197C339.271 209.234 339.033 204.205 339.316 199.193C340.054 189.058 339.993 178.881 339.133 168.756C339.133 168.256 338.962 167.719 339.414 167.304C341.749 167.882 343.894 169.06 345.635 170.72C346.646 171.777 347.432 173.028 347.945 174.397C348.459 175.766 348.69 177.225 348.624 178.686C348.722 182.651 348.539 186.627 348.465 190.604C348.368 195.301 348.282 199.998 348.136 204.694C348.026 207.939 347.685 211.172 347.282 214.454C347.189 214.782 347.175 215.128 347.241 215.462C347.306 215.797 347.45 216.112 347.66 216.381C347.771 216.509 347.854 216.658 347.904 216.82C349.88 223.493 352.979 229.837 353.638 236.888C353.918 239.852 353.04 242.633 352.345 245.427C351.549 246.53 350.698 247.593 349.795 248.611C346.538 252.771 342.476 255.638 338.682 259.322C338.482 259.476 338.265 259.607 338.035 259.712C337.34 259.358 337.767 258.882 338.035 258.602C340.475 255.747 342 252.197 344.793 249.599C345.752 248.662 346.352 247.419 346.489 246.086C346.655 244.728 346.911 243.383 347.258 242.06C347.794 240.181 346.221 237.437 344.293 236.607C343.305 236.192 342.232 236.021 341.231 235.643C340.756 235.412 340.109 235.485 340.109 234.765Z" fill="#F2BD7C"/>
<path fill-rule="evenodd" clip-rule="evenodd" d="M296.568 304.311C299.41 301.872 302.667 299.932 305.717 297.712C307.925 296.089 310.279 294.699 312.573 293.21C314.055 292.366 315.485 291.433 316.855 290.417C319.807 287.977 323.04 285.818 325.992 283.341C328.31 281.389 330.664 279.474 332.896 277.425C334.714 275.741 336.556 274.107 338.276 272.313C339.667 270.825 339.96 268.715 340.826 266.921C341.692 265.128 342.607 263.152 343.497 261.273C344.107 260.289 344.646 259.261 345.108 258.199C345.723 256.942 346.498 255.769 347.413 254.71C347.937 253.946 348.723 253.4 349.622 253.175C350.521 252.951 351.471 253.063 352.293 253.49C350.975 257.248 349.268 260.81 347.609 264.469C344.974 270.191 342.546 275.985 340.472 281.914C339.87 283.508 338.754 284.856 337.3 285.745C330.383 290.563 322.857 294.503 316.33 299.871C313.171 302.457 309.682 304.555 306.388 306.959C304.351 308.435 302.13 307.666 299.971 307.093C299.605 306.995 299.239 306.849 298.873 306.727C297.859 306.199 297.048 305.349 296.568 304.311Z" fill="#F3AE6D"/>
<path fill-rule="evenodd" clip-rule="evenodd" d="M236.686 186.237C238.59 189.814 240.253 193.515 241.663 197.314C243.493 201.925 245.209 206.569 246.811 211.245C247.397 212.965 247.763 214.697 248.202 216.429C248.373 217.149 248.592 217.845 249.422 218.028C245.762 222.261 242.176 226.567 238.796 230.995C236.779 233.595 234.493 235.974 231.977 238.095C232.624 236.18 232.685 234.106 233.697 232.337C234.295 231.288 234.161 230.812 233.014 230.41C231.102 229.56 229.313 228.456 227.695 227.128C227.612 227.099 227.535 227.054 227.469 226.996C227.403 226.937 227.35 226.866 227.311 226.787C227.272 226.708 227.25 226.622 227.245 226.534C227.24 226.446 227.252 226.357 227.281 226.274C229.741 227.045 232.269 227.576 234.832 227.86C235.172 227.95 235.534 227.918 235.853 227.768C236.171 227.619 236.428 227.362 236.576 227.043C238.488 224.524 240.201 221.861 241.7 219.077C242.072 218.374 242.266 217.591 242.266 216.795C242.266 216 242.072 215.217 241.7 214.514C240.578 211.916 238.687 209.854 237.272 207.475C236.723 206.56 235.515 206.255 234.612 205.755C231.44 203.889 228.293 202.01 224.999 200.363C224.727 200.205 224.418 200.121 224.103 200.121C223.788 200.121 223.478 200.205 223.206 200.363C222.124 200.868 221.017 201.316 219.888 201.705C219.607 201.815 219.266 202.12 218.997 201.644C220.839 197.85 222.206 193.776 225.707 191.031C227.646 189.705 229.766 188.665 232.002 187.945C233.612 187.274 235.198 186.786 236.686 186.237Z" fill="#E79354"/>
<path fill-rule="evenodd" clip-rule="evenodd" d="M339.387 167.316C339.631 171.135 339.985 174.965 340.119 178.783C340.241 182.138 340.119 185.505 340.119 188.86C340.046 194.435 339.485 199.985 339.643 205.572C339.729 208.439 340.034 211.269 340.387 214.112C340.413 214.992 340.637 215.855 341.043 216.636C341.448 217.418 342.025 218.098 342.729 218.625C343.082 218.943 343.522 219.147 343.992 219.21C344.462 219.273 344.941 219.193 345.364 218.979C345.816 218.711 346.011 218.869 345.95 219.37C345.669 222.078 345.45 224.798 345.084 227.494C344.813 228.842 344.209 230.1 343.327 231.154C343.036 231.481 342.842 231.882 342.767 232.313C342.692 232.744 342.738 233.188 342.9 233.594C341.876 233.594 340.839 233.594 339.838 233.374C339.106 233.252 338.96 232.154 339.533 231.483C339.824 231.109 340.165 230.777 340.546 230.495C341.697 229.752 342.678 228.775 343.426 227.627C344.175 226.48 344.673 225.187 344.889 223.834C344.889 223.542 345.255 223.346 345.121 222.859C343.901 223.969 342.681 225.054 341.07 224.847C338.765 224.554 336.52 224.225 334.861 222.127C333.15 219.835 332.084 217.126 331.775 214.283C331.16 209.898 330.867 205.474 330.896 201.047C331.08 198.145 331.463 195.259 332.043 192.41C332.116 191.91 332.36 191.409 332.043 190.909C331.807 190.336 331.725 189.711 331.807 189.097C331.888 188.482 332.129 187.9 332.507 187.408C334.434 181.052 335.19 174.477 336.166 167.89C336.252 167.341 336.166 166.67 336.764 166.292L339.387 167.316Z" fill="#F3AE6D"/>
<path fill-rule="evenodd" clip-rule="evenodd" d="M263.131 261.407C263.363 263.475 263.363 265.561 263.131 267.629C263.033 270.983 263.131 274.35 263.131 277.705C263.033 281.914 263.289 286.123 263.033 290.343C262.643 296.687 262.314 303.018 261.569 309.337C260.955 313.428 260.658 317.559 260.679 321.695C260.679 322.207 260.764 322.842 260.167 323.195C255.616 317.791 251.273 312.216 247.004 306.58C252.066 300.481 254.787 293.161 257.239 285.842C259.092 280.713 260.368 275.394 261.045 269.983C261.412 267.054 262.111 264.177 263.131 261.407Z" fill="#5E7552"/>
<path fill-rule="evenodd" clip-rule="evenodd" d="M329.582 96.135C327.825 97.3549 326.105 98.77 324.275 99.9289C321.701 101.539 319.396 103.442 316.7 104.955C310.89 108.299 304.857 111.242 298.645 113.763C290.399 117.069 281.799 119.411 273.015 120.74C267.408 121.556 261.749 121.964 256.083 121.96C252.847 122.064 249.623 122.394 246.433 122.948C246.19 123.023 245.96 123.134 245.75 123.278C245.443 123.07 245.208 122.771 245.079 122.424C254.18 120.887 263.378 119.984 272.466 118.459C278.151 117.496 283.775 116.117 289.435 115.007C296.754 113.567 303.574 110.676 310.32 107.626C313.507 106.077 316.556 104.256 319.432 102.186C321.165 100.966 322.958 99.9167 324.666 98.709C325.715 97.977 326.654 97.0987 327.667 96.2691C327.818 96.0914 328.005 95.9466 328.215 95.8438C328.425 95.7409 328.653 95.6823 328.887 95.6714L329.582 96.135Z" fill="#779A68"/>
<path fill-rule="evenodd" clip-rule="evenodd" d="M352.247 253.466C349.612 253.051 348.441 253.685 347.05 255.906C345.099 259.065 341.463 266.104 341.122 266.385C341.549 264.97 346.636 252.368 351.71 248.476C352.028 248.195 352.246 247.818 352.333 247.403C352.891 249.39 352.861 251.496 352.247 253.466Z" fill="#F2AC6C"/>
<path fill-rule="evenodd" clip-rule="evenodd" d="M134.058 319.89C134.582 319.316 135.644 319.292 135.741 319.658C135.791 320.038 135.692 320.423 135.465 320.733C135.237 321.042 134.899 321.251 134.521 321.317L134.058 319.89Z" fill="#E89556"/>
<path fill-rule="evenodd" clip-rule="evenodd" d="M283.992 197.082L286.774 196.277C289.762 197.143 291.531 199.497 293.312 201.791C293.911 202.629 294.418 203.529 294.825 204.475C295.13 205.121 295.533 205.389 296.252 205.109C298.608 204.2 300.845 203.008 302.913 201.559C303.77 200.895 304.345 199.932 304.523 198.863C304.866 197.081 304.622 195.237 303.828 193.605C303.555 193.092 303.168 192.649 302.696 192.311C302.224 191.972 301.681 191.747 301.108 191.653C300.632 191.507 300.058 191.58 299.729 191.08C300.25 190.882 300.808 190.803 301.364 190.848C301.632 191.226 302.047 191.19 302.413 191.214C303.144 191.283 303.837 191.57 304.402 192.037C304.968 192.505 305.38 193.132 305.585 193.837C306.15 195.581 306.414 197.408 306.365 199.241C306.463 202.388 304.182 203.645 301.937 204.901C299.661 205.976 297.323 206.913 294.935 207.707C294.264 207.988 293.971 207.707 293.715 207.183C292.959 205.694 292.702 203.999 291.714 202.608C289.726 199.9 287.652 197.411 283.992 197.082Z" fill="#F3AE6D"/>
<path fill-rule="evenodd" clip-rule="evenodd" d="M276.246 198.533C277.051 197.862 278.039 198.082 278.954 197.936C279.735 198.716 280.845 199.07 281.602 199.9C281.858 200.134 282.051 200.428 282.164 200.756C282.277 201.085 282.306 201.436 282.248 201.778C281.19 200.98 280.068 200.27 278.893 199.656C278.015 199.265 276.954 199.302 276.246 198.533Z" fill="#F3AE6D"/>
<path fill-rule="evenodd" clip-rule="evenodd" d="M324.19 192.581C324.294 192.174 324.26 191.745 324.092 191.361C322.665 187.189 319.408 185.261 315.553 183.773C310.673 181.98 306.074 182.626 301.365 184.029C299.3 184.579 297.264 185.235 295.266 185.993C290.612 187.891 286.528 190.958 283.408 194.898C283.059 195.387 282.542 195.731 281.956 195.862C276.247 197.338 270.526 198.802 264.878 200.303C264.048 200.51 263.975 200.303 263.963 199.497C263.999 194.201 263.747 188.907 263.206 183.639C261.621 172.172 261.194 160.582 259.547 149.128C259.413 148.237 259.352 147.773 260.657 147.749C261.958 147.769 263.245 147.486 264.418 146.922C265.59 146.358 266.615 145.529 267.412 144.501C268.208 143.472 268.755 142.272 269.007 140.996C269.26 139.72 269.212 138.403 268.867 137.148C268.611 136.038 268.977 136.001 269.892 135.928C274.173 135.477 278.492 135.465 282.749 134.708C287.623 133.734 292.382 132.254 296.949 130.292C303.524 127.73 310.039 125.047 316.468 122.082C318.712 121.045 321.347 120.862 323.787 120.252C324.482 120.094 324.665 120.728 325.007 121.18C326.654 123.339 328.435 125.327 331.375 125.766C332.009 125.864 332.924 125.144 333.278 126.145C333.413 126.817 333.413 127.509 333.278 128.182C333.034 132.39 332.875 136.611 332.644 140.82C332.497 143.418 332.265 146.005 332.058 148.603C331.79 152.007 331.655 155.41 331.546 158.814C331.424 162.473 331.204 166.048 331.058 169.671C330.838 174.929 330.24 180.15 329.557 185.359C329.435 186.371 329.496 187.408 329.325 188.421C329.325 188.787 329.325 189.116 329.728 189.238C329.748 189.343 329.734 189.452 329.688 189.549C329.642 189.645 329.566 189.725 329.472 189.775C327.886 190.787 326.263 191.727 324.592 192.629C324.532 192.675 324.456 192.695 324.381 192.686C324.306 192.677 324.237 192.639 324.19 192.581Z" fill="#ABCC7F"/>
<path fill-rule="evenodd" clip-rule="evenodd" d="M324.191 192.58L329.657 189.274L332.523 187.42C332.365 188.64 332.218 189.75 332.06 190.921C331.95 191.58 331.828 192.239 331.718 192.909C330.999 195.081 330.315 197.277 329.559 199.436C327.912 204.206 325.631 208.707 323.862 213.416C323.655 213.977 323.447 214.538 323.228 215.1C322.091 216.315 320.769 217.345 319.312 218.149C313.703 221.954 307.892 225.452 301.904 228.628C298.244 230.702 294.389 232.459 290.522 234.167C290.13 234.434 289.647 234.535 289.18 234.447C289.009 234.35 288.875 234.215 288.985 233.996C294.523 230.178 298.938 224.946 301.77 218.845C301.885 218.569 301.974 218.283 302.038 217.991C302.319 217.71 302.038 217.21 302.441 216.954C306.879 212.62 309.586 206.817 310.053 200.631C314.871 198.143 319.531 195.362 324.191 192.58Z" fill="#EFED99"/>
<path fill-rule="evenodd" clip-rule="evenodd" d="M299.706 191.08C300.341 191.157 300.969 191.283 301.585 191.458C302.616 191.992 303.483 192.797 304.091 193.786C304.7 194.775 305.027 195.912 305.039 197.073C305.05 198.235 304.745 199.377 304.155 200.378C303.566 201.379 302.715 202.201 301.694 202.754C299.868 203.772 297.991 204.697 296.071 205.524C295.29 205.829 294.948 205.633 294.631 204.877C293.463 202.258 291.71 199.942 289.507 198.107C288.885 197.521 288.139 197.083 287.324 196.826C287.019 196.74 286.738 196.667 286.75 196.277C290.363 195.13 293.85 193.617 297.156 191.763C297.913 191.273 298.805 191.033 299.706 191.08Z" fill="#F3AE6D"/>
<path fill-rule="evenodd" clip-rule="evenodd" d="M302.438 216.954C302.364 217.332 302.437 217.735 302.035 217.991L301.852 217.442C301.907 217.322 301.988 217.216 302.089 217.131C302.19 217.047 302.31 216.986 302.438 216.954Z" fill="#9DA169"/>
<path fill-rule="evenodd" clip-rule="evenodd" d="M307.867 95.2686C308.165 95.1445 308.484 95.0806 308.807 95.0806C309.129 95.0806 309.448 95.1445 309.746 95.2686L308.526 95.6834C308.392 95.3052 308.136 95.3296 307.867 95.2686Z" fill="#718C5E"/>
<path fill-rule="evenodd" clip-rule="evenodd" d="M289.214 234.313C293.342 232.685 297.357 230.782 301.23 228.616C301.413 228.519 301.621 228.458 301.816 228.372C308.452 226.762 314.588 224.285 318.894 218.552C319.064 218.366 319.182 218.139 319.236 217.893L323.274 215.1C322.676 217.539 321.956 219.869 321.517 222.297C320.761 226.396 321.017 230.409 323.432 234.008C323.933 234.74 323.835 235.106 323.237 235.692C318.65 240.02 314.495 244.783 310.831 249.916C307.745 254.503 304.731 259.138 303.084 264.457C302.72 265.506 302.442 266.583 302.255 267.678C301.877 270.117 301.267 272.557 300.706 274.936C300.347 276.698 300.269 278.505 300.474 280.291C300.526 280.621 300.494 280.958 300.381 281.271C300.268 281.585 300.078 281.864 299.827 282.085C295.237 286.555 291.847 292.11 289.97 298.236C289.385 300.071 289.004 301.965 288.836 303.884C288.826 304.227 288.719 304.559 288.527 304.842C288.334 305.125 288.065 305.347 287.75 305.482C284.734 307.107 281.573 308.447 278.308 309.484C277.527 309.728 277.271 309.581 277.088 308.813C276.531 306.729 275.388 304.85 273.795 303.396C273.341 302.816 272.719 302.39 272.013 302.176C270.196 301.908 270.257 300.664 270.245 299.31C270.147 289.465 269.964 279.62 269.232 269.8C269.214 268.013 269.545 266.239 270.208 264.579C272.304 257.689 274.747 250.91 277.527 244.268C278.308 242.462 279.187 240.705 279.967 238.912C280.159 238.49 280.44 238.114 280.789 237.809C281.138 237.504 281.548 237.277 281.992 237.143C283.688 236.558 285.298 235.728 286.933 234.996C287.836 235.021 288.421 234.35 289.214 234.313Z" fill="#ABCC7F"/>
<path fill-rule="evenodd" clip-rule="evenodd" d="M289.215 234.313C288.544 234.716 287.934 235.314 287.031 235.021L288.983 233.996L289.215 234.313Z" fill="#D2DC8E"/>
<path fill-rule="evenodd" clip-rule="evenodd" d="M340.107 234.765C341.229 235.619 342.644 235.619 343.913 236.082C345.255 236.531 346.364 237.492 347 238.756C347.635 240.02 347.745 241.484 347.304 242.828C347.052 243.737 346.897 244.669 346.841 245.61C346.806 246.466 346.598 247.307 346.229 248.081C345.86 248.855 345.338 249.545 344.694 250.111C343.574 251.164 342.616 252.377 341.851 253.71C340.806 255.376 339.661 256.976 338.423 258.504C338.179 258.809 337.594 259.102 337.996 259.724C334.337 261.932 331.811 265.299 328.493 267.861C324.463 270.938 320.655 274.297 317.099 277.913C315.757 279.404 314.292 280.779 312.72 282.024C312.192 282.492 311.525 282.773 310.822 282.824C310.118 282.875 309.418 282.692 308.828 282.305C307.547 281.383 306.517 280.156 305.831 278.735C305.145 277.314 304.825 275.744 304.9 274.168C305.509 270.376 306.625 266.683 308.218 263.189C310.092 258.744 312.662 254.626 315.831 250.99C318.075 248.294 321.052 246.476 323.504 244.048C325.35 242.1 327.314 240.267 329.384 238.559C332.373 236.241 335.886 235.436 339.472 234.741C339.684 234.72 339.897 234.728 340.107 234.765Z" fill="#F3AE6D"/>
<path fill-rule="evenodd" clip-rule="evenodd" d="M343 234.667C342.378 235.07 341.78 234.667 341.17 234.667C341.78 234.252 342.39 234.667 343 234.667Z" fill="#F0A15F"/>
<path fill-rule="evenodd" clip-rule="evenodd" d="M319.186 217.894C319.589 218.406 319.052 218.674 318.845 218.967C316.213 222.426 312.656 225.069 308.585 226.591C306.88 227.272 305.132 227.838 303.352 228.287C302.864 228.421 302.352 228.824 301.815 228.373C307.817 225.213 313.526 221.602 319.186 217.894Z" fill="#779A68"/>
<path fill-rule="evenodd" clip-rule="evenodd" d="M165.553 263.75C165.553 263.75 173.763 262.945 178.972 277.876C184.181 292.808 189.951 326.673 185.291 344.898C180.631 363.123 170.189 369.601 170.189 369.601L115.915 394.646L97.1285 288.697L165.553 263.75Z" fill="#DFECF0"/>
<path fill-rule="evenodd" clip-rule="evenodd" d="M142.008 269.227C142.008 269.227 151.023 268.349 156.793 284.769C162.563 301.188 168.919 338.53 163.747 358.548C158.574 378.567 147.107 385.801 147.107 385.801L87.3319 413.383L66.6545 296.748L142.008 269.227Z" fill="#353B53"/>
<g style="mix-blend-mode:overlay" opacity="0.4">
<path fill-rule="evenodd" clip-rule="evenodd" d="M142.008 269.227C142.008 269.227 151.023 268.349 156.793 284.769C125.746 296.711 70.3749 317.511 70.3749 317.511L66.7152 296.772L142.008 269.227Z" fill="#DFECF0"/>
</g>
<path fill-rule="evenodd" clip-rule="evenodd" d="M303.414 305.3C300.511 302.97 298.315 301.286 304.22 294.321C310.124 287.355 331.436 278.816 336.718 276.022C342 273.228 333.949 283.744 332.741 284.647C331.533 285.549 303.414 305.3 303.414 305.3Z" fill="#F3AE6D"/>
<path fill-rule="evenodd" clip-rule="evenodd" d="M284.113 218.04C278.368 227.677 271.731 243.316 257.41 257.077C243.088 270.837 230.901 275.217 230.901 275.217L227.375 259.883L253.762 222.968C253.762 222.968 281.32 210.049 281.82 211.208C282.32 212.367 284.113 218.04 284.113 218.04Z" fill="#F3AE6D"/>
</g>
<defs>
<linearGradient id="paint0_linear" x1="115.716" y1="373.704" x2="481.7" y2="188.497" gradientUnits="userSpaceOnUse">
<stop stop-color="#F4F4F4"/>
<stop offset="1" stop-color="#F4F4F4" stop-opacity="0"/>
</linearGradient>
</defs>
</svg>
