<svg width="33" height="32" viewBox="0 0 33 32" fill="none" xmlns="http://www.w3.org/2000/svg">
<g clip-path="url(#clip0)">
<path d="M16.4722 5.54102C9.74376 5.54102 4.26953 10.8442 4.26953 17.3624C4.26953 23.881 9.74382 29.1841 16.4722 29.1841C23.2011 29.1841 28.6749 23.8809 28.6749 17.3624C28.6749 10.8442 23.2007 5.54102 16.4722 5.54102ZM16.4722 27.0417C10.9633 27.0417 6.48146 22.6996 6.48146 17.3628C6.48146 12.026 10.9633 7.68425 16.4722 7.68425C21.9812 7.68425 26.463 12.026 26.463 17.3628C26.463 22.6999 21.9811 27.0417 16.4722 27.0417Z" fill="#ED1C24"/>
<path d="M19.8644 17.0053H16.9151V12.8624C16.9151 12.2707 16.42 11.791 15.8091 11.791C15.1982 11.791 14.7031 12.2707 14.7031 12.8624V18.0767C14.7031 18.6685 15.1982 19.1482 15.8091 19.1482H19.8644C20.4753 19.1482 20.9704 18.6685 20.9704 18.0767C20.9704 17.4849 20.4752 17.0053 19.8644 17.0053Z" fill="#ED1C24"/>
<path d="M10.2069 25.0305C9.75273 24.6344 9.05335 24.6704 8.64492 25.1101L5.32693 28.6815C4.91806 29.1211 4.95531 29.7986 5.40912 30.1944C5.62037 30.379 5.88505 30.4697 6.14868 30.4697C6.45136 30.4697 6.75293 30.3501 6.97117 30.1147L10.2892 26.5433C10.698 26.1036 10.6607 25.4261 10.2069 25.0305Z" fill="#ED1C24"/>
<path d="M27.6169 28.6821L24.2989 25.1107C23.8912 24.6707 23.1915 24.635 22.7372 25.0311C22.283 25.4268 22.2465 26.1043 22.655 26.544L25.973 30.1154C26.1909 30.3503 26.4925 30.47 26.7951 30.47C27.0584 30.47 27.3231 30.3793 27.5347 30.195C27.9889 29.7992 28.0254 29.1217 27.6169 28.6821Z" fill="#ED1C24"/>
<path d="M10.0204 3.84741C7.82277 1.76279 4.28034 1.766 2.12404 3.85528C1.05117 4.8942 0.464982 6.26886 0.472732 7.72597C0.480857 9.16559 1.06998 10.5135 2.1321 11.5213C2.34741 11.7253 2.62647 11.827 2.90591 11.827C3.18903 11.827 3.47216 11.722 3.68784 11.5135L10.0288 5.37065C10.2375 5.16818 10.354 4.89348 10.3525 4.60746C10.3511 4.32131 10.2316 4.04776 10.0204 3.84741ZM3.02722 9.12272C2.80566 8.69024 2.68729 8.21168 2.68472 7.71453C2.67991 6.83454 3.03603 6.00166 3.68784 5.37022C4.33815 4.7406 5.1979 4.42594 6.0624 4.42594C6.56783 4.42594 7.07514 4.53341 7.54258 4.74841L3.02722 9.12272Z" fill="#ED1C24"/>
<path d="M30.8227 3.85515C28.666 1.76623 25.1235 1.76266 22.926 3.84728C22.7151 4.04763 22.5953 4.32124 22.5938 4.60726C22.5923 4.89334 22.7091 5.16834 22.9178 5.37045L29.2588 11.5133C29.4745 11.7226 29.7576 11.8272 30.0407 11.8272C30.3202 11.8272 30.5996 11.7254 30.8145 11.5208C31.877 10.5133 32.4662 9.16545 32.4739 7.72577C32.4817 6.26908 31.8951 4.89443 30.8227 3.85515ZM29.9195 9.12295L25.4041 4.7487C26.6716 4.16581 28.2284 4.37264 29.2589 5.37081C29.9107 6.00225 30.2668 6.83471 30.262 7.71512C30.2594 8.2119 30.141 8.69083 29.9195 9.12295Z" fill="#ED1C24"/>
</g>
<defs>
<clipPath id="clip0">
<rect width="32" height="31" fill="white" transform="translate(0.472656 0.87793)"/>
</clipPath>
</defs>
</svg>
