<svg width="512" height="429" viewBox="0 0 512 429" fill="none" xmlns="http://www.w3.org/2000/svg">
<g style="mix-blend-mode:multiply" opacity="0.1">
<path d="M202.343 185.744C198.859 186.499 195.466 187.622 192.223 189.094C189.708 188.301 185.895 185.873 181.853 182.84C185.463 181.218 188.636 178.773 191.115 175.703C194.259 175.019 196.993 173.146 197.532 169.072C197.532 169.072 183.221 161.668 179.797 157.921C176.374 154.174 156.843 134.231 150.855 134.231C132.511 134.231 95.2246 162.144 91.2425 169.647C87.2604 177.15 81.2622 195.23 76.342 214.568C71.4217 233.907 70.254 253.968 67.0503 263.791C63.8467 273.614 59.3755 284.696 48.7865 308.693C42.9281 321.915 31.0216 353.178 21.5703 378.414V428.231H93.1088C97.1009 397.019 109.267 306.185 116.063 290.246C123.05 273.951 130.036 270.422 137.651 266.547C139.058 265.843 140.495 265.129 141.952 264.327L142.86 263.821L143.339 263.543L143.818 263.276L144.597 262.82L144.826 262.691L145.765 262.146L145.894 262.057L146.972 261.412C152.068 258.321 156.986 254.949 161.703 251.312C169.937 244.949 178.35 236.999 183.42 228.346C191.404 214.677 197.393 217.155 201.175 210.623C205.407 206.331 206.375 202.575 215.726 197.252C220.866 194.348 214.898 183.038 202.343 185.744ZM164.098 207.719C164.098 207.719 158.739 208.036 154.956 210.693C151.337 208.778 147.982 206.406 144.976 203.635C144.607 203.288 144.158 202.912 143.659 202.525C149.527 197.827 155.146 192.038 158.29 189.332C164.577 183.94 168.52 197.361 176.254 201.118C176.095 201.326 176.015 201.455 176.015 201.455C176.015 201.455 167.162 202.872 164.098 207.719Z" fill="black"/>
</g>
<path d="M188.071 179.102C185.771 179.102 181.141 176.162 176.171 172.282C183.281 169.212 190.011 160.182 186.071 160.182C180.831 160.182 163.571 144.992 157.541 137.932C151.511 130.872 125.541 145.992 119.071 155.382C119.071 155.382 111.071 175.492 119.071 180.492C117.371 186.842 115.941 196.212 121.071 199.412C129.071 204.412 146.071 184.912 152.571 179.102C159.071 173.292 163.071 188.412 171.371 191.752C179.671 195.092 193.311 179.102 188.071 179.102Z" fill="#E4A880"/>
<path d="M174.11 146.261C170.67 142.351 151.11 121.521 145.11 121.521C126.73 121.521 89.3702 150.671 85.3802 158.521C81.3903 166.371 75.3803 185.231 70.4503 205.431C65.5203 225.631 64.3503 246.561 61.1403 256.821C57.9303 267.081 53.4503 278.651 42.8403 303.691C36.9703 317.542 10.0403 402.151 0.570312 428.491H15.5703H87.2503C91.2503 395.901 103.44 301.071 110.25 284.431C117.25 267.431 124.25 263.681 131.88 259.681C137.52 237.761 137.52 226.991 139.18 194.031C135.96 190.881 127.59 186.111 126.69 181.491C124.48 170.081 119.02 160.181 142.02 146.651C142.02 146.651 158.79 157.321 163.87 156.731C163.87 156.731 172.05 162.541 175.87 164.071C179.69 165.601 190.69 166.921 191.87 157.901C191.88 157.901 177.57 150.171 174.11 146.261Z" fill="#F8CFAE"/>
<g style="mix-blend-mode:multiply" opacity="0.1">
<path d="M360.049 30.1016H171.089C163.606 30.1016 157.539 36.1681 157.539 43.6516V323.442C157.539 330.925 163.606 336.992 171.089 336.992H360.049C367.533 336.992 373.599 330.925 373.599 323.442V43.6516C373.599 36.1681 367.533 30.1016 360.049 30.1016Z" fill="black"/>
</g>
<path d="M360.049 24.1914H171.089C163.606 24.1914 157.539 30.2579 157.539 37.7414V317.531C157.539 325.015 163.606 331.081 171.089 331.081H360.049C367.533 331.081 373.599 325.015 373.599 317.531V37.7414C373.599 30.2579 367.533 24.1914 360.049 24.1914Z" fill="#ED1C24"/>
<path d="M361.091 35.2715H170.051V319.991H361.091V35.2715Z" fill="white"/>
<path d="M342.07 86.4912H226.07V96.0912H342.07V86.4912Z" fill="#B3B3B3"/>
<path d="M342.07 103.941H226.07V113.541H342.07V103.941Z" fill="#D6D6D6"/>
<path d="M342.07 121.392H188.07V130.992H342.07V121.392Z" fill="#D6D6D6"/>
<path d="M226.16 35.2715C226.186 36.5616 226.717 37.79 227.639 38.6931C228.561 39.5961 229.8 40.1018 231.09 40.1015H300.09C301.381 40.1018 302.62 39.5961 303.541 38.6931C304.463 37.79 304.994 36.5616 305.02 35.2715H226.16Z" fill="#D6D6D6"/>
<path d="M300.048 10.8914H276.228C276.228 8.06424 275.105 5.35283 273.106 3.35369C271.107 1.35455 268.396 0.231445 265.568 0.231445C262.741 0.231445 260.03 1.35455 258.031 3.35369C256.032 5.35283 254.908 8.06424 254.908 10.8914H231.088C229.778 10.8914 228.522 11.4119 227.595 12.3383C226.669 13.2648 226.148 14.5213 226.148 15.8314V32.5415C226.148 33.8516 226.669 35.1081 227.595 36.0346C228.522 36.961 229.778 37.4814 231.088 37.4814H300.088C301.399 37.4814 302.655 36.961 303.582 36.0346C304.508 35.1081 305.028 33.8516 305.028 32.5415V15.8314C305.028 15.1793 304.899 14.5337 304.649 13.9317C304.398 13.3297 304.03 12.7834 303.567 12.3241C303.104 11.8649 302.555 11.5018 301.951 11.2559C301.347 11.01 300.701 10.8862 300.048 10.8914ZM265.568 15.0814C264.74 15.0814 263.93 14.8357 263.241 14.3753C262.552 13.9149 262.015 13.2605 261.697 12.4949C261.38 11.7293 261.297 10.8868 261.459 10.074C261.621 9.26124 262.02 8.51466 262.606 7.92867C263.192 7.34269 263.938 6.94363 264.751 6.78196C265.564 6.62029 266.406 6.70326 267.172 7.02039C267.937 7.33752 268.592 7.87456 269.052 8.56361C269.513 9.25265 269.758 10.0627 269.758 10.8914C269.756 12.0019 269.313 13.0661 268.528 13.8513C267.743 14.6365 266.679 15.0788 265.568 15.0814Z" fill="#D6D6D6"/>
<path d="M226.148 28.1216V32.5416C226.148 33.8518 226.669 35.1083 227.595 36.0347C228.522 36.9611 229.778 37.4816 231.088 37.4816H300.088C301.399 37.4816 302.655 36.9611 303.582 36.0347C304.508 35.1083 305.028 33.8518 305.028 32.5416V28.1216H226.148Z" fill="#CCCCCC"/>
<path d="M212.41 91.4912V108.541H193.07V91.4912H212.41ZM217.41 86.4912H188.07V113.541H217.41V86.4912Z" fill="#D6D6D6"/>
<path d="M342.07 147.131H226.07V156.731H342.07V147.131Z" fill="#B3B3B3"/>
<path d="M342.07 164.582H226.07V174.182H342.07V164.582Z" fill="#D6D6D6"/>
<path d="M342.07 182.031H188.07V191.631H342.07V182.031Z" fill="#D6D6D6"/>
<path d="M256.57 257.792H188.07V267.392H256.57V257.792Z" fill="#D6D6D6"/>
<path d="M225.57 274.631H188.07V284.231H225.57V274.631Z" fill="#D6D6D6"/>
<path d="M342.359 257.792H273.859V267.392H342.359V257.792Z" fill="#D6D6D6"/>
<path d="M311.359 274.631H273.859V284.231H311.359V274.631Z" fill="#D6D6D6"/>
<path d="M212.41 152.131V169.181H193.07V152.131H212.41ZM217.41 147.131H188.07V174.181H217.41V147.131Z" fill="#D6D6D6"/>
<path d="M342.07 207.771H188.07V217.211H342.07V207.771Z" fill="#B3B3B3"/>
<path d="M251.78 228.912V245.962H193.07V228.912H251.78ZM256.78 223.912H188.07V250.962H256.78V223.912Z" fill="#D6D6D6"/>
<path d="M337.069 228.912V245.962H278.359V228.912H337.069ZM342.069 223.912H273.359V250.962H342.069V223.912Z" fill="#D6D6D6"/>
<path d="M219.98 87.4517L202.68 104.742L193.66 95.7217" stroke="#494545" stroke-width="5.79" stroke-linecap="round" stroke-linejoin="round"/>
<path d="M219.98 147.131L202.68 164.431L193.66 155.411" stroke="#494545" stroke-width="5.79" stroke-linecap="round" stroke-linejoin="round"/>
<g style="mix-blend-mode:multiply" opacity="0.1">
<path d="M202.57 186.111C199.079 186.873 195.68 188.006 192.43 189.491C190.43 188.73 188.532 187.723 186.78 186.491C185.08 187.951 183.35 189.371 181.56 190.721C178.355 193.328 174.809 195.484 171.02 197.131C172.532 198.964 174.382 200.489 176.47 201.621C176.31 201.831 176.23 201.961 176.23 201.961C176.23 201.961 167.32 203.381 164.23 208.271C161.816 208.478 159.451 209.079 157.23 210.051V235.721H157.57V255.491C159.01 254.491 160.47 253.371 161.94 252.221C170.19 245.801 178.62 237.781 183.7 229.051C191.7 215.261 197.7 217.761 201.49 211.171C205.73 206.841 206.7 203.051 216.07 197.681C221.13 194.791 215.15 183.381 202.57 186.111Z" fill="black"/>
</g>
<g style="mix-blend-mode:multiply" opacity="0.1">
<path d="M315.05 322.601L315.19 322.711C315.62 323.061 316.05 323.411 316.49 323.711L317.01 324.101L318.01 324.821L318.61 325.251C318.91 325.481 319.22 325.701 319.54 325.921L320.14 326.341L321.14 327.011L321.71 327.401L322.88 328.161L323.27 328.411L324.83 329.411L325.32 329.711L326.42 330.371L327.05 330.731L328.05 331.301C328.26 331.431 328.48 331.551 328.7 331.671L329.7 332.221L330.33 332.571L331.41 333.151L331.94 333.431C332.46 333.711 332.94 333.981 333.52 334.251L333.85 334.421L335.12 335.051L335.7 335.341L336.7 335.831L337.33 336.131L338.33 336.581L338.95 336.861L339.95 337.321L340.5 337.561L341.78 338.131L342.02 338.231L343.5 338.871L343.98 339.071L344.98 339.481L345.52 339.701L346.42 340.061L346.96 340.281L347.83 340.621L348.34 340.821L349.34 341.191L349.68 341.321L350.96 341.791L351.23 341.891L352.17 342.231L352.61 342.381L353.34 342.641L353.78 342.791L354.46 343.031L354.87 343.161L355.57 343.391L355.87 343.491L356.87 343.801C367.23 347.071 375.56 346.801 387.95 364.671C395.57 376.031 407.57 407.211 415.2 428.491H497.79C485.19 409.491 467.26 382.671 457.74 369.221C442.07 347.091 435.25 336.781 429.94 327.471C426.7 321.781 423.36 312.041 419.17 301.081C419.23 300.932 419.281 300.778 419.32 300.621C420.07 297.851 418.82 295.111 416.54 294.351C414.54 289.421 412.4 284.351 409.98 279.431C400.88 260.821 390.98 243.721 385.47 236.941C382.02 232.731 372.41 233.071 363.81 232.941H363.67L361.38 232.871H361.12H360.12H359.85L358.85 232.801H358.65L357.7 232.721H357.48L356.68 232.631H356.35L355.57 232.511H355.28L354.58 232.371L354.26 232.311L353.6 232.151L353.3 232.081L352.73 231.901L352.4 231.801C352.24 231.751 352.1 231.681 351.95 231.621L351.57 231.481C351.31 231.361 351.06 231.241 350.82 231.101L350.09 230.681L349.76 230.481L349.3 230.201L348.87 229.931L348.45 229.671L347.92 229.331L347.57 229.101L346.99 228.721L346.63 228.491L345.97 228.051C345.863 227.991 345.759 227.924 345.66 227.851L344.89 227.341L344.65 227.181L343.65 226.501C335.04 220.721 323.65 212.801 319.24 213.751C313.43 215.011 301.04 240.911 298.52 245.441C296.73 248.651 289.99 254.881 286.21 258.231C286.037 258.328 285.886 258.461 285.77 258.621L284.13 260.061L275.94 259.141C275.235 258.945 274.499 258.88 273.77 258.951C273.343 258.998 272.934 259.149 272.58 259.391C272.401 259.516 272.24 259.664 272.1 259.831L272.04 259.921L269.38 259.621C268.71 259.461 268.12 259.521 267.91 260.311C267.7 261.101 268.17 261.441 268.84 261.641L271.29 262.711C271.48 264.121 272.7 264.871 274.29 265.331L282.88 269.081L282.58 270.191C282.526 270.339 282.502 270.496 282.509 270.653C282.516 270.81 282.554 270.964 282.621 271.107C282.688 271.249 282.782 271.376 282.899 271.482C283.015 271.587 283.152 271.669 283.3 271.721L285.87 272.411C286.119 272.46 286.377 272.425 286.603 272.311C286.829 272.197 287.011 272.01 287.12 271.781L287.46 271.881C286.08 273.271 285.46 275.231 286.28 277.831C289.28 287.961 279.89 289.131 283.23 296.241C289.83 310.321 294.75 301.241 308.06 316.241C310.211 318.627 312.552 320.835 315.06 322.841L315.05 322.601ZM301.22 262.491C301.76 262.071 302.37 261.561 302.99 261.011C303.334 261.834 303.807 262.597 304.39 263.271L301.22 262.491ZM334.87 265.871C337.607 263.751 340.166 261.41 342.52 258.871C342.768 259.347 342.991 259.834 343.19 260.331C339.57 264.631 335.32 268.951 335.32 268.951C335.541 269.732 335.86 270.481 336.27 271.181L325.94 268.621C329.11 268.498 332.19 267.539 334.87 265.841V265.871ZM318.22 263.871C318.822 265.338 319.872 266.577 321.22 267.411L313.44 265.491C315.098 265.162 316.706 264.614 318.22 263.861V263.871ZM309.45 287.181C310.34 284.224 310.426 281.083 309.7 278.081L337.88 286.191C336.212 288.244 334.379 290.157 332.4 291.911C332.343 291.954 332.289 292 332.24 292.051L332.17 292.101C331.89 291.981 331.62 291.871 331.34 291.771L331.04 291.671L330.47 291.491L330.13 291.401L329.6 291.271L329.26 291.201L328.72 291.101H328.41L327.85 291.021H327.59H327H326.81H326.17H326.06H325.37C324.434 291.016 323.498 291.072 322.57 291.191C318.47 286.731 309.45 287.171 309.45 287.171V287.181Z" fill="black"/>
</g>
<path d="M341.572 222.381V215.901H321.782C319.572 219.501 318.302 222.011 317.672 223.151C315.142 227.701 302.762 238.291 302.762 238.291C305.762 246.861 316.282 243.241 319.672 240.941C323.062 238.641 329.832 231.241 329.832 231.241C330.162 231.211 345.352 220.721 341.572 222.381Z" fill="#E4A880"/>
<path d="M356.8 225.201V215.901H338.8C335.44 221.031 333.68 224.551 332.89 225.981C330.36 230.531 317.98 241.111 317.98 241.111C320.98 249.681 331.5 246.111 334.9 243.761C338.3 241.411 345.06 234.061 345.06 234.061C345.35 234.031 360.57 223.541 356.8 225.201Z" fill="#E4A880"/>
<path d="M367.86 230.941V215.941H356.1C352.96 221.008 350.189 226.295 347.81 231.761C345.69 236.301 335.32 246.891 335.32 246.891C337.86 255.461 346.64 251.841 349.49 249.541C352.34 247.241 358 239.841 358 239.841C358.27 239.771 371 229.281 367.86 230.941Z" fill="#E4A880"/>
<path d="M283.639 238.202C283.639 238.202 296.019 227.612 298.549 223.062C301.079 218.512 313.459 192.492 319.269 191.222C325.079 189.952 343.269 204.362 350.849 208.662C358.429 212.962 379.909 207.922 385.469 214.732C391.029 221.542 400.879 238.732 409.979 257.422C419.079 276.112 424.639 296.342 429.979 305.692C435.319 315.042 442.109 325.402 457.779 347.632C473.449 369.862 511.809 428.492 511.809 428.492H422.619C422.619 428.492 400.129 361.022 387.749 343.082C375.369 325.142 367.029 325.402 356.669 322.082C346.309 318.762 321.389 309.152 308.069 294.142C294.749 279.132 289.839 288.212 283.239 274.072C279.899 266.932 289.319 265.752 286.289 255.572C283.259 245.392 300.789 244.972 305.789 250.072C308.099 252.422 311.789 255.852 309.449 265.162C309.449 265.162 318.449 264.722 322.539 269.022C322.539 269.022 327.859 268.202 332.149 270.132C332.149 270.132 345.039 259.412 344.789 247.792C344.539 236.172 341.239 230.642 322.539 221.792C322.539 221.792 315.809 230.642 310.709 231.142C310.709 231.142 303.949 238.542 300.549 240.852C297.149 243.162 286.669 246.762 283.639 238.202Z" fill="#F8CFAE"/>
<path opacity="0.1" d="M412.711 282.301L404.851 279.801L404.761 279.481L404.651 279.181C404.601 279.041 404.551 278.901 404.491 278.761C404.431 278.621 404.401 278.551 404.351 278.441L404.171 278.061C404.051 277.851 403.931 277.641 403.801 277.441L403.621 277.181L403.361 276.821L403.141 276.581C403.051 276.471 402.951 276.361 402.851 276.261L402.621 276.031L402.291 275.751L402.051 275.551L401.671 275.291L401.421 275.131L400.981 274.901L400.751 274.781C400.521 274.681 400.281 274.591 400.041 274.511L343.541 256.511C343.579 256.203 343.514 255.891 343.357 255.624C343.2 255.356 342.959 255.148 342.671 255.031L339.191 253.851C338.872 253.767 338.533 253.795 338.232 253.932C337.931 254.068 337.687 254.305 337.541 254.601L274.911 234.691C274.953 234.413 274.902 234.127 274.764 233.881C274.626 233.635 274.411 233.441 274.151 233.331L271.331 232.381C271.158 232.34 270.979 232.333 270.803 232.36C270.628 232.388 270.46 232.45 270.308 232.543C270.157 232.636 270.025 232.758 269.921 232.902C269.817 233.046 269.742 233.209 269.701 233.381L269.291 234.601L258.981 232.771C258.391 232.507 257.752 232.37 257.106 232.37C256.46 232.37 255.821 232.507 255.231 232.771C254.985 232.921 254.765 233.11 254.581 233.331L251.641 232.811C250.901 232.571 250.241 232.601 249.951 233.471C249.661 234.341 250.161 234.761 250.891 235.021L253.571 236.491C253.681 238.091 254.991 239.021 256.701 239.641L266.001 244.451L265.591 245.671C265.45 245.999 265.445 246.369 265.576 246.701C265.707 247.032 265.964 247.299 266.291 247.441L269.101 248.441C269.376 248.516 269.668 248.496 269.931 248.385C270.193 248.275 270.412 248.08 270.551 247.831L332.371 270.081C332.309 270.406 332.36 270.743 332.517 271.034C332.673 271.325 332.926 271.554 333.231 271.681L336.711 272.861C337.011 272.942 337.328 272.921 337.615 272.804C337.902 272.687 338.143 272.479 338.301 272.211L394.081 292.291C395.261 292.678 396.52 292.765 397.742 292.543C398.964 292.321 400.112 291.798 401.081 291.021L403.301 291.821L408.831 293.821C411.511 294.821 414.591 292.961 415.671 289.771C416.751 286.581 415.421 283.161 412.711 282.301Z" fill="black"/>
<g opacity="0.1">
<path opacity="0.1" d="M360.731 316.491C354.671 314.421 334.581 307.361 315.051 300.821C328.811 312.051 347.921 319.361 356.671 322.131C367.031 325.421 375.361 325.131 387.751 343.131C400.141 361.131 422.621 428.491 422.621 428.491H429.161C429.161 428.491 404.161 358.411 391.811 339.071C379.461 319.731 371.091 320.011 360.731 316.491Z" fill="black"/>
</g>
<path d="M409.57 282.101L421.57 285.551C424.31 286.341 427.26 284.331 428.14 281.081C429.02 277.831 427.46 274.601 424.7 273.921L412.64 270.921L409.57 282.101Z" fill="#7F7F7F"/>
<path d="M409.57 282.101L421.57 285.551C424.31 286.341 427.26 284.331 428.14 281.081C429.02 277.831 427.46 274.601 424.7 273.921L412.64 270.921L409.57 282.101Z" fill="#7F7F7F"/>
<path d="M409.57 282.101L421.57 285.551C424.31 286.341 427.26 284.331 428.14 281.081C429.02 277.831 427.46 274.601 424.7 273.921L412.64 270.921L409.57 282.101Z" fill="#7F7F7F"/>
<path d="M419.171 278.672C419.734 276.643 419.668 274.492 418.981 272.502L412.621 270.912L409.621 282.102L415.911 283.922C417.503 282.541 418.639 280.71 419.171 278.672Z" fill="#666666"/>
<path d="M260.18 237.121L263.67 238.651L264.58 235.291L260.78 234.861C260.04 234.681 259.38 234.751 259.14 235.631C258.9 236.511 259.44 236.911 260.18 237.121Z" fill="#7F7F7F"/>
<path d="M266.241 241.262L276.981 245.972L279.761 235.642L268.101 234.332C265.801 233.752 263.781 233.982 263.051 236.682C262.321 239.382 263.961 240.602 266.241 241.262Z" fill="#7F7F7F"/>
<path d="M278.2 241.492L279.76 235.682L268.1 234.372C265.8 233.792 263.78 234.022 263.05 236.722C262.992 236.941 262.952 237.165 262.93 237.392L278.2 241.492Z" fill="#666666"/>
<path d="M278.91 248.022L406.69 285.022C410.93 286.252 415.5 283.132 416.86 278.092C418.22 273.052 415.86 268.092 411.54 266.992L282.45 234.832L278.91 248.022Z" fill="#7F7F7F"/>
<path d="M417.201 276.042C417.531 271.752 415.251 267.882 411.541 266.952L282.451 234.832L281.211 239.492L417.201 276.042Z" fill="#666666"/>
<path d="M364.36 263.931C364.197 264.535 364.277 265.178 364.584 265.722C364.891 266.267 365.4 266.669 366 266.841L407.62 278.841C408.393 278.933 409.172 278.743 409.816 278.307C410.461 277.872 410.927 277.219 411.129 276.468C411.332 275.717 411.257 274.918 410.92 274.217C410.582 273.517 410.004 272.961 409.29 272.651L367.24 262.181C366.633 262.032 365.992 262.126 365.453 262.444C364.915 262.761 364.523 263.278 364.36 263.881V263.931Z" fill="#4A4A4A"/>
<path d="M349.5 250.271L353.05 251.271C353.422 251.409 353.725 251.687 353.893 252.047C354.062 252.406 354.082 252.817 353.95 253.191L349.95 268.101C349.877 268.49 349.653 268.835 349.327 269.06C349.001 269.285 348.599 269.371 348.21 269.301L344.66 268.351C344.289 268.212 343.988 267.933 343.819 267.574C343.651 267.216 343.63 266.805 343.76 266.431L347.76 251.521C347.79 251.324 347.859 251.135 347.963 250.965C348.068 250.795 348.205 250.647 348.367 250.531C348.529 250.414 348.713 250.331 348.907 250.287C349.102 250.242 349.303 250.237 349.5 250.271Z" fill="#4A4A4A"/>
<path d="M280.399 233.171L283.279 233.941C283.61 234.067 283.88 234.317 284.031 234.638C284.182 234.959 284.203 235.325 284.089 235.661L280.729 248.121C280.698 248.295 280.633 248.46 280.537 248.608C280.442 248.757 280.318 248.885 280.173 248.985C280.028 249.085 279.865 249.156 279.693 249.193C279.52 249.23 279.343 249.233 279.169 249.201L276.299 248.431C275.966 248.307 275.695 248.058 275.544 247.736C275.392 247.415 275.373 247.047 275.489 246.711L278.839 234.251C278.905 233.902 279.105 233.593 279.397 233.391C279.689 233.189 280.049 233.11 280.399 233.171Z" fill="#4A4A4A"/>
<path d="M311.708 265.231C310.358 265.151 309.448 265.231 309.448 265.231C311.758 255.921 308.098 252.491 305.788 250.141C300.788 245.041 283.248 245.471 286.288 255.641C289.328 265.811 279.898 267.001 283.238 274.141C289.838 288.281 294.758 279.191 308.068 294.211C309.198 295.481 310.418 296.711 311.708 297.901V265.231Z" fill="#F8CFAE"/>
<path d="M311.711 199.281C306.181 207.701 300.221 220.061 298.551 223.061C296.021 227.611 283.641 238.201 283.641 238.201C286.641 246.761 297.161 243.201 300.551 240.851C303.941 238.501 310.711 231.141 310.711 231.141C311.049 231.103 311.383 231.036 311.711 230.941V199.281Z" fill="#F8CFAE"/>
<path opacity="0.1" d="M343.68 204.042C343.91 204.192 351.84 211.042 370.29 218.762C388.74 226.482 368.89 210.762 368.89 210.762C361.89 210.632 354.64 210.812 350.89 208.672C348.99 207.602 346.48 205.932 343.68 204.042Z" fill="black"/>
<path opacity="0.1" d="M322.57 221.791C321.045 220.35 319.948 218.516 319.4 216.491C319.4 216.491 318.82 222.061 320.59 224.161L322.57 221.791Z" fill="black"/>
<path opacity="0.1" d="M283.242 274.101C283.242 274.101 286.022 266.811 292.592 266.961C292.592 266.961 284.592 271.061 283.922 275.491L283.242 274.101Z" fill="black"/>
<path d="M196.701 175.341C186.931 177.381 178.102 182.574 171.571 190.121C171.361 190.371 171.151 190.631 170.951 190.901C170.541 191.441 170.331 191.751 170.331 191.751C170.331 191.751 161.421 193.221 158.331 198.281C158.331 198.281 152.961 198.611 149.171 201.401C145.529 199.394 142.167 196.916 139.171 194.031C125.851 212.651 122.811 238.621 131.871 259.681C133.281 258.941 134.721 258.201 136.181 257.361C145.611 251.961 167.931 237.261 177.771 219.771C185.771 205.511 191.771 208.101 195.561 201.271C199.801 196.791 200.771 192.871 210.141 187.271C215.251 184.321 209.271 172.491 196.701 175.341Z" fill="#F8CFAE"/>
<path opacity="0.1" d="M203.683 180.371C197.283 182.241 190.543 187.521 191.903 189.041C193.263 190.561 199.583 196.401 201.243 194.661C202.903 192.921 211.833 189.291 209.503 185.231C207.173 181.171 205.573 179.831 203.683 180.371Z" fill="white"/>
<g opacity="0.1">
<path opacity="0.1" d="M185.242 198.491C186.394 198.582 187.524 198.852 188.592 199.291C189.645 199.716 190.65 200.248 191.592 200.881C192.537 201.513 193.412 202.244 194.202 203.061C195.007 203.887 195.682 204.832 196.202 205.861C195.17 205.403 194.168 204.878 193.202 204.291C192.272 203.721 191.362 203.141 190.462 202.541C189.562 201.941 188.692 201.321 187.812 200.661C186.911 199.992 186.053 199.268 185.242 198.491Z" fill="black"/>
</g>
<path opacity="0.1" d="M90.9022 331.071C86.5722 362.491 78.5122 409.301 75.2422 428.491H87.2422C91.2422 395.901 103.432 301.071 110.242 284.431C117.242 267.431 124.242 263.681 131.872 259.681C133.282 258.941 134.722 258.201 136.182 257.361C143.126 253.334 149.755 248.788 156.012 243.761C133.102 252.411 117.362 259.191 109.512 266.961C104.972 271.491 96.2422 292.071 90.9022 331.071Z" fill="black"/>
<path d="M213.822 70.3508C215.868 70.3508 217.321 69.2684 217.317 67.7513C217.321 66.6775 216.618 65.9104 215.271 65.7528V65.6846C216.281 65.5397 216.997 64.8621 216.993 63.882C216.997 62.4587 215.71 61.3849 213.839 61.3849C211.956 61.3849 210.584 62.4758 210.567 64.0269H212.582C212.599 63.4303 213.136 63.0297 213.839 63.0297C214.509 63.0297 214.964 63.4346 214.96 64.0184C214.964 64.6235 214.428 65.0411 213.652 65.0411H212.804V66.5411H213.652C214.534 66.5411 215.109 66.9758 215.101 67.5894C215.109 68.2073 214.581 68.6377 213.831 68.6377C213.085 68.6377 212.536 68.2414 212.514 67.6661H210.392C210.409 69.2428 211.828 70.3508 213.822 70.3508ZM221.012 70.2314L221.587 68.3991H224.6L225.175 70.2314H227.442L224.497 61.5042H221.689L218.745 70.2314H221.012ZM222.09 66.7968L223.057 63.703H223.125L224.097 66.7968H222.09ZM235.604 70.2314V61.5042H231.999C230.038 61.5042 228.815 62.6164 228.815 64.4104C228.815 65.6164 229.369 66.4729 230.328 66.9076L228.517 70.2314H230.818L232.412 67.2442H233.494V70.2314H235.604ZM233.494 65.5823H232.455C231.509 65.5823 231.001 65.2201 231.001 64.4104C231.001 63.6008 231.509 63.2045 232.455 63.2045H233.494V65.5823ZM237.527 70.2314H241.443C243.374 70.2314 244.481 69.2002 244.481 67.7897C244.481 66.5283 243.565 65.7357 242.508 65.6888V65.6036C243.467 65.4033 244.141 64.7087 244.141 63.7116C244.141 62.3948 243.126 61.5042 241.166 61.5042H237.527V70.2314ZM239.636 68.5312V66.4516H240.979C241.784 66.4516 242.278 66.8778 242.278 67.5468C242.278 68.1647 241.852 68.5312 240.94 68.5312H239.636ZM239.636 65.0922V63.1789H240.838C241.541 63.1789 241.989 63.5411 241.989 64.1206C241.989 64.7343 241.494 65.0922 240.804 65.0922H239.636ZM247.983 70.2314L248.559 68.3991H251.572L252.147 70.2314H254.414L251.469 61.5042H248.661L245.716 70.2314H247.983ZM249.062 66.7968L250.029 63.703H250.097L251.069 66.7968H249.062ZM259.132 70.2314H261.241V66.7243H264.68V70.2314H266.785V61.5042H264.68V65.007H261.241V61.5042H259.132V70.2314ZM270.596 70.2314L271.171 68.3991H274.184L274.759 70.2314H277.026L274.082 61.5042H271.274L268.329 70.2314H270.596ZM271.674 66.7968L272.641 63.703H272.71L273.681 66.7968H271.674ZM281.744 70.2314H285.66C287.591 70.2314 288.699 69.2002 288.699 67.7897C288.699 66.5283 287.782 65.7357 286.726 65.6888V65.6036C287.684 65.4033 288.358 64.7087 288.358 63.7116C288.358 62.3948 287.344 61.5042 285.383 61.5042H281.744V70.2314ZM283.853 68.5312V66.4516H285.196C286.001 66.4516 286.496 66.8778 286.496 67.5468C286.496 68.1647 286.069 68.5312 285.157 68.5312H283.853ZM283.853 65.0922V63.1789H285.055C285.758 63.1789 286.206 63.5411 286.206 64.1206C286.206 64.7343 285.711 65.0922 285.021 65.0922H283.853ZM298.235 64.6661C298.022 62.578 296.466 61.3849 294.357 61.3849C292.03 61.3849 290.219 62.9829 290.219 65.8678C290.219 68.74 291.988 70.3508 294.357 70.3508C296.752 70.3508 298.077 68.7229 298.235 67.176L296.104 67.1633C295.955 68.0028 295.324 68.5013 294.4 68.5013C293.155 68.5013 292.371 67.6022 292.371 65.8678C292.371 64.2016 293.138 63.2343 294.412 63.2343C295.371 63.2343 295.998 63.7925 296.104 64.6661H298.235ZM299.756 63.2172H302.407V70.2314H304.486V63.2172H307.133V61.5042H299.756V63.2172ZM309.867 70.3508H310.548C312.014 70.3508 312.653 69.4431 313.122 68.4204L316.122 61.5042H313.992L312.432 65.4246L310.493 61.5042H308.328L311.55 67.6533L311.452 67.9218C311.281 68.4715 311.043 68.6803 310.314 68.6803H309.867V70.3508ZM325.33 61.5042H317.932V70.2314H320.012V63.1917H323.251V70.2314H325.33V61.5042Z" fill="#666666"/>
</svg>
