<svg width="130" height="145" viewBox="0 0 130 145" fill="none" xmlns="http://www.w3.org/2000/svg">
<path d="M37.1583 17.6208C48.6933 13.8821 60.4375 10.7661 72.3355 8.41371C79.6888 7.09996 87.1089 5.76251 94.6074 5.84306C97.4174 5.81884 99.8775 7.99094 100.447 10.7076C106.6 32.9297 112.754 55.1518 118.907 77.3739C120.294 81.8695 118.714 86.5267 117.284 90.7969C113.716 100.429 108.517 109.428 102.295 117.586C98.767 121.825 95.0954 126.621 89.5625 128.232C78.5397 131.797 67.1922 134.285 55.8065 136.37C49.2807 137.439 42.7254 138.458 36.1159 138.828C33.1775 139.05 30.4349 136.841 29.8719 133.976C20.9648 101.868 12.0772 69.7535 3.18827 37.6347C2.40609 35.3016 3.06196 32.4708 5.05803 30.9443C6.49519 29.8762 8.16082 29.1793 9.73743 28.3501C18.6088 24.1239 27.8123 20.6434 37.1583 17.6208ZM26.3196 45.4279C26.975 48.0212 27.6997 50.6006 28.439 53.1759C47.8913 47.8154 67.3328 42.4161 86.7783 37.0313C86.0974 34.4398 85.3824 31.8578 84.6152 29.2954C65.1681 34.6178 45.7425 40.018 26.3196 45.4279ZM30.5988 60.9755C31.3201 63.561 32.0232 66.1569 32.7492 68.7411C52.1975 63.366 71.6417 57.9764 91.0921 52.5903C90.3744 49.9985 89.6678 47.4089 88.9355 44.8212C69.4886 50.2011 50.0444 55.5907 30.5988 60.9755ZM34.9139 76.5393C35.5949 79.1308 36.3099 81.7128 37.0771 84.2752C56.5215 78.9431 75.9519 73.5416 95.3775 68.1414C94.7111 65.5459 93.9913 62.9652 93.2471 60.3912C73.7948 65.7517 54.3568 71.1448 34.9139 76.5393ZM78.6663 98.4124C80.4506 104.761 82.0938 111.149 84.0079 117.456C87.5949 116.154 90.3463 112.345 89.7064 108.465C88.857 104.339 87.4528 100.346 86.4319 96.262C85.7434 94.0024 87.2516 91.2812 89.5558 90.7164C93.4447 89.54 97.4232 88.6687 101.288 87.4048C105.204 86.1372 107.289 81.6068 106.518 77.7054C100.119 79.2889 93.7949 81.1815 87.4314 82.9122C80.9362 84.47 76.7006 92.0511 78.6663 98.4124Z" fill="white"/>
</svg>
