<svg width="93" height="93" viewBox="0 0 93 93" fill="none" xmlns="http://www.w3.org/2000/svg">
<path d="M68.3364 0.20245C66.611 -0.372683 64.7169 0.332813 63.513 1.62111C46.7536 18.461 29.9712 35.2817 13.2081 52.1177C12.3223 52.9268 11.9006 54.0732 11.5632 55.1928C8.18906 65.7714 4.78812 76.3385 1.21463 86.8442C0.114212 89.8503 3.42697 92.8563 6.34097 91.844C16.77 88.1862 27.249 84.6587 37.7509 81.2156C38.8245 80.8552 39.9747 80.5408 40.8106 79.7241C57.2095 63.2791 73.5931 46.8188 89.9844 30.3701C90.7436 29.6032 91.5718 28.8901 92.1929 28.0082C93.1668 26.6125 93.2703 24.6494 92.3923 23.1847C87.8142 15.5393 81.4839 9.01731 74.2181 3.89097C72.2933 2.61417 70.4759 1.09966 68.3364 0.20245ZM72.5924 13.6107C57.8268 28.4414 43.1188 43.3297 28.3685 58.1681C27.3793 59.1765 26.2099 60.1351 25.7459 61.5192C24.9024 64.2147 27.318 67.2245 30.0901 67.2054C31.2212 67.2169 32.3063 66.7108 33.1191 65.9439C48.4637 50.492 63.7814 35.0171 79.1259 19.5691C80.6136 21.1948 81.944 22.9509 83.2093 24.7529C83.5851 25.1709 82.8796 25.4623 82.6917 25.7728C67.6731 40.78 52.7158 55.8484 37.724 70.8824C37.0109 71.5304 36.4319 72.4314 35.4733 72.7343C31.2557 74.0264 27.0726 75.4298 22.8703 76.7756C20.6119 74.5019 18.3497 72.2282 16.0952 69.9545C17.3835 66.0589 18.7025 62.1749 19.9831 58.2755C20.2477 57.0945 21.2676 56.3699 22.0574 55.5417C37.2563 40.178 52.4474 24.8028 67.6539 9.44291C69.3947 10.7197 70.9744 12.192 72.5924 13.6107Z" fill="white"/>
</svg>
