<svg width="148" height="149" viewBox="0 0 148 149" fill="none" xmlns="http://www.w3.org/2000/svg">
<path d="M82.4184 8.59673C95.834 12.3841 109.052 16.9004 121.93 22.245C129.799 25.6821 137.748 29.139 144.866 34.002C147.568 35.7723 148.534 39.4193 147.344 42.3801C139.045 67.5555 130.746 92.731 122.447 117.906C120.903 123.09 116.42 126.535 112.327 129.705C102.768 136.637 92.0532 141.924 80.897 145.753C74.8187 147.554 68.2465 149.797 61.9282 147.806C49.1129 144.179 36.6751 139.316 24.4579 134.042C17.5359 130.899 10.6174 127.69 4.0617 123.825C1.11035 122.162 -0.102059 118.299 1.18819 115.201C13.1648 78.8147 25.1634 42.4361 37.1639 6.05201C37.905 3.32199 40.3389 1.03392 43.2218 0.848286C45.2776 0.744262 47.315 1.14106 49.3517 1.35443C60.5315 2.9756 71.553 5.52177 82.4184 8.59673ZM54.3072 28.2671C53.2786 31.165 52.3253 34.0938 51.3885 37.0281C73.4093 44.3179 95.4446 51.5638 117.475 58.8261C118.477 55.9136 119.442 52.9884 120.344 50.0487C98.3521 42.7257 76.3314 35.4909 54.3072 28.2671ZM48.4756 45.8642C47.515 48.7968 46.5305 51.7275 45.5754 54.6619C67.6016 61.9352 89.6333 69.1921 111.669 76.4562C112.637 73.52 113.614 70.5929 114.565 67.6513C92.5372 60.3834 70.5055 53.1266 48.4756 45.8642ZM42.668 63.4999C41.6651 66.4124 40.7008 69.3376 39.7989 72.2772C61.7941 79.5892 83.8202 86.8259 105.841 94.0607C106.86 91.1537 107.819 88.2267 108.75 85.2906C86.7295 78.0007 64.7015 70.7512 42.668 63.4999ZM70.5419 112.339C68.1959 119.548 65.6901 126.704 63.4947 133.957C67.7555 135.001 72.8174 133.115 74.682 128.997C76.5033 124.51 77.7093 119.795 79.3396 115.239C80.1234 112.639 83.3022 111 85.866 111.93C90.3351 113.288 94.6953 114.994 99.1971 116.252C103.75 117.539 108.636 114.539 110.389 110.316C103.259 107.746 96.0048 105.519 88.8156 103.112C81.611 100.456 72.7224 105.002 70.5419 112.339Z" fill="white"/>
</svg>
