<svg width="798" height="627" viewBox="0 0 798 627" fill="none" xmlns="http://www.w3.org/2000/svg">
<path d="M36.7911 332.07C48.3262 328.331 60.0703 325.215 71.9684 322.862C79.3217 321.549 86.7417 320.211 94.2402 320.292C97.0502 320.268 99.5103 322.44 100.079 325.156C106.233 347.378 112.387 369.601 118.54 391.823C119.927 396.318 118.347 400.975 116.917 405.246C113.349 414.878 108.15 423.877 101.928 432.035C98.3998 436.273 94.7282 441.07 89.1953 442.681C78.1725 446.246 66.825 448.734 55.4393 450.819C48.9135 451.888 42.3582 452.907 35.7487 453.277C32.8103 453.499 30.0677 451.29 29.5047 448.425C20.5977 416.316 11.71 384.202 2.82109 352.083C2.0389 349.75 2.69477 346.92 4.69084 345.393C6.12801 344.325 7.79364 343.628 9.37024 342.799C18.2416 338.573 27.4451 335.092 36.7911 332.07ZM25.9525 359.877C26.6078 362.47 27.3325 365.049 28.0718 367.625C47.5241 362.264 66.9656 356.865 86.4112 351.48C85.7302 348.889 85.0152 346.307 84.248 343.744C64.8009 349.067 45.3753 354.467 25.9525 359.877ZM30.2317 375.424C30.9529 378.01 31.656 380.606 32.3821 383.19C51.8303 377.815 71.2745 372.425 90.7249 367.039C90.0072 364.447 89.3006 361.858 88.5683 359.27C69.1214 364.65 49.6772 370.039 30.2317 375.424ZM34.5467 390.988C35.2277 393.58 35.9427 396.162 36.7099 398.724C56.1543 393.392 75.5847 387.99 95.0103 382.59C94.3439 379.995 93.6241 377.414 92.8799 374.84C73.4276 380.2 53.9896 385.594 34.5467 390.988ZM78.2992 412.861C80.0834 419.21 81.7266 425.598 83.6408 431.905C87.2277 430.603 89.9792 426.794 89.3392 422.914C88.4898 418.788 87.0856 414.794 86.0647 410.711C85.3762 408.451 86.8844 405.73 89.1887 405.165C93.0775 403.989 97.056 403.117 100.921 401.854C104.836 400.586 106.922 396.056 106.151 392.154C99.7516 393.738 93.4277 395.63 87.0642 397.361C80.5691 398.919 76.3334 406.5 78.2992 412.861Z" fill="white"/>
<path d="M760.051 472.045C773.467 475.833 786.685 480.349 799.562 485.694C807.432 489.131 815.38 492.588 822.499 497.451C825.201 499.221 826.167 502.868 824.977 505.829C816.678 531.004 808.378 556.18 800.079 581.355C798.535 586.538 794.053 589.983 789.96 593.154C780.401 600.086 769.686 605.373 758.53 609.201C752.451 611.003 745.879 613.246 739.561 611.254C726.745 607.628 714.308 602.764 702.09 597.491C695.168 594.348 688.25 591.139 681.694 587.274C678.743 585.611 677.531 581.748 678.821 578.649C690.797 542.263 702.796 505.885 714.796 469.501C715.538 466.771 717.971 464.483 720.854 464.297C722.91 464.193 724.948 464.59 726.984 464.803C738.164 466.424 749.186 468.971 760.051 472.045ZM731.94 491.716C730.911 494.614 729.958 497.543 729.021 500.477C751.042 507.767 773.077 515.012 795.107 522.275C796.11 519.362 797.074 516.437 797.976 513.497C775.985 506.174 753.964 498.94 731.94 491.716ZM726.108 509.313C725.148 512.245 724.163 515.176 723.208 518.111C745.234 525.384 767.266 532.641 789.301 539.905C790.269 536.969 791.246 534.042 792.198 531.1C770.17 523.832 748.138 516.575 726.108 509.313ZM720.301 526.949C719.298 529.861 718.333 532.786 717.431 535.726C739.427 543.038 761.453 550.275 783.473 557.509C784.493 554.602 785.452 551.675 786.383 548.739C764.362 541.449 742.334 534.2 720.301 526.949ZM748.175 575.788C745.828 582.997 743.323 590.153 741.127 597.406C745.388 598.45 750.45 596.564 752.315 592.446C754.136 587.958 755.342 583.244 756.972 578.688C757.756 576.088 760.935 574.448 763.499 575.379C767.968 576.736 772.328 578.442 776.83 579.701C781.383 580.988 786.269 577.987 788.021 573.764C780.892 571.194 773.637 568.968 766.448 566.561C759.244 563.905 750.355 568.451 748.175 575.788Z" fill="white"/>
<path d="M719.338 0.20245C717.613 -0.372683 715.718 0.332813 714.515 1.62111C697.755 18.461 680.973 35.2817 664.21 52.1177C663.324 52.9268 662.902 54.0732 662.565 55.1928C659.191 65.7714 655.79 76.3385 652.216 86.8442C651.116 89.8503 654.429 92.8563 657.343 91.844C667.772 88.1862 678.251 84.6587 688.752 81.2156C689.826 80.8552 690.976 80.5408 691.812 79.7241C708.211 63.2791 724.595 46.8188 740.986 30.3701C741.745 29.6032 742.573 28.8901 743.194 28.0082C744.168 26.6125 744.272 24.6494 743.394 23.1847C738.816 15.5393 732.486 9.01731 725.22 3.89097C723.295 2.61417 721.477 1.09966 719.338 0.20245ZM723.594 13.6107C708.828 28.4414 694.12 43.3297 679.37 58.1681C678.381 59.1765 677.211 60.1351 676.748 61.5192C675.904 64.2147 678.32 67.2245 681.092 67.2054C682.223 67.2169 683.308 66.7108 684.121 65.9439C699.465 50.492 714.783 35.0171 730.127 19.5691C731.615 21.1948 732.946 22.9509 734.211 24.7529C734.587 25.1709 733.881 25.4623 733.693 25.7728C718.675 40.78 703.717 55.8484 688.726 70.8824C688.012 71.5304 687.433 72.4314 686.475 72.7343C682.257 74.0264 678.074 75.4298 673.872 76.7756C671.614 74.5019 669.351 72.2282 667.097 69.9545C668.385 66.0589 669.704 62.1749 670.985 58.2755C671.249 57.0945 672.269 56.3699 673.059 55.5417C688.258 40.178 703.449 24.8028 718.656 9.44291C720.396 10.7197 721.976 12.192 723.594 13.6107Z" fill="white"/>
</svg>
