<svg width="1365" height="939" viewBox="0 0 1365 939" fill="none" xmlns="http://www.w3.org/2000/svg">
<path d="M646.658 1.70063C668.794 -2.18719 692.207 0.567271 712.564 10.2079C736.135 21.0106 755.689 40.3923 766.52 63.9631C776.261 84.2486 779.202 107.618 775.358 129.769C770.695 157.228 755.072 182.635 732.749 199.291C716.337 211.657 696.411 219.39 675.896 221.054C651.407 223.335 626.272 216.994 605.714 203.523C585.299 190.267 569.433 170.096 561.6 147.027C552.303 120.659 553.695 90.7617 565.2 65.2973C579.762 32.4445 611.223 7.82645 646.658 1.70063Z" fill="#F5F5F5"/>
<path d="M660.875 280.369C673.729 278.576 687.1 283.411 696.066 292.736C797.02 393.604 897.888 494.558 998.828 595.455C1003.86 600.461 1009.21 605.626 1011.64 612.498C1013.2 617.06 1011.61 622.741 1007.28 625.151C1000.52 629.426 992.2 628.81 984.568 628.867C943.882 628.881 903.211 628.809 862.539 628.896C845.941 629.369 830.648 641.176 825.497 656.885C822.714 664.761 823.374 673.24 823.317 681.46C823.288 754.152 823.345 826.844 823.288 899.536C822.872 920.295 804.208 938.3 783.549 938.501C708.031 938.601 632.512 938.529 556.994 938.544C535.905 938.859 516.854 920.496 516.323 899.422C516.265 823.415 516.308 747.409 516.308 671.403C516.409 662.91 514.228 654.245 509.379 647.216C502.307 636.27 489.625 629.24 476.627 628.867C431.221 628.824 385.801 628.91 340.396 628.824C333.265 628.623 324.285 627.518 320.655 620.417C318.102 612.871 323.496 605.683 328.503 600.576C430.762 498.647 532.735 396.444 634.837 294.386C641.536 286.854 650.847 281.646 660.875 280.369Z" fill="#F5F5F5"/>
<path d="M62.8764 122.909H64.8764V120.909H62.8764V122.909ZM2.55682 122.909V120.909H0.556818V122.909H2.55682ZM2.55682 192H0.556818V194H2.55682V192ZM21.044 192V194H23.044V192H21.044ZM21.044 137.753V135.753H19.044V137.753H21.044ZM44.3892 137.753H46.3892V135.753H44.3892V137.753ZM44.3892 192H42.3892V194H44.3892V192ZM62.8764 192V194H64.8764V192H62.8764ZM62.8764 120.909H2.55682V124.909H62.8764V120.909ZM0.556818 122.909V192H4.55682V122.909H0.556818ZM2.55682 194H21.044V190H2.55682V194ZM23.044 192V137.753H19.044V192H23.044ZM21.044 139.753H44.3892V135.753H21.044V139.753ZM42.3892 137.753V192H46.3892V137.753H42.3892ZM44.3892 194H62.8764V190H44.3892V194ZM64.8764 192V122.909H60.8764V192H64.8764ZM74.8779 192H72.8779V194H74.8779V192ZM93.635 192V194H95.635V192H93.635ZM93.635 171.489V169.489H91.635V171.489H93.635ZM74.8779 122.909V120.909H72.8779V122.909H74.8779ZM93.635 156.915H91.635V158.915H93.635V156.915ZM93.635 137.888V135.888H91.635V137.888H93.635ZM74.8779 194H93.635V190H74.8779V194ZM95.635 192V171.489H91.635V192H95.635ZM93.635 173.489H104.026V169.489H93.635V173.489ZM104.026 173.489C112.289 173.489 119.382 171.052 124.434 166.472C129.507 161.872 132.34 155.272 132.34 147.334H128.34C128.34 154.273 125.892 159.75 121.747 163.509C117.581 167.286 111.517 169.489 104.026 169.489V173.489ZM132.34 147.334C132.34 139.494 129.586 132.842 124.654 128.156C119.731 123.478 112.799 120.909 104.7 120.909V124.909C111.951 124.909 117.839 127.198 121.898 131.055C125.949 134.904 128.34 140.464 128.34 147.334H132.34ZM104.7 120.909H74.8779V124.909H104.7V120.909ZM72.8779 122.909V192H76.8779V122.909H72.8779ZM95.635 156.915V137.888H91.635V156.915H95.635ZM93.635 139.888H100.247V135.888H93.635V139.888ZM100.247 139.888C103.197 139.888 105.301 140.673 106.643 141.874C107.956 143.05 108.773 144.829 108.773 147.334H112.773C112.773 143.901 111.616 140.957 109.311 138.894C107.035 136.857 103.876 135.888 100.247 135.888V139.888ZM108.773 147.334C108.773 149.821 107.955 151.646 106.626 152.863C105.276 154.1 103.174 154.915 100.247 154.915V158.915C103.899 158.915 107.06 157.891 109.328 155.813C111.617 153.716 112.773 150.75 112.773 147.334H108.773ZM100.247 154.915H93.635V158.915H100.247V154.915ZM206.154 157.455C206.154 145.474 202.289 136.058 195.793 129.634C189.307 123.221 180.374 119.964 170.553 119.964V123.964C179.489 123.964 187.355 126.916 192.981 132.478C198.596 138.031 202.154 146.36 202.154 157.455H206.154ZM170.553 119.964C160.667 119.964 151.731 123.219 145.259 129.636C138.779 136.062 134.952 145.479 134.952 157.455H138.952C138.952 146.355 142.479 138.027 148.076 132.476C153.682 126.917 161.546 123.964 170.553 123.964V119.964ZM134.952 157.455C134.952 169.365 138.781 178.78 145.257 185.22C151.726 191.653 160.661 194.945 170.553 194.945V190.945C161.552 190.945 153.687 187.962 148.078 182.384C142.477 176.815 138.952 168.484 138.952 157.455H134.952ZM170.553 194.945C180.374 194.945 189.307 191.688 195.793 185.275C202.289 178.851 206.154 169.435 206.154 157.455H202.154C202.154 168.549 198.596 176.878 192.981 182.431C187.355 187.993 179.489 190.945 170.553 190.945V194.945ZM182.857 157.455C182.857 163.441 181.645 167.74 179.592 170.496C177.61 173.159 174.669 174.616 170.553 174.616V178.616C175.748 178.616 179.959 176.701 182.8 172.886C185.571 169.165 186.857 163.883 186.857 157.455H182.857ZM170.553 174.616C166.437 174.616 163.496 173.159 161.513 170.496C159.46 167.74 158.249 163.441 158.249 157.455H154.249C154.249 163.883 155.534 169.165 158.305 172.886C161.146 176.701 165.358 178.616 170.553 178.616V174.616ZM158.249 157.455C158.249 151.468 159.46 147.169 161.513 144.413C163.496 141.751 166.437 140.293 170.553 140.293V136.293C165.358 136.293 161.146 138.208 158.305 142.023C155.534 145.744 154.249 151.026 154.249 157.455H158.249ZM170.553 140.293C174.669 140.293 177.61 141.751 179.592 144.413C181.645 147.169 182.857 151.468 182.857 157.455H186.857C186.857 151.026 185.571 145.744 182.8 142.023C179.959 138.208 175.748 136.293 170.553 136.293V140.293ZM250.684 192H248.684V194H250.684V192ZM269.441 192V194H271.441V192H269.441ZM269.441 165.011V163.011H267.441V165.011H269.441ZM294.27 165.011H296.27V163.011H294.27V165.011ZM294.27 192H292.27V194H294.27V192ZM313.027 192V194H315.027V192H313.027ZM313.027 122.909H315.027V120.909H313.027V122.909ZM294.27 122.909V120.909H292.27V122.909H294.27ZM294.27 149.898V151.898H296.27V149.898H294.27ZM269.441 149.898H267.441V151.898H269.441V149.898ZM269.441 122.909H271.441V120.909H269.441V122.909ZM250.684 122.909V120.909H248.684V122.909H250.684ZM250.684 194H269.441V190H250.684V194ZM271.441 192V165.011H267.441V192H271.441ZM269.441 167.011H294.27V163.011H269.441V167.011ZM292.27 165.011V192H296.27V165.011H292.27ZM294.27 194H313.027V190H294.27V194ZM315.027 192V122.909H311.027V192H315.027ZM313.027 120.909H294.27V124.909H313.027V120.909ZM292.27 122.909V149.898H296.27V122.909H292.27ZM294.27 147.898H269.441V151.898H294.27V147.898ZM271.441 149.898V122.909H267.441V149.898H271.441ZM269.441 120.909H250.684V124.909H269.441V120.909ZM248.684 122.909V192H252.684V122.909H248.684ZM339.881 192V194H341.368L341.796 192.576L339.881 192ZM343.862 178.776V176.776H342.375L341.947 178.199L343.862 178.776ZM366.667 178.776L368.582 178.199L368.154 176.776H366.667V178.776ZM370.648 192L368.733 192.576L369.161 194H370.648V192ZM390.89 192V194H393.656L392.789 191.373L390.89 192ZM368.084 122.909L369.983 122.282L369.53 120.909H368.084V122.909ZM342.445 122.909V120.909H340.999L340.546 122.282L342.445 122.909ZM319.64 192L317.74 191.373L316.873 194H319.64V192ZM348.113 164.741L346.198 164.164L345.42 166.741H348.113V164.741ZM354.995 141.936V139.936H353.509L353.08 141.358L354.995 141.936ZM355.534 141.936L357.449 141.358L357.02 139.936H355.534V141.936ZM362.417 164.741V166.741H365.109L364.331 164.164L362.417 164.741ZM341.796 192.576L345.777 179.352L341.947 178.199L337.966 191.424L341.796 192.576ZM343.862 180.776H366.667V176.776H343.862V180.776ZM364.752 179.352L368.733 192.576L372.563 191.424L368.582 178.199L364.752 179.352ZM370.648 194H390.89V190H370.648V194ZM392.789 191.373L369.983 122.282L366.185 123.536L388.99 192.627L392.789 191.373ZM368.084 120.909H342.445V124.909H368.084V120.909ZM340.546 122.282L317.74 191.373L321.539 192.627L344.344 123.536L340.546 122.282ZM319.64 194H339.881V190H319.64V194ZM350.027 165.319L356.909 142.514L353.08 141.358L346.198 164.164L350.027 165.319ZM354.995 143.936H355.534V139.936H354.995V143.936ZM353.62 142.514L360.502 165.319L364.331 164.164L357.449 141.358L353.62 142.514ZM362.417 162.741H348.113V166.741H362.417V162.741ZM458.8 148.818V150.818H460.98L460.792 148.646L458.8 148.818ZM458.8 167.17L460.793 167.331L460.966 165.186L458.814 165.171L458.8 167.17ZM439.773 167.036L439.787 165.036L438.069 165.023L437.798 166.72L439.773 167.036ZM439.773 148.818L437.78 148.99L437.937 150.818H439.773V148.818ZM460.792 148.646C460.009 139.6 456.279 132.374 450.329 127.427C444.399 122.498 436.427 119.964 427.358 119.964V123.964C435.696 123.964 442.703 126.289 447.772 130.503C452.819 134.698 456.106 140.898 456.807 148.991L460.792 148.646ZM427.358 119.964C417.6 119.964 408.732 123.224 402.297 129.64C395.854 136.065 392.027 145.479 392.027 157.455H396.027C396.027 146.354 399.554 138.024 405.121 132.472C410.697 126.913 418.494 123.964 427.358 123.964V119.964ZM392.027 157.455C392.027 169.365 395.744 178.78 402.138 185.224C408.527 191.662 417.402 194.945 427.358 194.945V190.945C418.287 190.945 410.497 187.969 404.977 182.406C399.462 176.848 396.027 168.518 396.027 157.455H392.027ZM427.358 194.945C448.703 194.945 459.77 180.048 460.793 167.331L456.806 167.01C455.94 177.773 446.496 190.945 427.358 190.945V194.945ZM458.814 165.171L439.787 165.036L439.759 169.035L458.786 169.17L458.814 165.171ZM437.798 166.72C437.39 169.269 436.314 171.194 434.727 172.492C433.134 173.797 430.847 174.616 427.763 174.616V178.616C431.561 178.616 434.806 177.597 437.261 175.587C439.723 173.572 441.211 170.705 441.748 167.351L437.798 166.72ZM427.763 174.616C423.711 174.616 420.73 173.21 418.7 170.572C416.605 167.851 415.324 163.562 415.324 157.455H411.324C411.324 164.032 412.691 169.323 415.53 173.012C418.433 176.784 422.672 178.616 427.763 178.616V174.616ZM415.324 157.455C415.324 151.694 416.559 147.387 418.67 144.569C420.718 141.833 423.74 140.293 427.898 140.293V136.293C422.609 136.293 418.345 138.328 415.468 142.171C412.652 145.931 411.324 151.205 411.324 157.455H415.324ZM427.898 140.293C431.107 140.293 433.422 141.229 434.983 142.671C436.548 144.118 437.544 146.249 437.78 148.99L441.765 148.647C441.461 145.113 440.13 141.981 437.697 139.733C435.26 137.481 431.908 136.293 427.898 136.293V140.293ZM439.773 150.818H458.8V146.818H439.773V150.818Z" fill="#222222" fill-opacity="0.15"/>
<path d="M859.219 187H857.219V189H859.219V187ZM897.827 152.866H895.827V154.792L897.751 154.865L897.827 152.866ZM897.827 152.227L897.438 150.265L895.827 150.585V152.227H897.827ZM859.219 121.545V119.545H857.219V121.545H859.219ZM876.989 172.81H874.989V174.81H876.989V172.81ZM876.989 159.003V157.003H874.989V159.003H876.989ZM876.989 148.009H874.989V150.009H876.989V148.009ZM876.989 135.48V133.48H874.989V135.48H876.989ZM859.219 189H890.028V185H859.219V189ZM890.028 189C897.491 189 903.73 186.961 908.142 183.312C912.584 179.637 915.04 174.434 915.04 168.463H911.04C911.04 173.262 909.101 177.328 905.593 180.229C902.055 183.155 896.788 185 890.028 185V189ZM915.04 168.463C915.04 158.05 907.278 151.224 897.903 150.868L897.751 154.865C905.186 155.148 911.04 160.403 911.04 168.463H915.04ZM899.827 152.866V152.227H895.827V152.866H899.827ZM898.216 154.189C906.587 152.529 912.483 146.222 912.483 137.909H908.483C908.483 144.042 904.215 148.921 897.438 150.265L898.216 154.189ZM912.483 137.909C912.483 132.329 910.232 127.624 905.838 124.379C901.522 121.191 895.326 119.545 887.599 119.545V123.545C894.83 123.545 900.076 125.096 903.462 127.597C906.771 130.041 908.483 133.518 908.483 137.909H912.483ZM887.599 119.545H859.219V123.545H887.599V119.545ZM857.219 121.545V187H861.219V121.545H857.219ZM878.989 172.81V159.003H874.989V172.81H878.989ZM876.989 161.003H885.554V157.003H876.989V161.003ZM885.554 161.003C887.969 161.003 889.639 161.577 890.667 162.41C891.635 163.195 892.247 164.38 892.247 166.162H896.247C896.247 163.342 895.214 160.947 893.186 159.303C891.216 157.707 888.54 157.003 885.554 157.003V161.003ZM892.247 166.162C892.247 167.852 891.705 168.861 890.816 169.526C889.821 170.27 888.089 170.81 885.298 170.81V174.81C888.484 174.81 891.226 174.214 893.212 172.729C895.303 171.165 896.247 168.85 896.247 166.162H892.247ZM885.298 170.81H876.989V174.81H885.298V170.81ZM878.989 148.009V135.48H874.989V148.009H878.989ZM876.989 137.48H884.531V133.48H876.989V137.48ZM884.531 137.48C886.424 137.48 887.869 137.963 888.793 138.681C889.659 139.355 890.202 140.332 890.202 141.744H894.202C894.202 139.129 893.114 136.974 891.248 135.523C889.439 134.116 887.049 133.48 884.531 133.48V137.48ZM890.202 141.744C890.202 143.153 889.663 144.122 888.778 144.794C887.829 145.516 886.318 146.009 884.276 146.009V150.009C886.899 150.009 889.351 149.383 891.199 147.979C893.11 146.526 894.202 144.363 894.202 141.744H890.202ZM884.276 146.009H876.989V150.009H884.276V146.009ZM1023.21 173.577L1025.21 173.63L1025.26 171.577H1023.21V173.577ZM1012.6 173.577H1010.6V175.577H1012.6V173.577ZM1012.6 121.545H1014.6V119.545H1012.6V121.545ZM995.21 121.545V119.545H993.21V121.545H995.21ZM995.21 173.321V175.321H997.21V173.321H995.21ZM972.326 173.321H970.326V175.321H972.326V173.321ZM972.326 121.545H974.326V119.545H972.326V121.545ZM955.195 121.545V119.545H953.195V121.545H955.195ZM955.195 187H953.195V189H955.195V187ZM1005.95 187H1007.95V185H1005.95V187ZM1005.95 202.469H1003.95V204.469H1005.95V202.469ZM1022.44 202.469V204.469H1024.39L1024.44 202.522L1022.44 202.469ZM1023.21 171.577H1012.6V175.577H1023.21V171.577ZM1014.6 173.577V121.545H1010.6V173.577H1014.6ZM1012.6 119.545H995.21V123.545H1012.6V119.545ZM993.21 121.545V173.321H997.21V121.545H993.21ZM995.21 171.321H972.326V175.321H995.21V171.321ZM974.326 173.321V121.545H970.326V173.321H974.326ZM972.326 119.545H955.195V123.545H972.326V119.545ZM953.195 121.545V187H957.195V121.545H953.195ZM955.195 189H1005.95V185H955.195V189ZM1003.95 187V202.469H1007.95V187H1003.95ZM1005.95 204.469H1022.44V200.469H1005.95V204.469ZM1024.44 202.522L1025.21 173.63L1021.21 173.524L1020.44 202.416L1024.44 202.522ZM1029.2 121.545V119.545H1027.2V121.545H1029.2ZM1029.2 187H1027.2V189H1029.2V187ZM1044.03 187V189H1045.08L1045.68 188.133L1044.03 187ZM1067.68 152.611V150.611H1066.63L1066.03 151.477L1067.68 152.611ZM1068.06 152.611H1070.06V150.611H1068.06V152.611ZM1068.06 187H1066.06V189H1068.06V187ZM1085.83 187V189H1087.83V187H1085.83ZM1085.83 121.545H1087.83V119.545H1085.83V121.545ZM1070.75 121.545V119.545H1069.69L1069.09 120.422L1070.75 121.545ZM1047.48 155.807V157.807H1048.54L1049.14 156.93L1047.48 155.807ZM1046.97 155.807H1044.97V157.807H1046.97V155.807ZM1046.97 121.545H1048.97V119.545H1046.97V121.545ZM1027.2 121.545V187H1031.2V121.545H1027.2ZM1029.2 189H1044.03V185H1029.2V189ZM1045.68 188.133L1069.33 153.744L1066.03 151.477L1042.38 185.867L1045.68 188.133ZM1067.68 154.611H1068.06V150.611H1067.68V154.611ZM1066.06 152.611V187H1070.06V152.611H1066.06ZM1068.06 189H1085.83V185H1068.06V189ZM1087.83 187V121.545H1083.83V187H1087.83ZM1085.83 119.545H1070.75V123.545H1085.83V119.545ZM1069.09 120.422L1045.83 154.683L1049.14 156.93L1072.4 122.669L1069.09 120.422ZM1047.48 153.807H1046.97V157.807H1047.48V153.807ZM1048.97 155.807V121.545H1044.97V155.807H1048.97ZM1046.97 119.545H1029.2V123.545H1046.97V119.545ZM1122.75 181.631H1124.75V179.631H1122.75V181.631ZM1122.75 189.685H1120.75V191.685H1122.75V189.685ZM1139.37 189.685V191.685H1141.37V189.685H1139.37ZM1139.37 181.631V179.631H1137.37V181.631H1139.37ZM1139.37 128.065H1137.37V130.065H1139.37V128.065ZM1139.37 120.395H1141.37V118.395H1139.37V120.395ZM1122.75 120.395V118.395H1120.75V120.395H1122.75ZM1122.75 128.065V130.065H1124.75V128.065H1122.75ZM1122.75 142.639H1124.75V140.639H1122.75V142.639ZM1122.75 167.057V169.057H1124.75V167.057H1122.75ZM1139.37 142.639V140.639H1137.37V142.639H1139.37ZM1139.37 167.057H1137.37V169.057H1139.37V167.057ZM1122.36 126.065C1113.76 126.065 1106.15 128.827 1100.67 133.957C1095.18 139.1 1091.98 146.487 1091.98 155.423H1095.98C1095.98 147.485 1098.8 141.192 1103.4 136.876C1108.03 132.545 1114.61 130.065 1122.36 130.065V126.065ZM1091.98 155.423C1091.98 164.054 1095.12 171.165 1100.6 176.101C1106.06 181.017 1113.66 183.631 1122.36 183.631V179.631C1114.45 179.631 1107.86 177.259 1103.28 173.13C1098.72 169.021 1095.98 163.029 1095.98 155.423H1091.98ZM1122.36 183.631H1122.75V179.631H1122.36V183.631ZM1120.75 181.631V189.685H1124.75V181.631H1120.75ZM1122.75 191.685H1139.37V187.685H1122.75V191.685ZM1141.37 189.685V181.631H1137.37V189.685H1141.37ZM1139.37 183.631H1139.88V179.631H1139.37V183.631ZM1139.88 183.631C1148.53 183.631 1156.1 180.979 1161.53 176.067C1166.98 171.136 1170.13 164.061 1170.13 155.551H1166.13C1166.13 163.021 1163.4 168.986 1158.85 173.1C1154.28 177.233 1147.72 179.631 1139.88 179.631V183.631ZM1170.13 155.551C1170.13 146.629 1167.01 139.212 1161.57 134.032C1156.14 128.862 1148.55 126.065 1139.88 126.065V130.065C1147.69 130.065 1154.24 132.574 1158.81 136.929C1163.37 141.272 1166.13 147.598 1166.13 155.551H1170.13ZM1139.88 126.065H1139.37V130.065H1139.88V126.065ZM1141.37 128.065V120.395H1137.37V128.065H1141.37ZM1139.37 118.395H1122.75V122.395H1139.37V118.395ZM1120.75 120.395V128.065H1124.75V120.395H1120.75ZM1122.75 126.065H1122.36V130.065H1122.75V126.065ZM1122.36 144.639H1122.75V140.639H1122.36V144.639ZM1120.75 142.639V167.057H1124.75V142.639H1120.75ZM1122.75 165.057H1122.36V169.057H1122.75V165.057ZM1122.36 165.057C1119.45 165.057 1116.89 164.353 1115.09 162.898C1113.36 161.5 1112.09 159.205 1112.09 155.423H1108.09C1108.09 160.207 1109.76 163.729 1112.57 166.006C1115.31 168.226 1118.88 169.057 1122.36 169.057V165.057ZM1112.09 155.423C1112.09 151.171 1113.36 148.573 1115.08 147.013C1116.83 145.42 1119.36 144.639 1122.36 144.639V140.639C1118.72 140.639 1115.11 141.585 1112.39 144.05C1109.64 146.549 1108.09 150.343 1108.09 155.423H1112.09ZM1139.37 144.639H1140.01V140.639H1139.37V144.639ZM1140.01 144.639C1142.92 144.639 1145.33 145.436 1147.01 147.042C1148.67 148.628 1149.89 151.271 1149.89 155.551H1153.89C1153.89 150.499 1152.43 146.686 1149.78 144.15C1147.14 141.632 1143.61 140.639 1140.01 140.639V144.639ZM1149.89 155.551C1149.89 159.175 1148.73 161.451 1147.09 162.855C1145.41 164.303 1142.95 165.057 1140.01 165.057V169.057C1143.58 169.057 1147.07 168.149 1149.7 165.889C1152.38 163.586 1153.89 160.109 1153.89 155.551H1149.89ZM1140.01 165.057H1139.37V169.057H1140.01V165.057ZM1141.37 167.057V142.639H1137.37V167.057H1141.37ZM1176.33 187H1174.33V189H1176.33V187ZM1194.1 187V189H1196.1V187H1194.1ZM1194.1 167.568V165.568H1192.1V167.568H1194.1ZM1176.33 121.545V119.545H1174.33V121.545H1176.33ZM1194.1 153.761H1192.1V155.761H1194.1V153.761ZM1194.1 135.736V133.736H1192.1V135.736H1194.1ZM1176.33 189H1194.1V185H1176.33V189ZM1196.1 187V167.568H1192.1V187H1196.1ZM1194.1 169.568H1203.94V165.568H1194.1V169.568ZM1203.94 169.568C1211.79 169.568 1218.54 167.254 1223.35 162.894C1228.18 158.514 1230.87 152.231 1230.87 144.685H1226.87C1226.87 151.233 1224.56 156.392 1220.66 159.93C1216.74 163.488 1211.02 165.568 1203.94 165.568V169.568ZM1230.87 144.685C1230.87 137.232 1228.25 130.902 1223.56 126.44C1218.87 121.987 1212.28 119.545 1204.58 119.545V123.545C1211.43 123.545 1216.98 125.706 1220.8 129.339C1224.62 132.963 1226.87 138.202 1226.87 144.685H1230.87ZM1204.58 119.545H1176.33V123.545H1204.58V119.545ZM1174.33 121.545V187H1178.33V121.545H1174.33ZM1196.1 153.761V135.736H1192.1V153.761H1196.1ZM1194.1 137.736H1200.36V133.736H1194.1V137.736ZM1200.36 137.736C1203.14 137.736 1205.1 138.475 1206.35 139.591C1207.57 140.681 1208.33 142.336 1208.33 144.685H1212.33C1212.33 141.408 1211.23 138.589 1209.02 136.611C1206.84 134.659 1203.82 133.736 1200.36 133.736V137.736ZM1208.33 144.685C1208.33 147.017 1207.57 148.715 1206.33 149.846C1205.08 150.995 1203.12 151.761 1200.36 151.761V155.761C1203.84 155.761 1206.86 154.786 1209.04 152.795C1211.23 150.786 1212.33 147.945 1212.33 144.685H1208.33ZM1200.36 151.761H1194.1V155.761H1200.36V151.761ZM1244.22 187V189H1245.71L1246.13 187.576L1244.22 187ZM1247.99 174.472V172.472H1246.5L1246.08 173.895L1247.99 174.472ZM1269.6 174.472L1271.51 173.895L1271.08 172.472H1269.6V174.472ZM1273.37 187L1271.45 187.576L1271.88 189H1273.37V187ZM1292.54 187V189H1295.31L1294.44 186.373L1292.54 187ZM1270.94 121.545L1272.84 120.919L1272.38 119.545H1270.94V121.545ZM1246.65 121.545V119.545H1245.2L1244.75 120.919L1246.65 121.545ZM1225.04 187L1223.14 186.373L1222.28 189H1225.04V187ZM1252.02 161.176L1250.1 160.598L1249.33 163.176H1252.02V161.176ZM1258.54 139.571V137.571H1257.05L1256.62 138.993L1258.54 139.571ZM1259.05 139.571L1260.96 138.993L1260.53 137.571H1259.05V139.571ZM1265.57 161.176V163.176H1268.26L1267.48 160.598L1265.57 161.176ZM1246.13 187.576L1249.91 175.048L1246.08 173.895L1242.3 186.424L1246.13 187.576ZM1247.99 176.472H1269.6V172.472H1247.99V176.472ZM1267.68 175.048L1271.45 187.576L1275.28 186.424L1271.51 173.895L1267.68 175.048ZM1273.37 189H1292.54V185H1273.37V189ZM1294.44 186.373L1272.84 120.919L1269.04 122.172L1290.64 187.627L1294.44 186.373ZM1270.94 119.545H1246.65V123.545H1270.94V119.545ZM1244.75 120.919L1223.14 186.373L1226.94 187.627L1248.55 122.172L1244.75 120.919ZM1225.04 189H1244.22V185H1225.04V189ZM1253.93 161.754L1260.45 140.149L1256.62 138.993L1250.1 160.598L1253.93 161.754ZM1258.54 141.571H1259.05V137.571H1258.54V141.571ZM1257.13 140.149L1263.65 161.754L1267.48 160.598L1260.96 138.993L1257.13 140.149ZM1265.57 159.176H1252.02V163.176H1265.57V159.176ZM1317.9 121.545L1319.64 120.563L1319.06 119.545H1317.9V121.545ZM1297.95 121.545V119.545H1294.44L1296.23 122.567L1297.95 121.545ZM1317.38 154.273L1319.09 155.318L1319.72 154.289L1319.1 153.252L1317.38 154.273ZM1297.31 187L1295.61 185.954L1293.74 189H1297.31V187ZM1317.51 187V189H1318.67L1319.25 187.994L1317.51 187ZM1328.63 167.568V165.568H1327.47L1326.9 166.575L1328.63 167.568ZM1329.15 167.568L1330.88 166.575L1330.31 165.568H1329.15V167.568ZM1340.27 187L1338.53 187.994L1339.11 189H1340.27V187ZM1360.59 187V189H1364.19L1362.29 185.945L1360.59 187ZM1340.27 154.273L1338.55 153.247L1337.93 154.293L1338.57 155.328L1340.27 154.273ZM1359.83 121.545L1361.54 122.571L1363.35 119.545H1359.83V121.545ZM1340.01 121.545V119.545H1338.85L1338.28 120.554L1340.01 121.545ZM1329.15 140.594V142.594H1330.31L1330.88 141.585L1329.15 140.594ZM1328.63 140.594L1326.89 141.576L1327.47 142.594H1328.63V140.594ZM1317.9 119.545H1297.95V123.545H1317.9V119.545ZM1296.23 122.567L1315.66 155.294L1319.1 153.252L1299.67 120.524L1296.23 122.567ZM1315.68 153.227L1295.61 185.954L1299.02 188.046L1319.09 155.318L1315.68 153.227ZM1297.31 189H1317.51V185H1297.31V189ZM1319.25 187.994L1330.37 168.562L1326.9 166.575L1315.78 186.006L1319.25 187.994ZM1328.63 169.568H1329.15V165.568H1328.63V169.568ZM1327.41 168.562L1338.53 187.994L1342 186.006L1330.88 166.575L1327.41 168.562ZM1340.27 189H1360.59V185H1340.27V189ZM1362.29 185.945L1341.97 153.218L1338.57 155.328L1358.9 188.055L1362.29 185.945ZM1341.98 155.299L1361.54 122.571L1358.11 120.519L1338.55 153.247L1341.98 155.299ZM1359.83 119.545H1340.01V123.545H1359.83V119.545ZM1338.28 120.554L1327.41 139.603L1330.88 141.585L1341.75 122.536L1338.28 120.554ZM1329.15 138.594H1328.63V142.594H1329.15V138.594ZM1330.38 139.612L1319.64 120.563L1316.15 122.528L1326.89 141.576L1330.38 139.612Z" fill="#222222" fill-opacity="0.15"/>
</svg>
