<svg width="76" height="71" viewBox="0 0 76 71" fill="none" xmlns="http://www.w3.org/2000/svg">
<path fill-rule="evenodd" clip-rule="evenodd" d="M38.1582 43.4267C37.9248 43.4267 37.6903 43.3753 37.4782 43.2782C20.5176 35.4545 17.4562 18.1808 16.9224 13.073C16.7999 11.906 17.4412 10.8129 18.5169 10.353C21.858 8.92372 24.1071 5.78372 24.3867 2.15842C24.4746 1.01046 25.4053 0.139812 26.5509 0.133457L49.2756 0H49.2889C50.412 0 51.3653 0.869493 51.4629 1.9851C51.7795 5.60924 54.0622 8.72671 57.42 10.1208C58.5067 10.5714 59.1642 11.6587 59.0556 12.8263C58.5818 17.9399 55.7232 35.2477 38.8556 43.2696C38.643 43.3712 38.4049 43.4256 38.1675 43.4267H38.1582ZM26.5966 2.35139C26.2459 6.79476 23.486 10.6407 19.3893 12.3924C19.2131 12.4681 19.108 12.649 19.1282 12.8425C19.6297 17.6296 22.4785 33.7571 38.1542 41.1452C53.7404 33.5728 56.402 17.4141 56.8469 12.6218C56.8648 12.4277 56.7533 12.2463 56.5696 12.1694C52.4578 10.4628 49.6587 6.65206 49.256 2.21851L26.5966 2.35139ZM38.4096 26.1675C38.0346 26.7331 37.2143 26.8278 36.7209 26.3593C36.7168 26.3558 32.0649 21.939 32.0655 21.939C31.6212 21.5173 31.6027 20.8153 32.0245 20.3711C32.4468 19.9268 33.1487 19.9083 33.593 20.33L37.2899 23.8404L43.9432 13.7993C44.2817 13.2892 44.9704 13.1494 45.4805 13.4873C45.9912 13.8259 46.131 14.5145 45.7925 15.0253L38.4096 26.1675ZM22.1595 18.543C22.2935 19.0364 22.9192 19.4882 23.5212 19.3224C24.1117 19.1595 24.4612 18.5523 24.3006 17.9613C24.0181 16.9202 23.7806 15.8646 23.594 14.8189C26.6075 12.8552 28.8439 9.92436 29.941 6.50127L45.9605 6.4071C47.0975 9.81632 49.368 12.7218 52.4045 14.6497C52.2306 15.6983 52.0053 16.7572 51.7344 17.8024C51.5807 18.3957 51.9371 19.0012 52.5299 19.1549C53.1238 19.3085 53.7287 18.9521 53.8824 18.3587C54.2001 17.1316 54.459 15.886 54.6508 14.6566C54.7582 13.9697 54.4439 13.2943 53.8512 12.9361C51.0226 11.2277 48.9318 8.54761 47.9641 5.3897C47.7462 4.67966 47.0767 4.18628 46.3337 4.18628H46.3233L29.5516 4.28449C28.804 4.28911 28.135 4.79232 27.9253 5.50756C26.9951 8.67645 24.9355 11.3808 22.1271 13.1227C21.5384 13.4873 21.2328 14.1661 21.3478 14.8525C21.5546 16.079 21.8273 17.3205 22.1595 18.543ZM50.1907 22.4328C50.4247 21.8666 51.0729 21.5963 51.6391 21.8308C52.2058 22.0642 52.4756 22.7125 52.2417 23.2786C49.4443 30.059 44.976 35.1985 38.9607 38.5546C38.7007 38.6996 38.4153 38.7718 38.1293 38.7718C37.8502 38.7718 37.5706 38.7031 37.3153 38.5638C31.2542 35.2748 26.7225 30.1797 23.8459 23.4213C23.6062 22.858 23.8684 22.2064 24.4323 21.9666C24.9956 21.7268 25.6473 21.9891 25.8876 22.5524C28.5233 28.7458 32.6402 33.4295 38.1258 36.4782C43.5693 33.3694 47.6273 28.6458 50.1907 22.4328ZM7.25435 56.7601C5.09073 56.7601 3.32979 58.5205 3.32979 60.6847C3.32979 62.8489 5.09073 64.6093 7.25435 64.6093C9.41855 64.6093 11.1795 62.8489 11.1795 60.6847C11.1795 58.5205 9.41913 56.7601 7.25435 56.7601ZM7.25435 62.3908C6.3138 62.3908 5.5483 61.6258 5.5483 60.6847C5.5483 59.7441 6.3138 58.9786 7.25435 58.9786C8.19548 58.9786 8.96099 59.7441 8.96099 60.6847C8.96099 61.6258 8.19548 62.3908 7.25435 62.3908ZM68.6851 44.6666C70.7817 43.2581 73.6444 43.8115 75.0662 45.9006C76.3661 47.8106 76.0432 50.4075 74.3157 51.9414L59.658 65.1248C59.6447 65.1363 59.6314 65.1479 59.6175 65.1595C58.0964 66.3998 56.2678 67.2197 54.3289 67.5287C54.3264 67.5293 54.324 67.5297 54.3217 67.5302C54.3186 67.5308 54.3155 67.5313 54.3122 67.5316C54.3122 67.5316 31.6228 70.8028 31.617 70.8034C29.5776 70.9957 28.4683 70.5809 28.4383 70.5694L14.7794 65.3969V66.1844C14.7794 67.6403 13.5945 68.8252 12.1386 68.8252H2.77755C1.32166 68.8252 0.136719 67.6403 0.136719 66.1844V37.6032C0.136719 36.1473 1.32166 34.9623 2.77755 34.9623H12.1386C13.5951 34.9623 14.7794 36.1467 14.7794 37.6032V40.5051C17.5456 40.6114 20.2685 41.3937 22.6852 42.7797C27.3348 45.4465 29.027 45.9324 29.5556 46.015L45.1811 47.3842C45.2007 47.386 45.2198 47.3883 45.2394 47.3912C48.328 47.8279 50.7008 50.3012 51.0093 53.4054L51.0884 54.1981L54.1839 54.372L68.6851 44.6666ZM58.1951 63.4569L72.8373 50.2874C73.7386 49.4872 73.9061 48.1399 73.2319 47.1485C72.4941 46.0647 71.0088 45.7781 69.9209 46.509L55.1089 56.4218C54.909 56.5558 54.6704 56.6217 54.43 56.6078L50.0808 56.3634C50.0808 56.3634 28.3851 57.7858 27.6999 57.7142C26.4306 57.5824 25.2821 56.9984 24.4681 56.022C24.0752 55.5517 24.1388 54.8521 24.6096 54.4598C25.0799 54.0669 25.7795 54.1305 26.1718 54.6013C26.6069 55.1224 27.2193 55.4431 27.8975 55.5043L27.9391 55.5078L48.8607 54.216L48.8017 53.625C48.5955 51.5509 47.016 49.8962 44.9557 49.5918L29.3286 48.2225C29.3223 48.2218 29.316 48.2211 29.3098 48.2204C29.2966 48.219 29.2836 48.2176 29.2702 48.2156C28.7555 48.1428 27.1892 47.921 21.5811 44.7047C19.5001 43.5105 17.1591 42.8311 14.7794 42.726V45.346C14.7794 45.9584 14.2832 46.4552 13.6702 46.4552C13.0578 46.4552 12.5609 45.959 12.5609 45.346V37.6032C12.5609 37.3703 12.3714 37.1808 12.1386 37.1808H2.77755C2.54472 37.1808 2.35523 37.3703 2.35523 37.6032V66.1844C2.35523 66.4172 2.54472 66.6067 2.77755 66.6067H12.1386C12.3714 66.6067 12.5609 66.4172 12.5609 66.1844V50.3567C12.5609 49.7437 13.0572 49.2474 13.6702 49.2474C14.2826 49.2474 14.7794 49.7437 14.7794 50.3567V63.0247L29.1772 68.4768C29.893 68.6727 30.5996 68.7177 31.2778 68.6108L31.2888 68.6091C31.2958 68.608 31.3033 68.6068 31.3085 68.6062L53.9869 65.3368C55.5283 65.0895 56.9831 64.4396 58.1951 63.4569Z" fill="#FF0000"/>
</svg>
