<svg width="47" height="49" viewBox="0 0 47 49" fill="none" xmlns="http://www.w3.org/2000/svg">
<path d="M45.1 11.8123C44.4 11.1123 43.5 10.9123 42.6 11.2123C42.2 11.3123 41.9 11.6123 40.8 12.7123L40.4 13.1123C40.4 13.1123 40.1 13.4123 39.7 13.8123L39.5 14.0123C39.1 14.4123 38.6 14.9123 38.1 15.5123L37.9 15.7123L37.8 15.8123L37.7 15.9123C37.7 15.9123 37.7 15.9123 37.6 16.0123L37 16.7123C36.7 17.0123 36.5 17.2123 36.3 17.4123C36 17.7123 35.8 17.9123 35.8 17.9123L35 18.7123L34.7 18.6123C33.9 18.3123 32.8 18.5123 32 19.0123C31.8 19.1123 30.4 20.5123 29.5 21.4123C28.2 22.7123 27.7 23.2123 27.5 23.3123C27.5 23.1123 27.4 22.9123 27.3 22.6123L27.1 22.0123L27.6 21.5123C27.9 21.2123 28.3 20.8123 28.5 20.5123C28.7 20.2123 28.9 20.1123 29 20.1123C30.1 19.9123 31.6 18.7123 32.1 17.5123C32.7 16.3123 32.7 16.1123 32.6 11.4123V7.11228L32.3 6.31228C32 5.21228 31.5 4.41228 30.6 3.61228C29.7 2.71228 29 2.21228 27.9 1.91228L27.2 1.71228H23.3C21.4 1.71228 19.3 1.71228 19 1.81228C18 1.91228 16.9 2.51228 15.9 3.61228C15.1 4.41228 14.6 5.21228 14.2 6.31228C14 7.01228 14 7.31228 13.9 9.01228V10.8123L12.8 11.3123C11.4 12.0123 10.8 12.5123 10.4 13.2123C9.9 13.9123 9.7 14.7123 9.6 15.7123V16.4123H9.4C8.9 16.5123 8.4 16.8123 8.1 17.2123C7.8 17.5123 1.8 27.2123 1.5 27.9123C1.1 28.6123 1 29.2123 1 30.2123C1 30.9123 1 31.3123 1.2 31.8123C1.7 33.4123 3 34.8123 4.6 35.4123C5.2 35.6123 5.4 35.6123 8.9 35.6123H12.4V47.3123H41.5L41.4 32.8123L41.2 32.0123C40.7 30.3123 40 28.8123 38.9 27.6123C38.4 27.0123 37.3 26.1123 36.8 25.8123C36.9 25.7123 37 25.5123 37.3 25.2123C37.7 24.8123 38.1 24.2123 38.2 24.0123C38.5 23.5123 38.6 22.7123 38.4 22.2123L38.3 21.9123L42 18.5123C45.2 15.3123 45.6 14.8123 45.7 14.4123C46 13.5123 45.8 12.5123 45.1 11.8123ZM27.3 25.4123L27.6 25.5123C27.7 25.5123 27.8 25.5123 27.9 25.6123L28.2 25.7123V27.1123C28.2 27.6123 28.2 28.1123 28.2 28.3123V30.3123V30.4123C28.2 30.5123 28.1 30.7123 28 30.8123L27.8 31.0123H18.8L18.6 30.8123C18.5 30.7123 18.4 30.5123 18.4 30.4123V26.3123C18.4 25.6123 18.4 25.6123 18.7 25.5123C18.7 25.5123 18.8 25.5123 18.9 25.5123C19.2 25.4123 19.4 25.4123 19.7 25.4123C19.9 25.4123 20.1 25.4123 20.3 25.3123H20.4L20.9 23.2123V23.1123C20.9 22.9123 21 22.8123 21 22.7123C21.2 22.8123 21.5 22.8123 21.7 22.9123C22.7 23.2123 24.6 23.1123 25.6 22.7123C25.7 22.8123 25.7 23.1123 25.8 23.2123L26.3 25.1123H26.4C26.7 25.3123 27.1 25.4123 27.3 25.4123ZM28.2 14.7123C28.2 17.4123 28.2 17.4123 28 18.0123C27.7 18.8123 27.4 19.3123 26.8 19.9123C25.6 21.1123 24 21.6123 22.3 21.3123C20.6 20.9123 19.3 19.6123 18.7 17.9123C18.6 17.6123 18.5 16.9123 18.5 15.9123C18.4 14.6123 18.4 14.2123 18.3 14.0123L18.2 13.8123L18.5 13.6123C19 13.2123 19.4 12.8123 19.6 12.4123L19.7 12.2123H28.3L28.2 14.7123ZM31.1 16.0123L30.8 16.5123C30.6 16.9123 30.3 17.2123 30.1 17.5123C30 17.6123 29.9 17.7123 29.9 17.7123C29.9 17.6123 29.9 17.5123 29.9 17.5123C30 17.2123 30 15.8123 30 14.5123V12.2123H31.1V16.0123ZM31.1 10.4123H20.1C19.8 10.4123 19.8 10.4123 19.8 10.3123C19.7 10.0123 19.3 9.51228 18.9 9.21228H31.1V10.4123ZM16.4 5.71228C17.1 4.61228 18.1 3.91228 19.3 3.61228C19.9 3.41228 20.2 3.41228 23.6 3.41228H27.3L27.9 3.61228C29.1 4.11228 29.8 4.71228 30.4 5.71228C30.7 6.21228 31 7.01228 31 7.41228C30.6 7.41228 28.5 7.51228 23.4 7.51228C18 7.51228 16.1 7.51228 15.7 7.41228C15.8 7.01228 16.1 6.21228 16.4 5.71228ZM15.6 9.21228H16.5H16.8C16.6 9.31228 16.4 9.41228 16.2 9.51228L15.6 9.81228V9.21228ZM11.3 15.9123C11.3 14.9123 11.6 14.3123 12.1 13.8123C12.4 13.5123 17.5 10.8123 17.9 10.7123C17.9 10.7123 18 10.7123 18.1 10.8123C18.2 10.9123 18.2 11.3123 18 11.6123C17.9 11.7123 17 12.4123 15.7 13.3123C13.5 14.9123 13.5 14.9123 13.5 15.0123C13.5 15.0123 14.2 16.3123 14.4 16.3123C14.5 16.3123 14.5 16.3123 15.7 15.4123C16.2 15.0123 16.5 14.8123 16.7 14.7123C16.7 14.8123 16.7 14.8123 16.7 14.9123C16.7 15.2123 16.5 15.4123 15.2 16.7123L13.8 18.1123L11.2 16.5123L11.3 15.9123ZM16.9 17.8123C16.9 17.8123 16.9 17.7123 16.9 17.8123C16.9 17.7123 16.9 17.7123 16.9 17.8123C16.9 17.7123 16.9 17.7123 16.9 17.8123ZM12.5 33.9123H7.1C5.9 33.9123 5.2 33.8123 4.7 33.5123L4.5 33.4123L2.9 31.5123C2.6 30.7123 2.7 29.3123 3 28.7123L3.8 27.3123L5.1 25.1123C5.6 24.2123 6.1 23.4123 6.2 23.3123L7.1 21.9123C7.2 21.7123 9.1 18.6123 9.3 18.4123C9.7 18.0123 9.9 17.9123 11.5 18.9123C12.3 19.4123 12.9 19.8123 13 19.9123C13.2 20.1123 13.3 20.4123 12.9 21.1123L11.5 23.5123C11.4 23.6123 10.9 24.5123 10.4 25.4123C10.1 25.9123 9.8 26.4123 9.6 26.7123C9.4 26.9123 9.4 27.1123 9.3 27.2123L8.4 28.5123C8.4 28.5123 8.2 28.9123 8 29.3123L7.5 30.2123L8.2 30.5123C8.6 30.8123 8.8 30.9123 8.9 30.8123C9 30.8123 9.1 30.7123 9.1 30.7123C9.2 30.6123 10 29.4123 10.3 28.7123C10.9 27.7123 11.4 26.9123 11.5 26.9123C11.5 26.9123 11.8 26.8123 12.1 26.8123L12.5 26.7123V33.9123ZM13.6 23.2123C14.8 21.3123 14.9 20.9123 14.8 20.2123C14.8 19.8123 14.8 19.8123 15.2 19.4123C15.4 19.2123 15.5 19.1123 15.6 19.0123C15.7 19.0123 15.8 19.1123 15.8 19.2123H15.9C16.3 19.5123 17.4 20.0123 17.7 20.0123C17.8 20.0123 17.9 20.2123 18.1 20.4123C18.3 20.7123 18.7 21.1123 19 21.4123L19.5 21.9123L19.3 22.8123C19.2 23.2123 19.1 23.5123 19.1 23.7123C18.4 23.8123 13.8 24.6123 12.8 24.7123C12.9 24.5123 13.1 24.1123 13.6 23.2123ZM32.6 45.6123H14.2V36.0123C14.2 30.7123 14.2 27.0123 14.2 26.3123C14.7 26.2123 16.5 25.9123 16.7 25.9123H16.8V28.2123C16.8 30.0123 16.8 30.8123 16.9 31.1123C17 31.6123 17.8 32.4123 18.4 32.6123C19 32.8123 27.9 32.8123 28.4 32.6123C28.9 32.4123 29.7 31.7123 29.9 31.1123C30 30.8123 30 29.9123 30 28.2123V25.9123H30.1C30.2 25.9123 30.9 26.0123 31.5 26.1123L32.6 26.3123V45.6123ZM38.1 29.5123L39.1 31.2123L39.3 31.6123C39.4 31.8123 39.5 32.1123 39.5 32.3123L39.8 34.0123V45.6123H34.3V26.8123C34.4 26.8123 34.7 27.0123 35.1 27.2123C35.4 27.4123 36 27.6123 36.3 27.9123C36.9 28.2123 37.9 29.3123 38.1 29.5123ZM36.8 23.4123L35 25.2123L34.8 25.1123C34.6 25.0123 34.3 24.9123 33.9 24.9123C33.8 24.9123 33.8 24.9123 33.7 24.9123C33.7 24.9123 33.7 24.9123 33.6 24.9123H33.5C32.9 24.7123 31.1 24.5123 30.4 24.4123L30 24.3123L29.6 24.2123C29.4 24.2123 29.3 24.1123 29.2 24.1123C29.3 24.0123 29.4 23.9123 29.5 23.8123L30.9 22.3123L31.1 22.1123L31.5 21.7123L33.1 20.4123C33.5 20.3123 33.7 20.3123 34.1 20.4123C34.4 20.5123 34.6 20.7123 35.6 21.6123L36.6 22.7123V23.4123H36.8ZM43.8 14.1123L43.6 14.4123L42.4 15.7123L42.3 15.8123L37.5 20.7123L36.6 19.8123L39 17.3123C40.2 16.0123 41.2 15.1123 41.5 14.8123L42.7 13.5123L42.9 13.3123C43.4 12.8123 43.6 12.9123 43.9 13.2123C44.1 13.4123 44.2 13.7123 43.8 14.1123Z" fill="#ED1C24"/>
<path d="M38.0004 15.9124L37.9004 16.0124C37.9004 16.0124 37.9004 15.9124 38.0004 15.9124Z" fill="#ED1C24"/>
</svg>
