<svg width="47" height="49" viewBox="0 0 47 49" fill="none" xmlns="http://www.w3.org/2000/svg">
<path d="M22.5619 3.05812C22.6196 2.557 22.9707 2.0751 23.4981 2.08386C24.029 2.06816 24.3732 2.56394 24.4495 3.05812C27.2259 3.28059 29.8901 4.56843 31.8744 6.57816C33.7501 8.44946 35.0289 10.9602 35.4037 13.6305C35.6191 15.0042 35.497 16.4007 35.5512 17.7848C35.9887 18.2842 36.6977 18.7748 36.6519 19.5212C36.3416 20.0573 35.6191 19.77 35.1205 19.8488C34.8848 22.8362 33.6704 25.6712 31.966 28.0716C32.1407 29.3893 32.3154 30.7086 32.4815 32.028C33.5331 32.9058 34.7829 33.477 36.0226 34.0114C37.5151 34.6036 38.9211 35.4359 40.4848 35.8301C42.1129 36.2471 43.4832 37.5682 43.9937 39.2204C44.2176 39.8968 44.2463 40.6204 44.2378 41.33C44.2345 43.1996 44.2412 45.0708 44.2345 46.9404C30.4108 46.9386 16.5854 46.9439 2.76172 46.9386C2.78033 44.8379 2.74983 42.7352 2.77361 40.6362C2.79563 38.5231 4.25926 36.552 6.20454 35.9299C7.15593 35.6531 8.09719 35.3325 8.99431 34.9014C10.848 33.9746 12.8916 33.3842 14.5214 32.0332C14.6774 30.7051 14.8725 29.3839 15.0302 28.0558C13.3156 25.6607 12.125 22.8239 11.869 19.8401C11.3823 19.7665 10.4902 20.0923 10.3375 19.409C10.3817 18.6749 11.1278 18.2737 11.4551 17.6955C11.4925 16.5758 11.4178 15.4527 11.5162 14.3349C11.7214 11.8661 12.6932 9.47798 14.2331 7.5804C16.2801 5.01177 19.3414 3.30868 22.5619 3.05812ZM15.015 9.61811C13.6786 11.5997 13.1409 14.058 13.2783 16.4514C15.4236 15.2407 17.8455 14.6626 20.2605 14.4032C22.4703 14.1807 24.7005 14.1859 26.9103 14.4207C29.266 14.6923 31.6251 15.267 33.7213 16.4462C33.7416 15.5684 33.7365 14.6853 33.6009 13.8162C33.1837 11.0811 31.6556 8.56161 29.4916 6.93734C27.4497 5.37437 24.8175 4.63326 22.2906 4.97493C19.3634 5.32182 16.6532 7.10032 15.015 9.61811ZM20.4217 16.2657C18.3356 16.5058 16.2361 16.9666 14.3586 17.9706C20.4556 17.9706 26.5525 17.9775 32.6494 17.9671C31.1637 17.1874 29.5459 16.7107 27.9042 16.4445C25.4315 16.052 22.9113 16.0169 20.4217 16.2657ZM13.6921 19.8436C14.0602 23.4424 15.9206 26.7435 18.429 29.2123C19.7365 30.4545 21.2459 31.6057 23.0181 31.9824C24.5512 32.1787 25.9606 31.2833 27.1732 30.423C30.4244 27.8999 32.853 24.0663 33.3092 19.8436C26.7713 19.8384 20.2317 19.8401 13.6921 19.8436ZM16.6142 29.992C16.5142 30.7034 16.4311 31.4164 16.3243 32.1261C17.2248 33.1931 18.1423 34.2462 19.07 35.2904C19.7806 34.651 20.498 34.0202 21.2018 33.3719C19.455 32.6114 17.9286 31.3884 16.6142 29.992ZM25.7978 33.3771C26.5152 34.0131 27.2224 34.6631 27.9483 35.2904C28.859 34.2374 29.7749 33.1914 30.6788 32.1331C30.5685 31.4235 30.4871 30.7086 30.399 29.9955C29.071 31.3849 27.548 32.6096 25.7978 33.3771ZM9.53198 36.7027C8.63476 37.1442 7.6783 37.4228 6.73197 37.7224C5.52782 38.1219 4.62388 39.3292 4.5849 40.6415C4.56454 42.1186 4.57643 43.5955 4.58149 45.0743C9.68633 45.0533 14.7928 45.1006 19.8976 45.0499C19.8688 42.3813 19.884 39.7128 19.8891 37.0443C19.6009 37.2598 19.3176 37.584 18.9241 37.5384C18.5917 37.5296 18.3441 37.2809 18.1389 37.0391C17.201 35.9474 16.2496 34.8664 15.31 33.7766C13.5666 35.1082 11.462 35.7373 9.53198 36.7027ZM31.698 33.7784C30.6618 34.9541 29.6527 36.1594 28.5978 37.3194C28.128 37.7627 27.4921 37.4403 27.1088 37.0478C27.1343 39.7216 27.1037 42.3954 27.124 45.0708C32.2238 45.0726 37.3218 45.0656 42.4215 45.0743C42.4182 43.5955 42.4453 42.115 42.4113 40.6379C42.3757 39.2696 41.392 38.0343 40.1252 37.6734C38.8515 37.3159 37.6237 36.8148 36.4399 36.2138C34.8118 35.5094 33.1311 34.8699 31.698 33.7784ZM21.6902 35.4166C21.697 38.6353 21.6868 41.8522 21.6953 45.0708C22.8995 45.0708 24.1019 45.0708 25.3043 45.0726C25.3212 41.8557 25.3026 38.6388 25.3145 35.4236C24.7158 34.8857 24.1239 34.3408 23.5032 33.8309C22.8757 34.332 22.2956 34.8892 21.6902 35.4166Z" fill="#ED1C24"/>
</svg>
