<svg width="73" height="73" viewBox="0 0 73 73" fill="none" xmlns="http://www.w3.org/2000/svg">
<circle cx="36.5" cy="36.5" r="36.5" fill="white"/>
<path d="M35.8857 14.1692C38.0247 13.5703 40.4603 14.6076 41.5279 16.5482C42.4595 18.1354 42.3933 20.2328 41.3862 21.7691C40.3904 23.3638 38.4404 24.2765 36.5773 24.046C34.1851 23.8136 32.1651 21.6595 32.1255 19.2503C31.98 16.945 33.6447 14.7078 35.8857 14.1692ZM36.8021 16.0418C35.1752 16.1854 33.8979 17.835 34.1586 19.4468C34.3268 20.9736 35.8139 22.1904 37.3444 22.0601C38.8882 21.9882 40.2071 20.5881 40.175 19.0405C40.2241 17.3021 38.5311 15.7754 36.8021 16.0418Z" fill="#ED1C24"/>
<path d="M28.3766 25.2044C29.841 23.9818 32.014 23.7097 33.7297 24.5525C36.4545 25.8809 39.1566 27.2546 41.8738 28.598C43.427 27.3925 44.9613 26.1643 46.524 24.9739C47.4782 24.2407 48.8727 24.1821 49.8912 24.8151C51.006 25.4689 51.5937 26.8955 51.2422 28.1427C51.0759 28.8418 50.6243 29.4389 50.0593 29.8735C48.251 31.2812 46.4314 32.6757 44.625 34.0891C43.9976 34.6087 43.2871 35.1095 42.4425 35.1473C41.1841 35.2644 40.1543 34.4236 39.0583 33.9568C38.5538 33.6885 37.8509 33.5052 37.7243 32.859C37.5467 32.1372 38.3573 31.4116 39.0489 31.7196C40.0447 32.1334 40.9573 32.7286 41.9645 33.1179C42.4387 33.2634 42.8507 32.9157 43.2002 32.6455C45.1049 31.1433 47.0436 29.6808 48.9483 28.1786C49.4339 27.8252 49.4603 27.0373 49.005 26.6499C48.6252 26.2928 47.9997 26.3117 47.6218 26.6631C45.9552 27.9594 44.3 29.2707 42.6277 30.5594C42.297 30.8372 41.8171 30.8466 41.4486 30.6388C38.6218 29.231 35.7969 27.8177 32.9664 26.4156C31.9403 25.8733 30.6139 25.9904 29.7088 26.7198C28.558 27.6495 27.4432 28.6207 26.2981 29.5598C25.7237 29.9774 25.4931 30.8145 25.8446 31.4475C26.4417 32.6814 27.1484 33.8643 27.7096 35.1133C27.9458 35.8861 27.0596 36.6325 26.3397 36.281C25.7407 35.9768 25.6009 35.2436 25.2626 34.7164C24.7846 33.6885 24.1251 32.7381 23.7793 31.6516C23.4354 30.3856 23.887 28.9627 24.8866 28.1181C26.0411 27.1355 27.2089 26.17 28.3766 25.2044Z" fill="#ED1C24"/>
<path d="M29.8561 29.1535C30.4721 28.9627 31.1542 29.5201 31.0976 30.1606C30.7593 33.9398 30.4003 37.717 30.0318 41.4942C29.7031 44.3493 27.309 46.7926 24.4633 47.1818C22.929 47.3594 21.3758 47.1894 19.8358 47.2838C19.1725 47.3632 18.7984 48.2041 19.148 48.7634C19.3294 49.1243 19.7488 49.3 20.1381 49.2754C21.9748 49.2641 23.8114 49.2924 25.6462 49.2641C28.1461 49.2055 30.5628 47.8243 31.8912 45.7079C32.5468 44.6951 32.8605 43.5179 33.2554 42.3899C34.0963 39.9523 34.9182 37.5091 35.7667 35.0754C35.9216 34.5387 36.5622 34.1986 37.0837 34.4273C37.6071 34.6087 37.8716 35.253 37.6543 35.7575C36.6302 38.7714 35.6004 41.7814 34.5611 44.7915C33.4538 48.0151 30.5345 50.5358 27.171 51.1215C24.9111 51.4598 22.6134 51.2141 20.3384 51.2935C18.9911 51.3955 17.5947 50.5736 17.179 49.2622C16.5423 47.6258 17.6628 45.6229 19.3936 45.3206C20.9676 45.1241 22.5662 45.3489 24.1421 45.1921C26.1337 44.9332 27.804 43.2269 28.0365 41.2354C28.3917 37.5507 28.7299 33.8642 29.0833 30.1776C29.089 29.7128 29.3818 29.2499 29.8561 29.1535Z" fill="#ED1C24"/>
<path d="M37.9491 38.5405C38.5197 38.2495 39.0582 38.6935 39.5306 38.9656C40.8665 39.8065 42.3499 40.483 43.4193 41.6828C45.4563 43.8464 46.1498 47.1493 45.1615 49.9515C44.4737 51.894 43.8067 53.844 43.1038 55.7808C42.6125 57.1659 41.0404 58.0597 39.6024 57.7195C38.3685 57.4777 37.3387 56.4101 37.1819 55.1554C37.0591 54.4676 37.2783 53.7874 37.454 53.1279C37.8924 51.5671 38.3156 50.0007 38.7465 48.4361C38.9675 47.6973 38.8183 46.8357 38.2646 46.2782C37.5523 45.5583 36.4223 45.5508 35.6551 44.9291C35.0184 44.298 35.6362 43.1076 36.5187 43.2549C37.6184 43.6555 38.8315 43.9692 39.6648 44.8459C40.6757 45.8304 41.0857 47.3591 40.7437 48.7233C40.2562 50.6885 39.644 52.6215 39.1697 54.5904C39.0318 55.3273 39.8519 55.9849 40.5472 55.726C40.9913 55.6032 41.2161 55.1648 41.3389 54.7567C41.9776 52.8955 42.6541 51.0475 43.2909 49.1844C44.1185 46.7355 43.2039 43.835 41.1179 42.3064C40.0276 41.5317 38.8107 40.9553 37.7091 40.2014C37.1592 39.7706 37.3085 38.8031 37.9491 38.5405Z" fill="#ED1C24"/>
<path d="M49.7173 48.8635C52.3494 48.1436 55.3066 49.8536 56.019 52.4801C56.9127 55.2238 55.0836 58.4247 52.2738 59.0596C49.5264 59.8437 46.4257 57.9391 45.855 55.1482C45.1596 52.4518 47.002 49.4625 49.7173 48.8635ZM49.8911 50.9118C48.4154 51.3993 47.4706 53.0546 47.7937 54.5775C48.0847 56.3651 50.0744 57.6273 51.8166 57.0963C53.5134 56.6825 54.6188 54.7533 54.0973 53.081C53.6457 51.3294 51.586 50.2542 49.8911 50.9118Z" fill="#ED1C24"/>
</svg>