<svg width="47" height="49" viewBox="0 0 47 49" fill="none" xmlns="http://www.w3.org/2000/svg">
<path d="M24.8861 2.65163C24.4914 2.87663 24.4271 3.12976 24.4179 4.50788C24.4179 5.21101 24.4638 6.01726 24.5189 6.28913C24.6658 6.98288 25.0789 7.84539 25.5287 8.37038C25.7398 8.61414 25.8958 8.82038 25.8775 8.83913C25.8591 8.84851 24.5373 8.97976 22.9492 9.12038C21.3611 9.26101 19.5435 9.43914 18.9101 9.51413C17.8269 9.63601 17.7443 9.66413 17.5148 9.92664C17.166 10.311 17.166 10.761 17.5148 11.1548C17.8269 11.511 17.8453 11.511 20.4339 11.2391C22.4902 11.0235 26.0703 10.7141 27.5757 10.6204L28.5855 10.5548L28.3652 10.8735C28.2458 11.0516 27.9246 11.4923 27.6675 11.8579L27.181 12.5235L25.7765 12.636C18.0931 13.2641 11.2267 14.1548 2.96499 15.6173C2.38667 15.7204 1.83589 15.2704 1.83589 14.7079C1.83589 14.3891 2.08374 13.9954 2.35913 13.8735C2.60698 13.7798 6.93061 13.011 9.04194 12.6923C10.5749 12.4673 10.832 12.2985 10.832 11.586C10.832 11.136 10.4281 10.6766 10.0425 10.6766C9.71206 10.6766 6.06772 11.2485 3.76362 11.6704C1.78999 12.0266 1.21167 12.2423 0.725143 12.8048C-0.679349 14.4454 0.110104 16.9673 2.18471 17.4454C2.65288 17.5485 2.85483 17.5298 4.17671 17.3048C10.8412 16.1235 16.8447 15.336 24.1333 14.661C25.0054 14.5766 25.7398 14.5204 25.7582 14.5391C25.7673 14.5579 25.3083 15.3079 24.73 16.2079C20.6267 22.5923 18.0472 28.1141 17.3037 32.061C16.964 33.8891 17.0374 35.8298 17.5056 37.4891C18.9744 42.711 24.5373 45.8798 31.7617 45.6079C36.5259 45.4391 39.8306 44.2204 42.0246 41.8485C43.2271 40.536 44.0166 38.9235 44.4021 36.9641C44.6408 35.7079 44.6132 33.1579 44.347 31.911C43.4107 27.5329 40.6017 21.7016 36.2964 15.186C35.865 14.5485 35.5437 14.0048 35.5712 13.9766C35.6355 13.9016 37.0492 13.8548 41.1708 13.7891L44.9345 13.7235L45.4578 13.461C46.44 12.9641 46.9541 12.111 46.9541 10.9579C46.9541 9.80476 46.44 8.95163 45.4578 8.45476L44.9345 8.19226L40.6476 8.22039C38.2792 8.22976 36.3515 8.22039 36.3515 8.19226C36.3515 8.16413 36.4525 7.98601 36.581 7.78913C37.0675 7.03913 37.2052 6.42976 37.2511 4.83601C37.3062 2.58601 37.2603 2.52038 35.305 2.52038C34.6257 2.52038 33.8455 2.56726 33.5792 2.62351C32.8265 2.78288 32.0003 3.23288 31.3945 3.80476L30.8437 4.32038L30.2929 3.80476C29.6871 3.23288 28.8609 2.78288 28.1082 2.62351C27.4105 2.47351 25.1615 2.49226 24.8861 2.65163ZM28.3927 4.70476C29.3749 5.20163 29.8431 6.00788 29.9074 7.33913L29.9533 8.17351L29.1363 8.12664C27.3187 8.03289 26.3548 7.05788 26.2722 5.21101L26.2263 4.36726L27.0525 4.41413C27.7134 4.44226 27.9796 4.49851 28.3927 4.70476ZM35.4152 5.22038C35.3326 7.04851 34.3687 8.03289 32.5695 8.12664L31.7617 8.16413V7.51726C31.7617 5.56726 32.8908 4.40476 34.7818 4.39538H35.4519L35.4152 5.22038ZM44.6959 10.1516C44.9529 10.2923 45.164 10.6485 45.164 10.9673C45.164 11.286 44.907 11.6798 44.6408 11.7829C44.4847 11.8391 42.9242 11.9048 40.666 11.9329C38.6189 11.9704 36.3332 12.0173 35.5712 12.0454L34.1943 12.111L33.5701 11.2298L32.9458 10.3485L33.4783 10.2829C34.1484 10.1985 39.0687 10.0579 42.1164 10.0391C43.9707 10.0204 44.4939 10.0485 44.6959 10.1516ZM31.0548 11.8954L31.1925 12.2704H30.8437H30.4949L30.6326 11.8954C30.7152 11.6891 30.807 11.5204 30.8437 11.5204C30.8804 11.5204 30.9722 11.6891 31.0548 11.8954ZM32.34 15.1485C33.6894 18.6829 34.69 21.9548 35.1765 24.4579C35.4611 25.9298 35.4611 28.4423 35.1765 29.5391C34.589 31.7798 33.5058 32.5204 30.8437 32.5204C28.1816 32.5204 27.1076 31.7798 26.5109 29.5391C26.3548 28.9391 26.3181 28.536 26.3181 27.1298C26.3089 25.6485 26.3365 25.2923 26.5568 24.2048C27.0066 21.9923 27.8878 19.0579 29.0445 15.936C29.3841 15.036 29.6687 14.286 29.6871 14.2673C29.7054 14.2485 30.2103 14.1923 30.807 14.1548C31.4128 14.1173 31.9085 14.0704 31.9085 14.061C31.9177 14.061 32.1105 14.5485 32.34 15.1485ZM26.2722 18.2891C25.1156 21.8235 24.5464 24.411 24.4455 26.5204C24.2894 30.036 25.29 32.5766 27.2361 33.6266C28.2734 34.1891 29.0261 34.3298 30.8437 34.3298C32.6613 34.3298 33.414 34.1891 34.4513 33.6266C36.3974 32.5766 37.398 30.036 37.2419 26.5204C37.141 24.411 36.5626 21.7954 35.3968 18.2329C35.0205 17.0985 34.7818 16.2641 34.8644 16.3766C34.947 16.4891 35.4978 17.3516 36.0853 18.2891C39.849 24.3266 42.0888 29.3048 42.6396 32.8016C42.9701 34.9391 42.7039 36.9735 41.8593 38.7548C41.3177 39.8798 40.6935 40.6766 39.8123 41.361C37.8478 42.8891 35.4519 43.5923 31.7617 43.7329C25.9326 43.9673 21.3152 41.7829 19.6353 38.0048C18.9927 36.561 18.7632 34.5735 19.0386 32.8485C19.6445 29.0891 21.866 24.2423 26.0427 17.586C26.5201 16.8266 26.924 16.2079 26.9332 16.2079C26.9515 16.2079 26.6486 17.1454 26.2722 18.2891Z" fill="#ED1C24"/>
<path d="M13.5953 10.2454C12.7966 10.6954 13.1363 11.9891 14.0451 11.9891C14.5132 11.9891 14.963 11.5298 14.963 11.061C14.963 10.3579 14.2011 9.89851 13.5953 10.2454Z" fill="#ED1C24"/>
</svg>
