<svg width="585" height="569" viewBox="0 0 585 569" fill="none" xmlns="http://www.w3.org/2000/svg">
<path fill-rule="evenodd" clip-rule="evenodd" d="M287.642 30.4877C355.941 16.3262 433.742 -22.1243 491.345 17.2106C548.828 56.4635 536.71 143.718 552.675 211.469C567.022 272.35 595.271 331.905 579.782 392.505C563.753 455.221 523.597 512.865 467.422 545.029C413.933 575.655 348.195 571.28 287.642 559.775C235.494 549.866 196.688 512.812 151.478 484.997C101.29 454.121 31.8292 442.419 8.75872 388.198C-14.5646 333.382 13.4782 270.865 37.0977 216.176C58.8586 165.791 93.1839 123.304 137.278 90.6243C181.734 57.6756 233.459 41.7222 287.642 30.4877Z" fill="url(#paint0_linear)"/>
<path d="M72.0043 88.2534L71 88.5122L101.601 207.246L102.606 206.987L72.0043 88.2534Z" fill="#845430"/>
<path d="M432.867 197.596L433.823 197.996L478.599 90.9027L477.643 90.5033L432.867 197.596Z" fill="#845430"/>
<path d="M347.815 357.767C347.815 357.767 358.319 359.838 382.4 355.429C406.48 351.021 413.844 343.389 413.844 343.389C413.844 343.389 405.495 338.864 381.865 343.523C358.236 348.182 347.815 357.767 347.815 357.767Z" fill="#2E6999"/>
<path d="M304.648 183.71C304.648 183.71 303.161 173.59 300.039 173.691C296.916 173.791 294.745 177.598 295.313 178.55C298.653 184.228 301.491 185.013 301.491 185.013L304.648 183.71Z" fill="#FBCAA3"/>
<path d="M302.577 176.229C301.926 175.077 297.968 166.209 296.632 166.877C295.897 167.228 299.972 175.327 301.191 176.897C301.542 177.281 302.661 176.93 302.577 176.229Z" fill="#FBCAA3"/>
<path d="M300.289 176.162C299.538 175.077 294.762 166.644 293.509 167.412C292.875 167.796 297.584 175.511 298.97 176.964C299.421 177.314 300.49 176.847 300.289 176.162Z" fill="#FBCAA3"/>
<path d="M299.17 177.949C298.402 176.88 293.042 168.698 292.19 169.349C291.339 170 296.465 177.365 297.885 178.784C298.285 179.118 299.337 178.634 299.17 177.949Z" fill="#FBCAA3"/>
<path d="M298.703 180.738C297.935 179.886 293.409 173.257 292.441 174.058C291.739 174.659 296.482 180.003 297.667 181.339C298.051 181.623 298.903 181.322 298.703 180.738Z" fill="#FBCAA3"/>
<path d="M304.615 183.727C304.615 183.727 305.433 180.254 305.7 177.916C305.7 177.916 306.151 173.908 305.466 173.641C304.782 173.374 304.381 176.062 304.347 176.764C304.314 177.465 303.863 178.885 303.312 178.3L304.615 183.727Z" fill="#FBCAA3"/>
<path d="M368.088 259.909C355.568 250.229 344.08 239.283 333.805 227.246C333.805 227.246 328.695 215.139 323.885 208.876C319.076 202.614 308.856 191.292 301.792 179.001L301.108 184.161C301.108 184.161 313.532 222.019 324.386 234.66C335.241 247.301 359.956 275.757 359.956 275.757L368.088 259.909Z" fill="#FBCAA3"/>
<path d="M325.856 234.192C318.358 226.043 309.758 206.755 304.848 194.765C309.357 206.939 317.222 226.31 324.386 234.66C335.241 247.301 359.956 275.757 359.956 275.757L361.626 272.651C356.232 266.94 335.625 244.813 325.856 234.192Z" fill="#FDB77E"/>
<path d="M448.612 182.575C448.612 182.575 453.489 165.875 453.439 164.556C453.388 163.237 452.386 159.546 450.332 158.16C448.899 157.795 447.419 157.643 445.94 157.709C445.523 157.793 444.939 157.826 445.022 158.862C445.022 158.862 444.488 158.862 444.154 159.029C443.335 159.396 443.436 160.081 443.486 160.598C443.281 160.67 443.095 160.784 442.939 160.934C442.783 161.084 442.661 161.266 442.581 161.467C442.502 161.669 442.467 161.885 442.479 162.101C442.491 162.317 442.55 162.528 442.651 162.719C441.432 163.37 442.166 164.473 442.551 164.857C443.377 165.621 444.284 166.293 445.256 166.861C445.559 168.525 446.082 170.142 446.809 171.67L445.139 176.997L448.612 182.575Z" fill="#FBCAA3"/>
<path d="M445.005 163.721C445.649 163.974 446.314 164.17 446.992 164.306L447.36 164.673C447.154 164.662 446.948 164.662 446.742 164.673C446.742 164.673 445.824 164.139 445.005 163.721Z" fill="#E2884B"/>
<path d="M444.572 160.983C445.758 161.436 446.968 161.826 448.195 162.152L448.563 162.519C448.357 162.508 448.151 162.508 447.945 162.519L444.572 160.983Z" fill="#E2884B"/>
<path d="M449.38 159.814C448.111 159.413 446.258 159.095 445.022 158.761C447.109 159.396 449.197 160.214 449.197 160.214C449.4 160.168 449.607 160.14 449.815 160.131L449.38 159.814Z" fill="#E2884B"/>
<path d="M400.034 249.055C409.571 240.667 417.95 231.047 424.949 220.449C424.949 220.449 430.36 205.971 433.449 201.028C436.539 196.085 446.208 174.042 446.208 174.042L449.831 177.832C449.831 177.832 442.517 211.582 433.332 227.546C424.983 242.008 405.244 269.294 405.244 269.294L400.034 249.055Z" fill="#FBCAA3"/>
<path d="M434.034 222.586C425.4 236.898 404.96 263.867 404.96 263.867L401.019 248.203L400.034 249.055L405.244 269.278C405.244 269.278 425.016 242.008 433.332 227.529C438.877 217.911 443.719 201.846 446.692 190.591C443.536 201.228 439.027 214.32 434.034 222.586Z" fill="#FDB77E"/>
<path d="M352.709 506.174C352.709 506.174 356.566 453.338 351.039 346.111L408.217 336.275C408.217 336.275 405.345 420.44 405.695 425.75C406.046 431.061 412.175 440.78 412.375 446.341C412.125 464.342 410.388 478.203 411.223 506.174H407.482L390.165 427.003C390.165 427.003 387.443 370.676 383.953 369.123C382.343 368.484 380.59 368.292 378.88 368.565C377.17 368.838 375.565 369.568 374.234 370.676C371.529 372.613 368.356 420.523 368.022 426.619C367.688 432.714 371.529 442.032 371.011 447.994C369.458 467.031 362.912 480.24 357.15 506.258L352.709 506.174Z" fill="#474F5C"/>
<path d="M351.773 361.057C360.624 359.036 387.326 350.252 407.699 352.139C407.916 345.677 408.083 340.634 408.183 338.079L351.289 350.753C351.473 354.244 351.623 357.684 351.773 361.057Z" fill="#384049"/>
<path d="M347.815 357.767C347.815 357.767 395.993 340.667 413.861 343.389C413.861 343.389 405.712 299.871 404.159 271.899L417.368 255.985L411.657 234.476C378.776 261.412 352.491 241.607 345.494 238.484L337.028 253.33L352.057 275.039C352.057 275.039 352.057 307.252 347.815 357.767Z" fill="#488BC1"/>
<g style="mix-blend-mode:multiply" opacity="0.3">
<path d="M397.546 245.097C397.546 245.798 387.91 260.644 376.956 260.644C366.001 260.644 358.737 247.151 358.737 246.466C358.737 245.781 366.252 249.188 377.106 249.188C387.961 249.188 397.546 244.395 397.546 245.097Z" fill="#488BC1"/>
</g>
<path d="M364.782 249.756C364.782 250.909 369.909 258.206 377.307 258.256C384.704 258.306 390.666 251.493 390.666 250.341C390.666 249.189 384.688 248.203 377.307 248.153C369.926 248.103 364.799 248.604 364.782 249.756Z" fill="#FBCAA3"/>
<path d="M388.645 249.238C384.878 248.458 381.036 248.094 377.189 248.153C373.932 248.082 370.673 248.238 367.437 248.621C368.516 250.351 370.044 251.758 371.858 252.69C373.672 253.622 375.705 254.045 377.74 253.914C381.772 253.524 385.583 251.89 388.645 249.238Z" fill="#E2884B"/>
<path d="M365.216 240.087C370.026 237.799 377.039 235.745 381.749 236.847C388.662 238.517 390.215 247.936 388.746 251.292C382.45 247.234 371.829 247.485 368.974 248.888C368.715 249.029 368.498 249.237 368.346 249.489C368.193 249.741 368.11 250.029 368.105 250.324L365.216 240.087Z" fill="#ED1C24"/>
<path d="M368.439 249.238H368.539C369.842 247.669 380.997 246.917 387.977 250.908C388.783 249.6 389.235 248.104 389.29 246.568C389.345 245.033 389.001 243.509 388.291 242.146C387.581 240.783 386.529 239.628 385.239 238.793C383.949 237.958 382.464 237.471 380.93 237.382C382.116 241.924 368.439 249.238 368.439 249.238Z" fill="#BF3317"/>
<path d="M382.116 241.924C382.116 241.924 370.426 241.707 369.324 244.396C373.119 243.703 376.993 243.551 380.83 243.945C386.992 244.646 382.116 241.924 382.116 241.924Z" fill="#BF3317"/>
<path d="M355.907 299.746L355.512 299.315L348.777 305.486L349.172 305.917L355.907 299.746Z" fill="#BF3317"/>
<path d="M356.411 300.688L355.988 300.285L349.689 306.9L350.112 307.303L356.411 300.688Z" fill="#BF3317"/>
<path d="M357.983 301.794L357.56 301.391L351.261 308.006L351.684 308.409L357.983 301.794Z" fill="#BF3317"/>
<path d="M358.979 302.658L358.542 302.271L352.486 309.11L352.924 309.497L358.979 302.658Z" fill="#BF3317"/>
<path d="M360.165 303.539L359.728 303.152L353.672 309.991L354.11 310.379L360.165 303.539Z" fill="#BF3317"/>
<path d="M361.478 304.231L361.024 303.863L355.277 310.963L355.731 311.331L361.478 304.231Z" fill="#BF3317"/>
<path d="M362.963 305.079L362.509 304.711L356.763 311.812L357.217 312.18L362.963 305.079Z" fill="#BF3317"/>
<path d="M364.131 305.96L363.662 305.611L358.215 312.944L358.684 313.292L364.131 305.96Z" fill="#BF3317"/>
<path d="M367.468 317.945L366.983 317.612L361.777 325.194L362.262 325.527L367.468 317.945Z" fill="#BF3317"/>
<path d="M367.032 307.426L366.536 307.118L361.719 314.88L362.216 315.188L367.032 307.426Z" fill="#BF3317"/>
<path d="M368.303 308.308L367.79 308.028L363.416 316.047L363.929 316.327L368.303 308.308Z" fill="#BF3317"/>
<path d="M369.628 309.008L369.101 308.756L365.17 317.001L365.697 317.253L369.628 309.008Z" fill="#BF3317"/>
<path d="M371.085 309.797L370.557 309.546L366.626 317.791L367.154 318.043L371.085 309.797Z" fill="#BF3317"/>
<path d="M372.436 310.675L371.908 310.423L367.976 318.668L368.503 318.919L372.436 310.675Z" fill="#BF3317"/>
<path d="M374.299 311.489L373.772 311.237L369.841 319.482L370.368 319.734L374.299 311.489Z" fill="#BF3317"/>
<path d="M389.926 314.317L389.345 314.373L390.226 323.465L390.808 323.409L389.926 314.317Z" fill="#BF3317"/>
<path d="M391.082 313.222L390.505 313.315L391.951 322.334L392.528 322.241L391.082 313.222Z" fill="#BF3317"/>
<path d="M392.121 312.468L391.55 312.595L393.533 321.512L394.104 321.385L392.121 312.468Z" fill="#BF3317"/>
<path d="M393.181 311.754L392.616 311.903L394.946 320.736L395.511 320.587L393.181 311.754Z" fill="#BF3317"/>
<path d="M394.562 310.749L393.997 310.898L396.325 319.731L396.89 319.582L394.562 310.749Z" fill="#BF3317"/>
<path d="M395.628 309.822L395.07 309.993L397.751 318.725L398.31 318.554L395.628 309.822Z" fill="#BF3317"/>
<path d="M396.862 308.914L396.304 309.086L398.985 317.818L399.544 317.646L396.862 308.914Z" fill="#BF3317"/>
<path d="M397.976 308.167L397.424 308.358L400.419 316.988L400.971 316.796L397.976 308.167Z" fill="#BF3317"/>
<path d="M399.116 307.48L398.573 307.695L401.94 316.187L402.483 315.971L399.116 307.48Z" fill="#BF3317"/>
<path d="M400.372 306.331L399.829 306.546L403.195 315.038L403.738 314.823L400.372 306.331Z" fill="#BF3317"/>
<path d="M401.527 305.639L400.993 305.876L404.704 314.223L405.238 313.985L401.527 305.639Z" fill="#BF3317"/>
<path d="M402.676 304.749L402.142 304.987L405.851 313.334L406.386 313.097L402.676 304.749Z" fill="#BF3317"/>
<path d="M403.922 303.549L403.398 303.806L407.425 312.005L407.95 311.747L403.922 303.549Z" fill="#BF3317"/>
<path d="M405.01 302.8L404.485 303.057L408.511 311.257L409.036 310.999L405.01 302.8Z" fill="#BF3317"/>
<path d="M405.941 302.083L405.442 302.387L410.2 310.185L410.699 309.881L405.941 302.083Z" fill="#BF3317"/>
<path d="M406.968 301.179L406.482 301.504L411.56 309.097L412.045 308.772L406.968 301.179Z" fill="#BF3317"/>
<path d="M368.105 250.324C367.621 253.764 371.729 262.214 380.563 270.096C390.828 279.348 399.814 289.929 407.282 301.557L389.413 315.117C386.545 301.534 380.623 288.782 372.096 277.828C357.685 258.907 357.818 245.832 360.407 243.11C362.476 241.404 364.819 240.06 367.337 239.135L368.105 250.324Z" fill="#ED1C24"/>
<path d="M407.248 301.557C407.248 301.557 406.563 300.422 405.244 298.468C399.973 302.953 394.337 306.992 388.395 310.542C389.146 313.397 389.413 315.067 389.413 315.067L407.248 301.557Z" fill="#333333"/>
<path d="M372.096 277.828C378.201 285.843 383.028 294.754 386.407 304.246L393.488 283.288C391.818 281.368 390.014 279.381 388.061 277.36L382.533 290.252C378.5 283.604 374.13 277.167 369.441 270.964C358.453 256.286 360.407 243.11 360.407 243.11C357.835 245.832 357.701 258.907 372.096 277.828Z" fill="#BF3317"/>
<path d="M355.214 299.47C381.097 274.02 388.478 251.844 388.228 247.986C387.977 244.129 384.788 238.284 381.749 236.848C384.224 237.51 386.511 238.739 388.428 240.438L389.347 242.191C389.877 241.981 390.457 241.929 391.017 242.041C392.732 243.085 394.357 244.269 395.876 245.581L396.795 246.784C397.251 247.927 397.315 249.19 396.978 250.374C394.789 261.61 391.321 272.558 386.642 283.005C382.634 291.638 379.427 302.71 373.883 312.045C373.844 312.111 373.792 312.168 373.73 312.214C373.667 312.259 373.597 312.291 373.522 312.308C373.447 312.325 373.369 312.327 373.294 312.313C373.218 312.3 373.146 312.271 373.082 312.228L355.247 300.338C355.181 300.288 355.128 300.223 355.09 300.149C355.052 300.076 355.031 299.995 355.028 299.912C355.025 299.829 355.04 299.747 355.072 299.671C355.104 299.594 355.152 299.526 355.214 299.47Z" fill="#FA353D"/>
<path d="M357.067 297.55L355.146 299.47C355.088 299.529 355.043 299.6 355.015 299.679C354.987 299.757 354.977 299.841 354.985 299.924C354.993 300.007 355.019 300.087 355.061 300.158C355.103 300.23 355.161 300.291 355.23 300.338L373.065 312.228C373.129 312.271 373.201 312.3 373.277 312.313C373.352 312.327 373.43 312.325 373.505 312.308C373.58 312.291 373.651 312.259 373.713 312.214C373.775 312.168 373.827 312.111 373.866 312.045C374.451 311.076 375.002 310.074 375.536 309.055C369.027 305.819 362.842 301.966 357.067 297.55Z" fill="#333333"/>
<path d="M395.926 245.581C392.03 260.569 384.861 274.508 374.935 286.394C374.935 286.394 390.482 274.454 397.011 247.051L395.926 245.581Z" fill="#BF3317"/>
<path d="M391.066 242.041C391.2 242.542 391.551 243.527 391.167 248.353C390.754 246.263 390.196 244.204 389.497 242.191C390 242.017 390.539 241.965 391.066 242.041Z" fill="#BF3317"/>
<path d="M372.981 313.447C366.335 309.773 359.996 305.568 354.027 300.873L354.445 300.355C360.384 305.028 366.689 309.216 373.298 312.879L372.981 313.447Z" fill="#BF3317"/>
<path d="M389.914 316.787L389.53 316.253C389.647 316.253 400.485 308.671 407.549 302.426L407.983 302.927C400.902 309.105 390.014 316.637 389.914 316.787Z" fill="#BF3317"/>
<path d="M397.629 288.181C393.196 291.589 388.586 294.76 383.819 297.683C384.687 299.67 385.489 301.557 386.073 303.277C391.363 300.146 396.47 296.717 401.37 293.007C400.268 291.538 399.015 289.918 397.629 288.181Z" fill="#F7DDD2"/>
<path d="M396.661 286.996C393.488 289.334 388.178 293.191 383.301 296.564L383.802 297.683C388.569 294.761 393.179 291.589 397.613 288.181L396.661 286.996Z" fill="#333333"/>
<path d="M360.891 293.625C366.368 297.475 372.092 300.961 378.025 304.062C378.809 302.392 379.544 300.589 380.246 298.852C374.891 295.991 369.706 292.824 364.715 289.367C363.496 290.769 362.227 292.189 360.891 293.625Z" fill="#FFE7DC"/>
<path d="M364.715 289.367C369.706 292.824 374.891 295.991 380.246 298.852C380.446 298.384 380.63 297.917 380.813 297.449C377.373 295.479 370.994 291.821 365.5 288.465L364.715 289.367Z" fill="#333333"/>
<g style="mix-blend-mode:multiply" opacity="0.6">
<path d="M389.413 315.117L407.248 301.608C407.248 301.608 397.88 287.129 388.745 278.229C388.745 278.229 400.719 292.891 404.743 301.09L389.413 315.117Z" fill="#BF3317"/>
</g>
<g style="mix-blend-mode:multiply" opacity="0.6">
<g style="mix-blend-mode:multiply" opacity="0.6">
<path d="M396.978 247.001C396.972 247.652 396.905 248.3 396.778 248.938C394.572 260.169 391.105 271.116 386.441 281.568C382.417 290.202 379.227 301.274 373.683 310.625C373.641 310.691 373.586 310.747 373.522 310.791C373.457 310.835 373.385 310.865 373.309 310.881C373.232 310.896 373.154 310.897 373.078 310.881C373.001 310.866 372.929 310.836 372.864 310.792L356.282 300.99L373.132 312.228C373.196 312.271 373.268 312.3 373.344 312.314C373.419 312.327 373.497 312.326 373.572 312.308C373.647 312.291 373.717 312.259 373.78 312.214C373.842 312.168 373.894 312.111 373.933 312.045C379.477 302.71 382.684 291.638 386.691 283.005C391.37 272.558 394.839 261.61 397.028 250.374C397.312 249.265 397.295 248.101 396.978 247.001Z" fill="#BF3317"/>
</g>
</g>
<path d="M371.195 298.501C371.131 299.008 370.922 299.486 370.595 299.879C370.267 300.271 369.834 300.561 369.346 300.715C368.859 300.868 368.338 300.879 367.844 300.745C367.351 300.611 366.906 300.339 366.563 299.96C366.22 299.581 365.993 299.112 365.909 298.607C365.824 298.103 365.886 297.586 366.087 297.116C366.288 296.646 366.62 296.243 367.043 295.956C367.465 295.669 367.962 295.509 368.473 295.495C369.23 295.539 369.94 295.878 370.45 296.441C370.959 297.003 371.227 297.743 371.195 298.501Z" fill="#FFC648"/>
<g style="mix-blend-mode:multiply" opacity="0.3">
<path d="M368.756 300.756C368.161 300.726 367.602 300.461 367.202 300.02C366.801 299.578 366.592 298.996 366.619 298.401C366.616 297.797 366.816 297.209 367.187 296.731C366.931 296.983 366.73 297.285 366.598 297.618C366.465 297.952 366.404 298.31 366.419 298.668C366.391 299.261 366.599 299.84 366.996 300.281C367.393 300.722 367.947 300.988 368.539 301.023C368.818 301.015 369.092 300.946 369.341 300.818C369.589 300.691 369.806 300.51 369.975 300.288C369.644 300.594 369.208 300.761 368.756 300.756Z" fill="#D83939"/>
</g>
<g style="mix-blend-mode:multiply" opacity="0.3">
<path d="M368.356 296.247C368.969 296.286 369.542 296.562 369.954 297.018C370.365 297.473 370.583 298.072 370.56 298.685C370.559 298.921 370.531 299.157 370.477 299.387C370.564 299.105 370.609 298.813 370.61 298.518C370.637 297.927 370.43 297.35 370.032 296.911C369.635 296.473 369.08 296.21 368.489 296.18C368.203 296.185 367.922 296.259 367.671 296.397C367.891 296.314 368.121 296.263 368.356 296.247Z" fill="#D83939"/>
</g>
<path d="M365.016 297.867C365.056 297.457 365.179 297.059 365.377 296.697C365.575 296.335 365.844 296.018 366.168 295.763C366.168 295.763 363.195 295.078 365.016 297.867Z" fill="#FFC648"/>
<path d="M371.812 299.27C371.715 300.041 371.402 300.77 370.911 301.374C370.911 301.374 374 302.092 371.812 299.27Z" fill="#FFC648"/>
<path d="M390.916 298.618C390.996 299.119 391.217 299.586 391.553 299.964C391.89 300.343 392.328 300.618 392.815 300.756C393.303 300.894 393.82 300.889 394.305 300.743C394.79 300.597 395.223 300.315 395.553 299.931C395.883 299.546 396.096 299.075 396.167 298.574C396.238 298.072 396.165 297.561 395.955 297.1C395.744 296.639 395.407 296.247 394.982 295.972C394.556 295.697 394.061 295.549 393.555 295.546C392.798 295.605 392.096 295.962 391.602 296.538C391.107 297.114 390.861 297.861 390.916 298.618Z" fill="#F2B93B"/>
<g style="mix-blend-mode:multiply" opacity="0.3">
<path d="M393.338 300.823C393.637 300.808 393.93 300.733 394.2 300.604C394.471 300.475 394.712 300.293 394.911 300.069C395.11 299.845 395.263 299.584 395.359 299.3C395.456 299.017 395.496 298.717 395.475 298.418C395.476 297.805 395.257 297.213 394.858 296.748C395.121 296.989 395.33 297.284 395.471 297.612C395.612 297.94 395.682 298.295 395.676 298.652C395.722 299.245 395.532 299.832 395.147 300.285C394.763 300.739 394.214 301.022 393.622 301.073C393.343 301.07 393.068 301.005 392.817 300.884C392.566 300.763 392.345 300.588 392.169 300.372C392.494 300.653 392.908 300.813 393.338 300.823Z" fill="#CB2C2C"/>
</g>
<g style="mix-blend-mode:multiply" opacity="0.3">
<path d="M393.689 296.297C393.077 296.348 392.51 296.638 392.11 297.104C391.71 297.569 391.509 298.173 391.551 298.785C391.552 299.022 391.58 299.257 391.635 299.487C391.546 299.206 391.501 298.913 391.501 298.618C391.459 298.03 391.652 297.449 392.037 297.002C392.421 296.555 392.967 296.277 393.555 296.23C393.839 296.237 394.118 296.306 394.373 296.431C394.155 296.345 393.923 296.3 393.689 296.297Z" fill="#CB2C2C"/>
</g>
<path d="M397.145 297.834C397.034 297.012 396.601 296.267 395.943 295.763C395.943 295.763 398.815 294.928 397.145 297.834Z" fill="#F2B93B"/>
<path d="M390.315 299.403C390.431 300.174 390.761 300.897 391.267 301.49C391.267 301.49 388.194 302.275 390.315 299.403Z" fill="#F2B93B"/>
<path d="M447.794 171.503C446.762 169.931 446.084 168.153 445.807 166.293C444.271 165.833 442.928 164.882 441.983 163.588C441.983 163.825 442.034 164.059 442.132 164.275C442.23 164.491 442.373 164.684 442.551 164.84C443.377 165.604 444.284 166.276 445.256 166.844C445.256 166.844 444.939 170.184 446.809 171.653L443.002 181.506C443.002 181.506 447.243 172.388 447.794 171.503Z" fill="#E2884B"/>
<path d="M356.633 506.174L355.597 511H344.208L352.758 506.174H356.633Z" fill="#2E6999"/>
<path d="M407.649 506.174L408.3 511H416.85L411.022 506.174H407.649Z" fill="#2E6999"/>
<path d="M370.744 370.459L371.478 384.77C372.363 377.071 373.332 371.243 374.234 370.592C375.565 369.484 377.17 368.754 378.88 368.481C380.59 368.208 382.343 368.4 383.953 369.039C385.105 369.54 386.174 375.969 387.075 384.369L386.675 368.905L388.745 364.113C382.271 366.663 375.364 367.939 368.406 367.87L370.744 370.459Z" fill="#384049"/>
<path d="M409.469 506.191C409.469 505.606 408.935 448.929 408.434 445.639C407.278 441.357 405.838 437.156 404.125 433.064C403.207 430.676 402.456 428.606 401.971 427.303C400.669 423.396 403.641 350.737 403.775 347.647H404.543C403.474 373.782 401.704 424.013 402.706 427.036C403.14 428.322 403.925 430.376 404.844 432.764C406.58 436.897 408.036 441.143 409.202 445.472C409.72 448.812 410.221 503.803 410.237 506.141L409.469 506.191Z" fill="#384049"/>
<path d="M375.069 368.121L373.232 351.087L379.26 349.083L380.279 367.453L375.069 368.121ZM374.083 351.622L375.753 367.236L379.46 366.751L378.542 350.135L374.083 351.622Z" fill="#384049"/>
<path d="M352.057 366.701L359.438 364.764C359.438 364.764 359.438 383.601 352.758 384.386L352.057 366.701Z" fill="#384049"/>
<path d="M403.959 356.598L395.225 357.583C395.225 357.583 396.193 378.942 402.79 378.741L403.959 356.598Z" fill="#384049"/>
<path d="M368.923 448.711C368.673 454.155 357.535 495.854 355.197 496.104C354.428 496.204 353.911 492.079 353.527 486.569C353.143 499.678 352.675 506.207 352.675 506.207H357.117C362.878 480.19 369.424 466.98 370.978 447.943C371.362 443.535 369.308 437.289 368.422 431.862L367.871 430.058C367.871 430.058 369.191 443.234 368.923 448.711Z" fill="#333333"/>
<path d="M405.996 427.503C405.996 427.269 405.879 427.036 405.846 426.802L405.712 426.668L405.996 427.503Z" fill="#333333"/>
<path d="M407.415 506.174H411.156C410.321 478.202 412.058 464.426 412.308 446.34C412.225 442.533 409.319 436.755 407.298 431.778C408.785 436.571 410.638 443.368 410.638 446.09C410.371 450.498 409.586 495.303 406.998 495.303C406.23 495.303 404.743 491.445 403.04 486.034L407.415 506.174Z" fill="#333333"/>
<path d="M413.31 340.35C413.177 339.565 413.01 338.68 412.809 337.578C394.991 336.392 355.932 349.484 348.283 352.123C348.283 353.041 348.133 353.96 348.066 354.878C354.512 352.641 395.659 338.68 413.31 340.35Z" fill="#EDD2CB"/>
<g style="mix-blend-mode:multiply" opacity="0.3">
<path d="M354.295 355.563C357.635 322.164 355.197 270.163 355.197 270.163L338.28 255.133L352.057 275.039C352.057 275.039 352.057 307.285 347.782 357.801C347.815 357.767 350.287 356.865 354.295 355.563Z" fill="#488BC1"/>
</g>
<g style="mix-blend-mode:multiply" opacity="0.3">
<path d="M400.268 270.346C400.268 270.346 401.805 318.106 405.478 343.255C408.258 343.001 411.058 343.046 413.828 343.389C413.828 343.389 405.679 299.871 404.126 271.899L417.335 255.985L400.268 270.346Z" fill="#488BC1"/>
</g>
<path d="M360.641 193.045C360.641 193.045 359.489 201.896 361.71 217.81L370.627 192.294L360.641 193.045Z" fill="#B26734"/>
<path d="M391.234 234.309C386.992 234.509 387.41 214.37 389.731 206.121C392.052 197.871 397.246 192.11 401.32 193.262C405.395 194.414 406.631 199.291 405.662 206.104C404.693 212.917 402.022 233.775 391.234 234.309Z" fill="#B26734"/>
<path d="M370.226 250.541C370.226 250.541 370.627 238.851 367.086 232.706L389.046 234.626C389.046 234.626 384.771 242.642 384.47 250.023L370.226 250.541Z" fill="#E2884B"/>
<path d="M391.468 237.532C386.14 244.362 374.217 244.83 374.217 244.83C374.217 244.83 361.492 245.581 361.158 229.8C361.058 225.024 363.062 192.043 365.3 192.377L399.75 197.537C399.75 197.537 395.475 232.422 391.468 237.532Z" fill="#FBCAA3"/>
<path d="M389.58 198.857C389.58 198.857 394.507 198.74 393.739 205.987C392.486 217.677 392.219 222.553 392.219 222.553L394.072 222.369C394.072 222.369 401.504 216.525 401.571 216.057C401.637 215.589 401.904 195.634 401.904 195.634L391.334 193.964L389.58 198.857Z" fill="#B26734"/>
<path d="M384.788 218.261C384.69 218.817 384.43 219.332 384.041 219.742C383.651 220.151 383.15 220.436 382.599 220.562C382.049 220.688 381.473 220.649 380.945 220.449C380.416 220.25 379.958 219.899 379.628 219.44C379.298 218.982 379.111 218.437 379.089 217.872C379.068 217.308 379.213 216.749 379.507 216.267C379.801 215.785 380.23 215.4 380.742 215.161C381.254 214.921 381.824 214.838 382.383 214.921C382.763 214.978 383.127 215.11 383.454 215.31C383.782 215.509 384.066 215.773 384.29 216.084C384.514 216.395 384.674 216.748 384.759 217.122C384.845 217.496 384.854 217.883 384.788 218.261Z" fill="#753B25"/>
<path d="M369.057 216.809C368.962 217.339 368.714 217.829 368.342 218.219C367.97 218.608 367.491 218.879 366.966 218.998C366.441 219.117 365.892 219.079 365.389 218.887C364.885 218.696 364.449 218.361 364.136 217.923C363.822 217.486 363.644 216.965 363.624 216.427C363.604 215.889 363.744 215.357 364.025 214.898C364.306 214.438 364.716 214.072 365.204 213.845C365.692 213.617 366.237 213.539 366.769 213.619C367.129 213.678 367.474 213.807 367.784 213.999C368.094 214.191 368.362 214.443 368.575 214.739C368.787 215.035 368.939 215.371 369.022 215.726C369.105 216.081 369.117 216.449 369.057 216.809Z" fill="#753B25"/>
<path d="M380.446 213.552L380.162 214.303L386.174 216.541L386.274 215.94C384.447 214.887 382.487 214.084 380.446 213.552Z" fill="#753B25"/>
<path d="M369.157 212.366L369.307 213.168L362.895 214.387V213.769C364.908 213.017 367.015 212.545 369.157 212.366Z" fill="#753B25"/>
<path d="M365.299 192.394C365.299 192.394 380.228 202.631 395.358 197.304C395.341 197.304 386.29 188.854 365.299 192.394Z" fill="#B26734"/>
<path d="M366.151 230.785C370.976 230.259 375.857 230.599 380.563 231.787C380.396 232.539 379.794 237.615 372.58 237.565C366.953 237.532 366.151 230.785 366.151 230.785Z" fill="#753B25"/>
<path d="M368.105 231.036C371.962 230.785 375.836 231.077 379.611 231.904C379.611 232.238 368.339 232.205 368.339 232.205L368.105 231.036Z" fill="#E5D8D9"/>
<g style="mix-blend-mode:screen" opacity="0.3">
<path d="M369.391 236.63C370.353 237.217 371.454 237.534 372.581 237.549C374.007 237.709 375.449 237.45 376.73 236.804C378.012 236.157 379.077 235.151 379.795 233.908C376.176 234.088 372.634 235.015 369.391 236.63Z" fill="#753B25"/>
</g>
<path d="M399.901 193.88C399.974 193.467 400.013 193.048 400.018 192.628C400.116 191.259 399.791 189.893 399.085 188.716C398.38 187.539 397.33 186.607 396.077 186.048C396.077 186.048 395.993 186.048 395.993 186.215C395.993 186.382 395.993 186.8 395.993 187.117C393.031 184.178 389.235 182.224 385.122 181.523C387.643 185.447 392.085 187.084 396.093 189.405C397.774 190.491 399.098 192.047 399.901 193.88Z" fill="#B26734"/>
<path d="M399.734 195.3C398.481 199.341 391.083 199.909 379.294 199.641C369.074 199.408 357.585 197.153 355.197 191.676C363.546 192.744 369.575 177.882 384.771 182.675C394.273 185.597 400.969 191.258 399.734 195.3Z" fill="#B26734"/>
<path d="M399.901 193.88C399.974 193.467 400.013 193.048 400.018 192.628C400.116 191.259 399.791 189.893 399.085 188.716C398.38 187.539 397.33 186.607 396.077 186.048C396.077 186.048 395.993 186.048 395.993 186.215C395.993 186.382 395.993 186.8 395.993 187.117C393.031 184.178 389.235 182.224 385.122 181.523C387.643 185.447 392.085 187.084 396.093 189.405C397.774 190.491 399.098 192.047 399.901 193.88Z" fill="#B26734"/>
<path d="M401.253 224.941C400.886 225.578 400.345 226.097 399.694 226.439C399.043 226.78 398.308 226.929 397.576 226.868C396.843 226.807 396.143 226.539 395.557 226.095C394.971 225.652 394.523 225.05 394.266 224.361C394.009 223.673 393.953 222.925 394.105 222.206C394.258 221.487 394.611 220.825 395.125 220.3C395.639 219.774 396.291 219.405 397.007 219.236C397.722 219.067 398.471 219.106 399.166 219.347C400.175 219.823 400.958 220.674 401.348 221.719C401.738 222.764 401.704 223.921 401.253 224.941Z" fill="#FBCAA3"/>
<path d="M399.9 224.39C399.856 224.748 399.731 225.091 399.537 225.395C399.342 225.698 399.082 225.955 398.776 226.145C398.469 226.335 398.124 226.455 397.766 226.495C397.408 226.535 397.045 226.494 396.704 226.376C396.363 226.258 396.053 226.065 395.797 225.811C395.54 225.558 395.343 225.25 395.221 224.911C395.098 224.572 395.053 224.21 395.088 223.851C395.123 223.492 395.239 223.145 395.425 222.837C395.481 222.49 395.612 222.16 395.81 221.87C396.007 221.58 396.265 221.336 396.566 221.156C396.868 220.976 397.205 220.865 397.554 220.829C397.903 220.793 398.256 220.834 398.587 220.949C398.919 221.064 399.221 221.251 399.473 221.495C399.725 221.739 399.92 222.036 400.045 222.364C400.171 222.691 400.222 223.043 400.197 223.393C400.172 223.743 400.071 224.083 399.9 224.39Z" fill="#E2884B"/>
<path d="M369.909 239.235C371.672 239.805 373.554 239.909 375.369 239.536C375.369 239.536 372.48 243.744 369.909 239.235Z" fill="#E2884B"/>
<path d="M372.881 211.047C373.65 212.876 373.876 214.888 373.532 216.842C372.864 219.781 370.193 223.806 366.736 224.758C366.736 224.758 369.575 228.615 372.581 228.615C371.223 227.777 370.079 226.633 369.241 225.275C369.241 225.275 374.251 221.768 374.718 216.926C374.849 215.871 374.753 214.802 374.436 213.788C374.119 212.774 373.589 211.84 372.881 211.047Z" fill="#E2884B"/>
<g style="mix-blend-mode:screen" opacity="0.3">
<path d="M357.251 192.36C359.639 191.766 361.902 190.748 363.93 189.355C366.552 187.301 375.62 179.051 388.011 184.345L386.458 181.923C386.458 181.923 391.134 182.591 396.761 188.035L396.661 186.365C397.744 186.903 398.613 187.792 399.125 188.887C399.638 189.981 399.764 191.218 399.483 192.394C398.615 196.769 387.927 198.606 378.993 198.222L380.663 197.637C380.663 197.637 371.145 198.806 364.649 196.669C358.152 194.531 357.251 192.36 357.251 192.36Z" fill="#B26734"/>
</g>
<g style="mix-blend-mode:screen" opacity="0.3">
<path d="M393.655 199.257C393.655 199.257 394.54 199.358 397.746 197.12C400.953 194.882 400.852 193.78 402.606 194.782C404.359 195.784 405.411 198.473 405.127 201.779C404.96 203.75 400.435 206.455 397.262 205.77C395.125 205.303 395.475 202.163 393.655 199.257Z" fill="#B26734"/>
</g>
<path d="M400.084 193.095C400.084 193.095 404.359 192.277 405.979 194.982L403.574 194.732L400.084 193.095Z" fill="#B26734"/>
<path d="M361.409 209.912C363.733 208.252 366.387 207.113 369.191 206.572L367.738 203.232C365.094 204.095 362.806 205.802 361.225 208.091L361.409 209.912Z" fill="#B26734"/>
<path d="M388.478 210.563C386.223 208.83 383.62 207.605 380.847 206.972L382.517 203.733C385.122 204.693 387.34 206.483 388.829 208.826L388.478 210.563Z" fill="#B26734"/>
<path d="M381.181 223.755L380.947 226.26C384.2 226.288 387.445 226.584 390.649 227.145L391.184 224.74C387.911 223.952 384.544 223.621 381.181 223.755Z" fill="#FA353D"/>
<path d="M380.847 226.511L380.613 229.016C383.737 229.009 386.856 229.283 389.931 229.834L390.582 227.312C387.358 226.833 384.106 226.565 380.847 226.511Z" fill="#FFE7DC"/>
<path d="M134.532 365.215C134.532 365.215 140.744 368.455 168.983 361.725C197.221 354.995 199.041 350.837 199.041 350.837C199.041 350.837 189.723 346.445 165.108 350.069C140.494 353.693 134.532 365.215 134.532 365.215Z" fill="#EFB025"/>
<path d="M235.346 200.092C234.504 201.222 233.746 202.411 233.075 203.649L231.004 199.892L232.958 197.688L235.346 200.092Z" fill="#FBCAA3"/>
<path d="M232.44 198.339C232.44 198.339 235.496 188.587 238.569 189.138C241.641 189.689 243.178 193.83 242.476 194.682C238.268 199.692 235.346 200.092 235.346 200.092L232.44 198.339Z" fill="#FBCAA3"/>
<path d="M235.663 191.275C236.481 190.24 241.775 182.157 242.978 182.925C243.662 183.376 238.385 190.757 236.932 192.11C236.515 192.477 235.48 191.96 235.663 191.275Z" fill="#FBCAA3"/>
<path d="M237.867 191.542C238.769 190.591 244.814 183.009 245.933 183.961C246.501 184.445 240.623 191.325 239.036 192.544C238.602 192.845 237.617 192.227 237.867 191.542Z" fill="#FBCAA3"/>
<path d="M238.752 193.513C239.671 192.578 246.267 185.33 246.985 186.115C247.703 186.9 241.508 193.362 239.905 194.465C239.454 194.882 238.502 194.147 238.752 193.513Z" fill="#FBCAA3"/>
<path d="M238.786 196.335C239.671 195.617 245.165 189.789 246 190.758C246.601 191.459 240.99 195.985 239.704 197.12C239.287 197.321 238.502 196.886 238.786 196.335Z" fill="#FBCAA3"/>
<path d="M232.473 198.356C232.473 198.356 232.206 194.799 232.306 192.461C232.306 192.461 232.49 188.436 233.208 188.269C233.926 188.102 233.893 190.824 233.826 191.526C233.759 192.227 233.976 193.697 234.611 193.196L232.473 198.356Z" fill="#FBCAA3"/>
<path d="M89.3774 182.358C89.3774 182.358 86.8891 165.124 87.1229 163.838C87.3567 162.552 88.8931 158.945 91.1141 157.91C92.5894 157.749 94.0805 157.805 95.5394 158.077C95.9402 158.211 96.5246 158.327 96.3075 159.329C96.3075 159.329 96.8253 159.463 97.1259 159.613C97.8941 160.098 97.6936 160.766 97.5767 161.283C97.7701 161.382 97.9399 161.521 98.0743 161.692C98.2087 161.862 98.3046 162.06 98.3554 162.271C98.4062 162.482 98.4106 162.701 98.3685 162.914C98.3263 163.127 98.2385 163.328 98.1111 163.504C99.2299 164.306 98.3449 165.308 97.9107 165.642C96.9834 166.305 95.9867 166.864 94.9383 167.312C94.4022 168.926 93.6493 170.459 92.7005 171.871L93.7025 177.381L89.3774 182.358Z" fill="#FBCAA3"/>
<path d="M91.7485 171.503C93.0015 170.084 93.9303 168.408 94.4705 166.594C96.057 166.341 97.5204 165.586 98.6454 164.439C98.5618 164.91 98.2982 165.329 97.9106 165.608C96.9833 166.271 95.9866 166.831 94.9382 167.278C94.9382 167.278 94.7711 170.702 92.7004 171.837L93.9863 178.083L93.2848 179.452C92.7505 178.5 92.1159 172.438 91.7485 171.503Z" fill="#E2884B"/>
<path d="M95.6227 164.155C94.9491 164.32 94.2614 164.421 93.5687 164.456L93.218 164.823C93.4236 164.858 93.625 164.914 93.8192 164.99C93.8192 164.99 94.7544 164.456 95.6227 164.155Z" fill="#E2884B"/>
<path d="M96.4407 161.484C95.2019 161.777 93.9474 162 92.6834 162.152L92.2659 162.452C92.469 162.497 92.6697 162.553 92.867 162.619L96.4407 161.484Z" fill="#E2884B"/>
<path d="M91.8154 159.814C93.1347 159.58 95.0217 159.513 96.3075 159.363C94.1366 159.697 91.9491 160.231 91.9491 160.231C91.7549 160.155 91.5535 160.099 91.3479 160.064L91.8154 159.814Z" fill="#E2884B"/>
<path d="M153.436 506.441C153.436 506.441 151.632 480.156 147.741 453.003C146.923 442.984 147.591 433.732 147.34 432.279C146.572 427.62 138.807 356.531 138.807 356.531C138.807 356.531 170.536 343.573 193.414 345.644L204.469 426.585L213.587 506.424C212.322 506.613 211.033 506.545 209.796 506.224C204.201 481.175 195.651 468.15 192.028 449.897C191.159 445.489 192.128 434.083 191.761 429.424C191.527 426.084 183.094 388.895 176.497 376.07C173.775 372.195 164.056 375.302 164.056 378.408C163.672 382.683 159.598 423.212 160.216 429.691C160.833 436.17 163.555 442.9 163.672 450.665C163.789 458.431 159.648 478.253 157.377 506.224C156.112 506.678 154.742 506.753 153.436 506.441Z" fill="#49726C"/>
<path d="M193.414 345.593C170.486 343.523 138.807 356.481 138.807 356.481C138.807 356.481 139.375 359.42 140.16 366.501C146.326 365.192 152.424 363.576 158.429 361.658C170.348 358.199 182.828 357.104 195.167 358.435L193.414 345.593Z" fill="#3E635D"/>
<path d="M94.4702 176.079C94.4702 176.079 91.3976 179.218 88.5587 182.458C94.654 232.89 125.731 276.826 126.967 278.512C133.647 288.231 134.999 361.792 134.732 365.549C159.865 360.222 178 346.495 199.225 351.171C200.628 356.581 180.321 277.61 183.945 272.951C187.569 268.292 214.572 238.3 233.993 203.916L231.822 199.124C231.822 199.124 191.543 244.713 174.71 251.71C163.004 256.314 150.021 256.498 138.189 252.227C138.189 252.227 111.687 242.492 94.4702 176.079Z" fill="#F9C648"/>
<path d="M173.575 253.33C173.575 254.181 165.459 262.848 153.77 262.848C142.08 262.848 133.296 252.177 133.296 251.309C133.296 250.441 142.381 255.4 154.087 255.4C165.793 255.4 173.575 252.395 173.575 253.33Z" fill="#EFB025"/>
<path d="M141.045 261.796C141.109 265.518 142.271 269.137 144.385 272.2L149.244 264.335L141.045 261.796Z" fill="#EFB025"/>
<path d="M157.059 264.134L162.069 270.814C162.069 270.814 164.774 265.169 164.49 261.78L157.059 264.134Z" fill="#EFB025"/>
<path d="M164.057 256.954C163.143 259.261 161.562 261.244 159.515 262.648C157.468 264.052 155.049 264.814 152.567 264.836C143.717 264.652 141.73 259.208 141.78 258.056C141.83 256.904 145.838 254.399 153.235 254.716C160.633 255.033 164.107 255.801 164.057 256.954Z" fill="#E2884B"/>
<path d="M160.015 255.317H160.366C160.366 255.684 159.781 259.742 152.985 259.742C147.157 259.742 145.838 256.67 145.554 255.551L146.105 255.384C143.349 256.135 141.88 257.304 141.846 258.005C141.846 259.158 143.784 264.602 152.634 264.785C155.116 264.764 157.535 264.002 159.582 262.598C161.628 261.194 163.21 259.211 164.123 256.903C164.09 256.235 162.754 255.701 160.015 255.317Z" fill="#FBCAA3"/>
<path d="M136.887 239.753C136.887 239.753 145.921 241.991 146.055 256.102L160.116 255.968C160.116 255.968 156.943 245.13 164.391 238.3L136.887 239.753Z" fill="#E2884B"/>
<path d="M127.401 201.111L167.597 196.552C167.597 196.552 168.131 232.907 165.593 239.603C163.522 245.114 158.913 250.207 152.885 250.608C145.721 251.092 140.026 248.437 137.003 242.876C134.515 238.3 127.401 201.111 127.401 201.111Z" fill="#FBCAA3"/>
<path d="M155.423 222.72C155.452 223.08 155.553 223.431 155.718 223.752C155.884 224.073 156.111 224.358 156.388 224.591C156.664 224.824 156.983 225 157.328 225.109C157.673 225.217 158.035 225.257 158.395 225.225C159.121 225.137 159.783 224.767 160.239 224.196C160.695 223.624 160.909 222.896 160.833 222.169C160.812 221.802 160.717 221.443 160.554 221.114C160.39 220.784 160.162 220.491 159.882 220.253C159.602 220.014 159.277 219.835 158.926 219.725C158.575 219.616 158.206 219.579 157.84 219.616C157.474 219.653 157.12 219.764 156.798 219.942C156.476 220.12 156.194 220.361 155.968 220.651C155.742 220.941 155.577 221.274 155.484 221.63C155.39 221.985 155.369 222.356 155.423 222.72Z" fill="#753B25"/>
<path d="M162.453 220.799C160.342 219.437 157.915 218.643 155.406 218.495V219.23C157.816 219.693 160.184 220.352 162.487 221.2L162.453 220.799Z" fill="#753B25"/>
<path d="M136.953 222.369C138.935 220.684 141.315 219.534 143.867 219.03L144.067 219.781C141.65 220.58 139.304 221.58 137.054 222.77L136.953 222.369Z" fill="#753B25"/>
<path d="M144.301 223.104C144.386 223.855 144.17 224.608 143.7 225.199C143.231 225.791 142.546 226.172 141.796 226.26C141.425 226.295 141.051 226.255 140.696 226.144C140.34 226.034 140.01 225.853 139.724 225.614C139.439 225.375 139.203 225.082 139.031 224.752C138.86 224.421 138.755 224.06 138.724 223.689C138.639 222.938 138.855 222.185 139.324 221.593C139.794 221.002 140.478 220.62 141.228 220.532C141.6 220.496 141.975 220.534 142.331 220.643C142.688 220.753 143.019 220.933 143.305 221.173C143.591 221.412 143.827 221.707 143.998 222.038C144.169 222.37 144.272 222.732 144.301 223.104Z" fill="#753B25"/>
<path d="M134.632 228.965C135.234 231.821 134.165 234.476 132.278 234.894C130.391 235.311 130.057 232.957 129.456 230.084C128.855 227.212 128.237 224.941 130.14 224.523C132.044 224.106 134.048 226.093 134.632 228.965Z" fill="#FBCAA3"/>
<path d="M166.695 226.411C166.277 229.3 167.496 231.888 169.417 232.172C171.337 232.456 171.521 230.084 171.922 227.162C172.322 224.24 172.807 221.935 170.903 221.651C168.999 221.367 167.112 223.505 166.695 226.411Z" fill="#FBCAA3"/>
<path d="M148.326 244.813C149.496 245.304 150.769 245.499 152.033 245.383C153.296 245.266 154.512 244.841 155.573 244.145C155.573 244.145 152.751 250.407 148.326 244.813Z" fill="#E2884B"/>
<path d="M168.615 228.765C168.615 228.765 168.515 224.173 169.918 224.357C171.321 224.54 169.551 232.773 168.615 228.765Z" fill="#E2884B"/>
<path d="M132.445 231.237C132.445 231.237 132.244 226.644 130.775 226.911C129.305 227.179 131.76 235.294 132.445 231.237Z" fill="#E2884B"/>
<path d="M135.951 217.894C138.01 215.288 140.724 213.276 143.817 212.066L142.147 209.01C142.147 209.01 136.052 212.249 135 216.241L135.951 217.894Z" fill="#753E23"/>
<path d="M163.355 216.858C161.138 214.389 158.302 212.556 155.139 211.548L156.575 208.392C156.575 208.392 162.854 211.231 164.14 215.155L163.355 216.858Z" fill="#753E23"/>
<path d="M142.732 237.265C147.968 235.699 153.444 235.088 158.897 235.461C158.897 235.461 153.653 250.741 142.732 237.265Z" fill="#753B25"/>
<path d="M144.434 237.449C148.767 236.177 153.288 235.674 157.794 235.962C153.477 237.309 148.942 237.814 144.434 237.449Z" fill="#E5D8D9"/>
<g style="mix-blend-mode:screen" opacity="0.6">
<path d="M145.887 240.505C151.231 244.947 154.888 242.175 156.942 239.202C150.63 238.434 147.307 239.686 145.887 240.505Z" fill="#753B25"/>
</g>
<path d="M160.499 191.977C159.381 188.921 154.621 184.094 147.725 181.957C136.402 178.483 125.882 184.963 123.26 196.235C128.387 193.012 130.925 196.235 130.925 195.951C130.574 196.252 126.249 197.871 127.585 204.184C128.287 207.524 130.174 214.688 132.595 228.348L133.881 228.648C133.981 219.063 130.725 211.698 134.515 207.039C136.653 204.401 140.828 203.332 149.127 202.614C156.341 201.996 161.117 203.265 163.756 205.804C168.081 209.945 165.426 219.981 166.995 226.461C166.995 226.611 168.181 226.127 168.181 226.127C170.302 206.087 168.315 201.078 171.888 192.143C169.994 191.669 167.989 191.964 166.311 192.962L167.981 187.668C167.981 187.668 161.301 186.533 160.499 191.977Z" fill="#753E23"/>
<path d="M130.925 195.984C130.925 195.984 122.993 198.506 126.566 208.492C126.566 208.492 127.351 205.436 128.938 204.618L130.925 195.984Z" fill="#753E23"/>
<g style="mix-blend-mode:screen" opacity="0.4">
<path d="M124.947 193.613C124.947 193.613 130.758 181.506 141.095 181.723C151.432 181.94 157.627 194.214 159.464 200.744C159.514 200.744 144.034 185.865 124.947 193.613Z" fill="#753E23"/>
</g>
<g style="mix-blend-mode:screen" opacity="0.4">
<path d="M126.166 205.503C126.166 205.503 125.097 198.99 130.925 196.535C129.823 199.758 128.217 202.784 126.166 205.503Z" fill="#753E23"/>
</g>
<g style="mix-blend-mode:screen" opacity="0.4">
<path d="M160.433 200.343C160.433 200.343 158.763 186.883 167.113 187.969C164.073 191.6 161.801 195.809 160.433 200.343Z" fill="#753E23"/>
</g>
<g style="mix-blend-mode:screen" opacity="0.4">
<path d="M171.02 192.594C169.291 192.676 167.609 193.187 166.127 194.081C166.127 194.081 166.795 197.07 171.02 192.594Z" fill="#753E23"/>
</g>
<path d="M147.858 215.84C148.872 217.618 149.386 219.638 149.344 221.684C149.24 223.422 148.772 225.119 147.969 226.664C147.166 228.209 146.047 229.568 144.685 230.652C145.439 231.538 146.407 232.216 147.498 232.619C148.589 233.023 149.765 233.139 150.914 232.956C149.489 232.41 148.217 231.528 147.207 230.385C149.146 227.904 150.172 224.832 150.112 221.684C150.112 218.144 148.927 216.591 147.858 215.84Z" fill="#E2884B"/>
<path d="M209.796 506.174L210.681 511H223.69L213.587 506.374L209.796 506.174Z" fill="#474F5C"/>
<path d="M177.266 372.913L179.604 369.039C173.375 371.561 159.397 373.899 159.397 373.899L162.119 376.604L163.472 383.284H163.589C163.823 380.879 163.99 379.159 164.057 378.441C164.057 375.335 173.776 372.229 176.498 376.103C177.182 377.439 177.884 379.042 178.602 380.845H179.019L177.266 372.913Z" fill="#3E635D"/>
<path d="M197.906 378.575L195.518 361.007L186.851 361.424C186.851 361.424 190.308 378.858 197.906 378.575Z" fill="#3E635D"/>
<path d="M148.509 367.603L140.16 369.273C140.694 374.099 141.329 379.894 142.013 385.972C151.498 382.816 148.509 367.603 148.509 367.603Z" fill="#3E635D"/>
<path d="M166.661 374.617L163.672 357.45L164.44 357.316L167.279 373.565L171.404 372.079L169.116 355.496L169.884 355.396L172.256 372.596L166.661 374.617Z" fill="#3E635D"/>
<path d="M157.376 506.073L156.792 511H144.885L153.435 506.341L157.376 506.073Z" fill="#474F5C"/>
<path d="M161.468 451.266C159.798 481.876 154.571 488.088 151.983 489.241C152.968 499.578 153.435 506.441 153.435 506.441C154.747 506.737 156.117 506.644 157.376 506.174C159.647 478.202 163.822 458.38 163.672 450.615C163.538 444.052 161.585 438.224 160.633 432.647L159.698 430.025C160.599 437.807 161.869 444.002 161.468 451.266Z" fill="#3E635D"/>
<path d="M213.586 506.374L211.031 483.947C210.597 485.801 209.846 487.02 208.61 487.02C206.272 487.02 195.918 455.157 194.098 449.981C192.645 445.806 192.027 435.051 191.827 430.977C191.944 436.254 191.243 445.889 192.027 449.847C195.651 468.099 204.201 481.058 209.796 506.174C211.033 506.495 212.322 506.563 213.586 506.374Z" fill="#3E635D"/>
<path d="M134.565 363.545C134.565 364.363 134.565 364.914 134.565 365.215C159.614 359.905 177.817 346.178 199.058 350.837C199.242 351.538 199.058 350.837 198.624 349.083C177.516 344.708 159.397 358.084 134.565 363.545Z" fill="#FFDD71"/>
<path d="M143.851 269.578C145.808 268.069 147.6 266.356 149.194 264.468C149.194 264.468 146.372 262.798 145.854 253.062C144.759 253.42 143.644 253.715 142.515 253.948C142.515 253.948 138.306 261.028 143.851 269.578Z" fill="#FFDD71"/>
<path d="M162.119 268.61C160.254 267.352 158.569 265.846 157.109 264.134C157.109 264.134 160.316 260.794 159.548 252.194C160.905 252.871 162.319 253.43 163.773 253.864C163.773 253.864 166.578 262.381 162.119 268.61Z" fill="#FFDD71"/>
<path d="M159.497 252.194C159.685 253.976 159.685 255.773 159.497 257.555L164.674 260.143C164.683 258.045 164.379 255.956 163.772 253.947C162.299 253.489 160.868 252.903 159.497 252.194Z" fill="#F4CF67"/>
<path d="M145.888 253.062C144.792 253.42 143.677 253.715 142.548 253.948C141.7 255.494 141.183 257.2 141.028 258.957L146.238 257.287C146.122 255.985 145.971 254.632 145.888 253.062Z" fill="#F4CF67"/>
<g style="mix-blend-mode:multiply" opacity="0.3">
<path d="M138.306 364.714C136.82 322.615 132.495 301.591 131.075 295.662C134.265 320.628 134.949 362.727 134.749 365.549C135.985 365.215 137.17 365.015 138.306 364.714Z" fill="#EFB025"/>
</g>
<g style="mix-blend-mode:multiply" opacity="0.3">
<path d="M194.015 350.369C195.784 350.516 197.542 350.784 199.275 351.171C200.327 355.245 189.122 311.593 185.031 287.713C186.066 301.023 188.638 327.708 194.015 350.369Z" fill="#EFB025"/>
</g>
<path d="M233.993 203.916C219.411 228.367 202.679 251.47 183.995 272.951C183.995 272.951 220.133 223.538 233.024 201.562L233.993 203.916Z" fill="#EFB025"/>
<path d="M88.5587 182.458L90.2286 180.604C90.2286 180.604 90.9967 207.407 116.446 261.613C116.463 261.679 94.0528 225.292 88.5587 182.458Z" fill="#EFB025"/>
<path d="M159.063 227.028L158.896 229.533C161.114 229.541 163.323 229.816 165.476 230.352L165.843 227.947C163.667 227.191 161.362 226.879 159.063 227.028Z" fill="#FA353D"/>
<path d="M158.813 229.784L158.646 232.289C160.774 232.262 162.898 232.52 164.958 233.057L165.425 230.535C163.252 230.063 161.037 229.811 158.813 229.784Z" fill="#FFE7DC"/>
<path d="M141.646 227.963L142.063 230.435C139.858 230.665 137.689 231.159 135.601 231.904L135 229.55C137.086 228.581 139.346 228.041 141.646 227.963Z" fill="#FA353D"/>
<path d="M142.13 230.669L142.548 233.157C140.425 233.339 138.335 233.805 136.336 234.543L135.635 232.071C137.751 231.4 139.926 230.93 142.13 230.669Z" fill="#FFE7DC"/>
<path d="M241.958 245.682C241.958 245.682 188.053 277.093 191.86 289C194.399 296.965 239.587 265.036 239.587 265.036L241.958 245.682Z" fill="#FBCAA3"/>
<path d="M217.027 262.064C217.027 262.064 221.686 268.86 220.784 273.202C220.133 276.308 213.486 281.368 200.043 288.749C213.753 283.272 239.554 265.036 239.554 265.036L241.959 245.682C241.959 245.682 220.55 259.893 217.027 262.064Z" fill="#E2884B"/>
<path d="M289.869 276.425C289.869 276.425 314.918 308.888 324.937 309.824C334.957 310.759 340.434 268.376 339.482 260.644L336.009 260.06C336.009 260.06 335.675 265.654 327.927 280.349C325.723 284.246 323.883 288.338 322.433 292.573C322.433 292.573 305.115 267.524 297.701 248.287L289.869 276.425Z" fill="#FBCAA3"/>
<path d="M324.904 307.836C316.053 307.636 295.33 279.331 290.804 273.018L289.869 276.358C289.869 276.358 314.918 308.822 324.937 309.757C333.053 310.575 338.297 282.337 339.366 267.792C337.195 283.84 331.567 307.987 324.904 307.836Z" fill="#E2884B"/>
<path d="M252.379 506.174C252.379 506.174 252.646 506.441 255.719 506.174C254.934 481.125 257.523 450.231 255.97 444.286C254.417 438.341 250.008 431.578 249.49 428.472C248.973 425.366 254.617 386.456 264.069 377.005C265.371 375.702 273.37 375.335 276.426 376.42C282.204 378.558 292.741 423.562 291.973 429.257C291.205 434.951 287.047 441.18 286.529 445.321C285.494 454.89 290.153 488.74 291.539 506.174H294.879C294.879 506.174 305.75 437.807 306.786 430.81C307.821 423.813 297.467 349.735 297.467 349.735H240.99C240.99 349.735 232.958 422.26 234.778 430.81C235.546 436.504 252.379 506.174 252.379 506.174Z" fill="#474F5C"/>
<path d="M257.489 364.764C270.698 365.148 274.188 366.434 284.308 363.011C289.156 361.66 294.257 361.483 299.187 362.493C298.653 358.552 298.219 355.296 297.901 353.058L240.422 354.912C240.072 358.251 239.571 362.944 239.02 368.421C244.783 365.705 251.126 364.449 257.489 364.764Z" fill="#384049"/>
<path d="M234.243 360.356C246.216 361.377 258.236 361.723 270.247 361.391C280.484 361.174 291.956 358.602 305.215 358.803C305.215 358.803 295.63 285.509 296.148 245.097C296.148 245.097 275.942 235.261 243.311 243.544C243.311 243.544 245.632 289.918 234.243 360.356Z" fill="#FA353D"/>
<g style="mix-blend-mode:multiply" opacity="0.4">
<path d="M290.587 243.928C290.587 244.646 280.784 253.848 268.711 253.848C256.637 253.848 246.851 244.646 246.851 243.928C246.851 243.21 256.52 241.022 268.56 241.022C280.601 241.022 290.587 243.21 290.587 243.928Z" fill="#C7494A"/>
</g>
<path d="M296.148 245.097C296.148 245.097 302.36 247.819 315.569 275.79L301.959 297.934L293.81 289.384L296.148 245.097Z" fill="#FA353D"/>
<path d="M243.311 243.544C233.386 247.941 223.836 253.141 214.755 259.091L233.993 285.509L245.382 281.351C245.382 281.351 252.112 258.056 243.311 243.544Z" fill="#FA353D"/>
<g style="mix-blend-mode:multiply" opacity="0.4">
<path d="M229.919 280.049L246.418 278.112C246.418 278.112 239.738 340.65 240.99 360.673L234.311 360.339C234.311 360.339 241.441 317.923 242.66 282.387L234.11 285.493L229.919 280.049Z" fill="#C7494A"/>
</g>
<path d="M284.492 243.544C284.492 244.83 277.595 252.478 269.346 252.478C261.096 252.478 254.583 244.83 254.583 243.544C254.583 242.258 261.263 241.223 269.613 241.223C277.963 241.223 284.492 242.258 284.492 243.544Z" fill="#E2884B"/>
<path d="M286.312 178.918C286.312 178.918 292.007 177.882 292.992 186.699C293.977 195.517 288.333 215.439 288.333 215.439L286.312 178.918Z" fill="#444444"/>
<path d="M256.437 219.43C261.714 219.547 265.337 210.112 264.569 198.339C263.801 186.566 258.908 176.947 253.648 176.83C248.388 176.713 245.198 179.335 245.966 191.092C246.367 197.22 248.822 205.086 249.54 211.131C251.477 215.957 253.915 219.38 256.437 219.43Z" fill="#444444"/>
<path d="M253.832 226.31C253.832 226.31 262.565 230.268 261.931 244.779H277.11C277.11 244.779 274.906 233.674 283.79 227.663L253.832 226.31Z" fill="#E2884B"/>
<path d="M249.473 186.533L289.034 185.698C289.034 185.698 288.299 222.119 285.26 228.281C282.755 233.291 275.691 239.169 269.847 239.035C262.833 238.868 256.654 233.575 254.166 228.03C252.145 223.421 249.473 186.533 249.473 186.533Z" fill="#FBCAA3"/>
<path d="M254.183 228.014C256.671 233.558 262.85 238.851 269.863 239.018H270.08L269.73 219.347C266.106 218.562 265.338 216.491 265.338 216.491C265.338 216.491 268.961 213.001 269.462 210.663C269.963 208.325 267.008 204.067 267.008 204.067L267.408 187.752L263.634 186.315L249.473 186.616C249.473 186.616 252.145 223.421 254.183 228.014Z" fill="#FFE7DC"/>
<path d="M268.694 212.4C269.039 211.858 269.298 211.267 269.462 210.646C269.98 208.325 267.008 204.05 267.008 204.05L267.408 187.735L263.634 186.299L249.473 186.599C249.473 186.599 250.576 201.896 251.912 213.986C257.464 213.079 263.071 212.549 268.694 212.4Z" fill="#FA353D"/>
<path d="M265.655 207.941C265.772 210.129 263.985 211.381 260.645 211.381C257.305 211.381 255.886 211.782 255.235 209.611C254.583 207.44 254.75 203.432 260.027 204.184C263.551 204.668 265.555 206.188 265.655 207.941Z" fill="#FBCAA3"/>
<path d="M288.166 212.316L285.56 212.55C285.56 212.55 290.57 186.716 284.392 186.633L281.92 183.777L288.466 179.185C288.216 179.586 293.058 181.272 288.166 212.316Z" fill="#444444"/>
<path d="M250.375 212.784L253.932 212.967C253.932 212.967 250.876 198.456 251.995 191.258C252.329 189.071 253.064 187.568 254.383 187.367V184.579L247.202 185.547L250.375 212.784Z" fill="#444444"/>
<path d="M275.241 208.242C275.247 208.847 275.433 209.436 275.775 209.935C276.117 210.434 276.6 210.821 277.162 211.045C277.724 211.27 278.34 211.323 278.932 211.197C279.523 211.071 280.065 210.773 280.487 210.339C280.909 209.905 281.192 209.356 281.302 208.761C281.411 208.166 281.342 207.552 281.102 206.996C280.862 206.441 280.462 205.969 279.954 205.641C279.446 205.312 278.851 205.142 278.246 205.152C277.439 205.165 276.669 205.498 276.106 206.077C275.543 206.656 275.232 207.434 275.241 208.242Z" fill="#753B25"/>
<path d="M282.571 204.634C279.771 204.424 276.962 204.924 274.405 206.087L274.689 206.872C277.317 206.041 280.009 205.433 282.738 205.052L282.571 204.634Z" fill="#753B25"/>
<path d="M256.07 204.902C258.87 204.639 261.692 205.093 264.269 206.221L264.002 206.989C261.357 206.216 258.654 205.657 255.919 205.319L256.07 204.902Z" fill="#753B25"/>
<path d="M263.751 208.242C263.758 208.846 263.585 209.439 263.255 209.945C262.924 210.451 262.451 210.848 261.896 211.085C261.34 211.323 260.726 211.39 260.132 211.279C259.538 211.167 258.99 210.882 258.558 210.459C258.126 210.037 257.829 209.495 257.705 208.904C257.58 208.312 257.634 207.697 257.859 207.136C258.085 206.576 258.471 206.094 258.97 205.753C259.469 205.412 260.057 205.226 260.662 205.219C261.064 205.213 261.463 205.286 261.836 205.434C262.21 205.583 262.55 205.804 262.837 206.086C263.125 206.367 263.353 206.702 263.51 207.072C263.667 207.442 263.749 207.84 263.751 208.242Z" fill="#753B25"/>
<path d="M289.151 181.523C288.884 188.286 277.294 190.574 265.772 190.323C254.249 190.073 241.842 185.664 240.172 175.811C251.561 176.079 265.504 170.117 276.91 170.384C288.316 170.651 289.401 175.427 289.151 181.523Z" fill="#444444"/>
<path d="M262.582 223.855C262.582 223.855 264.82 222.019 270.147 222.186C272.559 222.062 274.955 222.642 277.044 223.855C277.044 223.855 274.105 231.921 269.846 231.921C267.074 231.921 265.221 229.433 262.582 223.855Z" fill="#753B25"/>
<path d="M264.52 223.638C267.768 222.535 271.29 222.535 274.539 223.638C271.206 223.94 267.853 223.94 264.52 223.638Z" fill="#E5D8D9"/>
<g style="mix-blend-mode:screen" opacity="0.6">
<path d="M269.863 227.496C266.356 227.496 265.221 227.279 264.987 228.381C266.189 230.268 267.592 231.871 269.746 231.904C270.207 231.917 270.666 231.843 271.099 231.687C272.609 230.961 273.866 229.797 274.706 228.347C274.572 227.312 273.571 227.496 269.863 227.496Z" fill="#753B25"/>
</g>
<path d="M273.002 200.393L274.422 203.365C277.719 202.229 280.853 200.663 283.74 198.706L282.454 196.769L273.002 200.393Z" fill="#444444"/>
<path d="M265.505 200.393L264.068 203.365C260.772 202.226 257.64 200.659 254.75 198.706L256.053 196.769L265.505 200.393Z" fill="#444444"/>
<path d="M285.661 214.02C285.01 216.725 285.978 219.28 287.832 219.714C289.685 220.148 290.053 217.927 290.687 215.205C291.322 212.483 292.007 210.329 290.153 209.895C288.299 209.461 286.295 211.298 285.661 214.02Z" fill="#FBCAA3"/>
<path d="M264.937 210.312C262.036 210.539 259.148 210.918 256.287 211.448C259.211 212.166 262.297 211.761 264.937 210.312Z" fill="#FA353D"/>
<path d="M274.422 210.279C277.331 210.45 280.229 210.767 283.106 211.231C280.194 212.003 277.098 211.664 274.422 210.279Z" fill="#FBCAA3"/>
<path d="M267.008 204.05C267.954 204.842 268.712 205.834 269.229 206.954C269.746 208.075 270.008 209.296 269.997 210.529C269.842 211.752 269.426 212.928 268.778 213.977C268.13 215.025 267.264 215.923 266.239 216.608C267.302 217.834 268.692 218.732 270.247 219.196C269.096 219.404 267.91 219.256 266.845 218.773C265.78 218.29 264.887 217.494 264.286 216.491C264.286 216.491 268.828 213.368 269.078 210.78C269.329 208.191 267.008 204.05 267.008 204.05Z" fill="#E2884B"/>
<path d="M266.49 232.923C267.591 233.495 268.814 233.794 270.055 233.794C271.296 233.794 272.519 233.495 273.62 232.923C273.62 232.923 270.381 238.634 266.49 232.923Z" fill="#E2884B"/>
<path d="M339.499 264.151C339.499 264.151 340.485 246.95 338.998 244.245C337.512 241.54 330.649 242.792 329.496 243.277C329.212 243.394 328.211 243.611 328.244 244.312C327.942 244.466 327.694 244.708 327.533 245.006C327.372 245.305 327.305 245.645 327.342 245.982L327.509 246.416C327.332 246.576 327.18 246.762 327.058 246.967C326.818 247.571 326.721 248.223 326.774 248.871C327.172 249.924 327.945 250.792 328.945 251.309C329.78 251.777 330.658 252.163 331.567 252.461C331.567 252.461 331.35 256.369 333.404 257.972C334.615 258.844 335.446 260.147 335.725 261.613L339.499 264.151Z" fill="#FBCAA3"/>
<path d="M332.519 257.004C332.084 255.786 331.937 254.484 332.091 253.2C332.244 251.917 332.694 250.686 333.404 249.606C332.489 249.682 331.568 249.568 330.699 249.272C330.699 249.272 332.202 250.29 331.784 251.56C331.367 252.829 329.129 251.459 328.845 251.309C329.649 251.874 330.492 252.382 331.367 252.829C331.526 254.273 331.915 255.682 332.519 257.004Z" fill="#E2884B"/>
<path d="M327.008 247.134C327.008 247.234 327.108 246.032 332.135 246.366C336.426 246.65 336.143 246.199 336.143 246.199C336.143 246.199 327.559 246.199 327.325 246.049L327.492 246.483C327.284 246.661 327.119 246.884 327.008 247.134Z" fill="#E2884B"/>
<path d="M328.244 244.312C331.33 243.763 334.476 243.639 337.596 243.945C337.596 243.945 337.479 243.594 332.586 243.694C328.177 243.778 328.244 244.312 328.244 244.312Z" fill="#E2884B"/>
<path d="M287.314 216.408C287.314 216.408 287.598 212.049 288.984 212.333C290.37 212.617 287.898 220.298 287.314 216.408Z" fill="#E2884B"/>
<path d="M242.645 311.144C251.044 302.745 251.044 289.126 242.645 280.726C234.245 272.327 220.626 272.327 212.227 280.726C203.827 289.126 203.827 302.745 212.227 311.144C220.626 319.544 234.245 319.544 242.645 311.144Z" fill="#333333"/>
<path d="M215.607 283.94L219.03 278.011L218.179 276.542C214.726 278.195 211.775 280.737 209.629 283.906H215.607V283.94Z" fill="#FFE7DC"/>
<path d="M219.031 278.011H225.944V277.878L227.948 274.421C225.862 274.368 223.779 274.627 221.769 275.189C220.555 275.515 219.375 275.957 218.246 276.508L219.031 278.011Z" fill="#FFE7DC"/>
<path d="M229.351 295.963L225.877 289.952L225.894 289.935H219.081V289.952L215.607 295.963L219.047 301.925H225.911L229.351 295.963Z" fill="#FFE7DC"/>
<path d="M208.694 295.946L206.406 291.972C206.406 291.972 206.406 291.972 206.406 291.855C205.88 294.557 205.88 297.335 206.406 300.038L208.76 295.946H208.694Z" fill="#FFE7DC"/>
<path d="M208.61 295.963H215.607L219.08 289.951L215.607 283.956H209.629C207.98 286.354 206.843 289.065 206.289 291.922C206.306 292.039 208.526 295.796 208.61 295.963Z" fill="#FFE7DC"/>
<path d="M219.08 314.015H218.997L215.54 308.02H209.679C211.854 311.217 214.847 313.772 218.346 315.418L219.08 314.015Z" fill="#FFE7DC"/>
<path d="M225.961 278.045L229.3 283.94H236.264L239.604 278.228C237.913 277.061 236.063 276.145 234.11 275.506C232.088 274.839 229.976 274.485 227.848 274.454L225.844 277.911L225.961 278.045Z" fill="#FFE7DC"/>
<path d="M225.877 289.951L229.351 295.963L229.367 295.946H236.331L236.348 295.963L239.821 289.951L236.348 283.939L236.331 283.906H229.367L229.351 283.939L225.894 289.934L225.877 289.951Z" fill="#FFE7DC"/>
<path d="M229.351 308.003L229.367 307.97H229.417L225.944 301.941L225.927 301.925H225.91H219.047H218.964L218.947 301.941L215.473 307.97H215.49V307.986L218.947 313.981L218.964 313.948H219.047H225.91L225.944 313.881L229.351 308.003Z" fill="#FFE7DC"/>
<path d="M246.718 301.992H239.888L236.415 308.02L239.754 313.681C243.419 311.171 246.218 307.59 247.77 303.428L246.918 301.941L246.718 301.992Z" fill="#FFE7DC"/>
<path d="M239.621 313.664L236.281 308.003H229.284L225.944 313.881L227.914 317.221C232.094 317.151 236.16 315.85 239.604 313.481L239.621 313.664Z" fill="#FFE7DC"/>
<path d="M246.718 289.951H239.888L236.398 295.98L239.838 301.942H246.668L248.722 298.368C248.897 296.775 248.897 295.168 248.722 293.575L246.718 289.951Z" fill="#FFE7DC"/>
<path d="M246.718 289.951L248.822 293.575C248.616 291.819 248.207 290.093 247.603 288.432L246.734 289.935L246.718 289.951Z" fill="#FFE7DC"/>
<g style="mix-blend-mode:multiply">
<path d="M248.371 291.003C248.565 292.201 248.666 293.413 248.672 294.627C248.675 298.575 247.619 302.451 245.615 305.852C243.611 309.254 240.731 312.055 237.276 313.965C233.821 315.875 229.917 316.824 225.971 316.712C222.024 316.6 218.18 315.432 214.839 313.33C218.045 315.665 221.835 317.066 225.788 317.378C229.742 317.691 233.705 316.902 237.238 315.1C240.77 313.299 243.735 310.554 245.804 307.17C247.872 303.786 248.963 299.895 248.956 295.929C248.948 294.271 248.752 292.618 248.371 291.003Z" fill="#D3CCCB"/>
</g>
<g style="mix-blend-mode:screen" opacity="0.3">
<path d="M220.249 299.437C226.069 299.437 230.787 294.719 230.787 288.899C230.787 283.08 226.069 278.362 220.249 278.362C214.43 278.362 209.712 283.08 209.712 288.899C209.712 294.719 214.43 299.437 220.249 299.437Z" fill="#FFE7DC"/>
</g>
<g style="mix-blend-mode:multiply">
<path d="M227.447 274.438H226.228C229.854 274.726 233.293 276.166 236.043 278.547C238.794 280.927 240.711 284.124 241.517 287.672C242.322 291.219 241.973 294.931 240.521 298.266C239.068 301.601 236.588 304.384 233.442 306.21C230.296 308.037 226.649 308.81 223.033 308.418C219.416 308.025 216.02 306.488 213.339 304.029C210.658 301.571 208.833 298.32 208.129 294.751C207.426 291.182 207.881 287.482 209.428 284.19C207.317 287.434 206.121 291.188 205.967 295.055C205.812 298.922 206.705 302.759 208.55 306.161C210.396 309.563 213.126 312.404 216.452 314.383C219.778 316.362 223.577 317.406 227.447 317.405C230.321 317.485 233.182 316.988 235.86 315.944C238.539 314.899 240.981 313.328 243.042 311.324C245.103 309.32 246.741 306.922 247.86 304.274C248.979 301.625 249.555 298.78 249.555 295.905C249.555 293.03 248.979 290.184 247.86 287.535C246.741 284.887 245.103 282.49 243.042 280.485C240.981 278.481 238.539 276.91 235.86 275.866C233.182 274.821 230.321 274.324 227.447 274.404V274.438Z" fill="#D3CCCB"/>
</g>
<path d="M231.872 283.856H229.351V284.023H231.872V283.856Z" fill="#333333"/>
<path d="M236.348 283.856H233.826V284.023H236.348V283.856Z" fill="#333333"/>
<path d="M229.2 296.013L227.964 293.809L228.115 293.725L229.35 295.93L229.2 296.013Z" fill="#333333"/>
<path d="M227.063 292.172L225.81 289.968L225.96 289.885L227.196 292.089L227.063 292.172Z" fill="#333333"/>
<path d="M239.798 289.909L238.539 292.094L238.684 292.177L239.943 289.992L239.798 289.909Z" fill="#333333"/>
<path d="M237.59 293.759L236.331 295.944L236.476 296.027L237.735 293.842L237.59 293.759Z" fill="#333333"/>
<path d="M217.945 292.206H217.795C218.864 290.385 218.997 290.085 219.014 290.035C219.014 290.035 219.214 290.068 217.945 292.206Z" fill="#333333"/>
<path d="M215.691 296.013H215.54L216.843 293.842H216.976L215.691 296.013Z" fill="#333333"/>
<path d="M221.569 301.841H219.047V302.008H221.569V301.841Z" fill="#333333"/>
<path d="M225.911 301.841H223.389V302.008H225.911V301.841Z" fill="#333333"/>
<path d="M227.812 274.416L225.812 277.888L225.956 277.972L227.957 274.499L227.812 274.416Z" fill="#333333"/>
<path d="M218.256 276.383L218.112 276.466L218.972 277.955L219.116 277.872L218.256 276.383Z" fill="#333333"/>
<path d="M248.739 293.625L246.651 289.968L246.802 289.885L248.889 293.542L248.739 293.625Z" fill="#333333"/>
<path d="M239.912 301.894L239.912 302.061L242.433 302.069L242.434 301.902L239.912 301.894Z" fill="#333333"/>
<path d="M246.734 302.025H244.213V301.858H246.734V302.025Z" fill="#333333"/>
<path d="M236.349 307.966L236.204 308.049L237.465 310.233L237.61 310.149L236.349 307.966Z" fill="#333333"/>
<path d="M238.389 311.484L238.245 311.568L239.505 313.752L239.65 313.668L238.389 311.484Z" fill="#333333"/>
<path d="M228.215 310.208L228.065 310.124L229.334 307.937L229.484 308.02L228.215 310.208Z" fill="#333333"/>
<path d="M225.994 313.998L225.844 313.915L227.113 311.727L227.263 311.811L225.994 313.998Z" fill="#333333"/>
<path d="M215.572 307.874L215.427 307.957L216.688 310.141L216.833 310.057L215.572 307.874Z" fill="#333333"/>
<path d="M217.75 311.714L217.606 311.797L218.866 313.981L219.011 313.897L217.75 311.714Z" fill="#333333"/>
<path d="M206.423 291.796L206.278 291.879L208.625 295.943L208.769 295.86L206.423 291.796Z" fill="#333333"/>
<path d="M215.607 283.856H213.086V284.023H215.607V283.856Z" fill="#333333"/>
<path d="M211.95 283.856H209.428V284.023H211.95V283.856Z" fill="#333333"/>
<path d="M191.827 289.383C191.827 289.383 196.637 305.715 221.619 317.371C221.672 316.423 221.846 315.486 222.137 314.583C215.791 312.378 209.646 297.883 204.335 288.999C199.709 281.351 192.579 280.483 191.827 289.383Z" fill="#FBCAA3"/>
<path d="M221.619 317.372C224.04 318.462 226.663 319.031 229.317 319.041C231.729 318.772 233.986 317.722 235.747 316.052C236.248 315.785 236.532 315.434 236.298 315.284C234.47 315.121 232.631 315.121 230.804 315.284C229.134 315.284 226.779 315.935 225.794 315.05C224.378 315.09 222.963 314.944 221.586 314.616L221.619 317.372Z" fill="#FBCAA3"/>
<path d="M221.552 314.683C223.039 313.727 224.652 312.985 226.345 312.479C227.364 312.562 228.683 312.579 228.549 313.08C228.416 313.581 226.312 313.648 226.312 313.648C226.312 313.648 225.376 314.833 225.944 315.318C225.944 315.268 222.354 316.637 221.552 314.683Z" fill="#FBCAA3"/>
<path d="M235.763 316.119C234.092 316.663 232.344 316.934 230.586 316.921C230.586 316.921 230.586 317.522 235.396 316.436L235.763 316.119Z" fill="#E2884B"/>
<path d="M233.626 317.722C232.508 318.031 231.36 318.221 230.203 318.29C230.203 318.29 229.735 318.691 233.092 318.023L233.626 317.722Z" fill="#E2884B"/>
<path d="M228.482 313.08C227.769 313.23 227.04 313.297 226.311 313.28C226.311 313.28 225.376 314.132 225.694 314.95C225.744 314.479 225.93 314.032 226.228 313.664C226.228 313.664 227.898 313.664 228.365 313.247C228.418 313.202 228.458 313.145 228.482 313.08Z" fill="#E2884B"/>
<g style="mix-blend-mode:screen" opacity="0.2">
<path d="M241.107 176.212C241.107 176.212 250.826 189.021 271.934 185.013C293.042 181.005 286.429 173.089 284.358 172.054C282.287 171.019 274.339 170.117 263.785 172.321C253.231 174.526 246.167 176.346 241.107 176.212Z" fill="#444444"/>
</g>
<path d="M281.519 168.046C281.519 168.046 281.419 169.316 284.976 171.386C286.298 172.227 287.344 173.439 287.983 174.87C288.621 176.302 288.824 177.889 288.566 179.435L289.618 180.087C289.618 180.087 290.687 174.843 287.214 172.121C284.408 169.833 282.872 170.501 281.519 168.046Z" fill="#444444"/>
<path d="M245.349 174.392C245.628 174.741 245.985 175.019 246.391 175.204C246.797 175.39 247.24 175.478 247.687 175.461C249.139 175.361 256.621 173.708 256.621 173.708C256.621 173.708 248.655 175.077 245.349 174.392Z" fill="#444444"/>
<path d="M289.619 180.02C289.619 180.02 289.452 176.813 293.827 175.361C292.992 175.701 292.302 176.321 291.873 177.114C291.389 178.283 291.389 180.22 290.604 180.805C289.819 181.389 289.619 180.02 289.619 180.02Z" fill="#444444"/>
<path d="M251.577 210.747C251.25 210.456 250.859 210.244 250.436 210.128C250.014 210.012 249.57 209.995 249.139 210.079C247.286 210.513 247.954 212.684 248.588 215.389C249.223 218.094 249.607 220.399 251.461 219.914C251.866 219.805 252.238 219.599 252.546 219.313C252.212 216.725 251.861 213.786 251.577 210.747Z" fill="#FBCAA3"/>
<path d="M251.528 216.408C251.528 216.408 251.244 212.049 249.858 212.333C248.472 212.617 250.96 220.298 251.528 216.408Z" fill="#E2884B"/>
<g style="mix-blend-mode:multiply">
<g style="mix-blend-mode:multiply">
<path d="M269.947 237.849C266.615 237.636 263.395 236.567 260.598 234.744C257.801 232.922 255.522 230.408 253.982 227.446C253.982 227.663 254.116 227.847 254.183 228.014C256.671 233.558 262.85 238.851 269.863 239.018H270.08V237.866L269.947 237.849Z" fill="#EDE5CE"/>
</g>
</g>
<path d="M283.256 242.609C281.77 245.682 273.671 247.502 269.73 247.619C262.616 247.836 256.521 245.297 255.402 242.793C254.884 243.026 254.583 243.277 254.583 243.544C254.583 244.83 261.079 252.478 269.346 252.478C277.612 252.478 284.492 244.83 284.492 243.544C284.492 243.21 284.041 242.909 283.256 242.609Z" fill="#FBCAA3"/>
<g style="mix-blend-mode:multiply" opacity="0.4">
<path d="M294.979 283.388L305.483 292.256L301.976 297.95L298.285 294.076C298.285 294.076 300.423 321.012 305.216 358.819C304.03 358.919 300.857 358.819 296.148 359.036C294.678 359.086 300.607 346.495 294.979 283.388Z" fill="#C7494A"/>
</g>
<g style="mix-blend-mode:multiply" opacity="0.4">
<path d="M270.23 359.571C258.315 359.877 246.392 359.554 234.51 358.602C234.41 359.187 234.327 359.771 234.227 360.356C246.199 361.377 258.219 361.723 270.23 361.391C280.467 361.174 291.939 358.602 305.199 358.802C305.199 358.802 305.115 358.168 304.965 356.966C291.939 356.865 280.45 359.37 270.23 359.571Z" fill="#C7494A"/>
</g>
<path d="M252.262 289.317C251.863 288.35 251.767 287.284 251.988 286.261C252.209 285.238 252.735 284.306 253.498 283.589C255.407 284.805 257.439 285.818 259.559 286.612C261.897 286.612 263.183 286.055 263.417 284.942C263.968 282.32 263.3 280.834 261.413 280.45C259.349 280.445 257.286 280.557 255.234 280.784C254.692 280.862 254.14 280.755 253.666 280.479C253.193 280.203 252.828 279.775 252.629 279.264L253.531 268.359C253.531 267.992 254.032 267.741 254.834 267.625L268.343 267.374C268.791 268.186 269.004 269.106 268.96 270.031C268.916 270.957 268.615 271.852 268.093 272.618L258.491 272.801L258.04 275.657C259.996 275.389 261.979 275.389 263.935 275.657C265.468 275.965 266.855 276.776 267.876 277.961C269.061 279.264 269.379 281.719 268.828 285.359C268.723 286.516 268.342 287.631 267.717 288.61C267.092 289.589 266.242 290.404 265.237 290.987C263.447 292.028 261.362 292.445 259.309 292.173C256.767 291.793 254.351 290.814 252.262 289.317Z" fill="#EDD2CB"/>
<path d="M272.685 289.317C272.286 288.35 272.191 287.284 272.411 286.261C272.632 285.238 273.159 284.306 273.921 283.589C275.831 284.805 277.863 285.818 279.983 286.612C282.337 286.612 283.607 286.011 283.84 284.942C284.392 282.32 283.724 280.834 281.836 280.45C279.778 280.445 277.721 280.557 275.674 280.784C275.13 280.863 274.575 280.757 274.099 280.481C273.623 280.205 273.254 279.776 273.053 279.264L273.988 268.426C273.988 268.059 274.489 267.808 275.29 267.691L288.8 267.441C289.25 268.251 289.466 269.17 289.425 270.096C289.384 271.021 289.086 271.918 288.566 272.685L278.947 272.868L278.513 275.724C280.469 275.456 282.452 275.456 284.408 275.724C285.937 276.033 287.318 276.844 288.333 278.028C289.518 279.331 289.852 281.786 289.284 285.426C289.183 286.584 288.804 287.7 288.179 288.68C287.554 289.66 286.702 290.474 285.694 291.054C283.909 292.093 281.83 292.51 279.782 292.239C277.217 291.845 274.784 290.843 272.685 289.317Z" fill="#EDD2CB"/>
<g style="mix-blend-mode:screen" opacity="0.5">
<path d="M220.266 258.34C220.266 258.34 225.176 270.246 228.616 268.96C232.056 267.675 246.685 249.239 244.347 246.65C242.009 244.062 220.266 258.34 220.266 258.34Z" fill="#FA353D"/>
</g>
<path d="M255.735 506.174V511H243.829L252.379 506.174H255.735Z" fill="#474F5C"/>
<path d="M291.489 506.174V511H303.395L294.862 506.174H291.489Z" fill="#474F5C"/>
<g style="mix-blend-mode:screen" opacity="0.2">
<path d="M246.417 185.364C246.417 185.364 245.733 194.197 248.087 196.151C250.442 198.105 249.757 188.57 250.809 187.501L246.417 185.364Z" fill="#444444"/>
</g>
<path d="M280.35 376.287L283.072 373.047C274.906 374.717 258.341 373.431 258.341 373.431L260.662 377.189C259.109 379.91 257.689 388.076 257.689 388.076H257.957C259.259 384.024 261.347 380.267 264.102 377.022C265.404 375.719 273.403 375.352 276.459 376.437C278.129 377.072 280.283 381.447 282.421 387.442H282.555C281.269 380.245 280.35 376.287 280.35 376.287Z" fill="#384049"/>
<path d="M301.959 436.054C297.1 436.338 294.127 431.996 291.939 427.27C292.006 427.93 292.006 428.596 291.939 429.257C291.155 434.951 287.013 441.18 286.495 445.322C285.46 454.89 290.119 488.74 291.505 506.174H294.845C294.845 506.174 305.549 438.876 306.718 431.027C306.234 433.515 304.948 435.887 301.959 436.054Z" fill="#333333"/>
<path d="M256.003 444.286C254.45 438.325 250.041 431.578 249.523 428.472C249.455 427.678 249.455 426.879 249.523 426.084C248.238 429.424 245.248 436.02 241.174 436.438C240.006 436.461 238.851 436.191 237.815 435.651C236.779 435.111 235.895 434.319 235.246 433.348C238.135 447.226 252.379 506.174 252.379 506.174C252.379 506.174 252.646 506.441 255.719 506.174C254.967 481.058 257.556 450.231 256.003 444.286Z" fill="#333333"/>
<path d="M72.3606 83.8652C72.3606 83.8652 144.168 59 270.899 59C397.63 59 476.801 92.7994 476.801 92.7994L451.167 154.971C451.167 154.971 396.377 129.755 272.452 129.755C129.873 129.755 91.7986 154.62 91.7986 154.62L72.3606 83.8652Z" fill="#FBFEFF"/>
<path d="M270.899 93.5842C366.953 93.5842 435.721 115.026 463.358 125.396L476.801 92.7994C476.801 92.7994 397.546 59 270.899 59C144.251 59 72.3606 83.8652 72.3606 83.8652L81.9293 118.65C105.342 111.185 171.104 93.5842 270.899 93.5842Z" fill="#EBFAFF"/>
<g style="mix-blend-mode:multiply" opacity="0.3">
<path d="M430.31 78.104C464.427 95.6216 462.59 114.842 460.102 121.522C457.38 128.903 424.749 124.244 424.749 124.244C424.749 124.244 456.611 130.84 450.383 140.943C444.154 151.047 372.681 127.734 265.02 126.181C157.36 124.628 103.404 148.325 96.3573 143.665C89.3102 139.006 104.523 121.522 104.523 121.522C104.523 121.522 90.9133 123.459 92.4664 117.631C94.0194 111.803 121.991 104.806 121.991 104.806C92.4664 108.313 83.5823 97.8259 85.8701 88.491C87.2228 83.1138 108.314 76.0667 125.948 71.0569C90.8799 77.3859 72.2603 83.8318 72.2603 83.8318L91.6983 154.537C91.6983 154.537 129.956 129.755 272.451 129.755C396.377 129.755 451.134 155.021 451.134 155.021L476.767 92.8495C476.767 92.8495 460.302 85.769 430.31 78.104Z" fill="#AEDAE9"/>
</g>
<path d="M139.722 104.942L130.421 98.2541L123.733 107.555L133.034 114.243L139.722 104.942Z" fill="#F20912"/>
<path d="M424.468 113.293L419.45 104.601L410.758 109.619L415.776 118.311L424.468 113.293Z" fill="#F20912"/>
<path d="M240.008 82.2753L245.555 81.8083C245.619 82.569 245.683 83.3296 245.747 84.0917C246.989 84.1294 248.256 83.994 249.465 84.3607C250.543 84.4985 251.493 85.0451 252.448 85.5253C253.012 85.952 253.568 86.4011 254.079 86.8913C254.618 87.5831 255.232 88.2486 255.538 89.0866C256.398 90.8481 256.573 92.8713 256.345 94.7976C256.127 95.5849 256.071 96.4333 255.654 97.1539C255.356 97.6949 255.138 98.2896 254.723 98.7586C254.189 99.3669 253.72 100.056 253.014 100.482C252.326 101.029 251.565 101.468 250.731 101.748C249.663 102.282 248.451 102.322 247.303 102.567C247.382 103.496 247.459 104.426 247.538 105.355L241.99 105.822C241.912 104.893 241.832 103.963 241.759 103.033C241.089 103.024 240.421 103.024 239.754 103.021C238.981 103.027 238.243 102.772 237.491 102.63C236.778 102.493 236.162 102.09 235.509 101.798C234.917 101.531 234.477 101.041 233.975 100.646C233.31 100.142 232.884 99.4115 232.389 98.7562C231.094 96.4349 230.671 93.5947 231.416 91.0283C231.545 90.2744 231.983 89.6354 232.317 88.9634C232.609 88.384 233.111 87.9566 233.508 87.4532C233.949 86.9045 234.586 86.5792 235.137 86.1592C235.694 85.7257 236.39 85.5506 237.028 85.2756C238.026 84.8207 239.145 84.7984 240.202 84.5571C240.135 83.7967 240.072 83.036 240.008 82.2753ZM238.822 89.6847C238.473 89.9024 238.191 90.2107 237.869 90.4635C237.393 90.7954 237.273 91.3961 237.003 91.8744C236.723 92.3522 236.821 92.9231 236.745 93.4483C236.638 94.1429 236.92 94.8061 237.045 95.4782C237.149 96.0501 237.575 96.4813 237.863 96.9673C238.089 97.4139 238.577 97.5927 238.965 97.8648C239.638 98.4175 240.563 98.2548 241.366 98.4099C241.107 95.3317 240.847 92.255 240.591 89.1766C240.005 89.3624 239.398 89.4753 238.822 89.6847ZM246.914 97.9458C247.503 97.7712 248.103 97.6272 248.683 97.4231C249.045 97.1915 249.337 96.8665 249.67 96.5956C250.145 96.2553 250.24 95.6465 250.484 95.1531C250.789 94.5871 250.677 93.9267 250.753 93.3124C250.833 92.6747 250.573 92.0715 250.449 91.4581C250.339 90.9299 249.949 90.5302 249.671 90.085C249.408 89.6056 248.858 89.4392 248.428 89.1505C247.763 88.6892 246.901 88.8609 246.143 88.7105C246.388 91.7899 246.659 94.8672 246.914 97.9458Z" fill="#F20912"/>
<path d="M213.058 84.3163C213.954 84.1584 214.838 83.931 215.74 83.8084C216.558 83.7941 217.375 83.8876 218.194 83.9018C219.207 83.8861 220.124 84.3699 221.085 84.6193C222.055 84.8494 222.805 85.5408 223.651 86.0256C224.506 86.4824 225.027 87.3301 225.698 87.9986C226.438 88.7066 226.726 89.7178 227.224 90.5858C227.649 91.2869 227.692 92.1209 227.877 92.9014C228.033 93.5992 228.195 94.3097 228.102 95.0302C227.993 96.0563 228.142 97.1325 227.729 98.1049C227.388 99.0089 227.261 100.013 226.666 100.801C226.093 101.597 225.691 102.54 224.902 103.157C224.143 103.767 223.518 104.579 222.592 104.948C221.677 105.346 220.839 105.965 219.831 106.108C219.074 106.256 218.316 106.404 217.566 106.588L217.343 106.605C216.333 106.524 215.319 106.504 214.311 106.416C213.427 106.221 212.588 105.862 211.72 105.613C210.9 105.328 210.254 104.716 209.511 104.287C208.665 103.815 208.148 102.972 207.489 102.292C206.728 101.564 206.439 100.523 205.932 99.6295C205.521 98.9418 205.459 98.1308 205.293 97.3647C205.164 96.6792 204.949 95.9928 205.026 95.2863C205.093 94.4758 205.084 93.6579 205.189 92.8504C205.366 92.1049 205.666 91.395 205.88 90.6597C206.116 89.7707 206.776 89.0931 207.234 88.3183C207.734 87.4112 208.653 86.8754 209.376 86.1687C209.924 85.6171 210.671 85.3667 211.348 85.0196C211.906 84.7573 212.438 84.4123 213.058 84.3163ZM215.598 89.0101C215.005 89.2175 214.367 89.3134 213.802 89.5934C213.237 90.0385 212.657 90.4719 212.127 90.959C211.746 91.6434 211.352 92.33 211.036 93.0469C210.93 93.8474 210.831 94.6517 210.772 95.4574C210.9 96.1731 211.125 96.8673 211.29 97.5761C211.372 98.1244 211.797 98.5138 212.087 98.9591C212.42 99.3941 212.66 99.9393 213.174 100.196C213.746 100.505 214.251 100.948 214.856 101.188C215.575 101.301 216.299 101.416 217.024 101.479C217.776 101.296 218.529 101.086 219.259 100.829C219.872 100.351 220.471 99.8447 221.027 99.304C221.406 98.6198 221.763 97.9171 222.1 97.2116C222.204 96.351 222.313 95.4856 222.366 94.6201C222.195 93.8357 221.978 93.0576 221.758 92.2869C221.462 91.7271 221.017 91.2616 220.667 90.7374C220.288 90.099 219.523 89.907 218.95 89.494C218.426 89.0889 217.746 89.1016 217.124 89.0067C216.617 88.9422 216.091 88.7929 215.598 89.0101Z" fill="#F20912"/>
<path d="M263.391 84.4142C264.886 83.1024 266.785 82.3391 268.717 81.9509C269.711 81.8707 270.708 81.7161 271.707 81.7863C273.172 81.8693 274.623 82.1815 275.991 82.7114C277.347 83.2742 278.666 84.2108 279.194 85.6372C279.561 87.0049 279.383 88.4299 279.423 89.8262C277.771 89.8219 276.12 89.8277 274.467 89.8234C274.465 89.4109 274.483 88.9985 274.445 88.5874C274.427 88.1134 274.084 87.7253 273.705 87.479C272.708 86.9219 271.527 86.7801 270.402 86.8918C268.617 87.0221 266.852 88.0132 266.009 89.6257C264.595 92.3181 265.101 95.9944 267.435 98.0194C268.4 98.9088 269.675 99.4544 270.992 99.4902C273.434 99.5633 275.823 98.4376 277.504 96.699C278.431 98.0395 279.413 99.3399 280.323 100.692C278.979 102.047 277.35 103.116 275.568 103.792C274.216 104.334 272.763 104.5 271.325 104.63H271.043C270.165 104.524 269.273 104.51 268.402 104.348C267.372 104.036 266.287 103.837 265.37 103.241C264.353 102.794 263.527 102.047 262.693 101.333C261.402 99.9041 260.347 98.2113 259.912 96.3181C259.55 95.2583 259.545 94.1283 259.458 93.0242C259.524 91.8699 259.596 90.697 259.978 89.5942C260.219 88.4929 260.816 87.5248 261.384 86.5667C262.006 85.8091 262.58 84.9885 263.391 84.4142Z" fill="#F20912"/>
<path d="M158 90.7098C163.925 89.983 169.85 89.2605 175.775 88.5323C176.331 88.4728 176.94 88.4112 177.443 88.7118C178.048 89.0359 178.307 89.7459 178.379 90.3921C178.954 95.1364 179.543 99.8776 180.116 104.622C180.162 104.957 180.214 105.432 180.63 105.493C181.17 105.532 181.707 105.391 182.245 105.345C182.434 106.885 182.624 108.424 182.811 109.964C181.028 110.178 179.247 110.403 177.464 110.617C176.859 110.671 176.155 110.65 175.69 110.207C175.191 109.753 175.085 109.053 174.993 108.421C174.411 103.676 173.837 98.9312 173.248 94.1887C173.244 93.814 172.877 93.5142 172.509 93.6054C170.372 93.8613 168.236 94.13 166.099 94.3873C166.803 100.175 167.516 105.961 168.223 111.748C166.381 111.974 164.539 112.202 162.697 112.423C161.989 106.638 161.278 100.851 160.574 95.0652C159.904 95.1472 159.233 95.2293 158.564 95.3113L158 90.7098Z" fill="#F20912"/>
<path d="M183.334 86.9675C186.828 86.6555 190.321 86.3463 193.815 86.0357C194.564 86.0036 195.314 86.0476 196.061 86.0933C196.972 86.3559 197.941 86.5473 198.69 87.1693C199.516 87.6106 200.065 88.3857 200.643 89.0963C200.945 89.6675 201.216 90.2574 201.482 90.8463C201.656 91.59 201.832 92.3407 201.915 93.0996C201.891 94.0765 201.982 95.0821 201.625 96.0139C201.455 96.9981 200.888 97.8349 200.363 98.6608C199.894 99.1023 199.482 99.6205 198.952 99.9883C198.221 100.339 197.543 100.847 196.718 100.949C195.251 101.335 193.728 101.344 192.23 101.505C192.426 103.782 192.634 106.058 192.833 108.335C190.985 108.501 189.138 108.664 187.291 108.828C186.773 103.022 186.257 97.2149 185.74 91.4091C185.075 91.4653 184.409 91.526 183.745 91.5851C183.606 90.046 183.47 88.5068 183.334 86.9675ZM191.288 90.9158C191.459 92.9049 191.643 94.8928 191.814 96.8818C192.91 96.7743 194.056 96.799 195.078 96.3343C195.345 96.1308 195.604 95.9094 195.82 95.6515C196.33 94.7766 196.352 93.6991 196.109 92.7388C195.942 91.8493 195.291 91.0344 194.39 90.8255C193.36 90.6209 192.319 90.8515 191.288 90.9158Z" fill="#F20912"/>
<path d="M283.606 82.471C289.644 82.8476 295.683 83.1984 301.72 83.5793C302.362 83.5939 303.043 83.8232 303.416 84.3767C303.819 85.0397 303.698 85.8429 303.659 86.578C303.381 91.0994 303.111 95.6226 302.833 100.145C302.815 100.49 302.781 100.931 303.141 101.122C303.681 101.243 304.244 101.214 304.793 101.263C304.699 102.811 304.605 104.359 304.511 105.907C302.751 105.806 300.992 105.692 299.232 105.591C298.637 105.558 298.002 105.403 297.569 104.971C297.132 104.518 297.08 103.851 297.107 103.254C297.396 98.3905 297.7 93.5264 297.988 88.6628C298.026 88.3308 297.789 87.9735 297.44 87.9609C295.26 87.82 293.08 87.6948 290.901 87.5611C290.548 93.3806 290.193 99.2 289.843 105.02C287.996 104.906 286.149 104.795 284.304 104.682C284.655 98.8637 285.009 93.0443 285.362 87.2262C284.682 87.1792 283.999 87.1506 283.32 87.0922C283.426 85.552 283.51 84.0118 283.606 82.471Z" fill="#F20912"/>
<path d="M310.644 83.7635C313.932 84.0366 317.224 84.2857 320.512 84.5761C320.371 86.1122 320.275 87.6532 320.122 89.1884C319.354 89.1201 318.584 89.0589 317.816 89.0008C317.462 93.2624 317.124 97.5268 316.771 101.79C317.546 101.862 318.324 101.901 319.098 101.997C318.957 103.537 318.846 105.08 318.715 106.621C315.426 106.349 312.137 106.084 308.85 105.816C308.974 104.27 309.1 102.724 309.227 101.178C310 101.241 310.773 101.302 311.548 101.368C311.889 97.1026 312.242 92.8379 312.586 88.5725C311.812 88.5082 311.04 88.4468 310.268 88.384C310.392 86.8437 310.517 85.3035 310.644 83.7635Z" fill="#F20912"/>
<path d="M328.358 85.2841C333.255 85.8229 338.151 86.36 343.048 86.8974C343.565 86.9628 344.13 87.042 344.53 87.4144C345.101 87.905 345.148 88.7386 345.079 89.4369C344.563 94.2845 344.006 99.1306 343.495 103.979C343.43 104.276 343.703 104.535 343.982 104.567C344.451 104.647 344.93 104.675 345.403 104.731C345.234 106.273 345.065 107.815 344.896 109.356C343.097 109.163 341.299 108.963 339.503 108.766C338.897 108.684 338.239 108.459 337.894 107.918C337.577 107.466 337.585 106.88 337.625 106.352C338.156 101.507 338.693 96.6617 339.219 91.8166C339.272 91.491 339.062 91.1236 338.717 91.0901C337.516 90.9454 336.314 90.8264 335.113 90.6903C334.683 94.4438 334.314 98.299 332.76 101.786C331.787 104.044 330.045 106.148 327.628 106.89C326.323 107.35 324.916 107.374 323.551 107.254C323.733 105.627 323.907 104.001 324.088 102.374C325.084 102.332 326.111 102.031 326.823 101.299C327.994 100.121 328.507 98.4773 328.914 96.9083C329.397 94.6706 329.656 92.3924 329.901 90.1184C329.217 90.0435 328.536 89.9686 327.854 89.8924C328.021 88.3562 328.189 86.8201 328.358 85.2841Z" fill="#F20912"/>
<path d="M350.508 88.0022C352.344 88.3042 354.185 88.5765 356.017 88.8983C356.71 88.9893 357.437 89.4337 357.6 90.1532C357.753 90.6797 357.673 91.2325 357.593 91.7637C357.276 93.7202 356.964 95.6775 356.649 97.6345C357.261 97.7255 357.88 97.8901 358.505 97.7974C358.989 97.6895 359.246 97.2348 359.496 96.8514C361.034 94.6295 362.563 92.4007 364.112 90.1848C366.101 90.5071 368.091 90.8237 370.081 91.1448C368.235 93.6986 366.448 96.2937 364.597 98.8437C364.044 99.7269 363.298 100.498 362.35 100.952C363.345 101.548 363.707 102.714 364 103.765C364.41 105.012 364.733 106.288 365.179 107.523C365.519 108.233 366.401 108.241 367.075 108.362C366.829 109.892 366.58 111.423 366.339 112.955C365.08 112.737 363.811 112.571 362.558 112.326C361.942 112.214 361.318 111.975 360.91 111.48C360.374 110.905 360.253 110.104 360.007 109.389C359.325 107.296 358.678 105.191 357.986 103.103C357.643 102.314 356.643 102.317 355.92 102.178C355.444 105.136 354.97 108.094 354.495 111.051C352.663 110.756 350.83 110.465 348.998 110.167C349.881 104.685 350.757 99.2006 351.642 93.7192C351.725 93.3961 351.655 92.9685 351.302 92.8409C350.799 92.7179 350.281 92.6711 349.774 92.5794C350.019 91.0537 350.262 89.5277 350.508 88.0022Z" fill="#F20912"/>
<path d="M382.641 93.8321C384.515 94.281 386.379 94.7704 388.249 95.2317C388.864 101.223 389.424 107.224 390.064 113.212C390.076 113.834 390.783 113.878 391.239 114.008L390.106 118.513C389.317 118.316 388.531 118.117 387.743 117.921C386.955 117.709 386.112 117.585 385.42 117.124C384.881 116.781 384.662 116.132 384.598 115.528C384.491 114.441 384.409 113.351 384.325 112.262C382.238 111.735 380.15 111.213 378.063 110.686C377.533 111.52 377.002 112.353 376.47 113.185C376.161 113.647 375.804 114.137 375.261 114.337C374.677 114.574 374.028 114.452 373.435 114.324C372.29 114.036 371.145 113.75 370.002 113.456C370.379 111.953 370.758 110.452 371.135 108.949C371.598 109.046 372.242 109.374 372.552 108.825C375.929 103.839 379.283 98.8325 382.641 93.8321ZM384.087 99.9223C382.994 102.245 381.622 104.416 380.315 106.62C381.64 106.949 382.96 107.294 384.288 107.613C384.215 106.437 384.166 105.26 384.099 104.085C384.027 102.698 384.091 101.31 384.087 99.9223Z" fill="#F20912"/>
<defs>
<linearGradient id="paint0_linear" x1="292.145" y1="0" x2="292.145" y2="568.447" gradientUnits="userSpaceOnUse">
<stop stop-color="#F4F4F4"/>
<stop offset="1" stop-color="#F4F4F4" stop-opacity="0"/>
</linearGradient>
</defs>
</svg>
