<svg width="71" height="70" viewBox="0 0 71 70" fill="none" xmlns="http://www.w3.org/2000/svg">
<path d="M32.4307 10.4782C32.4307 10.907 32.6708 11.3014 33.0309 11.5072L36.4435 13.3764L38.3471 17.9209C38.5872 18.5211 39.2731 18.7955 39.8733 18.5383C40.1477 18.4182 40.3878 18.1953 40.4907 17.9209L42.3942 13.3764L45.8069 11.5072C46.3728 11.1985 46.5786 10.4954 46.2699 9.92948C46.167 9.74084 45.9955 9.56935 45.8069 9.46645L42.3942 7.59721L40.4907 3.05272C40.2506 2.45251 39.5647 2.17812 38.9644 2.43536C38.6901 2.5554 38.45 2.77834 38.3471 3.05272L36.4435 7.59721L33.0309 9.46645C32.6536 9.67224 32.4307 10.0667 32.4307 10.4782ZM37.9183 9.4493C38.1584 9.32926 38.3299 9.12347 38.4328 8.88339L39.4103 6.53397L40.3878 8.88339C40.4907 9.12347 40.6793 9.32926 40.9023 9.4493L42.8058 10.4782L40.9023 11.5072C40.6622 11.6272 40.4907 11.833 40.3878 12.0731L39.4103 14.4225L38.4328 12.0903C38.3299 11.8502 38.1413 11.6444 37.9183 11.5243L36.0148 10.4954L37.9183 9.4493Z" fill="#FF0000"/>
<path d="M65.0486 16.3089C61.8418 16.3089 59.2351 18.9155 59.218 22.1224C59.218 23.6315 59.801 25.072 60.8471 26.1696C59.3551 27.1127 58.7892 29.0334 59.5609 30.6283L56.9714 33.2178C56.1654 34.0238 55.3251 34.7784 54.4334 35.4815C54.5191 35.31 54.5706 35.1385 54.5706 34.9498V19.3957C56.2683 17.4579 56.0797 14.5254 54.159 12.8276C52.2212 11.1299 49.2887 11.3185 47.5909 13.2392C46.0475 14.9884 46.0304 17.595 47.5566 19.3614C41.0229 25.4836 30.8706 25.4836 24.3369 19.3614C26.0175 17.4064 25.7945 14.4739 23.8396 12.7933C21.8846 11.1127 18.9521 11.3357 17.2715 13.2906C15.7452 15.057 15.7624 17.6636 17.3058 19.4128V34.967C17.3058 35.1556 17.3572 35.3443 17.443 35.4986C16.5512 34.7955 15.7109 34.0409 14.9049 33.2349L12.3154 30.6454C13.0871 29.0506 12.5212 27.1299 11.0292 26.1867C13.2586 23.8716 13.19 20.1845 10.8749 17.9552C8.55978 15.7258 4.87275 15.7944 2.64338 18.1095C0.465451 20.3732 0.465451 23.9402 2.64338 26.1867C1.01422 27.2156 0.516898 29.3764 1.54584 31.0056C1.95741 31.6744 2.59193 32.1717 3.32934 32.4289V63.1085C1.94027 63.6058 0.99707 64.9092 0.99707 66.384V68.7334C0.99707 69.3851 1.51154 69.8995 2.1632 69.8995H11.4751C12.1268 69.8995 12.6412 69.3851 12.6412 68.7334V66.384C12.6412 64.9092 11.6981 63.5887 10.309 63.1085V37.7623L11.2522 38.7055C14.2361 41.7066 17.7517 44.1246 21.6273 45.8566L13.8588 68.339C13.653 68.9392 13.9789 69.608 14.5791 69.8138C14.6991 69.8481 14.8363 69.8824 14.9564 69.8824H56.8857C57.5373 69.8824 58.0518 69.3679 58.0518 68.7162C58.0518 68.579 58.0347 68.459 57.9832 68.339L50.2319 45.8566C54.0904 44.1246 57.6059 41.7066 60.607 38.7055L61.5502 37.7623V63.0914C60.1611 63.5887 59.218 64.892 59.218 66.3668V68.7162C59.218 69.3679 59.7324 69.8824 60.3841 69.8824H69.696C70.3477 69.8824 70.8621 69.3679 70.8621 68.7162V66.3668C70.8621 64.892 69.9189 63.5715 68.5299 63.0914V32.4118C70.3477 31.7773 71.308 29.7708 70.6563 27.9531C70.3991 27.2156 69.8846 26.5811 69.233 26.1696C71.4623 23.8544 71.3938 20.1674 69.0786 17.938C67.9982 16.8919 66.5406 16.3089 65.0486 16.3089ZM65.0486 18.6411C66.9865 18.6411 68.547 20.2017 68.547 22.1395C68.547 24.0774 66.9865 25.6379 65.0486 25.6379C63.1108 25.6379 61.5502 24.0774 61.5502 22.1395C61.5502 20.2017 63.1108 18.6411 65.0486 18.6411ZM63.8825 62.9027V32.6176H66.2148V62.9027H63.8825ZM49.906 20.8191C50.6777 21.0077 51.4666 21.0077 52.2383 20.8191V33.7837H49.906V20.8191ZM51.0722 13.9766C52.3584 13.9766 53.4044 15.0227 53.4044 16.3089C53.4044 17.595 52.3584 18.6411 51.0722 18.6411C49.786 18.6411 48.7399 17.595 48.7399 16.3089C48.7399 15.0227 49.786 13.9766 51.0722 13.9766ZM19.6209 20.8191C20.3926 21.0077 21.1815 21.0077 21.9532 20.8191V33.7837H19.6209V20.8191ZM20.787 13.9766C22.0732 13.9766 23.1193 15.0227 23.1193 16.3089C23.1193 17.595 22.0732 18.6411 20.787 18.6411C19.5009 18.6411 18.4548 17.595 18.4548 16.3089C18.4548 15.0227 19.5009 13.9766 20.787 13.9766ZM18.4548 36.116H23.1193C23.771 36.116 24.2854 35.6015 24.2854 34.9498V22.3625C31.1793 27.5758 40.6799 27.5758 47.5738 22.3625V34.9498C47.5738 35.6015 48.0882 36.116 48.7399 36.116H53.4044C53.4902 36.116 53.5759 36.0988 53.6617 36.0817C51.9125 37.385 50.0089 38.4825 48.0025 39.3743L46.3391 34.5726C46.1847 34.1095 45.7388 33.7837 45.2415 33.7837H26.6005C26.1032 33.7837 25.6573 34.0924 25.503 34.5726L23.8396 39.3743C21.8331 38.4825 19.9467 37.385 18.1804 36.0817C18.2833 36.0988 18.369 36.116 18.4548 36.116ZM45.8246 40.2317C39.4109 42.4954 32.4141 42.4954 26.0003 40.2317L27.4237 36.0988H44.4012L45.8246 40.2317ZM5.64445 62.9027V32.6176H7.97672V62.9027H5.64445ZM4.47832 27.9531H9.14285C9.79451 27.9531 10.309 28.4675 10.309 29.1192C10.309 29.7708 9.79451 30.2853 9.14285 30.2853H4.47832C3.82666 30.2853 3.31219 29.7708 3.31219 29.1192C3.31219 28.4847 3.82666 27.9531 4.47832 27.9531ZM6.81058 18.6411C8.74842 18.6411 10.309 20.2017 10.309 22.1395C10.309 24.0774 8.73127 25.6208 6.81058 25.6208C4.88989 25.6208 3.31219 24.0602 3.31219 22.1224C3.31219 20.2017 4.87275 18.6411 6.81058 18.6411ZM10.2918 67.5501H3.31219V66.3668C3.31219 65.7323 3.82666 65.2178 4.46117 65.2178H9.14285C9.77736 65.2178 10.2918 65.7323 10.2918 66.3668V67.5501ZM16.5855 67.5501L23.771 46.7312C31.6081 49.6465 40.234 49.6465 48.0711 46.7312L55.2565 67.5501H16.5855ZM58.9607 37.042C46.2362 49.7666 25.6059 49.7666 12.8985 37.042L10.309 34.4525V32.4118C10.429 32.3775 10.5319 32.326 10.652 32.2746L13.2243 34.8641C25.7602 47.4 46.0818 47.4 58.6177 34.8641L61.2072 32.2746C61.3101 32.326 61.4302 32.3775 61.5502 32.4118V34.4525L58.9607 37.042ZM68.5299 67.5501H61.5502V66.3668C61.5502 65.7323 62.0647 65.2178 62.6992 65.2178H67.3809C68.0154 65.2178 68.5299 65.7323 68.5299 66.3668V67.5501ZM67.3637 30.2853H62.6992C62.0475 30.2853 61.5331 29.7708 61.5331 29.1192C61.5331 28.4675 62.0475 27.9531 62.6992 27.9531H67.3637C68.0154 27.9531 68.5299 28.4675 68.5299 29.1192C68.5299 29.7708 68.0154 30.2853 67.3637 30.2853Z" fill="#FF0000"/>
<path d="M26.6006 2.33215H28.9323V4.66392H26.6006V2.33215Z" fill="#FF0000"/>
<path d="M31.2646 2.33215H33.5964V4.66392H31.2646V2.33215Z" fill="#FF0000"/>
<path d="M28.9326 0H31.2644V2.33176H28.9326V0Z" fill="#FF0000"/>
<path d="M28.9326 4.66467H31.2644V6.99644H28.9326V4.66467Z" fill="#FF0000"/>
<path d="M28.9326 15.1425H31.2644V17.4742H28.9326V15.1425Z" fill="#FF0000"/>
<path d="M54.5537 2.33215H56.8855V4.66392H54.5537V2.33215Z" fill="#FF0000"/>
<path d="M16.1221 3.49854H18.4538V5.8303H16.1221V3.49854Z" fill="#FF0000"/>
</svg>
