<svg width="39" height="18" viewBox="0 0 39 18" fill="none" xmlns="http://www.w3.org/2000/svg">
<path fill-rule="evenodd" clip-rule="evenodd" d="M38.0724 4.80313C39.1262 3.60069 39.0057 1.77164 37.8032 0.717833C36.6008 -0.335975 34.7718 -0.215487 33.7179 0.986951L25.3791 10.502L22.0729 6.72731C21.972 6.61211 21.864 6.50683 21.7501 6.41156C21.6747 5.96435 21.4929 5.52831 21.1993 5.14231C20.2313 3.86978 18.415 3.62291 17.1424 4.59092L8.37895 11.2572L4.64853 8.4179C3.37627 7.44954 1.55988 7.6959 0.591524 8.96815C-0.376836 10.2404 -0.130476 12.0568 1.14178 13.0252L6.62507 17.1987C7.66077 17.987 9.09524 17.9872 10.1312 17.1992L18.1832 11.074L23.2007 16.8025C23.7503 17.43 24.5439 17.7899 25.378 17.79C26.2122 17.7902 27.0059 17.4305 27.5556 16.8031L38.0724 4.80313Z" fill="#494545"/>
</svg>
