<svg width="53" height="49" viewBox="0 0 53 49" fill="none" xmlns="http://www.w3.org/2000/svg">
<path d="M36.5294 0.285953C38.5084 -0.54995 40.9708 0.522624 41.7412 2.51671C42.4714 4.21117 43.204 5.90816 43.9166 7.61018C44.2464 8.27739 43.9166 9.16616 43.2141 9.42298C42.5318 9.72763 41.6833 9.32227 41.4391 8.62988C40.656 6.89009 39.9788 5.10498 39.168 3.37779C38.8634 2.72065 38.0149 2.51671 37.3905 2.82639C31.7381 5.08736 26.0831 7.34077 20.4232 9.58412C19.416 9.97437 18.4366 10.4477 17.3817 10.7045C18.2201 10.8002 19.0636 10.8052 19.907 10.7952C27.4553 10.7851 35.0036 10.8002 42.5494 10.7876C43.5112 10.7977 44.4931 10.7272 45.4272 10.9916C47.6479 11.5933 49.3373 13.7687 49.3449 16.075C49.3474 16.8253 49.4078 17.5881 49.2845 18.3359C49.0554 19.2851 47.7134 19.5948 47.0613 18.8873C46.4192 18.2075 46.7415 17.1903 46.6635 16.3519C46.7894 14.8916 45.5456 13.4867 44.0701 13.4867C32.9063 13.4665 21.74 13.4892 10.5761 13.4766C9.76791 13.5723 8.97733 12.8698 9.07552 12.0415C9.08559 11.4498 9.56145 10.9916 10.0977 10.8153C18.91 7.31056 27.7146 3.78567 36.5294 0.285953Z" fill="#ED1C24"/>
<path d="M8.85649 5.55311C10.6768 5.31644 12.5224 5.44484 14.3528 5.42974C15.0981 5.3542 15.7955 6.01386 15.7804 6.75912C15.793 7.34829 15.3801 7.90975 14.806 8.06334C12.8975 8.22447 10.9614 7.93745 9.06043 8.24965C6.54768 8.72299 4.43778 10.7876 3.87632 13.2777C3.65727 14.1966 3.69 15.1484 3.69252 16.085C3.69756 23.7164 3.68748 31.3478 3.69756 38.9766C3.58929 42.6375 6.92283 45.8779 10.5711 45.7067C21.6569 45.7067 32.7427 45.7042 43.8259 45.7067C44.9035 45.7696 45.9635 45.1276 46.4092 44.1482C46.8674 43.2166 46.5326 42.1516 46.7289 41.1696C46.9581 40.2934 48.159 39.8906 48.8464 40.5125C49.5992 41.1243 49.2971 42.1918 49.3474 43.0303C49.3852 45.2912 47.7889 47.4288 45.6513 48.1212C44.8205 48.4158 43.9241 48.3982 43.0555 48.3931C32.1661 48.3881 21.2767 48.3982 10.3848 48.3881C6.67861 48.4208 3.11091 46.0239 1.72865 42.5871C0.933033 40.8247 0.993459 38.8583 1.00353 36.9725C1.02115 29.5022 0.988424 22.032 1.01864 14.5617C1.04885 10.1934 4.53849 6.19514 8.85649 5.55311Z" fill="#ED1C24"/>
<path d="M33.8556 21.8054C34.8048 21.5536 35.7942 21.5158 36.7711 21.531C40.5377 21.5561 44.3043 21.5083 48.0684 21.5486C50.1481 21.531 52.0087 23.3488 52.0213 25.4335C52.039 28.1905 52.049 30.95 52.0213 33.7069C52.0239 35.7564 50.2488 37.5843 48.1968 37.6296C44.1281 37.68 40.0568 37.6372 35.9856 37.6473C33.5937 37.6674 31.2169 36.5722 29.7088 34.709C27.7323 32.375 27.3043 28.8778 28.6513 26.1309C29.6357 24.016 31.6021 22.3971 33.8556 21.8054ZM34.0922 24.5422C32.5564 25.0986 31.3101 26.3827 30.8141 27.9387C30.2929 29.5022 30.5648 31.2974 31.509 32.647C32.4909 34.1148 34.2508 34.9935 36.0108 34.9633C39.9637 34.9558 43.9191 34.9709 47.872 34.9583C48.7029 35.0414 49.4431 34.2986 49.3449 33.4627C49.355 30.8493 49.35 28.2383 49.3449 25.6249C49.4054 24.8217 48.6425 24.1343 47.8544 24.2225C44.3194 24.2174 40.7845 24.2275 37.252 24.2199C36.1946 24.2225 35.0968 24.152 34.0922 24.5422Z" fill="#ED1C24"/>
<path d="M35.1018 27.77C36.0586 27.3193 37.2923 27.775 37.7279 28.7368C38.667 30.1921 36.7057 32.2592 35.2 31.4661C34.4648 31.1463 33.9386 30.4162 33.8656 29.6181C33.8958 28.83 34.3994 28.1099 35.1018 27.77Z" fill="#ED1C24"/>
</svg>
