<svg width="73" height="73" viewBox="0 0 73 73" fill="none" xmlns="http://www.w3.org/2000/svg">
<circle cx="36.5" cy="36.5" r="36.5" fill="white"/>
<path d="M35.6066 15.1376C37.121 14.8454 38.7438 15.0104 40.1258 15.7117C41.5887 16.4217 42.7714 17.6989 43.3541 19.2168C44.0933 21.0733 43.9093 23.2547 42.9226 24.984C41.5664 27.2496 40.9492 30.0859 41.7279 32.6558C42.6115 35.7122 44.9528 38.0999 45.7762 41.1803C46.7233 44.5891 46.6288 48.3107 45.3619 51.6283C44.7138 53.3662 43.8629 55.0216 42.9244 56.6203C42.4946 57.313 42.0047 58.0144 41.2913 58.4424C40.6467 58.8447 39.88 58.9994 39.1271 58.9976C37.8086 59.0028 36.4885 58.9976 35.1683 58.9994C34.3053 58.989 33.384 58.9203 32.6379 58.4424C31.9624 58.0213 31.512 57.3388 31.1493 56.6495C30.2399 54.8875 29.2515 53.1514 28.6258 51.2605C27.4586 47.9995 27.4225 44.3725 28.3697 41.0531C29.2034 38.0672 31.4467 35.7345 32.3491 32.7762C33.0488 30.6274 32.7118 28.2724 31.8437 26.2251C31.5395 25.4722 31.0375 24.8189 30.7505 24.0592C30.0096 22.1511 30.1935 19.8958 31.2868 18.1596C32.2305 16.6108 33.8481 15.5312 35.6066 15.1376ZM33.3204 18.4742C32.1171 19.8081 31.8128 21.8365 32.4935 23.4867C32.7514 24.0763 33.1313 24.6041 33.3891 25.1937C33.855 26.1804 34.1523 27.2324 34.3896 28.2947C36.1618 28.2741 37.9358 28.2896 39.7098 28.2913C40.0571 26.9092 40.4473 25.5151 41.2071 24.2947C41.9497 23.0948 42.1869 21.5821 41.7692 20.2275C41.3326 18.7715 40.1551 17.5768 38.7145 17.1041C36.8546 16.4475 34.6268 16.9838 33.3204 18.4742ZM34.5615 30.1238C34.558 30.581 34.5357 31.0383 34.4996 31.4955C36.1979 31.4904 37.898 31.4989 39.5981 31.4938C39.5758 31.04 39.5569 30.5844 39.5517 30.1289C37.8894 30.1134 36.2254 30.122 34.5615 30.1238ZM31.1476 39.1691C29.7328 41.6719 29.3598 44.6355 29.6159 47.4649C29.9649 50.6588 31.5343 53.5244 33.0625 56.2885C33.3719 56.9572 34.142 57.1686 34.8228 57.1566C36.3681 57.1686 37.9152 57.1824 39.4589 57.1428C40.2926 57.1514 40.8753 56.481 41.2655 55.8227C42.2024 54.2309 43.0498 52.5789 43.6979 50.8462C44.7757 47.9445 44.8342 44.7077 44.0262 41.7338C43.5707 40.0131 42.5788 38.5176 41.6901 36.998C41.0335 35.8222 40.4267 34.6086 40.0021 33.328C38.0373 33.3348 36.0742 33.3176 34.1094 33.3365C33.4304 35.4251 32.2254 37.2748 31.1476 39.1691Z" fill="#ED1C24"/>
<path d="M23.8075 22.2021C25.731 21.4337 28.1307 22.0267 29.4097 23.677C30.6319 25.157 30.7797 27.3951 29.8067 29.0419C29.0951 30.228 28.7307 31.629 28.8372 33.0111C28.9232 33.9462 29.3203 34.8109 29.75 35.6325C29.2206 35.942 28.6825 36.2393 28.1307 36.5075C27.6752 35.648 27.3125 34.7421 27.0839 33.7949C26.0851 33.7812 25.0864 33.7692 24.0877 33.8035C23.7628 35.4899 22.8362 36.9613 21.9785 38.419C20.868 40.3013 20.6239 42.5893 20.9883 44.7174C21.3287 46.5275 22.2449 48.1485 23.1061 49.7506C23.2471 50.0239 23.4826 50.2783 23.8178 50.2577C24.8681 50.3265 25.9235 50.2629 26.9756 50.3041C26.9738 50.9058 26.9738 51.5074 26.9721 52.1108C25.9149 52.1297 24.856 52.1434 23.8006 52.097C22.8878 52.0575 22.0146 51.5555 21.5693 50.7511C20.4812 48.8034 19.4034 46.775 19.1009 44.5317C18.8224 42.2661 19.0991 39.8767 20.1993 37.85C21.0055 36.3528 22.073 34.9278 22.336 33.207C22.5079 31.7786 22.1366 30.314 21.4095 29.0832C20.8199 28.0604 20.6067 26.8193 20.8474 25.6607C21.1619 24.1033 22.3205 22.759 23.8075 22.2021ZM22.5818 26.5099C22.4873 27.5172 23.1422 28.3371 23.5324 29.2052C24.9059 29.1915 26.2811 29.2121 27.6563 29.1984C28.0396 28.3904 28.6378 27.6238 28.6103 26.6852C28.6825 25.1622 27.3812 23.8059 25.8771 23.7165C24.2492 23.5051 22.6007 24.8493 22.5818 26.5099ZM24.067 31.048C24.1152 31.3505 24.1633 31.6531 24.2097 31.9556C25.1397 31.9505 26.0697 31.9522 26.9996 31.9539C27.0374 31.6496 27.077 31.3471 27.1182 31.0446C26.1023 31.0411 25.0847 31.0188 24.067 31.048Z" fill="#ED1C24"/>
<path d="M44.499 23.4745C46.041 21.6937 48.9237 21.3567 50.8576 22.6838C52.5078 23.7186 53.3312 25.8416 52.8636 27.7256C52.6797 28.6899 52.0248 29.4652 51.7274 30.3866C51.3544 31.4988 51.2186 32.7261 51.552 33.8658C52.0849 35.8788 53.6097 37.4396 54.2113 39.425C54.9522 41.756 54.923 44.331 54.1254 46.6448C53.6561 48.0441 52.9461 49.3471 52.2396 50.638C51.8477 51.3634 51.1464 51.9376 50.3144 52.0476C49.1059 52.2006 47.8837 52.0802 46.6684 52.1335C46.6839 51.5181 46.6804 50.901 46.7028 50.2856C47.6121 50.2908 48.5215 50.2873 49.4308 50.2891C49.8468 50.2787 50.3848 50.2805 50.5843 49.8335C51.5452 48.0922 52.5336 46.2958 52.8207 44.2984C53.0682 42.3061 52.8103 40.19 51.7738 38.4418C50.9126 36.9789 49.9792 35.5023 49.6577 33.8091C48.6504 33.7592 47.6413 33.7971 46.6323 33.7953C46.4174 34.7477 46.0203 35.6433 45.5717 36.5045C45.0233 36.2398 44.4921 35.9406 43.9558 35.657C44.3288 34.8749 44.7328 34.0876 44.8652 33.2212C45.0353 32.121 44.805 30.9934 44.3993 29.9689C44.1552 29.3397 43.7289 28.7982 43.533 28.1502C43.0052 26.5687 43.3662 24.707 44.499 23.4745ZM46.8833 23.9662C45.759 24.4234 45.0302 25.6473 45.1333 26.8523C45.1608 27.7307 45.735 28.4355 46.0908 29.2005C47.4591 29.2108 48.8274 29.1953 50.1975 29.2056C50.3883 28.8137 50.5963 28.4321 50.8026 28.0505C51.375 26.995 51.2564 25.5683 50.4089 24.6933C49.5563 23.7117 48.0556 23.4453 46.8833 23.9662ZM46.6082 31.0518C46.6598 31.3527 46.7114 31.6552 46.7612 31.956C47.6895 31.9526 48.6177 31.9595 49.546 31.9509C49.5838 31.65 49.6233 31.3492 49.6629 31.0501C48.6452 31.0175 47.6259 31.0364 46.6082 31.0518Z" fill="#ED1C24"/>
</svg>
