<svg width="262" height="238" viewBox="0 0 262 238" fill="none" xmlns="http://www.w3.org/2000/svg">
<g style="mix-blend-mode:multiply" opacity="0.1">
<g style="mix-blend-mode:multiply" opacity="0.1">
<path d="M65.1837 131.459L65.3237 131.569C65.7537 131.919 66.1837 132.269 66.6237 132.569L67.1437 132.959L68.1437 133.679L68.7437 134.109C69.0437 134.339 69.3537 134.559 69.6737 134.779L70.2737 135.199L71.2737 135.869L71.8437 136.259L73.0137 137.019L73.4037 137.269L74.9637 138.269L75.4537 138.569L76.5537 139.229L77.1837 139.589L78.1837 140.159C78.3937 140.289 78.6137 140.409 78.8337 140.529L79.8337 141.079L80.4637 141.429L81.5437 142.009L82.0737 142.289C82.5937 142.569 83.0737 142.839 83.6537 143.109L83.9837 143.279L85.2537 143.909L85.8337 144.199L86.8337 144.689L87.4637 144.989L88.4637 145.439L89.0837 145.719L90.0837 146.179L90.6337 146.419L91.9137 146.989L92.1537 147.089L93.6337 147.729L94.1137 147.929L95.1137 148.339L95.6537 148.559L96.5537 148.919L97.0937 149.139L97.9637 149.479L98.4737 149.679L99.4737 150.049L99.8137 150.179L101.094 150.649L101.364 150.749L102.304 151.089L102.744 151.239L103.474 151.499L103.914 151.649L104.594 151.889L105.004 152.019L105.704 152.249L106.004 152.349L107.004 152.659C117.364 155.929 125.694 155.659 138.084 173.529C145.704 184.889 157.704 216.069 165.334 237.349H247.924C235.324 218.349 217.394 191.529 207.874 178.079C192.204 155.949 185.384 145.639 180.074 136.329C176.834 130.639 173.494 120.899 169.304 109.939C169.364 109.789 169.415 109.636 169.454 109.479C170.204 106.709 168.954 103.969 166.674 103.209C164.674 98.2789 162.534 93.2089 160.114 88.2889C151.014 69.6789 141.114 52.5789 135.604 45.7989C132.154 41.5889 122.544 41.9289 113.944 41.7989H113.804L111.514 41.7289H111.254H110.254H109.984L108.984 41.6589H108.784L107.834 41.5789H107.614L106.814 41.4889H106.484L105.704 41.3689H105.414L104.714 41.2289L104.394 41.1689L103.734 41.0089L103.434 40.9389L102.864 40.7589L102.534 40.6589C102.374 40.6089 102.234 40.5389 102.084 40.4789L101.704 40.3389C101.444 40.2189 101.194 40.0989 100.954 39.9589L100.224 39.5389L99.8937 39.3389L99.4337 39.0589L99.0037 38.7889L98.5837 38.5289L98.0537 38.1889L97.7037 37.9589L97.1237 37.5789L96.7637 37.3489L96.1037 36.9089C95.9967 36.8479 95.8927 36.7809 95.7937 36.7089L95.0237 36.1989L94.7837 36.0389L93.7837 35.3589C85.1737 29.5789 73.7837 21.6589 69.3737 22.6089C63.5637 23.8689 51.1737 49.7689 48.6537 54.2989C46.8637 57.5089 40.1237 63.7389 36.3437 67.0889C36.1707 67.1849 36.0197 67.3179 35.9037 67.4789L34.2637 68.9189L26.0737 67.9989C25.3687 67.8019 24.6327 67.7379 23.9037 67.8089C23.4767 67.8549 23.0677 68.0059 22.7137 68.2489C22.5347 68.3739 22.3737 68.5219 22.2337 68.6889L22.1737 68.7789L19.5137 68.4789C18.8437 68.3189 18.2537 68.3789 18.0437 69.1689C17.8337 69.9589 18.3037 70.2989 18.9737 70.4989L21.4237 71.5689C21.6137 72.9789 22.8337 73.7289 24.4237 74.1889L33.0137 77.9389L32.7137 79.0489C32.6597 79.1969 32.6357 79.3539 32.6427 79.5109C32.6497 79.6679 32.6877 79.8219 32.7547 79.9639C32.8217 80.1059 32.9157 80.2339 33.0327 80.3389C33.1487 80.4449 33.2857 80.5259 33.4337 80.5789L36.0037 81.2689C36.2527 81.3179 36.5107 81.2829 36.7367 81.1679C36.9627 81.0539 37.1447 80.8679 37.2537 80.6389L37.5937 80.7389C36.2137 82.1289 35.5937 84.0889 36.4137 86.6889C39.4137 96.8189 30.0237 97.9889 33.3637 105.099C39.9637 119.179 44.8837 110.099 58.1937 125.099C60.3447 127.485 62.6857 129.692 65.1937 131.699L65.1837 131.459ZM51.3537 71.3489C51.8937 70.9289 52.5037 70.4189 53.1237 69.8689C53.4677 70.6919 53.9407 71.4539 54.5237 72.1289L51.3537 71.3489ZM85.0037 74.7289C87.7407 72.6089 90.2997 70.2679 92.6537 67.7289C92.9017 68.2039 93.1247 68.6909 93.3237 69.1889C89.7037 73.4889 85.4537 77.8089 85.4537 77.8089C85.6747 78.5889 85.9937 79.3389 86.4037 80.0389L76.0737 77.4789C79.2437 77.3549 82.3237 76.3959 85.0037 74.6989V74.7289ZM68.3537 72.7289C68.9557 74.1959 70.0057 75.4349 71.3537 76.2689L63.5737 74.3489C65.2317 74.0189 66.8397 73.4709 68.3537 72.7189V72.7289ZM59.5837 96.0389C60.4737 93.0819 60.5597 89.9409 59.8337 86.9389L88.0137 95.0489C86.3457 97.1009 84.5127 99.0139 82.5337 100.769C82.4767 100.811 82.4227 100.858 82.3737 100.909L82.3037 100.959C82.0237 100.839 81.7537 100.729 81.4737 100.629L81.1737 100.529L80.6037 100.349L80.2637 100.259L79.7337 100.129L79.3937 100.059L78.8537 99.9589H78.5437L77.9837 99.8789H77.7237H77.1337H76.9437H76.3037H76.1937H75.5037C74.5677 99.8729 73.6317 99.9299 72.7037 100.049C68.6037 95.5889 59.5837 96.0289 59.5837 96.0289V96.0389Z" fill="black"/>
</g>
</g>
<path d="M91.7037 31.2389V24.7589H71.9137C69.7037 28.3589 68.4337 30.8689 67.8037 32.0089C65.2737 36.5589 52.8937 47.1489 52.8937 47.1489C55.8937 55.7189 66.4137 52.0989 69.8037 49.7989C73.1937 47.4989 79.9637 40.0989 79.9637 40.0989C80.2937 40.0689 95.4837 29.5789 91.7037 31.2389Z" fill="#E4A880"/>
<path d="M106.934 34.0589V24.7589H88.9337C85.5737 29.8889 83.8137 33.4089 83.0237 34.8389C80.4937 39.3889 68.1137 49.9689 68.1137 49.9689C71.1137 58.5389 81.6337 54.9689 85.0337 52.6189C88.4337 50.2689 95.1937 42.9189 95.1937 42.9189C95.4837 42.8889 110.704 32.3989 106.934 34.0589Z" fill="#E4A880"/>
<path d="M117.994 39.799V24.799H106.234C103.094 29.866 100.323 35.1529 97.9437 40.6189C95.8237 45.1589 85.4537 55.7489 85.4537 55.7489C87.9937 64.3189 96.7737 60.6989 99.6237 58.3989C102.474 56.0989 108.134 48.6989 108.134 48.6989C108.404 48.6289 121.134 38.139 117.994 39.799Z" fill="#E4A880"/>
<path d="M33.7737 47.0589C33.7737 47.0589 46.1537 36.4689 48.6837 31.9189C51.2137 27.3689 63.5937 1.34895 69.4037 0.0789524C75.2137 -1.19105 93.4037 13.2189 100.984 17.5189C108.564 21.8189 130.044 16.7789 135.604 23.5889C141.164 30.3989 151.014 47.5889 160.114 66.2789C169.214 84.9689 174.774 105.199 180.114 114.549C185.454 123.899 192.244 134.259 207.914 156.489C223.584 178.719 261.944 237.349 261.944 237.349H172.754C172.754 237.349 150.264 169.879 137.884 151.939C125.504 133.999 117.164 134.259 106.804 130.939C96.4437 127.619 71.5237 118.009 58.2037 102.999C44.8837 87.9889 39.9737 97.0689 33.3737 82.9289C30.0337 75.7889 39.4537 74.6089 36.4237 64.4289C33.3937 54.2489 50.9237 53.8289 55.9237 58.9289C58.2337 61.2789 61.9237 64.7089 59.5837 74.0189C59.5837 74.0189 68.5837 73.579 72.6737 77.879C72.6737 77.879 77.9936 77.0589 82.2836 78.9889C82.2836 78.9889 95.1737 68.2689 94.9237 56.6489C94.6737 45.0289 91.3737 39.4989 72.6737 30.6489C72.6737 30.6489 65.9437 39.499 60.8437 39.999C60.8437 39.999 54.0837 47.3989 50.6837 49.7089C47.2837 52.0189 36.8037 55.6189 33.7737 47.0589Z" fill="#F8CFAE"/>
<path opacity="0.1" d="M162.844 91.1589L154.984 88.6589L154.894 88.3389L154.784 88.0389C154.734 87.8989 154.684 87.7589 154.624 87.6189C154.564 87.4789 154.534 87.4089 154.484 87.2989L154.304 86.9189C154.184 86.7089 154.064 86.4989 153.934 86.2989L153.754 86.0389L153.494 85.6789L153.274 85.4389C153.184 85.3289 153.084 85.2189 152.984 85.1189L152.754 84.8889L152.424 84.6089L152.184 84.4089L151.804 84.1489L151.554 83.9889L151.114 83.7589L150.884 83.6389C150.654 83.5389 150.414 83.4489 150.174 83.3689L93.6737 65.3689C93.7117 65.0609 93.6467 64.7489 93.4897 64.4809C93.3327 64.2139 93.0917 64.0049 92.8037 63.8889L89.3237 62.7089C89.0047 62.6239 88.6657 62.6519 88.3647 62.7889C88.0637 62.9259 87.8197 63.1629 87.6737 63.4589L25.0437 43.5489C25.0857 43.2699 25.0347 42.9849 24.8967 42.7389C24.7587 42.4919 24.5437 42.2989 24.2837 42.1889L21.4637 41.2389C21.2907 41.1969 21.1117 41.1899 20.9367 41.2179C20.7607 41.2459 20.5927 41.3079 20.4407 41.4009C20.2897 41.4929 20.1577 41.6149 20.0537 41.7589C19.9497 41.9029 19.8747 42.0659 19.8337 42.2389L19.4237 43.4589L9.11369 41.6289C8.52369 41.3639 7.88469 41.2279 7.23869 41.2279C6.59269 41.2279 5.95369 41.3639 5.36369 41.6289C5.11769 41.7789 4.89768 41.9679 4.71368 42.1889L1.7737 41.6689C1.0337 41.4289 0.373694 41.4589 0.0836941 42.3289C-0.206306 43.1989 0.293697 43.6189 1.0237 43.8789L3.70369 45.3489C3.81369 46.9489 5.12369 47.8789 6.83369 48.4989L16.1337 53.3089L15.7237 54.5289C15.5827 54.8569 15.5777 55.2269 15.7087 55.5579C15.8397 55.8899 16.0967 56.1559 16.4237 56.2989L19.2337 57.2989C19.5087 57.3729 19.8007 57.3529 20.0637 57.2429C20.3257 57.1329 20.5447 56.9379 20.6837 56.6889L82.5037 78.9389C82.4417 79.2639 82.4927 79.5999 82.6497 79.8919C82.8057 80.1829 83.0587 80.4119 83.3637 80.5389L86.8437 81.7189C87.1437 81.7989 87.4607 81.7789 87.7477 81.6619C88.0357 81.5439 88.2757 81.3359 88.4337 81.0689L144.214 101.149C145.394 101.536 146.653 101.623 147.875 101.401C149.097 101.179 150.245 100.656 151.214 99.8789L153.434 100.679L158.964 102.679C161.644 103.679 164.724 101.819 165.804 98.6289C166.884 95.4389 165.554 92.0189 162.844 91.1589Z" fill="black"/>
<g opacity="0.1">
<path opacity="0.1" d="M110.864 125.349C104.804 123.279 84.7137 116.219 65.1837 109.679C78.9437 120.909 98.0537 128.219 106.804 130.989C117.164 134.279 125.494 133.989 137.884 151.989C150.274 169.989 172.754 237.349 172.754 237.349H179.294C179.294 237.349 154.294 167.269 141.944 147.929C129.594 128.589 121.224 128.869 110.864 125.349Z" fill="black"/>
</g>
<path d="M159.704 90.9589L171.704 94.4089C174.444 95.1989 177.394 93.1889 178.274 89.9389C179.154 86.6889 177.594 83.4589 174.834 82.7789L162.774 79.7789L159.704 90.9589Z" fill="#7F7F7F"/>
<path d="M159.704 90.9589L171.704 94.4089C174.444 95.1989 177.394 93.1889 178.274 89.9389C179.154 86.6889 177.594 83.4589 174.834 82.7789L162.774 79.7789L159.704 90.9589Z" fill="#7F7F7F"/>
<path d="M159.704 90.9589L171.704 94.4089C174.444 95.1989 177.394 93.1889 178.274 89.9389C179.154 86.6889 177.594 83.4589 174.834 82.7789L162.774 79.7789L159.704 90.9589Z" fill="#7F7F7F"/>
<path d="M169.304 87.5289C169.867 85.5009 169.801 83.3489 169.114 81.3589L162.754 79.7689L159.754 90.9589L166.044 92.7789C167.636 91.3979 168.772 89.5679 169.304 87.5289Z" fill="#666666"/>
<path d="M10.3137 45.9789L13.8037 47.5089L14.7137 44.1489L10.9137 43.7189C10.1737 43.5389 9.51371 43.6089 9.27371 44.4889C9.03371 45.3689 9.57368 45.7689 10.3137 45.9789Z" fill="#7F7F7F"/>
<path d="M16.3737 50.1189L27.1137 54.8289L29.8937 44.4989L18.2337 43.1889C15.9337 42.6089 13.9137 42.8389 13.1837 45.5389C12.4537 48.2389 14.0937 49.4589 16.3737 50.1189Z" fill="#7F7F7F"/>
<path d="M28.3337 50.3489L29.8937 44.5389L18.2337 43.2289C15.9337 42.6489 13.9137 42.8789 13.1837 45.5789C13.1257 45.7989 13.0857 46.0229 13.0637 46.2489L28.3337 50.3489Z" fill="#666666"/>
<path d="M29.0437 56.8789L156.824 93.8789C161.064 95.1089 165.634 91.9889 166.994 86.9489C168.354 81.9089 165.994 76.9489 161.674 75.8489L32.5837 43.6889L29.0437 56.8789Z" fill="#7F7F7F"/>
<path d="M167.334 84.8989C167.664 80.6089 165.384 76.7389 161.674 75.8089L32.5837 43.6889L31.3437 48.3489L167.334 84.8989Z" fill="#666666"/>
<path d="M114.494 72.789C114.33 73.392 114.411 74.036 114.718 74.58C115.025 75.125 115.533 75.527 116.134 75.699L157.754 87.699C158.526 87.79 159.306 87.601 159.95 87.165C160.594 86.729 161.06 86.076 161.263 85.325C161.465 84.575 161.391 83.776 161.054 83.075C160.716 82.374 160.138 81.819 159.424 81.509L117.374 71.039C116.767 70.889 116.125 70.984 115.587 71.301C115.049 71.619 114.656 72.135 114.494 72.739V72.789Z" fill="#4A4A4A"/>
<path d="M99.6337 59.1289L103.184 60.1289C103.556 60.2669 103.859 60.5449 104.028 60.9039C104.196 61.2639 104.216 61.6749 104.084 62.0489L100.084 76.9589C100.011 77.3479 99.7867 77.6929 99.4607 77.9169C99.1347 78.1419 98.7337 78.2289 98.3437 78.1589L94.7937 77.2089C94.4227 77.0689 94.1217 76.7899 93.9537 76.4319C93.7857 76.0729 93.7637 75.6629 93.8937 75.2889L97.8937 60.3789C97.9237 60.1819 97.9937 59.9929 98.0977 59.8219C98.2017 59.6519 98.3387 59.5049 98.5007 59.3879C98.6627 59.2719 98.8467 59.1889 99.0417 59.1449C99.2357 59.0999 99.4367 59.0949 99.6337 59.1289Z" fill="#4A4A4A"/>
<path d="M30.5337 42.029L33.4137 42.799C33.7447 42.925 34.0147 43.175 34.1657 43.496C34.3167 43.816 34.3377 44.183 34.2237 44.519L30.8637 56.979C30.8327 57.152 30.7667 57.318 30.6717 57.466C30.5767 57.614 30.4527 57.742 30.3077 57.843C30.1627 57.943 29.9997 58.014 29.8277 58.051C29.6547 58.088 29.4767 58.091 29.3037 58.059L26.4337 57.289C26.1007 57.165 25.8297 56.915 25.6777 56.594C25.5267 56.273 25.5077 55.905 25.6237 55.569L28.9737 43.109C29.0397 42.76 29.2397 42.451 29.5317 42.249C29.8237 42.047 30.1837 41.968 30.5337 42.029Z" fill="#4A4A4A"/>
<path d="M61.8437 74.089C60.4937 74.009 59.5837 74.089 59.5837 74.089C61.8937 64.779 58.2337 61.349 55.9237 58.999C50.9237 53.899 33.3837 54.329 36.4237 64.499C39.4637 74.669 30.0337 75.859 33.3737 82.999C39.9737 97.139 44.8937 88.049 58.2037 103.069C59.3337 104.339 60.5537 105.569 61.8437 106.759V74.089Z" fill="#F8CFAE"/>
<path d="M61.8437 8.13892C56.3137 16.5589 50.3537 28.9189 48.6837 31.9189C46.1537 36.4689 33.7737 47.0589 33.7737 47.0589C36.7737 55.6189 47.2937 52.0589 50.6837 49.7089C54.0737 47.3589 60.8437 39.9989 60.8437 39.9989C61.1817 39.9599 61.5167 39.8939 61.8437 39.7989V8.13892Z" fill="#F8CFAE"/>
<path opacity="0.1" d="M93.8137 12.8989C94.0437 13.0489 101.974 19.8989 120.424 27.6189C138.874 35.3389 119.024 19.6189 119.024 19.6189C112.024 19.4889 104.774 19.6689 101.024 17.5289C99.1237 16.4589 96.6137 14.7889 93.8137 12.8989Z" fill="black"/>
<path opacity="0.1" d="M72.7037 30.6489C71.1797 29.2079 70.0827 27.3739 69.5337 25.3489C69.5337 25.3489 68.9537 30.9189 70.7237 33.0189L72.7037 30.6489Z" fill="black"/>
<path opacity="0.1" d="M33.3737 82.9589C33.3737 82.9589 36.1537 75.6689 42.7237 75.8189C42.7237 75.8189 34.7237 79.9189 34.0537 84.3489L33.3737 82.9589Z" fill="black"/>
</svg>
