<svg width="307" height="130" viewBox="0 0 307 130" fill="none" xmlns="http://www.w3.org/2000/svg">
<path d="M58.5824 12.7273H60.5824V10.7273H58.5824V12.7273ZM24.2955 12.7273V10.7273H22.2955V12.7273H24.2955ZM24.2955 52H22.2955V54H24.2955V52ZM34.804 52V54H36.804V52H34.804ZM34.804 21.1648V19.1648H32.804V21.1648H34.804ZM48.0739 21.1648H50.0739V19.1648H48.0739V21.1648ZM48.0739 52H46.0739V54H48.0739V52ZM58.5824 52V54H60.5824V52H58.5824ZM58.5824 10.7273H24.2955V14.7273H58.5824V10.7273ZM22.2955 12.7273V52H26.2955V12.7273H22.2955ZM24.2955 54H34.804V50H24.2955V54ZM36.804 52V21.1648H32.804V52H36.804ZM34.804 23.1648H48.0739V19.1648H34.804V23.1648ZM46.0739 21.1648V52H50.0739V21.1648H46.0739ZM48.0739 54H58.5824V50H48.0739V54ZM60.5824 52V12.7273H56.5824V52H60.5824ZM65.4043 52H63.4043V54H65.4043V52ZM76.0662 52V54H78.0662V52H76.0662ZM76.0662 40.3409V38.3409H74.0662V40.3409H76.0662ZM65.4043 12.7273V10.7273H63.4043V12.7273H65.4043ZM76.0662 32.0568H74.0662V34.0568H76.0662V32.0568ZM76.0662 21.2415V19.2415H74.0662V21.2415H76.0662ZM65.4043 54H76.0662V50H65.4043V54ZM78.0662 52V40.3409H74.0662V52H78.0662ZM76.0662 42.3409H81.9725V38.3409H76.0662V42.3409ZM81.9725 42.3409C86.8358 42.3409 91.0903 40.9055 94.1528 38.1288C97.2368 35.3326 98.9299 31.3384 98.9299 26.6108H94.9299C94.9299 30.3398 93.6219 33.2108 91.466 35.1654C89.2887 37.1396 86.0645 38.3409 81.9725 38.3409V42.3409ZM98.9299 26.6108C98.9299 21.9455 97.2863 17.9287 94.2925 15.0839C91.3084 12.2482 87.1427 10.7273 82.356 10.7273V14.7273C86.2944 14.7273 89.4157 15.9677 91.5372 17.9836C93.649 19.9903 94.9299 22.9153 94.9299 26.6108H98.9299ZM82.356 10.7273H65.4043V14.7273H82.356V10.7273ZM63.4043 12.7273V52H67.4043V12.7273H63.4043ZM78.0662 32.0568V21.2415H74.0662V32.0568H78.0662ZM76.0662 23.2415H79.8248V19.2415H76.0662V23.2415ZM79.8248 23.2415C81.3551 23.2415 82.3229 23.6479 82.8846 24.1507C83.4169 24.6272 83.8077 25.3876 83.8077 26.6108H87.8077C87.8077 24.459 87.0767 22.5347 85.5524 21.1703C84.0574 19.8322 82.0337 19.2415 79.8248 19.2415V23.2415ZM83.8077 26.6108C83.8077 27.8244 83.4161 28.615 82.8675 29.1175C82.2982 29.6391 81.3317 30.0568 79.8248 30.0568V34.0568C82.0571 34.0568 84.0822 33.4295 85.5695 32.067C87.0775 30.6855 87.8077 28.753 87.8077 26.6108H83.8077ZM79.8248 30.0568H76.0662V34.0568H79.8248V30.0568ZM140.887 32.3636C140.887 25.3624 138.624 19.7754 134.742 15.9362C130.87 12.107 125.561 10.1903 119.788 10.1903V14.1903C124.676 14.1903 128.918 15.8021 131.929 18.7804C134.931 21.7488 136.887 26.2483 136.887 32.3636H140.887ZM119.788 10.1903C113.979 10.1903 108.668 12.1054 104.803 15.9382C100.929 19.7799 98.6884 25.3677 98.6884 32.3636H102.688C102.688 26.2431 104.628 21.7443 107.619 18.7785C110.619 15.8037 114.858 14.1903 119.788 14.1903V10.1903ZM98.6884 32.3636C98.6884 39.3239 100.93 44.9094 104.801 48.7584C108.663 52.5991 113.973 54.5369 119.788 54.5369V50.5369C114.864 50.5369 110.624 48.908 107.621 45.922C104.627 42.9443 102.688 38.4431 102.688 32.3636H98.6884ZM119.788 54.5369C125.561 54.5369 130.87 52.6203 134.742 48.7911C138.624 44.9519 140.887 39.3648 140.887 32.3636H136.887C136.887 38.4789 134.931 42.9785 131.929 45.9468C128.918 48.9252 124.676 50.5369 119.788 50.5369V54.5369ZM125.919 32.3636C125.919 35.6707 125.246 37.9023 124.234 39.2613C123.292 40.5257 121.895 41.2557 119.788 41.2557V45.2557C122.974 45.2557 125.641 44.068 127.442 41.6506C129.172 39.3278 129.919 36.1134 129.919 32.3636H125.919ZM119.788 41.2557C117.681 41.2557 116.283 40.5257 115.342 39.2613C114.33 37.9023 113.657 35.6707 113.657 32.3636H109.657C109.657 36.1134 110.404 39.3278 112.134 41.6506C113.934 44.068 116.602 45.2557 119.788 45.2557V41.2557ZM113.657 32.3636C113.657 29.0565 114.33 26.825 115.342 25.466C116.283 24.2016 117.681 23.4716 119.788 23.4716V19.4716C116.602 19.4716 113.934 20.6592 112.134 23.0767C110.404 25.3995 109.657 28.6139 109.657 32.3636H113.657ZM119.788 23.4716C121.895 23.4716 123.292 24.2016 124.234 25.466C125.246 26.825 125.919 29.0565 125.919 32.3636H129.919C129.919 28.6139 129.172 25.3995 127.442 23.0767C125.641 20.6592 122.974 19.4716 119.788 19.4716V23.4716ZM165.336 52H163.336V54H165.336V52ZM175.998 52V54H177.998V52H175.998ZM175.998 36.6591V34.6591H173.998V36.6591H175.998ZM190.112 36.6591H192.112V34.6591H190.112V36.6591ZM190.112 52H188.112V54H190.112V52ZM200.773 52V54H202.773V52H200.773ZM200.773 12.7273H202.773V10.7273H200.773V12.7273ZM190.112 12.7273V10.7273H188.112V12.7273H190.112ZM190.112 28.0682V30.0682H192.112V28.0682H190.112ZM175.998 28.0682H173.998V30.0682H175.998V28.0682ZM175.998 12.7273H177.998V10.7273H175.998V12.7273ZM165.336 12.7273V10.7273H163.336V12.7273H165.336ZM165.336 54H175.998V50H165.336V54ZM177.998 52V36.6591H173.998V52H177.998ZM175.998 38.6591H190.112V34.6591H175.998V38.6591ZM188.112 36.6591V52H192.112V36.6591H188.112ZM190.112 54H200.773V50H190.112V54ZM202.773 52V12.7273H198.773V52H202.773ZM200.773 10.7273H190.112V14.7273H200.773V10.7273ZM188.112 12.7273V28.0682H192.112V12.7273H188.112ZM190.112 26.0682H175.998V30.0682H190.112V26.0682ZM177.998 28.0682V12.7273H173.998V28.0682H177.998ZM175.998 10.7273H165.336V14.7273H175.998V10.7273ZM163.336 12.7273V52H167.336V12.7273H163.336ZM216.038 52V54H217.524L217.953 52.5765L216.038 52ZM218.3 44.483V42.483H216.814L216.385 43.9065L218.3 44.483ZM231.263 44.483L233.179 43.9065L232.75 42.483H231.263V44.483ZM233.526 52L231.611 52.5765L232.04 54H233.526V52ZM245.032 52V54H247.798L246.931 51.3731L245.032 52ZM232.069 12.7273L233.968 12.1004L233.515 10.7273H232.069V12.7273ZM217.495 12.7273V10.7273H216.049L215.596 12.1004L217.495 12.7273ZM204.532 52L202.633 51.3731L201.766 54H204.532V52ZM220.717 36.5057L218.802 35.9279L218.024 38.5057H220.717V36.5057ZM224.629 23.5426V21.5426H223.143L222.714 22.9648L224.629 23.5426ZM224.935 23.5426L226.85 22.9648L226.421 21.5426H224.935V23.5426ZM228.847 36.5057V38.5057H231.54L230.762 35.9279L228.847 36.5057ZM217.953 52.5765L220.216 45.0594L216.385 43.9065L214.123 51.4235L217.953 52.5765ZM218.3 46.483H231.263V42.483H218.3V46.483ZM229.348 45.0594L231.611 52.5765L235.441 51.4235L233.179 43.9065L229.348 45.0594ZM233.526 54H245.032V50H233.526V54ZM246.931 51.3731L233.968 12.1004L230.17 13.3542L243.133 52.6269L246.931 51.3731ZM232.069 10.7273H217.495V14.7273H232.069V10.7273ZM215.596 12.1004L202.633 51.3731L206.431 52.6269L219.394 13.3542L215.596 12.1004ZM204.532 54H216.038V50H204.532V54ZM222.631 37.0835L226.543 24.1204L222.714 22.9648L218.802 35.9279L222.631 37.0835ZM224.629 25.5426H224.935V21.5426H224.629V25.5426ZM223.021 24.1204L226.933 37.0835L230.762 35.9279L226.85 22.9648L223.021 24.1204ZM228.847 34.5057H220.717V38.5057H228.847V34.5057ZM283.634 27.4545V29.4545H285.814L285.626 27.282L283.634 27.4545ZM283.634 37.8864L285.627 38.0468L285.8 35.9017L283.648 35.8864L283.634 37.8864ZM272.818 37.8097L272.832 35.8097L271.115 35.7975L270.843 37.4937L272.818 37.8097ZM272.818 27.4545L270.826 27.626L270.983 29.4545H272.818V27.4545ZM285.626 27.282C285.163 21.9348 282.948 17.6055 279.37 14.6314C275.814 11.6754 271.074 10.1903 265.761 10.1903V14.1903C270.343 14.1903 274.118 15.4667 276.813 17.7074C279.487 19.93 281.26 23.2328 281.641 27.6271L285.626 27.282ZM265.761 10.1903C260.022 10.1903 254.75 12.11 250.907 15.9421C247.055 19.7826 244.815 25.3679 244.815 32.3636H248.815C248.815 26.2429 250.756 21.7416 253.731 18.7745C256.715 15.7991 260.916 14.1903 265.761 14.1903V10.1903ZM244.815 32.3636C244.815 39.3168 246.989 44.9026 250.813 48.7561C254.632 52.6051 259.911 54.5369 265.761 54.5369V50.5369C260.796 50.5369 256.602 48.9116 253.652 45.9387C250.707 42.9702 248.815 38.4694 248.815 32.3636H244.815ZM265.761 54.5369C278.37 54.5369 285.012 45.6971 285.627 38.0468L281.64 37.726C281.182 43.4222 276.164 50.5369 265.761 50.5369V54.5369ZM283.648 35.8864L272.832 35.8097L272.804 39.8096L283.619 39.8863L283.648 35.8864ZM270.843 37.4937C270.639 38.7696 270.116 39.6601 269.403 40.2436C268.684 40.8329 267.59 41.2557 265.991 41.2557V45.2557C268.305 45.2557 270.356 44.6334 271.937 43.3386C273.526 42.0381 274.46 40.2056 274.793 38.1256L270.843 37.4937ZM265.991 41.2557C263.913 41.2557 262.49 40.5485 261.524 39.2936C260.494 37.9557 259.784 35.7336 259.784 32.3636H255.784C255.784 36.2039 256.579 39.4278 258.354 41.7334C260.193 44.122 262.874 45.2557 265.991 45.2557V41.2557ZM259.784 32.3636C259.784 29.1952 260.466 26.9553 261.514 25.5563C262.499 24.2404 263.949 23.4716 266.068 23.4716V19.4716C262.818 19.4716 260.126 20.7355 258.312 23.1589C256.559 25.4993 255.784 28.7054 255.784 32.3636H259.784ZM266.068 23.4716C267.719 23.4716 268.812 23.9497 269.51 24.5944C270.212 25.2436 270.706 26.239 270.826 27.626L274.811 27.2831C274.623 25.1033 273.794 23.1073 272.224 21.6566C270.65 20.2016 268.521 19.4716 266.068 19.4716V23.4716ZM272.818 29.4545H283.634V25.4545H272.818V29.4545Z" fill="#222222" fill-opacity="0.15"/>
<path d="M2.53125 117H0.53125V119H2.53125V117ZM25.696 96.5199H23.696V98.4453L25.62 98.5184L25.696 96.5199ZM25.696 96.1364L25.307 94.1746L23.696 94.494V96.1364H25.696ZM2.53125 77.7273V75.7273H0.53125V77.7273H2.53125ZM13.1932 108.486H11.1932V110.486H13.1932V108.486ZM13.1932 100.202V98.2017H11.1932V100.202H13.1932ZM13.1932 93.6051H11.1932V95.6051H13.1932V93.6051ZM13.1932 86.0881V84.0881H11.1932V86.0881H13.1932ZM2.53125 119H21.017V115H2.53125V119ZM21.017 119C25.6352 119 29.5726 117.738 32.3952 115.403C35.2472 113.044 36.8239 109.695 36.8239 105.878H32.8239C32.8239 108.523 31.7638 110.735 29.8457 112.321C27.8982 113.932 24.9323 115 21.017 115V119ZM36.8239 105.878C36.8239 99.1596 31.7853 94.75 25.772 94.5213L25.62 98.5184C29.6934 98.6733 32.8239 101.512 32.8239 105.878H36.8239ZM27.696 96.5199V96.1364H23.696V96.5199H27.696ZM26.0851 98.0982C31.4267 97.0388 35.2898 92.9692 35.2898 87.5455H31.2898C31.2898 90.7893 29.0548 93.4313 25.307 94.1746L26.0851 98.0982ZM35.2898 87.5455C35.2898 83.9595 33.8311 80.891 30.9783 78.784C28.2027 76.734 24.2949 75.7273 19.5597 75.7273V79.7273C23.7988 79.7273 26.7561 80.6382 28.6019 82.0015C30.3706 83.3078 31.2898 85.1484 31.2898 87.5455H35.2898ZM19.5597 75.7273H2.53125V79.7273H19.5597V75.7273ZM0.53125 77.7273V117H4.53125V77.7273H0.53125ZM15.1932 108.486V100.202H11.1932V108.486H15.1932ZM13.1932 102.202H18.3324V98.2017H13.1932V102.202ZM18.3324 102.202C19.6675 102.202 20.4682 102.521 20.8962 102.868C21.265 103.167 21.5483 103.635 21.5483 104.497H25.5483C25.5483 102.598 24.8441 100.919 23.4151 99.7603C22.0453 98.6498 20.238 98.2017 18.3324 98.2017V102.202ZM21.5483 104.497C21.5483 105.311 21.3032 105.656 21.0104 105.875C20.6117 106.173 19.7743 106.486 18.179 106.486V110.486C20.1696 110.486 22.0168 110.118 23.4063 109.078C24.9018 107.96 25.5483 106.31 25.5483 104.497H21.5483ZM18.179 106.486H13.1932V110.486H18.179V106.486ZM15.1932 93.6051V86.0881H11.1932V93.6051H15.1932ZM13.1932 88.0881H17.7188V84.0881H13.1932V88.0881ZM17.7188 88.0881C18.7295 88.0881 19.4075 88.3468 19.7844 88.64C20.1048 88.8892 20.321 89.2401 20.321 89.8466H24.321C24.321 88.0369 23.5593 86.5085 22.2401 85.4826C20.9774 84.5005 19.3543 84.0881 17.7188 84.0881V88.0881ZM20.321 89.8466C20.321 90.4496 20.1086 90.7921 19.7829 91.0396C19.3931 91.3358 18.675 91.6051 17.5653 91.6051V95.6051C19.2554 95.6051 20.9151 95.2032 22.2032 94.2242C23.5555 93.1966 24.321 91.6598 24.321 89.8466H20.321ZM17.5653 91.6051H13.1932V95.6051H17.5653V91.6051ZM100.924 108.946L102.923 108.999L102.978 106.946H100.924V108.946ZM94.5575 108.946H92.5575V110.946H94.5575V108.946ZM94.5575 77.7273H96.5575V75.7273H94.5575V77.7273ZM84.1257 77.7273V75.7273H82.1257V77.7273H84.1257ZM84.1257 108.793V110.793H86.1257V108.793H84.1257ZM70.3956 108.793H68.3956V110.793H70.3956V108.793ZM70.3956 77.7273H72.3956V75.7273H70.3956V77.7273ZM60.1172 77.7273V75.7273H58.1172V77.7273H60.1172ZM60.1172 117H58.1172V119H60.1172V117ZM90.5689 117H92.5689V115H90.5689V117ZM90.5689 126.281H88.5689V128.281H90.5689V126.281ZM100.464 126.281V128.281H102.411L102.463 126.334L100.464 126.281ZM100.924 106.946H94.5575V110.946H100.924V106.946ZM96.5575 108.946V77.7273H92.5575V108.946H96.5575ZM94.5575 75.7273H84.1257V79.7273H94.5575V75.7273ZM82.1257 77.7273V108.793H86.1257V77.7273H82.1257ZM84.1257 106.793H70.3956V110.793H84.1257V106.793ZM72.3956 108.793V77.7273H68.3956V108.793H72.3956ZM70.3956 75.7273H60.1172V79.7273H70.3956V75.7273ZM58.1172 77.7273V117H62.1172V77.7273H58.1172ZM60.1172 119H90.5689V115H60.1172V119ZM88.5689 117V126.281H92.5689V117H88.5689ZM90.5689 128.281H100.464V124.281H90.5689V128.281ZM102.463 126.334L102.923 108.999L98.9247 108.893L98.4645 126.228L102.463 126.334ZM104.52 77.7273V75.7273H102.52V77.7273H104.52ZM104.52 117H102.52V119H104.52V117ZM113.417 117V119H114.469L115.065 118.133L113.417 117ZM127.608 96.3665V94.3665H126.556L125.96 95.2332L127.608 96.3665ZM127.838 96.3665H129.838V94.3665H127.838V96.3665ZM127.838 117H125.838V119H127.838V117ZM138.5 117V119H140.5V117H138.5ZM138.5 77.7273H140.5V75.7273H138.5V77.7273ZM129.449 77.7273V75.7273H128.389L127.794 76.6037L129.449 77.7273ZM115.488 98.2841V100.284H116.548L117.143 99.4077L115.488 98.2841ZM115.181 98.2841H113.181V100.284H115.181V98.2841ZM115.181 77.7273H117.181V75.7273H115.181V77.7273ZM102.52 77.7273V117H106.52V77.7273H102.52ZM104.52 119H113.417V115H104.52V119ZM115.065 118.133L129.256 97.4998L125.96 95.2332L111.769 115.867L115.065 118.133ZM127.608 98.3665H127.838V94.3665H127.608V98.3665ZM125.838 96.3665V117H129.838V96.3665H125.838ZM127.838 119H138.5V115H127.838V119ZM140.5 117V77.7273H136.5V117H140.5ZM138.5 75.7273H129.449V79.7273H138.5V75.7273ZM127.794 76.6037L113.834 97.1605L117.143 99.4077L131.103 78.8509L127.794 76.6037ZM115.488 96.2841H115.181V100.284H115.488V96.2841ZM117.181 98.2841V77.7273H113.181V98.2841H117.181ZM115.181 75.7273H104.52V79.7273H115.181V75.7273ZM160.648 113.778H162.648V111.778H160.648V113.778ZM160.648 118.611H158.648V120.611H160.648V118.611ZM170.62 118.611V120.611H172.62V118.611H170.62ZM170.62 113.778V111.778H168.62V113.778H170.62ZM170.62 81.6392H168.62V83.6392H170.62V81.6392ZM170.62 77.0369H172.62V75.0369H170.62V77.0369ZM160.648 77.0369V75.0369H158.648V77.0369H160.648ZM160.648 81.6392V83.6392H162.648V81.6392H160.648ZM160.648 90.3835H162.648V88.3835H160.648V90.3835ZM160.648 105.034V107.034H162.648V105.034H160.648ZM170.62 90.3835V88.3835H168.62V90.3835H170.62ZM170.62 105.034H168.62V107.034H170.62V105.034ZM160.418 79.6392C155.083 79.6392 150.311 81.3526 146.855 84.5901C143.383 87.8419 141.39 92.4927 141.39 98.054H145.39C145.39 93.4903 147.001 89.9337 149.589 87.5094C152.193 85.0707 155.935 83.6392 160.418 83.6392V79.6392ZM141.39 98.054C141.39 103.437 143.355 107.927 146.825 111.055C150.273 114.162 155.039 115.778 160.418 115.778V111.778C155.825 111.778 152.078 110.404 149.503 108.084C146.952 105.784 145.39 102.412 145.39 98.054H141.39ZM160.418 115.778H160.648V111.778H160.418V115.778ZM158.648 113.778V118.611H162.648V113.778H158.648ZM160.648 120.611H170.62V116.611H160.648V120.611ZM172.62 118.611V113.778H168.62V118.611H172.62ZM170.62 115.778H170.926V111.778H170.62V115.778ZM170.926 115.778C176.277 115.778 181.022 114.137 184.454 111.034C187.907 107.912 189.878 103.445 189.878 98.1307H185.878C185.878 102.405 184.321 105.762 181.772 108.067C179.202 110.39 175.471 111.778 170.926 111.778V115.778ZM189.878 98.1307C189.878 92.5834 187.933 87.9155 184.492 84.6396C181.063 81.3748 176.304 79.6392 170.926 79.6392V83.6392C175.444 83.6392 179.161 85.0869 181.734 87.5366C184.295 89.9751 185.878 93.5529 185.878 98.1307H189.878ZM170.926 79.6392H170.62V83.6392H170.926V79.6392ZM172.62 81.6392V77.0369H168.62V81.6392H172.62ZM170.62 75.0369H160.648V79.0369H170.62V75.0369ZM158.648 77.0369V81.6392H162.648V77.0369H158.648ZM160.648 79.6392H160.418V83.6392H160.648V79.6392ZM160.418 92.3835H160.648V88.3835H160.418V92.3835ZM158.648 90.3835V105.034H162.648V90.3835H158.648ZM160.648 103.034H160.418V107.034H160.648V103.034ZM160.418 103.034C158.783 103.034 157.446 102.637 156.557 101.917C155.738 101.254 155.054 100.123 155.054 98.054H151.054C151.054 101.124 152.135 103.483 154.039 105.025C155.873 106.511 158.218 107.034 160.418 107.034V103.034ZM155.054 98.054C155.054 95.6684 155.759 94.3486 156.584 93.6003C157.446 92.8189 158.743 92.3835 160.418 92.3835V88.3835C158.104 88.3835 155.72 88.9837 153.897 90.6376C152.037 92.3247 151.054 94.8401 151.054 98.054H155.054ZM170.62 92.3835H171.003V88.3835H170.62V92.3835ZM171.003 92.3835C172.612 92.3835 173.838 92.8228 174.655 93.6033C175.452 94.3649 176.137 95.717 176.137 98.1307H180.137C180.137 94.9449 179.21 92.4235 177.419 90.7113C175.647 89.0181 173.307 88.3835 171.003 88.3835V92.3835ZM176.137 98.1307C176.137 100.118 175.505 101.244 174.734 101.906C173.911 102.613 172.648 103.034 171.003 103.034V107.034C173.27 107.034 175.574 106.458 177.34 104.94C179.158 103.378 180.137 101.052 180.137 98.1307H176.137ZM171.003 103.034H170.62V107.034H171.003V103.034ZM172.62 105.034V90.3835H168.62V105.034H172.62ZM192.797 117H190.797V119H192.797V117ZM203.459 117V119H205.459V117H203.459ZM203.459 105.341V103.341H201.459V105.341H203.459ZM192.797 77.7273V75.7273H190.797V77.7273H192.797ZM203.459 97.0568H201.459V99.0568H203.459V97.0568ZM203.459 86.2415V84.2415H201.459V86.2415H203.459ZM192.797 119H203.459V115H192.797V119ZM205.459 117V105.341H201.459V117H205.459ZM203.459 107.341H209.365V103.341H203.459V107.341ZM209.365 107.341C214.228 107.341 218.483 105.905 221.545 103.129C224.629 100.333 226.322 96.3384 226.322 91.6108H222.322C222.322 95.3398 221.014 98.2108 218.859 100.165C216.681 102.14 213.457 103.341 209.365 103.341V107.341ZM226.322 91.6108C226.322 86.9455 224.679 82.9287 221.685 80.0839C218.701 77.2482 214.535 75.7273 209.749 75.7273V79.7273C213.687 79.7273 216.808 80.9677 218.93 82.9836C221.042 84.9903 222.322 87.9153 222.322 91.6108H226.322ZM209.749 75.7273H192.797V79.7273H209.749V75.7273ZM190.797 77.7273V117H194.797V77.7273H190.797ZM205.459 97.0568V86.2415H201.459V97.0568H205.459ZM203.459 88.2415H207.217V84.2415H203.459V88.2415ZM207.217 88.2415C208.748 88.2415 209.715 88.6479 210.277 89.1507C210.81 89.6272 211.2 90.3876 211.2 91.6108H215.2C215.2 89.459 214.469 87.5347 212.945 86.1703C211.45 84.8322 209.426 84.2415 207.217 84.2415V88.2415ZM211.2 91.6108C211.2 92.8244 210.809 93.615 210.26 94.1175C209.691 94.6391 208.724 95.0568 207.217 95.0568V99.0568C209.45 99.0568 211.475 98.4295 212.962 97.067C214.47 95.6855 215.2 93.753 215.2 91.6108H211.2ZM207.217 95.0568H203.459V99.0568H207.217V95.0568ZM233.532 117V119H235.018L235.447 117.576L233.532 117ZM235.795 109.483V107.483H234.308L233.879 108.906L235.795 109.483ZM248.758 109.483L250.673 108.906L250.244 107.483H248.758V109.483ZM251.02 117L249.105 117.576L249.534 119H251.02V117ZM262.526 117V119H265.292L264.425 116.373L262.526 117ZM249.563 77.7273L251.462 77.1004L251.009 75.7273H249.563V77.7273ZM234.989 77.7273V75.7273H233.543L233.09 77.1004L234.989 77.7273ZM222.026 117L220.127 116.373L219.26 119H222.026V117ZM238.211 101.506L236.296 100.928L235.518 103.506H238.211V101.506ZM242.123 88.5426V86.5426H240.637L240.208 87.9648L242.123 88.5426ZM242.43 88.5426L244.344 87.9648L243.915 86.5426H242.43V88.5426ZM246.341 101.506V103.506H249.034L248.256 100.928L246.341 101.506ZM235.447 117.576L237.71 110.059L233.879 108.906L231.617 116.424L235.447 117.576ZM235.795 111.483H248.758V107.483H235.795V111.483ZM246.843 110.059L249.105 117.576L252.936 116.424L250.673 108.906L246.843 110.059ZM251.02 119H262.526V115H251.02V119ZM264.425 116.373L251.462 77.1004L247.664 78.3542L260.627 117.627L264.425 116.373ZM249.563 75.7273H234.989V79.7273H249.563V75.7273ZM233.09 77.1004L220.127 116.373L223.925 117.627L236.888 78.3542L233.09 77.1004ZM222.026 119H233.532V115H222.026V119ZM240.125 102.083L244.037 89.1204L240.208 87.9648L236.296 100.928L240.125 102.083ZM242.123 90.5426H242.43V86.5426H242.123V90.5426ZM240.515 89.1204L244.427 102.083L248.256 100.928L244.344 87.9648L240.515 89.1204ZM246.341 99.5057H238.211V103.506H246.341V99.5057ZM277.738 77.7273L279.48 76.7451L278.906 75.7273H277.738V77.7273ZM265.772 77.7273V75.7273H262.258L264.052 78.7483L265.772 77.7273ZM277.431 97.3636L279.136 98.4092L279.767 97.3804L279.15 96.3426L277.431 97.3636ZM265.388 117L263.683 115.954L261.815 119H265.388V117ZM277.507 117V119H278.667L279.243 117.994L277.507 117ZM284.181 105.341V103.341H283.021L282.445 104.347L284.181 105.341ZM284.488 105.341L286.223 104.347L285.647 103.341H284.488V105.341ZM291.161 117L289.425 117.994L290.001 119H291.161V117ZM303.357 117V119H306.953L305.056 115.945L303.357 117ZM291.161 97.3636L289.444 96.3376L288.819 97.3836L289.462 98.4189L291.161 97.3636ZM302.897 77.7273L304.613 78.7533L306.422 75.7273H302.897V77.7273ZM291.007 77.7273V75.7273H289.846L289.27 76.7362L291.007 77.7273ZM284.488 89.1562V91.1562H285.649L286.225 90.1473L284.488 89.1562ZM284.181 89.1562L282.439 90.1384L283.012 91.1562H284.181V89.1562ZM277.738 75.7273H265.772V79.7273H277.738V75.7273ZM264.052 78.7483L275.711 98.3847L279.15 96.3426L267.491 76.7062L264.052 78.7483ZM275.726 96.318L263.683 115.954L267.093 118.046L279.136 98.4092L275.726 96.318ZM265.388 119H277.507V115H265.388V119ZM279.243 117.994L285.917 106.334L282.445 104.347L275.772 116.006L279.243 117.994ZM284.181 107.341H284.488V103.341H284.181V107.341ZM282.752 106.334L289.425 117.994L292.897 116.006L286.223 104.347L282.752 106.334ZM291.161 119H303.357V115H291.161V119ZM305.056 115.945L292.86 96.3084L289.462 98.4189L301.658 118.055L305.056 115.945ZM292.878 98.3897L304.613 78.7533L301.18 76.7012L289.444 96.3376L292.878 98.3897ZM302.897 75.7273H291.007V79.7273H302.897V75.7273ZM289.27 76.7362L282.75 88.1652L286.225 90.1473L292.745 78.7183L289.27 76.7362ZM284.488 87.1562H284.181V91.1562H284.488V87.1562ZM285.923 88.1741L279.48 76.7451L275.995 78.7095L282.439 90.1384L285.923 88.1741Z" fill="#222222" fill-opacity="0.15"/>
</svg>
