<svg width="83" height="74" viewBox="0 0 83 74" fill="none" xmlns="http://www.w3.org/2000/svg">
<path d="M42.7122 46.5109C42.9353 46.1948 43.1213 45.9531 43.2886 45.7114C47.0819 40.0215 50.8937 34.313 54.687 28.6231C54.7799 28.4744 54.8729 28.3442 54.9659 28.1955C55.8026 27.0054 56.8253 27.024 57.5877 28.2698C59.912 32.1189 62.2177 35.9865 64.542 39.8356C68.8745 47.0502 73.207 54.2462 77.5023 61.4794C78.0043 62.3162 78.4134 62.967 79.5477 62.8926C80.3472 62.8368 80.8493 63.5248 80.8307 64.2686C80.7935 65.0309 80.2356 65.533 79.3431 65.533C77.5767 65.533 75.9775 65.0123 74.6016 63.8781C73.802 63.2273 73.0582 62.5021 72.3144 61.7955C69.8414 59.4898 66.8477 59.4898 64.3932 61.8141C63.7982 62.3719 63.2404 62.9484 62.6268 63.4876C59.3728 66.2768 55.2076 66.2954 51.9164 63.562C51.2656 63.0228 50.6892 62.4091 50.0756 61.8513C47.5653 59.5084 44.5902 59.5084 42.08 61.8699C41.4106 62.5021 40.7598 63.1529 40.0532 63.7479C37.0967 66.1838 32.9873 66.221 29.9936 63.8595C29.1941 63.2273 28.4689 62.4649 27.7065 61.7583C25.2893 59.5456 22.3885 59.5456 19.9713 61.7397C19.2089 62.4277 18.4837 63.1901 17.6842 63.8409C14.7462 66.221 10.6183 66.2024 7.69897 63.8223C6.89941 63.1715 6.17423 62.4277 5.41186 61.7211C4.35198 60.7356 3.12475 60.1406 1.6558 60.122C0.800456 60.1034 0.22403 59.527 0.242625 58.7832C0.242625 58.0023 0.856239 57.4444 1.76736 57.463C2.39957 57.4816 3.08756 57.5002 3.66399 57.7233C4.48214 58.058 4.77965 57.7233 5.13295 57.0725C7.99648 52.0149 10.8972 46.9758 13.7793 41.9367C17.8887 34.7407 22.0166 27.5261 26.126 20.33C26.4607 19.735 26.7954 19.14 27.6136 19.1772C28.4317 19.1958 28.7292 19.7908 29.0453 20.4044C33.415 28.7533 37.7847 37.0836 42.1358 45.4325C42.2845 45.73 42.4705 46.0833 42.7122 46.5109ZM18.2048 39.5009C14.3558 46.232 10.5997 52.7958 6.84363 59.3783C7.53162 60.0476 8.16383 60.6799 8.83323 61.2749C11.3063 63.4876 14.114 63.469 16.5685 61.2377C17.3495 60.5311 18.0932 59.7501 18.93 59.0993C21.8493 56.8122 25.9029 56.8494 28.785 59.1923C29.6032 59.8617 30.3469 60.6241 31.1465 61.3307C33.5823 63.5062 36.4087 63.469 38.826 61.2749C39.5883 60.5683 40.3135 59.8245 41.1131 59.1923C44.1254 56.8122 48.1975 56.8494 51.154 59.2853C52.1024 60.0662 52.9391 60.9774 53.8874 61.7583C55.8398 63.3574 58.5918 63.3389 60.5442 61.7397C61.3438 61.0889 62.0689 60.3452 62.8313 59.6386C64.6721 57.9465 66.8477 57.2213 69.3022 57.5374C70.362 57.6676 71.3661 58.0766 72.4632 58.3741C70.455 55.0272 68.4654 51.6988 66.42 48.3146C66.1969 48.6121 66.0667 48.798 65.918 48.9654C64.2631 51.1223 61.8644 51.1409 60.2467 48.9654C59.7818 48.3518 59.4843 47.5894 59.0566 46.9572C58.6104 46.3064 58.0897 45.73 57.6063 45.1164C57.1228 45.73 56.6022 46.325 56.1559 46.9758C55.6539 47.7196 55.3006 48.5563 54.7428 49.2443C53.2738 51.0666 50.9309 51.0294 49.4991 49.1885C48.9041 48.4262 48.495 47.515 47.993 46.6783C47.6955 46.1762 47.3608 45.6742 46.9703 45.0606C45.8732 46.7155 44.8877 48.203 43.8836 49.672C43.0283 50.9178 41.9498 50.862 41.2432 49.5232C40.202 47.5708 39.1979 45.6184 38.1566 43.666C38.0264 43.4057 37.8777 43.1639 37.6917 42.8478C37.45 43.1825 37.2826 43.4057 37.1153 43.6102C35.5719 45.5812 33.1733 45.5998 31.6485 43.6102C31.2023 43.0338 30.8862 42.383 30.5143 41.7508C30.1982 41.2115 29.9379 40.6537 29.6032 40.1517C29.1383 39.4637 28.7106 39.4637 28.2272 40.1145C28.004 40.4306 27.8181 40.7839 27.6321 41.1186C27.1301 41.9925 26.7024 42.9036 26.0888 43.7032C24.6385 45.5812 22.2398 45.5626 20.7894 43.6846C20.1758 42.8664 19.7481 41.9181 19.2089 41.0256C18.9114 40.5421 18.5953 40.0959 18.2048 39.5009ZM19.5622 37.1022C20.1386 37.8088 20.6964 38.3666 21.1241 38.9988C21.5704 39.6682 21.8679 40.4492 22.3142 41.1186C22.6117 41.5834 23.0765 41.9367 23.467 42.3272C23.8389 41.9367 24.248 41.5648 24.5455 41.1186C25.1591 40.1703 25.624 39.0918 26.3119 38.1992C27.6879 36.4328 30.0122 36.4328 31.444 38.1621C31.946 38.7571 32.2993 39.4637 32.7084 40.1331C33.0245 40.6537 33.2662 41.2301 33.6009 41.7508C34.1216 42.5503 34.5679 42.5503 35.1257 41.7322C35.3674 41.3603 35.5348 40.9326 35.7951 40.5793C36.1856 40.0773 36.0926 39.6682 35.8137 39.1476C33.1733 34.1643 30.5701 29.1624 27.9483 24.1605C27.8181 23.9002 27.6693 23.6584 27.4648 23.3051C24.7686 28.0095 22.1468 32.6023 19.5622 37.1022ZM48.6066 42.5689C49.4619 43.9821 50.1685 45.2279 50.9495 46.4366C51.2842 46.9386 51.7677 47.3477 52.1767 47.8125C52.5672 47.3663 53.0321 46.9572 53.3482 46.4737C53.906 45.6184 54.3151 44.6329 54.9287 43.8148C56.4534 41.8252 58.8707 41.8437 60.3769 43.8519C60.9347 44.6143 61.3066 45.5068 61.8272 46.2878C62.1805 46.827 62.6454 47.2919 63.0544 47.7939C63.5007 47.2919 63.9656 46.8084 64.3746 46.2878C64.6722 45.8973 64.8395 45.5068 64.5048 44.949C62.5896 41.8437 60.7301 38.6827 58.8521 35.5588C57.9968 34.1271 57.1228 32.7139 56.2117 31.1706C53.5713 35.1126 51.0239 38.943 48.6066 42.5689Z" fill="#FF0000"/>
<path d="M78.9343 73.7329C77.1121 73.7143 75.4944 72.9334 74.0812 71.6504C73.3188 70.9624 72.5936 70.2186 71.7941 69.5492C69.7859 67.8571 67.0711 67.8385 65.0071 69.4934C64.3005 70.0699 63.6497 70.7578 62.9803 71.3715C59.4288 74.5883 55.0777 74.5883 51.5076 71.3901C50.9312 70.8694 50.3919 70.293 49.7969 69.7723C47.547 67.7642 44.7207 67.7456 42.4336 69.7166C41.6898 70.3488 41.0204 71.0739 40.2766 71.7062C36.9296 74.5325 32.6343 74.4395 29.3803 71.5016C28.6737 70.8694 28.0229 70.1628 27.2977 69.5678C25.2152 67.8199 22.4818 67.8199 20.3806 69.5492C19.6368 70.1814 18.9488 70.888 18.2237 71.5388C14.8581 74.5139 10.4884 74.5139 7.12282 71.5202C6.41623 70.888 5.74683 70.2186 5.04025 69.5864C4.11053 68.7497 3.01346 68.322 1.76764 68.2848C0.782134 68.2476 0.187114 67.6898 0.224303 66.8902C0.261492 66.0907 0.893701 65.6072 1.8792 65.6258C3.90599 65.663 5.61667 66.4625 7.10422 67.8013C7.81081 68.4335 8.46161 69.1215 9.18679 69.7352C11.3437 71.5574 14.0771 71.5574 16.2341 69.7352C17.1266 68.9728 17.9262 68.0989 18.8373 67.3737C21.8124 64.975 25.9217 64.9936 28.8968 67.4295C29.622 68.0245 30.2914 68.7125 30.998 69.3633C33.564 71.7248 36.4276 71.7062 38.9936 69.3261C39.7374 68.6381 40.4254 67.9129 41.2249 67.2993C44.2186 64.9936 48.235 65.0494 51.1543 67.4295C51.9353 68.0617 52.6419 68.7868 53.3856 69.4748C55.7471 71.669 58.685 71.6876 61.0651 69.5492C61.8461 68.8426 62.5899 68.0617 63.408 67.3923C66.3645 65.0122 70.4367 65.0308 73.3932 67.4109C74.1927 68.0617 74.9179 68.8054 75.6803 69.512C76.6658 70.4231 77.8001 71.0368 79.1946 71.0925C80.3289 71.1297 80.9053 71.6876 80.8495 72.5429C80.7752 73.3425 80.1615 73.7701 78.9343 73.7329Z" fill="#FF0000"/>
<path d="M68.54 19.0467C65.5463 19.0467 63.129 16.648 63.129 13.6915C63.1104 10.5863 65.5463 8.16901 68.6515 8.18761C71.5895 8.2062 74.0067 10.6607 73.9881 13.6172C73.9881 16.648 71.5523 19.0653 68.54 19.0467ZM68.5214 16.3691C70.0647 16.3877 71.3105 15.1605 71.3291 13.6544C71.3477 12.1668 70.1391 10.9396 68.6515 10.9024C67.0524 10.8838 65.8066 12.0924 65.8066 13.6544C65.8066 15.1419 67.0338 16.3505 68.5214 16.3691Z" fill="#FF0000"/>
<path d="M79.5292 14.9562C79.0272 14.9562 78.5251 14.9934 78.0231 14.9562C77.2793 14.8819 76.7959 14.324 76.8331 13.5989C76.8702 12.8551 77.2979 12.3902 78.0417 12.3344C79.0086 12.2787 79.9941 12.2787 80.961 12.3344C81.6862 12.3716 82.2254 12.9666 82.2068 13.6546C82.2068 14.3426 81.6862 14.9005 80.9424 14.9562C80.4776 14.9748 79.9941 14.9562 79.5292 14.9562Z" fill="#FF0000"/>
<path d="M69.8601 2.70246C69.8601 3.20451 69.8973 3.70656 69.8601 4.20861C69.7857 4.91519 69.3209 5.32427 68.6515 5.36146C67.9635 5.39865 67.3685 5.06395 67.3127 4.35736C67.2197 3.2231 67.2197 2.07025 67.3313 0.954589C67.4057 0.266597 68.0007 -0.0495075 68.6887 0.0062756C69.3581 0.0620588 69.7857 0.452541 69.8601 1.10334C69.8973 1.64258 69.8601 2.18182 69.8601 2.70246Z" fill="#FF0000"/>
<path d="M57.6625 14.9565C57.1977 14.9565 56.7142 14.9751 56.2494 14.9565C55.4684 14.9007 54.9106 14.3243 54.9292 13.6177C54.9478 12.9297 55.4684 12.3532 56.2122 12.3347C57.1605 12.2975 58.1088 12.2975 59.0571 12.3347C59.8195 12.3718 60.3029 12.9111 60.3215 13.6177C60.3401 14.38 59.8381 14.9007 59.0199 14.9565C58.5551 14.9751 58.1088 14.9565 57.6625 14.9565Z" fill="#FF0000"/>
<path d="M69.8792 24.6252C69.8792 25.1087 69.9164 25.5735 69.8792 26.057C69.8048 26.8008 69.3771 27.2284 68.6334 27.2656C67.8896 27.2842 67.3503 26.8937 67.276 26.1686C67.183 25.1087 67.2016 24.0488 67.2946 22.9889C67.3503 22.2637 67.9082 21.8547 68.652 21.8919C69.3771 21.929 69.842 22.3753 69.8978 23.1191C69.9164 23.6025 69.8792 24.1232 69.8792 24.6252Z" fill="#FF0000"/>
<path d="M75.0291 19.084C76.182 19.0654 78.655 21.4641 78.5435 22.338C78.4877 22.7471 78.2088 23.3049 77.8741 23.4536C77.5022 23.6396 76.8142 23.6024 76.4981 23.3607C75.6799 22.7099 74.9176 21.9289 74.2668 21.1108C74.0436 20.8132 74.025 20.1624 74.1924 19.8092C74.3411 19.4373 74.8432 19.2327 75.0291 19.084Z" fill="#FF0000"/>
<path d="M59.7076 23.7515C59.41 23.5098 58.8894 23.3052 58.7406 22.9333C58.5733 22.5429 58.5919 21.8735 58.8336 21.5574C59.4658 20.7578 60.2282 20.0326 60.9906 19.3632C61.5112 18.917 62.1434 18.9727 62.6641 19.4376C63.1475 19.8839 63.3335 20.5161 62.9244 21.0181C62.1806 21.9107 61.3067 22.6916 60.4699 23.5098C60.3398 23.6213 60.0608 23.6399 59.7076 23.7515Z" fill="#FF0000"/>
<path d="M59.615 3.57642C60.6935 3.59501 63.1851 6.03087 63.0922 6.83043C63.0364 7.23951 62.7575 7.79734 62.4228 7.96469C62.0509 8.15063 61.3629 8.15063 61.0468 7.90891C60.21 7.2581 59.4477 6.49573 58.7968 5.67758C58.5551 5.38007 58.5737 4.69208 58.7411 4.3016C58.9084 3.92971 59.4291 3.72517 59.615 3.57642Z" fill="#FF0000"/>
<path d="M75.439 8.18811C74.3419 8.2067 73.5982 7.05385 74.1932 6.25429C74.8812 5.36176 75.7179 4.56221 76.5918 3.81843C77.0753 3.39076 77.8005 3.48373 78.1538 4.02297C78.4141 4.41345 78.6186 5.2316 78.3955 5.51052C77.6703 6.44024 76.7592 7.2398 75.8853 8.05795C75.7737 8.15092 75.532 8.15092 75.439 8.18811Z" fill="#FF0000"/>
</svg>
