<svg width="73" height="73" viewBox="0 0 73 73" fill="none" xmlns="http://www.w3.org/2000/svg">
<circle cx="36.5" cy="36.5" r="36.5" fill="white"/>
<path d="M35.1531 14.9125C35.2089 14.4433 35.5485 13.9921 36.0587 14.0003C36.5722 13.9856 36.9052 14.4498 36.979 14.9125C39.6646 15.1208 42.2418 16.3266 44.1612 18.2083C45.9756 19.9604 47.2126 22.3112 47.5752 24.8114C47.7835 26.0976 47.6654 27.4051 47.7179 28.7011C48.1411 29.1686 48.8269 29.628 48.7826 30.3268C48.4824 30.8288 47.7835 30.5598 47.3012 30.6336C47.0732 33.4307 45.8985 36.0851 44.2498 38.3326C44.4188 39.5663 44.5878 40.8016 44.7485 42.0369C45.7657 42.8588 46.9747 43.3936 48.1739 43.894C49.6176 44.4485 50.9776 45.2277 52.4902 45.5968C54.0651 45.9873 55.3906 47.2242 55.8844 48.7712C56.101 49.4045 56.1288 50.082 56.1206 50.7464C56.1174 52.4969 56.1239 54.2489 56.1174 55.9994C42.7455 55.9977 29.3719 56.0027 16 55.9977C16.018 54.0308 15.9885 52.0621 16.0115 50.0968C16.0328 48.1183 17.4486 46.2727 19.3303 45.6903C20.2506 45.4311 21.1611 45.1309 22.0289 44.7273C23.822 43.8595 25.7988 43.3067 27.3754 42.0418C27.5263 40.7983 27.715 39.5613 27.8675 38.3178C26.209 36.0752 25.0573 33.4192 24.8096 30.6254C24.3388 30.5565 23.4759 30.8616 23.3282 30.2218C23.3709 29.5345 24.0927 29.1588 24.4093 28.6174C24.4454 27.5691 24.3732 26.5175 24.4684 25.4709C24.6669 23.1594 25.6069 20.9234 27.0965 19.1467C29.0766 16.7417 32.0378 15.1471 35.1531 14.9125ZM27.8528 21.0546C26.5601 22.91 26.04 25.2117 26.1729 27.4526C28.2481 26.319 30.5908 25.7777 32.9269 25.5349C35.0645 25.3265 37.2218 25.3314 39.3594 25.5513C41.6381 25.8056 43.9201 26.3436 45.9478 27.4477C45.9674 26.6258 45.9625 25.799 45.8313 24.9853C45.4277 22.4244 43.9496 20.0654 41.8563 18.5446C39.8811 17.0812 37.335 16.3873 34.8906 16.7072C32.0591 17.032 29.4375 18.6972 27.8528 21.0546ZM33.0828 27.2787C31.0649 27.5035 29.034 27.935 27.2179 28.875C33.1156 28.875 39.0133 28.8815 44.9109 28.8717C43.4738 28.1417 41.9088 27.6954 40.3208 27.4461C37.9289 27.0786 35.4911 27.0458 33.0828 27.2787ZM26.5732 30.6287C26.9292 33.9983 28.7288 37.0891 31.1552 39.4006C32.42 40.5637 33.8801 41.6415 35.5944 41.9942C37.0774 42.178 38.4407 41.3397 39.6137 40.5342C42.7586 38.1718 45.1078 34.5824 45.5491 30.6287C39.2249 30.6238 32.899 30.6254 26.5732 30.6287ZM29.3998 40.1306C29.303 40.7967 29.2226 41.4643 29.1193 42.1288C29.9904 43.1278 30.8779 44.1138 31.7753 45.0915C32.4627 44.4928 33.1566 43.9022 33.8374 43.2952C32.1477 42.5832 30.6712 41.4381 29.3998 40.1306ZM38.2832 43.3001C38.9772 43.8956 39.6613 44.5042 40.3634 45.0915C41.2444 44.1056 42.1303 43.1262 43.0047 42.1353C42.898 41.4709 42.8193 40.8016 42.734 40.1339C41.4494 41.4348 39.9762 42.5815 38.2832 43.3001ZM22.549 46.4138C21.6811 46.8272 20.7559 47.0881 19.8405 47.3686C18.6757 47.7426 17.8013 48.873 17.7636 50.1017C17.7439 51.4847 17.7554 52.8676 17.7603 54.2522C22.6983 54.2325 27.6379 54.2768 32.5758 54.2293C32.548 51.7307 32.5627 49.2322 32.5676 46.7337C32.2888 46.9355 32.0148 47.239 31.6342 47.1963C31.3126 47.1881 31.0731 46.9552 30.8746 46.7288C29.9674 45.7067 29.0471 44.6945 28.1382 43.6741C26.4518 44.9209 24.4159 45.5099 22.549 46.4138ZM43.9906 43.6758C42.9883 44.7766 42.0121 45.9052 40.9917 46.9913C40.5373 47.4063 39.9221 47.1045 39.5514 46.737C39.576 49.2404 39.5464 51.7439 39.5661 54.2489C44.4992 54.2506 49.4306 54.244 54.3636 54.2522C54.3604 52.8676 54.3866 51.4814 54.3538 50.0984C54.3193 48.8172 53.3678 47.6606 52.1424 47.3227C50.9103 46.988 49.7226 46.5188 48.5775 45.9561C47.0026 45.2966 45.3769 44.6978 43.9906 43.6758ZM34.3099 45.2097C34.3164 48.2233 34.3066 51.2353 34.3148 54.2489C35.4796 54.2489 36.6427 54.2489 37.8058 54.2506C37.8222 51.2386 37.8042 48.2266 37.8157 45.2162C37.2366 44.7126 36.664 44.2024 36.0636 43.725C35.4566 44.1942 34.8955 44.7159 34.3099 45.2097Z" fill="#ED1C24"/>
<path d="M35.6289 47.3652C36.2309 46.9764 37.1037 47.5966 36.9183 48.2938C36.8248 48.9024 36.0128 49.224 35.537 48.822C35.0334 48.4792 35.0957 47.6474 35.6289 47.3652Z" fill="#ED1C24"/>
<path d="M35.6469 50.8565C36.167 50.5366 36.92 50.9549 36.9314 51.5619C37.02 52.2443 36.1456 52.7677 35.5895 52.3592C35.035 52.0393 35.0678 51.1304 35.6469 50.8565Z" fill="#ED1C24"/>
</svg>
