<svg width="498" height="429" viewBox="0 0 498 429" fill="none" xmlns="http://www.w3.org/2000/svg">
<g style="mix-blend-mode:multiply" opacity="0.1">
<g style="mix-blend-mode:multiply" opacity="0.1">
<path d="M201.772 185.513C198.288 186.267 194.895 187.39 191.652 188.863C189.137 188.07 185.325 185.642 181.283 182.608C184.893 180.987 188.066 178.542 190.545 175.472C193.688 174.788 196.423 172.915 196.962 168.841C196.962 168.841 182.65 161.436 179.227 157.69C175.804 153.943 156.272 134 150.284 134C131.94 134 94.6542 161.912 90.6721 169.416C86.69 176.919 80.6919 194.998 75.7716 214.337C70.8513 233.675 69.6836 253.737 66.48 263.56C63.2763 273.383 58.8052 284.464 48.2161 308.461C42.3577 321.684 30.4512 352.946 20.9999 378.182V428H92.5384C96.5305 396.787 108.696 305.953 115.493 290.015C122.479 273.72 129.465 270.191 137.08 266.315C138.488 265.612 139.925 264.898 141.382 264.095L142.29 263.59L142.769 263.312L143.248 263.044L144.027 262.588L144.256 262.46L145.194 261.914L145.324 261.825L146.402 261.181C151.498 258.09 156.416 254.717 161.133 251.081C169.366 244.717 177.78 236.768 182.85 228.115C190.834 214.446 196.822 216.924 200.605 210.392C204.836 206.1 205.804 202.343 215.156 197.021C220.296 194.116 214.328 182.807 201.772 185.513ZM163.528 207.488C163.528 207.488 158.169 207.805 154.386 210.461C150.766 208.547 147.412 206.174 144.406 203.404C144.037 203.057 143.587 202.68 143.088 202.294C148.957 197.595 154.576 191.807 157.719 189.101C164.007 183.709 167.949 197.13 175.684 200.886C175.524 201.094 175.444 201.223 175.444 201.223C175.444 201.223 166.592 202.641 163.528 207.488Z" fill="black"/>
</g>
</g>
<path d="M187.5 178.87C185.2 178.87 180.57 175.93 175.6 172.05C182.71 168.98 189.44 159.95 185.5 159.95C180.26 159.95 163 144.76 156.97 137.7C150.94 130.64 124.97 145.76 118.5 155.15C118.5 155.15 110.5 175.26 118.5 180.26C116.8 186.61 115.37 195.98 120.5 199.18C128.5 204.18 145.5 184.68 152 178.87C158.5 173.06 162.5 188.18 170.8 191.52C179.1 194.86 192.74 178.87 187.5 178.87Z" fill="#E4A880"/>
<path d="M173.54 146.03C170.1 142.12 150.54 121.29 144.54 121.29C126.16 121.29 88.7999 150.44 84.8099 158.29C80.8199 166.14 74.8099 185 69.8799 205.2C64.9499 225.4 63.7799 246.33 60.5699 256.59C57.3599 266.85 52.8799 278.42 42.2699 303.46C36.3999 317.31 9.47 401.92 0 428.26H14.9999H86.6799C90.6799 395.67 102.87 300.84 109.68 284.2C116.68 267.2 123.68 263.45 131.31 259.45C136.95 237.53 136.95 226.76 138.61 193.8C135.39 190.65 127.02 185.88 126.12 181.26C123.91 169.85 118.45 159.95 141.45 146.42C141.45 146.42 158.22 157.09 163.3 156.5C163.3 156.5 171.48 162.31 175.3 163.84C179.12 165.37 190.12 166.69 191.3 157.67C191.31 157.67 177 149.94 173.54 146.03Z" fill="#F8CFAE"/>
<g style="mix-blend-mode:multiply" opacity="0.1">
<g style="mix-blend-mode:multiply" opacity="0.1">
<path d="M359.48 29.87H170.52C163.036 29.87 156.97 35.9365 156.97 43.42V323.21C156.97 330.693 163.036 336.76 170.52 336.76H359.48C366.963 336.76 373.03 330.693 373.03 323.21V43.42C373.03 35.9365 366.963 29.87 359.48 29.87Z" fill="black"/>
</g>
</g>
<path d="M359.48 23.96H170.52C163.036 23.96 156.97 30.0265 156.97 37.51V317.3C156.97 324.783 163.036 330.85 170.52 330.85H359.48C366.963 330.85 373.03 324.783 373.03 317.3V37.51C373.03 30.0265 366.963 23.96 359.48 23.96Z" fill="#ED1C24"/>
<path d="M360.52 35.04H169.48V319.76H360.52V35.04Z" fill="white"/>
<path d="M341.5 86.26H225.5V95.86H341.5V86.26Z" fill="#B3B3B3"/>
<path d="M341.5 103.71H225.5V113.31H341.5V103.71Z" fill="#D6D6D6"/>
<path d="M341.5 121.16H187.5V130.76H341.5V121.16Z" fill="#D6D6D6"/>
<path d="M225.59 35.04C225.616 36.3301 226.147 37.5586 227.069 38.4616C227.991 39.3646 229.23 39.8703 230.52 39.87H299.52C300.81 39.8703 302.049 39.3646 302.971 38.4616C303.893 37.5586 304.424 36.3301 304.45 35.04H225.59Z" fill="#D6D6D6"/>
<path d="M299.48 10.66H275.66C275.66 7.8328 274.537 5.12138 272.538 3.12225C270.539 1.12311 267.827 0 265 0C262.173 0 259.461 1.12311 257.462 3.12225C255.463 5.12138 254.34 7.8328 254.34 10.66H230.52C229.21 10.66 227.953 11.1805 227.027 12.1069C226.1 13.0333 225.58 14.2898 225.58 15.6V32.31C225.58 33.6202 226.1 34.8767 227.027 35.8031C227.953 36.7295 229.21 37.25 230.52 37.25H299.52C300.83 37.25 302.087 36.7295 303.013 35.8031C303.94 34.8767 304.46 33.6202 304.46 32.31V15.6C304.46 14.9479 304.331 14.3022 304.08 13.7003C303.829 13.0983 303.462 12.5519 302.999 12.0927C302.536 11.6334 301.987 11.2704 301.383 11.0245C300.779 10.7786 300.132 10.6547 299.48 10.66ZM265 14.85C264.171 14.85 263.361 14.6043 262.672 14.1439C261.983 13.6835 261.446 13.0291 261.129 12.2634C260.812 11.4978 260.729 10.6554 260.89 9.84258C261.052 9.02979 261.451 8.28321 262.037 7.69723C262.623 7.11125 263.37 6.71219 264.183 6.55051C264.995 6.38884 265.838 6.47182 266.603 6.78895C267.369 7.10608 268.023 7.64312 268.484 8.33216C268.944 9.0212 269.19 9.8313 269.19 10.66C269.187 11.7704 268.745 12.8347 267.96 13.6199C267.175 14.4051 266.11 14.8474 265 14.85Z" fill="#D6D6D6"/>
<path d="M225.58 27.89V32.31C225.58 33.6202 226.1 34.8767 227.027 35.8031C227.953 36.7296 229.21 37.25 230.52 37.25H299.52C300.83 37.25 302.087 36.7296 303.013 35.8031C303.94 34.8767 304.46 33.6202 304.46 32.31V27.89H225.58Z" fill="#CCCCCC"/>
<path d="M211.84 91.26V108.31H192.5V91.26H211.84ZM216.84 86.26H187.5V113.31H216.84V86.26Z" fill="#D6D6D6"/>
<path d="M341.5 146.9H225.5V156.5H341.5V146.9Z" fill="#B3B3B3"/>
<path d="M341.5 164.35H225.5V173.95H341.5V164.35Z" fill="#D6D6D6"/>
<path d="M341.5 181.8H187.5V191.4H341.5V181.8Z" fill="#D6D6D6"/>
<path d="M256 257.56H187.5V267.16H256V257.56Z" fill="#D6D6D6"/>
<path d="M225 274.4H187.5V284H225V274.4Z" fill="#D6D6D6"/>
<path d="M341.79 257.56H273.29V267.16H341.79V257.56Z" fill="#D6D6D6"/>
<path d="M310.79 274.4H273.29V284H310.79V274.4Z" fill="#D6D6D6"/>
<path d="M211.84 151.9V168.95H192.5V151.9H211.84ZM216.84 146.9H187.5V173.95H216.84V146.9Z" fill="#D6D6D6"/>
<path d="M341.5 207.54H187.5V216.98H341.5V207.54Z" fill="#B3B3B3"/>
<path d="M251.21 228.68V245.73H192.5V228.68H251.21ZM256.21 223.68H187.5V250.73H256.21V223.68Z" fill="#D6D6D6"/>
<path d="M336.5 228.68V245.73H277.79V228.68H336.5ZM341.5 223.68H272.79V250.73H341.5V223.68Z" fill="#D6D6D6"/>
<path d="M219.41 87.22L202.11 104.51L193.09 95.49" stroke="#494545" stroke-width="5.79" stroke-linecap="round" stroke-linejoin="round"/>
<path d="M219.41 146.9L202.11 164.2L193.09 155.18" stroke="#494545" stroke-width="5.79" stroke-linecap="round" stroke-linejoin="round"/>
<g style="mix-blend-mode:multiply" opacity="0.1">
<g style="mix-blend-mode:multiply" opacity="0.1">
<path d="M202 185.88C198.509 186.641 195.109 187.774 191.86 189.26C189.859 188.499 187.961 187.491 186.21 186.26C184.51 187.72 182.78 189.14 180.99 190.49C177.785 193.096 174.239 195.253 170.45 196.9C171.961 198.733 173.812 200.257 175.9 201.39C175.74 201.6 175.66 201.73 175.66 201.73C175.66 201.73 166.75 203.15 163.66 208.04C161.245 208.247 158.88 208.848 156.66 209.82V235.49H157V255.26C158.44 254.26 159.9 253.14 161.37 251.99C169.62 245.57 178.05 237.55 183.13 228.82C191.13 215.03 197.13 217.53 200.92 210.94C205.16 206.61 206.13 202.82 215.5 197.45C220.56 194.56 214.58 183.15 202 185.88Z" fill="black"/>
</g>
</g>
<g style="mix-blend-mode:multiply" opacity="0.1">
<g style="mix-blend-mode:multiply" opacity="0.1">
<path d="M314.48 322.37L314.62 322.48C315.05 322.83 315.48 323.18 315.92 323.48L316.44 323.87L317.44 324.59L318.04 325.02C318.34 325.25 318.65 325.47 318.97 325.69L319.57 326.11L320.57 326.78L321.14 327.17L322.31 327.93L322.7 328.18L324.26 329.18L324.75 329.48L325.85 330.14L326.48 330.5L327.48 331.07C327.69 331.2 327.91 331.32 328.13 331.44L329.13 331.99L329.76 332.34L330.84 332.92L331.37 333.2C331.89 333.48 332.37 333.75 332.95 334.02L333.28 334.19L334.55 334.82L335.13 335.11L336.13 335.6L336.76 335.9L337.76 336.35L338.38 336.63L339.38 337.09L339.93 337.33L341.21 337.9L341.45 338L342.93 338.64L343.41 338.84L344.41 339.25L344.95 339.47L345.85 339.83L346.39 340.05L347.26 340.39L347.77 340.59L348.77 340.96L349.11 341.09L350.39 341.56L350.66 341.66L351.6 342L352.04 342.15L352.77 342.41L353.21 342.56L353.89 342.8L354.3 342.93L355 343.16L355.3 343.26L356.3 343.57C366.66 346.84 374.99 346.57 387.38 364.44C395 375.8 407 406.98 414.63 428.26H497.22C484.62 409.26 466.69 382.44 457.17 368.99C441.5 346.86 434.68 336.55 429.37 327.24C426.13 321.55 422.79 311.81 418.6 300.85C418.66 300.7 418.711 300.547 418.75 300.39C419.5 297.62 418.25 294.88 415.97 294.12C413.97 289.19 411.83 284.12 409.41 279.2C400.31 260.59 390.41 243.49 384.9 236.71C381.45 232.5 371.84 232.84 363.24 232.71H363.1L360.81 232.64H360.55H359.55H359.28L358.28 232.57H358.08L357.13 232.49H356.91L356.11 232.4H355.78L355 232.28H354.71L354.01 232.14L353.69 232.08L353.03 231.92L352.73 231.85L352.16 231.67L351.83 231.57C351.67 231.52 351.53 231.45 351.38 231.39L351 231.25C350.74 231.13 350.49 231.01 350.25 230.87L349.52 230.45L349.19 230.25L348.73 229.97L348.3 229.7L347.88 229.44L347.35 229.1L347 228.87L346.42 228.49L346.06 228.26L345.4 227.82C345.293 227.759 345.189 227.692 345.09 227.62L344.32 227.11L344.08 226.95L343.08 226.27C334.47 220.49 323.08 212.57 318.67 213.52C312.86 214.78 300.47 240.68 297.95 245.21C296.16 248.42 289.42 254.65 285.64 258C285.467 258.096 285.316 258.229 285.2 258.39L283.56 259.83L275.37 258.91C274.665 258.713 273.929 258.649 273.2 258.72C272.773 258.766 272.364 258.917 272.01 259.16C271.831 259.285 271.67 259.433 271.53 259.6L271.47 259.69L268.81 259.39C268.14 259.23 267.55 259.29 267.34 260.08C267.13 260.87 267.6 261.21 268.27 261.41L270.72 262.48C270.91 263.89 272.13 264.64 273.72 265.1L282.31 268.85L282.01 269.96C281.956 270.108 281.932 270.265 281.939 270.422C281.946 270.579 281.984 270.733 282.051 270.875C282.118 271.017 282.212 271.145 282.329 271.25C282.445 271.356 282.582 271.437 282.73 271.49L285.3 272.18C285.549 272.229 285.807 272.194 286.033 272.079C286.259 271.965 286.441 271.779 286.55 271.55L286.89 271.65C285.51 273.04 284.89 275 285.71 277.6C288.71 287.73 279.32 288.9 282.66 296.01C289.26 310.09 294.18 301.01 307.49 316.01C309.641 318.396 311.982 320.603 314.49 322.61L314.48 322.37ZM300.65 262.26C301.19 261.84 301.8 261.33 302.42 260.78C302.764 261.603 303.237 262.365 303.82 263.04L300.65 262.26ZM334.3 265.64C337.037 263.52 339.596 261.179 341.95 258.64C342.198 259.115 342.421 259.602 342.62 260.1C339 264.4 334.75 268.72 334.75 268.72C334.971 269.5 335.29 270.25 335.7 270.95L325.37 268.39C328.54 268.266 331.62 267.307 334.3 265.61V265.64ZM317.65 263.64C318.252 265.107 319.302 266.346 320.65 267.18L312.87 265.26C314.528 264.93 316.136 264.382 317.65 263.63V263.64ZM308.88 286.95C309.77 283.993 309.856 280.852 309.13 277.85L337.31 285.96C335.642 288.012 333.809 289.925 331.83 291.68C331.773 291.722 331.719 291.769 331.67 291.82L331.6 291.87C331.32 291.75 331.05 291.64 330.77 291.54L330.47 291.44L329.9 291.26L329.56 291.17L329.03 291.04L328.69 290.97L328.15 290.87H327.84L327.28 290.79H327.02H326.43H326.24H325.6H325.49H324.8C323.864 290.784 322.928 290.841 322 290.96C317.9 286.5 308.88 286.94 308.88 286.94V286.95Z" fill="black"/>
</g>
</g>
<g opacity="0.1">
<path opacity="0.1" d="M360.16 316.26C354.1 314.19 334.01 307.13 314.48 300.59C328.24 311.82 347.35 319.13 356.1 321.9C366.46 325.19 374.79 324.9 387.18 342.9C399.57 360.9 422.05 428.26 422.05 428.26H428.59C428.59 428.26 403.59 358.18 391.24 338.84C378.89 319.5 370.52 319.78 360.16 316.26Z" fill="black"/>
</g>
<path d="M196.13 175.11C186.36 177.15 177.531 182.343 171 189.89C170.79 190.14 170.58 190.4 170.38 190.67C169.97 191.21 169.76 191.52 169.76 191.52C169.76 191.52 160.85 192.99 157.76 198.05C157.76 198.05 152.39 198.38 148.6 201.17C144.958 199.162 141.596 196.684 138.6 193.8C125.28 212.42 122.24 238.39 131.3 259.45C132.71 258.71 134.15 257.97 135.61 257.13C145.04 251.73 167.36 237.03 177.2 219.54C185.2 205.28 191.2 207.87 194.99 201.04C199.23 196.56 200.2 192.64 209.57 187.04C214.68 184.09 208.7 172.26 196.13 175.11Z" fill="#F8CFAE"/>
<path opacity="0.1" d="M203.11 180.14C196.71 182.01 189.97 187.29 191.33 188.81C192.69 190.33 199.01 196.17 200.67 194.43C202.33 192.69 211.26 189.06 208.93 185C206.6 180.94 205 179.6 203.11 180.14Z" fill="white"/>
<g opacity="0.1">
<path opacity="0.1" d="M184.67 198.26C185.821 198.351 186.952 198.62 188.02 199.06C189.072 199.484 190.078 200.017 191.02 200.65C191.965 201.282 192.84 202.013 193.63 202.83C194.435 203.656 195.11 204.6 195.63 205.63C194.597 205.171 193.595 204.647 192.63 204.06C191.7 203.49 190.79 202.91 189.89 202.31C188.99 201.71 188.12 201.09 187.24 200.43C186.339 199.761 185.48 199.036 184.67 198.26Z" fill="black"/>
</g>
<path opacity="0.1" d="M90.3299 330.84C85.9999 362.26 77.9399 409.07 74.6699 428.26H86.6699C90.6699 395.67 102.86 300.84 109.67 284.2C116.67 267.2 123.67 263.45 131.3 259.45C132.71 258.71 134.15 257.97 135.61 257.13C142.553 253.103 149.182 248.557 155.44 243.53C132.53 252.18 116.79 258.96 108.94 266.73C104.4 271.26 95.6699 291.84 90.3299 330.84Z" fill="black"/>
<path d="M189.991 70H192.621L189.084 65.3935L192.446 61.2727H189.808L187.107 64.6605H186.77V61.2727H184.661V70H186.77V66.3778H187.247L189.991 70ZM201.713 65.6364C201.713 62.7514 199.889 61.1534 197.545 61.1534C195.193 61.1534 193.382 62.7514 193.382 65.6364C193.382 68.5085 195.193 70.1193 197.545 70.1193C199.889 70.1193 201.713 68.5213 201.713 65.6364ZM199.556 65.6364C199.556 67.3452 198.806 68.2699 197.545 68.2699C196.288 68.2699 195.534 67.3452 195.534 65.6364C195.534 63.9276 196.288 63.0028 197.545 63.0028C198.806 63.0028 199.556 63.9276 199.556 65.6364ZM203.165 70H203.693C205.85 70 206.595 68.8153 206.74 65.8239L206.876 62.9347H209.011V70H211.053V61.2727H204.929L204.788 65.0483C204.703 67.4304 204.32 68.2102 203.403 68.321L203.165 68.3466V70ZM212.968 70H219.054V68.2869H215.078V66.4929H218.742V64.7756H215.078V62.9858H219.054V61.2727H212.968V70ZM226.306 70H228.935L225.398 65.3935L228.76 61.2727H226.122L223.421 64.6605H223.084V61.2727H220.975V70H223.084V66.3778H223.561L226.306 70ZM230.02 62.9858H232.67V70H234.75V62.9858H237.396V61.2727H230.02V62.9858ZM239.026 61.2727V70H240.816L244.289 64.9631H244.344V70H246.454V61.2727H244.638L241.204 66.3011H241.131V61.2727H239.026ZM248.38 70H252.296C254.227 70 255.335 68.9688 255.335 67.5582C255.335 66.2969 254.418 65.5043 253.362 65.4574V65.3722C254.32 65.1719 254.994 64.4773 254.994 63.4801C254.994 62.1634 253.979 61.2727 252.019 61.2727H248.38V70ZM250.489 68.2997V66.2202H251.832C252.637 66.2202 253.131 66.6463 253.131 67.3153C253.131 67.9332 252.705 68.2997 251.793 68.2997H250.489ZM250.489 64.8608V62.9474H251.691C252.394 62.9474 252.842 63.3097 252.842 63.8892C252.842 64.5028 252.347 64.8608 251.657 64.8608H250.489ZM256.949 70H259.058V66.4929H262.497V70H264.602V61.2727H262.497V64.7756H259.058V61.2727H256.949V70ZM266.525 61.2727V70H268.315L271.788 64.9631H271.844V70H273.953V61.2727H272.138L268.703 66.3011H268.63V61.2727H266.525ZM275.879 61.2727V70H277.669L281.142 64.9631H281.197V70H283.307V61.2727H281.491L278.057 66.3011H277.984V61.2727H275.879ZM280.435 58.9545C280.43 59.3423 280.192 59.696 279.582 59.696C278.956 59.696 278.722 59.3295 278.726 58.9545H277.366C277.362 60.0241 278.219 60.7273 279.582 60.7273C280.946 60.7273 281.803 60.0241 281.807 58.9545H280.435ZM288.032 72.1009H290.06V70H295.025V72.0966H297.053V68.3551H296.116V61.2727H290.146L289.873 64.9673C289.715 67.1747 289.242 67.946 288.633 68.3551H288.032V72.1009ZM291.053 68.3551C291.458 67.669 291.786 66.6335 291.901 64.9673L292.038 62.9858H294.087V68.3551H291.053ZM306.858 65.6364C306.858 62.7514 305.034 61.1534 302.69 61.1534C300.338 61.1534 298.527 62.7514 298.527 65.6364C298.527 68.5085 300.338 70.1193 302.69 70.1193C305.034 70.1193 306.858 68.5213 306.858 65.6364ZM304.702 65.6364C304.702 67.3452 303.952 68.2699 302.69 68.2699C301.433 68.2699 300.679 67.3452 300.679 65.6364C300.679 63.9276 301.433 63.0028 302.69 63.0028C303.952 63.0028 304.702 63.9276 304.702 65.6364ZM314.651 61.2727H308.689V70H310.799V62.9858H314.651V61.2727ZM324.124 65.6364C324.124 62.7514 322.3 61.1534 319.957 61.1534C317.604 61.1534 315.793 62.7514 315.793 65.6364C315.793 68.5085 317.604 70.1193 319.957 70.1193C322.3 70.1193 324.124 68.5213 324.124 65.6364ZM321.968 65.6364C321.968 67.3452 321.218 68.2699 319.957 68.2699C318.7 68.2699 317.945 67.3452 317.945 65.6364C317.945 63.9276 318.7 63.0028 319.957 63.0028C321.218 63.0028 321.968 63.9276 321.968 65.6364ZM325.956 70H329.872C331.802 70 332.91 68.9688 332.91 67.5582C332.91 66.2969 331.994 65.5043 330.937 65.4574V65.3722C331.896 65.1719 332.569 64.4773 332.569 63.4801C332.569 62.1634 331.555 61.2727 329.595 61.2727H325.956V70ZM328.065 68.2997V66.2202H329.408C330.213 66.2202 330.707 66.6463 330.707 67.3153C330.707 67.9332 330.281 68.2997 329.369 68.2997H328.065ZM328.065 64.8608V62.9474H329.267C329.97 62.9474 330.417 63.3097 330.417 63.8892C330.417 64.5028 329.923 64.8608 329.233 64.8608H328.065ZM336.634 61.2727H334.525V70H336.634V61.2727ZM338.558 70H340.668V67.2898H342.099C344.098 67.2898 345.347 66.1051 345.347 64.294C345.347 62.5 344.124 61.2727 342.163 61.2727H338.558V70ZM340.668 65.6278V62.973H341.707C342.653 62.973 343.16 63.4844 343.16 64.294C343.16 65.0994 342.653 65.6278 341.707 65.6278H340.668Z" fill="#666666"/>
</svg>
