<svg width="70" height="62" viewBox="0 0 70 62" fill="none" xmlns="http://www.w3.org/2000/svg">
<path d="M30.3107 1.4564C34.9566 -1.12001 40.8664 0.572771 43.4626 5.17714L68.2976 48.2788C68.8442 49.5653 69.0833 50.6115 69.1516 51.6982C69.2883 54.2374 68.4001 56.7055 66.6579 58.6048C64.9157 60.4973 62.5586 61.6146 59.9965 61.75H9.98495C8.92596 61.6857 7.86698 61.4453 6.87631 61.0729C1.92298 59.0754 -0.468286 53.4554 1.54721 48.5835L26.553 5.14667C27.407 3.61978 28.7051 2.3028 30.3107 1.4564ZM34.9907 42.1814C33.351 42.1814 31.9846 43.5356 31.9846 45.1641C31.9846 46.7858 33.351 48.1434 34.9907 48.1434C36.6305 48.1434 37.9627 46.7858 37.9627 45.1269C37.9627 43.5052 36.6305 42.1814 34.9907 42.1814ZM34.9907 21.0588C33.351 21.0588 31.9846 22.3758 31.9846 24.0043V33.5821C31.9846 35.2071 33.351 36.5648 34.9907 36.5648C36.6305 36.5648 37.9627 35.2071 37.9627 33.5821V24.0043C37.9627 22.3758 36.6305 21.0588 34.9907 21.0588Z" fill="white"/>
</svg>
