<svg width="378" height="40" viewBox="0 0 378 40" fill="none" xmlns="http://www.w3.org/2000/svg">
<path d="M147.91 4.30131L151.497 5.3963L154.518 7.17096L156.897 9.47456L158.672 12.2688L159.729 15.4406L160.107 18.9524L159.729 22.5775L158.672 25.8627L156.897 28.7326L154.518 31.1116L151.497 32.924L147.91 34.0568L143.756 34.4346V39.0413H134.618V34.4346L130.502 34.0568L126.877 32.924L123.856 31.1116L121.477 28.7326L119.703 25.8627L118.645 22.5775L118.268 18.9524L118.645 15.4406L119.703 12.2688L121.477 9.47456L123.856 7.17096L126.877 5.3963L130.502 4.30131L134.618 3.92356V0.147461H143.756V3.92356L147.91 4.30131ZM104.372 3.88577L108.185 6.75564L111.093 10.4939L112.943 14.9875L113.585 19.972L112.943 25.1075L111.093 29.6766L108.185 33.5283L104.372 36.4736L99.7647 38.3616L94.5159 39.0413L89.3049 38.3616L84.698 36.4736L80.8841 33.5283L77.9765 29.6766L76.1263 25.1075L75.4843 19.972L76.1263 14.9875L77.9765 10.4939L80.8841 6.75564L84.698 3.88577L89.3049 2.03551L94.5159 1.39364L99.7647 2.03551L104.372 3.88577ZM187.748 1.73336L190.051 2.26207L192.355 3.05513L194.432 4.18792L196.131 5.66066L197.301 7.54871L197.717 9.88987V14.6856H189.56V12.6842L189.409 11.9667L188.994 11.3626L188.39 10.8339L187.635 10.4562L186.766 10.1542L185.822 9.92767L184.878 9.81428L183.934 9.77648L182.008 9.92767L180.233 10.4186L178.61 11.2114L177.175 12.3066L176.004 13.7416L175.136 15.4406L174.569 17.4799L174.38 19.821L174.569 22.011L175.136 24.0125L176.042 25.8627L177.25 27.4486L178.723 28.7704L180.385 29.79L182.197 30.3941L184.161 30.6206L186.426 30.4319L188.465 29.9032L190.24 29.1479L191.751 28.3173L192.959 27.4486L193.827 26.6936L194.356 26.2027L194.545 25.9761L199.189 32.5087L198.925 32.7731L198.17 33.5283L196.924 34.5855L195.225 35.7561L193.072 36.9645L190.467 38.0219L187.446 38.7394L184.01 39.0413L179.894 38.6638L176.155 37.5688L172.908 35.8317L170.113 33.5283L167.923 30.6962L166.262 27.4486L165.242 23.7859L164.902 19.821L165.28 16.0449L166.3 12.5332L167.999 9.39896L170.265 6.68005L173.021 4.45227L176.231 2.79078L179.818 1.73336L183.745 1.39364L185.596 1.46924L187.748 1.73336ZM296.726 2.11111L297.293 2.29987L297.784 2.56422L298.161 2.86638L298.501 3.28169L298.728 3.7726L298.916 4.33888L299.03 4.98098L299.067 5.69845V29.6388V29.8654L299.105 30.0541L299.143 30.2053L299.256 30.3563L299.332 30.4697L299.483 30.5828L299.634 30.6584L299.785 30.734L299.974 30.7716H300.163H302.353V38.4372H293.668L292.912 38.3994L292.27 38.2863L291.704 38.0973L291.213 37.8707L290.836 37.531L290.496 37.1154L290.231 36.6623L290.08 36.096L289.967 35.4542L289.929 34.6989V10.7583V10.5317L289.892 10.343L289.816 10.192L289.74 10.0408L289.627 9.92767L289.514 9.81428L289.363 9.73868L289.212 9.66332L289.023 9.62552H288.796H283.019V14.0813L282.83 19.0658L282.339 23.4838L281.509 27.2599L280.376 30.4697L278.903 33.1128L277.128 35.2274L275.051 36.8513L272.71 37.9463L270.029 38.626L267.122 38.8147V30.734L268.368 30.4697L269.538 30.0166L270.596 29.3367L271.54 28.3551L272.37 27.0333L273.088 25.334L273.654 23.2194L274.07 20.6517L274.296 17.593L274.409 13.9681V9.62552H271.049V1.99771H295.329L296.084 2.03551L296.726 2.11111ZM375.42 29.9788L375.534 30.2431L375.685 30.4697L375.873 30.6206L376.062 30.6962L376.327 30.7716H376.666H377.61V38.4372H371.757L370.776 38.3616L369.945 38.2107L369.227 37.9463L368.661 37.531L368.208 37.0023L367.83 36.3226L367.49 35.4542L365.904 30.7716H355.294L353.745 35.4542L353.406 36.3226L353.028 37.0023L352.537 37.531L351.971 37.9463L351.291 38.2107L350.46 38.3616L349.441 38.4372H343.588V30.7716H344.57H344.872L345.136 30.6962L345.362 30.6206L345.514 30.4697L345.665 30.2431L345.816 29.9788L345.929 29.6388L355.86 1.99771H365.338L375.269 29.6388L375.42 29.9788ZM234.421 2.11111L234.987 2.29987L235.44 2.56422L235.855 2.86638L236.195 3.28169L236.422 3.7726L236.611 4.33888L236.686 4.98098L236.724 5.69845V29.6388L236.762 29.8654L236.799 30.0541L236.837 30.2053L236.913 30.3563L237.026 30.4697L237.139 30.5828L237.29 30.6584L237.479 30.734L237.668 30.7716H237.857H240.047V38.4372H231.324L230.607 38.3994L229.965 38.2863L229.398 38.0973L228.907 37.8707L228.492 37.531L228.19 37.1154L227.926 36.6623L227.775 36.096L227.661 35.4542L227.624 34.6989V10.7583V10.5317L227.586 10.343L227.51 10.192L227.435 10.0408L227.321 9.92767L227.208 9.81428L227.057 9.73868L226.906 9.66332L226.717 9.62552H226.491H215.918V38.4372H206.779V9.62552H203.456V1.99771H233.023L233.741 2.03551L234.421 2.11111ZM65.4021 3.62141L67.7433 5.50946L69.5181 8.00182L70.6509 11.0605L71.0285 14.5344L70.6509 18.0084L69.5181 21.067L67.7433 23.5971L65.4021 25.523L62.4945 26.7311L59.1715 27.1467H53.9228V38.4372H44.7846V9.62552H41.4994V1.99771H59.1715L62.4945 2.41326L65.4021 3.62141ZM30.9641 2.11111L31.5305 2.29987L31.9836 2.56422L32.399 2.86638L32.7388 3.28169L32.9654 3.7726L33.1542 4.33888L33.2675 4.98098V5.69845V29.6388L33.3052 29.8654L33.343 30.0541L33.3808 30.2053L33.4563 30.3563L33.5696 30.4697L33.7206 30.5828L33.8339 30.6584L34.0227 30.734L34.2115 30.7716H34.4003H36.5904V38.4372H27.8676L27.1502 38.3994L26.5083 38.2863L25.9418 38.0973L25.4509 37.8707L25.0356 37.531L24.7335 37.1154L24.4692 36.6623L24.3181 36.096L24.2048 35.4542L24.1671 34.6989V10.7583V10.5317L24.1293 10.343L24.0538 10.192L23.9783 10.0408L23.865 9.92767L23.7517 9.81428L23.6007 9.73868L23.4496 9.66332L23.2608 9.62552H23.0342H12.4611V38.4372H3.32296V9.62552H0V1.99771H29.5669L30.2844 2.03551L30.9641 2.11111ZM258.248 9.62552V30.7716H262.062V38.4372H245.824V30.7716H249.638V9.62552H245.824V1.99771H262.062V9.62552H258.248ZM317.419 2.11111L317.986 2.29987L318.439 2.56422L318.854 2.86638L319.194 3.28169L319.421 3.7726L319.609 4.33888L319.723 4.98098L319.76 5.69845V16.0449H320.969H321.346H321.686L322.026 16.0071L322.328 15.9693L322.63 15.8938L322.895 15.8184L323.121 15.6672L323.348 15.4784L323.574 15.2519L323.763 14.9122L329.918 1.99771H339.849L332.599 16.7246L332.222 17.4043L331.844 18.0084L331.466 18.4993L331.089 18.9148L330.787 19.2167L330.485 19.4811L330.22 19.6699L330.031 19.7832L329.918 19.8588H329.88V19.972H329.918L330.031 20.0476L330.258 20.123L330.485 20.2742L330.787 20.4629L331.164 20.7651L331.504 21.1426L331.92 21.5957L332.297 22.1622L332.675 22.8797L335.998 29.601L336.149 29.9032L336.338 30.1297L336.564 30.3185L336.791 30.4697L337.055 30.5828L337.319 30.6584L337.584 30.734L337.886 30.7716H338.188H338.49H339.472V38.4372H334.11L333.392 38.3994L332.713 38.3616L332.071 38.2863L331.504 38.1351L331.013 37.9463L330.522 37.6441L330.107 37.3044L329.692 36.8889L329.314 36.3604L328.974 35.7183L323.499 24.8055L323.31 24.5034L323.083 24.239L322.857 24.0503L322.555 23.8991L322.253 23.7859L321.951 23.7103L321.611 23.6725L321.233 23.6349H320.856H320.44H319.76V38.4372H310.622V10.7583V10.5317L310.585 10.343L310.509 10.192L310.434 10.0408L310.32 9.92767L310.207 9.81428L310.056 9.73868L309.905 9.66332L309.716 9.62552H309.489H307.299V1.99771H316.022L316.74 2.03551L317.419 2.11111ZM87.7567 12.6842L85.7176 15.9315L84.9623 19.972L85.7176 24.2012L87.7567 27.562L90.8153 29.8276L94.5159 30.6206L98.2542 29.8276L101.313 27.562L103.352 24.2012L104.107 19.972L103.352 15.9315L101.313 12.6842L98.2542 10.5695L94.5159 9.77648L90.8153 10.5695L87.7567 12.6842ZM129.407 13.7038L128.048 16.0449L127.595 18.9524L128.048 22.0488L129.407 24.5412L131.597 26.2027L134.618 26.8067V11.5514L131.597 12.1176L129.407 13.7038ZM146.777 26.2027L149.005 24.5412L150.327 22.0488L150.78 18.9524L150.327 16.0449L149.005 13.7038L146.777 12.1176L143.756 11.5514V26.8067L146.777 26.2027ZM360.429 11.9289L360.089 13.4394L359.598 15.4028L359.07 17.3287L357.257 23.3706H363.979L362.128 17.3287L361.6 15.4028L361.147 13.4394L360.769 11.9289L360.656 11.3248H360.542L360.429 11.9289ZM53.9228 19.5189H57.3213L59.2848 19.1414L60.6442 18.1218L61.4372 16.5359L61.7015 14.5344L61.4372 12.5332L60.6442 10.9849L59.3226 10.003L57.4723 9.62552H53.9228V19.5189Z" fill="white"/>
</svg>
