<svg width="41" height="41" viewBox="0 0 41 41" fill="none" xmlns="http://www.w3.org/2000/svg">
<path fill-rule="evenodd" clip-rule="evenodd" d="M25.6598 29.6838L28.6551 27.4373C32.0141 24.9181 33.9909 20.9644 33.9909 16.7658V10.1037C33.9909 8.26186 32.4978 6.7688 30.656 6.7688H10.6591C8.81728 6.7688 7.32422 8.26186 7.32422 10.1037V16.7658C7.32422 20.9644 9.30104 24.9181 12.66 27.4373L15.6553 29.6838C18.6196 31.907 22.6955 31.907 25.6598 29.6838ZM17.3242 16.7688C17.3242 17.6893 16.578 18.4355 15.6576 18.4355C14.7371 18.4355 13.9909 17.6893 13.9909 16.7688C13.9909 15.8483 14.7371 15.1021 15.6576 15.1021C16.578 15.1021 17.3242 15.8483 17.3242 16.7688ZM22.3242 16.7688C22.3242 17.6893 21.578 18.4355 20.6576 18.4355C19.7371 18.4355 18.9909 17.6893 18.9909 16.7688C18.9909 15.8483 19.7371 15.1021 20.6576 15.1021C21.578 15.1021 22.3242 15.8483 22.3242 16.7688ZM25.6576 18.4355C26.578 18.4355 27.3242 17.6893 27.3242 16.7688C27.3242 15.8483 26.578 15.1021 25.6576 15.1021C24.7371 15.1021 23.9909 15.8483 23.9909 16.7688C23.9909 17.6893 24.7371 18.4355 25.6576 18.4355Z" fill="#ED1C24"/>
</svg>
