<svg width="760" height="758" viewBox="0 0 760 758" fill="none" xmlns="http://www.w3.org/2000/svg">
<path fill-rule="evenodd" clip-rule="evenodd" d="M514.641 210.904C547.421 247.905 599.319 263.854 621.703 308.101C648.005 360.093 673.752 423.3 649.477 477.437C625.268 531.426 553.638 539.067 503.835 570.965C454.003 602.882 416.386 662.864 357.888 664.197C298.604 665.547 252.178 617.805 209.321 577.672C168.711 539.644 124.803 497.342 119.835 441.277C115.072 387.52 166.031 346.652 184.305 295.356C203.951 240.208 190.185 173.231 230.521 130.579C274.565 84.0052 343.824 45.6134 404.312 62.7141C465.214 79.932 472.81 163.686 514.641 210.904Z" fill="url(#paint0_linear)"/>
<path d="M240.643 305.68L250.844 303.58H251.744V310.78L240.643 308.68V305.68Z" fill="#D2E8F4"/>
<path d="M99.7188 557.454C155.039 563.539 210.649 566.624 266.303 566.696C321.88 566.616 377.412 563.531 432.655 557.454C321.943 545.378 210.246 545.378 99.5339 557.454H99.7188Z" fill="#E0E0E0"/>
<path d="M247.912 556.762H241.951L229.66 482.042L243.153 484.814L247.912 556.762Z" fill="#222222"/>
<path d="M150.963 556.762H156.97L169.216 482.042L155.723 484.814L150.963 556.762Z" fill="#222222"/>
<path d="M369.349 556.762H363.341L351.096 482.042L364.589 484.814L369.349 556.762Z" fill="#222222"/>
<path d="M272.403 556.762H278.364L290.655 482.042L277.162 484.814L272.403 556.762Z" fill="#222222"/>
<path d="M156.787 308.157H279.888V448.217H156.787V308.157Z" fill="#9F9F9F"/>
<path d="M340.839 542.391C339.7 547.263 339.28 552.276 339.591 557.27L345.367 557.548L345.598 555.098C349.159 557.73 353.32 559.429 357.705 560.043C362.426 559.859 367.132 559.396 371.799 558.657C370.76 556.622 369.3 554.832 367.515 553.405C365.73 551.979 363.662 550.949 361.448 550.385C356.927 549.212 352.235 548.837 347.585 549.276L345.044 543.5L340.839 542.391Z" fill="#222222"/>
<path d="M383.951 542.391C382.78 547.259 382.344 552.274 382.657 557.27L388.479 557.548L388.71 555.098C392.297 557.744 396.493 559.444 400.909 560.043C405.553 559.85 410.182 559.387 414.772 558.657C413.733 556.622 412.273 554.832 410.488 553.405C408.703 551.979 406.635 550.949 404.421 550.385C399.9 549.212 395.209 548.837 390.559 549.276L388.017 543.5L383.951 542.391Z" fill="#222222"/>
<path d="M358.859 396.185H354.238V487.355H358.859C364.68 487.355 370.263 485.043 374.379 480.926C378.496 476.81 380.808 471.227 380.808 465.406V418.134C380.808 412.313 378.496 406.73 374.379 402.614C370.263 398.497 364.68 396.185 358.859 396.185Z" fill="#C2C2C2"/>
<path d="M364.82 479.824V403.764C364.82 401.754 364.021 399.826 362.6 398.405C361.179 396.984 359.251 396.185 357.241 396.185H309.461C307.464 396.185 305.548 395.392 304.135 393.979C302.723 392.567 301.929 390.651 301.929 388.653V315.689C301.929 314.696 301.733 313.713 301.351 312.796C300.97 311.879 300.411 311.047 299.707 310.347C299.002 309.647 298.167 309.093 297.247 308.717C296.328 308.341 295.344 308.151 294.351 308.157H287.466C285.464 308.157 283.543 308.949 282.123 310.36C280.703 311.772 279.9 313.687 279.887 315.689V479.685C279.887 481.683 280.681 483.599 282.093 485.011C283.506 486.424 285.422 487.217 287.419 487.217H357.241C359.22 487.218 361.12 486.445 362.536 485.064C363.952 483.682 364.771 481.802 364.82 479.824Z" fill="#9F9F9F"/>
<path d="M301.929 388.653V315.689C301.929 314.696 301.733 313.713 301.352 312.796C300.97 311.879 300.411 311.047 299.707 310.347C299.003 309.647 298.167 309.093 297.248 308.717C296.329 308.341 295.344 308.151 294.351 308.157H273.187C271.19 308.157 269.274 308.951 267.861 310.363C266.449 311.776 265.655 313.692 265.655 315.689C265.655 315.689 301.929 392.812 301.929 388.653Z" fill="#C2C2C2"/>
<path d="M225.314 448.217V487.218H355.993V454.363C355.994 452.772 355.379 451.243 354.276 450.097C353.173 448.951 351.668 448.277 350.079 448.217H225.314Z" fill="url(#paint1_linear)"/>
<g style="mix-blend-mode:multiply" opacity="0.3">
<path d="M241.488 453.347C241.488 453.347 312.326 464.021 336.494 453.347L331.873 448.217H242.273L241.488 453.347Z" fill="#B32600"/>
</g>
<path d="M280.766 374.515C283.262 363.425 280.846 333.168 280.846 331.781C273.345 311.68 265.563 302.151 265.563 302.151C259.548 304.552 253.372 306.529 247.08 308.066C236.48 308.133 214.241 297.879 208.241 309.88C208.241 309.88 237.757 329.427 245.335 341.811C252.913 354.196 280.766 374.515 280.766 374.515Z" fill="#374F6D"/>
<path d="M257.662 296.651L256.414 278.722L226.702 265.229L218.754 297.575C222.885 300.549 227.563 302.676 232.52 303.834C237.477 304.992 242.613 305.158 247.634 304.322C257.292 303.721 257.662 296.651 257.662 296.651Z" fill="url(#paint2_linear)"/>
<path d="M246.344 304.48L235.602 319.322L208.754 307.354L219.042 296.979C219.042 296.979 238.765 305.727 246.344 304.48Z" fill="#B4CAD6"/>
<path d="M325.866 409.4C344.349 412.219 378.96 424.28 387.185 434.861C403.682 456.071 393.793 547.565 393.793 547.565H380.577C380.577 547.565 376.788 466.006 367.824 458.936C358.859 451.866 336.725 447.615 336.725 447.615C336.725 447.615 281.043 419.89 281.043 411.757C281.043 403.624 318.334 404.687 325.866 409.4Z" fill="#24353A"/>
<path d="M245.744 304.48L260.713 315.71L266.674 305.313L258.264 297.226C255.469 300.176 249.594 303.181 245.744 304.48Z" fill="#B4CAD6"/>
<path d="M288.621 412.173C288.621 412.173 328.223 415.5 344.719 439.898C361.216 464.297 350.865 547.427 350.865 547.427H336.725C336.725 547.427 334.415 471.736 315.469 457.828C301.329 447.477 281.644 455.979 272.217 449.371C262.791 442.763 260.757 413.19 288.621 412.173Z" fill="#24353A"/>
<path d="M291.21 312.27C306.783 330.754 325.774 401.084 325.774 401.084H306.413C306.413 401.084 288.853 358.017 289.362 344.801C289.87 331.586 291.21 312.27 291.21 312.27Z" fill="url(#paint3_radial)"/>
<path d="M208.864 309.082C208.864 309.082 173.006 316.337 167.276 328.906C161.546 341.475 187.377 367.583 196.48 389.579C205.583 411.574 268.197 448.403 275.035 450.898C268.474 433.477 276.144 422.895 307.382 415.04C312.419 413.792 282.891 377.657 280.673 374.514C278.455 371.372 253.317 349.977 249.851 344.34C246.386 338.702 244.815 333.296 241.072 330.154C237.329 327.011 208.864 309.082 208.864 309.082Z" fill="#FA353D"/>
<path d="M303.502 408.477C313.852 419.29 329.61 409.679 341.116 412.821C330.257 402.424 311.034 398.08 302.531 373.081C294.029 348.082 294.537 314.626 291.21 312.27C285.262 309.512 279.075 307.3 272.726 305.662L266.145 302.68C266.145 302.68 271.34 314.118 277.44 336.299C281.133 348.679 282.265 361.681 280.767 374.513L303.502 408.477Z" fill="#FA353D"/>
<path d="M222.042 218.074C218.911 227.779 225.739 232.191 226.243 242.376C226.331 244.679 224.183 263.776 228.043 269.678C231.903 275.58 248.1 283.074 250.175 284.078C255.044 286.435 262.545 294.879 276.646 289.479C283.055 285.279 290.285 264.166 291.163 260.516C292.41 255.248 290.7 252.013 291.717 246.191C292.225 243.095 295.275 237.873 296.061 234.408C296.061 234.408 296.061 234.038 296.061 233.899C296.061 232.837 296.338 231.82 296.43 230.757C296.523 229.694 296.43 228.77 296.754 227.8C296.754 227.8 296.754 227.338 296.754 227.107C296.754 226.09 296.754 225.12 296.985 224.103C296.985 224.103 296.985 223.78 296.985 223.595C296.985 222.578 296.985 221.515 297.216 220.499C297.447 219.482 297.216 218.188 297.216 217.033C297.216 217.033 296.199 218.743 285.155 216.663C272.956 214.353 254.473 210.009 250.175 212.042C246.927 213.299 223.507 214.914 222.042 218.074Z" fill="#FABE82"/>
<path d="M274.573 253.815C273.972 253.815 250.683 249.564 250.683 249.564L252.809 232.744L258.585 230.017L273.88 230.387C275.629 238.077 275.865 246.035 274.573 253.815Z" fill="url(#paint4_linear)"/>
<path d="M276.469 239.168L274.158 255.803L291.163 260.424C292.411 255.156 290.701 251.921 291.718 246.099C292.226 243.003 295.276 237.781 296.061 234.316C296.061 234.316 296.061 233.946 296.061 233.807L283.123 228.724L276.469 239.168Z" fill="url(#paint5_linear)"/>
<path d="M283.122 231.958C276.283 237.503 275.775 253.075 278.131 259.406C278.501 260.376 280.349 260.746 281.135 262.641C282.521 266.06 275.22 267.262 269.583 264.581C264.962 262.41 264.962 259.591 267.272 258.574C269.583 257.558 272.217 260.099 272.217 260.099C272.217 260.099 272.817 245.774 273.464 237.318C273.988 233.248 273.784 229.118 272.864 225.119L284.739 226.089L283.122 231.958Z" fill="url(#paint6_linear)"/>
<path d="M268.706 242.909L267.828 245.035L252.948 242.493V240.968C258.273 239.919 263.794 240.599 268.706 242.909Z" fill="url(#paint7_linear)"/>
<path d="M253.04 242.495C253.049 244.215 253.298 245.926 253.78 247.578C254.63 247.984 255.511 248.324 256.414 248.594H256.968C259.015 249.252 261.119 249.716 263.253 249.981C263.712 250.05 264.179 250.05 264.639 249.981C264.866 249.965 265.08 249.867 265.24 249.703C266.25 248.129 267.131 246.476 267.873 244.759C267.526 244.507 267.155 244.29 266.764 244.112H266.441L265.517 243.696C264.498 243.297 263.447 242.988 262.375 242.772H261.959C260.873 242.585 259.778 242.462 258.678 242.402H257.523C256.028 242.354 254.532 242.385 253.04 242.495Z" fill="white"/>
<path d="M279.979 246.284V244.39C283.524 244.764 286.987 245.7 290.238 247.162C290.238 248.133 289.221 248.78 289.221 248.78L279.979 246.284Z" fill="url(#paint8_linear)"/>
<path d="M280.118 252.845C282.371 254.134 285.026 254.53 287.557 253.954C288.816 252.426 289.445 250.476 289.313 248.501C287.744 247.818 286.1 247.322 284.415 247.022H283.907H283.537L280.718 246.653C280.17 248.668 279.967 250.761 280.118 252.845Z" fill="white"/>
<path d="M284.925 253.354C286.727 253.354 288.437 251.783 288.714 249.38C288.736 248.98 288.736 248.579 288.714 248.178C287.144 247.496 285.501 247 283.816 246.7H283.307H282.938C282.583 247.362 282.349 248.082 282.245 248.825C282.072 249.776 282.249 250.757 282.741 251.589C283.233 252.421 284.008 253.047 284.925 253.354Z" fill="#5F3A04"/>
<path d="M232.153 243.371C232.07 242.655 231.753 241.987 231.252 241.469C230.751 240.951 230.093 240.613 229.38 240.506C226.839 240.506 222.634 240.275 221.525 241.477C220.416 242.678 220.462 258.62 221.525 260.607C222.31 261.855 226.146 262.271 228.502 262.409C229.322 262.377 230.101 262.043 230.689 261.472C231.278 260.9 231.635 260.132 231.691 259.313C232.234 256.262 232.513 253.17 232.523 250.071C232.598 247.831 232.475 245.589 232.153 243.371Z" fill="#FABE82"/>
<path d="M229.15 258.898C227.253 258.773 225.45 258.026 224.02 256.772C222.357 254.924 223.004 244.203 223.004 244.203C223.004 244.203 227.625 243.418 228.872 244.804C229.875 249.44 229.969 254.226 229.15 258.898Z" fill="url(#paint9_linear)"/>
<path d="M223.004 244.205C223.004 244.205 229.288 242.865 229.704 244.205C230.379 248.909 230.223 253.695 229.242 258.345V258.761C229.52 254.133 229.334 249.489 228.688 244.898C226.83 244.426 224.92 244.193 223.004 244.205Z" fill="#F0B07C"/>
<path d="M248.882 226.366C249.179 228.945 250.354 231.343 252.209 233.159C259.551 234.119 267.017 233.164 273.881 230.386C274.796 226.458 274.288 222.332 272.449 218.742L271.293 219.574L270.924 224.61L269.399 220.729C268.428 221.237 267.365 221.699 266.303 222.161V225.072L264.916 222.716C260.793 224.132 256.557 225.198 252.255 225.904L252.579 229.74L250.823 226.135L248.882 226.366Z" fill="url(#paint10_linear)"/>
<path d="M282.66 231.959C285.219 232.093 287.719 232.782 289.985 233.979C292.251 235.176 294.23 236.852 295.783 238.891C297.61 237.047 298.752 234.634 299.018 232.052C299.029 231.836 299.029 231.62 299.018 231.405C298.113 229.112 296.614 227.103 294.674 225.582L291.393 227.338L292.641 224.242C291.426 223.573 290.117 223.091 288.759 222.81L285.201 227.847C285.488 225.993 286.148 224.216 287.142 222.625C286.466 222.556 285.785 222.556 285.109 222.625C283.498 225.472 282.654 228.688 282.66 231.959Z" fill="url(#paint11_linear)"/>
<path d="M275.59 277.751C274.481 270.404 267.919 270.265 262.374 274.516C270.045 273.038 275.267 276.134 275.59 277.751Z" fill="#EBA06B"/>
<path d="M257.66 244.942C257.598 245.547 257.663 246.158 257.851 246.736C258.04 247.315 258.348 247.847 258.755 248.298C259.163 248.75 259.66 249.111 260.216 249.358C260.771 249.605 261.373 249.733 261.981 249.733C262.589 249.733 263.191 249.605 263.746 249.358C264.302 249.111 264.799 248.75 265.207 248.298C265.614 247.847 265.922 247.315 266.11 246.736C266.299 246.158 266.364 245.547 266.301 244.942C266.326 244.681 266.326 244.418 266.301 244.157L265.377 243.741C264.359 243.342 263.307 243.033 262.235 242.816H261.819C260.734 242.63 259.638 242.507 258.538 242.447C257.973 243.156 257.663 244.035 257.66 244.942Z" fill="#5F3A04"/>
<path d="M263.114 412.175C260.524 413.407 258.261 415.233 256.51 417.506C254.76 419.779 253.571 422.433 253.041 425.252C251.887 425.741 250.605 425.838 249.39 425.529C249.466 422.266 250.489 419.096 252.336 416.405C254.182 413.714 256.771 411.618 259.787 410.373C261.066 410.586 262.237 411.22 263.114 412.175Z" fill="#B71117"/>
<path d="M290.007 401.962C290.746 403.21 292.086 403.811 292.964 403.302C293.423 402.908 293.713 402.352 293.773 401.75C293.833 401.148 293.66 400.545 293.288 400.068C293.221 399.763 293.082 399.478 292.885 399.236C292.687 398.995 292.434 398.803 292.149 398.677C291.863 398.551 291.552 398.495 291.24 398.512C290.928 398.529 290.624 398.619 290.354 398.775C290.083 398.931 289.854 399.149 289.683 399.41C289.512 399.672 289.406 399.97 289.372 400.281C289.338 400.591 289.378 400.905 289.488 401.197C289.599 401.49 289.776 401.752 290.007 401.962Z" fill="#B71117"/>
<path d="M278.363 382.784C279.103 384.032 280.396 384.632 281.321 384.124C281.77 383.723 282.052 383.169 282.112 382.57C282.172 381.971 282.005 381.371 281.644 380.89C280.905 379.642 279.565 379.041 278.687 379.549C278.228 379.944 277.938 380.5 277.878 381.102C277.818 381.704 277.991 382.306 278.363 382.784Z" fill="#B71117"/>
<path d="M321.939 396.187C320.732 396.045 319.508 396.156 318.346 396.514C317.184 396.872 316.11 397.469 315.192 398.266L312.882 395.956L320.691 393.414L321.939 396.187Z" fill="#B71117"/>
<path d="M191.953 490.175C194.126 492.606 195.975 495.308 197.451 498.216C198.222 500.599 198.489 503.117 198.237 505.609C198.237 507.642 193.616 511.662 191.675 510.969C189.734 510.276 188.302 491.654 188.302 491.654L191.953 490.175Z" fill="url(#paint12_radial)"/>
<path d="M194.771 499.186C194.194 504.65 193.947 510.143 194.032 515.636C193.755 518.455 190.335 516.884 189.411 514.481C188.21 516.884 185.945 513.141 185.668 511.801C183.127 513.557 180.031 506.441 179.892 502.559C180.044 498.627 180.539 494.715 181.371 490.868H189.966L194.771 499.186Z" fill="#FABE82"/>
<path d="M225.545 396.185H220.924V487.355H225.545C231.367 487.355 236.95 485.043 241.066 480.926C245.182 476.81 247.495 471.227 247.495 465.406V418.134C247.495 412.313 245.182 406.73 241.066 402.614C236.95 398.497 231.367 396.185 225.545 396.185Z" fill="#C2C2C2"/>
<path d="M228.828 479.824V403.764C228.834 402.771 228.644 401.787 228.268 400.868C227.892 399.948 227.338 399.113 226.638 398.408C225.938 397.704 225.106 397.145 224.189 396.764C223.272 396.382 222.289 396.186 221.296 396.186H189.643C187.645 396.186 185.729 395.392 184.317 393.98C182.904 392.567 182.111 390.651 182.111 388.654V315.69C182.111 314.693 181.913 313.706 181.529 312.786C181.144 311.866 180.581 311.031 179.872 310.331C179.163 309.63 178.321 309.077 177.397 308.704C176.472 308.331 175.483 308.145 174.486 308.158H157.943C155.946 308.158 154.03 308.951 152.617 310.364C151.205 311.776 150.411 313.692 150.411 315.69L160.023 479.686C160.023 481.683 160.816 483.599 162.229 485.012C163.641 486.424 165.557 487.218 167.555 487.218H221.204C223.193 487.243 225.112 486.479 226.541 485.094C227.969 483.708 228.792 481.814 228.828 479.824Z" fill="#C2C2C2"/>
<path d="M231.506 479.824V403.764C231.512 402.767 231.321 401.779 230.942 400.856C230.563 399.934 230.005 399.096 229.3 398.391C228.595 397.686 227.757 397.128 226.835 396.75C225.913 396.371 224.925 396.179 223.928 396.185H176.148C174.15 396.185 172.234 395.392 170.822 393.979C169.409 392.567 168.616 390.651 168.616 388.653V315.689C168.616 313.691 167.822 311.776 166.41 310.363C164.997 308.951 163.081 308.157 161.084 308.157H154.152C152.179 308.193 150.298 309.003 148.916 310.411C147.533 311.82 146.758 313.715 146.759 315.689V479.685C146.753 480.676 146.943 481.658 147.32 482.575C147.696 483.491 148.251 484.324 148.951 485.025C149.652 485.725 150.485 486.28 151.401 486.656C152.318 487.033 153.3 487.223 154.291 487.217H224.067C226.021 487.182 227.886 486.393 229.272 485.016C230.658 483.638 231.459 481.778 231.506 479.824Z" fill="#9F9F9F"/>
<path d="M167.369 328.998C156.325 348.499 164.782 442.534 179.892 491.886C183.958 497.246 194.355 491.886 194.355 491.886C187.752 470.85 185.937 448.605 189.041 426.777C191.078 406.651 194.976 386.758 200.686 367.352C200.686 367.352 205.538 333.897 194.818 322.483C190.104 317.308 180.77 311.716 167.369 328.998Z" fill="#374F6D"/>
<path d="M220.242 226.475C220.412 223.147 221.742 218.074 221.742 218.074L238.543 215.074L232.843 228.575L228.343 240.876H222.642C222.642 240.876 219.951 232.169 220.242 226.475Z" fill="#8F5724"/>
<path d="M312.197 210.595C320.757 214.213 320.409 216.44 321.423 221.343C321.423 221.343 321.395 221.521 321.388 221.566L321.129 221.913C318.654 224.389 315.52 226.101 312.1 226.845C307.049 228.126 301.798 228.421 296.634 227.715C296.431 227.042 296.191 226.38 295.917 225.733C294.229 222.261 291.759 219.228 288.701 216.872C286.95 215.447 285.069 214.19 283.081 213.12C294.608 210.745 307.783 208.765 312.197 210.595Z" fill="#B71117"/>
<path d="M279.405 182.023C290.235 187.319 298.202 196.639 297.722 208.769C297.177 221.755 242.254 215.118 242.254 215.118C242.254 215.118 243.991 215.389 223.044 218.483C222.926 218.503 222.805 218.498 222.689 218.469C222.572 218.441 222.463 218.388 222.367 218.316C222.272 218.243 222.192 218.152 222.133 218.047C222.074 217.943 222.037 217.827 222.025 217.708C221.963 216.352 221.99 215.01 222.043 213.65C222.45 204.178 225.089 194.142 231.741 186.899C242.814 175.009 263.987 174.551 279.405 182.023Z" fill="#ED1C24"/>
<path d="M264.19 201.001C277.586 197.458 313.833 205.947 319.836 213.819C320.896 215.253 321.583 216.928 321.835 218.694C321.944 220.627 321.696 219.585 321.487 220.921C321.393 221.082 321.363 221.273 321.404 221.455C319.931 214.815 315.095 207.512 299.946 215.116C270.245 230.006 238.032 214.824 238.032 214.824C238.032 214.824 243.672 206.465 264.19 201.001Z" fill="#FA353D"/>
<path d="M254.447 218.687C263.329 220.62 272.489 220.922 281.478 219.577C290.965 218.139 298.496 212.859 307.877 211.221C310.002 210.825 312.184 210.863 314.293 211.333L314.649 211.389C317.014 212.124 319.085 213.589 320.566 215.575C321.349 216.602 321.822 217.831 321.929 219.118C322.033 220.008 321.844 220.908 321.392 221.681C321.021 220.279 320.515 218.917 319.883 217.613C319.272 216.311 318.377 215.164 317.263 214.255C316.149 213.347 314.845 212.7 313.448 212.365C308.816 211.345 303.923 213.318 300.011 215.285C270.311 230.175 237.775 215.741 237.775 215.741C237.906 215.093 238.273 214.517 238.803 214.123C243.433 216.762 249.831 217.715 254.447 218.687Z" fill="#ED1C24"/>
<path d="M238.715 214.108L221.997 216.859C221.997 216.859 220.291 218.874 223.044 218.482C225.797 218.091 238.46 216.031 238.46 216.031L238.715 214.108Z" fill="#B71117"/>
<path d="M285.609 326.324L285.768 326.301C285.847 326.318 285.931 326.332 285.996 326.384C286.887 327.05 287.778 327.715 288.669 328.38C288.725 328.425 288.788 328.485 288.783 328.564C288.773 328.625 288.706 328.65 288.653 328.658C288.313 328.71 287.972 328.75 287.632 328.804C287.473 328.821 287.341 328.973 287.36 329.135C287.437 329.741 287.531 330.345 287.609 330.951C287.632 331.117 287.494 331.27 287.333 331.291C286.733 331.378 286.133 331.46 285.532 331.543C285.361 331.575 285.19 331.434 285.178 331.262C285.094 330.677 285.015 330.092 284.931 329.507C284.918 329.333 284.743 329.202 284.573 329.231C284.204 329.276 283.838 329.336 283.469 329.381C283.41 329.391 283.33 329.368 283.322 329.299C283.313 329.198 283.389 329.118 283.445 329.042C284.105 328.182 284.762 327.319 285.421 326.457C285.469 326.394 285.541 326.359 285.609 326.324Z" fill="white"/>
<path d="M282.145 330.747C282.188 330.695 282.238 330.628 282.313 330.63C282.394 330.645 282.413 330.739 282.425 330.807C282.649 332.402 282.871 333.998 283.094 335.593C283.105 335.685 283.126 335.776 283.124 335.868C283.123 335.918 283.09 335.975 283.033 335.975C282.916 335.981 282.831 335.887 282.743 335.825C281.922 335.201 281.1 334.579 280.278 333.957C280.188 333.886 280.077 333.829 280.036 333.715L280.028 333.66C280.022 333.563 280.06 333.47 280.12 333.396C280.795 332.513 281.469 331.63 282.145 330.747Z" fill="white"/>
<path d="M290.177 329.589C290.248 329.567 290.302 329.631 290.355 329.667C291.234 330.314 292.115 330.959 292.994 331.607C293.127 331.694 293.205 331.891 293.102 332.029C292.427 332.913 291.751 333.795 291.077 334.68C291.033 334.73 291.002 334.813 290.926 334.818C290.841 334.801 290.824 334.701 290.814 334.629C290.587 333.005 290.359 331.382 290.134 329.759C290.127 329.701 290.119 329.625 290.177 329.589Z" fill="white"/>
<path d="M285.632 334.514C285.599 334.345 285.729 334.175 285.898 334.154C286.453 334.07 287.01 333.999 287.566 333.918C287.686 333.901 287.82 333.885 287.927 333.957C288.013 334.009 288.056 334.107 288.066 334.204C288.152 334.817 288.236 335.431 288.323 336.044C288.336 336.211 288.481 336.373 288.657 336.353C288.987 336.315 289.314 336.259 289.644 336.22C289.706 336.215 289.796 336.223 289.812 336.298C289.803 336.377 289.736 336.43 289.693 336.492C289.04 337.359 288.388 338.226 287.736 339.093C287.683 339.165 287.609 339.219 287.523 339.244L287.481 339.25C287.392 339.255 287.303 339.226 287.232 339.171C286.356 338.509 285.482 337.844 284.605 337.183C284.552 337.136 284.462 337.105 284.458 337.024C284.479 336.947 284.569 336.929 284.637 336.918C284.977 336.867 285.318 336.826 285.657 336.772C285.83 336.741 285.925 336.548 285.892 336.384C285.808 335.761 285.717 335.138 285.632 334.514Z" fill="white"/>
<mask id="mask0" mask-type="alpha" maskUnits="userSpaceOnUse" x="0" y="0" width="760" height="758">
<path fill-rule="evenodd" clip-rule="evenodd" d="M514.641 210.904C547.421 247.905 599.319 263.854 621.703 308.101C648.005 360.093 673.752 423.3 649.477 477.437C625.268 531.426 553.638 539.067 503.836 570.965C454.003 602.882 416.386 662.864 357.888 664.197C298.604 665.547 252.178 617.805 209.321 577.673C168.711 539.644 124.803 497.342 119.835 441.277C115.072 387.52 166.031 346.652 184.305 295.356C203.951 240.208 190.185 173.231 230.521 130.579C274.565 84.0052 343.824 45.6134 404.312 62.7141C465.214 79.9321 472.81 163.686 514.641 210.904Z" fill="#F4F4F4"/>
</mask>
<g mask="url(#mask0)">
<path fill-rule="evenodd" clip-rule="evenodd" d="M615.19 430.782C616.455 427.548 616.021 415.797 616.619 412.388C617.051 409.605 617.857 406.893 619.014 404.326C619.236 403.853 619.275 403.708 618.628 403.466C616.002 402.501 613.414 401.371 610.826 400.251C606.047 398.175 601.17 396.312 596.613 393.705C592.909 391.646 589.074 389.833 585.132 388.278C581.268 386.722 577.493 384.952 573.825 382.977C572.522 382.253 572.396 380.969 571.894 379.791C570.195 375.871 569.664 377.956 566.835 373.273C564.16 368.86 562.2 364.052 559.805 359.475C556.146 352.465 552.477 345.465 548.643 338.561C548.383 338.088 548.141 337.595 547.89 337.142C546.828 336.765 545.785 336.369 544.762 335.925C544.49 335.786 544.189 335.713 543.883 335.713C543.578 335.713 543.277 335.786 543.004 335.925C539.847 337.499 536.844 339.353 533.793 341.12C533.584 341.237 533.403 341.399 533.262 341.593C531.871 343.669 530.269 345.619 529.4 348.014C529.239 348.384 529.161 348.785 529.171 349.189C529.181 349.592 529.279 349.989 529.458 350.351C530.524 352.431 531.723 354.441 533.049 356.366C533.393 357.095 534.003 357.664 534.755 357.955C535.506 358.247 536.341 358.238 537.086 357.93C537.694 357.756 538.36 357.747 539.017 357.621C539.649 357.421 540.294 357.263 540.948 357.148C539.644 358.15 538.239 359.014 536.757 359.726C535.656 360.19 535.579 360.431 536.13 361.512C536.796 362.816 536.834 364.322 537.472 365.616C536.284 364.255 534.923 363.067 533.735 361.696C531.63 359.253 529.873 356.549 527.7 354.145C526.474 352.784 525.325 351.364 524.128 349.974C522.789 348.503 521.653 346.86 520.748 345.088C520.376 344.288 519.804 343.596 519.087 343.08C513.709 340.907 508.823 337.808 503.812 334.94C503.464 334.747 503.146 334.467 502.692 334.583C501.132 335.014 499.656 335.706 498.328 336.63C498.672 335.93 499.23 335.359 499.921 334.998C500.239 334.795 500.713 334.689 500.577 334.129C499.31 333.611 497.958 333.333 496.59 333.308C492.901 333.81 490.922 336.321 489.493 339.43C489.232 339.98 489.077 340.579 488.826 341.139C488.792 341.254 488.731 341.359 488.65 341.447C488.569 341.535 488.469 341.604 488.357 341.647C488.246 341.691 488.126 341.709 488.006 341.699C487.887 341.69 487.771 341.653 487.668 341.593C485.485 340.85 483.369 339.922 481.343 338.822C480.615 338.42 480.02 337.813 479.632 337.077C479.244 336.341 479.08 335.507 479.161 334.679C479.188 333.764 479.298 332.852 479.489 331.956C479.827 330.498 480.532 329.388 482.164 329.137C482.473 329.089 482.965 329.137 482.83 328.519C482.344 328.325 481.818 328.248 481.296 328.295C480.775 328.342 480.271 328.511 479.827 328.789C478.731 329.248 477.832 330.079 477.288 331.136C476.457 335.384 477.481 339.343 479.219 343.176C479.453 343.703 479.78 344.184 480.185 344.596C482.627 346.942 484.568 349.781 487.224 351.934C488.307 352.801 489.464 353.573 490.68 354.242C493.505 355.952 496.606 357.158 499.844 357.805C500.182 357.834 500.506 357.952 500.784 358.147C501.062 358.342 501.284 358.607 501.427 358.915C502.2 360.397 503.175 361.765 504.324 362.98C507.086 365.982 509.337 369.417 510.986 373.148C511.05 373.305 511.128 373.457 511.218 373.601C511.334 373.756 511.43 373.988 511.662 373.939C511.894 373.891 511.913 373.64 511.923 373.437C511.966 372.625 512.092 371.819 512.299 371.033C512.333 371.12 512.333 371.216 512.299 371.303C512.022 374.139 512.388 377.001 513.371 379.675C514.404 383.035 515.215 386.434 516.104 389.891C516.574 391.972 517.22 394.011 518.035 395.983C518.836 397.789 519.126 399.759 519.85 401.584C521.306 405.57 523.153 409.403 525.364 413.026C526.422 414.667 527.959 415.944 529.767 416.685C530.525 417.062 531.235 417.529 531.881 418.076C534.88 420.363 538.198 422.198 541.73 423.521C545.546 424.863 549.571 425.517 553.616 425.452C556.024 425.432 558.428 425.242 560.81 424.883C562.017 424.699 562.915 423.734 563.812 422.952C565.058 421.832 565.821 420.306 566.912 419.089C567.183 418.727 567.473 418.379 567.781 418.047C567.849 418.616 567.916 419.099 567.974 419.572C568.036 420.392 568.346 421.173 568.862 421.812C568.99 421.928 569.086 422.074 569.142 422.237C569.529 423.956 570.938 424.381 572.358 424.796C575.332 425.665 578.006 427.248 580.816 428.513C587.99 431.758 595 435.359 602.126 438.69C605.023 440.052 608.007 441.346 610.923 442.717C611.222 442.852 611.521 443.074 611.888 442.862C612.506 441.143 612.748 439.337 613.24 437.58C613.732 435.823 614.292 433.824 614.814 431.941C614.688 431.545 614.177 431.342 614.215 430.84C614.534 430.618 614.872 430.869 615.19 430.782Z" fill="#F3AE6D"/>
<path fill-rule="evenodd" clip-rule="evenodd" d="M496.512 333.579C497.848 333.722 499.173 333.947 500.481 334.255C501.145 334.588 501.882 334.751 502.624 334.728C504.218 335.597 505.84 336.437 507.452 337.354C510.542 339.16 513.535 341.168 516.963 342.317C517.658 342.558 518.18 343.176 518.952 343.283C519.358 342.925 519.319 342.423 519.358 341.96C520.787 323.797 522.254 305.635 523.683 287.473C523.867 285.068 524.099 282.645 524.243 280.27C524.243 279.69 524.485 279.14 524.552 278.57C524.253 277.788 523.587 277.933 522.998 278.02C515.207 278.946 507.319 278.62 499.631 277.054C495.548 276.377 491.525 275.376 487.6 274.061C484.374 273.025 481.203 271.826 478.099 270.469C473.117 268.007 467.98 265.863 463.142 263.092C460.101 261.307 456.924 259.764 453.641 258.477C453.345 258.313 453.014 258.22 452.675 258.206C452.416 258.276 452.189 258.431 452.029 258.647C451.869 258.863 451.788 259.126 451.797 259.394C451.721 261.828 451.824 264.265 452.106 266.684C452.386 272.053 452.743 277.421 453.071 282.79C453.293 286.343 453.535 289.887 453.757 293.411C454.047 297.968 454.317 302.526 454.597 307.083C454.597 307.827 454.713 308.57 454.771 309.314C455.283 314.009 456.063 318.67 457.107 323.276C457.245 324.109 457.482 324.923 457.812 325.7C458.474 326.616 459.427 327.28 460.516 327.582C460.989 327.438 461.018 327.051 460.95 326.675C460.767 325.497 460.854 324.309 460.68 323.131C460.021 318.328 459.621 313.494 459.483 308.648C459.309 304.138 459.145 299.639 458.836 295.13C458.45 289.616 458.025 284.103 457.87 278.58C457.87 277.846 458.025 277.479 458.836 277.45C461.288 277.383 462.833 275.751 464.204 273.993C464.393 273.707 464.667 273.488 464.988 273.368C465.31 273.248 465.661 273.234 465.991 273.327C470.703 273.984 474.681 276.494 479.007 278.155C483.332 279.816 487.32 281.515 491.559 282.983C494.928 284.163 498.45 284.853 502.016 285.03C503.783 285.117 505.531 285.3 507.288 285.464C508.36 285.561 508.36 285.561 508.254 286.613C507.987 288.011 508.158 289.456 508.744 290.752C509.33 292.049 510.302 293.132 511.527 293.855C512.515 294.464 513.649 294.797 514.81 294.821C515.553 294.821 515.775 295.091 515.708 295.873C514.945 302.043 514.298 308.213 513.844 314.412C513.545 318.603 512.657 322.745 512.502 326.965C512.396 329.543 512.222 332.121 512.261 334.689C512.261 335.809 512.154 335.925 511.112 335.655C507.008 334.457 502.798 333.666 498.685 332.468C498.148 332.373 497.659 332.101 497.294 331.696C493.432 326.713 488.044 324.203 482.058 322.774C480.04 322.164 477.937 321.88 475.83 321.934C472.624 322.125 469.553 323.287 467.024 325.265C465.873 326.285 465.025 327.601 464.571 329.069C464.461 329.359 464.461 329.678 464.571 329.967C465.363 330.991 466.599 331.387 467.642 332.034C470.046 333.53 472.537 334.93 475.038 336.224C475.347 336.388 475.656 336.678 476.062 336.475C476.359 334.978 476.749 333.502 477.23 332.053C477.326 331.802 477.394 331.541 477.5 331.29C478.033 330.368 478.831 329.627 479.79 329.164C480.749 328.701 481.825 328.537 482.878 328.693C483.236 329.04 483.718 328.963 484.153 329.06C485.727 329.195 486.963 330.161 488.334 330.798C490.256 331.782 492.267 332.58 494.34 333.183C495.043 333.41 495.774 333.543 496.512 333.579Z" fill="#779968"/>
<path fill-rule="evenodd" clip-rule="evenodd" d="M477.404 331.242C476.449 332.792 475.926 334.568 475.888 336.388C475.656 337.549 475.76 338.751 476.187 339.855C477.033 343.496 478.938 346.805 481.662 349.366C481.868 349.524 482.062 349.699 482.241 349.887C485.273 352.842 488.942 354.84 492.631 356.801C494.468 357.68 496.175 358.811 497.7 360.161C497.81 360.291 497.949 360.394 498.106 360.46C499.573 360.875 500.153 362.073 500.8 363.289C501.713 364.879 502.784 366.374 503.996 367.75C507.967 372.81 510.96 378.567 512.821 384.725C513.468 386.654 513.952 388.634 514.269 390.644C515.424 398.751 517.855 406.625 521.472 413.972C522.33 416.008 523.496 417.9 524.929 419.582C525.18 419.852 525.393 420.18 525.798 420.248C526.652 420.909 527.449 421.638 528.183 422.43C531.307 425.306 534.899 427.628 538.804 429.295C542.215 430.674 545.874 431.332 549.551 431.227C552.255 431.053 554.968 431.053 557.672 431.227C560.573 431.402 563.339 432.517 565.551 434.403C571.179 439.201 577.082 443.666 583.23 447.776C590.231 452.691 597.096 457.789 604.019 462.81C604.202 462.946 604.405 463.061 604.646 463.216C605.853 460.319 607.041 457.548 608.045 454.661C609.223 451.233 610.363 447.786 611.512 444.349C611.666 443.866 611.753 443.383 611.879 442.871C606.298 440.274 600.707 437.696 595.136 435.07C590.221 432.752 585.325 430.367 580.411 428.021C578.48 427.055 576.384 426.273 574.453 425.221C573.237 424.554 571.779 424.487 570.533 423.85C570.388 423.792 570.258 423.703 570.152 423.589C570.045 423.476 569.964 423.341 569.915 423.193C569.682 422.563 569.357 421.97 568.949 421.436C568.051 420.306 568.245 418.887 567.984 417.573C567.008 418.281 566.211 419.207 565.657 420.277C564.507 421.982 563.05 423.459 561.36 424.632C560.868 425.008 560.259 424.719 559.699 424.796C556.361 425.306 552.972 425.406 549.609 425.095C544.204 424.558 539.015 422.69 534.508 419.659C532.625 418.218 530.633 416.927 528.55 415.797C526.815 414.831 525.442 413.326 524.639 411.51C523.027 408.497 521.637 405.378 520.314 402.231C519.541 400.396 519.348 398.368 518.518 396.553C516.77 392.584 515.998 388.326 514.81 384.184C514.066 381.567 513.468 378.912 512.56 376.324C512.197 374.951 512.167 373.511 512.473 372.124C512.551 371.501 512.512 370.869 512.357 370.261C511.793 371.426 511.531 372.714 511.595 374.007C511.073 372.848 510.706 371.834 510.185 370.907C508.315 367.645 506.101 364.593 503.58 361.802C502.778 360.93 502.126 359.932 501.649 358.848C501.546 358.543 501.361 358.274 501.114 358.069C500.866 357.865 500.567 357.733 500.249 357.689C496.721 357.016 493.345 355.707 490.284 353.827C487.396 352.046 484.854 349.756 482.782 347.068C482.348 346.509 481.867 345.989 481.343 345.513C479.48 343.949 478.707 341.786 478.041 339.584C477.189 336.89 476.971 334.035 477.404 331.242Z" fill="#E79354"/>
<path fill-rule="evenodd" clip-rule="evenodd" d="M524.398 278.425C523.683 279.594 523.896 280.926 523.78 282.181C523.278 288.033 522.814 293.894 522.39 299.745C521.675 308.828 520.954 317.911 520.227 326.993C519.802 332.413 519.367 337.83 518.923 343.244C520.14 344.209 520.68 345.706 521.482 346.99C522.152 348.129 522.945 349.192 523.848 350.157C524.359 350.36 524.601 350.013 524.813 349.655C525.008 349.293 525.141 348.902 525.209 348.497C525.856 345.04 527.275 341.834 528.463 338.551C529.996 334.234 531.759 330.002 533.745 325.873C533.91 325.611 533.988 325.304 533.967 324.995C533.822 320.862 534.739 316.865 535.56 312.857C539.062 295.812 542.563 278.754 546.065 261.682C546.114 261.451 546.133 261.219 546.171 260.977C546.249 259.915 545.621 260.273 545.138 260.504C542.899 261.481 540.801 262.754 538.901 264.289C538.011 264.908 537.154 265.572 536.332 266.278C535.927 266.703 535.483 266.5 535.019 266.278C531.447 264.647 527.99 262.744 524.272 261.451C519.34 259.667 514.247 258.364 509.065 257.559C503.532 256.739 497.912 256.594 492.428 255.367C490.207 254.885 487.977 254.402 485.736 254.093C483.023 253.687 480.349 253.021 477.616 252.77C477.346 252.828 477.085 252.886 477.017 253.214C477.239 253.803 477.819 253.919 478.302 254.18C482.164 255.927 486.258 257.279 490.236 258.863C494.031 260.369 498.047 261.093 501.997 262.078C508.862 263.797 515.853 264.733 522.834 265.757C525.936 266.088 529.001 266.708 531.987 267.611C532.325 267.727 532.866 267.698 532.876 268.142C532.885 268.586 532.412 268.77 532.055 268.972C531.576 269.23 531.057 269.403 530.52 269.484C530.338 269.503 530.165 269.573 530.022 269.685C529.878 269.798 529.77 269.949 529.709 270.121C530.172 270.971 530.172 270.971 529.496 271.859C528.803 272.737 528.065 273.578 527.285 274.379C527.082 274.631 526.899 274.901 526.677 275.133C525.692 276.056 524.915 277.179 524.398 278.425Z" fill="#5E7552"/>
<path fill-rule="evenodd" clip-rule="evenodd" d="M530.539 269.687C531.487 269.579 532.373 269.162 533.059 268.499C533.571 268.016 533.542 267.804 532.856 267.534C529.959 266.6 526.977 265.954 523.954 265.602C518.624 264.917 513.333 264.212 508.012 263.111C502.692 262.011 497.391 261.093 492.254 259.249C487.117 257.405 481.98 255.59 477.046 253.253C476.976 253.177 476.912 253.096 476.853 253.011C476.988 253.098 477.307 252.77 477.616 253.011C482.212 253.832 486.837 254.498 491.404 255.483C496.512 256.594 501.717 256.922 506.854 257.559C511.05 258.106 515.198 258.974 519.261 260.157C524.523 261.634 529.371 264.019 534.305 266.278C534.575 266.404 534.816 266.607 535.087 266.751C535.278 266.893 535.511 266.965 535.749 266.954C535.986 266.944 536.213 266.852 536.39 266.694C539.008 264.288 541.981 262.301 545.206 260.804C545.563 260.63 546.017 260.215 546.123 261.045C546.452 260.263 546.123 259.886 545.37 259.616C540.648 257.81 535.83 256.275 531.022 254.788C522.492 251.972 513.714 249.974 504.807 248.821C502.557 248.57 500.346 247.855 498.048 247.739C491.065 247.186 484.055 247.047 477.056 247.324C475.502 247.411 473.937 247.44 472.383 247.479C471.632 247.534 470.921 247.84 470.365 248.348C469.696 248.866 468.963 249.295 468.183 249.622C465.684 250.742 463.256 252.012 460.912 253.427C462.543 254.849 464.273 256.156 466.087 257.337C468.279 258.757 470.413 260.234 472.653 261.595C475.839 263.333 479.146 264.837 482.55 266.095C486.972 267.91 491.636 268.779 496.261 269.851C506.168 272.149 516.278 273.047 526.281 274.679C526.439 274.737 526.609 274.758 526.776 274.739C526.944 274.721 527.105 274.664 527.246 274.573C528.41 273.503 529.458 272.316 530.375 271.029C530.858 270.44 529.853 270.623 529.68 270.305L530.539 269.687Z" fill="#95B776"/>
<path fill-rule="evenodd" clip-rule="evenodd" d="M486.258 262.223C485.621 261.827 484.993 261.422 484.327 261.045C483.661 260.668 483.081 260.273 482.396 259.983C480.522 258.94 478.582 258.052 476.602 257.173C476.071 256.883 475.501 256.661 474.99 256.343C473.696 255.715 472.499 254.914 471.243 254.209C470.973 254.025 470.664 253.9 470.403 253.707C470.287 253.629 470.403 253.62 470.403 253.639C470.669 253.88 470.972 254.076 471.301 254.218C472.556 254.923 473.773 255.686 475.057 256.352C475.569 256.681 476.139 256.893 476.67 257.192C478.601 258.081 480.532 258.959 482.405 259.992C483.081 260.292 483.67 260.765 484.336 261.055C487.94 262.8 491.763 264.051 495.701 264.772L486.258 262.223Z" fill="#95B776"/>
<path fill-rule="evenodd" clip-rule="evenodd" d="M513.024 384.493C511.148 378.367 508.16 372.639 504.208 367.596C502.6 365.806 501.26 363.793 500.23 361.619C500.091 361.316 499.866 361.06 499.583 360.885C495.247 357.756 490.381 355.497 485.93 352.562C484.646 351.725 483.455 350.754 482.376 349.665C482.077 349.665 482.077 349.897 482.038 350.09C482.304 351.281 482.817 352.403 483.545 353.382C485.391 356.493 487.74 359.277 490.497 361.619C491.083 362.136 491.732 362.577 492.428 362.932C493.017 363.231 493.577 363.56 494.166 363.897C495.329 364.527 496.536 365.073 497.777 365.529C498.176 365.667 498.541 365.888 498.847 366.178C499.153 366.467 499.394 366.819 499.554 367.209C502.086 372.546 504.251 378.05 506.033 383.682C506.371 384.715 506.68 385.758 507.047 386.781C507.764 388.761 508.031 390.875 507.829 392.971C507.249 400.077 507.211 407.213 507.114 414.339C507.183 414.826 507.081 415.322 506.825 415.742C506.57 416.163 506.178 416.482 505.714 416.646C504.811 417.126 504.013 417.78 503.365 418.571C502.717 419.362 502.232 420.273 501.939 421.252C501.533 422.401 501.543 422.392 500.346 422.025C498.217 421.32 496.151 420.442 494.166 419.398C493.812 419.24 493.506 418.99 493.28 418.675C493.054 418.359 492.917 417.989 492.882 417.602C491.963 411.301 489.021 405.47 484.501 400.985C484.264 400.793 484.074 400.55 483.945 400.274C483.817 399.998 483.752 399.696 483.757 399.392C483.913 397.464 483.717 395.524 483.178 393.666C482.57 391.783 482.502 389.804 481.971 387.873C480.982 384.552 479.525 381.388 477.645 378.478C474.395 373.266 470.502 368.485 466.058 364.245C465.931 364.153 465.825 364.036 465.744 363.901C465.664 363.766 465.613 363.616 465.593 363.461C465.573 363.305 465.585 363.147 465.629 362.996C465.672 362.846 465.746 362.705 465.846 362.584C466.678 361.119 467.209 359.503 467.407 357.83C467.606 356.157 467.469 354.461 467.005 352.842C466.58 351.133 466.232 349.404 465.74 347.715C464.62 344.229 462.949 340.956 461.626 337.557C460.796 335.442 460.062 333.308 459.425 331.126C459.319 330.778 459.367 330.276 458.778 330.267C458.687 330.448 458.633 330.645 458.62 330.848C458.607 331.05 458.634 331.253 458.701 331.445C459.116 334.341 459.386 337.19 459.985 340.009C460.506 342.462 460.95 344.943 461.298 347.415C461.752 350.669 462.264 353.933 462.688 357.187C463.007 359.398 463.654 361.57 463.857 363.801C463.992 365.114 464.166 366.418 464.407 367.721C464.472 368.226 464.65 368.709 464.93 369.134C465.209 369.559 465.582 369.915 466.02 370.174C466.831 370.666 467.594 371.236 468.385 371.757C471.63 373.939 473.802 377.048 475.811 380.293C477.693 383.243 479.195 386.419 480.281 389.746C480.951 392.234 481.368 394.783 481.527 397.354C481.547 397.9 481.427 398.442 481.179 398.928C481.1 399.069 481.051 399.225 481.034 399.385C481.018 399.546 481.034 399.708 481.083 399.862C481.132 400.016 481.212 400.159 481.318 400.28C481.425 400.402 481.555 400.5 481.701 400.57C485.959 403.177 487.494 407.329 487.996 411.973C488.137 414.127 487.618 416.272 486.509 418.124C486.2 419.041 485.263 419.485 484.829 420.306C486.953 422.604 489.657 423.956 492.467 425.211C497.883 427.664 503.474 429.749 508.978 431.97C510.446 432.569 511.875 433.254 513.333 433.901C514.617 434.51 514.607 434.519 515.428 433.322C515.273 428.494 514.675 423.666 514.221 418.838C513.596 412.666 513.309 406.464 513.362 400.261C513.439 395.433 513.506 390.557 513.217 385.71C513.139 385.352 512.927 384.947 513.024 384.493Z" fill="#779968"/>
<path fill-rule="evenodd" clip-rule="evenodd" d="M486.557 418.452C488.759 414.947 488.604 411.259 487.32 407.522C486.258 404.422 484.568 401.729 481.527 400.213C481.082 399.981 481.063 399.711 481.276 399.315C481.71 398.322 481.838 397.223 481.643 396.157C481.369 392.119 480.282 388.178 478.446 384.57C476.483 380.353 473.83 376.493 470.596 373.148C469.417 372.017 468.096 371.043 466.667 370.251C466.09 369.996 465.59 369.595 465.218 369.086C464.845 368.578 464.612 367.981 464.542 367.354C464.417 366.196 464.262 365.018 464.079 363.859C463.335 359.031 462.35 354.319 461.761 349.511C460.979 343.022 459.444 336.649 458.72 330.199C458.854 329.964 458.914 329.694 458.893 329.424C458.873 329.153 458.772 328.896 458.604 328.683C458.092 328.896 458.073 328.896 458.15 329.581C458.343 331.059 458.565 332.536 458.797 334.003C459.211 337.606 459.166 341.246 458.662 344.837C458.527 346.276 458.324 347.734 458.063 349.163C457.66 351.049 456.641 352.748 455.167 353.991C454.271 354.709 453.166 355.117 452.019 355.154C450.871 355.19 449.743 354.853 448.804 354.194C448.572 354.02 448.33 353.701 448.012 353.923C447.693 354.145 447.915 354.416 448.012 354.676C448.364 356.772 449.512 358.651 451.217 359.919C451.591 360.185 451.917 360.512 452.183 360.885C452.598 361.493 452.405 361.976 451.671 361.976C450.937 361.976 450.416 362.237 449.74 362.208C449.605 362.194 449.469 362.194 449.335 362.208C448.997 362.285 448.649 362.411 448.63 362.797C448.61 363.183 448.948 363.357 449.286 363.444C449.418 363.457 449.551 363.457 449.682 363.444C450.152 363.349 450.633 363.316 451.111 363.347L452.019 363.453C455.693 363.72 459.162 365.248 461.839 367.779C464.185 370.019 466.541 372.25 469.051 374.335C471.039 376.131 472.759 378.203 474.159 380.486C476.426 384.118 478.144 388.064 479.258 392.198C479.658 393.249 479.816 394.377 479.719 395.497C479.622 396.618 479.273 397.701 478.698 398.668C478.507 399.015 478.277 399.339 478.012 399.633C475.994 401.719 474.912 401.564 473.184 399.942C471.823 398.716 470.5 397.441 469.235 396.08C466.766 393.672 464.154 391.415 461.414 389.321C460.024 388.253 458.731 387.064 457.552 385.768C456.586 384.58 455.07 384.02 453.96 382.987C452.89 382.15 451.874 381.247 450.918 380.283C448.33 377.696 445.588 375.253 443.435 372.259C443.232 371.979 443.02 371.487 442.469 371.815V373.418C442.432 373.635 442.453 373.857 442.531 374.063C442.61 374.269 442.742 374.449 442.914 374.586C444.677 376.451 446.264 378.474 447.654 380.631C448.331 381.798 448.872 383.039 449.267 384.329C450.377 386.888 451.594 389.389 452.598 391.986C452.857 392.65 453.267 393.245 453.795 393.724C456.628 396.408 459.525 399.006 462.486 401.516C464.851 403.515 467.4 405.253 469.795 407.203C471.836 408.719 473.96 410.118 476.158 411.394C477.558 412.292 478.949 413.209 480.281 414.194C482.106 415.536 484.076 416.695 485.852 418.114C486.036 418.312 486.288 418.432 486.557 418.452Z" fill="#E79354"/>
<path fill-rule="evenodd" clip-rule="evenodd" d="M524.398 278.425C525.084 278.116 525.035 277.305 525.489 276.822C525.943 276.34 526.368 275.731 526.802 275.191C526.59 274.505 525.953 274.64 525.47 274.553C522.011 274.069 518.524 273.811 515.032 273.781C509.908 273.621 504.809 273.004 499.795 271.937C490.763 269.862 482.05 266.585 473.889 262.194C471.315 260.823 468.831 259.288 466.454 257.598C464.726 256.362 463.017 255.068 461.173 253.987C460.948 253.834 460.695 253.729 460.429 253.678L452.647 258.129C452.894 258.42 453.236 258.615 453.612 258.679C458.73 260.697 463.422 263.507 468.299 266.027C470.5 267.147 472.846 267.958 475.058 269.136C479.73 271.52 484.622 273.444 489.667 274.882C496.581 277.053 503.74 278.351 510.977 278.744C515.022 278.984 519.081 278.822 523.095 278.261C523.535 278.162 523.996 278.22 524.398 278.425Z" fill="#95B776"/>
<path fill-rule="evenodd" clip-rule="evenodd" d="M452.096 363.405C451.835 363.29 451.545 363.259 451.266 363.318C450.783 363.125 450.3 363.531 449.817 363.318C449.412 363.376 448.852 363.376 448.91 362.893C448.968 362.41 449.547 362.594 449.875 362.478C450.003 362.39 450.11 362.275 450.188 362.141C450.267 362.008 450.316 361.859 450.331 361.705C450.347 361.551 450.329 361.395 450.279 361.248C450.228 361.102 450.147 360.968 450.039 360.856C448.012 358.22 448.108 355.062 447.848 352.031C447.799 351.442 447.992 351.297 448.591 351.316C449.087 351.331 449.579 351.213 450.013 350.974C450.448 350.734 450.811 350.382 451.063 349.955C451.62 349.097 451.995 348.134 452.164 347.125C452.76 343.197 452.948 339.217 452.724 335.249C452.14 327.227 452.188 319.172 452.869 311.158C452.869 310.762 453.004 310.337 452.647 310.009C450.798 310.467 449.101 311.399 447.722 312.713C446.922 313.549 446.3 314.539 445.894 315.623C445.487 316.707 445.304 317.861 445.356 319.018C445.279 322.156 445.424 325.304 445.482 328.451C445.559 332.169 445.627 335.886 445.743 339.604C445.83 342.172 446.1 344.731 446.419 347.328C446.492 347.588 446.503 347.862 446.451 348.127C446.399 348.392 446.286 348.641 446.119 348.854C446.031 348.955 445.966 349.073 445.926 349.201C444.362 354.483 441.909 359.504 441.388 365.085C441.166 367.431 441.861 369.633 442.411 371.844C443.042 372.717 443.715 373.558 444.43 374.364C447.008 377.657 450.223 379.926 453.226 382.842C453.384 382.964 453.556 383.067 453.738 383.151C454.288 382.871 453.95 382.494 453.738 382.272C451.806 380.013 450.6 377.203 448.388 375.146C447.63 374.405 447.155 373.421 447.046 372.365C446.915 371.291 446.712 370.226 446.438 369.179C446.013 367.692 447.259 365.52 448.784 364.863C449.566 364.535 450.416 364.4 451.208 364.1C451.584 363.917 452.096 363.975 452.096 363.405Z" fill="#F2BD7C"/>
<path fill-rule="evenodd" clip-rule="evenodd" d="M486.557 418.452C484.308 416.521 481.73 414.986 479.316 413.228C477.568 411.944 475.704 410.844 473.889 409.666C472.716 408.997 471.584 408.259 470.5 407.454C468.163 405.523 465.605 403.814 463.268 401.854C461.433 400.309 459.57 398.793 457.803 397.171C456.364 395.839 454.906 394.545 453.545 393.125C452.444 391.947 452.212 390.277 451.527 388.857C450.841 387.438 450.117 385.874 449.412 384.387C448.929 383.608 448.503 382.794 448.137 381.954C447.65 380.959 447.037 380.031 446.312 379.192C445.898 378.587 445.276 378.155 444.564 377.977C443.853 377.799 443.101 377.888 442.45 378.227C443.493 381.201 444.845 384.02 446.158 386.917C448.244 391.445 450.165 396.032 451.807 400.724C452.283 401.986 453.166 403.053 454.317 403.756C459.792 407.57 465.749 410.689 470.915 414.938C473.416 416.985 476.178 418.645 478.785 420.547C480.397 421.716 482.154 421.108 483.863 420.654C484.153 420.576 484.443 420.461 484.732 420.364C485.535 419.946 486.177 419.274 486.557 418.452Z" fill="#F3AE6D"/>
<path fill-rule="evenodd" clip-rule="evenodd" d="M533.957 324.995C532.45 327.826 531.134 330.755 530.018 333.762C528.569 337.412 527.211 341.088 525.943 344.789C525.479 346.15 525.19 347.521 524.842 348.893C524.707 349.462 524.533 350.013 523.877 350.157C526.773 353.508 529.612 356.916 532.287 360.421C533.883 362.479 535.693 364.363 537.684 366.041C537.172 364.525 537.124 362.884 536.323 361.484C535.85 360.653 535.956 360.277 536.863 359.958C538.377 359.286 539.793 358.412 541.073 357.361C541.139 357.338 541.2 357.302 541.252 357.256C541.304 357.21 541.347 357.153 541.378 357.091C541.408 357.028 541.426 356.96 541.43 356.89C541.434 356.82 541.424 356.751 541.402 356.685C539.454 357.295 537.453 357.715 535.425 357.94C535.155 358.011 534.869 357.986 534.617 357.867C534.364 357.749 534.162 357.546 534.044 357.293C532.531 355.299 531.175 353.191 529.989 350.988C529.694 350.431 529.541 349.812 529.541 349.182C529.541 348.553 529.694 347.933 529.989 347.377C530.877 345.32 532.374 343.688 533.494 341.805C533.928 341.081 534.884 340.84 535.599 340.444C538.109 338.966 540.6 337.479 543.207 336.176C543.423 336.05 543.668 335.984 543.917 335.984C544.166 335.984 544.411 336.05 544.627 336.176C545.483 336.576 546.36 336.93 547.253 337.238C547.475 337.325 547.745 337.566 547.958 337.19C546.5 334.187 545.418 330.962 542.647 328.789C541.113 327.739 539.435 326.917 537.665 326.346C536.39 325.815 535.135 325.429 533.957 324.995Z" fill="#E79354"/>
<path fill-rule="evenodd" clip-rule="evenodd" d="M452.666 310.019C452.473 313.041 452.193 316.073 452.086 319.095C451.99 321.75 452.086 324.415 452.086 327.071C452.144 331.483 452.589 335.877 452.463 340.299C452.395 342.568 452.154 344.808 451.874 347.058C451.853 347.754 451.676 348.437 451.355 349.056C451.034 349.674 450.578 350.213 450.02 350.63C449.741 350.882 449.393 351.043 449.021 351.093C448.648 351.143 448.27 351.079 447.934 350.91C447.577 350.698 447.423 350.824 447.471 351.219C447.693 353.363 447.867 355.516 448.157 357.65C448.371 358.717 448.849 359.712 449.547 360.547C449.777 360.806 449.931 361.123 449.99 361.464C450.05 361.806 450.014 362.157 449.885 362.478C450.696 362.478 451.517 362.478 452.309 362.304C452.888 362.208 453.004 361.339 452.55 360.808C452.32 360.511 452.05 360.248 451.748 360.025C450.838 359.437 450.061 358.664 449.469 357.755C448.876 356.847 448.482 355.824 448.311 354.753C448.311 354.522 448.021 354.367 448.128 353.981C449.093 354.86 450.059 355.719 451.333 355.555C453.158 355.323 454.935 355.062 456.248 353.402C457.602 351.588 458.446 349.444 458.691 347.193C459.177 343.722 459.41 340.221 459.386 336.717C459.241 334.42 458.937 332.136 458.479 329.88C458.421 329.485 458.227 329.089 458.479 328.693C458.665 328.239 458.73 327.744 458.666 327.258C458.601 326.772 458.41 326.311 458.112 325.922C456.586 320.891 455.987 315.687 455.215 310.472C455.147 310.038 455.215 309.507 454.742 309.208L452.666 310.019Z" fill="#F3AE6D"/>
<path fill-rule="evenodd" clip-rule="evenodd" d="M513.024 384.493C512.84 386.129 512.84 387.781 513.024 389.417C513.101 392.073 513.024 394.738 513.024 397.393C513.101 400.724 512.898 404.055 513.101 407.396C513.41 412.417 513.671 417.428 514.26 422.43C514.746 425.668 514.981 428.938 514.964 432.211C514.964 432.617 514.897 433.119 515.37 433.399C518.972 429.122 522.409 424.709 525.788 420.248C521.781 415.42 519.628 409.627 517.687 403.833C516.221 399.774 515.21 395.564 514.675 391.281C514.385 388.963 513.831 386.685 513.024 384.493Z" fill="#5E7552"/>
<path fill-rule="evenodd" clip-rule="evenodd" d="M460.429 253.678C461.819 254.643 463.181 255.763 464.629 256.681C466.667 257.955 468.491 259.461 470.625 260.659C475.224 263.306 479.999 265.635 484.916 267.63C491.442 270.247 498.25 272.101 505.202 273.153C509.641 273.799 514.12 274.122 518.605 274.119C521.166 274.2 523.718 274.462 526.242 274.901C526.435 274.96 526.617 275.048 526.783 275.162C527.026 274.997 527.212 274.761 527.314 274.486C520.111 273.269 512.83 272.555 505.637 271.348C501.137 270.585 496.686 269.494 492.206 268.615C486.412 267.476 481.015 265.187 475.675 262.773C473.152 261.547 470.739 260.106 468.463 258.467C467.091 257.501 465.672 256.671 464.32 255.715C463.49 255.136 462.746 254.441 461.945 253.784C461.825 253.643 461.677 253.529 461.511 253.447C461.345 253.366 461.164 253.319 460.979 253.311L460.429 253.678Z" fill="#779A68"/>
<path fill-rule="evenodd" clip-rule="evenodd" d="M442.489 378.207C444.574 377.879 445.501 378.381 446.602 380.138C448.147 382.639 451.024 388.21 451.295 388.433C450.957 387.312 446.93 377.338 442.914 374.258C442.663 374.035 442.49 373.737 442.421 373.408C441.979 374.981 442.003 376.648 442.489 378.207Z" fill="#F2AC6C"/>
<path fill-rule="evenodd" clip-rule="evenodd" d="M615.191 430.783C614.775 430.329 613.935 430.309 613.858 430.599C613.819 430.9 613.897 431.205 614.077 431.45C614.257 431.694 614.525 431.86 614.824 431.912L615.191 430.783Z" fill="#E89556"/>
<path fill-rule="evenodd" clip-rule="evenodd" d="M496.512 333.579L494.311 332.941C491.945 333.627 490.545 335.49 489.135 337.306C488.662 337.969 488.261 338.681 487.938 339.43C487.697 339.942 487.378 340.154 486.808 339.932C484.944 339.212 483.173 338.269 481.536 337.122C480.858 336.597 480.403 335.835 480.262 334.988C479.991 333.578 480.184 332.118 480.812 330.827C481.028 330.421 481.334 330.07 481.708 329.802C482.081 329.534 482.512 329.356 482.965 329.282C483.342 329.166 483.796 329.224 484.057 328.828C483.644 328.672 483.202 328.609 482.763 328.645C482.55 328.944 482.222 328.915 481.932 328.934C481.354 328.989 480.805 329.216 480.358 329.586C479.91 329.956 479.584 330.452 479.422 331.01C478.974 332.391 478.765 333.837 478.804 335.288C478.727 337.779 480.532 338.773 482.309 339.768C484.11 340.618 485.961 341.36 487.851 341.989C488.382 342.211 488.614 341.989 488.817 341.574C489.415 340.396 489.618 339.053 490.4 337.953C491.974 335.809 493.616 333.839 496.512 333.579Z" fill="#F3AE6D"/>
<path fill-rule="evenodd" clip-rule="evenodd" d="M502.644 334.727C502.006 334.196 501.224 334.37 500.5 334.254C499.882 334.872 499.004 335.152 498.405 335.809C498.202 335.994 498.049 336.227 497.959 336.487C497.87 336.747 497.847 337.025 497.893 337.296C498.731 336.664 499.619 336.102 500.548 335.616C501.244 335.307 502.084 335.336 502.644 334.727Z" fill="#F3AE6D"/>
<path fill-rule="evenodd" clip-rule="evenodd" d="M464.697 330.016C464.614 329.694 464.641 329.354 464.774 329.05C465.904 325.748 468.482 324.222 471.533 323.044C475.395 321.625 479.036 322.137 482.763 323.247C484.397 323.682 486.009 324.201 487.59 324.802C491.274 326.304 494.507 328.732 496.976 331.85C497.252 332.237 497.661 332.509 498.125 332.613C502.644 333.781 507.172 334.94 511.643 336.128C512.299 336.292 512.357 336.128 512.367 335.49C512.338 331.299 512.538 327.108 512.966 322.938C514.221 313.862 514.559 304.689 515.862 295.622C515.969 294.917 516.017 294.55 514.984 294.531C513.954 294.547 512.935 294.323 512.007 293.877C511.079 293.43 510.268 292.774 509.637 291.96C509.007 291.146 508.574 290.196 508.374 289.186C508.174 288.176 508.212 287.133 508.485 286.14C508.688 285.262 508.398 285.233 507.674 285.175C504.285 284.817 500.867 284.808 497.497 284.209C493.639 283.438 489.873 282.266 486.258 280.714C481.054 278.686 475.897 276.562 470.809 274.215C469.032 273.395 466.947 273.25 465.015 272.767C464.465 272.642 464.32 273.144 464.05 273.501C462.746 275.21 461.337 276.784 459.01 277.131C458.508 277.209 457.783 276.639 457.503 277.431C457.397 277.963 457.397 278.511 457.503 279.043C457.696 282.375 457.822 285.715 458.005 289.047C458.121 291.103 458.305 293.15 458.469 295.207C458.681 297.901 458.788 300.595 458.874 303.289C458.971 306.185 459.145 309.015 459.261 311.882C459.434 316.044 459.908 320.177 460.448 324.3C460.545 325.101 460.497 325.922 460.632 326.723C460.632 327.013 460.632 327.273 460.313 327.37C460.297 327.453 460.308 327.539 460.345 327.616C460.381 327.692 460.441 327.755 460.516 327.795C461.771 328.596 463.055 329.34 464.378 330.054C464.426 330.09 464.486 330.106 464.545 330.099C464.605 330.092 464.659 330.062 464.697 330.016Z" fill="#ABCC7F"/>
<path fill-rule="evenodd" clip-rule="evenodd" d="M464.697 330.016L460.371 327.399L458.102 325.931C458.228 326.897 458.343 327.776 458.469 328.702C458.556 329.224 458.652 329.745 458.739 330.276C459.309 331.995 459.85 333.733 460.448 335.442C461.752 339.218 463.558 342.78 464.958 346.508C465.122 346.952 465.286 347.396 465.46 347.84C466.36 348.802 467.406 349.617 468.559 350.254C472.999 353.266 477.598 356.034 482.338 358.548C485.235 360.19 488.286 361.58 491.347 362.932C491.657 363.144 492.039 363.224 492.409 363.154C492.544 363.077 492.65 362.971 492.563 362.797C488.18 359.775 484.685 355.634 482.444 350.804C482.353 350.586 482.282 350.36 482.232 350.128C482.01 349.906 482.232 349.51 481.913 349.308C478.4 345.878 476.258 341.284 475.888 336.388C472.074 334.419 468.385 332.217 464.697 330.016Z" fill="#EFED99"/>
<path fill-rule="evenodd" clip-rule="evenodd" d="M484.076 328.828C483.573 328.889 483.076 328.989 482.589 329.127C481.772 329.55 481.086 330.187 480.605 330.97C480.123 331.753 479.864 332.652 479.855 333.572C479.846 334.491 480.087 335.395 480.554 336.188C481.02 336.98 481.694 337.63 482.502 338.068C483.947 338.874 485.433 339.606 486.953 340.26C487.571 340.502 487.841 340.347 488.093 339.749C489.017 337.676 490.404 335.843 492.148 334.39C492.64 333.926 493.231 333.579 493.876 333.376C494.118 333.308 494.34 333.25 494.33 332.941C491.47 332.033 488.711 330.836 486.094 329.369C485.495 328.98 484.789 328.791 484.076 328.828Z" fill="#F3AE6D"/>
<path fill-rule="evenodd" clip-rule="evenodd" d="M481.913 349.308C481.971 349.607 481.913 349.926 482.232 350.128L482.376 349.694C482.333 349.599 482.269 349.515 482.189 349.448C482.108 349.381 482.014 349.333 481.913 349.308Z" fill="#9DA169"/>
<path fill-rule="evenodd" clip-rule="evenodd" d="M477.616 252.992C477.381 252.894 477.128 252.843 476.873 252.843C476.617 252.843 476.365 252.894 476.129 252.992L477.095 253.321C477.201 253.021 477.404 253.041 477.616 252.992Z" fill="#718C5E"/>
<path fill-rule="evenodd" clip-rule="evenodd" d="M492.38 363.048C489.112 361.759 485.935 360.253 482.869 358.538C482.724 358.461 482.56 358.413 482.405 358.345C477.153 357.071 472.296 355.111 468.887 350.573C468.753 350.426 468.66 350.246 468.617 350.051L465.421 347.84C465.894 349.771 466.464 351.615 466.811 353.537C467.41 356.781 467.207 359.958 465.296 362.806C464.9 363.386 464.977 363.675 465.45 364.139C469.081 367.564 472.369 371.335 475.27 375.397C477.713 379.028 480.098 382.697 481.401 386.907C481.69 387.737 481.91 388.59 482.058 389.456C482.357 391.387 482.84 393.318 483.284 395.201C483.568 396.596 483.63 398.026 483.468 399.44C483.426 399.701 483.451 399.967 483.541 400.215C483.63 400.464 483.781 400.685 483.979 400.859C487.613 404.397 490.296 408.794 491.781 413.644C492.245 415.096 492.546 416.595 492.679 418.114C492.687 418.385 492.772 418.648 492.924 418.872C493.076 419.096 493.289 419.272 493.538 419.379C495.925 420.665 498.428 421.726 501.012 422.546C501.63 422.739 501.833 422.623 501.978 422.015C502.419 420.366 503.323 418.878 504.585 417.728C504.944 417.268 505.436 416.931 505.994 416.762C507.433 416.55 507.385 415.565 507.394 414.493C507.472 406.701 507.616 398.909 508.196 391.136C508.21 389.721 507.948 388.317 507.423 387.003C505.765 381.55 503.831 376.184 501.63 370.927C501.012 369.498 500.317 368.107 499.699 366.688C499.547 366.354 499.325 366.056 499.049 365.815C498.772 365.573 498.447 365.394 498.096 365.288C496.754 364.824 495.479 364.168 494.185 363.588C493.471 363.608 493.007 363.077 492.38 363.048Z" fill="#ABCC7F"/>
<path fill-rule="evenodd" clip-rule="evenodd" d="M492.38 363.048C492.911 363.366 493.394 363.839 494.108 363.608L492.563 362.797L492.38 363.048Z" fill="#D2DC8E"/>
<path fill-rule="evenodd" clip-rule="evenodd" d="M452.096 363.405C451.208 364.081 450.088 364.081 449.084 364.448C448.022 364.803 447.143 365.564 446.64 366.564C446.137 367.565 446.051 368.723 446.399 369.787C446.599 370.506 446.722 371.244 446.766 371.989C446.794 372.667 446.958 373.332 447.25 373.945C447.542 374.557 447.956 375.104 448.466 375.552C449.352 376.385 450.11 377.345 450.715 378.4C451.543 379.719 452.449 380.986 453.429 382.195C453.622 382.436 454.085 382.668 453.767 383.161C456.663 384.908 458.662 387.573 461.288 389.601C464.479 392.037 467.493 394.695 470.307 397.557C471.369 398.737 472.529 399.826 473.773 400.811C474.191 401.182 474.719 401.404 475.276 401.444C475.832 401.484 476.387 401.34 476.853 401.033C477.867 400.304 478.683 399.333 479.226 398.208C479.769 397.083 480.022 395.84 479.963 394.593C479.481 391.592 478.597 388.669 477.336 385.903C475.853 382.385 473.819 379.125 471.311 376.247C469.534 374.113 467.178 372.674 465.238 370.753C463.776 369.211 462.222 367.76 460.584 366.408C458.218 364.573 455.437 363.936 452.598 363.386C452.431 363.369 452.262 363.376 452.096 363.405Z" fill="#F3AE6D"/>
<path fill-rule="evenodd" clip-rule="evenodd" d="M449.808 363.328C450.3 363.646 450.773 363.328 451.256 363.328C450.773 362.999 450.291 363.328 449.808 363.328Z" fill="#F0A15F"/>
<path fill-rule="evenodd" clip-rule="evenodd" d="M468.656 350.051C468.337 350.457 468.762 350.669 468.926 350.901C471.009 353.639 473.824 355.731 477.047 356.936C478.396 357.474 479.78 357.922 481.189 358.278C481.575 358.384 481.981 358.703 482.405 358.345C477.655 355.845 473.136 352.986 468.656 350.051Z" fill="#779A68"/>
<path fill-rule="evenodd" clip-rule="evenodd" d="M590.259 386.347C590.259 386.347 583.761 385.71 579.638 397.528C575.515 409.347 570.948 436.151 574.637 450.577C578.325 465.002 586.59 470.129 586.59 470.129L629.548 489.952L644.418 406.093L590.259 386.347Z" fill="#DFECF0"/>
<path fill-rule="evenodd" clip-rule="evenodd" d="M608.895 390.682C608.895 390.682 601.759 389.987 597.192 402.984C592.625 415.98 587.594 445.536 591.689 461.381C595.783 477.226 604.859 482.952 604.859 482.952L652.172 504.784L668.538 412.466L608.895 390.682Z" fill="#353B53"/>
<g style="mix-blend-mode:overlay" opacity="0.4">
<path fill-rule="evenodd" clip-rule="evenodd" d="M608.895 390.682C608.895 390.682 601.759 389.987 597.192 402.984C621.766 412.437 665.593 428.899 665.593 428.899L668.49 412.485L608.895 390.682Z" fill="#DFECF0"/>
</g>
<path fill-rule="evenodd" clip-rule="evenodd" d="M481.141 419.234C483.439 417.39 485.177 416.057 480.503 410.544C475.83 405.031 458.961 398.272 454.78 396.061C450.6 393.849 456.972 402.173 457.928 402.887C458.884 403.602 481.141 419.234 481.141 419.234Z" fill="#F3AE6D"/>
<path fill-rule="evenodd" clip-rule="evenodd" d="M496.416 350.167C500.964 357.795 506.216 370.174 517.552 381.065C528.888 391.957 538.534 395.423 538.534 395.423L541.324 383.286L520.439 354.068C520.439 354.068 498.627 343.843 498.231 344.76C497.835 345.677 496.416 350.167 496.416 350.167Z" fill="#F3AE6D"/>
</g>
<defs>
<linearGradient id="paint0_linear" x1="596.976" y1="525.131" x2="110.181" y2="278.787" gradientUnits="userSpaceOnUse">
<stop stop-color="#F4F4F4"/>
<stop offset="1" stop-color="#F4F4F4" stop-opacity="0"/>
</linearGradient>
<linearGradient id="paint1_linear" x1="290.7" y1="453.347" x2="290.7" y2="482.042" gradientUnits="userSpaceOnUse">
<stop stop-color="#898989"/>
<stop offset="0.48" stop-color="#AAAAAA"/>
<stop offset="1" stop-color="#8F8F8F"/>
</linearGradient>
<linearGradient id="paint2_linear" x1="257.569" y1="285.284" x2="218.661" y2="285.284" gradientUnits="userSpaceOnUse">
<stop stop-color="#D77A4D"/>
<stop offset="0.55" stop-color="#E89B67"/>
<stop offset="0.83" stop-color="#FABE82"/>
</linearGradient>
<radialGradient id="paint3_radial" cx="0" cy="0" r="1" gradientUnits="userSpaceOnUse" gradientTransform="translate(-10026.9 7697.15) rotate(180) scale(509.567 1242.51)">
<stop stop-color="#100F23"/>
<stop offset="0.29" stop-color="#1E253D"/>
<stop offset="0.75" stop-color="#304360"/>
<stop offset="1" stop-color="#374F6D"/>
</radialGradient>
<linearGradient id="paint4_linear" x1="263.252" y1="245.266" x2="267.503" y2="226.736" gradientUnits="userSpaceOnUse">
<stop stop-color="#FABE82"/>
<stop offset="0.34" stop-color="#E89B67"/>
<stop offset="0.73" stop-color="#D77A4D"/>
<stop offset="0.94" stop-color="#D16E43"/>
</linearGradient>
<linearGradient id="paint5_linear" x1="283.528" y1="252.241" x2="290.217" y2="219.61" gradientUnits="userSpaceOnUse">
<stop stop-color="#FABE82"/>
<stop offset="0.18" stop-color="#F7B77D"/>
<stop offset="0.44" stop-color="#EDA46E"/>
<stop offset="0.75" stop-color="#DD8555"/>
<stop offset="0.94" stop-color="#D16E43"/>
</linearGradient>
<linearGradient id="paint6_linear" x1="276.352" y1="230.243" x2="273.457" y2="274.587" gradientUnits="userSpaceOnUse">
<stop offset="0.2" stop-color="#FABE82"/>
<stop offset="0.32" stop-color="#FAB87F"/>
<stop offset="0.625" stop-color="#F9A676"/>
</linearGradient>
<linearGradient id="paint7_linear" x1="260.448" y1="240.662" x2="261.596" y2="247.51" gradientUnits="userSpaceOnUse">
<stop offset="0.16" stop-color="#8F5724"/>
<stop offset="1" stop-color="#562200"/>
</linearGradient>
<linearGradient id="paint8_linear" x1="-6156.06" y1="1391.42" x2="-6155.29" y2="1397.56" gradientUnits="userSpaceOnUse">
<stop offset="0.16" stop-color="#8F5724"/>
<stop offset="1" stop-color="#562200"/>
</linearGradient>
<linearGradient id="paint9_linear" x1="-6678.62" y1="2667.49" x2="-6689.39" y2="2667.54" gradientUnits="userSpaceOnUse">
<stop offset="0.229167" stop-color="#E89B67"/>
<stop offset="0.83" stop-color="#FABE82"/>
</linearGradient>
<linearGradient id="paint10_linear" x1="-13897.5" y1="2022.44" x2="-13979.8" y2="2108.18" gradientUnits="userSpaceOnUse">
<stop offset="0.16" stop-color="#8F5724"/>
<stop offset="1" stop-color="#562200"/>
</linearGradient>
<linearGradient id="paint11_linear" x1="-10688" y1="1719.05" x2="-10744.6" y2="1698.41" gradientUnits="userSpaceOnUse">
<stop offset="0.16" stop-color="#8F5724"/>
<stop offset="1" stop-color="#562200"/>
</linearGradient>
<radialGradient id="paint12_radial" cx="0" cy="0" r="1" gradientUnits="userSpaceOnUse" gradientTransform="translate(197.359 510.276) rotate(180) scale(11.7372 11.7371)">
<stop offset="0.06" stop-color="#D16E43"/>
<stop offset="0.27" stop-color="#D77A4D"/>
<stop offset="0.66" stop-color="#E89B67"/>
<stop offset="1" stop-color="#FABE82"/>
</radialGradient>
</defs>
</svg>
