<svg width="73" height="73" viewBox="0 0 73 73" fill="none" xmlns="http://www.w3.org/2000/svg">
<circle cx="36.5" cy="36.5" r="36.5" fill="white"/>
<path d="M16.9985 26.8617C24.4186 25.3297 31.026 21.12 36.5003 16C41.8962 21.0882 48.7391 24.5892 56.0043 26.0575C55.5502 33.5858 52.8979 40.9826 48.3466 47.0086C45.185 51.2183 41.1302 54.7554 36.5109 57.2847C30.26 53.8961 24.9129 48.7782 21.4819 42.5315C18.8211 37.7361 17.3189 32.3276 16.9985 26.8617ZM19.3431 28.5464C20.0645 35.4467 22.8887 42.1326 27.4698 47.3566C30.0287 50.3229 33.1287 52.7948 36.4961 54.783C46.0698 49.1665 52.5499 38.778 53.6957 27.7741C47.4023 26.2124 41.5036 23.1294 36.564 18.9345C31.531 23.2143 25.7871 26.8575 19.3431 28.5464Z" fill="#ED1C24"/>
<path d="M35.0087 38.15C37.0287 36.0918 39.0848 34.0718 41.1154 32.0264C41.631 32.5271 42.1317 33.0427 42.6431 33.5477C40.0863 36.1152 37.5485 38.7017 34.9811 41.2585C33.4003 39.7647 31.8896 38.1988 30.3682 36.6435C30.8711 36.1406 31.3782 35.6399 31.8705 35.1285C32.9441 36.1067 33.9181 37.1909 35.0087 38.15Z" fill="#ED1C24"/>
</svg>