<svg width="64" height="71" viewBox="0 0 64 71" fill="none" xmlns="http://www.w3.org/2000/svg">
<path d="M55.0379 35.7861C55.0379 43.9934 55.0379 52.2007 55.0379 60.408C55.0379 61.2358 55.0379 61.2358 55.8657 61.2358C57.9439 61.2358 60.0222 61.2358 62.118 61.2358C62.9282 61.2358 63.3861 61.6585 63.439 62.451C63.7384 66.1496 61.6425 69.3727 58.1377 70.4646C57.3803 70.6936 56.5349 70.7817 55.7248 70.7817C43.6604 70.7993 31.596 70.7993 19.5315 70.7993C15.7625 70.7993 13.015 68.6858 12.0815 65.0577C11.8878 64.3179 11.8702 63.5254 11.8702 62.7505C11.8526 50.0696 11.8526 37.3888 11.8702 24.7079C11.8702 24.021 11.6588 23.7745 11.0072 23.6336C5.23036 22.4007 1.21476 16.8352 1.70791 10.988C2.11299 6.14458 5.60022 1.49494 11.0072 0.2973C17.4357 -1.12929 23.4062 2.72779 25.1499 8.66313C25.414 9.56136 25.3964 9.57897 26.3651 9.57897C35.3298 9.57897 44.2944 9.57897 53.2591 9.57897C53.6465 9.57897 54.0516 9.6142 54.3862 9.7551C54.8794 9.96644 55.0379 10.442 55.0379 10.9703C55.0203 12.7668 55.0379 14.5632 55.0379 16.3597C55.0203 22.841 55.0203 29.3223 55.0379 35.7861C55.0379 35.7861 55.0203 35.7861 55.0379 35.7861ZM14.2831 24.0563C14.2831 24.1972 14.2655 24.3909 14.2655 24.567C14.2655 37.5649 14.2655 50.5804 14.2831 63.5782C14.2831 64.0714 14.3888 64.5997 14.5649 65.0753C15.8506 68.6858 19.9366 69.1261 22.3495 67.8756C24.3573 66.8365 25.1322 65.0577 25.097 62.8561C25.0794 61.6057 25.4493 61.2534 26.6997 61.2534C35.0656 61.2534 43.4314 61.2534 51.8148 61.2534C52.6955 61.2534 52.6955 61.2534 52.6955 60.3904C52.6955 44.5041 52.6955 28.6179 52.7131 12.7492C52.7131 12.168 52.5546 11.9919 51.9557 11.9919C43.449 12.0095 34.9247 12.0095 26.4179 12.0095C26.2066 12.0095 25.9776 12.0095 25.7839 12.0095C25.0266 19.0192 21.2223 22.9995 14.2831 24.0563ZM61.0261 63.5782C60.6914 63.5782 60.4801 63.5782 60.2511 63.5782C56.7639 63.5782 53.2767 63.5782 49.7894 63.5782C42.5684 63.5782 35.3474 63.5782 28.1263 63.5606C27.598 63.5606 27.4395 63.7015 27.3866 64.2299C27.2457 65.6213 26.7173 66.8717 25.8543 67.9813C25.7663 68.1046 25.6958 68.2455 25.5902 68.4568C25.9248 68.4568 26.1361 68.4568 26.3651 68.4568C28.4081 68.4568 30.4512 68.4568 32.4942 68.4568C40.2612 68.4568 48.0458 68.4568 55.8128 68.4568C56.852 68.4568 57.8383 68.2279 58.7189 67.6467C60.1102 66.7132 60.9028 65.4275 61.0261 63.5782ZM23.2301 12.0095C23.2477 6.70817 18.9327 2.35794 13.649 2.35794C8.41819 2.35794 4.06795 6.67295 4.05034 11.8686C4.03273 17.2755 8.24206 21.5377 13.5962 21.5905C18.8975 21.6434 23.2301 17.346 23.2301 12.0095Z" fill="#FF0000"/>
<path d="M3.45203 38.7801C3.09978 39.1852 2.87082 39.4846 2.60664 39.7312C2.07827 40.2244 1.35616 40.1891 0.898245 39.7136C0.440325 39.2205 0.440326 38.6216 0.915857 38.058C1.65557 37.195 1.65557 37.195 0.93347 36.3673C0.440326 35.8037 0.422713 35.1696 0.915857 34.6765C1.37378 34.201 2.07827 34.201 2.60664 34.6941C2.87082 34.9407 3.08217 35.2401 3.32874 35.5219C3.43441 35.5571 3.54009 35.6099 3.64576 35.6452C3.8395 35.3281 3.99801 34.9935 4.26219 34.7293C4.77295 34.201 5.47744 34.201 5.95297 34.6413C6.46373 35.1344 6.46373 35.8037 5.93536 36.3849C5.21325 37.195 5.21325 37.195 5.91775 37.9876C6.44611 38.5864 6.46373 39.2381 5.97058 39.7312C5.47744 40.2067 4.79056 40.1891 4.22697 39.6432C3.98039 39.4142 3.76905 39.1324 3.45203 38.7801Z" fill="#FF0000"/>
<path d="M7.7663 49.8053C7.7663 50.5801 7.18522 51.1611 6.42806 51.1435C5.70611 51.1259 5.10742 50.5448 5.10742 49.8229C5.10742 49.0833 5.72372 48.467 6.46328 48.467C7.18522 48.4846 7.7663 49.0657 7.7663 49.8053Z" fill="#FF0000"/>
<path d="M27.1936 55.8639C26.8414 56.4628 26.5772 57.0264 26.225 57.5547C25.8727 58.0831 25.4852 58.5939 25.0449 59.0342C23.7769 60.2846 22.1741 60.2494 21.047 58.858C20.4481 58.1183 20.0431 57.2025 19.5499 56.3571C19.4442 56.181 19.3914 55.9872 19.2857 55.7407C18.9863 55.8639 18.7045 55.9872 18.4403 56.0929C17.7182 56.3747 17.049 56.1457 16.7672 55.5293C16.4854 54.9129 16.7672 54.2788 17.4717 53.909C18.6165 53.3278 18.5636 53.3454 18.3875 52.1125C18.0352 49.6644 18.1761 47.2868 19.8493 45.279C20.501 44.4864 21.3464 43.958 22.3855 43.8171C24.1995 43.553 25.7142 44.733 25.8727 46.5647C26.0312 48.5372 25.3443 50.2632 24.1291 51.7603C23.4422 52.6057 22.5968 53.3278 21.7867 54.0851C21.5049 54.3493 21.3816 54.543 21.5577 54.9129C21.8923 55.5822 22.1565 56.3043 22.544 56.9383C22.9843 57.678 23.3542 57.7132 23.7769 56.9735C24.4637 55.7407 25.0978 54.455 25.6438 53.134C26.0312 52.183 26.2778 51.1615 26.5596 50.1576C26.8766 49.0128 27.405 48.6958 28.585 49.0832C29.0782 48.2554 29.4304 47.1987 30.6633 47.1987C31.8257 47.1987 32.2308 48.2026 32.7239 49.0304C32.7767 49.0304 32.8296 49.0128 32.8824 49.0128C33.0585 48.3435 33.2699 47.6742 33.4284 46.9874C33.6045 46.1948 34.0096 45.7721 34.6612 45.7721C35.3305 45.7721 35.9469 46.3357 35.8413 46.9874C35.6123 48.502 35.2777 49.9991 34.2914 51.2495C33.446 52.3415 32.2308 52.3591 31.3149 51.3376C31.1212 51.1086 30.9451 50.8621 30.6456 50.4746C30.4343 51.3552 30.2406 52.1125 30.0997 52.8699C29.9412 53.6976 29.8355 54.5254 29.7122 55.3532C29.6065 56.0225 29.4656 56.6741 28.6731 56.8326C27.9334 56.9735 27.5107 56.5332 27.1936 55.8639ZM20.7652 51.866C22.0861 50.7035 23.09 49.4883 23.4246 47.8327C23.5479 47.2515 23.724 46.6351 23.1428 46.2124C22.773 45.9482 22.0156 46.3005 21.5401 46.9521C20.4834 48.414 20.4481 50.0343 20.7652 51.866Z" fill="#FF0000"/>
<path d="M51.4284 52.8876C51.358 56.8856 48.0821 60.091 44.1369 60.0205C40.1389 59.9501 37.004 56.6566 37.0744 52.6234C37.1449 48.7311 40.456 45.5432 44.3483 45.6137C48.311 45.7018 51.4989 48.9776 51.4284 52.8876ZM44.2778 57.6077C46.9725 57.59 49.0684 55.4766 49.0508 52.7643C49.0331 50.1401 46.8844 48.009 44.225 48.0266C41.6008 48.0442 39.4345 50.1929 39.4345 52.8171C39.4168 55.459 41.6008 57.6253 44.2778 57.6077Z" fill="#FF0000"/>
<path d="M32.8285 25.2012C36.9498 25.2012 41.0711 25.2012 45.1924 25.2012C46.073 25.2012 46.6013 25.6415 46.6013 26.3812C46.6013 26.98 46.2491 27.4379 45.6503 27.5436C45.4037 27.5788 45.1571 27.5788 44.9106 27.5788C36.8794 27.5788 28.8305 27.5788 20.7993 27.5788C20.5704 27.5788 20.3414 27.5788 20.1301 27.5612C19.4608 27.4732 19.0381 26.98 19.0733 26.346C19.0909 25.7296 19.5665 25.254 20.2181 25.2012C20.3943 25.1836 20.588 25.2012 20.7641 25.2012C24.7973 25.2012 28.8129 25.2012 32.8285 25.2012Z" fill="#FF0000"/>
<path d="M29.1659 37.1773C26.2599 37.1773 23.3715 37.1773 20.4654 37.1773C19.4615 37.1773 18.8979 36.5256 19.1269 35.6802C19.2678 35.2047 19.5848 34.9229 20.078 34.8525C20.2189 34.8348 20.3598 34.8348 20.5007 34.8348C26.3127 34.8348 32.1424 34.8348 37.9544 34.8348C38.835 34.8348 39.3106 35.1871 39.381 35.8387C39.4691 36.5961 39.0112 37.142 38.2186 37.1597C37.1443 37.1949 36.0523 37.1773 34.9779 37.1773C33.0406 37.1949 31.1032 37.1773 29.1659 37.1773Z" fill="#FF0000"/>
<path d="M41.8469 17.9976C39.8919 17.9976 37.9193 17.9976 35.9644 17.9976C35.4008 17.9976 34.9957 17.7511 34.7491 17.2227C34.5554 16.7824 34.6258 16.3245 34.9605 16.0427C35.2423 15.8137 35.6297 15.6024 35.982 15.6024C39.8743 15.5671 43.7842 15.5848 47.6765 15.6024C48.4867 15.6024 49.0327 16.1307 49.0151 16.8176C48.9975 17.5221 48.4339 17.9976 47.5885 17.9976C45.6864 17.9976 43.7666 17.9976 41.8469 17.9976Z" fill="#FF0000"/>
<path d="M40.649 32.4043C38.7117 32.4043 36.7743 32.4219 34.837 32.4043C33.745 32.3867 33.1286 31.4181 33.6569 30.5727C33.974 30.0795 34.4671 29.9915 34.9955 29.9915C37.8134 29.9915 40.6314 29.9915 43.4494 29.9915C44.4356 29.9915 45.4043 29.9915 46.3906 29.9915C47.3065 30.0091 47.8524 30.467 47.8348 31.2067C47.8172 31.9464 47.2712 32.3867 46.3554 32.3867C44.4356 32.4043 42.5335 32.4043 40.649 32.4043Z" fill="#FF0000"/>
<path d="M25.01 32.4045C23.4777 32.4045 21.9454 32.4222 20.4308 32.4045C19.4092 32.3869 18.828 31.5944 19.1979 30.7314C19.4445 30.1326 19.9728 30.0093 20.554 30.0093C22.4209 30.0093 24.3055 30.0093 26.1724 30.0093C27.3348 30.0093 28.4972 30.0093 29.6596 30.0093C30.2408 30.0093 30.7516 30.1854 30.9629 30.8194C31.2447 31.6824 30.6635 32.4045 29.6596 32.4045C28.0921 32.4222 26.5422 32.4045 25.01 32.4045Z" fill="#FF0000"/>
<path d="M44.8579 34.8352C45.4215 34.8352 46.0027 34.8176 46.5663 34.8352C47.3236 34.8528 47.7991 35.2931 47.8167 35.98C47.8343 36.6669 47.3588 37.16 46.6191 37.1777C45.4215 37.1953 44.2062 37.1953 43.0086 37.16C42.3217 37.1424 41.8285 36.6141 41.8462 35.9976C41.8462 35.3636 42.3393 34.8704 43.0262 34.8528C43.6426 34.8176 44.259 34.8352 44.8579 34.8352Z" fill="#FF0000"/>
<path d="M17.5776 19.1777C17.4015 19.0896 17.0668 18.9664 16.785 18.7902C15.922 18.2619 15.0414 17.7335 14.196 17.1699C13.8262 16.9233 13.5268 16.9057 13.1569 17.1699C12.2763 17.7511 11.3605 18.2971 10.4622 18.8607C9.31744 19.5652 8.43683 19.072 8.4016 17.7335C8.36638 16.6063 8.38399 15.4967 8.31354 14.3695C8.29593 14.0525 8.17264 13.6827 7.99652 13.4185C7.41532 12.5026 6.79889 11.622 6.20007 10.7238C5.49558 9.63184 5.97111 8.73361 7.25681 8.64555C8.13742 8.59272 9.01803 8.55749 9.88104 8.45182C10.1276 8.41659 10.4446 8.22286 10.5679 8.01151C11.2196 6.86671 11.836 5.68669 12.4524 4.50667C12.7166 3.99591 13.0689 3.64366 13.6853 3.66128C14.2665 3.67889 14.6011 3.99591 14.8653 4.48905C15.4641 5.66908 16.0806 6.8491 16.7498 7.9939C16.8731 8.22286 17.2254 8.43421 17.4895 8.45182C18.4054 8.55749 19.3212 8.5751 20.2371 8.64555C21.2762 8.716 21.7693 9.63184 21.2057 10.5301C20.6069 11.4987 19.92 12.4146 19.3212 13.3833C19.1451 13.6827 19.0218 14.0525 19.0042 14.3872C18.9514 15.532 18.969 16.6768 18.9337 17.8216C18.8985 18.6493 18.4054 19.1953 17.5776 19.1777ZM9.26461 10.8999C9.77536 11.7453 10.3566 12.397 10.6031 13.1719C10.8497 13.9645 10.744 14.8451 10.7969 15.8138C11.5014 15.3911 12.153 15.0212 12.7695 14.5985C13.3859 14.1758 13.9671 14.1934 14.5835 14.5985C15.1823 15.0036 15.8164 15.3734 16.6442 15.8666C16.3447 13.9292 16.8027 12.3265 18.194 10.9175C17.6481 10.8471 17.3134 10.759 17.014 10.7943C15.8692 10.9175 15.1823 10.3716 14.7596 9.33243C14.4955 8.66317 14.0728 8.06435 13.6677 7.30702C13.1745 8.24047 12.7342 9.03302 12.3115 9.84319C11.9945 10.442 11.5542 10.759 10.8497 10.759C10.3566 10.7943 9.88104 10.8647 9.26461 10.8999Z" fill="#FF0000"/>
<path d="M44.2423 56.3924C42.2697 56.41 40.6494 54.7897 40.6494 52.8171C40.6494 50.8445 42.2697 49.2418 44.2423 49.2418C46.2149 49.2418 47.8 50.8093 47.8176 52.7467C47.8352 54.7897 46.2677 56.3748 44.2423 56.3924ZM43.0623 52.8347C43.0799 53.4864 43.6259 54.0324 44.2775 54.0148C44.9292 53.9971 45.4576 53.4335 45.44 52.7819C45.4223 52.1126 44.8764 51.5843 44.2247 51.6019C43.5731 51.6195 43.0447 52.1655 43.0623 52.8347Z" fill="#FF0000"/>
</svg>
