<svg width="30" height="31" viewBox="0 0 30 31" fill="none" xmlns="http://www.w3.org/2000/svg">
<path fill-rule="evenodd" clip-rule="evenodd" d="M30 15.1021C30 23.3863 23.2843 30.1021 15 30.1021C6.71573 30.1021 0 23.3863 0 15.1021C0 6.81778 6.71573 0.102051 15 0.102051C23.2843 0.102051 30 6.81778 30 15.1021ZM16.6648 8.43538C16.6648 9.35585 15.9186 10.102 14.9981 10.102C14.0777 10.102 13.3315 9.35585 13.3315 8.43538C13.3315 7.5149 14.0777 6.76871 14.9981 6.76871C15.9186 6.76871 16.6648 7.5149 16.6648 8.43538ZM16.6699 23.4354V13.4354H13.3279V23.4354H16.6699Z" fill="#ED1C24"/>
</svg>
