<svg width="140" height="163" viewBox="0 0 140 163" fill="none" xmlns="http://www.w3.org/2000/svg">
<g filter="url(#filter0_d_1024_1452)">
<path d="M28 47.25C28 32.4008 28 24.9761 32.6131 20.3631C37.2261 15.75 44.6508 15.75 59.5 15.75H80.5C95.3492 15.75 102.774 15.75 107.387 20.3631C112 24.9761 112 32.4008 112 47.25V83.0949C112 97.1822 112 104.226 107.567 106.38C103.135 108.535 97.5964 104.183 86.5193 95.4795L82.9742 92.694C76.7458 87.8003 73.6316 85.3534 70 85.3534C66.3684 85.3534 63.2542 87.8003 57.0257 92.6941L53.4807 95.4795C42.4036 104.183 36.8651 108.535 32.4325 106.38C28 104.226 28 97.1822 28 83.0949V47.25Z" fill="#ED1C24"/>
</g>
<path d="M69.1854 26.3386C70.3392 26.136 71.5595 26.2796 72.6205 26.782C73.849 27.3451 74.8681 28.3552 75.4327 29.5838C75.9404 30.641 76.0937 31.8591 75.8933 33.0136C75.6503 34.4447 74.836 35.7689 73.6725 36.637C72.8171 37.2816 71.7785 37.6846 70.7093 37.7713C69.4329 37.8902 68.1229 37.5597 67.0514 36.8576C65.9874 36.1667 65.1604 35.1154 64.7522 33.9131C64.2677 32.5388 64.3402 30.9805 64.9399 29.6533C65.6988 27.941 67.3386 26.6579 69.1854 26.3386Z" fill="white"/>
<path d="M69.9266 40.863C70.5965 40.7695 71.2934 41.0215 71.7607 41.5075C77.0225 46.7648 82.2797 52.0265 87.5407 57.2853C87.8032 57.5462 88.0821 57.8154 88.2084 58.1736C88.2899 58.4113 88.2069 58.7074 87.9811 58.833C87.6289 59.0559 87.1953 59.0237 86.7975 59.0267C84.6769 59.0275 82.5571 59.0237 80.4373 59.0282C79.5722 59.0529 78.7751 59.6683 78.5067 60.487C78.3617 60.8975 78.396 61.3394 78.3931 61.7679C78.3916 65.5566 78.3946 69.3453 78.3916 73.134C78.3699 74.216 77.3971 75.1544 76.3204 75.1648C72.3843 75.1701 68.4483 75.1663 64.5123 75.1671C63.4132 75.1835 62.4202 74.2264 62.3925 73.128C62.3895 69.1666 62.3918 65.2052 62.3918 61.2437C62.397 60.8011 62.2833 60.3494 62.0306 59.983C61.662 59.4125 61.001 59.0462 60.3236 59.0267C57.957 59.0245 55.5897 59.029 53.2232 59.0245C52.8516 59.014 52.3835 58.9564 52.1943 58.5863C52.0612 58.193 52.3424 57.8184 52.6033 57.5522C57.9331 52.2396 63.2479 46.9128 68.5695 41.5935C68.9186 41.201 69.4039 40.9295 69.9266 40.863Z" fill="white"/>
<defs>
<filter id="filter0_d_1024_1452" x="0" y="15.75" width="140" height="147.176" filterUnits="userSpaceOnUse" color-interpolation-filters="sRGB">
<feFlood flood-opacity="0" result="BackgroundImageFix"/>
<feColorMatrix in="SourceAlpha" type="matrix" values="0 0 0 0 0 0 0 0 0 0 0 0 0 0 0 0 0 0 127 0" result="hardAlpha"/>
<feOffset dy="28"/>
<feGaussianBlur stdDeviation="14"/>
<feComposite in2="hardAlpha" operator="out"/>
<feColorMatrix type="matrix" values="0 0 0 0 0.929412 0 0 0 0 0.109804 0 0 0 0 0.141176 0 0 0 0.28 0"/>
<feBlend mode="normal" in2="BackgroundImageFix" result="effect1_dropShadow_1024_1452"/>
<feBlend mode="normal" in="SourceGraphic" in2="effect1_dropShadow_1024_1452" result="shape"/>
</filter>
</defs>
</svg>
