<svg width="336" height="336" viewBox="0 0 336 336" fill="none" xmlns="http://www.w3.org/2000/svg">
<path d="M59.7187 12.7969V25.5938H29.8594H0V35.5688C0 68.9719 7.15312 95.1563 22.7719 119.044C28.7437 128.231 33.075 133.547 42.2625 142.997C51.6469 152.513 60.0469 159.731 80.0625 175.284C96.9937 188.409 102.769 193.659 111.234 203.766C120.094 214.331 133.087 226.603 144.375 235.003L154.219 242.419V253.05V263.616L146.212 264.009C136.369 264.469 129.741 266.109 121.734 270.047C110.25 275.625 100.472 285.469 94.8281 296.953C90.3 306.141 89.1844 311.391 88.7906 324.647L88.3969 336H167.344H246.291L245.897 324.647C245.503 311.391 244.387 306.141 239.859 296.953C234.216 285.469 224.437 275.625 212.953 270.047C204.947 266.109 198.319 264.469 188.541 264.009L180.469 263.616V252.919V242.288L184.931 239.138C198.384 229.688 212.822 216.431 223.453 203.766C231.919 193.659 237.628 188.475 255.347 174.891C282.056 154.416 294.066 143.719 304.041 131.25C326.156 103.819 336 74.3531 336 35.5688V25.5938H305.484H274.969V12.7969V0H167.344H59.7187V12.7969ZM248.391 36.5531C246.947 72.5813 244.191 94.2375 238.219 117.403C227.391 158.944 204.291 193.266 171.806 216.169L167.344 219.319L162.291 215.709C149.559 206.784 138.141 195.694 127.378 181.847C113.662 164.325 102.769 141.553 96.5344 117.403C90.3656 93.7125 87.7406 72.7125 86.2969 36.5531L85.8375 26.25H167.344H248.85L248.391 36.5531ZM60.6375 54.6C60.8344 56.175 61.1625 60.375 61.3594 63.9844C61.95 73.5656 64.7062 95.025 66.6094 104.738C68.0531 112.35 73.3031 132.956 74.55 136.106C75.2719 138.009 73.7625 136.894 66.9375 130.659C43.9687 109.594 30.5156 84.1969 27.2344 55.5844L26.8406 51.8438H43.575H60.3094L60.6375 54.6ZM308.766 55.2563C306.272 75.6656 298.922 94.3031 287.241 109.922C281.859 117.141 269.128 130.528 262.697 135.778L259.219 138.6L260.269 135.713C261.909 131.053 266.962 111.103 268.406 103.359C270.112 94.5 272.803 72.8438 273.328 63.9844C273.525 60.375 273.853 56.175 274.05 54.6L274.378 51.8438H291.834H309.225L308.766 55.2563ZM194.578 291.047C196.744 291.638 200.156 292.884 202.125 293.869C206.456 296.034 213.019 302.334 215.381 306.6L217.153 309.75H167.344H117.534L119.306 306.6C121.669 302.334 128.231 296.034 132.562 293.869C139.65 290.325 141.422 290.128 167.016 290.128C186.244 290.063 191.428 290.259 194.578 291.047Z" fill="white"/>
<path d="M160.783 74.8124C157.174 82.0311 153.958 87.9374 153.63 87.9374C152.121 87.9374 124.952 92.0061 124.689 92.3343C124.493 92.4655 125.674 93.8436 127.314 95.353C128.955 96.7968 133.746 101.39 138.011 105.525L145.821 113.072L143.393 127.115C142.014 134.859 141.096 141.356 141.293 141.553C141.489 141.75 147.527 138.862 154.68 135.187L167.674 128.494L180.668 135.187C187.821 138.862 193.858 141.75 194.055 141.553C194.252 141.356 193.333 134.859 191.955 127.115L189.527 113.072L197.336 105.525C201.602 101.39 206.393 96.7968 208.033 95.353C209.674 93.8436 210.855 92.4655 210.658 92.3343C210.396 92.0061 183.227 87.9374 181.718 87.9374C181.389 87.9374 178.174 82.0311 174.564 74.8124C170.955 67.5936 167.871 61.6874 167.674 61.6874C167.477 61.6874 164.393 67.5936 160.783 74.8124Z" fill="white"/>
</svg>
