<svg width="574" height="484" viewBox="0 0 574 484" fill="none" xmlns="http://www.w3.org/2000/svg">
<circle opacity="0.3" cx="258.001" cy="236" r="157.575" stroke="#ED1C24"/>
<circle opacity="0.2" cx="257.999" cy="235.999" r="196.538" stroke="#ED1C24"/>
<circle opacity="0.1" cx="258" cy="236" r="235.5" stroke="#ED1C24"/>
<g style="mix-blend-mode:multiply" opacity="0.1">
<path d="M226.147 211.926C222.242 212.772 218.439 214.031 214.804 215.681C211.985 214.793 207.712 212.071 203.182 208.671C207.228 206.854 210.784 204.113 213.562 200.672C217.086 199.906 220.151 197.806 220.755 193.24C220.755 193.24 204.714 184.941 200.878 180.742C197.041 176.543 175.15 154.19 168.438 154.19C147.878 154.19 106.088 185.475 101.624 193.885C97.1612 202.294 90.4385 222.558 84.9238 244.233C79.4091 265.907 78.1003 288.393 74.5096 299.402C70.9189 310.412 65.9076 322.832 54.0393 349.728C47.4731 364.548 34.1283 399.588 23.5352 427.872V483.709H103.716C108.191 448.725 121.826 346.918 129.444 329.054C137.274 310.79 145.104 306.835 153.639 302.491C155.216 301.702 156.827 300.902 158.46 300.002L159.478 299.436L160.015 299.125L160.552 298.825L161.425 298.314L161.682 298.169L162.733 297.558L162.879 297.458L164.087 296.736C169.799 293.271 175.311 289.492 180.597 285.416C189.826 278.283 199.256 269.373 204.938 259.675C213.887 244.355 220.598 247.132 224.838 239.811C229.581 235.001 230.666 230.79 241.147 224.824C246.908 221.569 240.219 208.893 226.147 211.926ZM183.282 236.556C183.282 236.556 177.275 236.912 173.036 239.889C168.979 237.743 165.219 235.084 161.85 231.979C161.436 231.59 160.932 231.168 160.373 230.735C166.95 225.469 173.248 218.981 176.772 215.948C183.819 209.904 188.237 224.947 196.907 229.157C196.728 229.39 196.638 229.535 196.638 229.535C196.638 229.535 186.716 231.124 183.282 236.556Z" fill="black"/>
</g>
<path d="M210.153 204.473C207.575 204.473 202.386 201.178 196.815 196.829C204.784 193.388 212.327 183.267 207.911 183.267C202.038 183.267 182.693 166.242 175.935 158.329C169.176 150.416 140.069 167.363 132.817 177.887C132.817 177.887 123.851 200.427 132.817 206.031C130.912 213.148 129.309 223.65 135.059 227.237C144.025 232.841 163.079 210.985 170.364 204.473C177.65 197.961 182.133 214.908 191.435 218.651C200.738 222.395 216.026 204.473 210.153 204.473Z" fill="#E4A880"/>
<path d="M194.505 167.671C190.65 163.289 168.727 139.942 162.002 139.942C141.401 139.942 99.5278 172.614 95.0558 181.412C90.5838 190.211 83.8477 211.349 78.3221 233.99C72.7965 256.63 71.4852 280.088 67.8874 291.588C64.2896 303.087 59.2683 316.055 47.3766 344.12C40.7974 359.644 10.6141 454.475 0 483.997H16.8121H97.1517C101.635 447.47 115.298 341.184 122.93 322.534C130.776 303.48 138.622 299.277 147.173 294.793C153.495 270.225 153.495 258.154 155.355 221.212C151.746 217.682 142.365 212.335 141.356 207.157C138.879 194.369 132.76 183.273 158.538 168.108C158.538 168.108 177.334 180.067 183.028 179.406C183.028 179.406 192.196 185.918 196.478 187.633C200.759 189.348 213.088 190.827 214.411 180.717C214.422 180.717 198.383 172.054 194.505 167.671Z" fill="#F8CFAE"/>
<g style="mix-blend-mode:multiply" opacity="0.1">
<path d="M402.905 37.4746H191.117C182.729 37.4746 175.93 44.274 175.93 52.6616V366.253C175.93 374.64 182.729 381.44 191.117 381.44H402.905C411.292 381.44 418.092 374.64 418.092 366.253V52.6616C418.092 44.274 411.292 37.4746 402.905 37.4746Z" fill="black"/>
</g>
<path d="M402.905 30.8506H191.117C182.729 30.8506 175.93 37.65 175.93 46.0376V359.629C175.93 368.016 182.729 374.816 191.117 374.816H402.905C411.292 374.816 418.092 368.016 418.092 359.629V46.0376C418.092 37.65 411.292 30.8506 402.905 30.8506Z" fill="#ED1C24"/>
<path d="M404.073 43.2705H189.953V362.387H404.073V43.2705Z" fill="white"/>
<path d="M382.752 100.68H252.738V111.439H382.752V100.68Z" fill="#B3B3B3"/>
<path d="M382.752 120.24H252.738V131H382.752V120.24Z" fill="#D6D6D6"/>
<path d="M382.757 139.796H210.152V150.556H382.757V139.796Z" fill="#D6D6D6"/>
<path d="M252.844 43.2705C252.873 44.7165 253.468 46.0933 254.501 47.1054C255.534 48.1176 256.923 48.6843 258.369 48.684H335.705C337.151 48.6843 338.54 48.1176 339.573 47.1054C340.606 46.0933 341.201 44.7165 341.231 43.2705H252.844Z" fill="#D6D6D6"/>
<path d="M335.656 15.9478H308.958C308.958 12.7791 307.699 9.7401 305.459 7.49944C303.218 5.25879 300.179 4 297.01 4C293.842 4 290.803 5.25879 288.562 7.49944C286.321 9.7401 285.063 12.7791 285.063 15.9478H258.365C256.896 15.9478 255.488 16.5312 254.45 17.5695C253.411 18.6079 252.828 20.0162 252.828 21.4846V40.2134C252.828 41.6818 253.411 43.0901 254.45 44.1285C255.488 45.1668 256.896 45.7502 258.365 45.7502H335.701C337.169 45.7502 338.578 45.1668 339.616 44.1285C340.654 43.0901 341.238 41.6818 341.238 40.2134V21.4846C341.238 20.7537 341.093 20.0301 340.812 19.3554C340.531 18.6807 340.119 18.0683 339.6 17.5536C339.081 17.0389 338.466 16.632 337.789 16.3564C337.112 16.0808 336.387 15.9419 335.656 15.9478ZM297.01 20.644C296.082 20.644 295.174 20.3686 294.401 19.8526C293.629 19.3366 293.027 18.6031 292.672 17.745C292.316 16.8869 292.223 15.9426 292.404 15.0317C292.586 14.1207 293.033 13.2839 293.69 12.6271C294.346 11.9704 295.183 11.5231 296.094 11.3419C297.005 11.1607 297.949 11.2537 298.808 11.6091C299.666 11.9646 300.399 12.5665 300.915 13.3388C301.431 14.1111 301.707 15.019 301.707 15.9478C301.704 17.1924 301.208 18.3852 300.328 19.2653C299.448 20.1453 298.255 20.6411 297.01 20.644Z" fill="#D6D6D6"/>
<path d="M252.828 35.2578V40.2118C252.828 41.6802 253.411 43.0886 254.45 44.1269C255.488 45.1653 256.896 45.7486 258.365 45.7486H335.701C337.169 45.7486 338.578 45.1653 339.616 44.1269C340.654 43.0886 341.238 41.6802 341.238 40.2118V35.2578H252.828Z" fill="#CCCCCC"/>
<path d="M237.433 106.284V125.394H215.756V106.284H237.433ZM243.037 100.68H210.152V130.998H243.037V100.68Z" fill="#D6D6D6"/>
<path d="M382.752 168.644H252.738V179.403H382.752V168.644Z" fill="#B3B3B3"/>
<path d="M382.752 188.204H252.738V198.964H382.752V188.204Z" fill="#D6D6D6"/>
<path d="M382.757 207.765H210.152V218.524H382.757V207.765Z" fill="#D6D6D6"/>
<path d="M286.928 292.677H210.152V303.437H286.928V292.677Z" fill="#D6D6D6"/>
<path d="M252.183 311.552H210.152V322.312H252.183V311.552Z" fill="#D6D6D6"/>
<path d="M383.08 292.677H306.305V303.437H383.08V292.677Z" fill="#D6D6D6"/>
<path d="M348.335 311.552H306.305V322.312H348.335V311.552Z" fill="#D6D6D6"/>
<path d="M237.433 174.248V193.357H215.756V174.248H237.433ZM243.037 168.644H210.152V198.961H243.037V168.644Z" fill="#D6D6D6"/>
<path d="M382.757 236.607H210.152V247.188H382.757V236.607Z" fill="#B3B3B3"/>
<path d="M281.559 260.31V279.42H215.756V260.31H281.559ZM287.163 254.706H210.152V285.024H287.163V254.706Z" fill="#D6D6D6"/>
<path d="M377.153 260.31V279.42H311.35V260.31H377.153ZM382.757 254.706H305.746V285.024H382.757V254.706Z" fill="#D6D6D6"/>
<path d="M245.922 101.757L226.532 121.136L216.422 111.026" stroke="#494545" stroke-width="5.79" stroke-linecap="round" stroke-linejoin="round"/>
<path d="M245.922 168.644L226.532 188.034L216.422 177.924" stroke="#494545" stroke-width="5.79" stroke-linecap="round" stroke-linejoin="round"/>
<g style="mix-blend-mode:multiply" opacity="0.1">
<path d="M226.403 212.335C222.491 213.188 218.681 214.458 215.038 216.124C212.796 215.271 210.669 214.141 208.706 212.761C206.8 214.398 204.861 215.989 202.855 217.502C199.263 220.423 195.288 222.841 191.042 224.687C192.736 226.741 194.81 228.449 197.15 229.719C196.971 229.954 196.881 230.1 196.881 230.1C196.881 230.1 186.895 231.692 183.432 237.172C180.725 237.404 178.075 238.078 175.586 239.167V267.939H175.967V290.097C177.581 288.976 179.217 287.721 180.865 286.432C190.112 279.236 199.56 270.248 205.254 260.463C214.22 245.007 220.945 247.809 225.193 240.423C229.945 235.57 231.032 231.322 241.534 225.303C247.206 222.064 240.503 209.275 226.403 212.335Z" fill="black"/>
</g>
<g style="mix-blend-mode:multiply" opacity="0.1">
<path d="M352.47 365.314L352.627 365.437C353.109 365.83 353.591 366.222 354.084 366.558L354.667 366.995L355.787 367.802L356.46 368.284C356.796 368.542 357.144 368.789 357.502 369.035L358.175 369.506L359.296 370.257L359.934 370.694L361.246 371.546L361.683 371.826L363.431 372.947L363.98 373.283L365.213 374.023L365.92 374.426L367.04 375.065C367.276 375.211 367.522 375.345 367.769 375.48L368.89 376.096L369.596 376.489L370.806 377.139L371.4 377.453C371.983 377.766 372.521 378.069 373.171 378.372L373.541 378.562L374.964 379.268L375.615 379.593L376.735 380.143L377.441 380.479L378.562 380.983L379.257 381.297L380.378 381.812L380.994 382.082L382.429 382.72L382.698 382.832L384.357 383.55L384.895 383.774L386.016 384.233L386.621 384.48L387.63 384.884L388.235 385.13L389.21 385.511L389.782 385.735L390.902 386.15L391.283 386.296L392.718 386.823L393.021 386.935L394.074 387.316L394.567 387.484L395.386 387.775L395.879 387.943L396.641 388.212L397.1 388.358L397.885 388.616L398.221 388.728L399.342 389.075C410.954 392.74 420.29 392.438 434.177 412.467C442.717 425.199 456.167 460.146 464.719 483.997H557.287C543.164 462.701 523.068 432.641 512.398 417.566C494.835 392.763 487.191 381.207 481.24 370.773C477.608 364.395 473.865 353.478 469.169 341.194C469.236 341.027 469.292 340.854 469.337 340.679C470.177 337.574 468.776 334.503 466.221 333.651C463.979 328.126 461.581 322.443 458.868 316.929C448.669 296.071 437.573 276.905 431.397 269.306C427.53 264.587 416.759 264.968 407.12 264.822H406.964L404.397 264.744H404.105H402.985H402.682L401.561 264.665H401.337L400.272 264.576H400.026L399.129 264.475H398.759L397.885 264.34H397.56L396.775 264.184L396.417 264.116L395.677 263.937L395.341 263.859L394.702 263.657L394.332 263.545C394.153 263.489 393.996 263.41 393.828 263.343L393.402 263.186C393.11 263.052 392.83 262.917 392.561 262.76L391.743 262.289L391.373 262.065L390.858 261.751L390.376 261.449L389.905 261.157L389.311 260.776L388.919 260.518L388.268 260.093L387.865 259.835L387.125 259.342C387.005 259.274 386.889 259.199 386.778 259.117L385.915 258.546L385.646 258.367L384.525 257.604C374.875 251.126 362.109 242.249 357.166 243.314C350.654 244.726 336.767 273.755 333.943 278.833C331.937 282.43 324.382 289.413 320.146 293.168C319.951 293.276 319.783 293.425 319.652 293.605L317.814 295.219L308.635 294.188C307.844 293.967 307.02 293.895 306.203 293.975C305.724 294.026 305.266 294.196 304.869 294.468C304.669 294.608 304.488 294.773 304.331 294.961L304.264 295.062L301.282 294.726C300.531 294.546 299.87 294.614 299.635 295.499C299.399 296.384 299.926 296.765 300.677 296.99L303.423 298.189C303.636 299.769 305.003 300.61 306.786 301.125L316.413 305.328L316.077 306.573C316.017 306.738 315.99 306.914 315.997 307.09C316.005 307.266 316.048 307.439 316.123 307.598C316.198 307.758 316.304 307.901 316.435 308.019C316.565 308.137 316.718 308.229 316.884 308.287L319.765 309.061C320.043 309.116 320.332 309.076 320.586 308.948C320.84 308.82 321.044 308.611 321.166 308.355L321.547 308.467C320 310.025 319.305 312.221 320.224 315.136C323.587 326.489 313.062 327.801 316.806 335.77C324.203 351.551 329.717 341.374 344.635 358.186C347.046 360.86 349.67 363.334 352.481 365.583L352.47 365.314ZM336.969 297.942C337.574 297.472 338.258 296.9 338.953 296.284C339.339 297.205 339.868 298.06 340.522 298.817L336.969 297.942ZM374.684 301.731C377.752 299.354 380.62 296.73 383.258 293.885C383.536 294.418 383.787 294.964 384.009 295.521C379.952 300.341 375.189 305.183 375.189 305.183C375.436 306.058 375.794 306.897 376.253 307.682L364.675 304.813C368.228 304.674 371.681 303.599 374.684 301.697V301.731ZM356.023 299.489C356.697 301.133 357.874 302.522 359.385 303.457L350.665 301.305C352.524 300.935 354.326 300.321 356.023 299.478V299.489ZM346.193 325.615C347.191 322.301 347.287 318.78 346.473 315.416L378.058 324.506C376.188 326.806 374.134 328.95 371.916 330.917C371.852 330.964 371.792 331.016 371.737 331.073L371.658 331.129C371.344 330.995 371.042 330.872 370.728 330.76L370.392 330.648L369.753 330.446L369.372 330.345L368.778 330.199L368.396 330.121L367.791 330.009H367.444L366.816 329.919H366.525H365.863H365.65H364.933H364.81H364.037C362.987 329.913 361.939 329.976 360.898 330.11C356.303 325.111 346.193 325.604 346.193 325.604V325.615Z" fill="black"/>
</g>
<path d="M382.198 252.986V245.724H360.017C357.54 249.759 356.117 252.572 355.41 253.85C352.575 258.949 338.699 270.819 338.699 270.819C342.062 280.424 353.853 276.367 357.652 273.789C361.452 271.211 369.04 262.917 369.04 262.917C369.409 262.883 386.435 251.126 382.198 252.986Z" fill="#E4A880"/>
<path d="M399.268 256.147V245.724H379.093C375.327 251.473 373.355 255.419 372.469 257.021C369.633 262.121 355.758 273.979 355.758 273.979C359.12 283.585 370.911 279.583 374.722 276.949C378.533 274.315 386.109 266.078 386.109 266.078C386.434 266.044 403.493 254.287 399.268 256.147Z" fill="#E4A880"/>
<path d="M411.663 262.585V245.772H398.482C394.962 251.452 391.857 257.377 389.19 263.504C386.814 268.592 375.191 280.462 375.191 280.462C378.038 290.067 387.879 286.01 391.073 283.432C394.268 280.854 400.611 272.56 400.611 272.56C400.914 272.481 415.182 260.724 411.663 262.585Z" fill="#E4A880"/>
<path d="M317.271 270.719C317.271 270.719 331.147 258.849 333.983 253.75C336.818 248.65 350.694 219.487 357.206 218.063C363.718 216.64 384.105 232.791 392.601 237.61C401.097 242.43 425.172 236.781 431.403 244.413C437.635 252.046 448.675 271.313 458.874 292.261C469.074 313.209 475.305 335.883 481.291 346.362C487.276 356.842 494.886 368.453 512.449 393.369C530.012 418.285 573.006 483.998 573.006 483.998H473.041C473.041 483.998 447.834 408.377 433.959 388.269C420.083 368.162 410.736 368.453 399.124 364.732C387.512 361.011 359.582 350.24 344.653 333.417C329.723 316.593 324.22 326.77 316.823 310.922C313.079 302.92 323.637 301.597 320.241 290.187C316.845 278.777 336.493 278.307 342.097 284.023C344.686 286.657 348.822 290.501 346.199 300.936C346.199 300.936 356.287 300.443 360.871 305.262C360.871 305.262 366.833 304.343 371.642 306.506C371.642 306.506 386.089 294.491 385.809 281.467C385.529 268.443 381.83 262.245 360.871 252.326C360.871 252.326 353.328 262.245 347.612 262.806C347.612 262.806 340.035 271.1 336.224 273.689C332.413 276.278 320.667 280.313 317.271 270.719Z" fill="#F8CFAE"/>
<path opacity="0.1" d="M461.935 320.144L453.125 317.342L453.024 316.984L452.901 316.647C452.845 316.491 452.789 316.334 452.722 316.177C452.654 316.02 452.621 315.941 452.565 315.818L452.363 315.392C452.229 315.157 452.094 314.921 451.948 314.697L451.747 314.406L451.455 314.002L451.209 313.733C451.108 313.61 450.996 313.487 450.884 313.375L450.626 313.117L450.256 312.803L449.987 312.579L449.561 312.288L449.281 312.108L448.788 311.85L448.53 311.716C448.272 311.604 448.003 311.503 447.734 311.413L384.408 291.239C384.451 290.893 384.379 290.544 384.202 290.244C384.026 289.944 383.756 289.711 383.433 289.58L379.533 288.257C379.175 288.162 378.795 288.194 378.458 288.347C378.121 288.501 377.847 288.766 377.684 289.098L307.487 266.783C307.535 266.47 307.477 266.151 307.322 265.875C307.168 265.599 306.926 265.382 306.635 265.258L303.475 264.194C303.281 264.147 303.08 264.139 302.884 264.17C302.687 264.201 302.498 264.271 302.329 264.375C302.159 264.479 302.011 264.615 301.895 264.777C301.778 264.938 301.694 265.121 301.648 265.314L301.188 266.682L289.633 264.631C288.972 264.334 288.256 264.181 287.531 264.181C286.807 264.181 286.091 264.334 285.43 264.631C285.154 264.798 284.908 265.011 284.701 265.258L281.406 264.676C280.577 264.407 279.837 264.44 279.512 265.415C279.187 266.39 279.747 266.861 280.565 267.153L283.569 268.8C283.692 270.593 285.161 271.636 287.077 272.331L297.501 277.722L297.041 279.089C296.883 279.456 296.877 279.871 297.024 280.243C297.171 280.615 297.46 280.913 297.826 281.073L300.975 282.194C301.284 282.277 301.611 282.255 301.905 282.131C302.2 282.007 302.444 281.789 302.6 281.51L371.889 306.448C371.819 306.812 371.877 307.189 372.052 307.516C372.228 307.842 372.511 308.099 372.853 308.241L376.753 309.564C377.089 309.654 377.445 309.631 377.767 309.5C378.089 309.368 378.359 309.135 378.535 308.835L441.054 331.341C442.377 331.775 443.787 331.872 445.157 331.624C446.527 331.375 447.813 330.789 448.9 329.918L451.388 330.814L457.586 333.056C460.59 334.177 464.042 332.092 465.252 328.517C466.463 324.941 464.972 321.108 461.935 320.144Z" fill="black"/>
<g opacity="0.1">
<path opacity="0.1" d="M403.671 358.465C396.879 356.145 374.362 348.232 352.473 340.902C367.895 353.489 389.314 361.682 399.121 364.787C410.732 368.474 420.069 368.149 433.956 388.324C447.842 408.498 473.038 483.996 473.038 483.996H480.368C480.368 483.996 452.348 405.45 438.506 383.773C424.664 362.097 415.283 362.411 403.671 358.465Z" fill="black"/>
</g>
<path d="M458.41 319.919L471.86 323.786C474.931 324.672 478.237 322.419 479.224 318.776C480.21 315.133 478.461 311.513 475.368 310.751L461.851 307.389L458.41 319.919Z" fill="#7F7F7F"/>
<path d="M458.41 319.919L471.86 323.786C474.931 324.672 478.237 322.419 479.224 318.776C480.21 315.133 478.461 311.513 475.368 310.751L461.851 307.389L458.41 319.919Z" fill="#7F7F7F"/>
<path d="M458.41 319.919L471.86 323.786C474.931 324.672 478.237 322.419 479.224 318.776C480.21 315.133 478.461 311.513 475.368 310.751L461.851 307.389L458.41 319.919Z" fill="#7F7F7F"/>
<path d="M469.173 316.076C469.804 313.803 469.729 311.391 468.96 309.161L461.831 307.379L458.469 319.921L465.519 321.961C467.303 320.413 468.576 318.362 469.173 316.076Z" fill="#666666"/>
<path d="M290.972 269.512L294.884 271.226L295.904 267.46L291.645 266.978C290.816 266.777 290.076 266.855 289.807 267.842C289.538 268.828 290.143 269.276 290.972 269.512Z" fill="#7F7F7F"/>
<path d="M297.764 274.149L309.802 279.428L312.918 267.85L299.849 266.382C297.271 265.731 295.007 265.989 294.189 269.015C293.371 272.042 295.209 273.409 297.764 274.149Z" fill="#7F7F7F"/>
<path d="M311.169 274.406L312.918 267.894L299.849 266.425C297.271 265.775 295.007 266.033 294.189 269.059C294.125 269.306 294.08 269.557 294.055 269.81L311.169 274.406Z" fill="#666666"/>
<path d="M311.965 281.723L455.182 323.193C459.934 324.571 465.056 321.075 466.581 315.426C468.105 309.777 465.46 304.218 460.618 302.985L315.933 266.939L311.965 281.723Z" fill="#7F7F7F"/>
<path d="M466.962 313.128C467.332 308.32 464.776 303.982 460.618 302.94L315.933 266.939L314.543 272.162L466.962 313.128Z" fill="#666666"/>
<path d="M407.741 299.558C407.558 300.234 407.648 300.955 407.992 301.565C408.336 302.175 408.906 302.626 409.579 302.819L456.228 316.269C457.093 316.372 457.967 316.159 458.689 315.671C459.411 315.182 459.933 314.45 460.16 313.609C460.387 312.767 460.304 311.872 459.926 311.086C459.547 310.301 458.899 309.678 458.099 309.331L410.969 297.596C410.289 297.429 409.57 297.534 408.967 297.89C408.363 298.247 407.923 298.825 407.741 299.502V299.558Z" fill="#4A4A4A"/>
<path d="M391.086 284.245L395.065 285.365C395.482 285.52 395.822 285.832 396.01 286.235C396.199 286.637 396.222 287.098 396.074 287.517L391.59 304.229C391.509 304.665 391.258 305.051 390.892 305.303C390.527 305.555 390.077 305.652 389.64 305.574L385.661 304.509C385.246 304.352 384.908 304.04 384.72 303.638C384.531 303.236 384.507 302.776 384.653 302.357L389.136 285.646C389.17 285.425 389.247 285.213 389.364 285.022C389.481 284.831 389.635 284.666 389.817 284.536C389.998 284.405 390.204 284.312 390.422 284.262C390.64 284.212 390.866 284.206 391.086 284.245Z" fill="#4A4A4A"/>
<path d="M313.63 265.08L316.858 265.943C317.23 266.085 317.532 266.365 317.701 266.724C317.87 267.084 317.894 267.495 317.766 267.871L314 281.837C313.965 282.031 313.892 282.216 313.785 282.383C313.678 282.549 313.539 282.692 313.377 282.804C313.215 282.917 313.032 282.996 312.839 283.038C312.645 283.079 312.446 283.083 312.252 283.047L309.035 282.184C308.662 282.045 308.358 281.765 308.188 281.405C308.019 281.045 307.997 280.632 308.127 280.256L311.882 266.291C311.955 265.9 312.18 265.553 312.508 265.327C312.835 265.1 313.238 265.012 313.63 265.08Z" fill="#4A4A4A"/>
<path d="M348.732 301.012C347.219 300.922 346.199 301.012 346.199 301.012C348.788 290.577 344.686 286.733 342.097 284.099C336.493 278.383 316.834 278.865 320.241 290.263C323.648 301.662 313.079 302.996 316.822 310.998C324.22 326.847 329.734 316.658 344.652 333.493C345.919 334.916 347.286 336.295 348.732 337.629V301.012Z" fill="#F8CFAE"/>
<path d="M348.731 227.096C342.533 236.533 335.853 250.386 333.981 253.749C331.145 258.848 317.27 270.718 317.27 270.718C320.632 280.312 332.423 276.322 336.222 273.688C340.022 271.054 347.61 262.805 347.61 262.805C347.989 262.761 348.364 262.686 348.731 262.581V227.096Z" fill="#F8CFAE"/>
<path opacity="0.1" d="M384.566 232.433C384.824 232.601 393.712 240.278 414.391 248.931C435.07 257.584 412.822 239.964 412.822 239.964C404.976 239.819 396.851 240.021 392.647 237.622C390.518 236.423 387.705 234.551 384.566 232.433Z" fill="black"/>
<path opacity="0.1" d="M360.905 252.323C359.197 250.708 357.967 248.652 357.352 246.383C357.352 246.383 356.702 252.626 358.686 254.979L360.905 252.323Z" fill="black"/>
<path opacity="0.1" d="M316.82 310.955C316.82 310.955 319.936 302.785 327.3 302.953C327.3 302.953 318.333 307.548 317.582 312.513L316.82 310.955Z" fill="black"/>
<path d="M219.824 200.262C208.874 202.548 198.978 208.369 191.658 216.828C191.423 217.108 191.187 217.399 190.963 217.702C190.504 218.307 190.268 218.655 190.268 218.655C190.268 218.655 180.282 220.302 176.819 225.974C176.819 225.974 170.8 226.343 166.552 229.47C162.47 227.22 158.702 224.443 155.344 221.21C140.415 242.08 137.007 271.187 147.162 294.791C148.742 293.962 150.356 293.132 151.993 292.191C162.562 286.139 187.578 269.663 198.607 250.06C207.574 234.077 214.298 236.98 218.546 229.325C223.299 224.304 224.386 219.91 234.888 213.633C240.615 210.327 233.913 197.068 219.824 200.262Z" fill="#F8CFAE"/>
<path opacity="0.1" d="M227.651 205.902C220.478 207.998 212.924 213.916 214.448 215.62C215.972 217.323 223.056 223.869 224.916 221.919C226.777 219.968 236.786 215.9 234.174 211.349C231.563 206.799 229.769 205.297 227.651 205.902Z" fill="white"/>
<g opacity="0.1">
<path opacity="0.1" d="M206.984 226.212C208.275 226.313 209.542 226.616 210.739 227.109C211.919 227.584 213.046 228.181 214.102 228.891C215.161 229.599 216.141 230.418 217.027 231.334C217.929 232.26 218.685 233.318 219.268 234.472C218.111 233.958 216.988 233.37 215.906 232.713C214.864 232.074 213.844 231.424 212.835 230.751C211.826 230.079 210.851 229.384 209.865 228.644C208.855 227.894 207.893 227.082 206.984 226.212Z" fill="black"/>
</g>
<path opacity="0.1" d="M101.247 374.81C96.3941 410.026 87.3604 462.491 83.6953 483.999H97.145C101.628 447.472 115.291 341.186 122.924 322.535C130.769 303.482 138.615 299.279 147.167 294.795C148.747 293.966 150.361 293.137 151.997 292.195C159.78 287.682 167.21 282.586 174.223 276.952C148.545 286.647 130.904 294.246 122.105 302.955C117.017 308.032 107.232 331.098 101.247 374.81Z" fill="black"/>
<path d="M212.827 83.3426H215.722L211.827 78.2704L215.529 73.7332H212.625L209.65 77.4634H209.28V73.7332H206.957V83.3426H209.28V79.3543H209.805L212.827 83.3426Z" fill="#666666"/>
<path d="M225.733 78.5379C225.733 75.3613 223.724 73.6018 221.144 73.6018C218.554 73.6018 216.56 75.3613 216.56 78.5379C216.56 81.7003 218.554 83.4739 221.144 83.4739C223.724 83.4739 225.733 81.7144 225.733 78.5379ZM223.358 78.5379C223.358 80.4194 222.533 81.4376 221.144 81.4376C219.76 81.4376 218.929 80.4194 218.929 78.5379C218.929 76.6563 219.76 75.6381 221.144 75.6381C222.533 75.6381 223.358 76.6563 223.358 78.5379Z" fill="#666666"/>
<path d="M227.332 83.3426H227.914C230.288 83.3426 231.109 82.0382 231.268 78.7443L231.419 75.5631H233.769V83.3426H236.017V73.7332H229.274L229.119 77.8904C229.026 80.5132 228.603 81.3719 227.594 81.4939L227.332 81.522V83.3426Z" fill="#666666"/>
<path d="M238.126 83.3426H244.826V81.4563H240.449V79.481H244.484V77.5901H240.449V75.6194H244.826V73.7332H238.126V83.3426Z" fill="#666666"/>
<path d="M252.811 83.3426H255.706L251.812 78.2704L255.514 73.7332H252.61L249.635 77.4634H249.264V73.7332H246.942V83.3426H249.264V79.3543H249.79L252.811 83.3426Z" fill="#666666"/>
<path d="M256.901 75.6194H259.819V83.3426H262.109V75.6194H265.023V73.7332H256.901V75.6194Z" fill="#666666"/>
<path d="M266.818 73.7332V83.3426H268.788L272.613 77.7965H272.674V83.3426H274.996V73.7332H272.997L269.215 79.2698H269.136V73.7332H266.818Z" fill="#666666"/>
<path d="M277.117 83.3426H281.429C283.555 83.3426 284.775 82.2071 284.775 80.654C284.775 79.2651 283.766 78.3924 282.602 78.3408V78.247C283.658 78.0264 284.399 77.2616 284.399 76.1637C284.399 74.7138 283.283 73.7332 281.124 73.7332H277.117V83.3426ZM279.44 81.4704V79.1807H280.918C281.805 79.1807 282.349 79.6499 282.349 80.3865C282.349 81.0669 281.88 81.4704 280.876 81.4704H279.44ZM279.44 77.6839V75.5772H280.763C281.537 75.5772 282.03 75.976 282.03 76.6141C282.03 77.2898 281.485 77.6839 280.725 77.6839H279.44Z" fill="#666666"/>
<path d="M286.552 83.3426H288.875V79.481H292.661V83.3426H294.979V73.7332H292.661V77.5901H288.875V73.7332H286.552V83.3426Z" fill="#666666"/>
<path d="M297.097 73.7332V83.3426H299.067L302.891 77.7965H302.952V83.3426H305.275V73.7332H303.276L299.494 79.2698H299.414V73.7332H297.097Z" fill="#666666"/>
<path d="M307.396 73.7332V83.3426H309.367L313.191 77.7965H313.252V83.3426H315.574V73.7332H313.575L309.794 79.2698H309.714V73.7332H307.396ZM312.412 71.1807C312.407 71.6076 312.144 71.9971 311.473 71.9971C310.784 71.9971 310.526 71.5936 310.53 71.1807H309.033C309.029 72.3584 309.972 73.1326 311.473 73.1326C312.975 73.1326 313.918 72.3584 313.923 71.1807H312.412Z" fill="#666666"/>
<path d="M320.777 85.6558H323.01V83.3426H328.477V85.6511H330.71V81.5314H329.678V73.7332H323.104L322.804 77.8012C322.63 80.2317 322.11 81.081 321.439 81.5314H320.777V85.6558ZM324.104 81.5314C324.549 80.776 324.911 79.6358 325.037 77.8012L325.188 75.6194H327.445V81.5314H324.104Z" fill="#666666"/>
<path d="M341.506 78.5379C341.506 75.3613 339.498 73.6018 336.917 73.6018C334.327 73.6018 332.333 75.3613 332.333 78.5379C332.333 81.7003 334.327 83.4739 336.917 83.4739C339.498 83.4739 341.506 81.7144 341.506 78.5379ZM339.132 78.5379C339.132 80.4194 338.306 81.4376 336.917 81.4376C335.533 81.4376 334.702 80.4194 334.702 78.5379C334.702 76.6563 335.533 75.6381 336.917 75.6381C338.306 75.6381 339.132 76.6563 339.132 78.5379Z" fill="#666666"/>
<path d="M350.087 73.7332H343.522V83.3426H345.845V75.6194H350.087V73.7332Z" fill="#666666"/>
<path d="M360.517 78.5379C360.517 75.3613 358.509 73.6018 355.929 73.6018C353.339 73.6018 351.344 75.3613 351.344 78.5379C351.344 81.7003 353.339 83.4739 355.929 83.4739C358.509 83.4739 360.517 81.7144 360.517 78.5379ZM358.143 78.5379C358.143 80.4194 357.317 81.4376 355.929 81.4376C354.544 81.4376 353.714 80.4194 353.714 78.5379C353.714 76.6563 354.544 75.6381 355.929 75.6381C357.317 75.6381 358.143 76.6563 358.143 78.5379Z" fill="#666666"/>
<path d="M362.534 83.3426H366.846C368.972 83.3426 370.192 82.2071 370.192 80.654C370.192 79.2651 369.183 78.3924 368.019 78.3408V78.247C369.075 78.0264 369.816 77.2616 369.816 76.1637C369.816 74.7138 368.699 73.7332 366.541 73.7332H362.534V83.3426ZM364.857 81.4704V79.1807H366.335C367.221 79.1807 367.766 79.6499 367.766 80.3865C367.766 81.0669 367.297 81.4704 366.292 81.4704H364.857ZM364.857 77.6839V75.5772H366.18C366.954 75.5772 367.447 75.976 367.447 76.6141C367.447 77.2898 366.902 77.6839 366.142 77.6839H364.857Z" fill="#666666"/>
<path d="M374.292 73.7332H371.969V83.3426H374.292V73.7332Z" fill="#666666"/>
<path d="M376.41 83.3426H378.733V80.3584H380.309C382.51 80.3584 383.885 79.054 383.885 77.0599C383.885 75.0845 382.538 73.7332 380.38 73.7332H376.41V83.3426ZM378.733 78.5285V75.6053H379.878C380.919 75.6053 381.478 76.1684 381.478 77.0599C381.478 77.9467 380.919 78.5285 379.878 78.5285H378.733Z" fill="#666666"/>
</svg>
