<svg width="42" height="42" viewBox="0 0 42 42" fill="none" xmlns="http://www.w3.org/2000/svg">
<g clip-path="url(#clip0)">
<path d="M40.3338 32.2375L32.939 24.8428L33.4746 24.3072L33.6623 24.4949C33.7872 24.6198 33.9512 24.6826 34.1152 24.6826C34.2792 24.6826 34.4432 24.6198 34.5682 24.4949L36.49 22.573C36.7405 22.3226 36.7405 21.9177 36.49 21.6672L32.834 18.0111V6.10449C32.834 3.63168 30.8218 1.62012 28.3496 1.62012H4.00586C2.23966 1.62012 0.802734 3.05704 0.802734 4.82324V9.94824C0.802734 10.3019 1.08909 10.5889 1.44336 10.5889H5.92773V38.1357C5.92773 39.9019 7.36466 41.3389 9.13086 41.3389H32.1934C33.9596 41.3389 35.3965 39.9019 35.3965 38.1357V36.8545C35.3965 36.5009 35.1101 36.2139 34.7559 36.2139H32.834V29.7525L37.8264 34.7449C37.9513 34.8698 38.1153 34.9326 38.2793 34.9326C38.4433 34.9326 38.6073 34.8698 38.7322 34.7449L40.3338 33.1434C40.5843 32.8929 40.5843 32.488 40.3338 32.2375ZM28.9902 26.9799L26.693 24.6826L30.2715 21.1041L32.5688 23.4014L28.9902 26.9799ZM28.725 28.5264L27.709 29.5424L24.1305 25.9639L25.1465 24.9478L28.725 28.5264ZM34.1152 23.1361L30.5367 19.5576L31.5527 18.5416L35.1313 22.1201L34.1152 23.1361ZM5.92773 9.30762H2.08398V4.82324C2.08398 3.76365 2.94627 2.90137 4.00586 2.90137C5.06545 2.90137 5.92773 3.76365 5.92773 4.82324V9.30762ZM34.1152 38.1357C34.1152 39.1953 33.253 40.0576 32.1934 40.0576H11.6921C12.095 39.5221 12.334 38.8564 12.334 38.1357V37.4951H34.1152V38.1357ZM31.5527 36.2139H11.6934C11.3391 36.2139 11.0527 36.5009 11.0527 36.8545V38.1357C11.0527 39.1953 10.1905 40.0576 9.13086 40.0576C8.07127 40.0576 7.20898 39.1953 7.20898 38.1357V4.82324C7.20898 4.09934 6.9585 3.43821 6.5517 2.90137H28.3496C30.1158 2.90137 31.5527 4.33829 31.5527 6.10449V16.9951C31.3887 16.9951 31.2247 17.0579 31.0998 17.1828L29.1779 19.1047C28.9275 19.3552 28.9275 19.7601 29.1779 20.0105L29.3656 20.1982L25.7871 23.7768L25.5994 23.5891C25.3489 23.3386 24.944 23.3386 24.6936 23.5891L22.7717 25.5109C22.5212 25.7614 22.5212 26.1663 22.7717 26.4168L27.2561 30.9012C27.381 31.0261 27.545 31.0889 27.709 31.0889C27.873 31.0889 28.037 31.0261 28.1619 30.9012L30.0838 28.9793C30.3343 28.7288 30.3343 28.3239 30.0838 28.0734L29.8961 27.8857L30.4316 27.3502L31.5527 28.4713V36.2139ZM38.2793 33.3861L31.3375 26.4443L32.0332 25.7486L38.975 32.6904L38.2793 33.3861Z" fill="#ED1C24"/>
<path d="M9.13086 13.1514H30.2715V14.4326H9.13086V13.1514Z" fill="#ED1C24"/>
<path d="M9.13086 18.2764H27.709V19.5576H9.13086V18.2764Z" fill="#ED1C24"/>
<path d="M9.13086 15.7139H30.2715V16.9951H9.13086V15.7139Z" fill="#ED1C24"/>
<path d="M9.13086 8.02637H30.2715V9.30762H9.13086V8.02637Z" fill="#ED1C24"/>
<path d="M9.13086 5.46387H30.2715V6.74512H9.13086V5.46387Z" fill="#ED1C24"/>
<path d="M9.13086 10.5889H30.2715V11.8701H9.13086V10.5889Z" fill="#ED1C24"/>
<path d="M9.13086 20.8389H26.4277V22.1201H9.13086V20.8389Z" fill="#ED1C24"/>
<path d="M14.2559 23.4014C11.0764 23.4014 8.49023 25.9882 8.49023 29.167C8.49023 32.3458 11.0764 34.9326 14.2559 34.9326C17.4353 34.9326 20.0215 32.3458 20.0215 29.167C20.0215 25.9882 17.4353 23.4014 14.2559 23.4014ZM14.2559 33.6514C11.7837 33.6514 9.77148 31.6398 9.77148 29.167C9.77148 26.6942 11.7837 24.6826 14.2559 24.6826C16.728 24.6826 18.7402 26.6942 18.7402 29.167C18.7402 31.6398 16.728 33.6514 14.2559 33.6514Z" fill="#ED1C24"/>
<path d="M14.2559 25.9639C12.4897 25.9639 11.0527 27.4008 11.0527 29.167C11.0527 30.9332 12.4897 32.3701 14.2559 32.3701C16.0221 32.3701 17.459 30.9332 17.459 29.167C17.459 27.4008 16.0221 25.9639 14.2559 25.9639ZM14.2559 31.0889C13.1963 31.0889 12.334 30.2266 12.334 29.167C12.334 28.1074 13.1963 27.2451 14.2559 27.2451C15.3155 27.2451 16.1777 28.1074 16.1777 29.167C16.1777 30.2266 15.3155 31.0889 14.2559 31.0889Z" fill="#ED1C24"/>
<path d="M25.1465 32.3702C25.1465 32.0884 24.962 31.8385 24.6916 31.7572C24.4226 31.6752 24.1292 31.7796 23.9729 32.0147L23.7576 32.3376C23.2092 33.1601 22.2912 33.6515 21.3027 33.6515V34.9327C22.4206 34.9327 23.4757 34.4946 24.2573 33.7316C24.7109 34.4523 25.5142 34.9327 26.4277 34.9327H28.9902V33.6515H26.4277C25.7211 33.6515 25.1465 33.0769 25.1465 32.3702Z" fill="#ED1C24"/>
</g>
<defs>
<clipPath id="clip0">
<rect width="41" height="41" fill="white" transform="translate(0.162109 0.979492)"/>
</clipPath>
</defs>
</svg>
