<svg xmlns="http://www.w3.org/2000/svg" xmlns:xlink="http://www.w3.org/1999/xlink" width="1080" zoomAndPan="magnify" viewBox="0 0 810 809.999993" height="1080" preserveAspectRatio="xMidYMid meet" version="1.0"><path fill="#e60003" d="M 692.921875 634.484375 L 589.640625 634.484375 C 578.769531 634.484375 578.769531 617.757812 589.640625 617.757812 L 692.921875 617.757812 C 701.703125 617.757812 709.230469 610.648438 709.230469 601.449219 L 709.230469 121.007812 C 709.230469 100.9375 685.8125 104.699219 670.761719 104.699219 C 659.472656 104.699219 659.472656 87.972656 670.761719 87.972656 L 692.921875 87.972656 C 711.320312 87.972656 725.957031 103.027344 725.957031 121.007812 L 725.957031 601.449219 C 725.957031 619.847656 711.320312 634.484375 692.921875 634.484375 Z M 192.410156 634.484375 L 100.835938 634.484375 C 82.855469 634.484375 68.222656 619.847656 68.222656 601.449219 L 68.222656 121.007812 C 68.222656 103.027344 82.855469 87.972656 100.835938 87.972656 C 115.472656 87.972656 131.777344 85.046875 131.777344 96.335938 C 131.777344 108.046875 115.472656 104.699219 100.835938 104.699219 C 92.054688 104.699219 84.945312 112.226562 84.945312 121.007812 L 84.945312 601.449219 C 84.945312 610.648438 92.054688 617.757812 100.835938 617.757812 L 192.410156 617.757812 C 203.28125 617.757812 203.28125 634.484375 192.410156 634.484375 Z M 631.039062 104.699219 L 569.152344 104.699219 C 557.863281 104.699219 557.863281 87.972656 569.152344 87.972656 L 631.039062 87.972656 C 641.910156 87.972656 641.910156 104.699219 631.039062 104.699219 Z M 529.429688 104.699219 L 467.542969 104.699219 C 456.671875 104.699219 456.671875 87.972656 467.542969 87.972656 L 529.429688 87.972656 C 540.300781 87.972656 540.71875 104.699219 529.429688 104.699219 Z M 427.820312 104.699219 L 365.9375 104.699219 C 355.066406 104.699219 355.066406 87.972656 365.9375 87.972656 L 427.820312 87.972656 C 439.109375 87.972656 439.109375 104.699219 427.820312 104.699219 Z M 326.632812 104.699219 L 264.328125 104.699219 C 253.457031 104.699219 253.457031 87.972656 264.328125 87.972656 L 326.632812 87.972656 C 337.503906 87.972656 337.503906 104.699219 326.632812 104.699219 Z M 225.023438 104.699219 L 163.140625 104.699219 C 151.847656 104.699219 151.847656 87.972656 163.140625 87.972656 L 225.023438 87.972656 C 235.894531 87.972656 235.894531 104.699219 225.023438 104.699219 Z M 225.023438 104.699219 " fill-opacity="1" fill-rule="evenodd"/><path fill="#e60003" d="M 717.59375 206.308594 L 76.585938 206.308594 C 65.292969 206.308594 65.292969 189.582031 76.585938 189.582031 L 717.59375 189.582031 C 728.464844 189.582031 728.882812 206.308594 717.59375 206.308594 Z M 717.59375 206.308594 " fill-opacity="1" fill-rule="evenodd"/><path fill="#e60003" d="M 143.066406 150.277344 C 127.597656 150.277344 115.054688 137.734375 115.054688 122.261719 L 115.054688 70.414062 C 115.054688 33.617188 171.5 33.617188 171.5 70.414062 L 171.5 122.261719 C 171.5 137.734375 158.539062 150.277344 143.066406 150.277344 Z M 143.066406 59.121094 C 136.796875 59.121094 131.777344 64.140625 131.777344 70.414062 L 131.777344 122.261719 C 131.777344 137.316406 154.777344 137.316406 154.777344 122.261719 L 154.777344 70.414062 C 154.777344 64.140625 149.339844 59.121094 143.066406 59.121094 Z M 143.066406 59.121094 " fill-opacity="1" fill-rule="evenodd"/><path fill="#e60003" d="M 244.675781 150.277344 C 229.207031 150.277344 216.660156 137.734375 216.660156 122.261719 L 216.660156 70.414062 C 216.660156 33.617188 272.691406 33.617188 272.691406 70.414062 L 272.691406 122.261719 C 272.691406 137.734375 260.148438 150.277344 244.675781 150.277344 Z M 244.675781 59.121094 C 238.402344 59.121094 233.386719 64.140625 233.386719 70.414062 L 233.386719 122.261719 C 233.386719 137.316406 255.964844 137.316406 255.964844 122.261719 L 255.964844 70.414062 C 255.964844 64.140625 250.949219 59.121094 244.675781 59.121094 Z M 244.675781 59.121094 " fill-opacity="1" fill-rule="evenodd"/><path fill="#e60003" d="M 346.285156 150.277344 C 330.8125 150.277344 318.269531 137.734375 318.269531 122.261719 L 318.269531 70.414062 C 318.269531 33.617188 374.300781 33.617188 374.300781 70.414062 L 374.300781 122.261719 C 374.300781 137.734375 361.753906 150.277344 346.285156 150.277344 Z M 346.285156 59.121094 C 340.011719 59.121094 334.996094 64.140625 334.996094 70.414062 L 334.996094 122.261719 C 334.996094 137.316406 357.574219 137.316406 357.574219 122.261719 L 357.574219 70.414062 C 357.574219 64.140625 352.554688 59.121094 346.285156 59.121094 Z M 346.285156 59.121094 " fill-opacity="1" fill-rule="evenodd"/><path fill="#e60003" d="M 447.890625 150.277344 C 432.421875 150.277344 419.457031 137.734375 419.457031 122.261719 L 419.457031 70.414062 C 419.457031 33.617188 475.90625 33.617188 475.90625 70.414062 L 475.90625 122.261719 C 475.90625 137.734375 463.363281 150.277344 447.890625 150.277344 Z M 447.890625 59.121094 C 441.621094 59.121094 436.183594 64.140625 436.183594 70.414062 L 436.183594 122.261719 C 436.183594 137.316406 459.183594 137.316406 459.183594 122.261719 L 459.183594 70.414062 C 459.183594 64.140625 454.164062 59.121094 447.890625 59.121094 Z M 447.890625 59.121094 " fill-opacity="1" fill-rule="evenodd"/><path fill="#e60003" d="M 549.082031 150.277344 C 533.609375 150.277344 521.066406 137.734375 521.066406 122.261719 L 521.066406 70.414062 C 521.066406 33.617188 577.515625 33.617188 577.515625 70.414062 L 577.515625 122.261719 C 577.515625 137.734375 564.972656 150.277344 549.082031 150.277344 Z M 549.082031 59.121094 C 542.808594 59.121094 537.792969 64.140625 537.792969 70.414062 L 537.792969 122.261719 C 537.792969 137.316406 560.789062 137.316406 560.789062 122.261719 L 560.789062 70.414062 C 560.789062 64.140625 555.773438 59.121094 549.082031 59.121094 Z M 549.082031 59.121094 " fill-opacity="1" fill-rule="evenodd"/><path fill="#e60003" d="M 650.691406 150.277344 C 635.21875 150.277344 622.675781 137.734375 622.675781 122.261719 L 622.675781 70.414062 C 622.675781 33.617188 678.707031 33.617188 678.707031 70.414062 L 678.707031 122.261719 C 678.707031 137.734375 666.160156 150.277344 650.691406 150.277344 Z M 650.691406 59.121094 C 644.417969 59.121094 639.398438 64.140625 639.398438 70.414062 L 639.398438 122.261719 C 639.398438 137.316406 662.398438 137.316406 662.398438 122.261719 L 662.398438 70.414062 C 662.398438 64.140625 656.960938 59.121094 650.691406 59.121094 Z M 650.691406 59.121094 " fill-opacity="1" fill-rule="evenodd"/><path fill="#e60003" d="M 544.0625 667.933594 L 191.992188 667.933594 C 187.390625 667.933594 183.628906 664.171875 183.628906 659.570312 L 183.628906 629.046875 C 183.628906 607.304688 201.191406 590.160156 222.515625 590.160156 L 546.15625 590.160156 L 618.910156 516.984375 C 631.875 504.023438 652.363281 504.023438 664.90625 516.984375 C 676.195312 527.859375 689.996094 537.476562 682.050781 545.835938 C 667.832031 560.054688 572.496094 656.644531 564.554688 661.664062 C 558.699219 665.84375 551.589844 667.933594 544.0625 667.933594 Z M 200.351562 651.207031 L 544.0625 651.207031 C 550.335938 651.207031 555.355469 648.699219 559.953125 644.101562 L 664.488281 539.984375 C 656.542969 532.039062 644 515.730469 631.039062 528.695312 L 555.355469 604.378906 C 553.679688 606.050781 551.589844 606.886719 549.5 606.886719 L 222.515625 606.886719 C 210.390625 606.886719 200.351562 616.503906 200.351562 629.046875 Z M 200.351562 651.207031 " fill-opacity="1" fill-rule="evenodd"/><path fill="#e60003" d="M 639.820312 485.625 C 638.5625 485.625 636.890625 485.625 635.636719 484.789062 L 419.039062 359.347656 C 414.859375 357.257812 413.605469 352.238281 415.695312 348.058594 C 444.128906 298.71875 519.394531 288.683594 583.371094 325.476562 C 646.925781 362.273438 675.777344 432.105469 647.34375 481.445312 C 645.671875 484.371094 642.746094 485.625 639.820312 485.625 Z M 434.929688 349.3125 L 636.472656 465.554688 C 653.617188 424.996094 627.273438 370.21875 575.007812 339.695312 C 522.320312 309.589844 461.691406 314.1875 434.929688 349.3125 Z M 434.929688 349.3125 " fill-opacity="1" fill-rule="evenodd"/><path fill="#e60003" d="M 580.859375 451.757812 C 574.171875 451.757812 570.40625 444.648438 573.335938 439.210938 C 597.167969 398.234375 597.585938 353.074219 575.007812 339.695312 C 552.007812 326.734375 512.703125 349.730469 489.289062 390.707031 C 483.851562 399.90625 469.21875 391.542969 475.070312 382.34375 C 503.921875 332.167969 551.589844 307.078125 582.953125 325.058594 C 614.730469 343.457031 616.820312 396.980469 587.96875 447.574219 C 586.296875 450.082031 583.789062 451.757812 580.859375 451.757812 Z M 580.859375 451.757812 " fill-opacity="1" fill-rule="evenodd"/><path fill="#e60003" d="M 425.3125 606.886719 C 419.039062 606.886719 414.859375 599.777344 418.203125 594.34375 L 524.410156 410.777344 C 529.847656 401.160156 544.0625 409.523438 538.628906 419.140625 L 432.839844 602.703125 C 431.167969 605.214844 428.238281 606.886719 425.3125 606.886719 Z M 425.3125 606.886719 " fill-opacity="1" fill-rule="evenodd"/><path fill="#e60003" d="M 235.476562 755.742188 C 223.351562 755.742188 206.207031 758.253906 202.027344 752.816406 C 200.351562 750.726562 199.933594 747.800781 200.351562 745.289062 L 225.441406 657.0625 C 227.949219 647.863281 243.839844 651.207031 260.566406 651.207031 C 266 651.207031 269.765625 656.644531 268.511719 661.664062 L 243.839844 749.890625 C 242.585938 753.652344 239.242188 755.742188 235.476562 755.742188 Z M 219.589844 739.4375 L 229.207031 739.4375 L 249.277344 667.933594 L 239.660156 667.933594 Z M 219.589844 739.4375 " fill-opacity="1" fill-rule="evenodd"/><path fill="#e60003" d="M 557.863281 755.742188 C 541.136719 755.742188 525.667969 759.089844 522.738281 749.890625 L 498.070312 661.664062 C 496.816406 656.644531 500.578125 651.207031 506.433594 651.207031 C 523.15625 651.207031 538.628906 647.863281 541.554688 657.0625 L 566.226562 745.289062 C 567.480469 750.726562 563.71875 755.742188 557.863281 755.742188 Z M 537.375 739.4375 L 546.992188 739.4375 L 526.921875 667.933594 L 517.304688 667.933594 Z M 537.375 739.4375 " fill-opacity="1" fill-rule="evenodd"/><path fill="#e60003" d="M 254.710938 427.085938 C 224.1875 427.085938 199.515625 402.414062 199.515625 371.890625 C 199.515625 341.785156 224.1875 317.113281 254.710938 317.113281 C 284.816406 317.113281 309.488281 341.785156 309.488281 371.890625 C 309.488281 402.414062 284.816406 427.085938 254.710938 427.085938 Z M 254.710938 333.839844 C 204.117188 333.839844 204.117188 410.359375 254.710938 410.359375 C 304.886719 410.359375 304.886719 333.839844 254.710938 333.839844 Z M 254.710938 333.839844 " fill-opacity="1" fill-rule="evenodd"/><path fill="#e60003" d="M 254.710938 299.136719 C 243.003906 299.136719 246.347656 283.246094 246.347656 268.609375 C 246.347656 257.738281 263.074219 257.738281 263.074219 268.609375 C 263.074219 283.246094 266 299.136719 254.710938 299.136719 Z M 254.710938 299.136719 " fill-opacity="1" fill-rule="evenodd"/><path fill="#e60003" d="M 294.851562 310.007812 C 288.582031 310.007812 284.816406 303.316406 287.746094 297.460938 C 294.851562 284.917969 300.707031 269.449219 310.324219 275.300781 C 320.359375 280.738281 309.488281 293.699219 302.378906 305.824219 C 300.707031 308.753906 297.78125 310.007812 294.851562 310.007812 Z M 294.851562 310.007812 " fill-opacity="1" fill-rule="evenodd"/><path fill="#e60003" d="M 324.960938 340.113281 C 316.179688 340.113281 313.25 328.824219 320.777344 324.222656 C 333.320312 317.113281 345.449219 306.242188 351.300781 316.277344 C 357.15625 325.894531 341.683594 331.75 329.140625 338.859375 C 327.46875 339.695312 326.214844 340.113281 324.960938 340.113281 Z M 324.960938 340.113281 " fill-opacity="1" fill-rule="evenodd"/><path fill="#e60003" d="M 357.992188 380.253906 C 343.355469 380.253906 327.46875 383.597656 327.46875 371.890625 C 327.46875 360.601562 343.355469 363.527344 357.992188 363.527344 C 368.863281 363.527344 368.863281 380.253906 357.992188 380.253906 Z M 357.992188 380.253906 " fill-opacity="1" fill-rule="evenodd"/><path fill="#e60003" d="M 344.195312 432.105469 C 340.011719 432.105469 325.796875 422.90625 320.777344 419.976562 C 311.160156 414.542969 319.523438 399.90625 329.140625 405.34375 C 341.265625 412.449219 357.15625 418.304688 351.300781 427.921875 C 349.628906 430.847656 347.121094 432.105469 344.195312 432.105469 Z M 344.195312 432.105469 " fill-opacity="1" fill-rule="evenodd"/><path fill="#e60003" d="M 306.144531 470.15625 C 298.617188 470.15625 294.015625 457.609375 287.746094 446.738281 C 282.308594 437.121094 296.945312 428.757812 302.378906 438.375 C 309.488281 450.5 320.359375 463.464844 310.324219 468.898438 C 309.070312 469.734375 307.816406 470.15625 306.144531 470.15625 Z M 306.144531 470.15625 " fill-opacity="1" fill-rule="evenodd"/><path fill="#e60003" d="M 254.710938 483.953125 C 243.003906 483.953125 246.347656 467.644531 246.347656 453.011719 C 246.347656 442.140625 263.074219 442.140625 263.074219 453.011719 C 263.074219 467.644531 266 483.953125 254.710938 483.953125 Z M 254.710938 483.953125 " fill-opacity="1" fill-rule="evenodd"/><path fill="#e60003" d="M 202.863281 470.15625 C 196.171875 470.15625 192.410156 463.046875 195.335938 457.609375 C 202.863281 445.066406 208.296875 429.59375 217.914062 435.03125 C 227.949219 440.882812 217.078125 453.429688 209.96875 465.972656 C 208.296875 468.480469 205.789062 470.15625 202.863281 470.15625 Z M 202.863281 470.15625 " fill-opacity="1" fill-rule="evenodd"/><path fill="#e60003" d="M 164.8125 432.105469 C 156.449219 432.105469 153.105469 420.8125 160.628906 416.632812 C 173.175781 409.105469 185.71875 398.652344 191.574219 408.269531 C 197.425781 418.304688 181.539062 423.742188 168.992188 431.265625 C 167.738281 431.683594 166.484375 432.105469 164.8125 432.105469 Z M 164.8125 432.105469 " fill-opacity="1" fill-rule="evenodd"/><path fill="#e60003" d="M 173.59375 380.253906 C 158.957031 380.253906 142.648438 383.597656 142.648438 371.890625 C 142.648438 360.601562 158.957031 363.527344 173.59375 363.527344 C 184.464844 363.527344 184.464844 380.253906 173.59375 380.253906 Z M 173.59375 380.253906 " fill-opacity="1" fill-rule="evenodd"/><path fill="#e60003" d="M 184.464844 340.113281 C 180.28125 340.113281 166.066406 330.914062 160.628906 327.570312 C 151.429688 322.132812 159.375 307.496094 168.992188 312.933594 C 181.539062 320.460938 197.007812 325.894531 191.574219 335.929688 C 189.898438 338.441406 186.972656 340.113281 184.464844 340.113281 Z M 184.464844 340.113281 " fill-opacity="1" fill-rule="evenodd"/><path fill="#e60003" d="M 214.152344 310.007812 C 206.625 310.007812 202.027344 297.460938 195.335938 286.589844 C 189.898438 277.390625 204.535156 268.609375 209.96875 278.226562 C 217.078125 290.773438 227.949219 303.316406 218.332031 309.171875 C 216.660156 310.007812 215.40625 310.007812 214.152344 310.007812 Z M 214.152344 310.007812 " fill-opacity="1" fill-rule="evenodd"/></svg>