<svg xmlns="http://www.w3.org/2000/svg" xmlns:xlink="http://www.w3.org/1999/xlink" width="1080" zoomAndPan="magnify" viewBox="0 0 810 809.999993" height="1080" preserveAspectRatio="xMidYMid meet" version="1.0"><defs><clipPath id="d962de61cc"><path d="M 421 190 L 780 190 L 780 797.855469 L 421 797.855469 Z M 421 190 " clip-rule="nonzero"/></clipPath><clipPath id="14d113d520"><path d="M 30 178 L 542 178 L 542 797.855469 L 30 797.855469 Z M 30 178 " clip-rule="nonzero"/></clipPath><clipPath id="25b9880740"><path d="M 219 11.855469 L 245 11.855469 L 245 37 L 219 37 Z M 219 11.855469 " clip-rule="nonzero"/></clipPath><clipPath id="857e835e5c"><path d="M 565 11.855469 L 591 11.855469 L 591 37 L 565 37 Z M 565 11.855469 " clip-rule="nonzero"/></clipPath></defs><g clip-path="url(#d962de61cc)"><path fill="#e60003" d="M 754.890625 526.40625 L 606.394531 269.199219 C 585.753906 233.445312 554.59375 206.535156 516.285156 191.375 C 509.972656 188.878906 502.835938 191.96875 500.339844 198.277344 C 497.84375 204.585938 500.933594 211.726562 507.242188 214.222656 C 540.347656 227.320312 567.273438 250.582031 585.117188 281.484375 L 733.613281 538.691406 C 754.523438 574.90625 760.078125 617.101562 749.253906 657.496094 C 738.429688 697.890625 712.523438 731.652344 676.304688 752.5625 C 640.089844 773.472656 597.898438 779.027344 557.5 768.203125 C 517.105469 757.378906 483.34375 731.472656 462.433594 695.257812 L 444.011719 663.351562 C 440.617188 657.472656 433.105469 655.464844 427.230469 658.855469 C 421.351562 662.246094 419.339844 669.761719 422.730469 675.636719 L 441.15625 707.542969 C 465.347656 749.445312 504.40625 779.417969 551.140625 791.9375 C 566.746094 796.121094 582.582031 798.1875 598.320312 798.1875 C 629.707031 798.1875 660.683594 789.957031 688.59375 773.84375 C 730.496094 749.652344 760.46875 710.589844 772.992188 663.855469 C 785.515625 617.117188 779.085938 568.304688 754.894531 526.40625 Z M 754.890625 526.40625 " fill-opacity="1" fill-rule="nonzero"/></g><path fill="#e60003" d="M 384.542969 316.789062 C 383.011719 323.402344 387.128906 330 393.738281 331.53125 C 397.496094 332.402344 401.296875 332.832031 405.082031 332.832031 C 413.792969 332.832031 422.398438 330.550781 430.089844 326.109375 C 441.679688 319.417969 449.972656 308.613281 453.4375 295.6875 C 456.898438 282.757812 455.121094 269.257812 448.429688 257.667969 C 441.402344 245.496094 429.5 236.789062 415.769531 233.777344 C 409.144531 232.324219 402.589844 236.515625 401.132812 243.140625 C 399.679688 249.769531 403.875 256.320312 410.5 257.777344 C 417.5 259.3125 423.570312 263.75 427.152344 269.953125 C 430.5625 275.859375 431.46875 282.738281 429.703125 289.328125 C 427.9375 295.914062 423.710938 301.421875 417.804688 304.828125 C 412.179688 308.078125 405.605469 309.058594 399.28125 307.59375 C 392.675781 306.066406 386.070312 310.179688 384.539062 316.789062 Z M 384.542969 316.789062 " fill-opacity="1" fill-rule="nonzero"/><path fill="#e60003" d="M 599.261719 432.320312 L 527.683594 473.648438 C 521.808594 477.039062 519.792969 484.554688 523.1875 490.429688 C 525.460938 494.371094 529.589844 496.574219 533.835938 496.574219 C 535.921875 496.574219 538.035156 496.042969 539.96875 494.925781 L 611.546875 453.601562 C 617.421875 450.207031 619.4375 442.691406 616.042969 436.816406 C 612.652344 430.941406 605.136719 428.933594 599.261719 432.320312 Z M 599.261719 432.320312 " fill-opacity="1" fill-rule="nonzero"/><path fill="#e60003" d="M 637.417969 498.410156 L 475.445312 591.925781 C 469.566406 595.316406 467.554688 602.832031 470.945312 608.707031 C 473.222656 612.648438 477.351562 614.851562 481.597656 614.851562 C 483.683594 614.851562 485.796875 614.320312 487.730469 613.203125 L 649.703125 519.6875 C 655.578125 516.296875 657.59375 508.78125 654.199219 502.90625 C 650.808594 497.03125 643.292969 495.019531 637.417969 498.410156 Z M 637.417969 498.410156 " fill-opacity="1" fill-rule="nonzero"/><path fill="#e60003" d="M 509.101562 674.796875 C 511.378906 678.738281 515.507812 680.941406 519.753906 680.941406 C 521.835938 680.941406 523.949219 680.410156 525.886719 679.292969 L 687.859375 585.777344 C 693.734375 582.386719 695.75 574.871094 692.355469 568.996094 C 688.964844 563.121094 681.449219 561.109375 675.574219 564.5 L 513.601562 658.015625 C 507.722656 661.40625 505.710938 668.921875 509.101562 674.796875 Z M 509.101562 674.796875 " fill-opacity="1" fill-rule="nonzero"/><g clip-path="url(#14d113d520)"><path fill="#e60003" d="M 535.433594 312.886719 C 522.914062 266.152344 492.941406 227.089844 451.035156 202.898438 C 417.785156 183.699219 380.082031 175.632812 342.007812 179.5625 C 335.257812 180.257812 330.351562 186.292969 331.050781 193.042969 C 331.746094 199.792969 337.777344 204.699219 344.53125 204 C 377.425781 200.609375 410.007812 207.582031 438.753906 224.175781 C 474.96875 245.085938 500.875 278.851562 511.699219 319.246094 C 522.523438 359.640625 516.96875 401.835938 496.058594 438.050781 L 347.5625 695.253906 C 326.652344 731.472656 292.886719 757.378906 252.492188 768.203125 C 212.097656 779.027344 169.90625 773.472656 133.6875 752.5625 C 97.472656 731.652344 71.5625 697.890625 60.742188 657.492188 C 49.917969 617.097656 55.472656 574.90625 76.382812 538.6875 L 224.878906 281.484375 C 230.765625 271.289062 237.761719 261.789062 245.679688 253.238281 C 250.292969 248.261719 249.996094 240.488281 245.015625 235.875 C 240.039062 231.265625 232.265625 231.5625 227.652344 236.542969 C 218.492188 246.433594 210.398438 257.417969 203.597656 269.199219 L 55.101562 526.40625 C 30.910156 568.304688 24.484375 617.121094 37.007812 663.855469 C 49.527344 710.589844 79.5 749.652344 121.402344 773.84375 C 149.316406 789.960938 180.289062 798.191406 211.679688 798.1875 C 227.410156 798.1875 243.253906 796.121094 258.855469 791.9375 C 305.589844 779.417969 344.652344 749.445312 368.84375 707.542969 L 517.339844 450.339844 C 541.53125 408.4375 547.960938 359.621094 535.4375 312.886719 Z M 535.433594 312.886719 " fill-opacity="1" fill-rule="nonzero"/></g><path fill="#e60003" d="M 231.972656 370.730469 C 228.582031 376.605469 230.59375 384.121094 236.46875 387.511719 L 398.445312 481.027344 C 400.378906 482.144531 402.488281 482.675781 404.574219 482.675781 C 408.820312 482.675781 412.953125 480.472656 415.226562 476.53125 C 418.621094 470.65625 416.605469 463.140625 410.730469 459.75 L 248.757812 366.234375 C 242.882812 362.839844 235.367188 364.855469 231.972656 370.730469 Z M 231.972656 370.730469 " fill-opacity="1" fill-rule="nonzero"/><path fill="#e60003" d="M 366.417969 548.765625 C 370.664062 548.765625 374.792969 546.5625 377.070312 542.621094 C 380.460938 536.746094 378.449219 529.230469 372.574219 525.835938 L 210.601562 432.324219 C 204.722656 428.929688 197.210938 430.945312 193.820312 436.820312 C 190.425781 442.695312 192.4375 450.207031 198.316406 453.601562 L 360.289062 547.117188 C 362.222656 548.234375 364.335938 548.765625 366.417969 548.765625 Z M 366.417969 548.765625 " fill-opacity="1" fill-rule="nonzero"/><path fill="#e60003" d="M 328.261719 614.851562 C 332.507812 614.851562 336.636719 612.648438 338.914062 608.707031 C 342.304688 602.832031 340.292969 595.316406 334.417969 591.925781 L 172.441406 498.410156 C 166.566406 495.015625 159.054688 497.03125 155.660156 502.90625 C 152.269531 508.78125 154.28125 516.296875 160.15625 519.6875 L 322.132812 613.203125 C 324.066406 614.320312 326.179688 614.851562 328.261719 614.851562 Z M 328.261719 614.851562 " fill-opacity="1" fill-rule="nonzero"/><path fill="#e60003" d="M 134.285156 564.496094 C 128.410156 561.105469 120.898438 563.117188 117.503906 568.996094 C 114.113281 574.871094 116.125 582.382812 122 585.777344 L 283.976562 679.292969 C 285.910156 680.410156 288.023438 680.941406 290.105469 680.941406 C 294.351562 680.941406 298.484375 678.734375 300.757812 674.796875 C 304.152344 668.917969 302.136719 661.40625 296.261719 658.011719 L 134.289062 564.496094 Z M 134.285156 564.496094 " fill-opacity="1" fill-rule="nonzero"/><g clip-path="url(#25b9880740)"><path fill="#e60003" d="M 244.222656 24.144531 C 244.222656 24.953125 244.144531 25.75 243.988281 26.542969 C 243.828125 27.332031 243.597656 28.101562 243.289062 28.847656 C 242.980469 29.59375 242.601562 30.300781 242.152344 30.972656 C 241.703125 31.640625 241.195312 32.261719 240.625 32.832031 C 240.054688 33.402344 239.433594 33.914062 238.761719 34.359375 C 238.09375 34.808594 237.382812 35.1875 236.640625 35.496094 C 235.894531 35.804688 235.125 36.039062 234.335938 36.195312 C 233.542969 36.351562 232.746094 36.429688 231.9375 36.429688 C 231.132812 36.429688 230.332031 36.351562 229.539062 36.195312 C 228.75 36.039062 227.980469 35.804688 227.234375 35.496094 C 226.492188 35.1875 225.78125 34.808594 225.113281 34.359375 C 224.441406 33.914062 223.820312 33.402344 223.25 32.832031 C 222.679688 32.261719 222.171875 31.640625 221.722656 30.972656 C 221.273438 30.300781 220.894531 29.59375 220.585938 28.847656 C 220.277344 28.101562 220.046875 27.332031 219.886719 26.542969 C 219.730469 25.75 219.652344 24.953125 219.652344 24.144531 C 219.652344 23.339844 219.730469 22.539062 219.886719 21.75 C 220.046875 20.957031 220.277344 20.191406 220.585938 19.445312 C 220.894531 18.699219 221.273438 17.992188 221.722656 17.320312 C 222.171875 16.648438 222.679688 16.027344 223.25 15.457031 C 223.820312 14.886719 224.441406 14.378906 225.113281 13.929688 C 225.78125 13.484375 226.492188 13.105469 227.234375 12.796875 C 227.980469 12.488281 228.75 12.253906 229.539062 12.097656 C 230.332031 11.9375 231.132812 11.859375 231.9375 11.859375 C 232.746094 11.859375 233.542969 11.9375 234.335938 12.097656 C 235.125 12.253906 235.894531 12.488281 236.640625 12.796875 C 237.382812 13.105469 238.09375 13.484375 238.761719 13.929688 C 239.433594 14.378906 240.054688 14.886719 240.625 15.457031 C 241.195312 16.027344 241.703125 16.648438 242.152344 17.320312 C 242.601562 17.992188 242.980469 18.699219 243.289062 19.445312 C 243.597656 20.191406 243.828125 20.957031 243.988281 21.75 C 244.144531 22.539062 244.222656 23.339844 244.222656 24.144531 Z M 244.222656 24.144531 " fill-opacity="1" fill-rule="nonzero"/></g><path fill="#e60003" d="M 247.316406 73.128906 C 247.316406 73.933594 247.238281 74.734375 247.082031 75.523438 C 246.925781 76.316406 246.691406 77.082031 246.382812 77.828125 C 246.074219 78.574219 245.695312 79.28125 245.246094 79.953125 C 244.800781 80.625 244.289062 81.242188 243.71875 81.816406 C 243.148438 82.386719 242.527344 82.894531 241.859375 83.34375 C 241.1875 83.789062 240.480469 84.167969 239.734375 84.476562 C 238.988281 84.785156 238.21875 85.019531 237.429688 85.175781 C 236.636719 85.335938 235.839844 85.414062 235.03125 85.414062 C 234.226562 85.414062 233.425781 85.335938 232.636719 85.175781 C 231.84375 85.019531 231.074219 84.785156 230.332031 84.476562 C 229.585938 84.167969 228.878906 83.789062 228.207031 83.34375 C 227.535156 82.894531 226.914062 82.386719 226.34375 81.816406 C 225.773438 81.242188 225.265625 80.625 224.816406 79.953125 C 224.367188 79.28125 223.992188 78.574219 223.683594 77.828125 C 223.371094 77.082031 223.140625 76.316406 222.984375 75.523438 C 222.824219 74.734375 222.746094 73.933594 222.746094 73.128906 C 222.746094 72.320312 222.824219 71.523438 222.984375 70.730469 C 223.140625 69.9375 223.371094 69.171875 223.683594 68.425781 C 223.992188 67.679688 224.367188 66.972656 224.816406 66.300781 C 225.265625 65.632812 225.773438 65.011719 226.34375 64.441406 C 226.914062 63.871094 227.535156 63.359375 228.207031 62.914062 C 228.878906 62.464844 229.585938 62.085938 230.332031 61.777344 C 231.074219 61.46875 231.84375 61.234375 232.636719 61.078125 C 233.425781 60.921875 234.226562 60.839844 235.03125 60.839844 C 235.839844 60.839844 236.636719 60.921875 237.429688 61.078125 C 238.21875 61.234375 238.988281 61.46875 239.734375 61.777344 C 240.480469 62.085938 241.1875 62.464844 241.859375 62.914062 C 242.527344 63.359375 243.148438 63.871094 243.71875 64.441406 C 244.289062 65.011719 244.800781 65.632812 245.246094 66.300781 C 245.695312 66.972656 246.074219 67.679688 246.382812 68.425781 C 246.691406 69.171875 246.925781 69.9375 247.082031 70.730469 C 247.238281 71.523438 247.316406 72.320312 247.316406 73.128906 Z M 247.316406 73.128906 " fill-opacity="1" fill-rule="nonzero"/><path fill="#e60003" d="M 256.792969 120.886719 C 256.792969 121.691406 256.714844 122.492188 256.558594 123.28125 C 256.398438 124.074219 256.167969 124.84375 255.859375 125.585938 C 255.550781 126.332031 255.171875 127.039062 254.722656 127.710938 C 254.273438 128.382812 253.765625 129.003906 253.195312 129.574219 C 252.625 130.144531 252.003906 130.652344 251.332031 131.101562 C 250.664062 131.550781 249.953125 131.929688 249.210938 132.238281 C 248.464844 132.546875 247.695312 132.777344 246.90625 132.9375 C 246.113281 133.09375 245.3125 133.171875 244.507812 133.171875 C 243.699219 133.171875 242.902344 133.09375 242.109375 132.9375 C 241.320312 132.777344 240.550781 132.546875 239.804688 132.238281 C 239.0625 131.929688 238.351562 131.550781 237.683594 131.101562 C 237.011719 130.652344 236.390625 130.144531 235.820312 129.574219 C 235.25 129.003906 234.742188 128.382812 234.292969 127.710938 C 233.84375 127.039062 233.464844 126.332031 233.15625 125.585938 C 232.847656 124.84375 232.617188 124.074219 232.457031 123.28125 C 232.300781 122.492188 232.222656 121.691406 232.222656 120.886719 C 232.222656 120.078125 232.300781 119.28125 232.457031 118.488281 C 232.617188 117.699219 232.847656 116.929688 233.15625 116.183594 C 233.464844 115.4375 233.84375 114.730469 234.292969 114.0625 C 234.742188 113.390625 235.25 112.769531 235.820312 112.199219 C 236.390625 111.628906 237.011719 111.121094 237.683594 110.671875 C 238.351562 110.222656 239.0625 109.84375 239.804688 109.535156 C 240.550781 109.226562 241.320312 108.992188 242.109375 108.835938 C 242.902344 108.679688 243.699219 108.601562 244.507812 108.601562 C 245.3125 108.601562 246.113281 108.679688 246.90625 108.835938 C 247.695312 108.992188 248.464844 109.226562 249.210938 109.535156 C 249.953125 109.84375 250.664062 110.222656 251.332031 110.671875 C 252.003906 111.121094 252.625 111.628906 253.195312 112.199219 C 253.765625 112.769531 254.273438 113.390625 254.722656 114.0625 C 255.171875 114.730469 255.550781 115.4375 255.859375 116.183594 C 256.167969 116.929688 256.398438 117.699219 256.558594 118.488281 C 256.714844 119.28125 256.792969 120.078125 256.792969 120.886719 Z M 256.792969 120.886719 " fill-opacity="1" fill-rule="nonzero"/><path fill="#e60003" d="M 273.070312 167.144531 C 273.070312 167.953125 272.992188 168.75 272.835938 169.542969 C 272.679688 170.332031 272.445312 171.101562 272.136719 171.847656 C 271.828125 172.589844 271.449219 173.300781 271 173.96875 C 270.554688 174.640625 270.042969 175.261719 269.472656 175.832031 C 268.902344 176.402344 268.28125 176.910156 267.613281 177.359375 C 266.941406 177.808594 266.234375 178.1875 265.488281 178.496094 C 264.742188 178.804688 263.972656 179.035156 263.183594 179.195312 C 262.390625 179.351562 261.59375 179.429688 260.785156 179.429688 C 259.980469 179.429688 259.179688 179.351562 258.390625 179.195312 C 257.597656 179.035156 256.828125 178.804688 256.085938 178.496094 C 255.339844 178.1875 254.632812 177.808594 253.960938 177.359375 C 253.289062 176.910156 252.667969 176.402344 252.097656 175.832031 C 251.527344 175.261719 251.019531 174.640625 250.570312 173.96875 C 250.121094 173.300781 249.746094 172.589844 249.433594 171.847656 C 249.125 171.101562 248.894531 170.332031 248.738281 169.542969 C 248.578125 168.75 248.5 167.953125 248.5 167.144531 C 248.5 166.339844 248.578125 165.539062 248.738281 164.746094 C 248.894531 163.957031 249.125 163.1875 249.433594 162.441406 C 249.746094 161.699219 250.121094 160.988281 250.570312 160.320312 C 251.019531 159.648438 251.527344 159.027344 252.097656 158.457031 C 252.667969 157.886719 253.289062 157.378906 253.960938 156.929688 C 254.632812 156.480469 255.339844 156.101562 256.085938 155.792969 C 256.828125 155.484375 257.597656 155.253906 258.390625 155.09375 C 259.179688 154.9375 259.980469 154.859375 260.785156 154.859375 C 261.59375 154.859375 262.390625 154.9375 263.183594 155.09375 C 263.972656 155.253906 264.742188 155.484375 265.488281 155.792969 C 266.234375 156.101562 266.941406 156.480469 267.613281 156.929688 C 268.28125 157.378906 268.902344 157.886719 269.472656 158.457031 C 270.042969 159.027344 270.554688 159.648438 271 160.320312 C 271.449219 160.988281 271.828125 161.699219 272.136719 162.441406 C 272.445312 163.1875 272.679688 163.957031 272.835938 164.746094 C 272.992188 165.539062 273.070312 166.339844 273.070312 167.144531 Z M 273.070312 167.144531 " fill-opacity="1" fill-rule="nonzero"/><path fill="#e60003" d="M 296.832031 209.820312 C 296.832031 210.625 296.753906 211.425781 296.597656 212.214844 C 296.4375 213.007812 296.207031 213.773438 295.898438 214.519531 C 295.589844 215.265625 295.210938 215.972656 294.761719 216.644531 C 294.3125 217.316406 293.804688 217.9375 293.234375 218.507812 C 292.664062 219.078125 292.042969 219.585938 291.371094 220.035156 C 290.703125 220.480469 289.992188 220.859375 289.246094 221.167969 C 288.503906 221.476562 287.734375 221.710938 286.941406 221.867188 C 286.152344 222.027344 285.351562 222.105469 284.546875 222.105469 C 283.738281 222.105469 282.941406 222.027344 282.148438 221.867188 C 281.359375 221.710938 280.589844 221.476562 279.84375 221.167969 C 279.101562 220.859375 278.390625 220.480469 277.722656 220.035156 C 277.050781 219.585938 276.429688 219.078125 275.859375 218.507812 C 275.289062 217.9375 274.78125 217.316406 274.332031 216.644531 C 273.882812 215.972656 273.503906 215.265625 273.195312 214.519531 C 272.886719 213.773438 272.652344 213.007812 272.496094 212.214844 C 272.339844 211.425781 272.261719 210.625 272.261719 209.820312 C 272.261719 209.011719 272.339844 208.214844 272.496094 207.421875 C 272.652344 206.632812 272.886719 205.863281 273.195312 205.117188 C 273.503906 204.371094 273.882812 203.664062 274.332031 202.992188 C 274.78125 202.324219 275.289062 201.703125 275.859375 201.132812 C 276.429688 200.5625 277.050781 200.050781 277.722656 199.605469 C 278.390625 199.15625 279.101562 198.777344 279.84375 198.46875 C 280.589844 198.160156 281.359375 197.925781 282.148438 197.769531 C 282.941406 197.613281 283.738281 197.535156 284.546875 197.535156 C 285.351562 197.535156 286.152344 197.613281 286.941406 197.769531 C 287.734375 197.925781 288.503906 198.160156 289.246094 198.46875 C 289.992188 198.777344 290.703125 199.15625 291.371094 199.605469 C 292.042969 200.050781 292.664062 200.5625 293.234375 201.132812 C 293.804688 201.703125 294.3125 202.324219 294.761719 202.992188 C 295.210938 203.664062 295.589844 204.371094 295.898438 205.117188 C 296.207031 205.863281 296.4375 206.632812 296.597656 207.421875 C 296.753906 208.214844 296.832031 209.011719 296.832031 209.820312 Z M 296.832031 209.820312 " fill-opacity="1" fill-rule="nonzero"/><path fill="#e60003" d="M 328.941406 246.40625 C 328.941406 247.214844 328.863281 248.011719 328.707031 248.804688 C 328.546875 249.59375 328.316406 250.363281 328.007812 251.109375 C 327.699219 251.855469 327.320312 252.5625 326.871094 253.234375 C 326.421875 253.902344 325.914062 254.523438 325.34375 255.09375 C 324.773438 255.664062 324.152344 256.175781 323.480469 256.621094 C 322.8125 257.070312 322.101562 257.449219 321.359375 257.757812 C 320.613281 258.066406 319.84375 258.300781 319.054688 258.457031 C 318.261719 258.613281 317.464844 258.691406 316.65625 258.691406 C 315.851562 258.691406 315.050781 258.613281 314.257812 258.457031 C 313.46875 258.300781 312.699219 258.066406 311.953125 257.757812 C 311.210938 257.449219 310.5 257.070312 309.832031 256.621094 C 309.160156 256.175781 308.539062 255.664062 307.96875 255.09375 C 307.398438 254.523438 306.890625 253.902344 306.441406 253.234375 C 305.992188 252.5625 305.613281 251.855469 305.304688 251.109375 C 304.996094 250.363281 304.765625 249.59375 304.605469 248.804688 C 304.449219 248.011719 304.371094 247.214844 304.371094 246.40625 C 304.371094 245.601562 304.449219 244.800781 304.605469 244.011719 C 304.765625 243.21875 304.996094 242.449219 305.304688 241.707031 C 305.613281 240.960938 305.992188 240.253906 306.441406 239.582031 C 306.890625 238.910156 307.398438 238.289062 307.96875 237.71875 C 308.539062 237.148438 309.160156 236.640625 309.832031 236.191406 C 310.5 235.742188 311.210938 235.367188 311.953125 235.054688 C 312.699219 234.746094 313.46875 234.515625 314.257812 234.359375 C 315.050781 234.199219 315.851562 234.121094 316.65625 234.121094 C 317.464844 234.121094 318.261719 234.199219 319.054688 234.359375 C 319.84375 234.515625 320.613281 234.746094 321.359375 235.054688 C 322.101562 235.367188 322.8125 235.742188 323.480469 236.191406 C 324.152344 236.640625 324.773438 237.148438 325.34375 237.71875 C 325.914062 238.289062 326.421875 238.910156 326.871094 239.582031 C 327.320312 240.253906 327.699219 240.960938 328.007812 241.707031 C 328.316406 242.449219 328.546875 243.21875 328.707031 244.011719 C 328.863281 244.800781 328.941406 245.601562 328.941406 246.40625 Z M 328.941406 246.40625 " fill-opacity="1" fill-rule="nonzero"/><path fill="#e60003" d="M 369.859375 272.890625 C 369.859375 273.695312 369.78125 274.496094 369.625 275.285156 C 369.46875 276.078125 369.234375 276.84375 368.925781 277.589844 C 368.617188 278.335938 368.238281 279.042969 367.789062 279.714844 C 367.34375 280.386719 366.832031 281.003906 366.261719 281.574219 C 365.691406 282.144531 365.070312 282.65625 364.402344 283.105469 C 363.730469 283.550781 363.023438 283.929688 362.277344 284.238281 C 361.53125 284.546875 360.761719 284.78125 359.972656 284.9375 C 359.179688 285.097656 358.382812 285.175781 357.574219 285.175781 C 356.769531 285.175781 355.96875 285.097656 355.179688 284.9375 C 354.386719 284.78125 353.617188 284.546875 352.875 284.238281 C 352.128906 283.929688 351.421875 283.550781 350.75 283.105469 C 350.078125 282.65625 349.457031 282.144531 348.886719 281.574219 C 348.316406 281.003906 347.808594 280.386719 347.359375 279.714844 C 346.910156 279.042969 346.535156 278.335938 346.226562 277.589844 C 345.917969 276.84375 345.683594 276.078125 345.527344 275.285156 C 345.367188 274.496094 345.289062 273.695312 345.289062 272.890625 C 345.289062 272.082031 345.367188 271.28125 345.527344 270.492188 C 345.683594 269.699219 345.917969 268.933594 346.226562 268.1875 C 346.535156 267.441406 346.910156 266.734375 347.359375 266.0625 C 347.808594 265.390625 348.316406 264.773438 348.886719 264.203125 C 349.457031 263.632812 350.078125 263.121094 350.75 262.671875 C 351.421875 262.226562 352.128906 261.847656 352.875 261.539062 C 353.617188 261.230469 354.386719 260.996094 355.179688 260.839844 C 355.96875 260.683594 356.769531 260.601562 357.574219 260.601562 C 358.382812 260.601562 359.179688 260.683594 359.972656 260.839844 C 360.761719 260.996094 361.53125 261.230469 362.277344 261.539062 C 363.023438 261.847656 363.730469 262.226562 364.402344 262.671875 C 365.070312 263.121094 365.691406 263.632812 366.261719 264.203125 C 366.832031 264.773438 367.34375 265.390625 367.789062 266.0625 C 368.238281 266.734375 368.617188 267.441406 368.925781 268.1875 C 369.234375 268.933594 369.46875 269.699219 369.625 270.492188 C 369.78125 271.28125 369.859375 272.082031 369.859375 272.890625 Z M 369.859375 272.890625 " fill-opacity="1" fill-rule="nonzero"/><path fill="#e60003" d="M 417.375 282.484375 C 417.375 283.292969 417.296875 284.089844 417.136719 284.882812 C 416.980469 285.671875 416.746094 286.441406 416.4375 287.1875 C 416.128906 287.933594 415.75 288.640625 415.304688 289.3125 C 414.855469 289.980469 414.347656 290.601562 413.777344 291.171875 C 413.207031 291.742188 412.585938 292.253906 411.914062 292.699219 C 411.242188 293.148438 410.535156 293.527344 409.789062 293.835938 C 409.042969 294.144531 408.277344 294.378906 407.484375 294.535156 C 406.695312 294.691406 405.894531 294.769531 405.089844 294.769531 C 404.28125 294.769531 403.484375 294.691406 402.691406 294.535156 C 401.902344 294.378906 401.132812 294.144531 400.386719 293.835938 C 399.640625 293.527344 398.933594 293.148438 398.261719 292.699219 C 397.59375 292.253906 396.972656 291.742188 396.402344 291.171875 C 395.832031 290.601562 395.320312 289.980469 394.875 289.3125 C 394.425781 288.640625 394.046875 287.933594 393.738281 287.1875 C 393.429688 286.441406 393.195312 285.671875 393.039062 284.882812 C 392.882812 284.089844 392.804688 283.292969 392.804688 282.484375 C 392.804688 281.679688 392.882812 280.878906 393.039062 280.089844 C 393.195312 279.296875 393.429688 278.527344 393.738281 277.785156 C 394.046875 277.039062 394.425781 276.332031 394.875 275.660156 C 395.320312 274.988281 395.832031 274.367188 396.402344 273.796875 C 396.972656 273.226562 397.59375 272.71875 398.261719 272.269531 C 398.933594 271.820312 399.640625 271.445312 400.386719 271.136719 C 401.132812 270.828125 401.902344 270.59375 402.691406 270.4375 C 403.484375 270.277344 404.28125 270.199219 405.089844 270.199219 C 405.894531 270.199219 406.695312 270.277344 407.484375 270.4375 C 408.277344 270.59375 409.042969 270.828125 409.789062 271.136719 C 410.535156 271.445312 411.242188 271.820312 411.914062 272.269531 C 412.585938 272.71875 413.207031 273.226562 413.777344 273.796875 C 414.347656 274.367188 414.855469 274.988281 415.304688 275.660156 C 415.75 276.332031 416.128906 277.039062 416.4375 277.785156 C 416.746094 278.527344 416.980469 279.296875 417.136719 280.089844 C 417.296875 280.878906 417.375 281.679688 417.375 282.484375 Z M 417.375 282.484375 " fill-opacity="1" fill-rule="nonzero"/><g clip-path="url(#857e835e5c)"><path fill="#e60003" d="M 590.339844 24.144531 C 590.339844 24.953125 590.261719 25.75 590.105469 26.542969 C 589.945312 27.332031 589.714844 28.101562 589.40625 28.847656 C 589.097656 29.59375 588.71875 30.300781 588.269531 30.972656 C 587.820312 31.640625 587.3125 32.261719 586.742188 32.832031 C 586.171875 33.402344 585.550781 33.914062 584.878906 34.359375 C 584.210938 34.808594 583.5 35.1875 582.757812 35.496094 C 582.011719 35.804688 581.242188 36.039062 580.453125 36.195312 C 579.660156 36.351562 578.863281 36.429688 578.054688 36.429688 C 577.25 36.429688 576.449219 36.351562 575.65625 36.195312 C 574.867188 36.039062 574.097656 35.804688 573.351562 35.496094 C 572.609375 35.1875 571.898438 34.808594 571.230469 34.359375 C 570.558594 33.914062 569.9375 33.402344 569.367188 32.832031 C 568.796875 32.261719 568.289062 31.640625 567.839844 30.972656 C 567.390625 30.300781 567.011719 29.59375 566.703125 28.847656 C 566.394531 28.101562 566.164062 27.332031 566.003906 26.542969 C 565.847656 25.75 565.769531 24.953125 565.769531 24.144531 C 565.769531 23.339844 565.847656 22.539062 566.003906 21.75 C 566.164062 20.957031 566.394531 20.191406 566.703125 19.445312 C 567.011719 18.699219 567.390625 17.992188 567.839844 17.320312 C 568.289062 16.648438 568.796875 16.027344 569.367188 15.457031 C 569.9375 14.886719 570.558594 14.378906 571.230469 13.929688 C 571.898438 13.484375 572.609375 13.105469 573.351562 12.796875 C 574.097656 12.488281 574.867188 12.253906 575.65625 12.097656 C 576.449219 11.9375 577.25 11.859375 578.054688 11.859375 C 578.863281 11.859375 579.660156 11.9375 580.453125 12.097656 C 581.242188 12.253906 582.011719 12.488281 582.757812 12.796875 C 583.5 13.105469 584.210938 13.484375 584.878906 13.929688 C 585.550781 14.378906 586.171875 14.886719 586.742188 15.457031 C 587.3125 16.027344 587.820312 16.648438 588.269531 17.320312 C 588.71875 17.992188 589.097656 18.699219 589.40625 19.445312 C 589.714844 20.191406 589.945312 20.957031 590.105469 21.75 C 590.261719 22.539062 590.339844 23.339844 590.339844 24.144531 Z M 590.339844 24.144531 " fill-opacity="1" fill-rule="nonzero"/></g><path fill="#e60003" d="M 587.246094 73.128906 C 587.246094 73.933594 587.167969 74.734375 587.011719 75.523438 C 586.851562 76.316406 586.621094 77.082031 586.3125 77.828125 C 586.003906 78.574219 585.625 79.28125 585.175781 79.953125 C 584.726562 80.625 584.21875 81.242188 583.648438 81.816406 C 583.078125 82.386719 582.457031 82.894531 581.785156 83.34375 C 581.117188 83.789062 580.40625 84.167969 579.660156 84.476562 C 578.917969 84.785156 578.148438 85.019531 577.359375 85.175781 C 576.566406 85.335938 575.765625 85.414062 574.960938 85.414062 C 574.152344 85.414062 573.355469 85.335938 572.5625 85.175781 C 571.773438 85.019531 571.003906 84.785156 570.257812 84.476562 C 569.515625 84.167969 568.804688 83.789062 568.136719 83.34375 C 567.464844 82.894531 566.84375 82.386719 566.273438 81.816406 C 565.703125 81.242188 565.195312 80.625 564.746094 79.953125 C 564.296875 79.28125 563.917969 78.574219 563.609375 77.828125 C 563.300781 77.082031 563.066406 76.316406 562.910156 75.523438 C 562.753906 74.734375 562.675781 73.933594 562.675781 73.128906 C 562.675781 72.320312 562.753906 71.523438 562.910156 70.730469 C 563.066406 69.9375 563.300781 69.171875 563.609375 68.425781 C 563.917969 67.679688 564.296875 66.972656 564.746094 66.300781 C 565.195312 65.632812 565.703125 65.011719 566.273438 64.441406 C 566.84375 63.871094 567.464844 63.359375 568.136719 62.914062 C 568.804688 62.464844 569.515625 62.085938 570.257812 61.777344 C 571.003906 61.46875 571.773438 61.234375 572.5625 61.078125 C 573.355469 60.921875 574.152344 60.839844 574.960938 60.839844 C 575.765625 60.839844 576.566406 60.921875 577.359375 61.078125 C 578.148438 61.234375 578.917969 61.46875 579.660156 61.777344 C 580.40625 62.085938 581.117188 62.464844 581.785156 62.914062 C 582.457031 63.359375 583.078125 63.871094 583.648438 64.441406 C 584.21875 65.011719 584.726562 65.632812 585.175781 66.300781 C 585.625 66.972656 586.003906 67.679688 586.3125 68.425781 C 586.621094 69.171875 586.851562 69.9375 587.011719 70.730469 C 587.167969 71.523438 587.246094 72.320312 587.246094 73.128906 Z M 587.246094 73.128906 " fill-opacity="1" fill-rule="nonzero"/><path fill="#e60003" d="M 577.769531 120.886719 C 577.769531 121.691406 577.691406 122.492188 577.535156 123.28125 C 577.378906 124.074219 577.144531 124.84375 576.835938 125.585938 C 576.527344 126.332031 576.148438 127.039062 575.699219 127.710938 C 575.253906 128.382812 574.742188 129.003906 574.171875 129.574219 C 573.601562 130.144531 572.980469 130.652344 572.3125 131.101562 C 571.640625 131.550781 570.933594 131.929688 570.1875 132.238281 C 569.441406 132.546875 568.671875 132.777344 567.882812 132.9375 C 567.089844 133.09375 566.292969 133.171875 565.484375 133.171875 C 564.679688 133.171875 563.878906 133.09375 563.089844 132.9375 C 562.296875 132.777344 561.527344 132.546875 560.785156 132.238281 C 560.039062 131.929688 559.332031 131.550781 558.660156 131.101562 C 557.988281 130.652344 557.367188 130.144531 556.796875 129.574219 C 556.226562 129.003906 555.71875 128.382812 555.269531 127.710938 C 554.820312 127.039062 554.445312 126.332031 554.136719 125.585938 C 553.824219 124.84375 553.59375 124.074219 553.4375 123.28125 C 553.277344 122.492188 553.199219 121.691406 553.199219 120.886719 C 553.199219 120.078125 553.277344 119.28125 553.4375 118.488281 C 553.59375 117.699219 553.824219 116.929688 554.136719 116.183594 C 554.445312 115.4375 554.820312 114.730469 555.269531 114.0625 C 555.71875 113.390625 556.226562 112.769531 556.796875 112.199219 C 557.367188 111.628906 557.988281 111.121094 558.660156 110.671875 C 559.332031 110.222656 560.039062 109.84375 560.785156 109.535156 C 561.527344 109.226562 562.296875 108.992188 563.089844 108.835938 C 563.878906 108.679688 564.679688 108.601562 565.484375 108.601562 C 566.292969 108.601562 567.089844 108.679688 567.882812 108.835938 C 568.671875 108.992188 569.441406 109.226562 570.1875 109.535156 C 570.933594 109.84375 571.640625 110.222656 572.3125 110.671875 C 572.980469 111.121094 573.601562 111.628906 574.171875 112.199219 C 574.742188 112.769531 575.253906 113.390625 575.699219 114.0625 C 576.148438 114.730469 576.527344 115.4375 576.835938 116.183594 C 577.144531 116.929688 577.378906 117.699219 577.535156 118.488281 C 577.691406 119.28125 577.769531 120.078125 577.769531 120.886719 Z M 577.769531 120.886719 " fill-opacity="1" fill-rule="nonzero"/><path fill="#e60003" d="M 561.492188 167.144531 C 561.492188 167.953125 561.414062 168.75 561.257812 169.542969 C 561.097656 170.332031 560.867188 171.101562 560.558594 171.847656 C 560.25 172.589844 559.871094 173.300781 559.421875 173.96875 C 558.972656 174.640625 558.464844 175.261719 557.894531 175.832031 C 557.324219 176.402344 556.703125 176.910156 556.03125 177.359375 C 555.363281 177.808594 554.652344 178.1875 553.910156 178.496094 C 553.164062 178.804688 552.394531 179.035156 551.605469 179.195312 C 550.8125 179.351562 550.011719 179.429688 549.207031 179.429688 C 548.398438 179.429688 547.601562 179.351562 546.808594 179.195312 C 546.019531 179.035156 545.25 178.804688 544.503906 178.496094 C 543.761719 178.1875 543.050781 177.808594 542.382812 177.359375 C 541.710938 176.910156 541.089844 176.402344 540.519531 175.832031 C 539.949219 175.261719 539.441406 174.640625 538.992188 173.96875 C 538.542969 173.300781 538.164062 172.589844 537.855469 171.847656 C 537.546875 171.101562 537.316406 170.332031 537.15625 169.542969 C 537 168.75 536.921875 167.953125 536.921875 167.144531 C 536.921875 166.339844 537 165.539062 537.15625 164.746094 C 537.316406 163.957031 537.546875 163.1875 537.855469 162.441406 C 538.164062 161.699219 538.542969 160.988281 538.992188 160.320312 C 539.441406 159.648438 539.949219 159.027344 540.519531 158.457031 C 541.089844 157.886719 541.710938 157.378906 542.382812 156.929688 C 543.050781 156.480469 543.761719 156.101562 544.503906 155.792969 C 545.25 155.484375 546.019531 155.253906 546.808594 155.09375 C 547.601562 154.9375 548.398438 154.859375 549.207031 154.859375 C 550.011719 154.859375 550.8125 154.9375 551.605469 155.09375 C 552.394531 155.253906 553.164062 155.484375 553.910156 155.792969 C 554.652344 156.101562 555.363281 156.480469 556.03125 156.929688 C 556.703125 157.378906 557.324219 157.886719 557.894531 158.457031 C 558.464844 159.027344 558.972656 159.648438 559.421875 160.320312 C 559.871094 160.988281 560.25 161.699219 560.558594 162.441406 C 560.867188 163.1875 561.097656 163.957031 561.257812 164.746094 C 561.414062 165.539062 561.492188 166.339844 561.492188 167.144531 Z M 561.492188 167.144531 " fill-opacity="1" fill-rule="nonzero"/></svg>