<svg xmlns="http://www.w3.org/2000/svg" xmlns:xlink="http://www.w3.org/1999/xlink" width="1080" zoomAndPan="magnify" viewBox="0 0 810 809.999993" height="1080" preserveAspectRatio="xMidYMid meet" version="1.0"><path fill="#e60003" d="M 350.726562 38.917969 C 329.78125 39.546875 309.542969 50.453125 298.011719 69.519531 L 293.9375 76.277344 C 288.121094 85.882812 277.867188 91.796875 266.660156 92.027344 L 266.628906 92.027344 L 258.722656 92.210938 C 224.796875 92.917969 197.160156 120.53125 196.46875 154.460938 L 196.289062 162.367188 C 196.058594 173.578125 190.125 183.851562 180.535156 189.648438 L 173.777344 193.75 C 144.746094 211.324219 134.609375 249.078125 150.964844 278.816406 L 150.992188 278.816406 L 154.796875 285.757812 C 160.207031 295.578125 160.207031 307.441406 154.796875 317.261719 L 150.992188 324.171875 C 134.644531 353.90625 144.757812 391.667969 173.808594 409.238281 L 180.566406 413.3125 C 190.171875 419.128906 196.085938 429.378906 196.316406 440.589844 L 196.316406 440.621094 L 196.5 448.527344 C 197.070312 475.96875 215.367188 499.03125 240.253906 507.308594 L 159.988281 681.242188 C 159.714844 681.828125 159.480469 682.429688 159.285156 683.046875 C 159.089844 683.664062 158.933594 684.289062 158.816406 684.921875 C 158.699219 685.558594 158.621094 686.199219 158.585938 686.84375 C 158.546875 687.488281 158.550781 688.132812 158.59375 688.777344 C 158.636719 689.421875 158.722656 690.0625 158.847656 690.695312 C 158.96875 691.332031 159.132812 691.953125 159.335938 692.566406 C 159.539062 693.179688 159.777344 693.78125 160.054688 694.363281 C 160.332031 694.945312 160.644531 695.511719 160.992188 696.054688 C 161.34375 696.597656 161.722656 697.121094 162.136719 697.617188 C 162.550781 698.113281 162.992188 698.582031 163.464844 699.023438 C 163.9375 699.464844 164.433594 699.875 164.957031 700.25 C 165.480469 700.628906 166.027344 700.976562 166.59375 701.285156 C 167.160156 701.59375 167.746094 701.867188 168.347656 702.105469 C 168.949219 702.34375 169.5625 702.539062 170.1875 702.699219 C 170.8125 702.859375 171.445312 702.980469 172.085938 703.0625 C 172.730469 703.140625 173.371094 703.179688 174.019531 703.179688 L 274.746094 703.179688 L 331.898438 774.636719 C 332.3125 775.15625 332.757812 775.644531 333.234375 776.101562 C 333.710938 776.5625 334.214844 776.992188 334.746094 777.386719 C 335.277344 777.78125 335.832031 778.140625 336.410156 778.464844 C 336.988281 778.785156 337.585938 779.074219 338.199219 779.320312 C 338.816406 779.566406 339.441406 779.773438 340.082031 779.9375 C 340.726562 780.105469 341.375 780.230469 342.03125 780.3125 C 342.6875 780.394531 343.347656 780.4375 344.011719 780.433594 C 344.671875 780.429688 345.332031 780.386719 345.988281 780.300781 C 346.644531 780.214844 347.292969 780.085938 347.933594 779.914062 C 348.574219 779.742188 349.199219 779.535156 349.8125 779.28125 C 350.425781 779.03125 351.019531 778.742188 351.597656 778.414062 C 352.171875 778.089844 352.726562 777.726562 353.253906 777.328125 C 353.785156 776.929688 354.285156 776.5 354.757812 776.035156 C 355.234375 775.574219 355.675781 775.082031 356.085938 774.5625 C 356.496094 774.042969 356.871094 773.496094 357.210938 772.929688 C 357.554688 772.363281 357.855469 771.773438 358.121094 771.167969 L 406.25 661.175781 L 454.382812 771.167969 C 454.648438 771.773438 454.949219 772.363281 455.292969 772.929688 C 455.632812 773.496094 456.007812 774.042969 456.417969 774.5625 C 456.828125 775.082031 457.269531 775.574219 457.746094 776.035156 C 458.21875 776.5 458.71875 776.929688 459.25 777.328125 C 459.777344 777.726562 460.332031 778.089844 460.90625 778.414062 C 461.484375 778.742188 462.078125 779.03125 462.691406 779.28125 C 463.304688 779.535156 463.929688 779.742188 464.570312 779.914062 C 465.210938 780.085938 465.859375 780.214844 466.515625 780.300781 C 467.171875 780.386719 467.832031 780.429688 468.492188 780.433594 C 469.15625 780.4375 469.816406 780.394531 470.472656 780.3125 C 471.128906 780.230469 471.777344 780.105469 472.421875 779.9375 C 473.0625 779.773438 473.6875 779.566406 474.304688 779.320312 C 474.917969 779.074219 475.515625 778.785156 476.09375 778.464844 C 476.671875 778.140625 477.226562 777.78125 477.757812 777.386719 C 478.289062 776.992188 478.792969 776.5625 479.269531 776.101562 C 479.746094 775.644531 480.191406 775.15625 480.605469 774.636719 L 537.757812 703.179688 L 638.484375 703.179688 C 639.132812 703.179688 639.773438 703.140625 640.417969 703.0625 C 641.058594 702.980469 641.691406 702.859375 642.316406 702.699219 C 642.941406 702.539062 643.554688 702.34375 644.15625 702.105469 C 644.757812 701.867188 645.34375 701.59375 645.910156 701.285156 C 646.476562 700.976562 647.023438 700.628906 647.546875 700.25 C 648.070312 699.875 648.566406 699.464844 649.039062 699.023438 C 649.511719 698.582031 649.953125 698.113281 650.367188 697.617188 C 650.78125 697.121094 651.160156 696.597656 651.507812 696.054688 C 651.859375 695.511719 652.171875 694.945312 652.449219 694.363281 C 652.726562 693.78125 652.964844 693.179688 653.167969 692.566406 C 653.371094 691.953125 653.53125 691.332031 653.65625 690.695312 C 653.78125 690.0625 653.863281 689.421875 653.910156 688.777344 C 653.953125 688.132812 653.957031 687.488281 653.917969 686.84375 C 653.882812 686.199219 653.804688 685.558594 653.6875 684.921875 C 653.570312 684.289062 653.414062 683.664062 653.21875 683.046875 C 653.023438 682.429688 652.789062 681.828125 652.515625 681.242188 L 572.128906 507.039062 C 596.597656 498.523438 614.503906 475.667969 615.070312 448.527344 L 615.070312 448.496094 L 615.25 440.621094 L 615.25 440.589844 C 615.480469 429.378906 621.414062 419.109375 631 413.3125 L 637.792969 409.207031 C 666.820312 391.636719 676.925781 353.910156 660.574219 324.171875 L 660.542969 324.140625 L 656.679688 317.171875 C 651.304688 307.359375 651.3125 295.53125 656.710938 285.726562 L 660.542969 278.816406 L 660.542969 278.789062 C 676.886719 249.066406 666.78125 211.332031 637.761719 193.75 L 637.730469 193.722656 L 630.972656 189.648438 C 621.367188 183.832031 615.449219 173.578125 615.21875 162.367188 L 615.21875 162.339844 L 615.039062 154.460938 L 615.039062 154.433594 C 614.332031 120.507812 586.714844 92.871094 552.785156 92.179688 L 544.878906 92 C 533.667969 91.769531 523.398438 85.832031 517.601562 76.246094 L 513.496094 69.488281 C 495.925781 40.4375 458.164062 30.324219 428.429688 46.675781 L 428.429688 46.703125 L 421.492188 50.507812 C 411.667969 55.917969 399.808594 55.917969 389.988281 50.507812 L 383.078125 46.703125 C 375.644531 42.617188 367.714844 40.179688 359.71875 39.28125 C 356.722656 38.945312 353.722656 38.828125 350.726562 38.917969 Z M 349.945312 69.730469 C 356.054688 69.28125 362.386719 70.574219 368.199219 73.773438 L 375.082031 77.574219 C 394.148438 88.078125 417.359375 88.078125 436.429688 77.574219 L 443.339844 73.742188 L 443.339844 73.773438 C 458.839844 65.246094 477.90625 70.34375 487.0625 85.480469 L 491.167969 92.238281 C 502.425781 110.84375 522.476562 122.441406 544.214844 122.898438 L 552.152344 123.078125 C 569.847656 123.441406 583.808594 137.371094 584.167969 155.066406 L 584.167969 155.097656 L 584.320312 163.003906 C 584.769531 184.761719 596.371094 204.8125 614.980469 216.082031 L 621.738281 220.1875 C 636.867188 229.335938 641.980469 248.382812 633.476562 263.878906 L 629.644531 270.820312 C 619.140625 289.890625 619.140625 313.070312 629.644531 332.136719 L 629.675781 332.167969 L 629.675781 332.199219 L 633.507812 339.046875 C 642.027344 354.546875 636.894531 373.617188 621.769531 382.773438 L 615.007812 386.878906 C 596.382812 398.136719 584.796875 418.195312 584.351562 439.957031 L 584.199219 447.863281 L 584.199219 447.894531 C 583.839844 465.585938 569.875 479.519531 552.183594 479.878906 L 544.246094 480.0625 C 522.496094 480.519531 502.460938 492.089844 491.195312 510.6875 L 491.195312 510.71875 L 487.09375 517.480469 C 477.9375 532.617188 458.871094 537.710938 443.367188 529.1875 L 443.367188 529.21875 L 436.457031 525.386719 C 417.386719 514.882812 394.179688 514.882812 375.109375 525.386719 L 368.199219 529.21875 L 368.199219 529.1875 C 352.703125 537.707031 333.632812 532.605469 324.476562 517.480469 L 320.371094 510.71875 C 309.113281 492.113281 289.0625 480.519531 267.320312 480.0625 L 267.292969 480.0625 L 259.386719 479.878906 C 241.691406 479.519531 227.730469 465.585938 227.371094 447.894531 L 227.371094 447.863281 L 227.21875 439.957031 C 226.769531 418.195312 215.167969 398.148438 196.558594 386.878906 L 189.800781 382.773438 C 174.660156 373.613281 169.539062 354.550781 178.0625 339.046875 L 181.863281 332.167969 L 181.863281 332.136719 C 192.351562 313.074219 192.363281 289.882812 181.863281 270.820312 L 178.03125 263.910156 L 178.0625 263.910156 C 169.539062 248.414062 174.644531 229.34375 189.769531 220.1875 L 196.53125 216.082031 C 215.132812 204.824219 226.730469 184.773438 227.1875 163.03125 L 227.1875 163.003906 L 227.371094 155.097656 C 227.730469 137.402344 241.660156 123.441406 259.355469 123.078125 L 259.386719 123.078125 L 267.292969 122.929688 C 289.050781 122.480469 309.101562 110.878906 320.371094 92.269531 L 324.476562 85.511719 C 329.054688 77.941406 336.089844 72.855469 343.9375 70.753906 C 345.902344 70.230469 347.90625 69.878906 349.945312 69.730469 Z M 518.296875 194.65625 L 390.984375 393.667969 L 288.65625 301.570312 L 267.957031 324.5625 L 397.378906 441.011719 L 544.304688 211.3125 Z M 540.203125 511.65625 L 614.316406 672.28125 L 530.335938 672.28125 C 529.175781 672.28125 528.03125 672.410156 526.902344 672.664062 C 525.773438 672.921875 524.683594 673.300781 523.640625 673.800781 C 522.59375 674.304688 521.621094 674.914062 520.710938 675.636719 C 519.804688 676.359375 518.988281 677.171875 518.265625 678.074219 L 472.425781 735.347656 L 423.121094 622.582031 L 449.132812 563.136719 C 473.964844 567.011719 499.851562 556.078125 513.527344 533.472656 L 517.632812 526.710938 C 522.613281 518.488281 530.902344 513.21875 540.203125 511.65625 Z M 272.242188 511.777344 C 281.1875 513.53125 289.128906 518.761719 293.9375 526.710938 L 298.042969 533.472656 C 315.613281 562.503906 353.367188 572.636719 383.105469 556.285156 L 383.105469 556.253906 L 390.046875 552.453125 C 399.476562 547.261719 410.734375 547.195312 420.3125 551.96875 L 340.078125 735.347656 L 294.238281 678.074219 C 293.515625 677.171875 292.699219 676.359375 291.792969 675.636719 C 290.882812 674.914062 289.910156 674.304688 288.863281 673.800781 C 287.820312 673.300781 286.730469 672.921875 285.601562 672.664062 C 284.472656 672.410156 283.328125 672.28125 282.167969 672.28125 L 198.1875 672.28125 Z M 272.242188 511.777344 " fill-opacity="1" fill-rule="nonzero"/></svg>