<svg xmlns="http://www.w3.org/2000/svg" xmlns:xlink="http://www.w3.org/1999/xlink" width="1080" zoomAndPan="magnify" viewBox="0 0 810 809.999993" height="1080" preserveAspectRatio="xMidYMid meet" version="1.0"><path fill="#e60003" d="M 448.460938 673.402344 L 556.472656 678.382812 C 567.050781 678.917969 571.671875 683.417969 575.917969 690.441406 C 582 700.570312 581.265625 714.398438 575.859375 724.941406 C 570.472656 735.417969 560.71875 741.195312 552.382812 741.195312 L 442.792969 741.195312 C 435.082031 739.042969 428.167969 732.691406 423.816406 724.253906 C 418.414062 713.777344 418.472656 700.347656 423.878906 689.820312 C 429.261719 679.339844 438.707031 673.460938 448.460938 673.402344 Z M 445.84375 585.332031 L 572.617188 591.773438 C 583.097656 592.355469 592.378906 597.761719 597.683594 608.140625 C 603.066406 618.621094 603.066406 632.039062 597.621094 642.628906 C 592.214844 653.175781 582.773438 658.984375 572.988281 659.046875 L 449.085938 653.21875 C 438.605469 652.746094 429.261719 647.25 423.980469 636.921875 C 418.222656 625.644531 416.679688 611.269531 421.625 601.738281 C 427.070312 591.046875 436.664062 584.859375 445.84375 585.332031 Z M 583.308594 504.386719 C 593.121094 504.386719 602.492188 510.257812 607.898438 520.734375 C 613.246094 531.234375 613.246094 544.703125 607.777344 555.242188 C 602.542969 565.417969 591.632812 573.433594 582.039062 572.910156 L 484.898438 567.351562 C 495.914062 558.382812 503.242188 545.648438 501.671875 531.960938 L 498.589844 504.527344 Z M 596.675781 420.808594 C 606.488281 420.808594 615.863281 426.585938 621.265625 437.066406 C 626.613281 447.59375 626.613281 461.023438 621.207031 471.550781 C 617.804688 478.113281 613.285156 484.253906 603.800781 484.253906 L 496.335938 484.394531 L 489.199219 420.96875 Z M 478.398438 39.035156 C 445.679688 38.5625 411.457031 41.753906 378.941406 48.144531 C 326.929688 58.421875 279.4375 76.710938 249.8125 103.941406 C 247.707031 105.875 246.511719 108.542969 246.511719 111.371094 C 246.511719 221.324219 262.273438 278.257812 295.695312 360.46875 C 300.617188 373.316406 319.902344 365.453125 314.355469 352.820312 C 282.066406 273.335938 267.800781 220.488281 267.175781 117.199219 C 292.484375 95.335938 334.75 77.519531 382.886719 68.023438 C 429.59375 58.753906 479.765625 58.121094 522.609375 63.988281 C 501.316406 170.257812 511.496094 326.699219 528.425781 400.734375 L 486.902344 400.847656 L 485.957031 392.1875 C 484.285156 377.410156 478.78125 364.980469 469.023438 358.578125 C 457.863281 351.351562 447.886719 349.832031 436.5625 351.925781 L 335.003906 370.648438 C 308.539062 375.519531 292.964844 387.589844 279.496094 403.050781 L 230.152344 459.875 C 228.683594 455.164062 227.164062 450.390625 225.492188 445.621094 C 224.082031 441.632812 220.246094 438.90625 216 438.96875 L 121.164062 438.96875 C 107.414062 438.96875 106.75 459.101562 121.164062 459.101562 L 207.613281 459.101562 C 240.542969 557.558594 232.578125 642.847656 208.660156 750.398438 L 121.164062 750.398438 C 106.953125 749.550781 106.953125 771.304688 121.164062 770.53125 L 217.316406 770.53125 C 222.027344 770.53125 226.074219 767.277344 227.121094 762.71875 C 250.355469 660.847656 261.105469 576.28125 236.9375 483.167969 L 294.757812 416.269531 C 306.886719 402.324219 316.148438 394.675781 338.699219 390.527344 L 440.195312 371.765625 C 456.765625 368.714844 464.476562 381.941406 465.894531 394.515625 L 481.507812 532.089844 C 482.5625 541.632812 475.648438 551.074219 464.988281 556.480469 C 454.347656 561.875 440.136719 562.871094 430.070312 556.519531 C 418.492188 549.191406 414.65625 538.070312 412.664062 527.417969 L 398.039062 449.527344 C 397.253906 444.65625 393.003906 441.140625 388.074219 441.140625 C 381.679688 441.140625 376.910156 447.011719 378.21875 453.25 L 399.769531 567.804688 C 404.269531 591.972656 376.125 628.523438 316.472656 619.234375 C 302.882812 616.777344 299.691406 637.382812 313.320312 639.164062 C 349.980469 644.863281 379.6875 634.96875 398.460938 618.289062 C 398.933594 628.09375 401.824219 637.746094 406.070312 646.132812 C 409.632812 653.105469 414.667969 658.824219 420.445312 663.234375 C 414.628906 667.792969 409.59375 673.664062 406.011719 680.636719 C 397.523438 697.148438 397.414062 717.007812 405.847656 733.535156 C 407.269531 736.265625 408.960938 738.820312 410.78125 741.246094 L 318.292969 741.195312 C 306.808594 741.246094 300.304688 738.519531 294.910156 734.230469 C 289.511719 729.871094 285.113281 723.371094 280.554688 715.507812 C 273.839844 703.871094 256.375 713.9375 263.089844 725.574219 C 267.960938 734.019531 273.519531 742.929688 282.335938 749.964844 C 291.132812 756.980469 303.132812 761.492188 318.292969 761.390625 L 552.496094 761.390625 C 569.488281 761.390625 586.78125 751.425781 593.855469 734.242188 C 603.136719 711.582031 599.988281 693.703125 590.496094 675.625 C 601.09375 671.214844 609.902344 662.820312 615.558594 651.867188 C 624.054688 635.359375 624.15625 615.480469 615.722656 598.980469 C 613.042969 593.835938 609.589844 589.386719 605.65625 585.613281 C 613.988281 580.832031 621.066406 573.605469 625.726562 564.523438 C 634.222656 548.015625 634.222656 528.082031 625.789062 511.636719 C 623.84375 507.808594 621.4375 504.289062 618.710938 501.148438 C 628.878906 496.476562 635.601562 487.667969 639.09375 480.851562 C 647.589844 464.324219 647.589844 444.402344 639.15625 427.945312 C 630.71875 411.4375 614.523438 400.636719 596.585938 400.636719 L 581.054688 400.683594 C 608.160156 329.125 651.828125 264.265625 697.699219 233.855469 C 702.160156 230.925781 703.578125 225 700.902344 220.398438 C 689.636719 200.839844 671.238281 188.035156 649.90625 187.84375 C 637.734375 187.683594 635.28125 204.988281 646.542969 206.40625 C 661.109375 208.226562 670.492188 214.054688 678.160156 223.597656 C 644.398438 248.019531 615.621094 284.671875 592.347656 327.089844 C 606.824219 244.929688 621.449219 179.699219 649.222656 129.800781 C 651.578125 125.492188 650.539062 120.097656 646.703125 116.996094 C 635.691406 108.191406 620.964844 101.746094 604.707031 98.597656 C 596.585938 97.027344 588.097656 96.292969 579.441406 96.503906 C 570.835938 96.714844 562.136719 97.933594 553.59375 100.21875 C 539.910156 103.265625 545.40625 123.871094 558.785156 119.683594 C 583.699219 113.03125 610.910156 121.253906 627.417969 131.683594 C 592.808594 199.832031 578.546875 286.664062 559.46875 400.746094 L 549.132812 400.746094 C 532.203125 331.378906 519.617188 158.269531 543.113281 56.078125 C 544.371094 50.429688 540.636719 44.851562 534.929688 43.917969 C 517.089844 40.847656 498.007812 39.285156 478.398438 39.035156 Z M 478.398438 39.035156 " fill-opacity="1" fill-rule="nonzero"/><path fill="#e60003" d="M 454.015625 84.109375 L 334.269531 106.761719 C 328.390625 107.917969 324.824219 113.886719 326.546875 119.605469 C 329.808594 130.304688 327.867188 141.832031 321.203125 150.800781 C 316.742188 156.828125 310.613281 161.230469 303.6875 163.433594 C 299.449219 164.800781 296.609375 168.839844 296.671875 173.246094 C 297.828125 225.261719 311.667969 284.75 333.886719 341.796875 C 338.605469 354.753906 357.953125 347.214844 352.71875 334.507812 C 331.742188 280.734375 319.117188 227.355469 317.488281 179.4375 C 324.726562 175.613281 332.425781 169.574219 337.410156 162.859375 C 345.382812 152.128906 348.984375 137.804688 348.050781 124.738281 L 438.0625 107.65625 C 435.132812 117.996094 435.542969 126.953125 438.90625 137.441406 C 443.214844 150.972656 454.105469 162.917969 466.277344 169.734375 C 461.457031 222.542969 464.859375 264.890625 470.9375 313.339844 C 472.628906 326.707031 492.699219 324.203125 491.03125 310.832031 C 484.898438 261.851562 481.910156 217.1875 487.042969 164.601562 C 487.515625 159.941406 484.738281 155.519531 480.339844 154.011719 C 469.738281 150.40625 461.566406 142.011719 458.164062 131.371094 C 454.800781 120.722656 456.695312 109.125 463.238281 100.074219 C 468.390625 93.03125 462.613281 82.492188 454.015625 84.109375 Z M 454.015625 84.109375 " fill-opacity="1" fill-rule="evenodd"/></svg>