<svg xmlns="http://www.w3.org/2000/svg" xmlns:xlink="http://www.w3.org/1999/xlink" width="1080" zoomAndPan="magnify" viewBox="0 0 810 809.999993" height="1080" preserveAspectRatio="xMidYMid meet" version="1.0"><defs><clipPath id="c3b52dc31f"><path d="M 164 74.277344 L 646 74.277344 L 646 729 L 164 729 Z M 164 74.277344 " clip-rule="nonzero"/></clipPath></defs><path fill="#e60003" d="M 444.324219 230.882812 C 441.5625 230.195312 438.804688 231.574219 436.734375 233.644531 C 429.835938 244.683594 416.726562 251.582031 403.621094 251.582031 C 391.203125 250.890625 379.472656 244.683594 372.574219 233.644531 C 371.195312 230.882812 367.746094 230.195312 364.984375 230.882812 C 346.359375 235.023438 310.484375 246.0625 304.964844 264.691406 C 299.445312 282.628906 269.089844 435.09375 262.191406 470.28125 C 261.5 474.417969 264.261719 477.867188 268.398438 478.558594 L 300.136719 483.386719 C 304.273438 484.078125 307.722656 481.316406 308.414062 477.867188 L 337.390625 327.46875 C 337.390625 326.089844 339.460938 326.089844 339.460938 327.46875 C 339.460938 358.515625 340.839844 455.792969 339.460938 484.078125 C 339.460938 487.527344 341.527344 490.285156 344.976562 490.976562 C 376.023438 497.1875 433.976562 497.1875 464.332031 490.976562 C 467.78125 490.285156 469.851562 487.527344 469.851562 484.078125 C 468.46875 456.480469 469.160156 358.515625 469.851562 327.46875 C 469.851562 326.089844 471.921875 326.089844 471.921875 327.46875 L 501.585938 477.179688 C 502.277344 480.628906 505.726562 483.386719 509.863281 482.699219 L 541.601562 477.867188 C 545.738281 477.179688 548.5 473.730469 547.808594 469.589844 C 540.910156 434.40625 510.554688 281.9375 505.035156 264 C 498.824219 245.371094 463.640625 235.023438 444.324219 230.882812 Z M 444.324219 230.882812 " fill-opacity="1" fill-rule="nonzero"/><g clip-path="url(#c3b52dc31f)"><path fill="#e60003" d="M 629.90625 197.078125 C 469.160156 181.210938 422.9375 88.074219 420.867188 83.9375 C 418.109375 78.417969 411.898438 74.277344 405 74.277344 C 398.101562 74.277344 391.890625 78.417969 389.132812 84.625 C 388.441406 85.316406 341.527344 181.210938 180.09375 197.078125 C 171.125 197.769531 164.226562 205.359375 164.226562 214.328125 L 164.226562 373.695312 C 164.226562 482.699219 241.492188 567.554688 307.035156 619.988281 C 307.035156 623.4375 306.34375 626.886719 306.34375 630.335938 C 306.34375 684.839844 350.496094 728.992188 405 728.992188 C 459.5 728.992188 503.65625 684.839844 503.65625 630.335938 C 503.65625 626.886719 502.964844 623.4375 502.277344 619.988281 C 567.816406 567.554688 645.773438 482.007812 645.773438 373.695312 L 645.773438 215.015625 C 645.773438 206.046875 638.875 198.460938 629.90625 197.078125 Z M 456.742188 614.46875 L 404.308594 671.039062 C 401.550781 673.800781 398.101562 675.871094 393.960938 675.871094 C 389.820312 675.871094 386.371094 674.488281 383.613281 671.039062 L 353.945312 639.304688 C 348.429688 633.785156 348.429688 624.816406 354.636719 619.296875 C 360.15625 613.777344 369.125 614.46875 374.644531 619.988281 L 393.960938 640.683594 L 436.046875 595.839844 C 441.5625 590.324219 450.53125 589.632812 456.050781 595.152344 C 461.570312 599.292969 461.570312 608.257812 456.742188 614.46875 Z M 610.589844 373.695312 C 610.589844 462 549.1875 535.128906 491.238281 583.421875 C 474.679688 553.066406 442.253906 531.679688 405 531.679688 C 367.746094 531.679688 335.320312 552.378906 318.761719 583.421875 C 261.5 535.128906 199.410156 462 199.410156 373.695312 L 199.410156 230.195312 L 203.550781 229.503906 C 317.382812 212.945312 376.714844 158.445312 401.550781 128.089844 L 405 123.949219 L 408.449219 128.089844 C 433.285156 159.136719 492.617188 212.945312 607.140625 229.503906 L 610.589844 230.195312 Z M 610.589844 373.695312 " fill-opacity="1" fill-rule="nonzero"/></g></svg>