<svg xmlns="http://www.w3.org/2000/svg" xmlns:xlink="http://www.w3.org/1999/xlink" width="1080" zoomAndPan="magnify" viewBox="0 0 810 809.999993" height="1080" preserveAspectRatio="xMidYMid meet" version="1.0"><defs><clipPath id="7000926932"><path d="M 50.417969 81 L 759.917969 81 L 759.917969 593 L 50.417969 593 Z M 50.417969 81 " clip-rule="nonzero"/></clipPath></defs><g clip-path="url(#7000926932)"><path fill="#e60003" d="M 754.472656 120.769531 C 751.210938 112.96875 746.386719 105.875 740.570312 100.0625 C 734.757812 94.246094 727.664062 89.421875 720.007812 86.160156 C 712.207031 83.042969 703.554688 81.199219 694.617188 81.199219 C 549.808594 81.199219 549.808594 81.199219 549.808594 81.199219 C 404.996094 81.199219 404.996094 81.199219 404.996094 81.199219 C 260.1875 81.199219 260.1875 81.199219 260.1875 81.199219 C 115.375 81.199219 115.375 81.199219 115.375 81.199219 C 106.441406 81.199219 97.789062 83.042969 89.988281 86.304688 C 82.328125 89.566406 75.238281 94.386719 69.421875 100.203125 C 63.464844 106.019531 58.785156 113.109375 55.523438 120.910156 C 52.261719 128.570312 50.417969 137.078125 50.417969 146.15625 C 50.417969 241.609375 50.417969 241.609375 50.417969 241.609375 C 50.417969 336.921875 50.417969 336.921875 50.417969 336.921875 C 50.417969 432.230469 50.417969 432.230469 50.417969 432.230469 C 50.417969 527.683594 50.417969 527.683594 50.417969 527.683594 C 50.417969 536.761719 52.261719 545.273438 55.523438 553.074219 C 58.785156 560.875 63.609375 567.964844 69.421875 573.78125 C 75.378906 579.59375 82.328125 584.417969 89.988281 587.679688 C 97.789062 590.941406 106.441406 592.785156 115.375 592.785156 C 260.1875 592.785156 260.1875 592.785156 260.1875 592.785156 C 404.996094 592.785156 404.996094 592.785156 404.996094 592.785156 C 549.808594 592.785156 549.808594 592.785156 549.808594 592.785156 C 694.617188 592.785156 694.617188 592.785156 694.617188 592.785156 C 703.554688 592.785156 712.207031 590.941406 720.007812 587.679688 C 727.664062 584.417969 734.757812 579.59375 740.570312 573.78125 C 746.527344 567.964844 751.210938 560.875 754.472656 553.074219 C 757.734375 545.273438 759.578125 536.761719 759.578125 527.683594 C 759.578125 432.230469 759.578125 432.230469 759.578125 432.230469 C 759.578125 336.921875 759.578125 336.921875 759.578125 336.921875 C 759.578125 241.609375 759.578125 241.609375 759.578125 241.609375 C 759.578125 146.15625 759.578125 146.15625 759.578125 146.15625 C 759.578125 137.078125 757.734375 128.570312 754.472656 120.769531 Z M 82.613281 268.839844 L 290.398438 268.839844 L 290.398438 405.140625 L 82.613281 405.140625 C 82.613281 337.0625 82.613281 337.0625 82.613281 337.0625 C 82.613281 304.726562 82.613281 283.167969 82.613281 268.839844 Z M 304.582031 268.839844 L 505.273438 268.839844 L 505.273438 405.140625 L 304.582031 405.140625 Z M 519.597656 268.839844 L 727.382812 268.839844 C 727.382812 336.921875 727.382812 336.921875 727.382812 336.921875 C 727.382812 369.257812 727.382812 390.675781 727.382812 405 L 519.597656 405 Z M 550.234375 111.265625 C 695.46875 111.265625 695.46875 111.265625 695.46875 111.265625 C 700.007812 111.265625 704.121094 112.117188 707.949219 113.820312 C 711.78125 115.519531 715.183594 117.789062 718.019531 120.625 C 720.855469 123.605469 723.269531 127.007812 724.828125 130.695312 C 726.386719 134.527344 727.382812 138.78125 727.382812 143.179688 C 727.382812 240.050781 727.382812 240.050781 727.382812 240.050781 C 727.382812 245.15625 727.382812 249.976562 727.382812 254.65625 L 519.597656 254.65625 L 519.597656 111.265625 C 550.234375 111.265625 550.234375 111.265625 550.234375 111.265625 Z M 404.996094 111.265625 C 452.085938 111.265625 483.855469 111.265625 505.414062 111.265625 L 505.414062 254.65625 L 304.582031 254.65625 L 304.582031 111.265625 C 404.996094 111.265625 404.996094 111.265625 404.996094 111.265625 Z M 82.613281 143.179688 C 82.613281 138.78125 83.464844 134.527344 85.167969 130.695312 C 86.726562 127.007812 89.136719 123.464844 91.972656 120.625 C 94.953125 117.789062 98.355469 115.378906 102.1875 113.820312 C 106.015625 112.257812 110.269531 111.265625 114.667969 111.265625 C 259.761719 111.265625 259.761719 111.265625 259.761719 111.265625 C 270.824219 111.265625 281.035156 111.265625 290.398438 111.265625 L 290.398438 254.65625 L 82.613281 254.65625 C 82.613281 240.050781 82.613281 240.050781 82.613281 240.050781 C 82.613281 143.179688 82.613281 143.179688 82.613281 143.179688 Z M 259.761719 562.574219 C 114.667969 562.574219 114.667969 562.574219 114.667969 562.574219 C 110.128906 562.574219 106.015625 561.722656 102.1875 560.023438 C 98.355469 558.460938 94.953125 556.191406 91.972656 553.214844 C 89.136719 550.378906 86.726562 546.972656 85.167969 543.144531 C 83.464844 539.316406 82.613281 535.058594 82.613281 530.664062 C 82.613281 433.792969 82.613281 433.792969 82.613281 433.792969 C 82.613281 428.6875 82.613281 423.863281 82.613281 419.324219 L 290.398438 419.324219 L 290.398438 562.71875 C 259.761719 562.574219 259.761719 562.574219 259.761719 562.574219 Z M 304.582031 562.574219 L 304.582031 419.183594 L 505.273438 419.183594 L 505.273438 562.574219 C 404.855469 562.574219 404.855469 562.574219 404.855469 562.574219 C 357.910156 562.574219 326.140625 562.574219 304.582031 562.574219 Z M 727.382812 530.664062 C 727.382812 535.058594 726.386719 539.316406 724.828125 543.144531 C 723.269531 546.972656 720.855469 550.378906 718.019531 553.214844 C 715.042969 556.191406 711.636719 558.460938 707.949219 560.023438 C 704.121094 561.722656 699.867188 562.574219 695.46875 562.574219 C 550.234375 562.574219 550.234375 562.574219 550.234375 562.574219 C 539.171875 562.574219 528.957031 562.574219 519.597656 562.574219 L 519.597656 419.183594 L 727.382812 419.183594 C 727.382812 433.648438 727.382812 433.648438 727.382812 433.648438 Z M 727.382812 530.664062 " fill-opacity="1" fill-rule="nonzero"/></g><path fill="#e60003" d="M 521.15625 690.082031 C 472.792969 690.082031 472.792969 690.082031 472.792969 690.082031 C 472.792969 632.5 472.792969 632.5 472.792969 632.5 C 472.792969 625.265625 466.976562 619.308594 459.746094 619.308594 C 350.816406 619.308594 350.675781 619.308594 350.675781 619.308594 C 343.300781 619.308594 337.484375 625.265625 337.484375 632.5 C 337.484375 690.082031 337.484375 690.082031 337.484375 690.082031 C 288.410156 690.082031 288.410156 690.082031 288.410156 690.082031 C 279.476562 690.082031 272.527344 697.316406 272.527344 706.109375 C 272.527344 712.917969 272.527344 712.917969 272.527344 712.917969 C 272.527344 721.851562 279.476562 728.800781 288.410156 728.800781 C 521.300781 728.800781 521.300781 728.800781 521.300781 728.800781 C 530.234375 728.800781 537.328125 721.851562 537.328125 712.917969 C 537.328125 706.109375 537.328125 706.109375 537.328125 706.109375 C 537.042969 697.175781 529.953125 690.082031 521.15625 690.082031 Z M 521.15625 690.082031 " fill-opacity="1" fill-rule="nonzero"/><path fill="#e60003" d="M 213.097656 161.472656 C 213.097656 162.226562 213.0625 162.976562 212.988281 163.726562 C 212.914062 164.476562 212.804688 165.21875 212.65625 165.957031 C 212.511719 166.695312 212.328125 167.425781 212.109375 168.144531 C 211.890625 168.863281 211.636719 169.570312 211.347656 170.265625 C 211.0625 170.960938 210.738281 171.640625 210.386719 172.304688 C 210.03125 172.96875 209.644531 173.613281 209.226562 174.238281 C 208.808594 174.867188 208.359375 175.46875 207.882812 176.050781 C 207.40625 176.632812 206.902344 177.1875 206.367188 177.722656 C 205.835938 178.253906 205.28125 178.757812 204.699219 179.234375 C 204.117188 179.714844 203.511719 180.160156 202.886719 180.578125 C 202.261719 180.996094 201.617188 181.382812 200.953125 181.738281 C 200.289062 182.09375 199.609375 182.414062 198.914062 182.703125 C 198.21875 182.988281 197.511719 183.242188 196.792969 183.460938 C 196.070312 183.679688 195.34375 183.863281 194.605469 184.007812 C 193.867188 184.15625 193.121094 184.265625 192.375 184.339844 C 191.625 184.414062 190.875 184.453125 190.121094 184.453125 C 189.371094 184.453125 188.617188 184.414062 187.871094 184.339844 C 187.121094 184.265625 186.378906 184.15625 185.640625 184.007812 C 184.902344 183.863281 184.171875 183.679688 183.453125 183.460938 C 182.730469 183.242188 182.023438 182.988281 181.328125 182.703125 C 180.632812 182.414062 179.953125 182.09375 179.289062 181.738281 C 178.625 181.382812 177.980469 180.996094 177.355469 180.578125 C 176.730469 180.160156 176.128906 179.714844 175.546875 179.234375 C 174.964844 178.757812 174.40625 178.253906 173.875 177.722656 C 173.34375 177.1875 172.835938 176.632812 172.359375 176.050781 C 171.882812 175.46875 171.433594 174.867188 171.015625 174.238281 C 170.597656 173.613281 170.210938 172.96875 169.859375 172.304688 C 169.503906 171.640625 169.183594 170.960938 168.894531 170.265625 C 168.605469 169.570312 168.351562 168.863281 168.132812 168.144531 C 167.914062 167.425781 167.734375 166.695312 167.585938 165.957031 C 167.441406 165.21875 167.328125 164.476562 167.253906 163.726562 C 167.183594 162.976562 167.144531 162.226562 167.144531 161.472656 C 167.144531 160.722656 167.183594 159.972656 167.253906 159.222656 C 167.328125 158.472656 167.441406 157.730469 167.585938 156.992188 C 167.734375 156.253906 167.914062 155.523438 168.132812 154.804688 C 168.351562 154.085938 168.605469 153.375 168.894531 152.679688 C 169.183594 151.984375 169.503906 151.308594 169.859375 150.644531 C 170.210938 149.980469 170.597656 149.335938 171.015625 148.710938 C 171.433594 148.082031 171.882812 147.480469 172.359375 146.898438 C 172.835938 146.316406 173.34375 145.757812 173.875 145.226562 C 174.40625 144.695312 174.964844 144.191406 175.546875 143.714844 C 176.128906 143.234375 176.730469 142.789062 177.355469 142.371094 C 177.980469 141.953125 178.625 141.566406 179.289062 141.210938 C 179.953125 140.855469 180.632812 140.535156 181.328125 140.246094 C 182.023438 139.957031 182.730469 139.707031 183.453125 139.488281 C 184.171875 139.269531 184.902344 139.085938 185.640625 138.9375 C 186.378906 138.792969 187.121094 138.683594 187.871094 138.609375 C 188.617188 138.535156 189.371094 138.496094 190.121094 138.496094 C 190.875 138.496094 191.625 138.535156 192.375 138.609375 C 193.121094 138.683594 193.867188 138.792969 194.605469 138.9375 C 195.34375 139.085938 196.070312 139.269531 196.792969 139.488281 C 197.511719 139.707031 198.21875 139.957031 198.914062 140.246094 C 199.609375 140.535156 200.289062 140.855469 200.953125 141.210938 C 201.617188 141.566406 202.261719 141.953125 202.886719 142.371094 C 203.511719 142.789062 204.117188 143.234375 204.699219 143.714844 C 205.28125 144.191406 205.835938 144.695312 206.367188 145.226562 C 206.902344 145.757812 207.40625 146.316406 207.882812 146.898438 C 208.359375 147.480469 208.808594 148.082031 209.226562 148.710938 C 209.644531 149.335938 210.03125 149.980469 210.386719 150.644531 C 210.738281 151.308594 211.0625 151.984375 211.347656 152.679688 C 211.636719 153.375 211.890625 154.085938 212.109375 154.804688 C 212.328125 155.523438 212.511719 156.253906 212.65625 156.992188 C 212.804688 157.730469 212.914062 158.472656 212.988281 159.222656 C 213.0625 159.972656 213.097656 160.722656 213.097656 161.472656 Z M 213.097656 161.472656 " fill-opacity="1" fill-rule="nonzero"/><path fill="#e60003" d="M 155.941406 234.519531 L 224.304688 234.519531 C 227 234.519531 229.125 232.105469 228.84375 229.410156 C 226.289062 210.265625 209.976562 195.515625 190.261719 195.515625 C 170.550781 195.515625 153.953125 210.265625 151.402344 229.269531 C 151.117188 231.964844 153.105469 234.519531 155.941406 234.519531 Z M 155.941406 234.519531 " fill-opacity="1" fill-rule="nonzero"/><path fill="#e60003" d="M 427.972656 161.472656 C 427.972656 162.226562 427.9375 162.976562 427.863281 163.726562 C 427.789062 164.476562 427.679688 165.21875 427.53125 165.957031 C 427.386719 166.695312 427.203125 167.425781 426.984375 168.144531 C 426.765625 168.863281 426.511719 169.570312 426.226562 170.265625 C 425.9375 170.960938 425.617188 171.640625 425.261719 172.304688 C 424.90625 172.96875 424.519531 173.613281 424.101562 174.238281 C 423.683594 174.867188 423.234375 175.46875 422.757812 176.050781 C 422.28125 176.632812 421.777344 177.1875 421.246094 177.722656 C 420.710938 178.253906 420.15625 178.757812 419.574219 179.234375 C 418.992188 179.714844 418.386719 180.160156 417.761719 180.578125 C 417.136719 180.996094 416.492188 181.382812 415.828125 181.738281 C 415.164062 182.09375 414.484375 182.414062 413.789062 182.703125 C 413.09375 182.988281 412.386719 183.242188 411.667969 183.460938 C 410.945312 183.679688 410.21875 183.863281 409.480469 184.007812 C 408.742188 184.15625 408 184.265625 407.25 184.339844 C 406.5 184.414062 405.75 184.453125 404.996094 184.453125 C 404.246094 184.453125 403.492188 184.414062 402.746094 184.339844 C 401.996094 184.265625 401.253906 184.15625 400.515625 184.007812 C 399.777344 183.863281 399.046875 183.679688 398.328125 183.460938 C 397.605469 183.242188 396.898438 182.988281 396.203125 182.703125 C 395.507812 182.414062 394.828125 182.09375 394.167969 181.738281 C 393.503906 181.382812 392.859375 180.996094 392.230469 180.578125 C 391.605469 180.160156 391.003906 179.714844 390.421875 179.234375 C 389.839844 178.757812 389.28125 178.253906 388.75 177.722656 C 388.21875 177.1875 387.714844 176.632812 387.234375 176.050781 C 386.757812 175.46875 386.3125 174.867188 385.894531 174.238281 C 385.476562 173.613281 385.089844 172.96875 384.734375 172.304688 C 384.378906 171.640625 384.058594 170.960938 383.769531 170.265625 C 383.480469 169.570312 383.226562 168.863281 383.011719 168.144531 C 382.792969 167.425781 382.609375 166.695312 382.460938 165.957031 C 382.316406 165.21875 382.203125 164.476562 382.132812 163.726562 C 382.058594 162.976562 382.019531 162.226562 382.019531 161.472656 C 382.019531 160.722656 382.058594 159.972656 382.132812 159.222656 C 382.203125 158.472656 382.316406 157.730469 382.460938 156.992188 C 382.609375 156.253906 382.792969 155.523438 383.011719 154.804688 C 383.226562 154.085938 383.480469 153.375 383.769531 152.679688 C 384.058594 151.984375 384.378906 151.308594 384.734375 150.644531 C 385.089844 149.980469 385.476562 149.335938 385.894531 148.710938 C 386.3125 148.082031 386.757812 147.480469 387.234375 146.898438 C 387.714844 146.316406 388.21875 145.757812 388.75 145.226562 C 389.28125 144.695312 389.839844 144.191406 390.421875 143.714844 C 391.003906 143.234375 391.605469 142.789062 392.230469 142.371094 C 392.859375 141.953125 393.503906 141.566406 394.167969 141.210938 C 394.828125 140.855469 395.507812 140.535156 396.203125 140.246094 C 396.898438 139.957031 397.605469 139.707031 398.328125 139.488281 C 399.046875 139.269531 399.777344 139.085938 400.515625 138.9375 C 401.253906 138.792969 401.996094 138.683594 402.746094 138.609375 C 403.492188 138.535156 404.246094 138.496094 404.996094 138.496094 C 405.75 138.496094 406.5 138.535156 407.25 138.609375 C 408 138.683594 408.742188 138.792969 409.480469 138.9375 C 410.21875 139.085938 410.945312 139.269531 411.667969 139.488281 C 412.386719 139.707031 413.09375 139.957031 413.789062 140.246094 C 414.484375 140.535156 415.164062 140.855469 415.828125 141.210938 C 416.492188 141.566406 417.136719 141.953125 417.761719 142.371094 C 418.386719 142.789062 418.992188 143.234375 419.574219 143.714844 C 420.15625 144.191406 420.710938 144.695312 421.246094 145.226562 C 421.777344 145.757812 422.28125 146.316406 422.757812 146.898438 C 423.234375 147.480469 423.683594 148.082031 424.101562 148.710938 C 424.519531 149.335938 424.90625 149.980469 425.261719 150.644531 C 425.617188 151.308594 425.9375 151.984375 426.226562 152.679688 C 426.511719 153.375 426.765625 154.085938 426.984375 154.804688 C 427.203125 155.523438 427.386719 156.253906 427.53125 156.992188 C 427.679688 157.730469 427.789062 158.472656 427.863281 159.222656 C 427.9375 159.972656 427.972656 160.722656 427.972656 161.472656 Z M 427.972656 161.472656 " fill-opacity="1" fill-rule="nonzero"/><path fill="#e60003" d="M 370.816406 234.519531 L 439.179688 234.519531 C 441.875 234.519531 444 232.105469 443.71875 229.410156 C 441.164062 210.265625 424.710938 195.515625 404.996094 195.515625 C 385.28125 195.515625 368.832031 210.265625 366.417969 229.410156 C 365.992188 231.964844 368.121094 234.519531 370.816406 234.519531 Z M 370.816406 234.519531 " fill-opacity="1" fill-rule="nonzero"/><path fill="#e60003" d="M 642.847656 161.472656 C 642.851562 162.226562 642.8125 162.976562 642.738281 163.726562 C 642.664062 164.476562 642.554688 165.21875 642.40625 165.957031 C 642.261719 166.695312 642.078125 167.425781 641.859375 168.144531 C 641.640625 168.863281 641.386719 169.570312 641.101562 170.265625 C 640.8125 170.960938 640.492188 171.640625 640.136719 172.304688 C 639.78125 172.96875 639.394531 173.613281 638.976562 174.238281 C 638.558594 174.867188 638.113281 175.46875 637.632812 176.050781 C 637.15625 176.632812 636.652344 177.1875 636.121094 177.722656 C 635.585938 178.253906 635.03125 178.757812 634.449219 179.234375 C 633.867188 179.714844 633.265625 180.160156 632.636719 180.578125 C 632.011719 180.996094 631.367188 181.382812 630.703125 181.738281 C 630.039062 182.09375 629.359375 182.414062 628.664062 182.703125 C 627.96875 182.988281 627.261719 183.242188 626.542969 183.460938 C 625.824219 183.679688 625.09375 183.863281 624.355469 184.007812 C 623.617188 184.15625 622.875 184.265625 622.125 184.339844 C 621.375 184.414062 620.625 184.453125 619.871094 184.453125 C 619.121094 184.453125 618.371094 184.414062 617.621094 184.339844 C 616.871094 184.265625 616.128906 184.15625 615.390625 184.007812 C 614.652344 183.863281 613.921875 183.679688 613.203125 183.460938 C 612.484375 183.242188 611.773438 182.988281 611.078125 182.703125 C 610.382812 182.414062 609.707031 182.09375 609.042969 181.738281 C 608.378906 181.382812 607.734375 180.996094 607.109375 180.578125 C 606.480469 180.160156 605.878906 179.714844 605.296875 179.234375 C 604.714844 178.757812 604.15625 178.253906 603.625 177.722656 C 603.09375 177.1875 602.589844 176.632812 602.113281 176.050781 C 601.632812 175.46875 601.1875 174.867188 600.769531 174.238281 C 600.351562 173.613281 599.964844 172.96875 599.609375 172.304688 C 599.253906 171.640625 598.933594 170.960938 598.644531 170.265625 C 598.355469 169.570312 598.105469 168.863281 597.886719 168.144531 C 597.667969 167.425781 597.484375 166.695312 597.335938 165.957031 C 597.191406 165.21875 597.082031 164.476562 597.007812 163.726562 C 596.933594 162.976562 596.894531 162.226562 596.894531 161.472656 C 596.894531 160.722656 596.933594 159.972656 597.007812 159.222656 C 597.082031 158.472656 597.191406 157.730469 597.335938 156.992188 C 597.484375 156.253906 597.667969 155.523438 597.886719 154.804688 C 598.105469 154.085938 598.355469 153.375 598.644531 152.679688 C 598.933594 151.984375 599.253906 151.308594 599.609375 150.644531 C 599.964844 149.980469 600.351562 149.335938 600.769531 148.710938 C 601.1875 148.082031 601.632812 147.480469 602.113281 146.898438 C 602.589844 146.316406 603.09375 145.757812 603.625 145.226562 C 604.15625 144.695312 604.714844 144.191406 605.296875 143.714844 C 605.878906 143.234375 606.480469 142.789062 607.109375 142.371094 C 607.734375 141.953125 608.378906 141.566406 609.042969 141.210938 C 609.707031 140.855469 610.382812 140.535156 611.078125 140.246094 C 611.773438 139.957031 612.484375 139.707031 613.203125 139.488281 C 613.921875 139.269531 614.652344 139.085938 615.390625 138.9375 C 616.128906 138.792969 616.871094 138.683594 617.621094 138.609375 C 618.371094 138.535156 619.121094 138.496094 619.871094 138.496094 C 620.625 138.496094 621.375 138.535156 622.125 138.609375 C 622.875 138.683594 623.617188 138.792969 624.355469 138.9375 C 625.09375 139.085938 625.824219 139.269531 626.542969 139.488281 C 627.261719 139.707031 627.96875 139.957031 628.664062 140.246094 C 629.359375 140.535156 630.039062 140.855469 630.703125 141.210938 C 631.367188 141.566406 632.011719 141.953125 632.636719 142.371094 C 633.265625 142.789062 633.867188 143.234375 634.449219 143.714844 C 635.03125 144.191406 635.585938 144.695312 636.121094 145.226562 C 636.652344 145.757812 637.15625 146.316406 637.632812 146.898438 C 638.113281 147.480469 638.558594 148.082031 638.976562 148.710938 C 639.394531 149.335938 639.78125 149.980469 640.136719 150.644531 C 640.492188 151.308594 640.8125 151.984375 641.101562 152.679688 C 641.386719 153.375 641.640625 154.085938 641.859375 154.804688 C 642.078125 155.523438 642.261719 156.253906 642.40625 156.992188 C 642.554688 157.730469 642.664062 158.472656 642.738281 159.222656 C 642.8125 159.972656 642.851562 160.722656 642.847656 161.472656 Z M 642.847656 161.472656 " fill-opacity="1" fill-rule="nonzero"/><path fill="#e60003" d="M 585.691406 234.519531 L 654.054688 234.519531 C 656.75 234.519531 658.875 232.105469 658.59375 229.410156 C 656.039062 210.265625 639.730469 195.515625 619.871094 195.515625 C 600.015625 195.515625 583.707031 210.265625 581.292969 229.410156 C 580.867188 231.964844 582.996094 234.519531 585.691406 234.519531 Z M 585.691406 234.519531 " fill-opacity="1" fill-rule="nonzero"/><path fill="#e60003" d="M 213.097656 311.957031 C 213.097656 312.710938 213.0625 313.460938 212.988281 314.210938 C 212.914062 314.960938 212.804688 315.703125 212.65625 316.441406 C 212.511719 317.179688 212.328125 317.90625 212.109375 318.628906 C 211.890625 319.347656 211.636719 320.054688 211.347656 320.75 C 211.0625 321.445312 210.738281 322.125 210.386719 322.789062 C 210.03125 323.453125 209.644531 324.097656 209.226562 324.722656 C 208.808594 325.347656 208.359375 325.953125 207.882812 326.535156 C 207.40625 327.117188 206.902344 327.671875 206.367188 328.207031 C 205.835938 328.738281 205.28125 329.242188 204.699219 329.71875 C 204.117188 330.195312 203.511719 330.644531 202.886719 331.0625 C 202.261719 331.480469 201.617188 331.867188 200.953125 332.222656 C 200.289062 332.578125 199.609375 332.898438 198.914062 333.1875 C 198.21875 333.472656 197.511719 333.726562 196.792969 333.945312 C 196.070312 334.164062 195.34375 334.347656 194.605469 334.492188 C 193.867188 334.640625 193.121094 334.75 192.375 334.824219 C 191.625 334.898438 190.875 334.933594 190.121094 334.933594 C 189.371094 334.933594 188.617188 334.898438 187.871094 334.824219 C 187.121094 334.75 186.378906 334.640625 185.640625 334.492188 C 184.902344 334.347656 184.171875 334.164062 183.453125 333.945312 C 182.730469 333.726562 182.023438 333.472656 181.328125 333.1875 C 180.632812 332.898438 179.953125 332.578125 179.289062 332.222656 C 178.625 331.867188 177.980469 331.480469 177.355469 331.0625 C 176.730469 330.644531 176.128906 330.195312 175.546875 329.71875 C 174.964844 329.242188 174.40625 328.738281 173.875 328.207031 C 173.34375 327.671875 172.835938 327.117188 172.359375 326.535156 C 171.882812 325.953125 171.433594 325.347656 171.015625 324.722656 C 170.597656 324.097656 170.210938 323.453125 169.859375 322.789062 C 169.503906 322.125 169.183594 321.445312 168.894531 320.75 C 168.605469 320.054688 168.351562 319.347656 168.132812 318.628906 C 167.914062 317.90625 167.734375 317.179688 167.585938 316.441406 C 167.441406 315.703125 167.328125 314.960938 167.253906 314.210938 C 167.183594 313.460938 167.144531 312.710938 167.144531 311.957031 C 167.144531 311.207031 167.183594 310.453125 167.253906 309.707031 C 167.328125 308.957031 167.441406 308.214844 167.585938 307.476562 C 167.734375 306.738281 167.914062 306.007812 168.132812 305.289062 C 168.351562 304.566406 168.605469 303.859375 168.894531 303.164062 C 169.183594 302.46875 169.503906 301.789062 169.859375 301.128906 C 170.210938 300.464844 170.597656 299.820312 171.015625 299.191406 C 171.433594 298.566406 171.882812 297.964844 172.359375 297.382812 C 172.835938 296.800781 173.34375 296.242188 173.875 295.710938 C 174.40625 295.179688 174.964844 294.675781 175.546875 294.195312 C 176.128906 293.71875 176.730469 293.273438 177.355469 292.855469 C 177.980469 292.4375 178.625 292.050781 179.289062 291.695312 C 179.953125 291.339844 180.632812 291.019531 181.328125 290.730469 C 182.023438 290.441406 182.730469 290.1875 183.453125 289.972656 C 184.171875 289.753906 184.902344 289.570312 185.640625 289.421875 C 186.378906 289.277344 187.121094 289.164062 187.871094 289.09375 C 188.617188 289.019531 189.371094 288.980469 190.121094 288.980469 C 190.875 288.980469 191.625 289.019531 192.375 289.09375 C 193.121094 289.164062 193.867188 289.277344 194.605469 289.421875 C 195.34375 289.570312 196.070312 289.753906 196.792969 289.972656 C 197.511719 290.1875 198.21875 290.441406 198.914062 290.730469 C 199.609375 291.019531 200.289062 291.339844 200.953125 291.695312 C 201.617188 292.050781 202.261719 292.4375 202.886719 292.855469 C 203.511719 293.273438 204.117188 293.71875 204.699219 294.195312 C 205.28125 294.675781 205.835938 295.179688 206.367188 295.710938 C 206.902344 296.242188 207.40625 296.800781 207.882812 297.382812 C 208.359375 297.964844 208.808594 298.566406 209.226562 299.191406 C 209.644531 299.820312 210.03125 300.464844 210.386719 301.128906 C 210.738281 301.789062 211.0625 302.46875 211.347656 303.164062 C 211.636719 303.859375 211.890625 304.566406 212.109375 305.289062 C 212.328125 306.007812 212.511719 306.738281 212.65625 307.476562 C 212.804688 308.214844 212.914062 308.957031 212.988281 309.707031 C 213.0625 310.453125 213.097656 311.207031 213.097656 311.957031 Z M 213.097656 311.957031 " fill-opacity="1" fill-rule="nonzero"/><path fill="#e60003" d="M 155.941406 384.859375 L 224.304688 384.859375 C 227 384.859375 229.125 382.449219 228.84375 379.753906 C 226.289062 360.605469 209.976562 345.855469 190.261719 345.855469 C 170.550781 345.855469 153.953125 360.605469 151.402344 379.753906 C 151.117188 382.449219 153.105469 384.859375 155.941406 384.859375 Z M 155.941406 384.859375 " fill-opacity="1" fill-rule="nonzero"/><path fill="#e60003" d="M 427.972656 311.957031 C 427.972656 312.710938 427.9375 313.460938 427.863281 314.210938 C 427.789062 314.960938 427.679688 315.703125 427.53125 316.441406 C 427.386719 317.179688 427.203125 317.90625 426.984375 318.628906 C 426.765625 319.347656 426.511719 320.054688 426.226562 320.75 C 425.9375 321.445312 425.617188 322.125 425.261719 322.789062 C 424.90625 323.453125 424.519531 324.097656 424.101562 324.722656 C 423.683594 325.347656 423.234375 325.953125 422.757812 326.535156 C 422.28125 327.117188 421.777344 327.671875 421.246094 328.207031 C 420.710938 328.738281 420.15625 329.242188 419.574219 329.71875 C 418.992188 330.195312 418.386719 330.644531 417.761719 331.0625 C 417.136719 331.480469 416.492188 331.867188 415.828125 332.222656 C 415.164062 332.578125 414.484375 332.898438 413.789062 333.1875 C 413.09375 333.472656 412.386719 333.726562 411.667969 333.945312 C 410.945312 334.164062 410.21875 334.347656 409.480469 334.492188 C 408.742188 334.640625 408 334.75 407.25 334.824219 C 406.5 334.898438 405.75 334.933594 404.996094 334.933594 C 404.246094 334.933594 403.492188 334.898438 402.746094 334.824219 C 401.996094 334.75 401.253906 334.640625 400.515625 334.492188 C 399.777344 334.347656 399.046875 334.164062 398.328125 333.945312 C 397.605469 333.726562 396.898438 333.472656 396.203125 333.1875 C 395.507812 332.898438 394.828125 332.578125 394.167969 332.222656 C 393.503906 331.867188 392.859375 331.480469 392.230469 331.0625 C 391.605469 330.644531 391.003906 330.195312 390.421875 329.71875 C 389.839844 329.242188 389.28125 328.738281 388.75 328.207031 C 388.21875 327.671875 387.714844 327.117188 387.234375 326.535156 C 386.757812 325.953125 386.3125 325.347656 385.894531 324.722656 C 385.476562 324.097656 385.089844 323.453125 384.734375 322.789062 C 384.378906 322.125 384.058594 321.445312 383.769531 320.75 C 383.480469 320.054688 383.226562 319.347656 383.011719 318.628906 C 382.792969 317.90625 382.609375 317.179688 382.460938 316.441406 C 382.316406 315.703125 382.203125 314.960938 382.132812 314.210938 C 382.058594 313.460938 382.019531 312.710938 382.019531 311.957031 C 382.019531 311.207031 382.058594 310.453125 382.132812 309.707031 C 382.203125 308.957031 382.316406 308.214844 382.460938 307.476562 C 382.609375 306.738281 382.792969 306.007812 383.011719 305.289062 C 383.226562 304.566406 383.480469 303.859375 383.769531 303.164062 C 384.058594 302.46875 384.378906 301.789062 384.734375 301.128906 C 385.089844 300.464844 385.476562 299.820312 385.894531 299.191406 C 386.3125 298.566406 386.757812 297.964844 387.234375 297.382812 C 387.714844 296.800781 388.21875 296.242188 388.75 295.710938 C 389.28125 295.179688 389.839844 294.675781 390.421875 294.195312 C 391.003906 293.71875 391.605469 293.273438 392.230469 292.855469 C 392.859375 292.4375 393.503906 292.050781 394.167969 291.695312 C 394.828125 291.339844 395.507812 291.019531 396.203125 290.730469 C 396.898438 290.441406 397.605469 290.1875 398.328125 289.972656 C 399.046875 289.753906 399.777344 289.570312 400.515625 289.421875 C 401.253906 289.277344 401.996094 289.164062 402.746094 289.09375 C 403.492188 289.019531 404.246094 288.980469 404.996094 288.980469 C 405.75 288.980469 406.5 289.019531 407.25 289.09375 C 408 289.164062 408.742188 289.277344 409.480469 289.421875 C 410.21875 289.570312 410.945312 289.753906 411.667969 289.972656 C 412.386719 290.1875 413.09375 290.441406 413.789062 290.730469 C 414.484375 291.019531 415.164062 291.339844 415.828125 291.695312 C 416.492188 292.050781 417.136719 292.4375 417.761719 292.855469 C 418.386719 293.273438 418.992188 293.71875 419.574219 294.195312 C 420.15625 294.675781 420.710938 295.179688 421.246094 295.710938 C 421.777344 296.242188 422.28125 296.800781 422.757812 297.382812 C 423.234375 297.964844 423.683594 298.566406 424.101562 299.191406 C 424.519531 299.820312 424.90625 300.464844 425.261719 301.128906 C 425.617188 301.789062 425.9375 302.46875 426.226562 303.164062 C 426.511719 303.859375 426.765625 304.566406 426.984375 305.289062 C 427.203125 306.007812 427.386719 306.738281 427.53125 307.476562 C 427.679688 308.214844 427.789062 308.957031 427.863281 309.707031 C 427.9375 310.453125 427.972656 311.207031 427.972656 311.957031 Z M 427.972656 311.957031 " fill-opacity="1" fill-rule="nonzero"/><path fill="#e60003" d="M 443.574219 379.753906 C 441.023438 360.605469 424.710938 345.855469 404.996094 345.855469 C 385.28125 345.855469 368.832031 360.605469 366.417969 379.753906 C 365.992188 382.449219 368.121094 384.859375 370.957031 384.859375 L 439.320312 384.859375 C 441.875 384.859375 444 382.449219 443.574219 379.753906 Z M 443.574219 379.753906 " fill-opacity="1" fill-rule="nonzero"/><path fill="#e60003" d="M 642.847656 311.957031 C 642.851562 312.710938 642.8125 313.460938 642.738281 314.210938 C 642.664062 314.960938 642.554688 315.703125 642.40625 316.441406 C 642.261719 317.179688 642.078125 317.90625 641.859375 318.628906 C 641.640625 319.347656 641.386719 320.054688 641.101562 320.75 C 640.8125 321.445312 640.492188 322.125 640.136719 322.789062 C 639.78125 323.453125 639.394531 324.097656 638.976562 324.722656 C 638.558594 325.347656 638.113281 325.953125 637.632812 326.535156 C 637.15625 327.117188 636.652344 327.671875 636.121094 328.207031 C 635.585938 328.738281 635.03125 329.242188 634.449219 329.71875 C 633.867188 330.195312 633.265625 330.644531 632.636719 331.0625 C 632.011719 331.480469 631.367188 331.867188 630.703125 332.222656 C 630.039062 332.578125 629.359375 332.898438 628.664062 333.1875 C 627.96875 333.472656 627.261719 333.726562 626.542969 333.945312 C 625.824219 334.164062 625.09375 334.347656 624.355469 334.492188 C 623.617188 334.640625 622.875 334.75 622.125 334.824219 C 621.375 334.898438 620.625 334.933594 619.871094 334.933594 C 619.121094 334.933594 618.371094 334.898438 617.621094 334.824219 C 616.871094 334.75 616.128906 334.640625 615.390625 334.492188 C 614.652344 334.347656 613.921875 334.164062 613.203125 333.945312 C 612.484375 333.726562 611.773438 333.472656 611.078125 333.1875 C 610.382812 332.898438 609.707031 332.578125 609.042969 332.222656 C 608.378906 331.867188 607.734375 331.480469 607.109375 331.0625 C 606.480469 330.644531 605.878906 330.195312 605.296875 329.71875 C 604.714844 329.242188 604.15625 328.738281 603.625 328.207031 C 603.09375 327.671875 602.589844 327.117188 602.113281 326.535156 C 601.632812 325.953125 601.1875 325.347656 600.769531 324.722656 C 600.351562 324.097656 599.964844 323.453125 599.609375 322.789062 C 599.253906 322.125 598.933594 321.445312 598.644531 320.75 C 598.355469 320.054688 598.105469 319.347656 597.886719 318.628906 C 597.667969 317.90625 597.484375 317.179688 597.335938 316.441406 C 597.191406 315.703125 597.082031 314.960938 597.007812 314.210938 C 596.933594 313.460938 596.894531 312.710938 596.894531 311.957031 C 596.894531 311.207031 596.933594 310.453125 597.007812 309.707031 C 597.082031 308.957031 597.191406 308.214844 597.335938 307.476562 C 597.484375 306.738281 597.667969 306.007812 597.886719 305.289062 C 598.105469 304.566406 598.355469 303.859375 598.644531 303.164062 C 598.933594 302.46875 599.253906 301.789062 599.609375 301.128906 C 599.964844 300.464844 600.351562 299.820312 600.769531 299.191406 C 601.1875 298.566406 601.632812 297.964844 602.113281 297.382812 C 602.589844 296.800781 603.09375 296.242188 603.625 295.710938 C 604.15625 295.179688 604.714844 294.675781 605.296875 294.195312 C 605.878906 293.71875 606.480469 293.273438 607.109375 292.855469 C 607.734375 292.4375 608.378906 292.050781 609.042969 291.695312 C 609.707031 291.339844 610.382812 291.019531 611.078125 290.730469 C 611.773438 290.441406 612.484375 290.1875 613.203125 289.972656 C 613.921875 289.753906 614.652344 289.570312 615.390625 289.421875 C 616.128906 289.277344 616.871094 289.164062 617.621094 289.09375 C 618.371094 289.019531 619.121094 288.980469 619.871094 288.980469 C 620.625 288.980469 621.375 289.019531 622.125 289.09375 C 622.875 289.164062 623.617188 289.277344 624.355469 289.421875 C 625.09375 289.570312 625.824219 289.753906 626.542969 289.972656 C 627.261719 290.1875 627.96875 290.441406 628.664062 290.730469 C 629.359375 291.019531 630.039062 291.339844 630.703125 291.695312 C 631.367188 292.050781 632.011719 292.4375 632.636719 292.855469 C 633.265625 293.273438 633.867188 293.71875 634.449219 294.195312 C 635.03125 294.675781 635.585938 295.179688 636.121094 295.710938 C 636.652344 296.242188 637.15625 296.800781 637.632812 297.382812 C 638.113281 297.964844 638.558594 298.566406 638.976562 299.191406 C 639.394531 299.820312 639.78125 300.464844 640.136719 301.128906 C 640.492188 301.789062 640.8125 302.46875 641.101562 303.164062 C 641.386719 303.859375 641.640625 304.566406 641.859375 305.289062 C 642.078125 306.007812 642.261719 306.738281 642.40625 307.476562 C 642.554688 308.214844 642.664062 308.957031 642.738281 309.707031 C 642.8125 310.453125 642.851562 311.207031 642.847656 311.957031 Z M 642.847656 311.957031 " fill-opacity="1" fill-rule="nonzero"/><path fill="#e60003" d="M 658.59375 379.753906 C 656.039062 360.605469 639.730469 345.855469 620.015625 345.855469 C 600.300781 345.855469 583.847656 360.605469 581.4375 379.753906 C 581.011719 382.449219 583.136719 384.859375 585.976562 384.859375 L 654.339844 384.859375 C 656.890625 384.859375 658.875 382.449219 658.59375 379.753906 Z M 658.59375 379.753906 " fill-opacity="1" fill-rule="nonzero"/><path fill="#e60003" d="M 213.097656 462.441406 C 213.097656 463.195312 213.0625 463.945312 212.988281 464.695312 C 212.914062 465.441406 212.804688 466.1875 212.65625 466.925781 C 212.511719 467.664062 212.328125 468.390625 212.109375 469.113281 C 211.890625 469.832031 211.636719 470.539062 211.347656 471.234375 C 211.0625 471.929688 210.738281 472.609375 210.386719 473.273438 C 210.03125 473.9375 209.644531 474.582031 209.226562 475.207031 C 208.808594 475.832031 208.359375 476.4375 207.882812 477.019531 C 207.40625 477.601562 206.902344 478.15625 206.367188 478.6875 C 205.835938 479.222656 205.28125 479.726562 204.699219 480.203125 C 204.117188 480.679688 203.511719 481.128906 202.886719 481.546875 C 202.261719 481.964844 201.617188 482.351562 200.953125 482.707031 C 200.289062 483.058594 199.609375 483.382812 198.914062 483.667969 C 198.21875 483.957031 197.511719 484.210938 196.792969 484.429688 C 196.070312 484.648438 195.34375 484.832031 194.605469 484.976562 C 193.867188 485.125 193.121094 485.234375 192.375 485.308594 C 191.625 485.382812 190.875 485.417969 190.121094 485.417969 C 189.371094 485.417969 188.617188 485.382812 187.871094 485.308594 C 187.121094 485.234375 186.378906 485.125 185.640625 484.976562 C 184.902344 484.832031 184.171875 484.648438 183.453125 484.429688 C 182.730469 484.210938 182.023438 483.957031 181.328125 483.667969 C 180.632812 483.382812 179.953125 483.058594 179.289062 482.707031 C 178.625 482.351562 177.980469 481.964844 177.355469 481.546875 C 176.730469 481.128906 176.128906 480.679688 175.546875 480.203125 C 174.964844 479.726562 174.40625 479.222656 173.875 478.6875 C 173.34375 478.15625 172.835938 477.601562 172.359375 477.019531 C 171.882812 476.4375 171.433594 475.832031 171.015625 475.207031 C 170.597656 474.582031 170.210938 473.9375 169.859375 473.273438 C 169.503906 472.609375 169.183594 471.929688 168.894531 471.234375 C 168.605469 470.539062 168.351562 469.832031 168.132812 469.113281 C 167.914062 468.390625 167.734375 467.664062 167.585938 466.925781 C 167.441406 466.1875 167.328125 465.441406 167.253906 464.695312 C 167.183594 463.945312 167.144531 463.195312 167.144531 462.441406 C 167.144531 461.691406 167.183594 460.9375 167.253906 460.191406 C 167.328125 459.441406 167.441406 458.699219 167.585938 457.960938 C 167.734375 457.222656 167.914062 456.492188 168.132812 455.773438 C 168.351562 455.050781 168.605469 454.34375 168.894531 453.648438 C 169.183594 452.953125 169.503906 452.273438 169.859375 451.609375 C 170.210938 450.945312 170.597656 450.300781 171.015625 449.675781 C 171.433594 449.050781 171.882812 448.449219 172.359375 447.867188 C 172.835938 447.285156 173.34375 446.726562 173.875 446.195312 C 174.40625 445.664062 174.964844 445.15625 175.546875 444.679688 C 176.128906 444.203125 176.730469 443.753906 177.355469 443.335938 C 177.980469 442.917969 178.625 442.53125 179.289062 442.179688 C 179.953125 441.824219 180.632812 441.503906 181.328125 441.214844 C 182.023438 440.925781 182.730469 440.671875 183.453125 440.453125 C 184.171875 440.234375 184.902344 440.054688 185.640625 439.90625 C 186.378906 439.761719 187.121094 439.648438 187.871094 439.574219 C 188.617188 439.503906 189.371094 439.464844 190.121094 439.464844 C 190.875 439.464844 191.625 439.503906 192.375 439.574219 C 193.121094 439.648438 193.867188 439.761719 194.605469 439.90625 C 195.34375 440.054688 196.070312 440.234375 196.792969 440.453125 C 197.511719 440.671875 198.21875 440.925781 198.914062 441.214844 C 199.609375 441.503906 200.289062 441.824219 200.953125 442.179688 C 201.617188 442.53125 202.261719 442.917969 202.886719 443.335938 C 203.511719 443.753906 204.117188 444.203125 204.699219 444.679688 C 205.28125 445.15625 205.835938 445.664062 206.367188 446.195312 C 206.902344 446.726562 207.40625 447.285156 207.882812 447.867188 C 208.359375 448.449219 208.808594 449.050781 209.226562 449.675781 C 209.644531 450.300781 210.03125 450.945312 210.386719 451.609375 C 210.738281 452.273438 211.0625 452.953125 211.347656 453.648438 C 211.636719 454.34375 211.890625 455.050781 212.109375 455.773438 C 212.328125 456.492188 212.511719 457.222656 212.65625 457.960938 C 212.804688 458.699219 212.914062 459.441406 212.988281 460.191406 C 213.0625 460.9375 213.097656 461.691406 213.097656 462.441406 Z M 213.097656 462.441406 " fill-opacity="1" fill-rule="nonzero"/><path fill="#e60003" d="M 190.121094 496.339844 C 170.40625 496.339844 153.953125 511.089844 151.542969 530.238281 C 151.117188 532.933594 153.246094 535.34375 156.082031 535.34375 L 224.445312 535.34375 C 227.140625 535.34375 229.265625 532.933594 228.984375 530.238281 C 226.148438 511.089844 209.835938 496.339844 190.121094 496.339844 Z M 190.121094 496.339844 " fill-opacity="1" fill-rule="nonzero"/><path fill="#e60003" d="M 427.972656 462.441406 C 427.972656 463.195312 427.9375 463.945312 427.863281 464.695312 C 427.789062 465.441406 427.679688 466.1875 427.53125 466.925781 C 427.386719 467.664062 427.203125 468.390625 426.984375 469.113281 C 426.765625 469.832031 426.511719 470.539062 426.226562 471.234375 C 425.9375 471.929688 425.617188 472.609375 425.261719 473.273438 C 424.90625 473.9375 424.519531 474.582031 424.101562 475.207031 C 423.683594 475.832031 423.234375 476.4375 422.757812 477.019531 C 422.28125 477.601562 421.777344 478.15625 421.246094 478.6875 C 420.710938 479.222656 420.15625 479.726562 419.574219 480.203125 C 418.992188 480.679688 418.386719 481.128906 417.761719 481.546875 C 417.136719 481.964844 416.492188 482.351562 415.828125 482.707031 C 415.164062 483.058594 414.484375 483.382812 413.789062 483.667969 C 413.09375 483.957031 412.386719 484.210938 411.667969 484.429688 C 410.945312 484.648438 410.21875 484.832031 409.480469 484.976562 C 408.742188 485.125 408 485.234375 407.25 485.308594 C 406.5 485.382812 405.75 485.417969 404.996094 485.417969 C 404.246094 485.417969 403.492188 485.382812 402.746094 485.308594 C 401.996094 485.234375 401.253906 485.125 400.515625 484.976562 C 399.777344 484.832031 399.046875 484.648438 398.328125 484.429688 C 397.605469 484.210938 396.898438 483.957031 396.203125 483.667969 C 395.507812 483.382812 394.828125 483.058594 394.167969 482.707031 C 393.503906 482.351562 392.859375 481.964844 392.230469 481.546875 C 391.605469 481.128906 391.003906 480.679688 390.421875 480.203125 C 389.839844 479.726562 389.28125 479.222656 388.75 478.6875 C 388.21875 478.15625 387.714844 477.601562 387.234375 477.019531 C 386.757812 476.4375 386.3125 475.832031 385.894531 475.207031 C 385.476562 474.582031 385.089844 473.9375 384.734375 473.273438 C 384.378906 472.609375 384.058594 471.929688 383.769531 471.234375 C 383.480469 470.539062 383.226562 469.832031 383.011719 469.113281 C 382.792969 468.390625 382.609375 467.664062 382.460938 466.925781 C 382.316406 466.1875 382.203125 465.441406 382.132812 464.695312 C 382.058594 463.945312 382.019531 463.195312 382.019531 462.441406 C 382.019531 461.691406 382.058594 460.9375 382.132812 460.191406 C 382.203125 459.441406 382.316406 458.699219 382.460938 457.960938 C 382.609375 457.222656 382.792969 456.492188 383.011719 455.773438 C 383.226562 455.050781 383.480469 454.34375 383.769531 453.648438 C 384.058594 452.953125 384.378906 452.273438 384.734375 451.609375 C 385.089844 450.945312 385.476562 450.300781 385.894531 449.675781 C 386.3125 449.050781 386.757812 448.449219 387.234375 447.867188 C 387.714844 447.285156 388.21875 446.726562 388.75 446.195312 C 389.28125 445.664062 389.839844 445.15625 390.421875 444.679688 C 391.003906 444.203125 391.605469 443.753906 392.230469 443.335938 C 392.859375 442.917969 393.503906 442.53125 394.167969 442.179688 C 394.828125 441.824219 395.507812 441.503906 396.203125 441.214844 C 396.898438 440.925781 397.605469 440.671875 398.328125 440.453125 C 399.046875 440.234375 399.777344 440.054688 400.515625 439.90625 C 401.253906 439.761719 401.996094 439.648438 402.746094 439.574219 C 403.492188 439.503906 404.246094 439.464844 404.996094 439.464844 C 405.75 439.464844 406.5 439.503906 407.25 439.574219 C 408 439.648438 408.742188 439.761719 409.480469 439.90625 C 410.21875 440.054688 410.945312 440.234375 411.667969 440.453125 C 412.386719 440.671875 413.09375 440.925781 413.789062 441.214844 C 414.484375 441.503906 415.164062 441.824219 415.828125 442.179688 C 416.492188 442.53125 417.136719 442.917969 417.761719 443.335938 C 418.386719 443.753906 418.992188 444.203125 419.574219 444.679688 C 420.15625 445.15625 420.710938 445.664062 421.246094 446.195312 C 421.777344 446.726562 422.28125 447.285156 422.757812 447.867188 C 423.234375 448.449219 423.683594 449.050781 424.101562 449.675781 C 424.519531 450.300781 424.90625 450.945312 425.261719 451.609375 C 425.617188 452.273438 425.9375 452.953125 426.226562 453.648438 C 426.511719 454.34375 426.765625 455.050781 426.984375 455.773438 C 427.203125 456.492188 427.386719 457.222656 427.53125 457.960938 C 427.679688 458.699219 427.789062 459.441406 427.863281 460.191406 C 427.9375 460.9375 427.972656 461.691406 427.972656 462.441406 Z M 427.972656 462.441406 " fill-opacity="1" fill-rule="nonzero"/><path fill="#e60003" d="M 443.574219 530.238281 C 441.023438 511.089844 424.710938 496.339844 404.996094 496.339844 C 385.28125 496.339844 368.832031 511.089844 366.417969 530.238281 C 365.992188 532.933594 368.121094 535.34375 370.957031 535.34375 L 439.320312 535.34375 C 441.875 535.34375 444 532.933594 443.574219 530.238281 Z M 443.574219 530.238281 " fill-opacity="1" fill-rule="nonzero"/><path fill="#e60003" d="M 642.847656 462.441406 C 642.851562 463.195312 642.8125 463.945312 642.738281 464.695312 C 642.664062 465.441406 642.554688 466.1875 642.40625 466.925781 C 642.261719 467.664062 642.078125 468.390625 641.859375 469.113281 C 641.640625 469.832031 641.386719 470.539062 641.101562 471.234375 C 640.8125 471.929688 640.492188 472.609375 640.136719 473.273438 C 639.78125 473.9375 639.394531 474.582031 638.976562 475.207031 C 638.558594 475.832031 638.113281 476.4375 637.632812 477.019531 C 637.15625 477.601562 636.652344 478.15625 636.121094 478.6875 C 635.585938 479.222656 635.03125 479.726562 634.449219 480.203125 C 633.867188 480.679688 633.265625 481.128906 632.636719 481.546875 C 632.011719 481.964844 631.367188 482.351562 630.703125 482.707031 C 630.039062 483.058594 629.359375 483.382812 628.664062 483.667969 C 627.96875 483.957031 627.261719 484.210938 626.542969 484.429688 C 625.824219 484.648438 625.09375 484.832031 624.355469 484.976562 C 623.617188 485.125 622.875 485.234375 622.125 485.308594 C 621.375 485.382812 620.625 485.417969 619.871094 485.417969 C 619.121094 485.417969 618.371094 485.382812 617.621094 485.308594 C 616.871094 485.234375 616.128906 485.125 615.390625 484.976562 C 614.652344 484.832031 613.921875 484.648438 613.203125 484.429688 C 612.484375 484.210938 611.773438 483.957031 611.078125 483.667969 C 610.382812 483.382812 609.707031 483.058594 609.042969 482.707031 C 608.378906 482.351562 607.734375 481.964844 607.109375 481.546875 C 606.480469 481.128906 605.878906 480.679688 605.296875 480.203125 C 604.714844 479.726562 604.15625 479.222656 603.625 478.6875 C 603.09375 478.15625 602.589844 477.601562 602.113281 477.019531 C 601.632812 476.4375 601.1875 475.832031 600.769531 475.207031 C 600.351562 474.582031 599.964844 473.9375 599.609375 473.273438 C 599.253906 472.609375 598.933594 471.929688 598.644531 471.234375 C 598.355469 470.539062 598.105469 469.832031 597.886719 469.113281 C 597.667969 468.390625 597.484375 467.664062 597.335938 466.925781 C 597.191406 466.1875 597.082031 465.441406 597.007812 464.695312 C 596.933594 463.945312 596.894531 463.195312 596.894531 462.441406 C 596.894531 461.691406 596.933594 460.9375 597.007812 460.191406 C 597.082031 459.441406 597.191406 458.699219 597.335938 457.960938 C 597.484375 457.222656 597.667969 456.492188 597.886719 455.773438 C 598.105469 455.050781 598.355469 454.34375 598.644531 453.648438 C 598.933594 452.953125 599.253906 452.273438 599.609375 451.609375 C 599.964844 450.945312 600.351562 450.300781 600.769531 449.675781 C 601.1875 449.050781 601.632812 448.449219 602.113281 447.867188 C 602.589844 447.285156 603.09375 446.726562 603.625 446.195312 C 604.15625 445.664062 604.714844 445.15625 605.296875 444.679688 C 605.878906 444.203125 606.480469 443.753906 607.109375 443.335938 C 607.734375 442.917969 608.378906 442.53125 609.042969 442.179688 C 609.707031 441.824219 610.382812 441.503906 611.078125 441.214844 C 611.773438 440.925781 612.484375 440.671875 613.203125 440.453125 C 613.921875 440.234375 614.652344 440.054688 615.390625 439.90625 C 616.128906 439.761719 616.871094 439.648438 617.621094 439.574219 C 618.371094 439.503906 619.121094 439.464844 619.871094 439.464844 C 620.625 439.464844 621.375 439.503906 622.125 439.574219 C 622.875 439.648438 623.617188 439.761719 624.355469 439.90625 C 625.09375 440.054688 625.824219 440.234375 626.542969 440.453125 C 627.261719 440.671875 627.96875 440.925781 628.664062 441.214844 C 629.359375 441.503906 630.039062 441.824219 630.703125 442.179688 C 631.367188 442.53125 632.011719 442.917969 632.636719 443.335938 C 633.265625 443.753906 633.867188 444.203125 634.449219 444.679688 C 635.03125 445.15625 635.585938 445.664062 636.121094 446.195312 C 636.652344 446.726562 637.15625 447.285156 637.632812 447.867188 C 638.113281 448.449219 638.558594 449.050781 638.976562 449.675781 C 639.394531 450.300781 639.78125 450.945312 640.136719 451.609375 C 640.492188 452.273438 640.8125 452.953125 641.101562 453.648438 C 641.386719 454.34375 641.640625 455.050781 641.859375 455.773438 C 642.078125 456.492188 642.261719 457.222656 642.40625 457.960938 C 642.554688 458.699219 642.664062 459.441406 642.738281 460.191406 C 642.8125 460.9375 642.851562 461.691406 642.847656 462.441406 Z M 642.847656 462.441406 " fill-opacity="1" fill-rule="nonzero"/><path fill="#e60003" d="M 619.871094 496.339844 C 600.15625 496.339844 583.707031 511.089844 581.292969 530.238281 C 580.867188 532.933594 582.996094 535.34375 585.832031 535.34375 L 654.195312 535.34375 C 656.890625 535.34375 659.019531 532.933594 658.734375 530.238281 C 656.039062 511.089844 639.730469 496.339844 619.871094 496.339844 Z M 619.871094 496.339844 " fill-opacity="1" fill-rule="nonzero"/></svg>