<svg xmlns="http://www.w3.org/2000/svg" xmlns:xlink="http://www.w3.org/1999/xlink" width="1080" zoomAndPan="magnify" viewBox="0 0 810 809.999993" height="1080" preserveAspectRatio="xMidYMid meet" version="1.0"><defs><clipPath id="f8b448d20a"><path d="M 65.171875 65.171875 L 743 65.171875 L 743 743 L 65.171875 743 Z M 65.171875 65.171875 " clip-rule="nonzero"/></clipPath></defs><g clip-path="url(#f8b448d20a)"><path fill="#e60003" d="M 732.664062 443.308594 L 718.777344 443.308594 L 662.941406 340.324219 L 662.941406 190.71875 L 715.507812 190.71875 C 716.398438 190.71875 717.285156 190.675781 718.167969 190.589844 C 719.054688 190.503906 719.933594 190.371094 720.808594 190.199219 C 721.679688 190.023438 722.542969 189.808594 723.394531 189.550781 C 724.246094 189.292969 725.082031 188.992188 725.902344 188.652344 C 726.726562 188.3125 727.527344 187.933594 728.3125 187.511719 C 729.097656 187.09375 729.859375 186.636719 730.601562 186.140625 C 731.339844 185.648438 732.054688 185.117188 732.742188 184.554688 C 733.429688 183.988281 734.089844 183.390625 734.71875 182.761719 C 735.347656 182.132812 735.945312 181.476562 736.507812 180.789062 C 737.074219 180.101562 737.601562 179.386719 738.097656 178.644531 C 738.589844 177.90625 739.046875 177.144531 739.46875 176.359375 C 739.886719 175.574219 740.265625 174.769531 740.605469 173.949219 C 740.949219 173.125 741.246094 172.289062 741.503906 171.4375 C 741.765625 170.585938 741.980469 169.726562 742.152344 168.851562 C 742.328125 167.980469 742.457031 167.101562 742.542969 166.214844 C 742.632812 165.328125 742.675781 164.441406 742.675781 163.550781 C 742.675781 162.664062 742.632812 161.773438 742.542969 160.890625 C 742.457031 160.003906 742.328125 159.125 742.152344 158.25 C 741.980469 157.378906 741.765625 156.515625 741.503906 155.664062 C 741.246094 154.8125 740.949219 153.976562 740.605469 153.15625 C 740.265625 152.332031 739.886719 151.53125 739.46875 150.746094 C 739.046875 149.960938 738.589844 149.199219 738.097656 148.457031 C 737.601562 147.71875 737.074219 147.003906 736.507812 146.316406 C 735.945312 145.628906 735.347656 144.96875 734.71875 144.339844 C 734.089844 143.710938 733.429688 143.113281 732.742188 142.550781 C 732.054688 141.984375 731.339844 141.457031 730.601562 140.960938 C 729.859375 140.46875 729.097656 140.011719 728.3125 139.589844 C 727.527344 139.171875 726.726562 138.792969 725.902344 138.453125 C 725.082031 138.109375 724.246094 137.8125 723.394531 137.554688 C 722.542969 137.292969 721.679688 137.078125 720.808594 136.90625 C 719.933594 136.730469 719.054688 136.601562 718.167969 136.515625 C 717.285156 136.425781 716.398438 136.382812 715.507812 136.382812 L 569.589844 136.382812 C 569.421875 135.46875 569.226562 134.5625 569 133.664062 C 568.777344 132.765625 568.523438 131.871094 568.242188 130.988281 C 567.960938 130.101562 567.652344 129.230469 567.316406 128.363281 C 566.980469 127.5 566.621094 126.644531 566.230469 125.804688 C 565.839844 124.960938 565.425781 124.132812 564.984375 123.316406 C 564.539062 122.5 564.074219 121.699219 563.582031 120.914062 C 563.089844 120.128906 562.574219 119.355469 562.03125 118.601562 C 561.492188 117.847656 560.925781 117.113281 560.339844 116.394531 C 559.753906 115.675781 559.144531 114.976562 558.511719 114.296875 C 557.882812 113.617188 557.230469 112.957031 556.558594 112.316406 C 555.882812 111.679688 555.191406 111.0625 554.480469 110.464844 C 553.769531 109.871094 553.039062 109.296875 552.292969 108.75 C 551.542969 108.199219 550.78125 107.675781 550 107.171875 C 549.21875 106.671875 548.421875 106.195312 547.613281 105.742188 C 546.800781 105.292969 545.976562 104.867188 545.140625 104.46875 C 544.304688 104.066406 543.453125 103.695312 542.59375 103.347656 C 541.734375 103.003906 540.863281 102.683594 539.980469 102.394531 C 539.101562 102.101562 538.210938 101.839844 537.3125 101.605469 C 536.414062 101.367188 535.511719 101.160156 534.601562 100.984375 C 533.691406 100.804688 532.777344 100.65625 531.855469 100.535156 C 530.9375 100.414062 530.011719 100.324219 529.085938 100.261719 C 528.160156 100.199219 527.234375 100.164062 526.308594 100.160156 C 525.378906 100.15625 524.453125 100.179688 523.527344 100.234375 C 522.601562 100.289062 521.675781 100.371094 520.753906 100.484375 C 519.835938 100.597656 518.917969 100.738281 518.003906 100.90625 C 517.09375 101.078125 516.1875 101.277344 515.289062 101.503906 C 514.386719 101.730469 513.496094 101.984375 512.613281 102.269531 C 511.730469 102.550781 510.855469 102.863281 509.992188 103.199219 C 509.128906 103.539062 508.273438 103.902344 507.433594 104.292969 C 506.59375 104.6875 505.765625 105.105469 504.949219 105.546875 C 504.136719 105.992188 503.335938 106.460938 502.550781 106.957031 C 501.765625 107.449219 500.996094 107.96875 500.246094 108.511719 C 500.007812 107.585938 499.738281 106.671875 499.441406 105.765625 C 499.144531 104.859375 498.816406 103.964844 498.460938 103.078125 C 498.105469 102.195312 497.722656 101.320312 497.308594 100.460938 C 496.898438 99.601562 496.457031 98.753906 495.992188 97.921875 C 495.523438 97.089844 495.03125 96.277344 494.511719 95.476562 C 493.992188 94.675781 493.445312 93.894531 492.875 93.128906 C 492.304688 92.363281 491.710938 91.621094 491.09375 90.894531 C 490.476562 90.167969 489.832031 89.460938 489.167969 88.777344 C 488.503906 88.09375 487.820312 87.429688 487.113281 86.789062 C 486.40625 86.148438 485.679688 85.535156 484.929688 84.941406 C 484.183594 84.347656 483.417969 83.777344 482.632812 83.234375 C 481.851562 82.691406 481.050781 82.175781 480.234375 81.683594 C 479.414062 81.191406 478.582031 80.726562 477.734375 80.289062 C 476.886719 79.851562 476.027344 79.441406 475.152344 79.058594 C 474.28125 78.675781 473.394531 78.324219 472.496094 78 C 471.601562 77.671875 470.695312 77.378906 469.777344 77.113281 C 468.863281 76.847656 467.9375 76.609375 467.007812 76.402344 C 466.078125 76.199219 465.140625 76.019531 464.195312 75.875 C 463.253906 75.730469 462.308594 75.617188 461.359375 75.53125 C 460.40625 75.445312 459.457031 75.394531 458.503906 75.371094 C 457.546875 75.347656 456.59375 75.355469 455.640625 75.394531 C 454.6875 75.433594 453.738281 75.503906 452.789062 75.605469 C 451.839844 75.703125 450.898438 75.835938 449.957031 75.996094 C 449.015625 76.160156 448.082031 76.351562 447.15625 76.574219 C 446.226562 76.796875 445.308594 77.046875 444.398438 77.328125 C 443.484375 77.609375 442.585938 77.921875 441.695312 78.261719 C 440.804688 78.601562 439.921875 78.96875 439.054688 79.367188 C 438.1875 79.765625 437.335938 80.1875 436.496094 80.640625 C 435.65625 81.09375 434.832031 81.570312 434.023438 82.078125 C 433.214844 82.582031 432.421875 83.113281 431.648438 83.671875 C 430.875 84.226562 430.117188 84.808594 429.382812 85.414062 C 428.644531 86.019531 427.929688 86.648438 427.230469 87.300781 C 426.269531 85.609375 425.203125 83.984375 424.027344 82.433594 C 422.851562 80.878906 421.582031 79.410156 420.210938 78.027344 C 418.84375 76.640625 417.386719 75.351562 415.847656 74.160156 C 414.308594 72.964844 412.699219 71.878906 411.015625 70.898438 C 409.332031 69.921875 407.59375 69.054688 405.796875 68.304688 C 404 67.554688 402.160156 66.925781 400.28125 66.417969 C 398.402344 65.910156 396.496094 65.527344 394.566406 65.273438 C 392.636719 65.015625 390.695312 64.886719 388.75 64.886719 C 386.800781 64.886719 384.863281 65.015625 382.933594 65.273438 C 381.003906 65.527344 379.097656 65.910156 377.21875 66.417969 C 375.335938 66.925781 373.5 67.554688 371.703125 68.304688 C 369.90625 69.054688 368.164062 69.921875 366.484375 70.898438 C 364.800781 71.878906 363.1875 72.964844 361.648438 74.160156 C 360.109375 75.351562 358.65625 76.640625 357.289062 78.027344 C 355.917969 79.410156 354.644531 80.878906 353.472656 82.433594 C 352.296875 83.984375 351.226562 85.609375 350.265625 87.300781 C 348.699219 85.835938 347.035156 84.492188 345.269531 83.265625 C 343.507812 82.042969 341.664062 80.953125 339.742188 79.996094 C 337.816406 79.039062 335.835938 78.230469 333.796875 77.5625 C 331.753906 76.894531 329.679688 76.378906 327.5625 76.011719 C 325.445312 75.648438 323.316406 75.4375 321.167969 75.382812 C 319.023438 75.328125 316.882812 75.429688 314.753906 75.683594 C 312.621094 75.941406 310.519531 76.351562 308.449219 76.914062 C 306.375 77.476562 304.355469 78.183594 302.386719 79.042969 C 300.417969 79.898438 298.523438 80.890625 296.699219 82.023438 C 294.875 83.15625 293.140625 84.414062 291.5 85.800781 C 289.859375 87.183594 288.328125 88.679688 286.90625 90.285156 C 285.480469 91.894531 284.183594 93.597656 283.007812 95.390625 C 281.832031 97.1875 280.792969 99.0625 279.890625 101.007812 C 278.988281 102.957031 278.230469 104.960938 277.617188 107.015625 C 277.007812 109.074219 276.546875 111.167969 276.238281 113.292969 C 275.933594 115.417969 275.78125 117.550781 275.785156 119.699219 L 275.785156 136.382812 L 92.054688 136.382812 C 91.164062 136.382812 90.277344 136.425781 89.390625 136.515625 C 88.507812 136.601562 87.628906 136.730469 86.753906 136.90625 C 85.882812 137.078125 85.019531 137.292969 84.167969 137.554688 C 83.316406 137.8125 82.480469 138.109375 81.65625 138.453125 C 80.835938 138.792969 80.03125 139.171875 79.246094 139.589844 C 78.464844 140.011719 77.699219 140.46875 76.960938 140.960938 C 76.222656 141.457031 75.507812 141.984375 74.820312 142.550781 C 74.132812 143.113281 73.472656 143.710938 72.84375 144.339844 C 72.214844 144.96875 71.617188 145.628906 71.054688 146.316406 C 70.488281 147.003906 69.960938 147.71875 69.464844 148.457031 C 68.972656 149.199219 68.515625 149.960938 68.09375 150.746094 C 67.675781 151.53125 67.296875 152.332031 66.953125 153.15625 C 66.613281 153.976562 66.316406 154.8125 66.054688 155.664062 C 65.796875 156.515625 65.582031 157.378906 65.410156 158.25 C 65.234375 159.125 65.105469 160.003906 65.015625 160.890625 C 64.929688 161.773438 64.886719 162.664062 64.886719 163.550781 C 64.886719 164.441406 64.929688 165.328125 65.015625 166.214844 C 65.105469 167.101562 65.234375 167.980469 65.410156 168.851562 C 65.582031 169.726562 65.796875 170.585938 66.054688 171.4375 C 66.316406 172.289062 66.613281 173.125 66.953125 173.949219 C 67.296875 174.769531 67.675781 175.574219 68.09375 176.359375 C 68.515625 177.144531 68.972656 177.90625 69.464844 178.644531 C 69.960938 179.386719 70.488281 180.101562 71.054688 180.789062 C 71.617188 181.476562 72.214844 182.132812 72.84375 182.761719 C 73.472656 183.390625 74.132812 183.988281 74.820312 184.554688 C 75.507812 185.117188 76.222656 185.648438 76.960938 186.140625 C 77.699219 186.636719 78.464844 187.09375 79.246094 187.511719 C 80.03125 187.933594 80.835938 188.3125 81.65625 188.652344 C 82.480469 188.992188 83.316406 189.292969 84.167969 189.550781 C 85.019531 189.808594 85.882812 190.023438 86.753906 190.199219 C 87.628906 190.371094 88.507812 190.503906 89.390625 190.589844 C 90.277344 190.675781 91.164062 190.71875 92.054688 190.71875 L 144.621094 190.71875 L 144.621094 340.324219 L 88.785156 443.308594 L 74.894531 443.308594 C 74.238281 443.308594 73.589844 443.375 72.945312 443.503906 C 72.300781 443.632812 71.671875 443.820312 71.066406 444.074219 C 70.460938 444.324219 69.882812 444.632812 69.335938 445 C 68.789062 445.363281 68.285156 445.777344 67.820312 446.242188 C 67.355469 446.707031 66.941406 447.214844 66.574219 447.761719 C 66.210938 448.304688 65.902344 448.882812 65.648438 449.488281 C 65.398438 450.097656 65.207031 450.722656 65.078125 451.367188 C 64.953125 452.011719 64.886719 452.664062 64.886719 453.320312 L 64.886719 464.757812 C 64.886719 466.046875 64.921875 467.332031 64.984375 468.617188 C 65.050781 469.902344 65.144531 471.183594 65.273438 472.464844 C 65.398438 473.746094 65.558594 475.023438 65.75 476.292969 C 65.9375 477.566406 66.160156 478.835938 66.410156 480.097656 C 66.664062 481.359375 66.945312 482.613281 67.261719 483.859375 C 67.574219 485.109375 67.917969 486.347656 68.292969 487.578125 C 68.667969 488.808594 69.070312 490.03125 69.503906 491.242188 C 69.9375 492.453125 70.402344 493.652344 70.894531 494.84375 C 71.390625 496.03125 71.910156 497.207031 72.460938 498.371094 C 73.011719 499.53125 73.589844 500.679688 74.199219 501.816406 C 74.804688 502.949219 75.441406 504.070312 76.101562 505.171875 C 76.761719 506.277344 77.453125 507.363281 78.167969 508.433594 C 78.882812 509.503906 79.625 510.554688 80.390625 511.585938 C 81.15625 512.621094 81.949219 513.632812 82.765625 514.628906 C 83.582031 515.625 84.421875 516.597656 85.285156 517.550781 C 86.148438 518.503906 87.035156 519.433594 87.945312 520.34375 C 88.855469 521.253906 89.789062 522.140625 90.742188 523.007812 C 91.695312 523.871094 92.667969 524.710938 93.664062 525.527344 C 94.65625 526.34375 95.671875 527.136719 96.703125 527.902344 C 97.738281 528.667969 98.789062 529.410156 99.859375 530.125 C 100.929688 530.839844 102.015625 531.527344 103.121094 532.191406 C 104.222656 532.851562 105.339844 533.488281 106.476562 534.09375 C 107.609375 534.699219 108.757812 535.28125 109.921875 535.832031 C 111.085938 536.382812 112.261719 536.902344 113.449219 537.394531 C 114.636719 537.890625 115.835938 538.351562 117.050781 538.785156 C 118.261719 539.222656 119.480469 539.625 120.710938 540 C 121.945312 540.375 123.183594 540.71875 124.429688 541.03125 C 125.679688 541.34375 126.933594 541.628906 128.195312 541.878906 C 129.457031 542.132812 130.726562 542.351562 131.996094 542.542969 C 133.269531 542.734375 134.546875 542.890625 135.828125 543.019531 C 137.105469 543.144531 138.390625 543.242188 139.675781 543.308594 C 140.960938 543.371094 142.246094 543.402344 143.53125 543.40625 L 165.742188 543.40625 C 167.027344 543.402344 168.316406 543.371094 169.601562 543.308594 C 170.886719 543.242188 172.167969 543.144531 173.449219 543.019531 C 174.730469 542.890625 176.003906 542.734375 177.277344 542.542969 C 178.550781 542.351562 179.816406 542.132812 181.078125 541.878906 C 182.339844 541.628906 183.597656 541.34375 184.84375 541.03125 C 186.09375 540.71875 187.332031 540.375 188.5625 540 C 189.792969 539.625 191.015625 539.222656 192.226562 538.785156 C 193.4375 538.351562 194.636719 537.890625 195.824219 537.394531 C 197.015625 536.902344 198.191406 536.382812 199.351562 535.832031 C 200.515625 535.28125 201.664062 534.699219 202.800781 534.09375 C 203.933594 533.488281 205.054688 532.851562 206.15625 532.191406 C 207.257812 531.527344 208.347656 530.839844 209.414062 530.125 C 210.484375 529.410156 211.535156 528.667969 212.570312 527.902344 C 213.605469 527.136719 214.617188 526.34375 215.613281 525.527344 C 216.605469 524.710938 217.582031 523.871094 218.535156 523.007812 C 219.488281 522.140625 220.417969 521.253906 221.328125 520.34375 C 222.238281 519.433594 223.125 518.503906 223.988281 517.550781 C 224.855469 516.597656 225.695312 515.625 226.511719 514.628906 C 227.328125 513.632812 228.117188 512.621094 228.886719 511.585938 C 229.652344 510.554688 230.394531 509.503906 231.109375 508.433594 C 231.824219 507.363281 232.511719 506.277344 233.175781 505.171875 C 233.835938 504.070312 234.46875 502.949219 235.078125 501.816406 C 235.683594 500.679688 236.261719 499.53125 236.8125 498.371094 C 237.363281 497.207031 237.886719 496.03125 238.378906 494.84375 C 238.871094 493.652344 239.335938 492.453125 239.769531 491.242188 C 240.203125 490.03125 240.609375 488.808594 240.984375 487.578125 C 241.359375 486.347656 241.703125 485.109375 242.015625 483.859375 C 242.328125 482.613281 242.613281 481.359375 242.863281 480.097656 C 243.117188 478.835938 243.335938 477.566406 243.527344 476.292969 C 243.714844 475.023438 243.875 473.746094 244.003906 472.464844 C 244.128906 471.183594 244.226562 469.902344 244.289062 468.617188 C 244.355469 467.332031 244.386719 466.046875 244.390625 464.757812 L 244.390625 453.320312 C 244.390625 452.664062 244.324219 452.011719 244.195312 451.367188 C 244.070312 450.722656 243.878906 450.097656 243.628906 449.488281 C 243.375 448.882812 243.066406 448.304688 242.703125 447.757812 C 242.335938 447.210938 241.921875 446.707031 241.457031 446.242188 C 240.992188 445.777344 240.488281 445.363281 239.941406 444.996094 C 239.394531 444.632812 238.816406 444.324219 238.210938 444.070312 C 237.601562 443.820312 236.976562 443.628906 236.332031 443.503906 C 235.6875 443.375 235.035156 443.308594 234.378906 443.308594 L 220.480469 443.308594 L 164.640625 340.324219 L 164.640625 190.71875 L 256.664062 190.71875 C 253.574219 193.765625 250.816406 197.085938 248.386719 200.679688 C 245.957031 204.273438 243.90625 208.070312 242.234375 212.070312 C 240.558594 216.070312 239.296875 220.199219 238.441406 224.453125 C 237.589844 228.703125 237.164062 233 237.164062 237.335938 L 237.164062 266.203125 C 239.414062 316.839844 264.128906 351.160156 283.992188 378.726562 C 296.460938 396.042969 307.230469 410.992188 307.230469 423.800781 L 307.230469 732.664062 C 307.230469 733.324219 307.296875 733.972656 307.425781 734.617188 C 307.554688 735.261719 307.742188 735.886719 307.996094 736.496094 C 308.246094 737.101562 308.554688 737.679688 308.921875 738.226562 C 309.285156 738.773438 309.699219 739.277344 310.164062 739.742188 C 310.628906 740.207031 311.136719 740.621094 311.679688 740.988281 C 312.226562 741.351562 312.804688 741.660156 313.410156 741.910156 C 314.019531 742.164062 314.644531 742.355469 315.289062 742.480469 C 315.933594 742.609375 316.585938 742.675781 317.242188 742.675781 L 517.433594 742.675781 C 518.089844 742.675781 518.738281 742.609375 519.382812 742.480469 C 520.027344 742.355469 520.65625 742.164062 521.261719 741.910156 C 521.867188 741.660156 522.445312 741.351562 522.992188 740.988281 C 523.539062 740.621094 524.042969 740.207031 524.507812 739.742188 C 524.972656 739.277344 525.386719 738.773438 525.753906 738.226562 C 526.117188 737.679688 526.425781 737.101562 526.679688 736.496094 C 526.929688 735.886719 527.121094 735.261719 527.25 734.617188 C 527.375 733.972656 527.441406 733.324219 527.441406 732.664062 L 527.441406 424.863281 C 527.476562 424.515625 527.5 424.160156 527.5 423.800781 C 527.5 409.871094 533.910156 395.332031 542.027344 376.925781 C 554.039062 349.65625 569.035156 315.726562 570.398438 265.820312 L 570.398438 190.71875 L 642.921875 190.71875 L 642.921875 340.324219 L 587.082031 443.308594 L 573.183594 443.308594 C 572.523438 443.308594 571.875 443.375 571.230469 443.503906 C 570.585938 443.628906 569.960938 443.820312 569.351562 444.070312 C 568.746094 444.324219 568.167969 444.632812 567.621094 444.996094 C 567.074219 445.363281 566.570312 445.777344 566.105469 446.242188 C 565.640625 446.707031 565.226562 447.210938 564.859375 447.757812 C 564.496094 448.304688 564.1875 448.882812 563.933594 449.488281 C 563.683594 450.097656 563.492188 450.722656 563.363281 451.367188 C 563.238281 452.011719 563.171875 452.664062 563.171875 453.320312 L 563.171875 464.757812 C 563.175781 466.046875 563.207031 467.332031 563.273438 468.617188 C 563.335938 469.902344 563.433594 471.183594 563.558594 472.464844 C 563.6875 473.746094 563.84375 475.023438 564.035156 476.292969 C 564.226562 477.566406 564.445312 478.835938 564.699219 480.097656 C 564.949219 481.359375 565.234375 482.613281 565.546875 483.859375 C 565.859375 485.109375 566.203125 486.347656 566.578125 487.578125 C 566.953125 488.808594 567.355469 490.03125 567.792969 491.242188 C 568.226562 492.453125 568.6875 493.652344 569.183594 494.84375 C 569.675781 496.03125 570.199219 497.207031 570.746094 498.371094 C 571.296875 499.53125 571.878906 500.679688 572.484375 501.816406 C 573.089844 502.949219 573.726562 504.070312 574.386719 505.171875 C 575.050781 506.277344 575.738281 507.363281 576.453125 508.433594 C 577.167969 509.503906 577.910156 510.554688 578.675781 511.585938 C 579.441406 512.621094 580.234375 513.632812 581.050781 514.628906 C 581.867188 515.625 582.707031 516.597656 583.570312 517.550781 C 584.4375 518.503906 585.324219 519.433594 586.234375 520.34375 C 587.144531 521.253906 588.074219 522.140625 589.027344 523.007812 C 589.980469 523.871094 590.953125 524.710938 591.949219 525.527344 C 592.945312 526.34375 593.957031 527.136719 594.992188 527.902344 C 596.023438 528.667969 597.078125 529.410156 598.144531 530.125 C 599.214844 530.839844 600.300781 531.527344 601.40625 532.191406 C 602.507812 532.851562 603.628906 533.488281 604.761719 534.09375 C 605.898438 534.699219 607.046875 535.28125 608.207031 535.832031 C 609.371094 536.382812 610.546875 536.902344 611.734375 537.394531 C 612.925781 537.890625 614.125 538.351562 615.335938 538.785156 C 616.546875 539.222656 617.769531 539.625 619 540 C 620.230469 540.375 621.46875 540.71875 622.71875 541.03125 C 623.964844 541.34375 625.21875 541.628906 626.480469 541.878906 C 627.742188 542.132812 629.011719 542.351562 630.285156 542.542969 C 631.554688 542.734375 632.832031 542.890625 634.113281 543.019531 C 635.394531 543.144531 636.675781 543.242188 637.960938 543.308594 C 639.246094 543.371094 640.53125 543.402344 641.820312 543.40625 L 664.027344 543.40625 C 665.316406 543.402344 666.601562 543.371094 667.886719 543.304688 C 669.171875 543.242188 670.453125 543.144531 671.734375 543.019531 C 673.015625 542.890625 674.292969 542.734375 675.566406 542.542969 C 676.835938 542.351562 678.105469 542.132812 679.367188 541.878906 C 680.628906 541.628906 681.882812 541.34375 683.128906 541.03125 C 684.378906 540.71875 685.617188 540.375 686.847656 540 C 688.082031 539.625 689.300781 539.222656 690.511719 538.785156 C 691.722656 538.351562 692.921875 537.890625 694.113281 537.394531 C 695.300781 536.902344 696.476562 536.382812 697.640625 535.832031 C 698.800781 535.28125 699.949219 534.699219 701.085938 534.09375 C 702.21875 533.488281 703.339844 532.851562 704.441406 532.191406 C 705.546875 531.527344 706.632812 530.839844 707.703125 530.125 C 708.773438 529.410156 709.824219 528.667969 710.855469 527.902344 C 711.890625 527.136719 712.902344 526.34375 713.898438 525.527344 C 714.894531 524.710938 715.867188 523.871094 716.820312 523.007812 C 717.773438 522.140625 718.707031 521.253906 719.617188 520.34375 C 720.523438 519.433594 721.414062 518.503906 722.277344 517.550781 C 723.140625 516.597656 723.980469 515.625 724.796875 514.628906 C 725.613281 513.632812 726.40625 512.621094 727.171875 511.585938 C 727.9375 510.554688 728.679688 509.503906 729.394531 508.433594 C 730.109375 507.363281 730.796875 506.277344 731.460938 505.171875 C 732.121094 504.070312 732.757812 502.949219 733.363281 501.816406 C 733.96875 500.679688 734.550781 499.53125 735.101562 498.371094 C 735.652344 497.207031 736.171875 496.03125 736.664062 494.84375 C 737.160156 493.652344 737.621094 492.453125 738.058594 491.242188 C 738.492188 490.03125 738.894531 488.808594 739.269531 487.578125 C 739.644531 486.347656 739.988281 485.109375 740.300781 483.859375 C 740.613281 482.613281 740.898438 481.359375 741.148438 480.097656 C 741.402344 478.835938 741.621094 477.566406 741.8125 476.292969 C 742.003906 475.023438 742.160156 473.746094 742.289062 472.464844 C 742.417969 471.183594 742.511719 469.902344 742.578125 468.617188 C 742.640625 467.332031 742.675781 466.046875 742.675781 464.757812 L 742.675781 453.320312 C 742.675781 452.664062 742.609375 452.011719 742.480469 451.367188 C 742.355469 450.722656 742.164062 450.097656 741.910156 449.488281 C 741.660156 448.882812 741.351562 448.304688 740.988281 447.761719 C 740.621094 447.214844 740.207031 446.707031 739.742188 446.242188 C 739.277344 445.777344 738.773438 445.363281 738.226562 445 C 737.679688 444.632812 737.101562 444.324219 736.496094 444.074219 C 735.886719 443.820312 735.261719 443.632812 734.617188 443.503906 C 733.972656 443.375 733.324219 443.308594 732.664062 443.308594 Z M 224.371094 464.757812 C 224.367188 466.679688 224.273438 468.59375 224.082031 470.503906 C 223.890625 472.414062 223.609375 474.308594 223.234375 476.191406 C 222.855469 478.074219 222.390625 479.933594 221.832031 481.769531 C 221.273438 483.605469 220.625 485.410156 219.890625 487.183594 C 219.15625 488.957031 218.335938 490.691406 217.429688 492.382812 C 216.523438 494.074219 215.535156 495.71875 214.46875 497.316406 C 213.402344 498.910156 212.261719 500.453125 211.042969 501.933594 C 209.824219 503.417969 208.539062 504.839844 207.179688 506.195312 C 205.824219 507.554688 204.402344 508.839844 202.917969 510.058594 C 201.433594 511.277344 199.894531 512.417969 198.300781 513.488281 C 196.703125 514.554688 195.058594 515.539062 193.367188 516.445312 C 191.675781 517.351562 189.941406 518.171875 188.167969 518.90625 C 186.394531 519.640625 184.589844 520.289062 182.753906 520.847656 C 180.917969 521.40625 179.058594 521.875 177.175781 522.25 C 175.292969 522.625 173.398438 522.910156 171.488281 523.097656 C 169.578125 523.289062 167.664062 523.382812 165.742188 523.386719 L 143.53125 523.386719 C 141.613281 523.382812 139.699219 523.289062 137.789062 523.097656 C 135.878906 522.910156 133.980469 522.625 132.097656 522.25 C 130.21875 521.875 128.359375 521.40625 126.519531 520.847656 C 124.683594 520.289062 122.878906 519.640625 121.105469 518.90625 C 119.332031 518.171875 117.601562 517.351562 115.910156 516.445312 C 114.214844 515.539062 112.570312 514.554688 110.976562 513.488281 C 109.378906 512.417969 107.839844 511.277344 106.355469 510.058594 C 104.875 508.839844 103.453125 507.554688 102.09375 506.195312 C 100.738281 504.839844 99.449219 503.417969 98.234375 501.933594 C 97.015625 500.453125 95.871094 498.910156 94.804688 497.316406 C 93.738281 495.71875 92.753906 494.074219 91.847656 492.382812 C 90.941406 490.691406 90.121094 488.957031 89.386719 487.183594 C 88.648438 485.410156 88.003906 483.605469 87.445312 481.769531 C 86.886719 479.933594 86.417969 478.074219 86.042969 476.191406 C 85.667969 474.308594 85.382812 472.414062 85.195312 470.503906 C 85.003906 468.59375 84.90625 466.679688 84.90625 464.757812 L 84.90625 463.328125 L 224.371094 463.328125 Z M 111.554688 443.308594 L 154.628906 363.863281 L 197.703125 443.308594 Z M 722.65625 163.550781 C 722.65625 164.019531 722.609375 164.484375 722.515625 164.945312 C 722.425781 165.40625 722.289062 165.851562 722.109375 166.285156 C 721.929688 166.71875 721.707031 167.132812 721.449219 167.519531 C 721.1875 167.910156 720.890625 168.273438 720.558594 168.605469 C 720.226562 168.9375 719.867188 169.230469 719.476562 169.492188 C 719.085938 169.753906 718.675781 169.972656 718.242188 170.15625 C 717.808594 170.335938 717.359375 170.46875 716.902344 170.5625 C 716.441406 170.65625 715.976562 170.699219 715.507812 170.703125 L 570.367188 170.703125 L 570.367188 156.402344 L 715.507812 156.402344 C 715.976562 156.402344 716.441406 156.449219 716.902344 156.542969 C 717.359375 156.632812 717.808594 156.769531 718.242188 156.949219 C 718.675781 157.128906 719.085938 157.351562 719.476562 157.609375 C 719.867188 157.871094 720.226562 158.167969 720.558594 158.5 C 720.890625 158.832031 721.1875 159.191406 721.449219 159.582031 C 721.707031 159.972656 721.929688 160.382812 722.109375 160.816406 C 722.289062 161.25 722.425781 161.699219 722.515625 162.15625 C 722.609375 162.617188 722.65625 163.082031 722.65625 163.550781 Z M 526.039062 120.179688 C 526.835938 120.179688 527.628906 120.21875 528.421875 120.296875 C 529.214844 120.378906 530 120.496094 530.78125 120.652344 C 531.5625 120.808594 532.332031 121 533.09375 121.230469 C 533.855469 121.464844 534.601562 121.730469 535.339844 122.039062 C 536.074219 122.34375 536.792969 122.683594 537.492188 123.058594 C 538.195312 123.433594 538.878906 123.84375 539.539062 124.285156 C 540.199219 124.726562 540.839844 125.199219 541.453125 125.707031 C 542.070312 126.210938 542.65625 126.746094 543.222656 127.308594 C 543.785156 127.871094 544.316406 128.460938 544.824219 129.074219 C 545.328125 129.691406 545.800781 130.328125 546.242188 130.988281 C 546.6875 131.652344 547.09375 132.332031 547.46875 133.035156 C 547.847656 133.734375 548.1875 134.453125 548.492188 135.191406 C 548.796875 135.925781 549.0625 136.671875 549.296875 137.433594 C 549.527344 138.195312 549.722656 138.96875 549.878906 139.746094 C 550.035156 140.527344 550.152344 141.3125 550.230469 142.105469 C 550.308594 142.898438 550.347656 143.691406 550.347656 144.488281 L 550.347656 218.84375 C 550.347656 219.640625 550.308594 220.433594 550.230469 221.226562 C 550.152344 222.019531 550.039062 222.804688 549.882812 223.585938 C 549.726562 224.367188 549.535156 225.140625 549.300781 225.902344 C 549.070312 226.664062 548.804688 227.410156 548.5 228.148438 C 548.195312 228.882812 547.855469 229.601562 547.480469 230.304688 C 547.105469 231.007812 546.695312 231.6875 546.253906 232.351562 C 545.808594 233.011719 545.335938 233.652344 544.832031 234.265625 C 544.328125 234.882812 543.792969 235.46875 543.230469 236.035156 C 542.667969 236.597656 542.078125 237.128906 541.460938 237.636719 C 540.847656 238.140625 540.207031 238.613281 539.546875 239.058594 C 538.882812 239.5 538.203125 239.90625 537.5 240.28125 C 536.796875 240.660156 536.078125 241 535.34375 241.304688 C 534.605469 241.609375 533.859375 241.875 533.097656 242.105469 C 532.335938 242.339844 531.5625 242.53125 530.78125 242.6875 C 530 242.84375 529.214844 242.957031 528.421875 243.035156 C 527.628906 243.113281 526.835938 243.152344 526.039062 243.152344 C 525.246094 243.152344 524.449219 243.113281 523.65625 243.035156 C 522.867188 242.957031 522.078125 242.84375 521.296875 242.6875 C 520.515625 242.53125 519.746094 242.339844 518.984375 242.105469 C 518.222656 241.875 517.472656 241.609375 516.738281 241.304688 C 516.003906 241 515.285156 240.660156 514.582031 240.28125 C 513.878906 239.90625 513.195312 239.5 512.535156 239.058594 C 511.875 238.613281 511.234375 238.140625 510.617188 237.636719 C 510.003906 237.128906 509.414062 236.597656 508.851562 236.035156 C 508.289062 235.46875 507.753906 234.882812 507.25 234.265625 C 506.746094 233.652344 506.269531 233.011719 505.828125 232.351562 C 505.386719 231.6875 504.976562 231.007812 504.601562 230.304688 C 504.226562 229.601562 503.886719 228.882812 503.582031 228.148438 C 503.277344 227.410156 503.007812 226.664062 502.777344 225.902344 C 502.546875 225.140625 502.355469 224.367188 502.199219 223.585938 C 502.042969 222.804688 501.925781 222.019531 501.847656 221.226562 C 501.769531 220.433594 501.730469 219.640625 501.730469 218.84375 L 501.730469 144.488281 C 501.730469 143.691406 501.773438 142.898438 501.851562 142.105469 C 501.929688 141.3125 502.046875 140.527344 502.203125 139.746094 C 502.359375 138.96875 502.554688 138.195312 502.785156 137.433594 C 503.015625 136.671875 503.285156 135.925781 503.589844 135.191406 C 503.894531 134.453125 504.234375 133.734375 504.609375 133.035156 C 504.984375 132.332031 505.394531 131.652344 505.835938 130.988281 C 506.277344 130.328125 506.753906 129.691406 507.257812 129.074219 C 507.761719 128.460938 508.296875 127.871094 508.859375 127.308594 C 509.421875 126.746094 510.011719 126.210938 510.625 125.707031 C 511.242188 125.199219 511.878906 124.726562 512.542969 124.285156 C 513.203125 123.84375 513.886719 123.433594 514.585938 123.058594 C 515.289062 122.683594 516.007812 122.34375 516.742188 122.039062 C 517.476562 121.730469 518.226562 121.464844 518.988281 121.230469 C 519.75 121 520.519531 120.808594 521.300781 120.652344 C 522.082031 120.496094 522.867188 120.378906 523.660156 120.296875 C 524.449219 120.21875 525.246094 120.179688 526.039062 120.179688 Z M 457.402344 95.390625 C 458.199219 95.390625 458.992188 95.429688 459.785156 95.507812 C 460.578125 95.589844 461.363281 95.707031 462.144531 95.863281 C 462.925781 96.019531 463.695312 96.210938 464.457031 96.441406 C 465.21875 96.675781 465.964844 96.941406 466.703125 97.246094 C 467.4375 97.554688 468.15625 97.894531 468.855469 98.269531 C 469.558594 98.644531 470.242188 99.054688 470.902344 99.496094 C 471.5625 99.9375 472.203125 100.410156 472.816406 100.917969 C 473.433594 101.421875 474.019531 101.957031 474.585938 102.519531 C 475.148438 103.082031 475.679688 103.667969 476.1875 104.285156 C 476.691406 104.898438 477.164062 105.539062 477.605469 106.199219 C 478.050781 106.863281 478.457031 107.542969 478.832031 108.246094 C 479.210938 108.945312 479.550781 109.664062 479.855469 110.402344 C 480.160156 111.136719 480.425781 111.882812 480.660156 112.644531 C 480.890625 113.40625 481.085938 114.179688 481.242188 114.957031 C 481.394531 115.738281 481.515625 116.523438 481.59375 117.316406 C 481.671875 118.109375 481.710938 118.902344 481.710938 119.699219 L 481.710938 194.054688 C 481.710938 194.851562 481.671875 195.644531 481.59375 196.4375 C 481.515625 197.230469 481.402344 198.015625 481.246094 198.796875 C 481.089844 199.578125 480.898438 200.351562 480.664062 201.113281 C 480.433594 201.875 480.167969 202.621094 479.863281 203.359375 C 479.558594 204.09375 479.21875 204.8125 478.84375 205.515625 C 478.464844 206.214844 478.058594 206.898438 477.617188 207.5625 C 477.171875 208.222656 476.699219 208.859375 476.195312 209.476562 C 475.6875 210.09375 475.15625 210.679688 474.59375 211.246094 C 474.03125 211.808594 473.441406 212.339844 472.824219 212.847656 C 472.210938 213.351562 471.570312 213.824219 470.910156 214.265625 C 470.246094 214.710938 469.566406 215.117188 468.863281 215.492188 C 468.160156 215.867188 467.441406 216.210938 466.707031 216.515625 C 465.96875 216.820312 465.222656 217.085938 464.460938 217.316406 C 463.699219 217.546875 462.925781 217.742188 462.144531 217.898438 C 461.363281 218.050781 460.578125 218.167969 459.785156 218.246094 C 458.992188 218.324219 458.199219 218.363281 457.402344 218.363281 C 456.605469 218.363281 455.8125 218.324219 455.019531 218.246094 C 454.226562 218.167969 453.441406 218.050781 452.660156 217.898438 C 451.878906 217.742188 451.109375 217.546875 450.347656 217.316406 C 449.585938 217.085938 448.835938 216.820312 448.101562 216.515625 C 447.367188 216.210938 446.644531 215.867188 445.945312 215.492188 C 445.242188 215.117188 444.558594 214.710938 443.898438 214.265625 C 443.234375 213.824219 442.597656 213.351562 441.980469 212.847656 C 441.367188 212.339844 440.777344 211.808594 440.214844 211.246094 C 439.652344 210.679688 439.117188 210.09375 438.613281 209.476562 C 438.105469 208.859375 437.632812 208.222656 437.191406 207.5625 C 436.75 206.898438 436.339844 206.214844 435.964844 205.515625 C 435.589844 204.8125 435.25 204.09375 434.945312 203.359375 C 434.640625 202.621094 434.371094 201.875 434.140625 201.113281 C 433.910156 200.351562 433.71875 199.578125 433.5625 198.796875 C 433.40625 198.015625 433.289062 197.230469 433.210938 196.4375 C 433.132812 195.644531 433.09375 194.851562 433.09375 194.054688 L 433.09375 119.699219 C 433.09375 118.902344 433.136719 118.109375 433.214844 117.316406 C 433.292969 116.523438 433.410156 115.738281 433.566406 114.957031 C 433.722656 114.179688 433.917969 113.40625 434.148438 112.644531 C 434.378906 111.882812 434.648438 111.136719 434.953125 110.402344 C 435.257812 109.664062 435.597656 108.945312 435.972656 108.246094 C 436.347656 107.542969 436.757812 106.863281 437.199219 106.199219 C 437.640625 105.539062 438.117188 104.898438 438.621094 104.285156 C 439.125 103.667969 439.660156 103.082031 440.222656 102.519531 C 440.785156 101.957031 441.375 101.421875 441.988281 100.917969 C 442.605469 100.410156 443.242188 99.9375 443.90625 99.496094 C 444.566406 99.054688 445.25 98.644531 445.949219 98.269531 C 446.652344 97.894531 447.371094 97.554688 448.105469 97.246094 C 448.839844 96.941406 449.589844 96.675781 450.351562 96.441406 C 451.113281 96.210938 451.882812 96.019531 452.664062 95.863281 C 453.445312 95.707031 454.230469 95.589844 455.023438 95.507812 C 455.8125 95.429688 456.609375 95.390625 457.402344 95.390625 Z M 364.457031 109.214844 C 364.457031 108.417969 364.496094 107.625 364.574219 106.832031 C 364.652344 106.039062 364.769531 105.253906 364.925781 104.472656 C 365.082031 103.691406 365.273438 102.917969 365.503906 102.15625 C 365.734375 101.394531 366.003906 100.648438 366.308594 99.910156 C 366.613281 99.175781 366.953125 98.457031 367.328125 97.753906 C 367.703125 97.054688 368.113281 96.371094 368.554688 95.710938 C 368.996094 95.046875 369.46875 94.410156 369.976562 93.792969 C 370.480469 93.175781 371.015625 92.589844 371.578125 92.027344 C 372.140625 91.460938 372.730469 90.929688 373.34375 90.421875 C 373.960938 89.917969 374.597656 89.445312 375.261719 89.003906 C 375.921875 88.558594 376.605469 88.152344 377.308594 87.777344 C 378.007812 87.402344 378.726562 87.0625 379.464844 86.757812 C 380.199219 86.453125 380.949219 86.183594 381.710938 85.953125 C 382.472656 85.722656 383.242188 85.527344 384.023438 85.371094 C 384.804688 85.21875 385.589844 85.101562 386.382812 85.023438 C 387.175781 84.945312 387.96875 84.90625 388.765625 84.90625 C 389.5625 84.90625 390.355469 84.945312 391.148438 85.023438 C 391.941406 85.101562 392.726562 85.21875 393.507812 85.371094 C 394.289062 85.527344 395.0625 85.722656 395.824219 85.953125 C 396.585938 86.183594 397.332031 86.453125 398.070312 86.757812 C 398.804688 87.0625 399.523438 87.402344 400.226562 87.777344 C 400.929688 88.152344 401.609375 88.558594 402.273438 89.003906 C 402.933594 89.445312 403.574219 89.917969 404.1875 90.421875 C 404.804688 90.929688 405.394531 91.460938 405.957031 92.027344 C 406.519531 92.589844 407.050781 93.175781 407.558594 93.792969 C 408.0625 94.410156 408.535156 95.046875 408.980469 95.710938 C 409.421875 96.371094 409.828125 97.054688 410.207031 97.753906 C 410.582031 98.457031 410.921875 99.175781 411.226562 99.910156 C 411.53125 100.648438 411.796875 101.394531 412.027344 102.15625 C 412.261719 102.917969 412.453125 103.691406 412.609375 104.472656 C 412.765625 105.253906 412.878906 106.039062 412.957031 106.832031 C 413.035156 107.625 413.074219 108.417969 413.074219 109.214844 L 413.074219 172.730469 C 410.742188 172.046875 408.359375 171.6875 405.925781 171.65625 L 364.457031 171.65625 Z M 295.820312 119.699219 C 295.820312 118.902344 295.859375 118.109375 295.9375 117.316406 C 296.015625 116.523438 296.132812 115.738281 296.289062 114.957031 C 296.441406 114.175781 296.636719 113.402344 296.867188 112.640625 C 297.097656 111.878906 297.367188 111.132812 297.671875 110.394531 C 297.976562 109.660156 298.316406 108.941406 298.691406 108.238281 C 299.066406 107.539062 299.476562 106.855469 299.917969 106.195312 C 300.359375 105.53125 300.832031 104.894531 301.339844 104.277344 C 301.84375 103.660156 302.378906 103.074219 302.941406 102.507812 C 303.503906 101.945312 304.09375 101.414062 304.707031 100.90625 C 305.324219 100.402344 305.960938 99.929688 306.625 99.488281 C 307.285156 99.042969 307.96875 98.636719 308.671875 98.261719 C 309.371094 97.886719 310.089844 97.542969 310.828125 97.238281 C 311.5625 96.933594 312.3125 96.667969 313.074219 96.4375 C 313.835938 96.207031 314.605469 96.011719 315.386719 95.855469 C 316.167969 95.703125 316.953125 95.585938 317.746094 95.507812 C 318.539062 95.429688 319.332031 95.390625 320.128906 95.390625 C 320.925781 95.390625 321.71875 95.429688 322.511719 95.507812 C 323.304688 95.585938 324.089844 95.703125 324.871094 95.855469 C 325.652344 96.011719 326.425781 96.207031 327.1875 96.4375 C 327.949219 96.667969 328.695312 96.933594 329.433594 97.238281 C 330.167969 97.542969 330.886719 97.886719 331.589844 98.261719 C 332.289062 98.636719 332.972656 99.042969 333.636719 99.488281 C 334.296875 99.929688 334.9375 100.402344 335.550781 100.90625 C 336.167969 101.414062 336.753906 101.945312 337.320312 102.507812 C 337.882812 103.074219 338.414062 103.660156 338.921875 104.277344 C 339.425781 104.894531 339.898438 105.53125 340.34375 106.195312 C 340.785156 106.855469 341.191406 107.539062 341.566406 108.238281 C 341.945312 108.941406 342.285156 109.660156 342.589844 110.394531 C 342.894531 111.132812 343.160156 111.878906 343.390625 112.640625 C 343.621094 113.402344 343.816406 114.175781 343.972656 114.957031 C 344.125 115.738281 344.242188 116.523438 344.320312 117.316406 C 344.398438 118.109375 344.4375 118.902344 344.4375 119.699219 L 344.4375 171.65625 L 302.851562 171.65625 C 302.625 171.65625 302.402344 171.65625 302.179688 171.65625 C 300.035156 171.65625 297.914062 171.816406 295.820312 172.039062 Z M 84.90625 163.550781 C 84.90625 163.082031 84.953125 162.617188 85.042969 162.15625 C 85.136719 161.699219 85.273438 161.25 85.453125 160.816406 C 85.632812 160.382812 85.851562 159.972656 86.113281 159.582031 C 86.375 159.191406 86.671875 158.832031 87.003906 158.5 C 87.335938 158.167969 87.695312 157.871094 88.085938 157.609375 C 88.476562 157.351562 88.886719 157.128906 89.320312 156.949219 C 89.753906 156.769531 90.199219 156.632812 90.660156 156.542969 C 91.121094 156.449219 91.585938 156.402344 92.054688 156.402344 L 275.800781 156.402344 L 275.800781 170.703125 L 92.054688 170.703125 C 91.585938 170.699219 91.121094 170.65625 90.660156 170.5625 C 90.199219 170.46875 89.753906 170.335938 89.320312 170.15625 C 88.886719 169.972656 88.476562 169.753906 88.085938 169.492188 C 87.695312 169.230469 87.335938 168.9375 87.003906 168.605469 C 86.671875 168.273438 86.375 167.910156 86.113281 167.519531 C 85.851562 167.132812 85.632812 166.71875 85.453125 166.285156 C 85.273438 165.851562 85.136719 165.40625 85.042969 164.945312 C 84.953125 164.484375 84.90625 164.019531 84.90625 163.550781 Z M 523.710938 368.851562 C 515.191406 388.175781 507.800781 404.925781 507.492188 422.644531 C 507.445312 423.023438 507.421875 423.40625 507.421875 423.789062 L 507.421875 722.644531 L 327.25 722.644531 L 327.25 423.800781 C 327.25 404.535156 314.730469 387.152344 300.230469 367.027344 C 280.976562 340.292969 259.144531 309.976562 257.183594 265.761719 L 257.183594 237.335938 C 257.1875 235.84375 257.261719 234.351562 257.410156 232.863281 C 257.554688 231.378906 257.777344 229.902344 258.070312 228.433594 C 258.363281 226.96875 258.726562 225.523438 259.160156 224.09375 C 259.597656 222.664062 260.097656 221.257812 260.671875 219.878906 C 261.246094 218.496094 261.882812 217.148438 262.589844 215.832031 C 263.292969 214.511719 264.0625 213.234375 264.890625 211.992188 C 265.722656 210.75 266.613281 209.550781 267.558594 208.394531 C 268.507812 207.238281 269.511719 206.132812 270.566406 205.078125 C 271.625 204.019531 272.730469 203.015625 273.886719 202.070312 C 275.039062 201.121094 276.238281 200.230469 277.480469 199.402344 C 278.722656 198.570312 280.003906 197.800781 281.320312 197.097656 C 282.640625 196.394531 283.988281 195.753906 285.367188 195.179688 C 286.75 194.609375 288.152344 194.105469 289.582031 193.671875 C 291.011719 193.234375 292.460938 192.871094 293.925781 192.578125 C 295.390625 192.285156 296.867188 192.066406 298.355469 191.917969 C 299.84375 191.769531 301.332031 191.695312 302.828125 191.691406 C 303.035156 191.691406 303.238281 191.691406 303.445312 191.691406 L 405.925781 191.691406 C 406.394531 191.695312 406.859375 191.738281 407.320312 191.832031 C 407.78125 191.921875 408.226562 192.058594 408.660156 192.238281 C 409.09375 192.417969 409.507812 192.640625 409.898438 192.898438 C 410.285156 193.160156 410.648438 193.457031 410.980469 193.789062 C 411.3125 194.121094 411.609375 194.480469 411.867188 194.871094 C 412.128906 195.261719 412.351562 195.675781 412.53125 196.109375 C 412.710938 196.542969 412.84375 196.988281 412.9375 197.449219 C 413.027344 197.910156 413.074219 198.375 413.074219 198.84375 L 413.074219 201.703125 C 413.074219 203.058594 413.007812 204.414062 412.871094 205.765625 C 412.738281 207.117188 412.535156 208.457031 412.269531 209.789062 C 412.003906 211.121094 411.675781 212.4375 411.28125 213.734375 C 410.882812 215.035156 410.425781 216.3125 409.90625 217.566406 C 409.386719 218.820312 408.804688 220.042969 408.164062 221.242188 C 407.523438 222.4375 406.828125 223.601562 406.074219 224.730469 C 405.316406 225.859375 404.511719 226.949219 403.648438 227.996094 C 402.789062 229.046875 401.875 230.050781 400.917969 231.011719 C 399.957031 231.972656 398.953125 232.882812 397.902344 233.742188 C 396.851562 234.605469 395.761719 235.414062 394.636719 236.167969 C 393.507812 236.921875 392.34375 237.621094 391.144531 238.261719 C 389.949219 238.902344 388.722656 239.480469 387.46875 240 C 386.214844 240.523438 384.9375 240.980469 383.640625 241.375 C 382.339844 241.769531 381.027344 242.101562 379.695312 242.367188 C 378.363281 242.632812 377.023438 242.832031 375.671875 242.96875 C 374.320312 243.101562 372.964844 243.167969 371.605469 243.171875 L 344.914062 243.171875 C 344.257812 243.171875 343.605469 243.234375 342.960938 243.363281 C 342.316406 243.492188 341.691406 243.679688 341.082031 243.933594 C 340.476562 244.183594 339.898438 244.492188 339.351562 244.859375 C 338.804688 245.222656 338.300781 245.636719 337.835938 246.101562 C 337.371094 246.566406 336.957031 247.074219 336.589844 247.621094 C 336.226562 248.164062 335.917969 248.742188 335.664062 249.351562 C 335.414062 249.957031 335.222656 250.582031 335.097656 251.226562 C 334.96875 251.871094 334.902344 252.523438 334.902344 253.179688 C 334.902344 253.835938 334.96875 254.488281 335.097656 255.132812 C 335.222656 255.777344 335.414062 256.402344 335.664062 257.011719 C 335.917969 257.617188 336.226562 258.195312 336.589844 258.742188 C 336.957031 259.289062 337.371094 259.792969 337.835938 260.257812 C 338.300781 260.722656 338.804688 261.136719 339.351562 261.503906 C 339.898438 261.867188 340.476562 262.175781 341.082031 262.429688 C 341.691406 262.679688 342.316406 262.871094 342.960938 262.996094 C 343.605469 263.125 344.257812 263.191406 344.914062 263.191406 L 361.375 263.191406 C 364.152344 265.382812 366.792969 267.726562 369.304688 270.21875 C 371.8125 272.714844 374.171875 275.34375 376.378906 278.105469 C 378.589844 280.867188 380.636719 283.75 382.515625 286.746094 C 384.398438 289.742188 386.101562 292.835938 387.628906 296.027344 C 389.15625 299.214844 390.5 302.484375 391.652344 305.828125 C 392.808594 309.171875 393.769531 312.570312 394.539062 316.023438 C 395.304688 319.476562 395.875 322.964844 396.246094 326.480469 C 396.613281 330 396.785156 333.527344 396.75 337.066406 C 396.753906 337.722656 396.816406 338.371094 396.945312 339.015625 C 397.078125 339.660156 397.265625 340.285156 397.519531 340.890625 C 397.769531 341.496094 398.078125 342.070312 398.445312 342.617188 C 398.808594 343.164062 399.226562 343.667969 399.691406 344.132812 C 400.15625 344.59375 400.660156 345.007812 401.207031 345.375 C 401.753906 345.738281 402.328125 346.046875 402.933594 346.296875 C 403.542969 346.546875 404.167969 346.734375 404.808594 346.863281 C 405.453125 346.992188 406.105469 347.054688 406.761719 347.054688 C 407.417969 347.054688 408.066406 346.992188 408.710938 346.863281 C 409.355469 346.734375 409.980469 346.546875 410.585938 346.296875 C 411.195312 346.046875 411.769531 345.738281 412.316406 345.375 C 412.863281 345.007812 413.367188 344.59375 413.832031 344.132812 C 414.296875 343.667969 414.710938 343.164062 415.078125 342.617188 C 415.441406 342.070312 415.75 341.496094 416.003906 340.890625 C 416.253906 340.285156 416.445312 339.660156 416.574219 339.015625 C 416.703125 338.371094 416.769531 337.722656 416.769531 337.066406 C 416.769531 333.597656 416.613281 330.136719 416.304688 326.683594 C 415.996094 323.230469 415.53125 319.800781 414.914062 316.386719 C 414.296875 312.976562 413.527344 309.597656 412.605469 306.253906 C 411.6875 302.914062 410.617188 299.617188 409.402344 296.371094 C 408.1875 293.125 406.828125 289.9375 405.328125 286.8125 C 403.828125 283.6875 402.191406 280.632812 400.417969 277.65625 C 398.640625 274.675781 396.738281 271.78125 394.707031 268.972656 C 392.671875 266.164062 390.515625 263.453125 388.242188 260.839844 C 390.398438 260.226562 392.511719 259.5 394.589844 258.660156 C 396.667969 257.816406 398.691406 256.867188 400.667969 255.804688 C 402.640625 254.742188 404.550781 253.574219 406.394531 252.304688 C 408.242188 251.035156 410.011719 249.667969 411.710938 248.203125 C 413.40625 246.738281 415.019531 245.1875 416.550781 243.550781 C 418.078125 241.910156 419.511719 240.191406 420.851562 238.398438 C 422.195312 236.601562 423.433594 234.738281 424.570312 232.808594 C 425.710938 230.875 426.738281 228.890625 427.660156 226.847656 C 428.585938 227.695312 429.546875 228.5 430.542969 229.265625 C 431.535156 230.03125 432.5625 230.753906 433.617188 231.429688 C 434.675781 232.109375 435.757812 232.738281 436.871094 233.324219 C 437.980469 233.910156 439.113281 234.445312 440.269531 234.933594 C 441.425781 235.421875 442.601562 235.859375 443.796875 236.246094 C 444.988281 236.636719 446.199219 236.972656 447.417969 237.253906 C 448.640625 237.539062 449.875 237.769531 451.117188 237.949219 C 452.359375 238.128906 453.605469 238.253906 454.859375 238.328125 C 456.113281 238.398438 457.367188 238.417969 458.621094 238.382812 C 459.875 238.347656 461.128906 238.257812 462.375 238.117188 C 463.621094 237.976562 464.859375 237.78125 466.089844 237.535156 C 467.320312 237.285156 468.539062 236.984375 469.746094 236.632812 C 470.949219 236.28125 472.136719 235.878906 473.308594 235.425781 C 474.476562 234.972656 475.625 234.46875 476.753906 233.917969 C 477.882812 233.367188 478.984375 232.765625 480.058594 232.121094 C 481.136719 231.476562 482.183594 230.785156 483.199219 230.050781 C 483.417969 230.898438 483.664062 231.738281 483.933594 232.570312 C 484.203125 233.40625 484.496094 234.230469 484.816406 235.046875 C 485.136719 235.859375 485.476562 236.667969 485.84375 237.460938 C 486.210938 238.257812 486.601562 239.042969 487.015625 239.8125 C 487.425781 240.585938 487.863281 241.34375 488.320312 242.09375 C 488.777344 242.839844 489.257812 243.570312 489.761719 244.289062 C 490.261719 245.007812 490.785156 245.707031 491.328125 246.394531 C 491.871094 247.082031 492.4375 247.753906 493.019531 248.40625 C 493.601562 249.058594 494.203125 249.695312 494.824219 250.3125 C 495.445312 250.929688 496.085938 251.527344 496.742188 252.109375 C 497.398438 252.6875 498.074219 253.246094 498.761719 253.789062 C 499.453125 254.328125 500.15625 254.84375 500.878906 255.34375 C 501.597656 255.839844 502.335938 256.316406 503.082031 256.769531 C 503.832031 257.226562 504.59375 257.65625 505.367188 258.066406 C 506.144531 258.472656 506.929688 258.859375 507.726562 259.222656 C 508.523438 259.582031 509.332031 259.921875 510.148438 260.234375 C 510.96875 260.550781 511.792969 260.839844 512.628906 261.105469 C 513.464844 261.367188 514.304688 261.609375 515.15625 261.824219 C 516.003906 262.039062 516.859375 262.226562 517.71875 262.390625 C 518.578125 262.554688 519.445312 262.695312 520.3125 262.808594 C 521.179688 262.921875 522.050781 263.007812 522.925781 263.066406 C 523.800781 263.128906 524.675781 263.164062 525.550781 263.171875 C 526.425781 263.183594 527.300781 263.164062 528.175781 263.121094 C 529.050781 263.078125 529.925781 263.007812 530.792969 262.914062 C 531.664062 262.820312 532.53125 262.699219 533.394531 262.554688 C 534.261719 262.40625 535.117188 262.234375 535.972656 262.039062 C 536.824219 261.839844 537.671875 261.617188 538.511719 261.371094 C 539.351562 261.121094 540.183594 260.847656 541.007812 260.550781 C 541.832031 260.253906 542.644531 259.933594 543.449219 259.585938 C 544.257812 259.242188 545.050781 258.875 545.832031 258.480469 C 546.617188 258.085938 547.386719 257.671875 548.144531 257.234375 C 548.902344 256.792969 549.648438 256.335938 550.378906 255.851562 L 550.378906 265.574219 C 549.132812 311.222656 535.039062 343.152344 523.710938 368.851562 Z M 652.933594 363.863281 L 696.007812 443.308594 L 609.855469 443.308594 Z M 722.65625 464.757812 C 722.65625 466.679688 722.558594 468.59375 722.367188 470.503906 C 722.179688 472.414062 721.894531 474.308594 721.519531 476.191406 C 721.144531 478.074219 720.675781 479.933594 720.117188 481.769531 C 719.558594 483.605469 718.914062 485.410156 718.175781 487.183594 C 717.441406 488.957031 716.621094 490.691406 715.714844 492.382812 C 714.808594 494.074219 713.824219 495.71875 712.757812 497.316406 C 711.691406 498.910156 710.546875 500.453125 709.328125 501.933594 C 708.113281 503.417969 706.824219 504.839844 705.464844 506.195312 C 704.109375 507.554688 702.6875 508.839844 701.203125 510.058594 C 699.722656 511.277344 698.183594 512.417969 696.585938 513.488281 C 694.988281 514.554688 693.347656 515.539062 691.652344 516.445312 C 689.960938 517.351562 688.226562 518.171875 686.453125 518.90625 C 684.683594 519.640625 682.878906 520.289062 681.039062 520.847656 C 679.203125 521.40625 677.34375 521.875 675.460938 522.25 C 673.578125 522.625 671.683594 522.910156 669.773438 523.097656 C 667.863281 523.289062 665.949219 523.382812 664.027344 523.386719 L 641.820312 523.386719 C 639.898438 523.382812 637.984375 523.289062 636.074219 523.097656 C 634.164062 522.910156 632.269531 522.625 630.386719 522.25 C 628.503906 521.875 626.644531 521.40625 624.808594 520.847656 C 622.972656 520.289062 621.167969 519.640625 619.394531 518.90625 C 617.621094 518.171875 615.886719 517.351562 614.195312 516.445312 C 612.503906 515.539062 610.859375 514.554688 609.261719 513.488281 C 607.667969 512.417969 606.128906 511.277344 604.644531 510.058594 C 603.160156 508.839844 601.738281 507.554688 600.382812 506.195312 C 599.023438 504.839844 597.738281 503.417969 596.519531 501.933594 C 595.300781 500.453125 594.160156 498.910156 593.089844 497.316406 C 592.023438 495.71875 591.039062 494.074219 590.132812 492.382812 C 589.226562 490.691406 588.40625 488.957031 587.671875 487.183594 C 586.9375 485.410156 586.289062 483.605469 585.730469 481.769531 C 585.171875 479.933594 584.703125 478.074219 584.328125 476.191406 C 583.953125 474.308594 583.671875 472.414062 583.480469 470.503906 C 583.289062 468.59375 583.195312 466.679688 583.191406 464.757812 L 583.191406 463.328125 L 722.65625 463.328125 Z M 722.65625 464.757812 " fill-opacity="1" fill-rule="nonzero"/></g><path fill="#e60003" d="M 483.140625 608.261719 C 482.484375 608.261719 481.835938 608.324219 481.191406 608.453125 C 480.546875 608.582031 479.917969 608.773438 479.3125 609.023438 C 478.703125 609.273438 478.128906 609.582031 477.582031 609.949219 C 477.035156 610.3125 476.527344 610.730469 476.066406 611.191406 C 475.601562 611.65625 475.183594 612.164062 474.820312 612.710938 C 474.453125 613.257812 474.144531 613.832031 473.894531 614.441406 C 473.644531 615.046875 473.453125 615.671875 473.324219 616.320312 C 473.195312 616.964844 473.132812 617.613281 473.132812 618.269531 L 473.132812 652.589844 C 473.132812 653.246094 473.195312 653.898438 473.324219 654.542969 C 473.453125 655.1875 473.644531 655.8125 473.894531 656.421875 C 474.144531 657.027344 474.453125 657.605469 474.820312 658.152344 C 475.183594 658.695312 475.601562 659.203125 476.066406 659.667969 C 476.527344 660.132812 477.035156 660.546875 477.582031 660.914062 C 478.128906 661.277344 478.703125 661.585938 479.3125 661.835938 C 479.917969 662.089844 480.546875 662.277344 481.191406 662.40625 C 481.835938 662.535156 482.484375 662.597656 483.140625 662.597656 C 483.800781 662.597656 484.449219 662.535156 485.09375 662.40625 C 485.738281 662.277344 486.367188 662.089844 486.972656 661.835938 C 487.578125 661.585938 488.15625 661.277344 488.703125 660.914062 C 489.25 660.546875 489.753906 660.132812 490.21875 659.667969 C 490.683594 659.203125 491.101562 658.695312 491.464844 658.152344 C 491.828125 657.605469 492.136719 657.027344 492.390625 656.421875 C 492.640625 655.8125 492.832031 655.1875 492.960938 654.542969 C 493.085938 653.898438 493.152344 653.246094 493.152344 652.589844 L 493.152344 618.269531 C 493.152344 617.613281 493.085938 616.964844 492.960938 616.316406 C 492.832031 615.671875 492.640625 615.046875 492.390625 614.441406 C 492.136719 613.832031 491.828125 613.257812 491.464844 612.710938 C 491.101562 612.164062 490.683594 611.65625 490.21875 611.191406 C 489.753906 610.730469 489.25 610.3125 488.703125 609.949219 C 488.15625 609.582031 487.578125 609.273438 486.972656 609.023438 C 486.367188 608.773438 485.738281 608.582031 485.09375 608.453125 C 484.449219 608.324219 483.800781 608.261719 483.140625 608.261719 Z M 483.140625 608.261719 " fill-opacity="1" fill-rule="nonzero"/></svg>