<svg xmlns="http://www.w3.org/2000/svg" xmlns:xlink="http://www.w3.org/1999/xlink" width="1080" zoomAndPan="magnify" viewBox="0 0 810 809.999993" height="1080" preserveAspectRatio="xMidYMid meet" version="1.0"><defs><clipPath id="b48ee02557"><path d="M 64.445312 68.699219 L 752 68.699219 L 752 747.449219 L 64.445312 747.449219 Z M 64.445312 68.699219 " clip-rule="nonzero"/></clipPath></defs><g clipPath="url(#b48ee02557)"><path fill="#e60003" d="M 686.167969 133.304688 L 638.535156 133.304688 L 638.535156 78.625 C 638.535156 73.246094 634.171875 68.882812 628.792969 68.882812 L 556.835938 68.882812 C 551.457031 68.882812 547.097656 73.246094 547.097656 78.625 L 547.097656 133.304688 L 453.890625 133.304688 L 453.890625 78.625 C 453.890625 73.246094 449.53125 68.882812 444.148438 68.882812 L 372.195312 68.882812 C 366.8125 68.882812 362.453125 73.246094 362.453125 78.625 L 362.453125 133.304688 L 269.246094 133.304688 L 269.246094 78.625 C 269.246094 73.246094 264.886719 68.882812 259.507812 68.882812 L 187.550781 68.882812 C 182.171875 68.882812 177.808594 73.246094 177.808594 78.625 L 177.808594 133.304688 L 130.179688 133.304688 C 93.933594 133.304688 64.445312 162.792969 64.445312 199.039062 L 64.445312 681.652344 C 64.445312 717.898438 93.933594 747.386719 130.175781 747.386719 L 686.164062 747.386719 C 722.410156 747.386719 751.898438 717.898438 751.898438 681.652344 L 751.898438 199.039062 C 751.902344 162.792969 722.414062 133.304688 686.167969 133.304688 Z M 566.578125 88.367188 L 619.050781 88.367188 L 619.050781 196.507812 L 566.578125 196.507812 Z M 381.933594 88.367188 L 434.410156 88.367188 L 434.410156 196.507812 L 381.933594 196.507812 Z M 197.292969 88.367188 L 249.765625 88.367188 L 249.765625 196.507812 L 197.292969 196.507812 Z M 130.179688 152.789062 L 177.808594 152.789062 L 177.808594 206.246094 C 177.808594 211.628906 182.171875 215.988281 187.550781 215.988281 L 259.507812 215.988281 C 264.890625 215.988281 269.25 211.628906 269.25 206.246094 L 269.25 152.789062 L 362.457031 152.789062 L 362.457031 206.246094 C 362.457031 211.628906 366.816406 215.988281 372.195312 215.988281 L 444.152344 215.988281 C 449.53125 215.988281 453.894531 211.628906 453.894531 206.246094 L 453.894531 152.789062 L 547.097656 152.789062 L 547.097656 206.246094 C 547.097656 211.628906 551.460938 215.988281 556.839844 215.988281 L 628.796875 215.988281 C 634.175781 215.988281 638.539062 211.628906 638.539062 206.246094 L 638.539062 152.789062 L 686.167969 152.789062 C 711.667969 152.789062 732.417969 173.535156 732.417969 199.039062 L 732.417969 257.367188 L 83.925781 257.367188 L 83.925781 199.039062 C 83.925781 173.535156 104.675781 152.789062 130.179688 152.789062 Z M 686.167969 727.902344 L 130.179688 727.902344 C 104.675781 727.902344 83.925781 707.15625 83.925781 681.652344 L 83.925781 276.847656 L 732.417969 276.847656 L 732.417969 681.652344 C 732.417969 707.15625 711.667969 727.902344 686.167969 727.902344 Z M 518.089844 604.113281 L 450.203125 604.113281 C 444.824219 604.113281 440.464844 608.476562 440.464844 613.855469 L 440.464844 681.738281 C 440.464844 687.121094 444.824219 691.480469 450.203125 691.480469 L 518.089844 691.480469 C 523.46875 691.480469 527.832031 687.121094 527.832031 681.738281 L 527.832031 613.855469 C 527.832031 608.476562 523.46875 604.113281 518.089844 604.113281 Z M 508.347656 672 L 459.945312 672 L 459.945312 623.597656 L 508.347656 623.597656 Z M 366.140625 604.113281 L 298.257812 604.113281 C 292.878906 604.113281 288.515625 608.476562 288.515625 613.855469 L 288.515625 681.738281 C 288.515625 687.121094 292.878906 691.480469 298.257812 691.480469 L 366.140625 691.480469 C 371.523438 691.480469 375.882812 687.121094 375.882812 681.738281 L 375.882812 613.855469 C 375.882812 608.476562 371.523438 604.113281 366.140625 604.113281 Z M 356.398438 672 L 308 672 L 308 623.597656 L 356.398438 623.597656 Z M 214.195312 604.113281 L 146.308594 604.113281 C 140.929688 604.113281 136.570312 608.476562 136.570312 613.855469 L 136.570312 681.738281 C 136.570312 687.121094 140.929688 691.480469 146.308594 691.480469 L 214.195312 691.480469 C 219.574219 691.480469 223.9375 687.121094 223.9375 681.738281 L 223.9375 613.855469 C 223.9375 608.476562 219.574219 604.113281 214.195312 604.113281 Z M 204.453125 672 L 156.050781 672 L 156.050781 623.597656 L 204.453125 623.597656 Z M 670.035156 604.113281 L 602.152344 604.113281 C 596.769531 604.113281 592.410156 608.476562 592.410156 613.855469 L 592.410156 681.738281 C 592.410156 687.121094 596.769531 691.480469 602.152344 691.480469 L 670.035156 691.480469 C 675.414062 691.480469 679.777344 687.121094 679.777344 681.738281 L 679.777344 613.855469 C 679.777344 608.476562 675.414062 604.113281 670.035156 604.113281 Z M 660.292969 672 L 611.890625 672 L 611.890625 623.597656 L 660.292969 623.597656 Z M 518.089844 458.066406 L 450.203125 458.066406 C 444.824219 458.066406 440.464844 462.429688 440.464844 467.808594 L 440.464844 535.691406 C 440.464844 541.074219 444.824219 545.433594 450.203125 545.433594 L 518.089844 545.433594 C 523.46875 545.433594 527.832031 541.074219 527.832031 535.691406 L 527.832031 467.808594 C 527.832031 462.429688 523.46875 458.066406 518.089844 458.066406 Z M 508.347656 525.953125 L 459.945312 525.953125 L 459.945312 477.550781 L 508.347656 477.550781 Z M 366.140625 458.066406 L 298.257812 458.066406 C 292.878906 458.066406 288.515625 462.429688 288.515625 467.808594 L 288.515625 535.691406 C 288.515625 541.074219 292.878906 545.433594 298.257812 545.433594 L 366.140625 545.433594 C 371.523438 545.433594 375.882812 541.074219 375.882812 535.691406 L 375.882812 467.808594 C 375.882812 462.429688 371.523438 458.066406 366.140625 458.066406 Z M 356.398438 525.953125 L 308 525.953125 L 308 477.550781 L 356.398438 477.550781 Z M 214.195312 458.066406 L 146.308594 458.066406 C 140.929688 458.066406 136.570312 462.429688 136.570312 467.808594 L 136.570312 535.691406 C 136.570312 541.074219 140.929688 545.433594 146.308594 545.433594 L 214.195312 545.433594 C 219.574219 545.433594 223.9375 541.074219 223.9375 535.691406 L 223.9375 467.808594 C 223.9375 462.429688 219.574219 458.066406 214.195312 458.066406 Z M 204.453125 525.953125 L 156.050781 525.953125 L 156.050781 477.550781 L 204.453125 477.550781 Z M 670.035156 458.066406 L 602.152344 458.066406 C 596.769531 458.066406 592.410156 462.429688 592.410156 467.808594 L 592.410156 535.691406 C 592.410156 541.074219 596.769531 545.433594 602.152344 545.433594 L 670.035156 545.433594 C 675.414062 545.433594 679.777344 541.074219 679.777344 535.691406 L 679.777344 467.808594 C 679.777344 462.429688 675.414062 458.066406 670.035156 458.066406 Z M 660.292969 525.953125 L 611.890625 525.953125 L 611.890625 477.550781 L 660.292969 477.550781 Z M 450.203125 399.386719 L 518.085938 399.386719 C 523.46875 399.386719 527.828125 395.027344 527.828125 389.648438 L 527.828125 321.761719 C 527.828125 316.382812 523.46875 312.019531 518.085938 312.019531 L 450.203125 312.019531 C 444.824219 312.019531 440.460938 316.382812 440.460938 321.761719 L 440.460938 389.648438 C 440.460938 395.027344 444.824219 399.386719 450.203125 399.386719 Z M 459.945312 331.503906 L 508.347656 331.503906 L 508.347656 379.902344 L 459.945312 379.902344 Z M 366.140625 312.019531 L 298.257812 312.019531 C 292.878906 312.019531 288.515625 316.382812 288.515625 321.761719 L 288.515625 389.644531 C 288.515625 395.027344 292.878906 399.386719 298.257812 399.386719 L 366.140625 399.386719 C 371.523438 399.386719 375.882812 395.027344 375.882812 389.644531 L 375.882812 321.761719 C 375.882812 316.382812 371.523438 312.019531 366.140625 312.019531 Z M 356.398438 379.90625 L 308 379.90625 L 308 331.503906 L 356.398438 331.503906 Z M 214.195312 312.019531 L 146.308594 312.019531 C 140.929688 312.019531 136.570312 316.382812 136.570312 321.761719 L 136.570312 389.644531 C 136.570312 395.027344 140.929688 399.386719 146.308594 399.386719 L 214.195312 399.386719 C 219.574219 399.386719 223.9375 395.027344 223.9375 389.644531 L 223.9375 321.761719 C 223.9375 316.382812 219.574219 312.019531 214.195312 312.019531 Z M 204.453125 379.90625 L 156.050781 379.90625 L 156.050781 331.503906 L 204.453125 331.503906 Z M 670.035156 312.019531 L 602.152344 312.019531 C 596.769531 312.019531 592.410156 316.382812 592.410156 321.761719 L 592.410156 389.644531 C 592.410156 395.027344 596.769531 399.386719 602.152344 399.386719 L 670.035156 399.386719 C 675.414062 399.386719 679.777344 395.027344 679.777344 389.644531 L 679.777344 321.761719 C 679.777344 316.382812 675.414062 312.019531 670.035156 312.019531 Z M 660.292969 379.90625 L 611.890625 379.90625 L 611.890625 331.503906 L 660.292969 331.503906 Z M 484.144531 414.300781 C 435.925781 414.300781 396.695312 453.527344 396.695312 501.75 C 396.695312 549.96875 435.925781 589.199219 484.144531 589.199219 C 532.367188 589.199219 571.597656 549.96875 571.597656 501.75 C 571.597656 453.527344 532.367188 414.300781 484.144531 414.300781 Z M 484.144531 569.71875 C 446.667969 569.71875 416.179688 539.230469 416.179688 501.75 C 416.179688 464.273438 446.667969 433.785156 484.144531 433.785156 C 521.625 433.785156 552.113281 464.273438 552.113281 501.75 C 552.113281 539.230469 521.625 569.71875 484.144531 569.71875 Z M 484.144531 569.71875 " fill-opacity="1" fill-rule="nonzero"/></g></svg>