<svg xmlns="http://www.w3.org/2000/svg" xmlns:xlink="http://www.w3.org/1999/xlink" width="1080" zoomAndPan="magnify" viewBox="0 0 810 809.999993" height="1080" preserveAspectRatio="xMidYMid meet" version="1.0"><defs><clipPath id="4e033858d9"><path d="M 51 81 L 759 81 L 759 718 L 51 718 Z M 51 81 " clip-rule="nonzero"/></clipPath></defs><g clip-path="url(#4e033858d9)"><path fill="#e60003" d="M 75.734375 641.347656 C 194.910156 641.402344 314.035156 641.402344 433.261719 641.347656 C 435.917969 663.9375 447.277344 683.769531 463.847656 697.597656 L 137.925781 697.597656 C 104.964844 697.597656 81.179688 672.632812 75.734375 641.347656 Z M 672.265625 101.101562 C 705.230469 101.101562 729.058594 126.058594 734.503906 157.339844 L 606.714844 157.339844 C 611.550781 125.324219 638.785156 101.101562 672.265625 101.101562 Z M 229.929688 101.101562 L 616.636719 101.101562 C 597.917969 116.796875 585.683594 140.25 585.683594 166.464844 L 585.628906 631.203125 C 585.628906 668.039062 556.359375 697.402344 519.566406 697.597656 C 519.515625 697.597656 519.480469 697.597656 519.425781 697.597656 C 519.371094 697.597656 519.335938 697.597656 519.238281 697.597656 C 482.554688 697.597656 453.320312 668.496094 452.898438 631.957031 C 453.28125 626.59375 449.929688 620.960938 442.699219 621.113281 L 163.582031 621.113281 L 163.582031 167.503906 C 163.582031 130.578125 192.949219 101.101562 229.929688 101.101562 Z M 229.929688 80.855469 C 182.109375 80.855469 143.289062 119.683594 143.289062 167.496094 L 143.289062 621.105469 L 61.390625 621.105469 C 54.410156 621.105469 51.335938 626.449219 51.335938 631.195312 C 51.335938 679.015625 90.117188 717.832031 137.925781 717.832031 L 519.246094 717.832031 C 572.507812 717.832031 604.632812 672.214844 605.882812 631.195312 L 605.882812 177.585938 L 748.804688 177.585938 C 754.390625 177.585938 758.949219 173.070312 758.949219 167.496094 C 758.949219 119.675781 720.121094 80.855469 672.277344 80.855469 Z M 229.929688 80.855469 " fill-opacity="1" fill-rule="evenodd"/></g><path fill="#e60003" d="M 675.289062 298.671875 L 704.390625 298.671875 L 704.847656 664.542969 L 690.5625 683.714844 L 675.761719 664.113281 Z M 664.167969 278.433594 C 658.949219 278.945312 655.042969 283.316406 655.042969 288.488281 L 655.515625 667.539062 C 655.515625 669.703125 656.214844 671.847656 657.5625 673.617188 L 682.421875 706.679688 C 686.523438 712.121094 694.621094 712.078125 698.671875 706.625 L 723.144531 673.910156 C 724.449219 672.132812 725.152344 670.050781 725.101562 667.851562 L 724.644531 288.488281 C 724.644531 282.902344 720.070312 278.378906 714.480469 278.433594 L 665.144531 278.433594 C 664.8125 278.378906 664.480469 278.378906 664.167969 278.433594 Z M 664.167969 278.433594 " fill-opacity="1" fill-rule="nonzero"/><path fill="#e60003" d="M 667.046875 241.742188 C 653.550781 241.742188 654.570312 261.988281 668.109375 261.988281 L 712.070312 261.988281 C 726.066406 261.988281 726.066406 241.742188 712.070312 241.742188 Z M 667.046875 241.742188 " fill-opacity="1" fill-rule="nonzero"/><path fill="#e60003" d="M 258.03125 227.550781 C 235.496094 227.550781 216.976562 245.945312 216.976562 268.46875 L 216.976562 329.695312 C 216.976562 352.183594 235.496094 370.515625 258.03125 370.515625 L 317.816406 370.515625 C 340.339844 370.515625 358.914062 352.175781 358.914062 329.695312 L 358.914062 313.113281 C 358.914062 299.582031 338.625 299.582031 338.625 313.113281 L 338.625 329.695312 C 338.625 341.242188 329.527344 350.277344 317.816406 350.277344 L 258.03125 350.277344 C 246.300781 350.277344 237.273438 341.242188 237.273438 329.695312 L 237.273438 268.46875 C 237.273438 256.882812 246.3125 247.847656 258.03125 247.847656 L 314 247.847656 C 327.550781 247.847656 327.550781 227.550781 314 227.550781 Z M 258.03125 227.550781 " fill-opacity="1" fill-rule="nonzero"/><path fill="#e60003" d="M 365.011719 235.925781 C 362.355469 235.96875 359.84375 237.078125 357.992188 238.945312 L 293.28125 303.425781 L 273.027344 283.304688 C 269.113281 279.023438 262.453125 278.835938 258.359375 282.9375 C 254.257812 287.03125 254.402344 293.691406 258.691406 297.617188 L 286.148438 324.941406 C 290.089844 328.84375 296.445312 328.84375 300.394531 324.941406 L 372.320312 253.292969 C 378.855469 246.820312 374.136719 235.738281 365.011719 235.925781 Z M 365.011719 235.925781 " fill-opacity="1" fill-rule="nonzero"/><path fill="#e60003" d="M 400.164062 350.269531 C 394.433594 350.039062 389.632812 354.640625 389.632812 360.414062 C 389.632812 366.152344 394.433594 370.738281 400.164062 370.515625 L 521.890625 370.515625 C 527.621094 370.738281 532.421875 366.152344 532.421875 360.414062 C 532.421875 354.640625 527.621094 350.039062 521.890625 350.269531 Z M 400.164062 350.269531 " fill-opacity="1" fill-rule="nonzero"/><path fill="#e60003" d="M 435.863281 227.550781 C 430.242188 227.550781 425.664062 232.109375 425.664062 237.695312 C 425.664062 243.335938 430.242188 247.847656 435.863281 247.847656 L 521.890625 247.847656 C 535.441406 247.847656 535.441406 227.550781 521.890625 227.550781 Z M 435.863281 227.550781 " fill-opacity="1" fill-rule="nonzero"/><path fill="#e60003" d="M 400.164062 309.34375 C 394.433594 309.15625 389.632812 313.722656 389.632812 319.488281 C 389.632812 325.226562 394.433594 329.828125 400.164062 329.597656 L 521.890625 329.597656 C 527.621094 329.828125 532.421875 325.226562 532.421875 319.488281 C 532.421875 313.722656 527.621094 309.15625 521.890625 309.34375 Z M 400.164062 309.34375 " fill-opacity="1" fill-rule="nonzero"/><path fill="#e60003" d="M 400.164062 268.46875 C 394.433594 268.246094 389.632812 272.839844 389.632812 278.578125 C 389.632812 284.34375 394.433594 288.953125 400.164062 288.722656 L 521.890625 288.722656 C 527.621094 288.953125 532.421875 284.34375 532.421875 278.578125 C 532.421875 272.839844 527.621094 268.246094 521.890625 268.46875 Z M 400.164062 268.46875 " fill-opacity="1" fill-rule="nonzero"/><path fill="#e60003" d="M 400.164062 538.523438 C 386.621094 538.523438 386.621094 558.824219 400.164062 558.824219 L 521.890625 558.824219 C 535.441406 558.824219 535.441406 538.523438 521.890625 538.523438 Z M 400.164062 538.523438 " fill-opacity="1" fill-rule="nonzero"/><path fill="#e60003" d="M 435.863281 415.769531 C 422.3125 415.769531 422.3125 436.101562 435.863281 436.101562 L 521.890625 436.101562 C 535.441406 436.101562 535.441406 415.769531 521.890625 415.769531 Z M 435.863281 415.769531 " fill-opacity="1" fill-rule="nonzero"/><path fill="#e60003" d="M 400.164062 497.605469 C 394.523438 497.605469 390 502.183594 390 507.75 C 390 513.390625 394.523438 517.949219 400.164062 517.949219 L 521.890625 517.949219 C 535.441406 517.949219 535.441406 497.617188 521.890625 497.617188 L 400.164062 497.617188 Z M 400.164062 497.605469 " fill-opacity="1" fill-rule="nonzero"/><path fill="#e60003" d="M 400.164062 456.6875 C 394.523438 456.6875 390 461.246094 390 466.886719 C 390 472.472656 394.523438 477.03125 400.164062 477.03125 L 521.890625 477.03125 C 535.441406 477.03125 535.441406 456.695312 521.890625 456.695312 L 400.164062 456.695312 Z M 400.164062 456.6875 " fill-opacity="1" fill-rule="nonzero"/><path fill="#e60003" d="M 258.03125 415.847656 C 235.496094 415.847656 216.976562 434.234375 216.976562 456.769531 L 216.976562 517.996094 C 216.976562 540.484375 235.496094 558.824219 258.03125 558.824219 L 317.816406 558.824219 C 340.339844 558.824219 358.914062 540.472656 358.914062 517.996094 L 358.914062 501.421875 C 358.914062 487.855469 338.625 487.855469 338.625 501.421875 L 338.625 517.996094 C 338.625 529.535156 329.527344 538.5625 317.816406 538.5625 L 258.03125 538.5625 C 246.300781 538.5625 237.273438 529.535156 237.273438 517.996094 L 237.273438 456.769531 C 237.273438 445.175781 246.3125 436.148438 258.03125 436.148438 L 314 436.148438 C 327.550781 436.148438 327.550781 415.847656 314 415.847656 Z M 258.03125 415.847656 " fill-opacity="1" fill-rule="nonzero"/><path fill="#e60003" d="M 365.011719 424.25 C 362.355469 424.285156 359.84375 425.402344 357.992188 427.253906 L 293.28125 491.742188 L 273.027344 471.632812 C 269.113281 467.351562 262.453125 467.164062 258.359375 471.265625 C 254.257812 475.367188 254.402344 482 258.691406 485.914062 L 286.148438 513.257812 C 290.089844 517.171875 296.445312 517.171875 300.394531 513.257812 L 372.320312 441.609375 C 378.855469 435.136719 374.136719 424.054688 365.011719 424.25 Z M 365.011719 424.25 " fill-opacity="1" fill-rule="nonzero"/></svg>