<svg xmlns="http://www.w3.org/2000/svg" xmlns:xlink="http://www.w3.org/1999/xlink" width="1080" zoomAndPan="magnify" viewBox="0 0 810 809.999993" height="1080" preserveAspectRatio="xMidYMid meet" version="1.0"><defs><clipPath id="131f66614f"><path d="M 59.484375 88.421875 L 750.234375 88.421875 L 750.234375 721.421875 L 59.484375 721.421875 Z M 59.484375 88.421875 " clip-rule="nonzero"/></clipPath></defs><g clipPath="url(#131f66614f)"><path fill="#e60003" d="M 174.757812 88.421875 C 135.1875 88.421875 102.808594 120.800781 102.808594 160.371094 C 102.808594 199.941406 135.1875 232.320312 174.757812 232.320312 C 214.328125 232.320312 246.707031 199.941406 246.707031 160.371094 C 246.707031 120.800781 214.328125 88.421875 174.757812 88.421875 Z M 635.230469 88.421875 C 595.660156 88.421875 563.28125 120.800781 563.28125 160.371094 C 563.28125 199.941406 595.660156 232.320312 635.230469 232.320312 C 674.804688 232.320312 707.179688 199.941406 707.179688 160.371094 C 707.179688 120.800781 674.804688 88.421875 635.230469 88.421875 Z M 174.757812 117.203125 C 198.757812 117.203125 217.925781 136.371094 217.925781 160.371094 C 217.925781 184.371094 198.757812 203.539062 174.757812 203.539062 C 150.757812 203.539062 131.589844 184.371094 131.589844 160.371094 C 131.589844 136.371094 150.757812 117.203125 174.757812 117.203125 Z M 635.230469 117.203125 C 659.234375 117.203125 678.402344 136.371094 678.402344 160.371094 C 678.402344 184.371094 659.234375 203.539062 635.230469 203.539062 C 611.230469 203.539062 592.0625 184.371094 592.0625 160.371094 C 592.0625 136.371094 611.230469 117.203125 635.230469 117.203125 Z M 174.082031 246.710938 C 139.0625 246.710938 109.496094 260.988281 89.710938 283.863281 C 69.925781 306.742188 59.640625 337.660156 59.640625 370.992188 L 59.640625 504.210938 L 96.289062 522.195312 L 111.015625 721.574219 L 238.445312 721.574219 L 253.226562 522.195312 L 289.875 504.210938 L 289.875 370.992188 C 289.875 337.601562 279.195312 306.628906 259.074219 283.808594 C 238.949219 260.929688 209.160156 246.710938 174.082031 246.710938 Z M 634.558594 246.710938 C 599.539062 246.710938 569.972656 260.988281 550.1875 283.863281 C 530.398438 306.742188 520.113281 337.660156 520.113281 370.992188 L 520.113281 504.210938 L 556.761719 522.195312 L 571.546875 721.574219 L 698.917969 721.574219 L 713.703125 522.195312 L 750.351562 504.210938 L 750.351562 370.992188 C 750.351562 337.601562 739.671875 306.628906 719.546875 283.808594 C 699.425781 260.929688 669.632812 246.710938 634.558594 246.710938 Z M 174.082031 275.488281 C 201.625 275.488281 222.59375 285.886719 237.488281 302.808594 C 252.382812 319.726562 261.097656 343.730469 261.097656 370.992188 L 261.097656 486.335938 L 225.796875 503.648438 L 211.800781 692.792969 L 137.769531 692.792969 L 123.71875 503.648438 L 88.417969 486.277344 L 88.417969 370.992188 C 88.417969 343.617188 96.90625 319.558594 111.464844 302.695312 C 126.078125 285.832031 146.597656 275.488281 174.082031 275.488281 Z M 634.558594 275.488281 C 662.101562 275.488281 683.066406 285.886719 697.960938 302.808594 C 712.859375 319.726562 721.570312 343.730469 721.570312 370.992188 L 721.570312 486.277344 L 686.269531 503.648438 L 672.273438 692.792969 L 598.191406 692.792969 L 584.191406 503.648438 L 548.894531 486.277344 L 548.894531 370.992188 C 548.894531 343.617188 557.382812 319.558594 571.996094 302.695312 C 586.554688 285.832031 607.070312 275.488281 634.558594 275.488281 Z M 318.65625 347.4375 L 318.65625 376.21875 L 491.332031 376.21875 L 491.332031 347.4375 Z M 318.65625 433.777344 L 318.65625 462.558594 L 491.332031 462.558594 L 491.332031 433.777344 Z M 318.65625 433.777344 " fill-opacity="1" fill-rule="nonzero"/></g></svg>