<svg width="85" height="85" viewBox="0 0 85 85" fill="none" xmlns="http://www.w3.org/2000/svg">
<g opacity="0.15" clip-path="url(#clip0)">
<path d="M77.043 20.2217H67.0284C68.5769 18.1637 69.4961 15.6068 69.4961 12.8389C69.4961 6.05406 63.9762 0.53418 57.1914 0.53418C53.1044 0.53418 50.0908 1.99844 47.7071 5.1422C45.7129 7.77245 44.2547 11.4448 42.4258 16.0848C40.5968 11.4447 39.1386 7.77245 37.1444 5.1422C34.7608 1.99844 31.7471 0.53418 27.6602 0.53418C20.8754 0.53418 15.3555 6.05406 15.3555 12.8389C15.3555 15.6068 16.2747 18.1637 17.8231 20.2217H7.80859C3.73771 20.2217 0.425781 23.5336 0.425781 27.6045V32.5264C0.425781 35.7346 2.48329 38.47 5.34766 39.4859V77.1514C5.34766 81.2223 8.65959 84.5342 12.7305 84.5342H72.1211C76.192 84.5342 79.5039 81.2223 79.5039 77.1514V39.4859C82.3683 38.47 84.4258 35.7346 84.4258 32.5264V27.6045C84.4258 23.5336 81.1139 20.2217 77.043 20.2217ZM46.9431 18.0462C50.7131 8.48169 52.1463 5.45605 57.1914 5.45605C61.2623 5.45605 64.5742 8.76798 64.5742 12.8389C64.5742 16.9097 61.2623 20.2217 57.1914 20.2217H46.0822C46.3838 19.4645 46.6714 18.7356 46.9431 18.0462ZM27.6602 5.45605C32.7052 5.45605 34.1385 8.48169 37.9085 18.0462C38.1802 18.7356 38.4678 19.4645 38.7693 20.2217H27.6602C23.5893 20.2217 20.2773 16.9097 20.2773 12.8389C20.2773 8.76798 23.5893 5.45605 27.6602 5.45605ZM32.582 79.6123H12.7305C11.3735 79.6123 10.2695 78.5083 10.2695 77.1514V39.9092H32.582V79.6123ZM32.582 34.9873H7.80859C6.45163 34.9873 5.34766 33.8833 5.34766 32.5264V27.6045C5.34766 26.2475 6.45163 25.1436 7.80859 25.1436H32.582V34.9873ZM47.3477 79.6123H37.5039V25.1436C38.0196 25.1436 44.5192 25.1436 47.3477 25.1436V79.6123ZM74.582 77.1514C74.582 78.5083 73.4781 79.6123 72.1211 79.6123H52.2695V39.9092H74.582V77.1514ZM79.5039 32.5264C79.5039 33.8833 78.3999 34.9873 77.043 34.9873H52.2695V25.1436H77.043C78.3999 25.1436 79.5039 26.2475 79.5039 27.6045V32.5264Z" fill="#333333"/>
</g>
<defs>
<clipPath id="clip0">
<rect width="84" height="84" fill="white" transform="translate(0.425781 0.53418)"/>
</clipPath>
</defs>
</svg>
