<svg width="293" height="461" viewBox="0 0 293 461" fill="none" xmlns="http://www.w3.org/2000/svg">
<g clip-path="url(#clip0)">
<path d="M22.0328 454.65C22.0328 454.65 75.9008 460.427 142.368 460.427C208.835 460.427 262.703 454.65 262.703 454.65C262.703 454.65 208.835 448.873 142.368 448.873C75.9008 448.873 22.0328 454.65 22.0328 454.65Z" fill="#E0E0E0"/>
<path d="M172.247 44.2547C163.275 43.2398 158.556 27.7046 163.354 22.3961C168.151 17.0875 181.453 23.489 182.584 28.6804C183.715 33.8718 183.52 45.5428 172.247 44.2547Z" fill="url(#paint0_radial)"/>
<path d="M180.984 23.6447C184.456 22.2395 185.587 25.7915 184.573 29.0703C183.558 32.3491 180.672 34.4179 179.814 32.7395C178.956 31.061 180.984 23.6447 180.984 23.6447Z" fill="url(#paint1_radial)"/>
<path d="M176.891 19.7803C179.973 17.5554 181.884 19.7803 180.792 25.0107C179.699 30.2412 178.685 32.5441 176.15 30.3192C173.614 28.0943 176.891 19.7803 176.891 19.7803Z" fill="url(#paint2_radial)"/>
<path d="M170.88 25.2845C171.114 27.2752 174.04 28.9536 175.171 27.8217C176.713 25.1192 177.444 22.0295 177.278 18.9221C177.278 15.331 173.143 16.1117 172.207 18.9221C171.59 21.0026 171.146 23.1307 170.88 25.2845Z" fill="url(#paint3_radial)"/>
<path d="M171.31 24.3476C172.285 15.9164 171.31 6.78264 168.657 2.21575C166.317 -1.68757 163.079 2.64512 164.991 6.58748C166.902 10.5298 167.214 24.7379 167.214 24.7379L171.31 24.3476Z" fill="url(#paint4_radial)"/>
<path d="M163.628 22.5132C163.664 22.2474 163.765 21.9946 163.921 21.7768C164.078 21.559 164.285 21.383 164.526 21.2641C168.426 19.4296 169.908 22.357 172.795 22.9816C180.011 24.5819 176.345 30.476 170.181 27.1191C167.724 25.792 167.295 25.9481 167.49 27.4704C171.118 33.7157 172.834 37.3458 169.986 40.3514C167.139 43.3569 161.327 36.7213 161.6 28.3291C161.515 26.2033 162.24 24.1245 163.628 22.5132Z" fill="#FABE82"/>
<path d="M70.6366 440.793L67.048 446.258C60.4586 446.383 54.1768 449.071 49.5341 453.752C52.6987 455.863 56.5501 456.684 60.2994 456.045C64.0487 455.406 67.4121 453.357 69.7005 450.318C70.0125 451.723 70.4806 453.713 70.4806 453.713L73.5621 454.065L76.0195 445.829L70.6366 440.793Z" fill="#202E3D"/>
<path d="M206.493 440.793L209.34 446.258C212.456 446.281 215.532 446.96 218.368 448.252C221.204 449.543 223.736 451.417 225.801 453.752C216.205 459.842 206.961 453.518 206.298 450.318L205.049 453.713L201.929 454.065L200.603 445.829L206.493 440.793Z" fill="#202E3D"/>
<path d="M104.413 176.578L120.093 151.167L144.355 183.799L131.795 191.137L104.413 176.578Z" fill="url(#paint5_linear)"/>
<path d="M284.001 333.14C270.661 301.054 228.69 301.913 192.18 337.043C155.67 372.173 126.532 406.678 96.9258 390.87C67.3198 375.061 25.8558 361.712 23.8665 389.386C10.0582 365.966 19.9659 340.009 31.2777 319.127C42.5896 298.244 62.483 273.692 62.873 247.501C63.2631 221.309 162.145 198.163 177.942 209.17C193.74 220.177 244.995 231.887 261.377 250.155C277.76 268.422 287.902 301.054 284.001 333.14Z" fill="url(#paint6_radial)"/>
<path d="M59.4809 231.888C60.456 276.854 44.1903 294.341 26.9104 311.906C10.8397 328.456 -26.8796 374.359 35.8039 412.182C26.9104 398.833 13.5702 367.216 30.343 337.59C47.1158 307.964 63.9276 280.796 64.9028 261.553C65.8779 242.31 59.4809 231.888 59.4809 231.888Z" fill="url(#paint7_linear)"/>
<path d="M175.953 203.745C195.729 225.955 261.768 223.027 282.597 265.495C303.427 307.963 286.498 350.432 279.633 362.298C288.019 309.954 277.799 261.006 242.615 241.295C214.102 225.486 179.425 216.079 174.783 208.194C170.141 200.31 175.953 203.745 175.953 203.745Z" fill="url(#paint8_linear)"/>
<path d="M109.331 330.876C89.282 381.151 73.5233 435.016 67.3213 443.487C71.2219 445.477 76.0587 448.366 76.0587 448.366C76.0587 448.366 93.8847 422.955 107.264 399.457C118.719 379.611 131.572 360.605 145.724 342.586C155.788 369.909 167.88 385.952 173.536 405.039C179.192 424.126 200.49 450.434 200.49 450.434L209.578 443.018C209.578 443.018 197.057 423.502 188.944 386.927C180.518 348.753 174.589 312.335 174.589 312.335L109.331 330.876Z" fill="url(#paint9_radial)"/>
<path d="M155.866 323.069C158.44 326.973 180.284 317.878 180.284 317.878C180.284 317.878 178.801 277.127 176.578 248.243C174.355 219.358 179.543 201.403 182.156 177.475C185.734 132.476 185.734 87.2634 182.156 42.2641C177.319 39.6879 165.11 43.0058 165.11 43.0058C165.11 43.0058 163.277 144.883 151.029 179.349C152.16 197.851 153.642 216.001 153.642 216.001C153.642 216.001 160.312 257.884 152.511 273.419C144.71 288.954 155.866 323.069 155.866 323.069Z" fill="url(#paint10_radial)"/>
<path d="M89.5932 183.76C77.1957 192.858 66.4328 203.998 57.7639 216.704C69.931 224.004 81.0131 232.978 90.6854 243.364C102.933 257.845 112.529 300.82 105.898 333.413C118.107 335.638 153.252 335.248 155.865 323.03C158.479 310.813 152.511 273.38 152.511 273.38C152.511 273.38 124.387 244.105 120.33 233.761C116.274 223.418 111.047 211.161 111.047 211.161L89.5932 183.76Z" fill="url(#paint11_radial)"/>
<path d="M148.064 178.646L131.876 191.137C131.876 191.137 100.047 180.052 97.8232 181.886C95.5999 183.721 112.997 205.306 114.479 214.869C115.961 224.432 145.138 272.326 152.51 273.38C159.181 259.679 161.794 230.053 159.922 224.862C158.049 219.67 153.252 215.611 153.642 208.546C154.032 201.481 148.064 178.646 148.064 178.646Z" fill="url(#paint12_linear)"/>
<path d="M182.152 275.995L181.762 280.055L172.128 281.186L171.036 278.22L182.152 275.995Z" fill="#202E3D"/>
<path d="M114.402 295.238L103.285 295.98L104.417 298.946L113.661 299.688L114.402 295.238Z" fill="#202E3D"/>
<path d="M128.637 194.767L131.875 191.137L135.269 192.854L140.768 195.626L137.141 201.754C143.922 219.867 149.729 238.33 154.538 257.064C155.279 260.694 155.903 263.778 156.371 266.198C155.388 268.751 154.076 271.165 152.47 273.38C148.959 271.893 145.665 269.937 142.68 267.564L140.69 256.713C137.609 239.928 134.722 216.782 131.797 203.042L124.503 199.646L128.637 194.767Z" fill="url(#paint13_linear)"/>
<path d="M145.487 283.021C145.487 283.461 145.617 283.891 145.862 284.257C146.106 284.623 146.453 284.908 146.859 285.076C147.266 285.245 147.713 285.289 148.144 285.203C148.575 285.117 148.971 284.905 149.282 284.594C149.593 284.283 149.805 283.886 149.891 283.455C149.977 283.023 149.933 282.576 149.764 282.169C149.596 281.763 149.311 281.415 148.945 281.171C148.58 280.926 148.15 280.796 147.71 280.796C147.124 280.806 146.564 281.044 146.149 281.459C145.734 281.874 145.497 282.434 145.487 283.021Z" fill="#202E3D"/>
<path d="M149.937 304.138C148.709 304.138 147.713 303.142 147.713 301.913C147.713 300.684 148.709 299.688 149.937 299.688C151.165 299.688 152.16 300.684 152.16 301.913C152.16 303.142 151.165 304.138 149.937 304.138Z" fill="#202E3D"/>
<path d="M97.003 180.052L105.155 171.894L131.797 191.137L123.645 205.97L97.003 180.052Z" fill="url(#paint14_linear)"/>
<path d="M131.877 191.137C136.153 193.68 140.233 196.537 144.086 199.685C145.266 193.329 145.762 186.865 145.569 180.403C144.827 173.377 141.239 183.525 141.239 183.525L131.877 191.137Z" fill="url(#paint15_linear)"/>
<path d="M111.048 211.161C111.048 211.161 105.509 216.547 105.509 220.802C105.509 225.057 124.505 253.863 142.721 267.642C145.707 270.015 149 271.972 152.512 273.458C152.239 273.068 147.168 266.393 140.81 256.635C134.113 246.623 128.018 236.222 122.555 225.486C110.307 201.051 97.3565 176.968 97.3565 176.968C97.3565 176.968 89.2041 178.802 89.5552 183.642C89.7502 186.219 94.587 201.168 99.9309 206.594C102.927 209.467 106.899 211.099 111.048 211.161Z" fill="#266686"/>
<path d="M66.7734 449.303L63.3018 445.438L61.8586 446.258L63.8869 450.005L66.7734 449.303Z" fill="#696A77"/>
<path d="M142.172 174.118C143.421 176.967 155.903 221.894 154.46 257.063C154.299 262.549 153.647 268.01 152.509 273.379C154.101 271.155 155.411 268.743 156.41 266.197C161.099 253.153 163.296 239.342 162.885 225.485C162.639 222.541 161.75 219.686 160.281 217.123C158.812 214.56 156.798 212.351 154.382 210.653C154.382 210.653 160.662 208.077 161.403 203.627C162.144 199.177 155.279 177.826 151.768 174.742C148.258 171.659 140.69 170.839 142.172 174.118Z" fill="#266686"/>
<path d="M209.305 447.897L213.322 443.994L214.648 444.814L212.074 448.561L209.305 447.897Z" fill="#696A77"/>
<path d="M105.9 186.453C105.9 186.453 93.3006 178.646 89.205 179.037C85.1093 179.427 76.3328 194.65 76.3328 194.65L109.527 200.115L105.9 186.453Z" fill="url(#paint16_linear)"/>
<path d="M184.342 116.466C182.361 131.062 178.696 145.378 173.421 159.129C168.077 173.845 161.485 186.921 155.673 188.678C154.945 188.884 154.201 189.028 153.449 189.107C153.02 189.107 152.591 189.107 152.123 189.107C146.314 188.931 140.626 187.408 135.506 184.657L134.609 184.189C126.028 179.817 118.538 173.611 117.368 169.942C116.944 166.977 116.944 163.967 117.368 161.003C117.368 160.691 117.368 160.378 117.368 160.027C118.265 149.683 120.762 133.641 123.102 120.994C123.102 120.682 123.102 120.33 123.297 120.018C124.154 113.999 125.591 108.078 127.588 102.336C130.435 98.4327 142.839 101.165 142.839 101.165C146.766 98.3458 150.842 95.7398 155.049 93.3583L155.985 92.8509C162.769 88.6892 170.27 85.83 178.101 84.4197H179.701H180.052C194.718 84.0294 198.19 103.936 184.342 116.466Z" fill="url(#paint17_linear)"/>
<g style="mix-blend-mode:screen" opacity="0.4">
<g style="mix-blend-mode:screen" opacity="0.4">
<path d="M138.391 144.453C133.345 152.132 125.958 157.977 117.327 161.12C117.327 160.808 117.327 160.495 117.327 160.144C125.622 157.031 132.712 151.358 137.571 143.945L138.391 144.453Z" fill="#BA5C47"/>
</g>
<g style="mix-blend-mode:screen" opacity="0.4">
<path d="M135.503 184.775L134.606 184.307C138.506 181.457 152.041 168.693 155.591 154.173L156.449 154.368C153.095 168.108 140.34 181.145 135.503 184.775Z" fill="#BA5C47"/>
</g>
<g style="mix-blend-mode:screen" opacity="0.4">
<path d="M153.446 189.108C153.017 189.108 152.588 189.108 152.12 189.108C160.112 179.682 165.956 168.626 169.243 156.71L170.102 156.944C166.898 168.728 161.22 179.694 153.446 189.108Z" fill="#BA5C47"/>
</g>
<g style="mix-blend-mode:screen" opacity="0.4">
<path d="M137.297 121.541L136.985 122.361C132.618 120.474 127.752 120.076 123.138 121.229C123.138 120.916 123.138 120.565 123.333 120.253C128.006 119.183 132.898 119.634 137.297 121.541Z" fill="#BA5C47"/>
</g>
<g style="mix-blend-mode:screen" opacity="0.4">
<path d="M158.4 110.456L157.893 109.714C159.036 108.446 159.868 106.928 160.322 105.281C160.776 103.634 160.839 101.904 160.506 100.229C160.264 98.7347 159.636 97.3296 158.686 96.1522C157.735 94.9748 156.494 94.0659 155.084 93.5152L156.021 93.0078C157.426 93.6562 158.651 94.6391 159.59 95.8707C160.528 97.1022 161.151 98.545 161.403 100.073C161.754 101.918 161.664 103.82 161.143 105.624C160.621 107.428 159.681 109.083 158.4 110.456Z" fill="#BA5C47"/>
</g>
<g style="mix-blend-mode:screen" opacity="0.4">
<path d="M174.784 113.07L174.511 112.212C181.103 109.87 185.121 98.511 183.6 91.2118C183.418 89.7051 182.811 88.2812 181.851 87.1063C180.891 85.9313 179.617 85.0538 178.178 84.5762H179.777H180.128C181.303 85.288 182.305 86.2529 183.061 87.4007C183.816 88.5485 184.307 89.8505 184.497 91.2118C186.018 98.6672 181.766 110.572 174.784 113.07Z" fill="#BA5C47"/>
</g>
</g>
<path d="M175.68 152.689C174.939 154.875 174.198 156.983 173.418 159.129C159.287 158.003 145.846 152.552 134.919 143.516C130.628 139.613 135.27 117.286 140.848 112.29C148.649 105.576 172.833 105.849 184.34 116.193C184.016 120.406 183.337 124.584 182.312 128.684C180.79 135.71 178.45 144.336 175.68 152.689Z" fill="#FABE82"/>
<path d="M144.63 127.044C142.647 132.295 141.861 137.922 142.329 143.516C142.329 143.516 160.545 151.323 162.417 147.107C164.289 142.892 164.523 126.498 164.523 126.498L160.194 123.336C160.194 123.336 147.087 122.711 144.63 127.044Z" fill="url(#paint18_linear)"/>
<path d="M175.681 152.689L161.6 147.888C161.6 147.888 164.252 129.152 172.405 125.834C176.032 123.024 180.206 126.654 182.312 128.957C180.791 135.709 178.451 144.336 175.681 152.689Z" fill="url(#paint19_linear)"/>
<path d="M155.748 142.657L153.174 141.642C151.497 141.018 149.078 140.198 145.997 139.3L143.734 138.715C145.685 135.553 147.401 134.616 148.415 134.343C149.653 134.1 150.932 134.162 152.141 134.522C153.351 134.882 154.454 135.531 155.358 136.412C156.568 138.012 155.748 142.657 155.748 142.657Z" fill="white"/>
<path d="M153.838 140.393C153.688 140.844 153.464 141.266 153.175 141.643C151.498 141.018 149.079 140.198 145.998 139.301C145.921 138.875 145.921 138.438 145.998 138.012C146.154 137.5 146.41 137.023 146.75 136.609C147.09 136.196 147.509 135.853 147.982 135.601C148.454 135.349 148.972 135.193 149.505 135.141C150.038 135.089 150.576 135.143 151.088 135.3C151.6 135.456 152.077 135.712 152.49 136.052C152.904 136.393 153.246 136.812 153.498 137.285C153.75 137.758 153.906 138.276 153.958 138.809C154.009 139.342 153.955 139.881 153.799 140.393H153.838Z" fill="url(#paint20_linear)"/>
<path d="M173.887 147.419C173.887 147.419 172.717 146.99 170.923 146.521C169.053 146.073 167.147 145.799 165.228 145.701C165.613 143.994 166.464 142.427 167.685 141.174L168.036 140.939C168.958 140.499 170.007 140.403 170.994 140.668C171.98 140.933 172.84 141.541 173.419 142.384C174.101 143.971 174.265 145.733 173.887 147.419Z" fill="white"/>
<path d="M171.234 145.702C171.16 146.011 171.056 146.312 170.922 146.6C169.053 146.152 167.147 145.877 165.227 145.78C165.613 144.073 166.464 142.506 167.685 141.252L168.036 141.018C168.384 140.96 168.74 140.96 169.089 141.018C169.954 141.405 170.649 142.094 171.044 142.956C171.439 143.818 171.506 144.794 171.234 145.702Z" fill="url(#paint21_linear)"/>
<path d="M161.559 126.771C163.9 137.036 157.659 147.302 157.659 152.142C157.659 156.982 169.361 156.553 169.361 152.806C169.361 149.059 163.081 152.259 163.081 148.2C162.939 144.035 163.683 139.887 165.263 136.032C166.844 132.176 169.224 128.7 172.247 125.834C173.013 124.414 174.278 123.33 175.797 122.789C175.797 122.789 165.694 118.3 160.896 120.799C156.099 123.297 161.559 126.771 161.559 126.771Z" fill="url(#paint22_linear)"/>
<path d="M150.521 166.936C150.521 166.936 149.975 177.944 145.801 177.944C137.025 177.944 137.025 165.609 140.107 155.577C140.273 154.965 140.482 154.366 140.731 153.782C145.762 152.767 152.433 157.334 155.553 160.379C156.166 160.941 156.715 161.57 157.191 162.252C154.646 163.295 152.367 164.896 150.521 166.936Z" fill="#FABE82"/>
<path d="M150.521 166.936C150.521 166.936 149.78 176.187 145.606 176.226C145.348 176.265 145.085 176.265 144.826 176.226C140.458 175.367 137.727 167.014 139.404 158.349C139.404 157.451 139.833 156.514 140.107 155.617C140.273 155.005 140.482 154.405 140.731 153.821C145.762 152.806 152.433 157.373 155.553 160.418C156.166 160.98 156.715 161.609 157.191 162.291C154.65 163.323 152.371 164.91 150.521 166.936Z" fill="#630B18"/>
<path d="M155.555 160.3C154.592 161.31 153.402 162.073 152.083 162.525C150.64 162.525 146.856 157.919 140.108 155.499C140.275 154.887 140.484 154.287 140.732 153.704C145.764 152.689 152.395 157.256 155.555 160.3Z" fill="white"/>
<path d="M144.825 176.109C140.456 175.25 137.726 166.897 139.403 158.231C149.623 162.759 146.698 172.674 144.825 176.109Z" fill="#B02136"/>
<path d="M124.076 136.217C124.029 135.637 123.788 135.09 123.391 134.665C122.995 134.24 122.466 133.962 121.891 133.875C118.903 133.169 115.791 133.169 112.803 133.875C110.891 135.28 110.462 148.864 111.672 150.738C112.491 151.948 116.742 152.767 119.473 153.158C120.149 153.248 120.834 153.069 121.38 152.661C121.927 152.252 122.292 151.646 122.398 150.972L123.49 144.18C124.007 141.559 124.203 138.885 124.076 136.217Z" fill="#FABE82"/>
<path d="M119.002 149.722C117.321 149.456 115.774 148.648 114.595 147.419C113.268 145.663 114.595 136.295 114.595 136.295C114.595 136.295 118.924 135.944 119.782 137.271C120.334 141.433 120.069 145.662 119.002 149.722Z" fill="url(#paint23_linear)"/>
<path d="M114.674 136.334C114.674 136.334 120.174 135.709 120.603 136.998C120.85 141.177 120.348 145.368 119.121 149.371V149.722C119.7 145.73 119.895 141.691 119.706 137.661C118.089 137.015 116.399 136.569 114.674 136.334Z" fill="#CC6A5A"/>
<path d="M161.558 126.771C156.01 125.202 150.124 125.297 144.629 127.044C144.879 124.693 145.581 122.414 146.697 120.33C146.697 120.33 147.282 119.94 148.296 119.393C148.396 120.36 148.592 121.315 148.881 122.243C149.203 120.913 149.621 119.609 150.129 118.339C152.817 116.998 155.724 116.152 158.711 115.841C159.53 117.52 160.388 120.018 160.388 120.018C160.612 118.622 160.612 117.199 160.388 115.802C160.907 115.764 161.429 115.764 161.948 115.802C163.032 119.401 162.895 123.258 161.558 126.771Z" fill="url(#paint24_linear)"/>
<path d="M182.581 133.095C182.581 133.095 177.276 125.912 172.556 125.834C174.39 119.355 177.861 118.613 177.861 118.613C177.861 118.613 178.329 119.004 178.954 119.628C178.67 120.645 178.305 121.637 177.861 122.595C178.782 122.217 179.647 121.718 180.436 121.111C182.113 122.668 183.363 124.631 184.063 126.81C184.189 129.005 183.674 131.188 182.581 133.095Z" fill="url(#paint25_linear)"/>
<path d="M143.578 138.715C143.578 138.715 147.089 134.617 148.61 134.304C149.829 134.224 151.051 134.406 152.195 134.837C153.339 135.267 154.377 135.938 155.241 136.802C155.651 137.968 155.849 139.197 155.826 140.433C155.826 140.433 156.996 137.115 156.099 135.788C155.168 134.734 153.986 133.932 152.664 133.454C151.342 132.977 149.921 132.84 148.532 133.055C147.206 133.485 144.904 136.607 143.578 138.715Z" fill="url(#paint26_linear)"/>
<path d="M166.204 143.204C166.656 142.42 167.312 141.773 168.102 141.333C168.892 140.894 169.786 140.676 170.69 140.706C172.757 140.706 174.122 143.165 174.044 146.404C175.878 141.759 169.832 135.241 166.204 143.204Z" fill="url(#paint27_linear)"/>
<path d="M154.618 139.106C154.569 139.271 154.487 139.425 154.378 139.559C154.268 139.692 154.133 139.802 153.98 139.882C153.827 139.962 153.66 140.011 153.488 140.025C153.316 140.039 153.143 140.019 152.979 139.964C152.726 139.889 152.502 139.74 152.334 139.536C152.166 139.333 152.063 139.083 152.037 138.821C152.012 138.558 152.065 138.293 152.191 138.061C152.316 137.829 152.508 137.639 152.742 137.517C152.976 137.394 153.241 137.344 153.503 137.373C153.765 137.402 154.013 137.509 154.214 137.679C154.416 137.85 154.562 138.077 154.633 138.331C154.705 138.585 154.7 138.855 154.618 139.106Z" fill="white"/>
<path d="M171.855 143.712C171.774 143.921 171.635 144.103 171.453 144.236C171.271 144.368 171.055 144.445 170.831 144.458C170.607 144.471 170.383 144.419 170.188 144.308C169.992 144.197 169.832 144.033 169.728 143.833C169.624 143.634 169.579 143.409 169.599 143.185C169.618 142.961 169.702 142.748 169.84 142.57C169.978 142.393 170.165 142.259 170.377 142.184C170.589 142.11 170.818 142.098 171.036 142.15C171.195 142.195 171.344 142.271 171.472 142.375C171.601 142.478 171.707 142.607 171.783 142.754C171.86 142.9 171.906 143.06 171.918 143.225C171.931 143.39 171.909 143.555 171.855 143.712Z" fill="white"/>
<path d="M126.61 243.558C129.148 240.114 131.492 236.53 133.631 232.824C134.567 230.599 129.73 220.412 127.897 219.475C124.218 219.032 120.499 219.032 116.819 219.475C116.819 219.475 114.947 217.601 113.465 218.148C111.982 218.694 113.114 228.179 113.114 228.179C111.756 228.768 110.544 229.647 109.564 230.755C108.823 232.044 116.429 243.363 116.429 243.363L126.61 243.558Z" fill="#FABE82"/>
<path d="M57.7593 216.704C54.7948 265.612 79.954 307.846 88.4964 314.287C111.9 298.361 129.57 242.075 129.57 242.075C129.57 242.075 118.844 239.109 114.397 241.685C107.251 253.318 99.3273 264.455 90.6808 275.019V240.787C89.5886 227.438 63.2982 215.22 57.7593 216.704Z" fill="#374F6D"/>
</g>
<defs>
<radialGradient id="paint0_radial" cx="0" cy="0" r="1" gradientUnits="userSpaceOnUse" gradientTransform="translate(177.182 26.1433) rotate(180) scale(10.9842 12.4906)">
<stop stop-color="#E06E48"/>
<stop offset="0.73" stop-color="#F5AF77"/>
<stop offset="0.89" stop-color="#FABE82"/>
</radialGradient>
<radialGradient id="paint1_radial" cx="0" cy="0" r="1" gradientUnits="userSpaceOnUse" gradientTransform="translate(282.476 130.299) rotate(180) scale(11.827 22.2145)">
<stop stop-color="#E06E48"/>
<stop offset="0.73" stop-color="#F5AF77"/>
<stop offset="0.89" stop-color="#FABE82"/>
</radialGradient>
<radialGradient id="paint2_radial" cx="0" cy="0" r="1" gradientUnits="userSpaceOnUse" gradientTransform="translate(286.134 140.737) rotate(180) scale(14.7259 30.4844)">
<stop stop-color="#E06E48"/>
<stop offset="0.73" stop-color="#F5AF77"/>
<stop offset="0.89" stop-color="#FABE82"/>
</radialGradient>
<radialGradient id="paint3_radial" cx="0" cy="0" r="1" gradientUnits="userSpaceOnUse" gradientTransform="translate(283.236 125.087) rotate(180) scale(15.5372 28.2528)">
<stop stop-color="#E06E48"/>
<stop offset="0.73" stop-color="#F5AF77"/>
<stop offset="0.89" stop-color="#FABE82"/>
</radialGradient>
<radialGradient id="paint4_radial" cx="0" cy="0" r="1" gradientUnits="userSpaceOnUse" gradientTransform="translate(-188.271 342.271) rotate(179.459) scale(33.7458 105.339)">
<stop stop-color="#E06E48"/>
<stop offset="0.73" stop-color="#F5AF77"/>
<stop offset="0.89" stop-color="#FABE82"/>
</radialGradient>
<linearGradient id="paint5_linear" x1="144.316" y1="171.152" x2="104.413" y2="171.152" gradientUnits="userSpaceOnUse">
<stop offset="0.06" stop-color="#D16E43"/>
<stop offset="0.23" stop-color="#D77A4D"/>
<stop offset="0.55" stop-color="#E89B67"/>
<stop offset="0.83" stop-color="#FABE82"/>
</linearGradient>
<radialGradient id="paint6_radial" cx="0" cy="0" r="1" gradientUnits="userSpaceOnUse" gradientTransform="translate(146.932 332.125) rotate(180) scale(115.732 115.812)">
<stop offset="0.06" stop-color="#C40000"/>
<stop offset="0.56" stop-color="#B60013"/>
<stop offset="1" stop-color="#A80027"/>
</radialGradient>
<linearGradient id="paint7_linear" x1="58.3107" y1="304.216" x2="27.5425" y2="355.487" gradientUnits="userSpaceOnUse">
<stop offset="0.06" stop-color="#C40000"/>
<stop offset="0.41" stop-color="#D70000"/>
<stop offset="1" stop-color="#FF0000"/>
</linearGradient>
<linearGradient id="paint8_linear" x1="-4259.2" y1="10280.2" x2="-2226.31" y2="11186.7" gradientUnits="userSpaceOnUse">
<stop offset="0.06" stop-color="#C40000"/>
<stop offset="0.41" stop-color="#D70000"/>
<stop offset="1" stop-color="#FF0000"/>
</linearGradient>
<radialGradient id="paint9_radial" cx="0" cy="0" r="1" gradientUnits="userSpaceOnUse" gradientTransform="translate(149.144 276.971) rotate(180) scale(97.3213 97.3879)">
<stop stop-color="#100F23"/>
<stop offset="0.29" stop-color="#1E253D"/>
<stop offset="0.75" stop-color="#304360"/>
<stop offset="1" stop-color="#374F6D"/>
</radialGradient>
<radialGradient id="paint10_radial" cx="0" cy="0" r="1" gradientUnits="userSpaceOnUse" gradientTransform="translate(-1406.18 13871) rotate(180) scale(905.895 7298)">
<stop stop-color="#100F23"/>
<stop offset="0.29" stop-color="#1E253D"/>
<stop offset="0.75" stop-color="#304360"/>
<stop offset="1" stop-color="#374F6D"/>
</radialGradient>
<radialGradient id="paint11_radial" cx="0" cy="0" r="1" gradientUnits="userSpaceOnUse" gradientTransform="translate(-5081.88 11174.7) rotate(180) scale(1122.94 1713.52)">
<stop stop-color="#100F23"/>
<stop offset="0.29" stop-color="#1E253D"/>
<stop offset="0.75" stop-color="#304360"/>
<stop offset="1" stop-color="#374F6D"/>
</radialGradient>
<linearGradient id="paint12_linear" x1="134.372" y1="234.191" x2="128.201" y2="200.702" gradientUnits="userSpaceOnUse">
<stop stop-color="#FBFAF2"/>
<stop offset="0.43" stop-color="#F2F0E5"/>
<stop offset="1" stop-color="#E1DECE"/>
</linearGradient>
<linearGradient id="paint13_linear" x1="135.815" y1="204.837" x2="140.033" y2="230.52" gradientUnits="userSpaceOnUse">
<stop offset="0.06" stop-color="#E30000"/>
<stop offset="0.39" stop-color="#F60000"/>
<stop offset="0.53" stop-color="#FF0000"/>
<stop offset="1" stop-color="#FF0000"/>
</linearGradient>
<linearGradient id="paint14_linear" x1="122.669" y1="193.752" x2="106.276" y2="177.604" gradientUnits="userSpaceOnUse">
<stop offset="0.18" stop-color="#FBFAF2"/>
<stop offset="0.44" stop-color="#F2F0E5"/>
<stop offset="0.77" stop-color="#E1DECE"/>
</linearGradient>
<linearGradient id="paint15_linear" x1="137.533" y1="197.304" x2="139.681" y2="186.57" gradientUnits="userSpaceOnUse">
<stop stop-color="#FBFAF2"/>
<stop offset="0.33" stop-color="#F2F0E5"/>
<stop offset="0.77" stop-color="#E1DECE"/>
</linearGradient>
<linearGradient id="paint16_linear" x1="-1607.63" y1="1250.29" x2="-1890.11" y2="1250.29" gradientUnits="userSpaceOnUse">
<stop offset="0.06" stop-color="#E30000"/>
<stop offset="0.39" stop-color="#F60000"/>
<stop offset="0.53" stop-color="#FF0000"/>
<stop offset="1" stop-color="#FF0000"/>
</linearGradient>
<linearGradient id="paint17_linear" x1="207.076" y1="160.07" x2="147.068" y2="149.012" gradientUnits="userSpaceOnUse">
<stop offset="0.06" stop-color="#512214"/>
<stop offset="0.57" stop-color="#8C5A3C"/>
</linearGradient>
<linearGradient id="paint18_linear" x1="23279.7" y1="5451.55" x2="23219.8" y2="5633.45" gradientUnits="userSpaceOnUse">
<stop offset="0.06" stop-color="#D16E43"/>
<stop offset="0.23" stop-color="#D77A4D"/>
<stop offset="0.55" stop-color="#E89B67"/>
<stop offset="0.83" stop-color="#FABE82"/>
</linearGradient>
<linearGradient id="paint19_linear" x1="197.519" y1="141.575" x2="196.617" y2="162.888" gradientUnits="userSpaceOnUse">
<stop stop-color="#D16E43"/>
<stop offset="0.19" stop-color="#D77A4D"/>
<stop offset="0.52" stop-color="#E89B67"/>
<stop offset="0.83" stop-color="#FABE82"/>
</linearGradient>
<linearGradient id="paint20_linear" x1="174.263" y1="160.503" x2="176.14" y2="155.291" gradientUnits="userSpaceOnUse">
<stop offset="0.12" stop-color="#5BB9D6"/>
<stop offset="0.99" stop-color="#34507A"/>
</linearGradient>
<linearGradient id="paint21_linear" x1="2955.83" y1="1061.08" x2="2954.84" y2="1052.53" gradientUnits="userSpaceOnUse">
<stop offset="0.12" stop-color="#5BB9D6"/>
<stop offset="0.99" stop-color="#34507A"/>
</linearGradient>
<linearGradient id="paint22_linear" x1="192.609" y1="141.233" x2="186.908" y2="176.182" gradientUnits="userSpaceOnUse">
<stop offset="0.2" stop-color="#FABE82"/>
<stop offset="0.34" stop-color="#FAB87F"/>
<stop offset="0.53" stop-color="#F9A676"/>
<stop offset="0.74" stop-color="#F88A66"/>
<stop offset="0.97" stop-color="#F76252"/>
<stop offset="1" stop-color="#F75D4F"/>
</linearGradient>
<linearGradient id="paint23_linear" x1="119.882" y1="143.536" x2="113.438" y2="143.603" gradientUnits="userSpaceOnUse">
<stop offset="0.06" stop-color="#D16E43"/>
<stop offset="0.18" stop-color="#DA8051"/>
<stop offset="0.45" stop-color="#EBA26C"/>
<stop offset="0.68" stop-color="#F6B67C"/>
<stop offset="0.83" stop-color="#FABE82"/>
</linearGradient>
<linearGradient id="paint24_linear" x1="178.961" y1="136.102" x2="178.361" y2="145.128" gradientUnits="userSpaceOnUse">
<stop offset="0.16" stop-color="#8C5A3C"/>
<stop offset="1" stop-color="#512214"/>
</linearGradient>
<linearGradient id="paint25_linear" x1="206.576" y1="143.093" x2="202.686" y2="148.168" gradientUnits="userSpaceOnUse">
<stop stop-color="#8C5A3C"/>
<stop offset="1" stop-color="#512214"/>
</linearGradient>
<linearGradient id="paint26_linear" x1="175.078" y1="161.047" x2="174.466" y2="153" gradientUnits="userSpaceOnUse">
<stop offset="0.16" stop-color="#8C5A3C"/>
<stop offset="0.82" stop-color="#512214"/>
</linearGradient>
<linearGradient id="paint27_linear" x1="5349.84" y1="1697.62" x2="5345.99" y2="1704.14" gradientUnits="userSpaceOnUse">
<stop stop-color="#8C5A3C"/>
<stop offset="1" stop-color="#512214"/>
</linearGradient>
<clipPath id="clip0">
<rect width="292" height="460" fill="white" transform="matrix(-1 0 0 1 292.426 0.0839844)"/>
</clipPath>
</defs>
</svg>
