<svg width="87" height="85" viewBox="0 0 87 85" fill="none" xmlns="http://www.w3.org/2000/svg">
<g opacity="0.15" clip-path="url(#clip0)">
<path d="M19.4907 59.6123H19.4453C18.3851 59.6123 17.5156 60.4532 17.5156 61.5029C17.5156 62.5526 18.3851 63.3936 19.4453 63.3936H19.4907C20.5508 63.3936 21.4204 62.5526 21.4204 61.5029C21.4204 60.4532 20.5508 59.6123 19.4907 59.6123Z" fill="#333333" stroke="#333333" stroke-width="0.5"/>
<mask id="path-2-outside-1" maskUnits="userSpaceOnUse" x="-0.574219" y="0.461914" width="88" height="84" fill="black">
<rect fill="white" x="-0.574219" y="0.461914" width="88" height="84"/>
<path d="M79.5256 63.6621L69.7451 58.8498C77.4789 54.5051 82.9221 47.1692 84.8017 38.7484C84.822 38.6788 84.8375 38.6081 84.8482 38.5364C85.2918 36.4788 85.524 34.3576 85.524 32.2005C85.524 30.0232 85.2895 27.8985 84.8469 25.8482C84.8361 25.7809 84.8213 25.7145 84.8022 25.6492C83.399 19.3592 80.021 13.7827 75.335 9.57382C75.2283 9.44684 75.1027 9.33609 74.9619 9.24487C71.7814 6.47747 68.0243 4.33038 63.8908 2.99934C63.7943 2.95849 63.6942 2.92683 63.5916 2.90419C60.5855 1.96838 57.3855 1.46191 54.0664 1.46191C50.7795 1.46191 47.5553 1.95919 44.4914 2.9142C44.423 2.93142 44.356 2.95308 44.2905 2.97851C39.9844 4.35188 36.0002 6.63202 32.612 9.71721C29.4887 12.5645 27.0297 15.935 25.303 19.7349C23.5156 23.6686 22.6092 27.8625 22.6092 32.2002C22.6092 34.3361 22.8389 36.4519 23.2828 38.5163C23.2946 38.6012 23.3129 38.6847 23.3379 38.7668C24.2903 43.0194 26.1594 47.0455 28.84 50.5607C26.0276 51.772 23.3915 52.3669 20.8441 52.3669C17.4931 52.3669 14.1991 51.365 10.7737 49.3034C9.81574 48.7272 8.84757 48.435 7.89586 48.435C6.14512 48.435 3.70386 49.3962 2.01628 53.9759C1.00544 56.719 0.425781 60.4288 0.425781 64.1541C0.425781 67.6757 0.93775 70.9314 1.86746 73.3216C3.43998 77.3638 5.83673 78.2123 7.57067 78.2123H9.80432V81.5244C9.80432 82.4305 10.5563 83.165 11.484 83.165H17.906C18.8336 83.165 19.5856 82.4305 19.5856 81.5244V78.2123H22.6487V81.5244C22.6487 82.4305 23.4007 83.165 24.3284 83.165H30.7504C31.678 83.165 32.43 82.4305 32.43 81.5244V78.2123H39.5726C39.5744 78.2123 39.5761 78.2126 39.578 78.2126C39.5796 78.2126 39.5813 78.2123 39.5828 78.2123H46.697C46.7 78.2123 46.7027 78.2123 46.7055 78.2123H53.7402V81.5244C53.7402 82.4305 54.4924 83.165 55.4201 83.165H61.8422C62.7696 83.165 63.5219 82.4305 63.5219 81.5244V78.2123H66.5846V81.5244C66.5846 82.4305 67.3365 83.165 68.2643 83.165H74.6806C75.6083 83.165 76.3603 82.4305 76.3603 81.5244V78.2123H82.5865C84.3974 78.2123 85.8045 77.0504 86.2585 75.18C87.1197 71.6374 84.6188 66.1636 79.5256 63.6621ZM72.3557 53.0442C70.4733 54.6221 68.3606 55.9695 66.0539 57.0335L62.4629 55.2665C62.4098 55.2365 62.3552 55.2101 62.3001 55.1865L55.746 51.9615V44.4092L64.0505 39.728L72.3554 44.4092V53.0442H72.3557ZM42.3157 45.851C41.627 45.5411 40.8841 45.3839 40.1072 45.3839C38.6115 45.3839 37.1745 45.9512 35.7773 46.7069V44.4092L44.0819 39.728L52.3866 44.4092V50.3753L42.3157 45.851ZM45.7616 36.8865V27.5136L54.0663 22.8276L62.371 27.5136V36.8863L54.0661 41.5676L45.7616 36.8865ZM75.7148 49.7006V44.4087L80.4038 41.7635C79.3044 44.6519 77.7166 47.3349 75.7148 49.7006ZM75.7148 14.7157C77.7005 17.0593 79.2952 19.7299 80.4028 22.6306L75.7148 19.9859V14.7157ZM81.6849 27.1433C81.9985 28.7829 82.1644 30.4729 82.1644 32.2002C82.1644 33.9151 82.0003 35.6045 81.685 37.2513L74.0346 41.5673L65.7302 36.8863V27.5136L74.0347 22.8276L81.6849 27.1433ZM72.3557 11.3734V19.9859L64.0508 24.6718L55.7463 19.9859V10.613L63.3947 6.30061C66.7091 7.44396 69.7408 9.17761 72.3557 11.3734ZM54.0664 4.74333C55.664 4.74333 57.2301 4.87622 58.7556 5.12789L54.0661 7.77176L49.3742 5.12641C50.9128 4.87327 52.4813 4.74333 54.0664 4.74333ZM35.7773 11.3547C38.4425 9.12084 41.478 7.41591 44.7321 6.29733L52.3866 10.6132V19.986L44.0819 24.672L35.7773 19.986V11.3547ZM32.4181 14.6978V19.9859L27.7424 22.6238C28.8353 19.758 30.4124 17.0726 32.4181 14.6978ZM25.9685 32.2002C25.9685 30.4923 26.1349 28.7985 26.4554 27.139L34.0975 22.8274L42.4022 27.5134V36.8861L34.098 41.5672L26.4502 37.2526C26.1326 35.5963 25.9685 33.9054 25.9685 32.2002ZM27.7293 41.7635L32.4181 44.4089V48.7326C32.2376 48.8415 32.0592 48.946 31.8823 49.0474C30.1169 46.8288 28.7205 44.3698 27.7293 41.7635ZM16.2264 79.8838H13.1637V78.2123H16.2264V79.8838ZM26.0081 79.8838V78.2123H29.0708V79.8838H26.0081ZM34.7032 74.9311L41.7563 62.3698L44.7413 63.9719L38.5853 74.9312H34.7032V74.9311ZM53.4285 74.9311H49.5477L53.326 68.2075L56.3058 69.8051L53.4285 74.9311ZM60.1627 79.8838H57.0996V78.2123H60.1627V79.8838ZM73.001 79.8838H69.9442V78.2123H73.001V79.8838ZM82.9903 74.4225C82.867 74.9311 82.7115 74.9311 82.5869 74.9311H57.2595L60.0586 69.9447C60.5043 69.1505 60.2069 68.1535 59.3939 67.7177L53.4701 64.5415C53.0795 64.3321 52.6196 64.2831 52.1922 64.4045C51.7644 64.5261 51.4038 64.8087 51.1893 65.1904L45.7155 74.9312H42.417L48.4937 64.1128C48.9397 63.3187 48.6426 62.3217 47.8301 61.8856L41.9006 58.7033C41.5101 58.4936 41.0502 58.4443 40.6222 58.566C40.1942 58.6877 39.8334 58.9706 39.6191 59.3522L30.8716 74.9309H28.125C28.2567 74.2105 28.3188 73.4909 28.3188 72.7308C28.3188 70.0282 27.4884 67.386 25.9174 65.0901C25.4019 64.3369 24.359 64.1344 23.5877 64.6376C22.8164 65.1411 22.6091 66.16 23.1246 66.9133C24.3252 68.6678 24.9596 70.6796 24.9596 72.7308C24.9596 73.4883 24.8725 74.1972 24.689 74.9309H7.57067C6.34466 74.9309 5.50029 73.4219 5.0078 72.1561C4.21936 70.129 3.78516 67.2871 3.78516 64.1541C3.78516 63.8224 3.79137 63.4961 3.80061 63.1727C6.3109 61.6847 9.46485 61.0066 12.5872 61.3091C13.5097 61.3989 14.3328 60.7402 14.4243 59.8383C14.5158 58.9366 13.8416 58.1332 12.9186 58.0438C9.89334 57.7509 6.8306 58.2165 4.13655 59.3327C4.82791 54.7645 6.4273 51.7162 7.89602 51.7162C8.21634 51.7162 8.59192 51.8444 9.01201 52.097C12.9825 54.4866 16.8528 55.6483 20.8442 55.6483C24.4579 55.6483 28.1557 54.6682 32.1141 52.663C32.1932 52.631 34.5963 51.2751 35.311 50.8283C37.0117 49.7649 38.7704 48.6652 40.1077 48.6652C40.3997 48.6652 40.6622 48.7195 40.9115 48.8317L45.008 50.6721L43.0673 53.8292C42.5898 54.606 42.8473 55.6139 43.6426 56.0805C43.9132 56.2393 44.2114 56.3147 44.5056 56.3147C45.0761 56.3147 45.6324 56.0309 45.9473 55.5184L48.0785 52.0516L52.4885 54.0328L52.5366 54.0564L50.4984 57.3642C50.0201 58.1406 50.2767 59.1488 51.0716 59.616C51.3425 59.7753 51.6413 59.8511 51.9361 59.8511C52.506 59.8511 53.0616 59.5678 53.3769 59.0562L55.5454 55.5368L59.2525 57.361L57.1529 60.7674C56.6741 61.5437 56.9308 62.5519 57.7253 63.0193C57.9966 63.1788 58.2952 63.2546 58.59 63.2546C59.1599 63.2546 59.7156 62.9714 60.0308 62.4599L62.261 58.8415L78.0156 66.5934C82.1061 68.6022 83.4099 72.6956 82.9903 74.4225Z"/>
</mask>
<path d="M79.5256 63.6621L69.7451 58.8498C77.4789 54.5051 82.9221 47.1692 84.8017 38.7484C84.822 38.6788 84.8375 38.6081 84.8482 38.5364C85.2918 36.4788 85.524 34.3576 85.524 32.2005C85.524 30.0232 85.2895 27.8985 84.8469 25.8482C84.8361 25.7809 84.8213 25.7145 84.8022 25.6492C83.399 19.3592 80.021 13.7827 75.335 9.57382C75.2283 9.44684 75.1027 9.33609 74.9619 9.24487C71.7814 6.47747 68.0243 4.33038 63.8908 2.99934C63.7943 2.95849 63.6942 2.92683 63.5916 2.90419C60.5855 1.96838 57.3855 1.46191 54.0664 1.46191C50.7795 1.46191 47.5553 1.95919 44.4914 2.9142C44.423 2.93142 44.356 2.95308 44.2905 2.97851C39.9844 4.35188 36.0002 6.63202 32.612 9.71721C29.4887 12.5645 27.0297 15.935 25.303 19.7349C23.5156 23.6686 22.6092 27.8625 22.6092 32.2002C22.6092 34.3361 22.8389 36.4519 23.2828 38.5163C23.2946 38.6012 23.3129 38.6847 23.3379 38.7668C24.2903 43.0194 26.1594 47.0455 28.84 50.5607C26.0276 51.772 23.3915 52.3669 20.8441 52.3669C17.4931 52.3669 14.1991 51.365 10.7737 49.3034C9.81574 48.7272 8.84757 48.435 7.89586 48.435C6.14512 48.435 3.70386 49.3962 2.01628 53.9759C1.00544 56.719 0.425781 60.4288 0.425781 64.1541C0.425781 67.6757 0.93775 70.9314 1.86746 73.3216C3.43998 77.3638 5.83673 78.2123 7.57067 78.2123H9.80432V81.5244C9.80432 82.4305 10.5563 83.165 11.484 83.165H17.906C18.8336 83.165 19.5856 82.4305 19.5856 81.5244V78.2123H22.6487V81.5244C22.6487 82.4305 23.4007 83.165 24.3284 83.165H30.7504C31.678 83.165 32.43 82.4305 32.43 81.5244V78.2123H39.5726C39.5744 78.2123 39.5761 78.2126 39.578 78.2126C39.5796 78.2126 39.5813 78.2123 39.5828 78.2123H46.697C46.7 78.2123 46.7027 78.2123 46.7055 78.2123H53.7402V81.5244C53.7402 82.4305 54.4924 83.165 55.4201 83.165H61.8422C62.7696 83.165 63.5219 82.4305 63.5219 81.5244V78.2123H66.5846V81.5244C66.5846 82.4305 67.3365 83.165 68.2643 83.165H74.6806C75.6083 83.165 76.3603 82.4305 76.3603 81.5244V78.2123H82.5865C84.3974 78.2123 85.8045 77.0504 86.2585 75.18C87.1197 71.6374 84.6188 66.1636 79.5256 63.6621ZM72.3557 53.0442C70.4733 54.6221 68.3606 55.9695 66.0539 57.0335L62.4629 55.2665C62.4098 55.2365 62.3552 55.2101 62.3001 55.1865L55.746 51.9615V44.4092L64.0505 39.728L72.3554 44.4092V53.0442H72.3557ZM42.3157 45.851C41.627 45.5411 40.8841 45.3839 40.1072 45.3839C38.6115 45.3839 37.1745 45.9512 35.7773 46.7069V44.4092L44.0819 39.728L52.3866 44.4092V50.3753L42.3157 45.851ZM45.7616 36.8865V27.5136L54.0663 22.8276L62.371 27.5136V36.8863L54.0661 41.5676L45.7616 36.8865ZM75.7148 49.7006V44.4087L80.4038 41.7635C79.3044 44.6519 77.7166 47.3349 75.7148 49.7006ZM75.7148 14.7157C77.7005 17.0593 79.2952 19.7299 80.4028 22.6306L75.7148 19.9859V14.7157ZM81.6849 27.1433C81.9985 28.7829 82.1644 30.4729 82.1644 32.2002C82.1644 33.9151 82.0003 35.6045 81.685 37.2513L74.0346 41.5673L65.7302 36.8863V27.5136L74.0347 22.8276L81.6849 27.1433ZM72.3557 11.3734V19.9859L64.0508 24.6718L55.7463 19.9859V10.613L63.3947 6.30061C66.7091 7.44396 69.7408 9.17761 72.3557 11.3734ZM54.0664 4.74333C55.664 4.74333 57.2301 4.87622 58.7556 5.12789L54.0661 7.77176L49.3742 5.12641C50.9128 4.87327 52.4813 4.74333 54.0664 4.74333ZM35.7773 11.3547C38.4425 9.12084 41.478 7.41591 44.7321 6.29733L52.3866 10.6132V19.986L44.0819 24.672L35.7773 19.986V11.3547ZM32.4181 14.6978V19.9859L27.7424 22.6238C28.8353 19.758 30.4124 17.0726 32.4181 14.6978ZM25.9685 32.2002C25.9685 30.4923 26.1349 28.7985 26.4554 27.139L34.0975 22.8274L42.4022 27.5134V36.8861L34.098 41.5672L26.4502 37.2526C26.1326 35.5963 25.9685 33.9054 25.9685 32.2002ZM27.7293 41.7635L32.4181 44.4089V48.7326C32.2376 48.8415 32.0592 48.946 31.8823 49.0474C30.1169 46.8288 28.7205 44.3698 27.7293 41.7635ZM16.2264 79.8838H13.1637V78.2123H16.2264V79.8838ZM26.0081 79.8838V78.2123H29.0708V79.8838H26.0081ZM34.7032 74.9311L41.7563 62.3698L44.7413 63.9719L38.5853 74.9312H34.7032V74.9311ZM53.4285 74.9311H49.5477L53.326 68.2075L56.3058 69.8051L53.4285 74.9311ZM60.1627 79.8838H57.0996V78.2123H60.1627V79.8838ZM73.001 79.8838H69.9442V78.2123H73.001V79.8838ZM82.9903 74.4225C82.867 74.9311 82.7115 74.9311 82.5869 74.9311H57.2595L60.0586 69.9447C60.5043 69.1505 60.2069 68.1535 59.3939 67.7177L53.4701 64.5415C53.0795 64.3321 52.6196 64.2831 52.1922 64.4045C51.7644 64.5261 51.4038 64.8087 51.1893 65.1904L45.7155 74.9312H42.417L48.4937 64.1128C48.9397 63.3187 48.6426 62.3217 47.8301 61.8856L41.9006 58.7033C41.5101 58.4936 41.0502 58.4443 40.6222 58.566C40.1942 58.6877 39.8334 58.9706 39.6191 59.3522L30.8716 74.9309H28.125C28.2567 74.2105 28.3188 73.4909 28.3188 72.7308C28.3188 70.0282 27.4884 67.386 25.9174 65.0901C25.4019 64.3369 24.359 64.1344 23.5877 64.6376C22.8164 65.1411 22.6091 66.16 23.1246 66.9133C24.3252 68.6678 24.9596 70.6796 24.9596 72.7308C24.9596 73.4883 24.8725 74.1972 24.689 74.9309H7.57067C6.34466 74.9309 5.50029 73.4219 5.0078 72.1561C4.21936 70.129 3.78516 67.2871 3.78516 64.1541C3.78516 63.8224 3.79137 63.4961 3.80061 63.1727C6.3109 61.6847 9.46485 61.0066 12.5872 61.3091C13.5097 61.3989 14.3328 60.7402 14.4243 59.8383C14.5158 58.9366 13.8416 58.1332 12.9186 58.0438C9.89334 57.7509 6.8306 58.2165 4.13655 59.3327C4.82791 54.7645 6.4273 51.7162 7.89602 51.7162C8.21634 51.7162 8.59192 51.8444 9.01201 52.097C12.9825 54.4866 16.8528 55.6483 20.8442 55.6483C24.4579 55.6483 28.1557 54.6682 32.1141 52.663C32.1932 52.631 34.5963 51.2751 35.311 50.8283C37.0117 49.7649 38.7704 48.6652 40.1077 48.6652C40.3997 48.6652 40.6622 48.7195 40.9115 48.8317L45.008 50.6721L43.0673 53.8292C42.5898 54.606 42.8473 55.6139 43.6426 56.0805C43.9132 56.2393 44.2114 56.3147 44.5056 56.3147C45.0761 56.3147 45.6324 56.0309 45.9473 55.5184L48.0785 52.0516L52.4885 54.0328L52.5366 54.0564L50.4984 57.3642C50.0201 58.1406 50.2767 59.1488 51.0716 59.616C51.3425 59.7753 51.6413 59.8511 51.9361 59.8511C52.506 59.8511 53.0616 59.5678 53.3769 59.0562L55.5454 55.5368L59.2525 57.361L57.1529 60.7674C56.6741 61.5437 56.9308 62.5519 57.7253 63.0193C57.9966 63.1788 58.2952 63.2546 58.59 63.2546C59.1599 63.2546 59.7156 62.9714 60.0308 62.4599L62.261 58.8415L78.0156 66.5934C82.1061 68.6022 83.4099 72.6956 82.9903 74.4225Z" fill="#333333"/>
<path d="M79.5256 63.6621L69.7451 58.8498C77.4789 54.5051 82.9221 47.1692 84.8017 38.7484C84.822 38.6788 84.8375 38.6081 84.8482 38.5364C85.2918 36.4788 85.524 34.3576 85.524 32.2005C85.524 30.0232 85.2895 27.8985 84.8469 25.8482C84.8361 25.7809 84.8213 25.7145 84.8022 25.6492C83.399 19.3592 80.021 13.7827 75.335 9.57382C75.2283 9.44684 75.1027 9.33609 74.9619 9.24487C71.7814 6.47747 68.0243 4.33038 63.8908 2.99934C63.7943 2.95849 63.6942 2.92683 63.5916 2.90419C60.5855 1.96838 57.3855 1.46191 54.0664 1.46191C50.7795 1.46191 47.5553 1.95919 44.4914 2.9142C44.423 2.93142 44.356 2.95308 44.2905 2.97851C39.9844 4.35188 36.0002 6.63202 32.612 9.71721C29.4887 12.5645 27.0297 15.935 25.303 19.7349C23.5156 23.6686 22.6092 27.8625 22.6092 32.2002C22.6092 34.3361 22.8389 36.4519 23.2828 38.5163C23.2946 38.6012 23.3129 38.6847 23.3379 38.7668C24.2903 43.0194 26.1594 47.0455 28.84 50.5607C26.0276 51.772 23.3915 52.3669 20.8441 52.3669C17.4931 52.3669 14.1991 51.365 10.7737 49.3034C9.81574 48.7272 8.84757 48.435 7.89586 48.435C6.14512 48.435 3.70386 49.3962 2.01628 53.9759C1.00544 56.719 0.425781 60.4288 0.425781 64.1541C0.425781 67.6757 0.93775 70.9314 1.86746 73.3216C3.43998 77.3638 5.83673 78.2123 7.57067 78.2123H9.80432V81.5244C9.80432 82.4305 10.5563 83.165 11.484 83.165H17.906C18.8336 83.165 19.5856 82.4305 19.5856 81.5244V78.2123H22.6487V81.5244C22.6487 82.4305 23.4007 83.165 24.3284 83.165H30.7504C31.678 83.165 32.43 82.4305 32.43 81.5244V78.2123H39.5726C39.5744 78.2123 39.5761 78.2126 39.578 78.2126C39.5796 78.2126 39.5813 78.2123 39.5828 78.2123H46.697C46.7 78.2123 46.7027 78.2123 46.7055 78.2123H53.7402V81.5244C53.7402 82.4305 54.4924 83.165 55.4201 83.165H61.8422C62.7696 83.165 63.5219 82.4305 63.5219 81.5244V78.2123H66.5846V81.5244C66.5846 82.4305 67.3365 83.165 68.2643 83.165H74.6806C75.6083 83.165 76.3603 82.4305 76.3603 81.5244V78.2123H82.5865C84.3974 78.2123 85.8045 77.0504 86.2585 75.18C87.1197 71.6374 84.6188 66.1636 79.5256 63.6621ZM72.3557 53.0442C70.4733 54.6221 68.3606 55.9695 66.0539 57.0335L62.4629 55.2665C62.4098 55.2365 62.3552 55.2101 62.3001 55.1865L55.746 51.9615V44.4092L64.0505 39.728L72.3554 44.4092V53.0442H72.3557ZM42.3157 45.851C41.627 45.5411 40.8841 45.3839 40.1072 45.3839C38.6115 45.3839 37.1745 45.9512 35.7773 46.7069V44.4092L44.0819 39.728L52.3866 44.4092V50.3753L42.3157 45.851ZM45.7616 36.8865V27.5136L54.0663 22.8276L62.371 27.5136V36.8863L54.0661 41.5676L45.7616 36.8865ZM75.7148 49.7006V44.4087L80.4038 41.7635C79.3044 44.6519 77.7166 47.3349 75.7148 49.7006ZM75.7148 14.7157C77.7005 17.0593 79.2952 19.7299 80.4028 22.6306L75.7148 19.9859V14.7157ZM81.6849 27.1433C81.9985 28.7829 82.1644 30.4729 82.1644 32.2002C82.1644 33.9151 82.0003 35.6045 81.685 37.2513L74.0346 41.5673L65.7302 36.8863V27.5136L74.0347 22.8276L81.6849 27.1433ZM72.3557 11.3734V19.9859L64.0508 24.6718L55.7463 19.9859V10.613L63.3947 6.30061C66.7091 7.44396 69.7408 9.17761 72.3557 11.3734ZM54.0664 4.74333C55.664 4.74333 57.2301 4.87622 58.7556 5.12789L54.0661 7.77176L49.3742 5.12641C50.9128 4.87327 52.4813 4.74333 54.0664 4.74333ZM35.7773 11.3547C38.4425 9.12084 41.478 7.41591 44.7321 6.29733L52.3866 10.6132V19.986L44.0819 24.672L35.7773 19.986V11.3547ZM32.4181 14.6978V19.9859L27.7424 22.6238C28.8353 19.758 30.4124 17.0726 32.4181 14.6978ZM25.9685 32.2002C25.9685 30.4923 26.1349 28.7985 26.4554 27.139L34.0975 22.8274L42.4022 27.5134V36.8861L34.098 41.5672L26.4502 37.2526C26.1326 35.5963 25.9685 33.9054 25.9685 32.2002ZM27.7293 41.7635L32.4181 44.4089V48.7326C32.2376 48.8415 32.0592 48.946 31.8823 49.0474C30.1169 46.8288 28.7205 44.3698 27.7293 41.7635ZM16.2264 79.8838H13.1637V78.2123H16.2264V79.8838ZM26.0081 79.8838V78.2123H29.0708V79.8838H26.0081ZM34.7032 74.9311L41.7563 62.3698L44.7413 63.9719L38.5853 74.9312H34.7032V74.9311ZM53.4285 74.9311H49.5477L53.326 68.2075L56.3058 69.8051L53.4285 74.9311ZM60.1627 79.8838H57.0996V78.2123H60.1627V79.8838ZM73.001 79.8838H69.9442V78.2123H73.001V79.8838ZM82.9903 74.4225C82.867 74.9311 82.7115 74.9311 82.5869 74.9311H57.2595L60.0586 69.9447C60.5043 69.1505 60.2069 68.1535 59.3939 67.7177L53.4701 64.5415C53.0795 64.3321 52.6196 64.2831 52.1922 64.4045C51.7644 64.5261 51.4038 64.8087 51.1893 65.1904L45.7155 74.9312H42.417L48.4937 64.1128C48.9397 63.3187 48.6426 62.3217 47.8301 61.8856L41.9006 58.7033C41.5101 58.4936 41.0502 58.4443 40.6222 58.566C40.1942 58.6877 39.8334 58.9706 39.6191 59.3522L30.8716 74.9309H28.125C28.2567 74.2105 28.3188 73.4909 28.3188 72.7308C28.3188 70.0282 27.4884 67.386 25.9174 65.0901C25.4019 64.3369 24.359 64.1344 23.5877 64.6376C22.8164 65.1411 22.6091 66.16 23.1246 66.9133C24.3252 68.6678 24.9596 70.6796 24.9596 72.7308C24.9596 73.4883 24.8725 74.1972 24.689 74.9309H7.57067C6.34466 74.9309 5.50029 73.4219 5.0078 72.1561C4.21936 70.129 3.78516 67.2871 3.78516 64.1541C3.78516 63.8224 3.79137 63.4961 3.80061 63.1727C6.3109 61.6847 9.46485 61.0066 12.5872 61.3091C13.5097 61.3989 14.3328 60.7402 14.4243 59.8383C14.5158 58.9366 13.8416 58.1332 12.9186 58.0438C9.89334 57.7509 6.8306 58.2165 4.13655 59.3327C4.82791 54.7645 6.4273 51.7162 7.89602 51.7162C8.21634 51.7162 8.59192 51.8444 9.01201 52.097C12.9825 54.4866 16.8528 55.6483 20.8442 55.6483C24.4579 55.6483 28.1557 54.6682 32.1141 52.663C32.1932 52.631 34.5963 51.2751 35.311 50.8283C37.0117 49.7649 38.7704 48.6652 40.1077 48.6652C40.3997 48.6652 40.6622 48.7195 40.9115 48.8317L45.008 50.6721L43.0673 53.8292C42.5898 54.606 42.8473 55.6139 43.6426 56.0805C43.9132 56.2393 44.2114 56.3147 44.5056 56.3147C45.0761 56.3147 45.6324 56.0309 45.9473 55.5184L48.0785 52.0516L52.4885 54.0328L52.5366 54.0564L50.4984 57.3642C50.0201 58.1406 50.2767 59.1488 51.0716 59.616C51.3425 59.7753 51.6413 59.8511 51.9361 59.8511C52.506 59.8511 53.0616 59.5678 53.3769 59.0562L55.5454 55.5368L59.2525 57.361L57.1529 60.7674C56.6741 61.5437 56.9308 62.5519 57.7253 63.0193C57.9966 63.1788 58.2952 63.2546 58.59 63.2546C59.1599 63.2546 59.7156 62.9714 60.0308 62.4599L62.261 58.8415L78.0156 66.5934C82.1061 68.6022 83.4099 72.6956 82.9903 74.4225Z" stroke="#333333" mask="url(#path-2-outside-1)"/>
</g>
<defs>
<clipPath id="clip0">
<rect width="86" height="84" fill="white" transform="translate(0.425781 0.313477)"/>
</clipPath>
</defs>
</svg>
