<svg width="81" height="82" viewBox="0 0 81 82" fill="none" xmlns="http://www.w3.org/2000/svg">
<g opacity="0.15" clipPath="url(#clip0)">
<path d="M65.3387 30.6165L65.3375 30.6147C64.4672 29.3784 64.045 27.8681 64.1445 26.3522L66.7994 12.7065L66.7995 12.706C67.395 9.6205 66.1538 6.67856 64.0783 4.52334C62.005 2.37048 59.0641 0.963477 56.18 0.963477C53.3014 0.963477 50.3625 2.37407 48.2906 4.52838C46.2165 6.68499 44.9753 9.62701 45.5733 12.7064L45.5734 12.7065L48.2283 26.3523C48.3264 27.8507 47.9153 29.3431 47.0659 30.571C46.4585 31.3347 45.9055 32.1359 45.4028 32.9118C41.8117 31.0709 37.8106 30.0957 33.6608 30.0957C20.6015 30.0957 9.32511 40.2648 8.01064 53.2696C7.42446 59.0698 8.8308 64.9485 11.9717 69.8239C12.5437 70.7119 13.7275 70.9678 14.6151 70.3957C15.5031 69.8237 15.7589 68.6402 15.1869 67.7524L14.8927 67.9419L15.1869 67.7524C12.5142 63.6038 11.3166 58.5965 11.8162 53.6542L11.468 53.619L11.8162 53.6542C12.9349 42.5838 22.5467 33.9208 33.6606 33.9208C39.8644 33.9208 45.8106 36.5968 49.9738 41.1806C57.7392 49.789 57.4771 63.1142 49.1871 71.4041C42.8178 77.7735 32.8996 79.6067 24.6693 75.9159C23.7051 75.4829 22.5737 75.9148 22.1418 76.8783C21.7094 77.842 22.1406 78.9735 23.1042 79.4057C26.4421 80.9027 30.0191 81.6636 33.6372 81.6636C37.7205 81.6636 41.7983 80.6899 45.4328 78.8248C46.6501 80.5832 48.6562 81.6607 50.8661 81.6607H61.5064C64.2285 81.6607 66.6415 80.0268 67.6515 77.4991L67.6516 77.4989C69.6336 72.5288 72.964 62.5518 72.964 51.6256C72.964 47.3334 72.1019 43.1454 70.4023 39.1797C69.0806 36.0954 67.2242 33.3297 65.3387 30.6165ZM52.0413 26.047H60.3228C60.1708 27.3007 60.3917 28.6527 60.7548 29.8281H51.6156C51.9835 28.6129 52.1321 27.3309 52.0413 26.047ZM51.1885 7.00898L50.9314 6.77141L51.1885 7.00897C52.4946 5.59571 54.3153 4.78837 56.1822 4.78837C60.0313 4.78837 63.2749 8.24669 63.0231 12.0873L62.3932 15.3255H49.9796L49.3499 12.0896C49.2339 10.2518 49.8988 8.40423 51.1885 7.00898ZM50.7238 19.1504H61.6487L61.0512 22.2223H51.3215L50.7238 19.1504ZM64.609 36.4154H50.5723C49.9616 35.884 49.3258 35.3801 48.6683 34.9074C48.9393 34.4934 49.2252 34.0745 49.5325 33.653H62.7879C63.4202 34.5736 64.0333 35.4904 64.609 36.4154ZM64.0992 76.081C63.6732 77.1476 62.6567 77.8358 61.5064 77.8358H50.8661C50.009 77.8358 49.2268 77.4535 48.7078 76.8193C55.3814 72.0064 59.4432 64.1306 59.4432 55.8778C59.4432 50.1525 57.5879 44.7112 54.1631 40.2402H66.6886C68.3035 43.8025 69.1387 47.7144 69.1387 51.6256C69.1391 61.9014 65.9833 71.3559 64.0992 76.081Z" fill="#333333" stroke="#333333" stroke-width="0.7"/>
<path d="M28.4946 51.0558C26.6479 52.9021 26.6474 55.9937 28.4944 57.8407C30.3382 59.6846 33.4349 59.6846 35.2793 57.8407C37.1499 55.97 37.1499 52.9265 35.2793 51.0558C33.4316 49.2087 30.3431 49.2073 28.4946 51.0558ZM33.0696 53.2656C33.7219 53.9177 33.7219 54.9789 33.0697 55.6311C32.4172 56.2831 31.356 56.2834 30.7039 55.6311C30.0645 54.9914 30.0629 53.9066 30.704 53.2656C31.3427 52.6268 32.4294 52.6254 33.0696 53.2656Z" fill="#333333"/>
<path d="M28.4946 51.0558C26.6479 52.9021 26.6474 55.9937 28.4944 57.8407C30.3382 59.6846 33.4349 59.6846 35.2793 57.8407C37.1499 55.97 37.1499 52.9265 35.2793 51.0558C33.4316 49.2087 30.3431 49.2073 28.4946 51.0558ZM33.0696 53.2656C33.7219 53.9177 33.7219 54.9789 33.0697 55.6311C32.4172 56.2831 31.356 56.2834 30.7039 55.6311C30.0645 54.9914 30.0629 53.9066 30.704 53.2656C31.3427 52.6268 32.4294 52.6254 33.0696 53.2656Z" stroke="#333333"/>
<path d="M24.8368 51.4721C24.8368 50.1908 24.3379 48.986 23.4317 48.0798C21.5608 46.209 18.5173 46.2092 16.6468 48.0796C14.8004 49.9259 14.7996 53.0176 16.6468 54.8644C18.4931 56.711 21.5846 56.7116 23.4314 54.8645C24.3376 53.9585 24.8368 52.7537 24.8368 51.4721ZM21.2218 52.6551C20.5821 53.2944 19.4974 53.2958 18.8562 52.6549C18.2169 52.0152 18.2153 50.9304 18.8564 50.2894C19.4949 49.6508 20.5819 49.6494 21.2219 50.2895C21.8616 50.929 21.8624 52.014 21.2218 52.6551Z" fill="#333333"/>
<path d="M24.8368 51.4721C24.8368 50.1908 24.3379 48.986 23.4317 48.0798C21.5608 46.209 18.5173 46.2092 16.6468 48.0796C14.8004 49.9259 14.7996 53.0176 16.6468 54.8644C18.4931 56.711 21.5846 56.7116 23.4314 54.8645C24.3376 53.9585 24.8368 52.7537 24.8368 51.4721ZM21.2218 52.6551C20.5821 53.2944 19.4974 53.2958 18.8562 52.6549C18.2169 52.0152 18.2153 50.9304 18.8564 50.2894C19.4949 49.6508 20.5819 49.6494 21.2219 50.2895C21.8616 50.929 21.8624 52.014 21.2218 52.6551Z" stroke="#333333"/>
<path d="M25.5201 39.2076C23.6495 41.0783 23.6495 44.1218 25.5201 45.9925C27.3638 47.8362 30.4609 47.8367 32.305 45.9925C34.1756 44.1218 34.1756 41.0783 32.305 39.2076C30.4343 37.3369 27.3908 37.3372 25.5201 39.2076ZM30.0953 43.7828C29.4432 44.4348 28.382 44.4351 27.7297 43.7828C27.0774 43.1306 27.0774 42.0694 27.7297 41.4172C28.3684 40.7785 29.4551 40.7771 30.0953 41.4172C30.7476 42.0695 30.7476 43.1307 30.0953 43.7828Z" fill="#333333"/>
<path d="M25.5201 39.2076C23.6495 41.0783 23.6495 44.1218 25.5201 45.9925C27.3638 47.8362 30.4609 47.8367 32.305 45.9925C34.1756 44.1218 34.1756 41.0783 32.305 39.2076C30.4343 37.3369 27.3908 37.3372 25.5201 39.2076ZM30.0953 43.7828C29.4432 44.4348 28.382 44.4351 27.7297 43.7828C27.0774 43.1306 27.0774 42.0694 27.7297 41.4172C28.3684 40.7785 29.4551 40.7771 30.0953 41.4172C30.7476 42.0695 30.7476 43.1307 30.0953 43.7828Z" stroke="#333333"/>
<path d="M19.9704 73.1595L19.9703 73.1593C19.2501 71.4321 16.7022 71.5101 16.1087 73.302C15.5225 75.0717 17.4819 76.6653 19.0961 75.7359L19.0961 75.7359C19.9837 75.2249 20.3644 74.1058 19.9704 73.1595Z" fill="#333333" stroke="#333333"/>
</g>
<defs>
<clipPath id="clip0">
<rect width="80" height="81" fill="white" transform="translate(0.421875 0.313477)"/>
</clipPath>
</defs>
</svg>
