<svg width="85" height="78" viewBox="0 0 85 78" fill="none" xmlns="http://www.w3.org/2000/svg">
<g opacity="0.15" clip-path="url(#clip0)">
<path d="M79.745 24.5474L79.7443 24.5463C77.2294 20.6007 73.9302 16.5265 70.4302 12.9224L70.4284 12.9206C67.0326 9.49504 63.5136 6.47664 60.227 4.48873L60.223 4.48646C53.9744 0.860188 49.3536 0.418449 45.4178 1.7791C41.5085 3.13059 38.3198 6.25003 34.913 9.61484C34.7164 9.80111 34.5189 9.98871 34.3204 10.1773C32.2855 12.1106 30.1451 14.1442 27.725 15.8595L26.8606 16.3586C24.1651 17.5968 21.3337 18.4337 18.6419 19.2293C18.379 19.307 18.1174 19.3843 17.8574 19.4616C17.8569 19.4617 17.8565 19.4618 17.8561 19.4619L17.6739 19.514C13.1525 20.8051 8.92858 22.0112 5.8455 24.6846C2.69893 27.4131 0.771263 31.636 0.812834 38.9047L0.812808 38.9047L0.812882 38.9084C0.891032 42.7456 1.65602 47.353 3.01535 51.9627C4.38651 56.7954 6.26513 61.6892 8.42454 65.8397L8.42504 65.8406C10.836 70.4262 13.1713 73.451 15.5028 75.2001L15.5027 75.2002L15.5088 75.2045C17.7426 76.7788 19.9907 77.3031 22.2367 76.735L22.2367 76.7351L22.2417 76.7337C24.2373 76.1845 26.1257 74.8486 27.681 72.7623C30.3486 69.3321 32.6187 64.0204 34.4381 58.1734L34.4381 58.1734L34.4395 58.1689C35.6367 54.0487 39.9406 49.8148 45.0498 46.865C50.159 43.9152 55.9776 42.3049 60.1444 43.3282L60.1444 43.3282L60.149 43.3292C66.1235 44.6773 71.8598 45.3672 76.1645 44.7715L76.1685 44.7709C78.6885 44.3804 80.8429 43.5052 82.3208 42.047L82.3209 42.0471L82.3267 42.041C83.8462 40.4367 84.6622 38.2668 84.3118 35.3581C84.0133 32.5491 82.5596 29.013 79.745 24.5474ZM30.2952 56.9853L30.295 56.9857C28.5917 62.4082 26.5959 67.2646 24.2797 70.0997C23.1689 71.4415 22.1331 72.3507 21.0551 72.5444L21.0481 72.5456L21.0412 72.5473C20.1003 72.7722 19.063 72.5175 17.8613 71.6249C16.2381 70.4025 14.337 67.9309 12.1916 63.8075C10.2006 59.9519 8.34699 55.3166 7.08573 50.6901L7.08541 50.689C5.88536 46.3685 5.10603 42.1724 5.09189 38.7069L5.09187 38.7048C5.02031 33.0142 6.585 29.7574 9.07887 27.6505C11.5953 25.5245 15.088 24.5374 18.9685 23.4696L18.9696 23.4693C22.1159 22.5874 25.3695 21.6497 28.638 20.1154L28.6476 20.1109L28.6567 20.1056L28.6573 20.1053L28.6578 20.105L28.6583 20.1047L28.6588 20.1044L28.6593 20.1041L28.6598 20.1038L28.6603 20.1035L28.6608 20.1032L28.6613 20.1029L28.6618 20.1027L28.6623 20.1024L28.6628 20.1021L28.6633 20.1018L28.6638 20.1015L28.6643 20.1012L28.6648 20.101L28.6653 20.1007L28.6657 20.1004L28.6662 20.1001L28.6667 20.0998L28.6672 20.0996L28.6677 20.0993L28.6681 20.099L28.6686 20.0987L28.6691 20.0985L28.6696 20.0982L28.67 20.0979L28.6705 20.0977L28.671 20.0974L28.6714 20.0971L28.6719 20.0969L28.6723 20.0966L28.6728 20.0963L28.6732 20.0961L28.6737 20.0958L28.6741 20.0955L28.6746 20.0953L28.675 20.095L28.6755 20.0948L28.6759 20.0945L28.6764 20.0943L28.6768 20.094L28.6773 20.0937L28.6777 20.0935L28.6781 20.0932L28.6786 20.093L28.679 20.0927L28.6794 20.0925L28.6799 20.0922L28.6803 20.092L28.6807 20.0918L28.6811 20.0915L28.6816 20.0913L28.682 20.091L28.6824 20.0908L28.6828 20.0905L28.6832 20.0903L28.6837 20.0901L28.6841 20.0898L28.6845 20.0896L28.6849 20.0893L28.6853 20.0891L28.6857 20.0889L28.6861 20.0886L28.6865 20.0884L28.6869 20.0882L28.6873 20.0879L28.6877 20.0877L28.6881 20.0875L28.6885 20.0873L28.6889 20.087L28.6893 20.0868L28.6897 20.0866L28.6901 20.0863L28.6905 20.0861L28.6909 20.0859L28.6912 20.0857L28.6916 20.0854L28.692 20.0852L28.6924 20.085L28.6928 20.0848L28.6932 20.0846L28.6935 20.0843L28.6939 20.0841L28.6943 20.0839L28.6947 20.0837L28.695 20.0835L28.6954 20.0833L28.6958 20.0831L28.6961 20.0828L28.6965 20.0826L28.6969 20.0824L28.6972 20.0822L28.6976 20.082L28.698 20.0818L28.6983 20.0816L28.6987 20.0814L28.699 20.0812L28.6994 20.081L28.6998 20.0808L28.7001 20.0806L28.7005 20.0803L28.7008 20.0801L28.7012 20.0799L28.7015 20.0797L28.7019 20.0795L28.7022 20.0793L28.7026 20.0791L28.7029 20.0789L28.7033 20.0787L28.7036 20.0785L28.7039 20.0783L28.7043 20.0781L28.7046 20.078L28.705 20.0778L28.7053 20.0776L28.7056 20.0774L28.706 20.0772L28.7063 20.077L28.7066 20.0768L28.707 20.0766L28.7073 20.0764L28.7076 20.0762L28.708 20.076L28.7083 20.0758L28.7086 20.0756L28.7089 20.0755L28.7093 20.0753L28.7096 20.0751L28.7099 20.0749L28.7102 20.0747L28.7105 20.0745L28.7109 20.0743L28.7112 20.0742L28.7115 20.074L28.7118 20.0738L28.7121 20.0736L28.7124 20.0734L28.7128 20.0732L28.7131 20.0731L28.7134 20.0729L28.7137 20.0727L28.714 20.0725L28.7143 20.0724L28.7146 20.0722L28.7149 20.072L28.7152 20.0718L28.7155 20.0716L28.7158 20.0715L28.7162 20.0713L28.7165 20.0711L28.7168 20.0709L28.7171 20.0708L28.7174 20.0706L28.7177 20.0704L28.718 20.0702L28.7183 20.0701L28.7186 20.0699L28.7189 20.0697L28.7191 20.0696L28.7194 20.0694L28.7197 20.0692L28.72 20.0691L28.7203 20.0689L28.7206 20.0687L28.7209 20.0685L28.7212 20.0684L28.7215 20.0682L28.7218 20.068L28.7221 20.0679L28.7224 20.0677L28.7226 20.0675L28.7229 20.0674L28.7232 20.0672L28.7235 20.0671L28.7238 20.0669L28.7241 20.0667L28.7244 20.0666L28.7246 20.0664L28.7249 20.0662L28.7252 20.0661L28.7255 20.0659L28.7258 20.0657L28.726 20.0656L28.7263 20.0654L28.7266 20.0653L28.7269 20.0651L28.7272 20.0649L28.7274 20.0648L28.7277 20.0646L28.728 20.0645L28.7283 20.0643L28.7285 20.0641L28.7288 20.064L28.7291 20.0638L28.7294 20.0637L28.7296 20.0635L28.7299 20.0634L28.7302 20.0632L28.7304 20.063L28.7307 20.0629L28.731 20.0627L28.7313 20.0626L28.7315 20.0624L28.7318 20.0623L28.7321 20.0621L28.7323 20.0619L28.7326 20.0618L28.7329 20.0616L28.7331 20.0615L28.7334 20.0613L28.7337 20.0612L28.7339 20.061L28.7342 20.0609L28.7345 20.0607L28.7347 20.0606L28.735 20.0604L28.7353 20.0603L28.7355 20.0601L28.7358 20.0599L28.7361 20.0598L28.7363 20.0596L28.7366 20.0595L28.7369 20.0593L28.7371 20.0592L28.7374 20.059L28.7376 20.0589L28.7379 20.0587L28.7382 20.0586L28.7384 20.0584L28.7387 20.0583L28.739 20.0581L28.7392 20.058L28.7395 20.0578L28.7397 20.0577L28.74 20.0575L28.7403 20.0574L28.7405 20.0572L28.7408 20.0571L28.741 20.0569L28.7413 20.0568L28.7416 20.0566L28.7418 20.0565L28.7421 20.0563L28.7423 20.0562L28.7426 20.056L28.7429 20.0559L28.7431 20.0557L28.7434 20.0556L28.7436 20.0554L28.7439 20.0553L28.7442 20.0551L28.7444 20.055L28.7447 20.0548L28.7449 20.0547L28.7452 20.0545L28.7454 20.0544L28.7457 20.0542L28.746 20.0541L28.7462 20.0539L28.7465 20.0538L28.7467 20.0536L28.747 20.0535L28.7473 20.0533L28.7475 20.0532L28.7478 20.053L28.748 20.0529L28.7483 20.0527L28.7486 20.0526L28.7488 20.0524L28.7491 20.0523L28.7493 20.0521L28.7496 20.052L28.7499 20.0518L28.7501 20.0517L28.7504 20.0515L28.7506 20.0514L28.7509 20.0512L28.7512 20.0511L28.7514 20.0509L28.7517 20.0508L28.752 20.0506L28.7522 20.0505L28.7525 20.0503L28.7527 20.0502L28.753 20.05L28.7533 20.0499L28.7535 20.0497L28.7538 20.0496L28.7541 20.0494L28.7543 20.0493L28.7546 20.0491L28.7548 20.049L28.7551 20.0488L28.7554 20.0486L28.7556 20.0485L28.7559 20.0483L28.7562 20.0482L28.7564 20.048L28.7567 20.0479L28.757 20.0477L28.7572 20.0476L28.7575 20.0474L28.7578 20.0473L28.758 20.0471L28.7583 20.047L28.7586 20.0468L28.7589 20.0466L28.7591 20.0465L28.7594 20.0463L28.7597 20.0462L28.7599 20.046L28.7602 20.0459L28.7605 20.0457L28.7608 20.0455L28.761 20.0454L28.7613 20.0452L28.7616 20.0451L28.7618 20.0449L28.7621 20.0448L28.7624 20.0446L28.7627 20.0444L28.7629 20.0443L28.7632 20.0441L28.7635 20.044L28.7638 20.0438L28.7641 20.0436L28.7643 20.0435L28.7646 20.0433L28.7649 20.0431L28.7652 20.043L28.7655 20.0428L28.7657 20.0427L28.766 20.0425L28.7663 20.0423L28.7666 20.0422L28.7669 20.042L28.7672 20.0418L28.7675 20.0417L28.7677 20.0415L28.768 20.0413L28.7683 20.0412L28.7686 20.041L28.7689 20.0408L28.7692 20.0407L28.7695 20.0405L28.7698 20.0403L28.7701 20.0402L28.7704 20.04L28.7706 20.0398L28.7709 20.0397L28.7712 20.0395L28.7715 20.0393L28.7718 20.0391L28.7721 20.039L28.7724 20.0388L28.7727 20.0386L28.773 20.0385L28.7733 20.0383L28.7736 20.0381L28.7739 20.0379L28.7742 20.0378L28.7745 20.0376L28.7748 20.0374L28.7751 20.0372L28.7754 20.0371L28.7758 20.0369L28.7761 20.0367L28.7764 20.0365L28.7767 20.0363L28.777 20.0362L28.7773 20.036L28.7776 20.0358L28.7779 20.0356L28.7783 20.0354L28.7786 20.0353L28.7789 20.0351L28.7792 20.0349L28.7795 20.0347L28.7798 20.0345L28.7802 20.0343L28.7805 20.0342L28.7808 20.034L28.7811 20.0338L28.7814 20.0336L28.7818 20.0334L28.7821 20.0332L28.7824 20.033L28.7828 20.0328L28.7831 20.0326L28.7834 20.0325L28.7837 20.0323L28.7841 20.0321L28.7844 20.0319L28.7848 20.0317L28.7851 20.0315L28.7854 20.0313L28.7858 20.0311L28.7861 20.0309L28.7864 20.0307L28.7868 20.0305L28.7871 20.0303L28.7875 20.0301L28.7878 20.0299L28.7882 20.0297L28.7885 20.0295L28.7889 20.0293L28.7892 20.0291L28.7896 20.0289L28.7899 20.0287L28.7903 20.0285L28.7906 20.0283L28.791 20.0281L28.7913 20.0279L28.7917 20.0277L28.792 20.0275L28.7924 20.0273L28.7928 20.0271L28.7931 20.0268L28.7935 20.0266L28.7939 20.0264L28.7942 20.0262L28.7946 20.026L28.795 20.0258L28.7953 20.0256L28.7957 20.0254L28.7961 20.0251L28.7965 20.0249L28.7968 20.0247L28.7972 20.0245L28.7976 20.0243L28.798 20.024L28.7984 20.0238L28.7987 20.0236L28.7991 20.0234L28.7995 20.0232L28.7999 20.0229L28.8003 20.0227L28.8007 20.0225L28.8011 20.0223L28.8015 20.022L28.8019 20.0218L28.8023 20.0216L28.8027 20.0213L28.8031 20.0211L28.8035 20.0209L28.8039 20.0206L28.8043 20.0204L28.8047 20.0202L28.8051 20.0199L28.8055 20.0197L28.8059 20.0195L28.8063 20.0192L28.8067 20.019L28.8071 20.0188L28.8076 20.0185L28.808 20.0183L28.8084 20.018L28.8088 20.0178L28.8092 20.0175L28.8097 20.0173L28.8101 20.0171L28.8105 20.0168L28.811 20.0166L28.8114 20.0163L28.8118 20.0161L28.8123 20.0158L28.8127 20.0156L28.8131 20.0153L28.8136 20.0151L28.814 20.0148L28.8144 20.0145L28.8149 20.0143L28.8153 20.014L28.8158 20.0138L28.8162 20.0135L28.8167 20.0132L28.8171 20.013L28.8176 20.0127L28.8181 20.0125L28.8185 20.0122L28.819 20.0119L28.8194 20.0117L28.8199 20.0114L28.8204 20.0111L28.8208 20.0109L28.8213 20.0106L28.8218 20.0103L28.8222 20.01L28.8227 20.0098L28.8232 20.0095L28.8237 20.0092L28.8242 20.0089L28.8246 20.0087L28.8251 20.0084L28.8256 20.0081L28.8261 20.0078L28.8266 20.0075L28.8271 20.0073L28.8276 20.007L28.8281 20.0067L28.8286 20.0064L28.8291 20.0061L28.8296 20.0058L28.8301 20.0055L28.8306 20.0052L28.8311 20.0049L28.8316 20.0046L28.8321 20.0044L28.8326 20.0041L28.8331 20.0038L28.8336 20.0035L29.8066 19.4417L29.8071 19.4414L29.8076 19.4411L29.8081 19.4408L29.8087 19.4405L29.8092 19.4402L29.8097 19.4399L29.8102 19.4397L29.8107 19.4394L29.8112 19.4391L29.8117 19.4388L29.8122 19.4385L29.8127 19.4382L29.8132 19.4379L29.8137 19.4376L29.8142 19.4374L29.8146 19.4371L29.8151 19.4368L29.8156 19.4365L29.8161 19.4362L29.8166 19.436L29.8171 19.4357L29.8175 19.4354L29.818 19.4351L29.8185 19.4349L29.8189 19.4346L29.8194 19.4343L29.8199 19.4341L29.8203 19.4338L29.8208 19.4335L29.8213 19.4332L29.8217 19.433L29.8222 19.4327L29.8227 19.4325L29.8231 19.4322L29.8236 19.4319L29.824 19.4317L29.8245 19.4314L29.8249 19.4312L29.8254 19.4309L29.8258 19.4306L29.8262 19.4304L29.8267 19.4301L29.8271 19.4299L29.8276 19.4296L29.828 19.4294L29.8284 19.4291L29.8289 19.4289L29.8293 19.4286L29.8297 19.4284L29.8302 19.4281L29.8306 19.4279L29.831 19.4276L29.8314 19.4274L29.8318 19.4271L29.8323 19.4269L29.8327 19.4267L29.8331 19.4264L29.8335 19.4262L29.8339 19.4259L29.8343 19.4257L29.8347 19.4255L29.8352 19.4252L29.8356 19.425L29.836 19.4248L29.8364 19.4245L29.8368 19.4243L29.8372 19.4241L29.8376 19.4238L29.838 19.4236L29.8384 19.4234L29.8388 19.4231L29.8392 19.4229L29.8396 19.4227L29.8399 19.4225L29.8403 19.4222L29.8407 19.422L29.8411 19.4218L29.8415 19.4216L29.8419 19.4214L29.8423 19.4211L29.8426 19.4209L29.843 19.4207L29.8434 19.4205L29.8438 19.4203L29.8442 19.42L29.8445 19.4198L29.8449 19.4196L29.8453 19.4194L29.8456 19.4192L29.846 19.419L29.8464 19.4188L29.8467 19.4185L29.8471 19.4183L29.8475 19.4181L29.8478 19.4179L29.8482 19.4177L29.8486 19.4175L29.8489 19.4173L29.8493 19.4171L29.8496 19.4169L29.85 19.4167L29.8503 19.4165L29.8507 19.4163L29.851 19.4161L29.8514 19.4159L29.8517 19.4157L29.8521 19.4155L29.8524 19.4153L29.8528 19.4151L29.8531 19.4149L29.8535 19.4147L29.8538 19.4145L29.8541 19.4143L29.8545 19.4141L29.8548 19.4139L29.8552 19.4137L29.8555 19.4135L29.8558 19.4133L29.8562 19.4131L29.8565 19.4129L29.8568 19.4127L29.8572 19.4125L29.8575 19.4123L29.8578 19.4122L29.8581 19.412L29.8585 19.4118L29.8588 19.4116L29.8591 19.4114L29.8594 19.4112L29.8598 19.411L29.8601 19.4108L29.8604 19.4107L29.8607 19.4105L29.861 19.4103L29.8614 19.4101L29.8617 19.4099L29.862 19.4097L29.8623 19.4096L29.8626 19.4094L29.8629 19.4092L29.8633 19.409L29.8636 19.4088L29.8639 19.4087L29.8642 19.4085L29.8645 19.4083L29.8648 19.4081L29.8651 19.4079L29.8654 19.4078L29.8657 19.4076L29.866 19.4074L29.8663 19.4072L29.8666 19.4071L29.8669 19.4069L29.8672 19.4067L29.8675 19.4065L29.8678 19.4064L29.8681 19.4062L29.8684 19.406L29.8687 19.4059L29.869 19.4057L29.8693 19.4055L29.8696 19.4053L29.8699 19.4052L29.8702 19.405L29.8705 19.4048L29.8708 19.4047L29.8711 19.4045L29.8714 19.4043L29.8716 19.4042L29.8719 19.404L29.8722 19.4038L29.8725 19.4037L29.8728 19.4035L29.8731 19.4033L29.8734 19.4032L29.8737 19.403L29.8739 19.4028L29.8742 19.4027L29.8745 19.4025L29.8748 19.4024L29.8751 19.4022L29.8753 19.402L29.8756 19.4019L29.8759 19.4017L29.8762 19.4015L29.8765 19.4014L29.8767 19.4012L29.877 19.4011L29.8773 19.4009L29.8776 19.4007L29.8778 19.4006L29.8781 19.4004L29.8784 19.4003L29.8787 19.4001L29.8789 19.4L29.8792 19.3998L29.8795 19.3996L29.8798 19.3995L29.88 19.3993L29.8803 19.3992L29.8806 19.399L29.8809 19.3989L29.8811 19.3987L29.8814 19.3985L29.8817 19.3984L29.8819 19.3982L29.8822 19.3981L29.8825 19.3979L29.8827 19.3978L29.883 19.3976L29.8833 19.3975L29.8835 19.3973L29.8838 19.3971L29.8841 19.397L29.8843 19.3968L29.8846 19.3967L29.8849 19.3965L29.8851 19.3964L29.8854 19.3962L29.8857 19.3961L29.8859 19.3959L29.8862 19.3958L29.8865 19.3956L29.8867 19.3955L29.887 19.3953L29.8872 19.3952L29.8875 19.395L29.8878 19.3949L29.888 19.3947L29.8883 19.3946L29.8886 19.3944L29.8888 19.3943L29.8891 19.3941L29.8893 19.394L29.8896 19.3938L29.8899 19.3937L29.8901 19.3935L29.8904 19.3933L29.8906 19.3932L29.8909 19.3931L29.8912 19.3929L29.8914 19.3927L29.8917 19.3926L29.8919 19.3924L29.8922 19.3923L29.8925 19.3922L29.8927 19.392L29.893 19.3919L29.8932 19.3917L29.8935 19.3916L29.8938 19.3914L29.894 19.3913L29.8943 19.3911L29.8945 19.391L29.8948 19.3908L29.8951 19.3907L29.8953 19.3905L29.8956 19.3904L29.8958 19.3902L29.8961 19.3901L29.8963 19.3899L29.8966 19.3898L29.8969 19.3896L29.8971 19.3895L29.8974 19.3893L29.8976 19.3892L29.8979 19.389L29.8982 19.3889L29.8984 19.3887L29.8987 19.3886L29.8989 19.3884L29.8992 19.3883L29.8995 19.3881L29.8997 19.388L29.9 19.3878L29.9002 19.3877L29.9005 19.3875L29.9008 19.3874L29.901 19.3872L29.9013 19.3871L29.9016 19.3869L29.9018 19.3868L29.9021 19.3866L29.9023 19.3864L29.9026 19.3863L29.9029 19.3861L29.9031 19.386L29.9034 19.3858L29.9037 19.3857L29.9039 19.3855L29.9042 19.3854L29.9044 19.3852L29.9047 19.3851L29.905 19.3849L29.9052 19.3848L29.9055 19.3846L29.9058 19.3845L29.906 19.3843L29.9063 19.3842L29.9066 19.384L29.9068 19.3839L29.9071 19.3837L29.9074 19.3835L29.9076 19.3834L29.9079 19.3832L29.9082 19.3831L29.9084 19.3829L29.9087 19.3828L29.909 19.3826L29.9093 19.3825L29.9095 19.3823L29.9098 19.3821L29.9101 19.382L29.9103 19.3818L29.9106 19.3817L29.9109 19.3815L29.9112 19.3814L29.9114 19.3812L29.9117 19.381L29.912 19.3809L29.9123 19.3807L29.9125 19.3806L29.9128 19.3804L29.9131 19.3802L29.9134 19.3801L29.9136 19.3799L29.9139 19.3798L29.9142 19.3796L29.9145 19.3794L29.9148 19.3793L29.915 19.3791L29.9153 19.3789L29.9156 19.3788L29.9159 19.3786L29.9162 19.3785L29.9165 19.3783L29.9167 19.3781L29.917 19.378L29.9173 19.3778L29.9176 19.3776L29.9179 19.3775L29.9182 19.3773L29.9185 19.3771L29.9188 19.377L29.919 19.3768L29.9193 19.3766L29.9196 19.3765L29.9199 19.3763L29.9202 19.3761L29.9205 19.376L29.9208 19.3758L29.9211 19.3756L29.9214 19.3754L29.9217 19.3753L29.922 19.3751L29.9223 19.3749L29.9226 19.3748L29.9229 19.3746L29.9232 19.3744L29.9235 19.3742L29.9238 19.3741L29.9241 19.3739L29.9244 19.3737L29.9247 19.3735L29.925 19.3734L29.9253 19.3732L29.9256 19.373L29.9259 19.3728L29.9262 19.3726L29.9265 19.3725L29.9269 19.3723L29.9272 19.3721L29.9275 19.3719L29.9278 19.3717L29.9281 19.3716L29.9284 19.3714L29.9287 19.3712L29.9291 19.371L29.9294 19.3708L29.9297 19.3707L29.93 19.3705L29.9303 19.3703L29.9307 19.3701L29.931 19.3699L29.9313 19.3697L29.9316 19.3695L29.932 19.3693L29.9323 19.3692L29.9326 19.369L29.933 19.3688L29.9333 19.3686L29.9336 19.3684L29.9339 19.3682L29.9343 19.368L29.9346 19.3678L29.9349 19.3676L29.9353 19.3674L29.9356 19.3672L29.936 19.367L29.9363 19.3668L29.9366 19.3666L29.937 19.3664L29.9373 19.3662L29.9377 19.366L29.938 19.3658L29.9384 19.3656L29.9387 19.3654L29.9391 19.3652L29.9394 19.365L29.9398 19.3648L29.9401 19.3646L29.9405 19.3644L29.9408 19.3642L29.9412 19.364L29.9416 19.3638L29.9419 19.3636L29.9423 19.3634L29.9426 19.3632L29.943 19.363L29.9434 19.3628L29.9437 19.3625L29.9441 19.3623L29.9445 19.3621L29.9448 19.3619L29.9452 19.3617L29.9456 19.3615L29.946 19.3613L29.9463 19.361L29.9467 19.3608L29.9471 19.3606L29.9475 19.3604L29.9478 19.3602L29.9482 19.36L29.9486 19.3597L29.949 19.3595L29.9494 19.3593L29.9498 19.3591L29.9502 19.3588L29.9506 19.3586L29.9509 19.3584L29.9513 19.3582L29.9517 19.3579L29.9521 19.3577L29.9525 19.3575L29.9529 19.3572L29.9533 19.357L29.9537 19.3568L29.9541 19.3565L29.9545 19.3563L29.9549 19.3561L29.9554 19.3558L29.9558 19.3556L29.9562 19.3554L29.9566 19.3551L29.957 19.3549L29.9574 19.3546L29.9578 19.3544L29.9583 19.3542L29.9587 19.3539L29.9591 19.3537L29.9595 19.3534L29.96 19.3532L29.9604 19.3529L29.9608 19.3527L29.9612 19.3524L29.9617 19.3522L29.9621 19.3519L29.9626 19.3517L29.963 19.3514L29.9634 19.3512L29.9639 19.3509L29.9643 19.3507L29.9648 19.3504L29.9652 19.3502L29.9656 19.3499L29.9661 19.3496L29.9665 19.3494L29.967 19.3491L29.9675 19.3489L29.9679 19.3486L29.9684 19.3483L29.9688 19.3481L29.9693 19.3478L29.9698 19.3475L29.9702 19.3473L29.9707 19.347L29.9712 19.3467L29.9716 19.3464L29.9721 19.3462L29.9726 19.3459L29.9731 19.3456L29.9735 19.3453L29.974 19.3451L29.9745 19.3448L29.975 19.3445L29.9755 19.3442L29.976 19.3439L29.9764 19.3437L29.9769 19.3434L29.9774 19.3431L29.9779 19.3428L29.9784 19.3425L29.9789 19.3422L29.9794 19.3419L29.9799 19.3417L29.9804 19.3414L29.9809 19.3411L29.9814 19.3408L29.982 19.3405L29.9825 19.3402L29.983 19.3399L29.9835 19.3396L29.9924 19.3344L30.0009 19.3286C33.0522 17.2142 35.491 14.8656 37.8279 12.5817C37.8281 12.5815 37.8283 12.5813 37.8285 12.5811L37.9544 12.4599C40.796 9.72383 43.3656 7.24957 46.4148 6.13857C49.4803 5.02165 53.07 5.27349 57.9617 8.18033L57.9636 8.1814C60.9581 9.92665 64.1516 12.6121 67.3418 15.8971C70.6346 19.3587 73.7595 23.1439 76.1515 26.8802C78.6491 30.7989 79.8394 33.6812 80.0993 35.9246C80.2715 37.4105 79.9743 38.4357 79.3104 39.1382C78.5433 39.9071 77.2665 40.4334 75.5712 40.721C71.8156 41.2736 66.6602 40.6598 61.2108 39.3751C55.837 37.9632 48.8805 39.7525 42.9277 43.1894C36.9724 46.6277 31.9493 51.7563 30.2952 56.9853Z" fill="#333333" stroke="#333333" stroke-width="0.5"/>
<path d="M26.0597 32.7672C24.7198 32.4891 23.3042 32.4884 22.0153 33.1158C21.269 32.0275 20.0806 31.1946 18.8291 30.8655L18.6901 30.8289C17.1605 30.4266 15.6186 30.6157 14.2034 31.4328C12.7882 32.2499 11.8156 33.6294 11.4371 35.0164C11.0964 36.2648 11.135 37.7615 11.7549 39.0396C10.5672 39.8421 9.8094 40.9808 9.38027 42.2802L9.34242 42.4189C8.92603 43.9447 9.1037 45.478 9.91327 46.8802C10.7228 48.2824 12.101 49.2396 13.4915 49.6053C14.882 49.971 16.247 49.884 17.6243 49.2056C18.4212 50.3815 19.6096 51.2144 20.9495 51.4925C22.4791 51.8948 24.021 51.7057 25.4362 50.8886C26.8514 50.0715 27.824 48.692 28.2025 47.305C28.4926 45.969 28.5046 44.5598 27.8847 43.2818C29.0724 42.4792 29.9186 41.2895 30.2087 39.9536C30.6251 38.4278 30.4474 36.8944 29.6379 35.4922C28.8283 34.09 27.4502 33.1329 26.0597 32.7672ZM26.6819 38.9516C26.5305 39.5065 26.1894 39.9371 25.6587 40.2435L24.4204 40.9584C23.5359 41.4691 23.1446 42.6298 23.7012 43.5938L24.359 44.7331C24.6626 45.259 24.7386 45.7993 24.5872 46.3541C24.4358 46.9089 24.0948 47.3395 23.5641 47.646C23.0334 47.9524 22.4899 48.0324 21.9337 47.8861C21.3775 47.7398 20.9476 47.4038 20.644 46.878L19.9357 45.651C19.4297 44.7746 18.2667 44.3944 17.2937 44.9562L16.0554 45.6711C15.5247 45.9775 14.9812 46.0576 14.425 45.9113C14.0079 45.8016 13.4896 45.5166 13.186 44.9907C12.8824 44.4649 12.8063 43.9246 12.9577 43.3698C12.9577 43.3698 12.9577 43.3698 12.9956 43.2311C13.1976 42.7639 13.5386 42.3333 13.9809 42.0779L15.2192 41.363C16.1037 40.8523 16.495 39.6916 15.9384 38.7276L15.23 37.5006C14.9264 36.9748 14.8503 36.4345 15.0018 35.8796C15.1532 35.3248 15.4942 34.8942 16.0249 34.5878C16.5556 34.2814 17.0991 34.2013 17.6553 34.3476C17.6553 34.3476 17.6553 34.3476 17.7943 34.3842C18.2621 34.5815 18.692 34.9176 18.945 35.3558L19.6533 36.5827C20.1593 37.4591 21.3223 37.8393 22.2953 37.2776L23.5336 36.5627C24.0643 36.2562 24.6078 36.1762 25.1639 36.3225C25.7201 36.4688 26.15 36.8048 26.4536 37.3306C26.7572 37.8565 26.8333 38.3968 26.6819 38.9516Z" fill="#333333"/>
<path d="M49.8408 19.6208C51.5505 18.6337 52.1437 16.4601 51.1656 14.7661C50.1876 13.072 48.0087 12.499 46.2989 13.4861C44.5892 14.4732 43.996 16.6467 44.9741 18.3408C45.9521 20.0348 48.131 20.6079 49.8408 19.6208Z" fill="#333333"/>
<path d="M57.0283 32.0661C58.738 31.079 59.3312 28.9054 58.3531 27.2114C57.3751 25.5173 55.1962 24.9443 53.4864 25.9314C51.7767 26.9185 51.1835 29.092 52.1616 30.7861C53.1396 32.4801 55.3185 33.0532 57.0283 32.0661Z" fill="#333333"/>
<path d="M47.1533 29.4694C48.863 28.4823 49.4562 26.3088 48.4781 24.6147C47.5001 22.9207 45.3212 22.3476 43.6114 23.3347C41.9017 24.3218 41.3085 26.4954 42.2866 28.1894C43.2646 29.8835 45.4435 30.4565 47.1533 29.4694Z" fill="#333333"/>
<path d="M59.7158 22.2175C61.4255 21.2303 62.0187 19.0568 61.0406 17.3628C60.0626 15.6687 57.8837 15.0956 56.1739 16.0828C54.4642 17.0699 53.871 19.2434 54.8491 20.9375C55.8271 22.6315 58.006 23.2046 59.7158 22.2175Z" fill="#333333"/>
</g>
<defs>
<clipPath id="clip0">
<rect width="84" height="77" fill="white" transform="translate(0.425781 0.313477)"/>
</clipPath>
</defs>
</svg>
