<svg width="89" height="88" viewBox="0 0 89 88" fill="none" xmlns="http://www.w3.org/2000/svg">
<g opacity="0.15" clip-path="url(#clip0)">
<path d="M77.4259 80.6601C75.0759 80.6601 73.1592 78.775 73.1592 76.4352C73.1592 74.0953 75.0759 72.2102 77.4259 72.2102C79.7758 72.2102 81.6925 74.0953 81.6925 76.4351L77.4259 80.6601ZM77.4259 80.6601C79.776 80.6601 81.6927 78.7751 81.6925 76.4352L77.4259 80.6601ZM67.0258 76.4352C67.0258 70.7669 71.6756 66.1601 77.4259 66.1601C83.1763 66.1601 87.826 70.7667 87.826 76.4352C87.826 82.1035 83.1762 86.7103 77.4259 86.7103C71.6756 86.7103 67.0258 82.1035 67.0258 76.4352Z" fill="#333333" stroke="white" stroke-width="1.2"/>
<path d="M71.8292 11.1916L71.8291 11.1915C71.6813 11.0404 71.5318 10.8907 71.3809 10.7427L71.3787 10.7406C65.4948 4.91071 57.6463 1.42344 49.3276 0.944734C40.3024 0.571826 31.547 4.02633 25.2628 10.437L25.2561 10.4438L25.2561 10.4437C15.1725 20.409 15.918 31.5512 16.4862 39.8718L16.4864 39.8737C16.6689 42.6817 16.8045 45.0286 16.6412 46.9167C16.4776 48.8093 16.0065 50.3485 14.8831 51.4573L71.8292 11.1916ZM71.8292 11.1916C84.0628 23.6922 83.7302 43.6279 71.0857 55.7229L71.0856 55.7229M71.8292 11.1916L71.0856 55.7229M71.0856 55.7229L71.0786 55.7297M71.0856 55.7229L71.0786 55.7297M71.0786 55.7297C60.9925 65.6976 49.7087 64.961 41.3015 64.4029M71.0786 55.7297L41.3015 64.4029M41.3015 64.4029C38.4647 64.2114 36.0914 64.0764 34.1809 64.2396M41.3015 64.4029L34.1809 64.2396M34.1809 64.2396C32.2685 64.403 30.7134 64.8723 29.5972 65.9813L34.1809 64.2396ZM1.92123 64.2718L14.8827 51.4577L29.596 65.9825L16.638 78.7933C16.637 78.7942 16.636 78.7952 16.635 78.7961C15.424 79.9554 13.4982 79.9554 12.2873 78.7961C12.2863 78.7952 12.2853 78.7942 12.2843 78.7933L1.92123 68.5443L1.49932 68.9709L1.92121 68.5443C0.727346 67.3637 0.727284 65.4527 1.92116 64.2719C1.92118 64.2718 1.92121 64.2718 1.92123 64.2718ZM14.0391 71.964L14.4609 72.3813L14.8829 71.9641L22.6637 64.2717L23.0955 63.8449L22.6636 63.4182L17.4752 58.2924L17.0533 57.8757L16.6316 58.2926L8.85457 65.9813L8.42314 66.4078L8.85441 66.8345L14.0391 71.964ZM28.074 59.7125C32.2486 58.1439 36.7572 57.6583 41.1707 58.2984V58.3844H41.7707H42.0529H43.5133L42.4748 57.3577L23.628 38.725L22.6061 37.7148V39.1517V39.4272V39.477L22.6144 39.5261C23.369 44.0414 22.8967 48.674 21.2458 52.9499L21.1042 53.3166L21.3838 53.5928L27.4413 59.5777L27.7145 59.8476L28.074 59.7125ZM51.9676 58.1927L52.1698 58.3926L52.4526 58.3627C57.8823 57.788 62.9356 55.3429 66.7265 51.4537C66.8484 51.3377 66.9688 51.2205 67.0878 51.1025L67.0879 51.1024C77.1503 41.1187 77.1213 24.9581 67.0237 15.0098C62.225 10.2443 55.8239 7.38943 49.0372 6.98559L49.0372 6.98554L49.0294 6.98517C41.7245 6.64658 34.6307 9.46687 29.5954 14.714C25.6571 18.4654 23.1813 23.4708 22.6059 28.8505L22.5752 29.1379L22.7807 29.3411L51.9676 58.1927Z" fill="#333333" stroke="white" stroke-width="1.2"/>
</g>
<defs>
<clipPath id="clip0">
<rect width="88" height="87" fill="white" transform="translate(0.425781 0.313477)"/>
</clipPath>
</defs>
</svg>
