<svg width="85" height="84" viewBox="0 0 85 84" fill="none" xmlns="http://www.w3.org/2000/svg">
<g opacity="0.15" clipPath="url(#clip0)">
<path d="M64.3437 43.5212C55.1876 43.5212 47.4437 49.6086 45.0387 57.9024H37.7677V50.543C44.4101 49.7211 50.0336 45.6171 52.9199 39.9315C62.9039 37.9735 70.2461 29.2634 70.2461 19.0468V16.6151H54.9987V0.214844H15.6147V16.6151H0.421875V19.0468C0.421875 29.2426 7.7343 37.9379 17.6875 39.9192C20.572 45.6113 26.1987 49.7205 32.8459 50.543V57.9024H14.9124V78.3516H6.85755V83.2148H64.3439C75.415 83.2148 84.4219 74.2995 84.4219 63.3602C84.4219 52.4209 75.415 43.5212 64.3437 43.5212ZM65.1422 21.4784C64.2599 27.3309 60.2412 32.242 54.7438 34.3603C54.9106 33.343 54.9986 32.3002 54.9986 31.2372V21.4786H65.1422V21.4784ZM50.0769 5.07812V9.15615H20.5366V5.07812H50.0769ZM5.52553 21.4784H15.6147V31.2371C15.6147 32.2917 15.7013 33.3267 15.8656 34.3363C10.3985 32.206 6.40474 27.3101 5.52553 21.4784ZM20.5366 31.2372V14.0194H50.0769V31.2371C50.0769 39.2843 43.451 45.8313 35.3068 45.8313C27.1626 45.8313 20.5366 39.2845 20.5366 31.2372ZM79.5 63.3602C79.5 65.2301 79.1504 67.0206 78.5138 68.6725L72.9252 65.452V61.2701L78.5278 58.0837C79.1555 59.7257 79.5 61.5039 79.5 63.3602ZM49.1877 63.3602C49.1877 61.5206 49.5259 59.7576 50.1428 58.1279L55.7605 61.2798V65.4405L50.1537 68.6205C49.53 66.9832 49.1877 65.2105 49.1877 63.3602ZM64.3429 67.5329L62.283 66.3577L60.6825 65.4447V61.2685L64.3428 59.1805L68.0027 61.2683V65.4452L67.9792 65.4587L64.3429 67.5329ZM58.2183 69.6546L61.8818 71.7445V78.1373C58.1668 77.535 54.9021 75.5939 52.6141 72.8329L58.2183 69.6546ZM76.0627 53.874L70.4657 57.0574L66.804 54.9684V49.1967H66.8034V48.5828C70.5135 49.1835 73.7747 51.1195 76.0627 53.874ZM61.8813 48.5833V54.9689L58.2114 57.0625L52.5947 53.9111C54.8837 51.1376 58.156 49.1873 61.8813 48.5833ZM19.8342 78.3516V62.7657H44.2756C44.2697 62.9633 44.2658 63.1613 44.2658 63.3602C44.2658 69.3404 46.9575 74.7111 51.2069 78.3516H19.8342ZM66.8042 78.1376V71.7445L70.4575 69.6602L76.0384 72.8762C73.7519 75.6148 70.5007 77.5387 66.8042 78.1376Z" fill="#333333"/>
</g>
<defs>
<clipPath id="clip0">
<rect width="84" height="83" fill="white" transform="translate(0.421875 0.214844)"/>
</clipPath>
</defs>
</svg>
