<svg width="49" height="50" viewBox="0 0 49 50" fill="none" xmlns="http://www.w3.org/2000/svg">
<g clipPath="url(#clip0)">
<path d="M45.2621 28.3794H44.175V27.1845C44.175 26.3081 43.8998 25.4954 43.4326 24.8272C44.2901 22.7728 44.628 20.8354 44.5219 18.6154C44.3744 15.5333 43.2036 12.6344 41.225 10.4526C39.1934 8.21232 36.5327 6.97852 33.7331 6.97852C29.4605 6.97852 25.9627 9.62547 24.5154 10.9117C23.1096 9.61322 19.7095 6.97852 15.2669 6.97852C12.4674 6.97852 9.8067 8.21232 7.77502 10.4526C5.79636 12.6345 4.62552 15.5334 4.47805 18.6156C4.3721 20.8357 4.70984 22.7732 5.56696 24.8277C5.10002 25.4959 4.82497 26.3083 4.82497 27.1845V28.3794H3.73788C1.67681 28.3794 0 30.0616 0 32.1293C0 34.197 1.67681 35.8792 3.73788 35.8792H4.82497V37.0741C4.82497 39.3438 6.66534 41.1903 8.92757 41.1903C9.92269 41.1903 10.836 40.8327 11.5471 40.2393C12.2204 41.5911 13.6128 42.5221 15.2187 42.5221C17.4809 42.5221 19.3213 40.6756 19.3213 38.4059V38.1802C21.9701 40.0689 23.9594 41.4107 23.9825 41.4263C24.1442 41.5352 24.3307 41.5896 24.5172 41.5896C24.7038 41.5896 24.8903 41.5352 25.0518 41.4264C25.0748 41.4109 27.0471 40.0811 29.6784 38.2042V38.406C29.6784 40.6757 31.5188 42.5222 33.781 42.5222C35.3868 42.5222 36.7793 41.5912 37.4527 40.2394C38.1638 40.8328 39.0771 41.1904 40.0721 41.1904C42.3344 41.1904 44.1747 39.3439 44.1747 37.0742V35.8793H45.2618C47.3229 35.8793 48.9997 34.1972 48.9997 32.1294C49 30.0616 47.3232 28.3794 45.2621 28.3794ZM6.39 18.707C6.64888 13.2954 10.631 8.89267 15.2669 8.89267C20.1612 8.89267 23.7499 12.8438 23.7844 12.8825C23.9624 13.0831 24.2171 13.1993 24.4853 13.2036C24.755 13.2091 25.0116 13.0989 25.1961 12.9042C25.234 12.8641 29.0481 8.89267 33.7331 8.89267C38.3688 8.89267 42.351 13.2954 42.6099 18.707C42.6915 20.4143 42.4689 21.931 41.8969 23.4994C41.3469 23.2241 40.7276 23.0684 40.0724 23.0684C39.0773 23.0684 38.164 23.426 37.4529 24.0194C36.7796 22.6676 35.3872 21.7366 33.7813 21.7366C31.5191 21.7366 29.6787 23.5831 29.6787 25.8528V28.3794H19.3214V25.8528C19.3214 23.5831 17.481 21.7366 15.2188 21.7366C13.613 21.7366 12.2205 22.6676 11.5472 24.0194C10.836 23.426 9.92269 23.0684 8.92767 23.0684C8.27229 23.0684 7.65281 23.2242 7.1027 23.4996C6.53088 21.9311 6.30846 20.4143 6.39 18.707ZM19.3214 30.2934H29.6787V33.9651H19.3214V30.2934ZM3.73788 33.9652C2.73223 33.9652 1.91406 33.1416 1.91406 32.1293C1.91406 31.117 2.73223 30.2934 3.73788 30.2934H4.82497V33.9651H3.73788V33.9652ZM8.92757 39.2762C7.72085 39.2762 6.73903 38.2884 6.73903 37.0741V27.1845C6.73903 25.9702 7.72085 24.9824 8.92757 24.9824C10.1343 24.9824 11.1161 25.9702 11.1161 27.1845V37.0741C11.1161 38.2883 10.1344 39.2762 8.92757 39.2762ZM17.4073 38.4058C17.4073 39.6201 16.4255 40.6079 15.2188 40.6079C14.0121 40.6079 13.0303 39.6201 13.0303 38.4058V25.8529C13.0303 24.6386 14.0121 23.6508 15.2188 23.6508C16.4255 23.6508 17.4073 24.6386 17.4073 25.8529V38.4058ZM24.5174 39.4752C23.6172 38.8602 21.6729 37.52 19.397 35.8791H29.6357C27.3619 37.52 25.4176 38.8603 24.5174 39.4752ZM35.9698 38.4058C35.9698 39.6201 34.988 40.6079 33.7813 40.6079C32.5746 40.6079 31.5928 39.6201 31.5928 38.4058V25.8529C31.5928 24.6386 32.5746 23.6508 33.7813 23.6508C34.988 23.6508 35.9698 24.6386 35.9698 25.8529V38.4058ZM42.261 37.0741C42.261 38.2884 41.2792 39.2762 40.0724 39.2762C38.8657 39.2762 37.8839 38.2884 37.8839 37.0741V27.1845C37.8839 25.9702 38.8657 24.9824 40.0724 24.9824C41.2792 24.9824 42.261 25.9702 42.261 27.1845V37.0741ZM45.2621 33.9652H44.175V30.2934H45.2621C46.2678 30.2934 47.0859 31.1169 47.0859 32.1293C47.0859 33.1416 46.2678 33.9652 45.2621 33.9652Z" fill="#ED1C24"/>
</g>
<defs>
<clipPath id="clip0">
<rect width="49" height="49" fill="white" transform="translate(0 0.25)"/>
</clipPath>
</defs>
</svg>
