<svg width="629" height="539" viewBox="0 0 629 539" fill="none" xmlns="http://www.w3.org/2000/svg">
<g clipPath="url(#clip0)">
<path d="M265.572 595.052C251.296 594.025 237.05 592.415 222.988 590.023L207.192 521.464L205.979 485.904L205.749 478.943L203.815 422.283L203.032 399.159L202.955 397.105V397.028V395.77L202.633 386.279L208.313 385.865L218.429 385.129L219.642 385.037L250.39 382.798C250.39 386.386 250.39 390.388 250.39 394.743V395.648C250.39 417.468 249.883 447.492 249.515 474.419C249.515 477.409 249.515 480.353 249.408 483.236C249.039 511.512 248.901 534.682 249.715 538.331C250.528 541.981 261.612 565.273 264.513 586.389C264.963 589.271 265.316 592.159 265.572 595.052Z" fill="url(#paint0_linear)"/>
<path d="M192.794 537.35L205.305 586.573C189.431 583.116 173.869 578.361 158.776 572.358C151.607 561.394 128.641 525.282 118.863 497.666C116.099 489.83 117.328 475.324 120.214 459.79C120.966 455.696 121.749 451.541 122.731 447.416C128.242 422.513 135.994 398.776 135.994 398.776L141.981 379.302L143.286 375.024L143.778 373.49H143.946L194.697 383.289L208.221 385.896H208.528L205.028 394.253L203.892 396.951V397.074L203.033 399.129L199.963 406.474L168.539 481.473L164.425 491.271L192.794 537.35Z" fill="url(#paint1_linear)"/>
<path d="M145.559 368.752C145.559 368.752 118.863 448.934 114.258 457.092L177.09 485.352L220.073 383.994L145.559 368.752Z" fill="url(#paint2_linear)"/>
<path d="M268.812 393.547C265.143 395.725 199.517 398.623 190.828 396.231C182.14 393.838 134.121 372.57 136.808 369.933C137.775 368.967 139.755 366.651 141.858 364.106C145.558 359.643 149.687 354.461 149.687 354.461L150.332 306.388L137.437 255.356C141.053 246.288 145.211 237.445 149.887 228.874C150.777 227.341 151.668 225.9 152.497 224.519C156.012 218.692 158.744 214.399 158.744 214.399L184.381 206.962C184.381 206.962 187.451 206.962 192.056 207.131L195.127 207.207C209.879 207.606 235.039 208.526 238.877 210.274C241.518 211.439 248.717 230.852 255.456 253.21C262.81 277.744 269.61 305.775 269.272 317.49C268.643 336.52 263.777 373.889 263.777 373.889C263.777 373.889 272.527 391.354 268.812 393.547Z" fill="url(#paint3_linear)"/>
<path d="M184.382 206.961C183.921 207.682 170.658 233.965 170.658 233.965C170.658 233.965 159.912 220.685 158.884 214.398C158.561 212.466 158.316 211.071 158.254 210.78C157.702 208.295 153.234 197.991 153.234 197.991L173.436 165.391C173.436 165.391 178.625 185.524 180.344 191.459C182.355 198.589 184.581 206.563 184.382 206.961Z" fill="url(#paint4_linear)"/>
<path d="M9.91644 265.462C10.0634 265.69 10.2223 265.91 10.3923 266.121C10.5458 266.351 10.7454 266.612 10.945 266.857V266.964L11.9121 268.099L12.5261 268.759L13.8003 270.108C14.5064 270.824 15.2433 271.544 16.0108 272.27C16.5021 272.699 16.9626 273.144 17.4385 273.558L18.206 274.217C18.7126 274.662 19.2039 275.076 19.7412 275.475L20.3245 275.95L21.8596 277.162C22.9795 278.052 24.2133 278.79 25.5285 279.354L30.9014 280.213L39.2524 288.555L44.6253 283.111L49.4916 278.204L52.7 274.969C50.9653 272.853 48.985 270.614 48.985 270.614C48.985 270.614 55.7395 259.88 52.7767 253.44C50.7967 249.793 49.5356 245.8 49.0618 241.679C49.0908 239.507 48.9883 237.336 48.7548 235.177C48.6437 234.093 48.2978 233.046 47.7412 232.108C47.1845 231.171 46.4303 230.366 45.531 229.749C45.315 229.608 45.0668 229.523 44.8095 229.503C44.2876 229.503 43.8885 229.979 43.6121 230.439C43.6121 230.439 43.6121 230.546 43.52 230.607C40.6257 236.037 39.6726 242.29 40.8182 248.334C40.8182 248.334 23.932 236.894 20.4473 232.279C20.4473 232.279 10.6533 224.535 8.82651 226.145C7.79243 227.043 7.13473 228.296 6.98438 229.657C6.98438 229.657 16.0569 240.39 21.4912 246.325C18.9275 247.229 14.8748 248.794 14.5678 249.392C14.2608 249.99 9.60942 262.824 9.30239 263.407C8.99537 263.99 9.37915 264.542 9.91644 265.462Z" fill="url(#paint5_linear)"/>
<path d="M172.421 69.5529C172.421 69.7523 172.574 69.9516 172.682 70.1816C172.777 70.4224 172.884 70.6578 173.004 70.887C173.016 70.9218 173.016 70.9595 173.004 70.9943C173.189 71.347 173.388 71.7304 173.603 72.1137C173.818 72.4971 173.833 72.5431 173.971 72.7731L174.785 74.1225C175.23 74.8432 175.706 75.6559 176.197 76.2999C176.52 76.7446 176.811 77.2046 177.134 77.634L177.64 78.324C177.978 78.784 178.3 79.2134 178.638 79.6274C178.757 79.8025 178.886 79.9714 179.022 80.1334L180.066 81.4062C180.825 82.3533 181.707 83.194 182.691 83.9056L186.943 85.6077L192.27 94.0261L197.674 90.53L202.571 87.4631L206.209 85.4084C205.428 83.9153 204.54 82.4804 203.553 81.1148C203.553 81.1148 211.075 73.4478 209.816 67.6515C208.861 64.2793 208.553 60.7568 208.911 57.2703C209.341 55.4824 209.658 53.6695 209.862 51.8421C209.966 50.9291 209.872 50.0046 209.586 49.1314C209.3 48.2582 208.829 47.4568 208.204 46.7818C208.055 46.6208 207.864 46.5041 207.652 46.4445C207.431 46.4329 207.211 46.4775 207.012 46.574C206.814 46.6706 206.643 46.8159 206.516 46.9965C206.472 47.0299 206.436 47.0716 206.408 47.1192C203.028 51.062 201.095 56.0383 200.928 61.2265C200.928 61.2265 189.123 48.6679 187.112 44.221C187.112 44.221 180.48 36.0326 178.7 36.968C178.105 37.2618 177.582 37.6802 177.164 38.1947C176.835 38.6104 176.585 39.0835 176.428 39.5901C176.428 39.5901 181.908 50.1553 185.27 56.0129C182.998 56.2736 179.39 56.8103 179.022 57.2397C178.654 57.669 172.498 67.3908 172.129 67.8202C171.761 68.2495 172.099 68.6482 172.421 69.5529Z" fill="url(#paint6_linear)"/>
<path d="M10.9148 266.857C14.1851 270.697 17.8714 274.163 21.9062 277.192C22.6431 276.195 23.5948 274.907 24.6234 273.466C24.7769 273.282 24.915 273.083 25.0532 272.883L25.8668 271.718L27.4019 269.602L27.755 269.096L27.8625 268.927L28.8603 267.394C29.5204 266.412 30.1498 265.431 30.7485 264.496L31.1629 263.821C31.1629 263.729 31.2704 263.652 31.3165 263.576L32.2529 262.042L32.5292 261.521C33.2487 260.448 33.7157 259.227 33.8954 257.948C33.6191 254.743 21.5224 246.401 21.5224 246.401C18.9435 247.291 14.8908 248.855 14.5837 249.468C14.2767 250.082 9.64068 262.901 9.31831 263.484C8.99593 264.066 9.67139 265.278 10.9148 266.857Z" fill="#EEBD90"/>
<path d="M20.418 255.188C20.418 255.188 21.1241 255.939 22.3369 257.043C23.8781 258.447 25.4977 259.763 27.1878 260.984C28.6308 262.011 30.0585 262.885 31.2712 263.591L32.2076 262.057C29.6776 259.301 26.5175 257.196 22.997 255.924C22.1543 255.622 21.2928 255.376 20.418 255.188Z" fill="#B34B57"/>
<path d="M15.2266 258.975C17.686 261.666 20.4119 264.101 23.3626 266.243C24.8978 267.332 26.4329 268.267 27.707 269.049L27.8145 268.88L28.8123 267.347C27.5689 266.179 26.2511 265.094 24.8671 264.096C21.8902 261.978 18.6493 260.256 15.2266 258.975Z" fill="#B34B57"/>
<path d="M16.3477 265.63C17.8524 267.928 19.7306 269.96 21.9048 271.641C22.7693 272.294 23.6771 272.889 24.6219 273.42C24.7754 273.236 24.9136 273.036 25.0517 272.837L25.8653 271.672C25.1052 270.933 24.3003 270.242 23.4552 269.601C21.2825 267.954 18.8903 266.617 16.3477 265.63Z" fill="#B34B57"/>
<path d="M140.968 247.137L108.608 305.682L51.9162 274.125L36.2734 285.503C36.2734 285.503 104.325 353.555 114.119 350.258C133.4 343.787 157.394 302.232 157.394 302.232L155.951 285.779L140.968 247.137Z" fill="url(#paint7_linear)"/>
<path d="M142.505 254.973C142.519 254.92 142.549 254.873 142.592 254.84C142.635 254.806 142.688 254.788 142.743 254.788C142.798 254.788 142.85 254.806 142.894 254.84C142.937 254.873 142.967 254.92 142.981 254.973C145.007 272.147 149.121 288.892 151.654 305.958C151.839 307.155 149.92 307.707 149.567 306.51C147.104 297.722 145.303 288.763 144.178 279.706C143.119 271.84 140.709 262.808 142.505 254.973Z" fill="#EDEDED"/>
<path d="M238.802 210.243C238.802 210.243 249.793 207.974 256.041 214.399C262.289 220.824 278.469 277.069 277.625 286.377C276.781 295.685 238.219 244.438 238.219 244.438L238.802 210.243Z" fill="url(#paint8_linear)"/>
<path fill-rule="evenodd" clip-rule="evenodd" d="M180.746 288.8C179.347 297.815 175.305 306.214 169.128 312.934C162.951 319.654 154.919 324.393 146.045 326.553C137.172 328.713 127.857 328.196 119.278 325.067C110.699 321.939 103.241 316.339 97.8484 308.977C92.4553 301.615 89.3689 292.82 88.9795 283.706C88.5901 274.591 90.9152 265.566 95.6608 257.772C100.406 249.977 107.359 243.764 115.64 239.917C123.921 236.069 133.158 234.761 142.184 236.158C154.286 238.031 165.147 244.629 172.379 254.502C179.611 264.374 182.62 276.711 180.746 288.8Z" fill="#EDECF1"/>
<path d="M170.443 271.335C166.313 271.64 162.21 272.229 158.162 273.098C155.475 269.927 152.599 266.922 149.55 264.097C146.511 261.257 143.631 258.252 140.922 255.096C141.734 251.784 142.369 248.431 142.826 245.052C147.431 243.825 152.528 243.319 156.995 241.985L157.225 241.31C147.717 236.111 136.684 234.408 126.047 236.495C126.984 238.428 129.501 239.286 131.497 240.298C134.567 241.832 138.021 243.365 140.063 245.297C139.525 248.763 138.988 252.244 138.436 255.709C131.435 259.834 124.174 263.576 116.944 267.394C112.756 265.387 108.462 263.61 104.08 262.073C103.972 257.089 106.198 252.198 106.029 247.367C105.745 247.104 105.437 246.868 105.108 246.662C97.3924 253.215 92.0604 262.132 89.9414 272.025C95.2375 273.957 99.1521 265.523 103.297 264.94C107.488 266.688 112.001 268.206 116.591 269.663C116.683 277.499 118.402 284.123 119.216 291.407C115.317 295.547 112.093 300.607 108.148 304.702C103.665 302.877 99.7047 300.669 95.0073 298.997C94.2761 299.484 93.5925 300.038 92.9656 300.653C97.3132 310.302 104.846 318.168 114.304 322.934C115.452 322.295 116.334 321.267 116.79 320.036C117.067 318.196 114.657 315.757 113.72 313.902C112.612 311.861 111.712 309.713 111.034 307.492C115.01 302.892 118.448 297.617 122.317 292.894C128.81 294.596 136.686 295.286 143.808 296.544C145.942 302.493 148.813 307.906 151.162 313.703C149.488 317.291 139.971 322.719 142.887 327.197C154.545 325.21 164.998 318.839 172.101 309.394C170.151 307.201 166.666 308.581 162.89 309.394C159.82 310.068 157.041 310.927 154.938 311.157C152.758 305.146 150.225 299.396 147.631 293.692C151.806 288.217 154.477 280.688 158.806 275.413C162.936 274.877 167.204 274.509 171.379 274.033C172.875 275.824 174.255 277.709 175.508 279.676C177.32 282.36 178.394 285.289 181.127 285.81C182.101 275.111 179.287 264.41 173.175 255.571C170.918 259.129 172.101 266.366 170.443 271.335Z" fill="#050509"/>
<path d="M235.702 312.568C235.626 312.368 235.62 312.148 235.687 311.944C235.753 311.741 235.887 311.567 236.067 311.45C236.246 311.333 236.46 311.282 236.673 311.304C236.886 311.326 237.085 311.42 237.237 311.571C239.571 313.258 241.965 314.868 244.13 316.754C244.244 316.845 244.32 316.975 244.342 317.119C244.364 317.263 244.332 317.411 244.251 317.532C244.17 317.653 244.046 317.74 243.905 317.775C243.763 317.81 243.613 317.79 243.485 317.72C241.704 316.738 240 315.619 238.296 314.484C239.033 316.424 239.548 318.44 239.832 320.495C239.939 321.707 238.296 321.86 237.867 320.863C236.895 318.169 236.171 315.393 235.702 312.568Z" fill="#EDEDED"/>
<path d="M119.677 285.625C120.398 283.724 152.528 288.692 152.528 288.692C149.169 284.707 147.264 279.7 147.125 274.493V274.339C147.093 274.117 147.122 273.89 147.209 273.682C147.295 273.474 147.436 273.293 147.616 273.159C147.812 273.064 148.028 273.022 148.245 273.036C149.158 273.124 150.041 273.406 150.836 273.863C151.63 274.321 152.317 274.943 152.851 275.689C153.905 277.168 154.879 278.704 155.767 280.289C157.84 283.135 160.447 285.552 163.443 287.404C168.278 290.885 167.803 301.649 167.803 301.649C168.711 301.854 169.636 301.982 170.566 302.033L164.425 318.593L158.561 316.293L154.248 317.827C151.008 318.547 120.843 310.742 120.782 308.626C120.744 308.034 120.744 307.44 120.782 306.848C120.874 305.927 121.028 305.069 121.135 304.486C121.243 303.903 121.289 303.811 121.289 303.811C121 303.031 120.764 302.232 120.583 301.419C120.372 300.648 120.249 299.856 120.214 299.058C120.156 298.73 120.172 298.394 120.259 298.073C120.347 297.753 120.504 297.455 120.721 297.202C122.326 296.719 124.006 296.532 125.679 296.65C132.081 296.497 142.243 296.911 141.844 296.267C141.445 295.623 119.769 288.922 119.769 288.922C119.545 288.44 119.415 287.919 119.385 287.389C119.366 286.787 119.465 286.188 119.677 285.625Z" fill="url(#paint9_linear)"/>
<path d="M120.599 301.573L122.349 301.834C125.344 302.186 128.365 302.268 131.375 302.079C133.54 301.941 134.937 301.727 135.09 301.696C134.937 301.696 133.555 301.313 131.452 300.899C129.349 300.485 126.079 299.887 122.641 299.473C121.812 299.365 121.013 299.289 120.23 299.212C120.265 300.01 120.388 300.802 120.599 301.573Z" fill="#B34B57"/>
<path d="M120.812 307.001C124.26 307.483 127.745 307.627 131.221 307.431C127.967 306.167 124.593 305.237 121.15 304.655C120.997 305.431 120.885 306.214 120.812 307.001Z" fill="#B34B57"/>
<path d="M238.219 244.438L235.547 311.264L170.612 302.064L167.082 308.627L164.426 318.594C164.426 318.594 253.247 355.948 260.539 348.618C274.862 334.22 277.671 286.316 277.671 286.316L269.013 272.255L238.219 244.438Z" fill="url(#paint10_linear)"/>
<path d="M198.902 416.41V486.334L271.252 481.902L267.675 393.915L200.944 397.12L198.902 416.41Z" fill="url(#paint11_linear)"/>
<path d="M600.213 291.713C600.213 291.713 574.024 332.594 566.548 333.115C559.072 333.636 550.137 329.327 550.137 329.327L540.098 292.004L555.786 270.092L565.089 295.822L587.533 282.175L600.213 291.713Z" fill="url(#paint12_linear)"/>
<path d="M561.297 390.496V389.453L460.563 380.59C460.563 380.866 460.563 381.157 460.563 381.464C460.563 382.338 460.471 383.534 460.425 384.991C460.118 396.507 460.179 424.859 460.302 448.704C460.302 458.702 460.425 467.902 460.471 474.772C460.471 481.979 460.563 486.518 460.563 486.518C460.563 486.518 446.455 513.705 442.694 529.269C442.278 530.906 441.991 532.572 441.835 534.253C441.558 537.918 440.299 560.873 439.133 582.31C449.367 579.744 459.519 576.795 469.589 573.462C472.967 558.373 476.636 542.395 479.752 529.883C482.469 519.149 484.741 510.899 486.092 508.001C487.627 504.551 490.406 493.51 493.43 479.556C495.118 471.782 496.914 463.103 498.68 454.331C504.682 424.399 509.886 410.292 509.886 410.292L515.858 410.767C515.858 410.767 516.733 427.635 517.301 455.696C517.485 464.989 517.669 473.668 517.869 480.231C517.861 480.333 517.861 480.435 517.869 480.537C518.037 486.916 518.222 491.271 518.406 492.222C518.406 492.222 510.546 515.377 508.182 527.567C508.073 528.401 508.017 529.241 508.013 530.082C507.89 535.004 508.489 545.232 509.395 557.377C517.828 553.359 526.087 548.968 534.172 544.205C537.794 542.073 541.356 539.85 544.917 537.55C545.117 534.743 545.332 532.029 545.547 529.423C546.698 514.932 547.819 504.121 548.617 501.821C550.391 494.496 551.759 487.078 552.716 479.602C553.836 472.38 555.034 463.961 556.154 455.068C558.503 436.529 560.637 416.15 561.159 400.954C561.343 397.089 561.374 393.563 561.297 390.496Z" fill="url(#paint13_linear)"/>
<path d="M457.63 384.669L454.422 473.852L504.067 481.135L511.635 428.233C511.635 428.233 512.296 482.454 513.6 481.135C514.905 479.817 564.259 479.495 564.259 479.495L561.342 386.064L458.736 377.339L457.63 384.669Z" fill="url(#paint14_linear)"/>
<path d="M563.985 389.699C549.248 395.97 457.602 384.669 457.602 384.669L467.918 318.824L470.988 261.076L472.937 223.814L500.815 210.888L523.734 215.856L544.934 226.59C544.934 226.59 560.439 263.392 557.982 278.925C555.526 294.459 544.934 306.603 544.934 306.603L562.02 381.096L563.985 389.699Z" fill="url(#paint15_linear)"/>
<path d="M500.784 210.888L490.637 215.595C490.637 215.595 501.997 234.456 514.984 231.052C527.971 227.648 530.565 219.383 530.565 219.383L523.734 215.856L500.784 210.888Z" fill="#FFEFDF"/>
<path d="M497.789 215.166C497.789 215.166 511.467 226.037 514.337 225.194C517.208 224.351 521.599 219.06 521.599 219.06C521.077 218.309 517.208 215.212 517.561 213.049C518.357 209.027 519.418 205.063 520.739 201.181L504.283 194.188C504.283 194.188 503.239 198.957 501.903 203.987C500.568 209.017 498.91 214.445 497.789 215.166Z" fill="url(#paint16_linear)"/>
<path d="M534.971 300.76C521.309 291.33 504.76 300.76 489.977 295.853C489.179 295.593 488.611 296.865 489.394 297.233C503.409 303.888 520.234 294.397 533.298 303.597C535.033 304.793 536.706 301.956 534.971 300.76Z" fill="#ED1C24"/>
<path d="M584.525 284.23C584.525 291.184 582.461 297.982 578.593 303.764C574.725 309.546 569.228 314.053 562.796 316.714C556.364 319.376 549.286 320.072 542.458 318.715C535.63 317.359 529.358 314.01 524.435 309.092C519.512 304.175 516.16 297.91 514.801 291.089C513.443 284.269 514.14 277.199 516.804 270.774C519.469 264.349 523.98 258.858 529.769 254.994C535.558 251.131 542.363 249.069 549.325 249.069C553.954 249.046 558.541 249.941 562.822 251.7C567.103 253.459 570.992 256.048 574.265 259.317C577.538 262.587 580.13 266.472 581.891 270.748C583.652 275.024 584.548 279.606 584.525 284.23Z" fill="#CCBA9B"/>
<path d="M584.524 284.23C584.531 289.657 583.275 295.012 580.855 299.871C574.759 305.33 566.95 308.496 558.77 308.824C550.59 309.153 542.551 306.623 536.037 301.67C529.523 296.717 524.94 289.651 523.079 281.688C521.217 273.724 522.192 265.362 525.836 258.039C530.899 253.509 537.167 250.539 543.883 249.49C550.599 248.44 557.476 249.356 563.682 252.126C569.888 254.895 575.159 259.401 578.858 265.098C582.556 270.795 584.524 277.44 584.524 284.23Z" fill="#E5D5B7"/>
<path d="M521.524 286.637C522.491 288.615 516.397 297.954 518.254 295.102C520.112 292.249 531.149 285.012 532.884 286.806C534.619 288.6 524.471 304.685 524.471 304.685C524.471 304.685 535.217 293.952 537.812 298.138C538.671 299.487 537.904 302.094 536.476 304.992C539.93 303.919 542.908 303.658 542.847 306.111C542.709 311.877 527.879 318.164 527.879 318.164C509.965 323.623 508.859 293.967 508.859 293.967C508.859 293.967 520.572 284.659 521.524 286.637Z" fill="url(#paint17_linear)"/>
<path d="M510.255 305.637L471.447 312.752L472.307 262.64C466.442 254.973 457.431 250.036 449.28 247.689C443.892 268.191 432.67 330.355 438.611 340.721C445.534 352.82 521.66 318.625 521.66 318.625L510.255 305.637Z" fill="url(#paint18_linear)"/>
<path d="M472.23 262.639L472.906 223.813C472.906 223.813 454.592 236.617 451.307 241.356C450.379 243.383 449.679 245.507 449.219 247.689C457.355 250.035 466.366 255.018 472.23 262.639Z" fill="url(#paint19_linear)"/>
<path d="M474.518 253.01C474.5 252.924 474.453 252.846 474.385 252.79C474.316 252.734 474.23 252.703 474.142 252.703C474.053 252.703 473.967 252.734 473.899 252.79C473.83 252.846 473.783 252.924 473.766 253.01C473.766 256.951 473.766 260.923 473.766 264.909C474.69 266.331 475.491 267.829 476.16 269.387C475.639 263.928 475.055 258.469 474.518 253.01Z" fill="#ED1C24"/>
<path d="M587.533 282.176L590.465 284.384L600.213 291.714L603.606 287.037L607.812 286.055C610.729 284.967 630.255 263.897 629.212 262.303C628.918 261.844 628.589 261.408 628.229 260.999C627.692 260.34 627.109 259.788 626.694 259.466L626.218 259.021C626.024 258.293 625.788 257.576 625.512 256.874C625.272 256.179 624.958 255.51 624.576 254.881C624.44 254.607 624.249 254.364 624.013 254.168C623.778 253.973 623.504 253.829 623.209 253.746C621.705 254.182 620.291 254.883 619.034 255.816C613.937 258.883 606.216 264.342 606.185 263.652C606.185 262.701 619.633 247.015 619.633 247.015C619.549 246.535 619.372 246.076 619.111 245.665C618.816 245.137 618.4 244.685 617.898 244.347C616.363 243.273 593.812 263.207 593.812 263.207C594.353 258.497 593.229 253.745 590.634 249.775C590.634 249.775 590.634 249.698 590.542 249.667C590.489 249.576 590.422 249.493 590.343 249.422C590.212 249.264 590.043 249.142 589.851 249.069C589.75 249.047 589.645 249.047 589.544 249.069C589.34 249.103 589.146 249.182 588.976 249.299C588.306 249.817 587.757 250.475 587.37 251.227C586.983 251.98 586.766 252.809 586.735 253.654C586.681 255.312 586.728 256.971 586.873 258.623C586.745 261.809 585.978 264.938 584.617 267.823C584.178 269.069 584.093 270.411 584.371 271.703C585.165 274.981 586.617 278.064 588.639 280.765C588.5 280.903 588.117 281.455 587.533 282.176Z" fill="url(#paint20_linear)"/>
<path d="M625.573 256.798C625.173 257.15 624.759 257.518 624.314 257.871C622.158 259.657 619.84 261.238 617.391 262.594C615.625 263.575 614.428 264.127 614.32 264.127C614.428 264.02 615.318 263.069 616.761 261.689C618.204 260.309 620.43 258.239 622.902 256.184L624.667 254.773C625.035 255.417 625.338 256.095 625.573 256.798Z" fill="url(#paint21_linear)"/>
<path d="M628.23 260.999C625.775 263.104 623.122 264.968 620.309 266.565C622.204 263.967 624.359 261.567 626.741 259.404C627.109 259.772 627.677 260.324 628.23 260.999Z" fill="url(#paint22_linear)"/>
<path d="M587.533 282.175L590.465 284.383C590.742 284.015 591.018 283.647 591.264 283.249C591.445 282.923 591.574 282.571 591.647 282.206C591.715 281.185 591.439 280.17 590.865 279.323C589.329 276.41 587.533 273.512 587.226 270.261C586.858 266.427 588.685 262.716 589.053 258.868C589.329 256.092 588.9 253.133 590.051 250.572L590.542 249.636C590.489 249.545 590.422 249.462 590.343 249.391C590.212 249.233 590.043 249.111 589.851 249.038C589.75 249.016 589.645 249.016 589.544 249.038C589.34 249.072 589.146 249.151 588.976 249.268C588.306 249.785 587.757 250.444 587.37 251.196C586.983 251.949 586.766 252.778 586.735 253.623C586.682 255.281 586.728 256.94 586.873 258.591C586.745 261.778 585.978 264.907 584.617 267.792C584.178 269.038 584.093 270.38 584.371 271.671C585.156 274.95 586.603 278.034 588.623 280.734C588.5 280.903 588.117 281.455 587.533 282.175Z" fill="url(#paint23_linear)"/>
<path d="M303.828 423.602L300.758 451.203C300.758 451.203 300.911 564.507 302.984 565.319L325.703 569L343.71 455.711L342.068 419.339C326.993 419.799 319.087 426.147 303.828 423.602Z" fill="url(#paint24_linear)"/>
<path d="M415.17 458.931C398.56 522.936 398.499 570.87 400.909 580.07L374.812 581.404L362.531 502.986L371.665 450.712L368.319 446.112L366.983 444.287C380.6 442.278 399.804 440.622 414.433 439.396C414.433 439.902 414.433 440.392 414.51 440.929C415.078 450.467 415.615 457.26 415.17 458.931Z" fill="url(#paint25_linear)"/>
<path d="M421.433 438.752L414.448 439.335C399.819 440.561 380.676 442.217 366.998 444.226C366.031 444.349 365.095 444.502 364.189 444.64V438.2L363.989 356.408L363.682 350.136L352.092 446.741C349.183 446.799 346.273 446.712 343.373 446.48C330.631 445.576 314.375 442.631 302.048 440.454L295.738 439.365L304.78 346.471L304.458 312.123H407.74C407.74 312.123 407.97 315.466 408.354 321.139C408.83 328.255 409.567 339.019 410.38 351.47C412.161 379.547 420.22 416.195 421.433 438.752Z" fill="url(#paint26_linear)"/>
<path d="M302.863 440.101L301.328 439.917L312.074 349.876V326.645H313.609V349.968L302.863 440.101Z" fill="#E5D5B7"/>
<path d="M308.113 441.083L306.578 440.884C306.67 440.209 315.466 372.769 316.111 362.082C316.756 351.394 317.493 327.871 317.493 327.626H319.028C319.028 327.871 318.291 351.394 317.646 362.128C317.002 372.862 308.205 440.408 308.113 441.083Z" fill="#E5D5B7"/>
<path d="M414.448 439.334C399.818 440.561 380.676 442.217 366.998 444.226L366.875 444.042C382.717 441.512 398.575 440.039 414.463 438.721C414.433 438.935 414.433 439.135 414.448 439.334Z" fill="#F3A080"/>
<path d="M332.75 154.273C333.333 154.856 358.847 173.732 358.847 173.732C358.847 173.732 358.263 162.109 357.987 156.052C357.895 154.181 357.834 152.832 357.834 152.541C357.834 150.118 359.906 139.629 359.906 139.629L334.147 127.868C334.147 127.868 333.748 133.174 333.349 139.031C332.888 146.1 332.443 153.967 332.75 154.273Z" fill="url(#paint27_linear)"/>
<path d="M511.099 38.1949C509.349 37.5202 493.062 62.9134 493.062 62.9134C492.354 58.1282 490.037 53.7262 486.492 50.4315L486.4 50.3394C486.258 50.1851 486.08 50.069 485.881 50.002C485.682 49.9349 485.47 49.9192 485.264 49.9561C485.078 50.0325 484.915 50.1537 484.788 50.3088C484.282 51.0002 483.93 51.7915 483.755 52.6299C483.581 53.4682 483.587 54.3341 483.775 55.1697C484.162 56.8313 484.644 58.4696 485.218 60.0766C485.926 63.2603 486.015 66.5506 485.479 69.7677C484.926 75.2727 492.709 81.5596 492.709 81.5596C492.709 81.5596 492.402 82.2957 492.003 83.3231L505.681 90.1161L508.597 84.0898L512.374 82.0657C514.861 80.2562 527.986 54.4643 526.573 53.1763C526.172 52.8061 525.746 52.4629 525.299 52.1489C524.593 51.6428 523.902 51.2135 523.442 50.9375L522.889 50.6155C522.516 49.9557 522.101 49.3205 521.646 48.714C521.238 48.0928 520.764 47.517 520.233 46.9966C520.046 46.7668 519.813 46.5786 519.548 46.4439C519.284 46.3093 518.995 46.2312 518.698 46.2146C517.376 47.0209 516.211 48.06 515.26 49.2814C511.222 53.6363 505.266 60.9353 505.067 60.2759C504.79 59.3406 513.525 40.4336 513.525 40.4336C513.326 39.9737 513.039 39.557 512.681 39.2069C512.241 38.7492 511.699 38.4023 511.099 38.1949Z" fill="url(#paint28_linear)"/>
<path d="M521.662 48.7139C521.366 49.1739 521.059 49.634 520.741 50.094C519.152 52.3961 517.353 54.5469 515.368 56.519C513.941 57.9297 512.927 58.7577 512.805 58.8651C512.881 58.7271 513.48 57.5617 514.493 55.7983C515.507 54.0348 517.088 51.4434 518.93 48.8059C519.36 48.1619 519.805 47.5485 520.235 46.9658C520.765 47.5023 521.243 48.0876 521.662 48.7139Z" fill="#B54B57"/>
<path d="M525.301 52.1333C523.505 54.8282 521.449 57.3398 519.16 59.6316C520.282 56.5933 521.706 53.6754 523.412 50.9219C523.904 51.1979 524.61 51.6272 525.301 52.1333Z" fill="#B54B57"/>
<path d="M502.611 80.9155L502.903 80.3788C503.153 79.889 503.354 79.3753 503.501 78.8454C504.009 77.0558 503.989 75.1582 503.444 73.3796C502.9 71.601 501.854 70.0169 500.431 68.8169C500.011 68.4636 499.559 68.1504 499.08 67.8815L498.543 67.6055L498.85 68.1268C499.13 68.5677 499.386 69.0233 499.618 69.4916C500.362 70.9359 500.974 72.4448 501.444 73.9998C501.939 75.5486 502.289 77.14 502.488 78.7534C502.565 79.3974 502.611 79.9341 502.626 80.2868C502.642 80.6395 502.611 80.9155 502.611 80.9155Z" fill="#B54B57"/>
<path d="M373.875 167.646L387.353 223.216C387.353 223.216 401.4 216.239 418.178 206.855C413.573 189.88 407.172 173.917 401.814 157.97L373.875 167.646Z" fill="url(#paint29_linear)"/>
<path d="M506.262 90.4689C506.262 90.4689 506.124 90.7296 505.878 91.2356C505.74 91.5116 505.556 91.849 505.356 92.263C499.047 104.699 462.68 176.401 458.658 181.431C447.452 189.849 429.86 191.965 416.151 199.648C411.653 182.964 409.427 180.219 404.269 165.008C404.216 164.867 404.17 164.724 404.131 164.579L404.039 164.287V164.195L407.693 162.524L443.092 146.362L492.216 82.7559L500.874 87.4941L506.262 90.4689Z" fill="url(#paint30_linear)"/>
<path d="M319.627 170.052L307.484 220.133C307.484 220.133 301.129 217.067 291.872 212.068C284.104 207.943 274.295 202.576 264.455 196.734C254.714 191.105 245.28 184.963 236.193 178.333L188.774 87.7082L188.574 87.3095L193.686 83.798L195.927 82.2646L203.603 80.5625L256.81 151.897L319.627 170.052Z" fill="url(#paint31_linear)"/>
<path d="M298.148 325.157C298.148 325.157 298.778 269.126 302.585 222.878C305.026 193.1 308.802 167.384 314.589 163.29C316.125 162.247 320.515 160.392 324.629 158.291C327.509 156.88 330.639 156.047 333.84 155.838C346.735 155.392 359.472 158.781 370.437 165.575L371.665 165.253L372.97 165.836C377.751 169.719 382.259 173.925 386.463 178.425C388.615 182.897 390.213 187.613 391.222 192.471C397.532 217.634 407.494 279.124 411.916 315.726C411.992 316.432 412.084 317.122 412.161 317.812C414.986 342.193 298.148 325.157 298.148 325.157Z" fill="url(#paint32_linear)"/>
<g opacity="0.94">
<path d="M326.51 208.118C326.161 208.118 325.875 208.404 325.875 208.753C325.875 209.105 325.875 211.92 325.875 212.273C325.875 212.622 325.59 212.907 325.241 212.907C324.892 212.907 322.109 212.907 321.761 212.907C321.412 212.907 321.126 212.622 321.126 212.273C321.126 211.92 321.126 209.105 321.126 208.753C321.126 208.404 320.841 208.118 320.492 208.118C320.282 208.118 318.629 208.118 318.419 208.118C318.07 208.118 317.987 207.916 318.233 207.67C318.712 207.195 322.518 203.385 322.997 202.91C323.243 202.664 323.648 202.664 323.893 202.91C324.369 203.385 328.178 207.195 328.654 207.67C328.9 207.916 328.817 208.118 328.468 208.118C328.075 208.118 326.704 208.118 326.51 208.118ZM325.158 199.651C325.158 200.599 324.389 201.364 323.445 201.364C322.498 201.364 321.733 200.599 321.733 199.651C321.733 198.708 322.498 197.939 323.445 197.939C324.389 197.939 325.158 198.708 325.158 199.651ZM334.378 204.614C328.464 198.7 325.178 195.414 324.524 194.755C323.929 194.165 322.958 194.165 322.367 194.755C321.38 195.743 313.496 203.627 312.508 204.614C311.914 205.209 311.914 206.176 312.508 206.771C313.496 207.758 321.38 215.642 322.367 216.629C322.958 217.22 323.929 217.22 324.524 216.629C325.507 215.642 333.395 207.758 334.378 206.771C334.973 206.176 334.973 205.209 334.378 204.614Z" fill="white"/>
</g>
<g opacity="0.94">
<path d="M218.357 273.111C218.009 273.121 217.731 273.414 217.74 273.762C217.75 274.115 217.826 276.928 217.835 277.281C217.845 277.63 217.567 277.923 217.219 277.932C216.87 277.942 214.088 278.017 213.739 278.026C213.391 278.036 213.098 277.758 213.088 277.409C213.079 277.057 213.003 274.243 212.993 273.89C212.984 273.542 212.691 273.264 212.342 273.274C212.132 273.279 210.48 273.324 210.27 273.33C209.921 273.339 209.832 273.139 210.071 272.887C210.538 272.398 214.239 268.487 214.706 267.999C214.945 267.747 215.349 267.736 215.601 267.975C216.09 268.438 220.001 272.143 220.489 272.605C220.741 272.845 220.664 273.049 220.315 273.058C219.923 273.069 218.552 273.106 218.357 273.111ZM216.778 264.683C216.803 265.631 216.055 266.416 215.112 266.442C214.165 266.467 213.379 265.723 213.354 264.776C213.328 263.833 214.072 263.043 215.02 263.018C215.963 262.992 216.752 263.74 216.778 264.683ZM226.129 269.396C220.057 263.643 216.683 260.447 216.011 259.807C215.401 259.232 214.43 259.259 213.856 259.865C212.896 260.878 205.227 268.973 204.267 269.986C203.688 270.596 203.715 271.563 204.325 272.142C205.338 273.102 213.433 280.771 214.446 281.731C215.052 282.305 216.023 282.279 216.602 281.673C217.558 280.659 225.231 272.565 226.187 271.551C226.765 270.941 226.739 269.974 226.129 269.396Z" fill="white"/>
</g>
<g opacity="0.94">
<path d="M494.895 265.706C494.594 265.714 494.354 265.967 494.363 266.268C494.371 266.573 494.436 269.003 494.445 269.308C494.453 269.609 494.213 269.862 493.912 269.87C493.61 269.879 491.207 269.943 490.906 269.952C490.605 269.96 490.352 269.72 490.344 269.419C490.335 269.114 490.27 266.683 490.262 266.379C490.253 266.078 490 265.838 489.699 265.846C489.518 265.851 488.09 265.889 487.909 265.894C487.607 265.902 487.531 265.73 487.737 265.512C488.14 265.09 491.338 261.711 491.741 261.289C491.948 261.071 492.297 261.062 492.515 261.268C492.937 261.668 496.315 264.869 496.737 265.269C496.955 265.475 496.888 265.652 496.587 265.66C496.248 265.669 495.063 265.701 494.895 265.706ZM493.531 258.425C493.553 259.243 492.907 259.922 492.092 259.944C491.274 259.966 490.595 259.323 490.573 258.505C490.551 257.69 491.194 257.008 492.012 256.986C492.827 256.964 493.509 257.61 493.531 258.425ZM501.609 262.496C496.364 257.526 493.449 254.765 492.869 254.212C492.342 253.716 491.503 253.739 491.007 254.262C490.177 255.138 483.552 262.13 482.723 263.006C482.223 263.533 482.246 264.368 482.773 264.868C483.649 265.697 490.641 272.322 491.517 273.152C492.04 273.648 492.879 273.625 493.379 273.102C494.205 272.226 500.833 265.233 501.659 264.358C502.159 263.831 502.136 262.996 501.609 262.496Z" fill="white"/>
</g>
<path d="M321.113 159.258C321.113 159.258 305.547 163.996 303.075 162.999C300.604 162.003 297.656 161.205 297.656 161.205L291.516 214.43L302.553 222.802L321.113 159.258Z" fill="url(#paint33_linear)"/>
<path d="M317.938 160.791C317.938 160.791 349.576 175.082 358.925 173.733C361.561 173.4 364.083 172.461 366.294 170.989C368.505 169.518 370.344 167.555 371.666 165.253C371.666 165.253 358.833 159.334 357.359 158.353C355.885 157.372 332.797 154.305 332.797 154.305" fill="url(#paint34_linear)"/>
<path d="M482.671 136.271C469.699 145.104 461.179 160.3 470.482 169.792C479.785 179.284 483.177 177.704 479.493 187.733C475.809 197.761 492.664 209.476 503.533 193.866C514.401 178.256 482.671 136.271 482.671 136.271Z" fill="url(#paint35_linear)"/>
<path d="M551.642 185.188C551.71 182.534 551.452 179.882 550.875 177.291C550.106 173.533 549.557 169.734 549.232 165.913C548.925 160.776 550.168 155.562 549.815 151.131C549.76 150.397 549.647 149.669 549.478 148.953C546.883 138.219 538.578 127.593 523.765 128.237C507.201 128.988 496.47 141.102 497.146 167.599L496.977 167.507C497.331 171.917 496.968 176.355 495.902 180.649C498.573 195.109 514.907 209.508 526.236 212.513C530.504 213.663 550.921 193.483 551.642 185.188Z" fill="url(#paint36_linear)"/>
<path d="M507.491 133.128C512.311 151.529 497.42 167.722 497.42 167.722L483.727 163.535L482.668 136.271C486.358 134.048 490.472 132.621 494.747 132.079C499.021 131.538 503.362 131.895 507.491 133.128Z" fill="url(#paint37_linear)"/>
<path d="M550.875 177.305L539.132 179.054L537.597 168.948C536.86 152.403 538.456 147.818 543.399 147.588C545.687 147.481 547.805 148.615 549.77 151.1C550.123 155.531 548.88 160.745 549.187 165.882C549.525 169.719 550.089 173.534 550.875 177.305Z" fill="url(#paint38_linear)"/>
<path d="M508.52 171.647C508.98 166.449 510.592 160.913 513.37 157.847C520.263 150.18 528.829 147.742 532.452 153.476C535.108 157.663 535.783 167.277 532.697 174.545C529.612 181.814 508.52 171.647 508.52 171.647Z" fill="url(#paint39_linear)"/>
<path d="M511.805 156.773C519.127 156.773 522.919 146.116 532.452 153.399C531.147 148.4 525.958 146.913 520.923 149.489C516.487 151.759 515.704 155.469 511.805 156.773Z" fill="url(#paint40_linear)"/>
<path d="M538.992 148.938C543.828 147.036 550.49 149.551 550.306 155.869C554.067 149.413 541.111 138.48 538.992 148.938Z" fill="url(#paint41_linear)"/>
<path d="M527.188 171.954C529.506 156.283 514.278 153.921 511.914 167.752C514.508 174.453 524.256 176.125 527.188 171.954Z" fill="#752E48"/>
<path d="M527.188 171.954C528.278 159.533 515.046 155.807 511.914 167.752C514.508 174.453 524.256 176.125 527.188 171.954Z" fill="white"/>
<path d="M517.039 182.918C519.173 191.842 528.399 193.805 531.484 192.486C526.434 192.456 518.39 186.169 517.039 182.918Z" fill="#D0796E"/>
<path d="M524.518 169.531C524.229 170.464 523.669 171.291 522.908 171.905C522.148 172.519 521.221 172.893 520.247 172.979C519.273 173.066 518.296 172.861 517.438 172.391C516.581 171.921 515.884 171.206 515.434 170.339C514.985 169.471 514.804 168.49 514.915 167.519C515.025 166.549 515.422 165.633 516.056 164.889C516.689 164.144 517.53 163.605 518.471 163.34C519.412 163.074 520.411 163.094 521.34 163.398C522.57 163.799 523.592 164.667 524.187 165.814C524.781 166.962 524.9 168.297 524.518 169.531Z" fill="#87433F"/>
<path style="mix-blend-mode:screen" d="M523.641 169.256C523.396 170.018 522.929 170.691 522.301 171.188C521.672 171.686 520.91 171.986 520.111 172.051C519.312 172.116 518.511 171.942 517.811 171.552C517.11 171.163 516.541 170.574 516.176 169.861C515.81 169.148 515.665 168.343 515.758 167.547C515.851 166.752 516.178 166.001 516.697 165.392C517.217 164.782 517.907 164.34 518.678 164.121C519.45 163.903 520.269 163.918 521.031 164.165C521.538 164.326 522.008 164.587 522.414 164.931C522.82 165.274 523.154 165.695 523.396 166.168C523.639 166.641 523.785 167.157 523.827 167.687C523.869 168.217 523.806 168.75 523.641 169.256Z" fill="url(#paint42_linear)"/>
<path d="M525.575 167.369C525.476 167.683 525.286 167.959 525.029 168.165C524.772 168.37 524.46 168.494 524.132 168.521C523.804 168.549 523.476 168.478 523.188 168.318C522.901 168.159 522.667 167.917 522.518 167.625C522.368 167.332 522.309 167.002 522.348 166.675C522.386 166.349 522.522 166.042 522.736 165.792C522.95 165.543 523.234 165.363 523.551 165.275C523.868 165.187 524.204 165.196 524.516 165.299C524.722 165.365 524.912 165.471 525.077 165.611C525.242 165.751 525.377 165.922 525.476 166.114C525.574 166.307 525.634 166.517 525.651 166.732C525.668 166.947 525.642 167.164 525.575 167.369Z" fill="white"/>
<path d="M544.595 174.944C543.613 175.849 542.416 175.404 541.31 174.591C540.262 173.747 539.338 172.762 538.562 171.662C538.793 169.531 539.345 167.86 539.514 166.418C540.19 160.392 543.567 159.119 545.148 160.729C547.174 162.753 546.883 172.797 544.595 174.944Z" fill="#752E48"/>
<path d="M544.596 174.944C543.613 175.849 542.416 175.404 541.31 174.591C540.262 173.747 539.338 172.762 538.562 171.662C538.731 169.891 539.05 168.136 539.514 166.418C541.049 161.235 543.337 160.76 544.933 162.354C546.96 164.394 546.883 172.797 544.596 174.944Z" fill="white"/>
<path d="M543.261 170.789C543.133 172.263 542.433 173.628 541.311 174.592C541.036 174.384 540.775 174.158 540.528 173.917C539.816 173.243 539.168 172.504 538.594 171.709V171.571C538.671 170.789 538.763 170.038 538.87 169.424C539.025 168.431 539.24 167.448 539.515 166.48C539.732 166.268 539.993 166.104 540.279 166.001C540.565 165.898 540.87 165.857 541.173 165.882C542.677 166.02 543.598 168.32 543.261 170.789Z" fill="#87433F"/>
<path d="M544.043 168.198C543.985 168.411 543.867 168.603 543.702 168.751C543.537 168.899 543.333 168.996 543.114 169.031C542.896 169.066 542.671 169.037 542.469 168.948C542.266 168.859 542.093 168.713 541.971 168.528C541.85 168.344 541.784 168.128 541.781 167.907C541.779 167.685 541.841 167.468 541.959 167.281C542.077 167.094 542.247 166.945 542.448 166.852C542.649 166.759 542.872 166.726 543.092 166.756C543.249 166.787 543.4 166.849 543.533 166.939C543.667 167.028 543.781 167.144 543.87 167.278C543.958 167.412 544.019 167.562 544.049 167.72C544.079 167.878 544.077 168.04 544.043 168.198Z" fill="white"/>
<path style="mix-blend-mode:screen" d="M540.528 173.917C539.816 173.243 539.168 172.503 538.594 171.709C538.578 171.649 538.578 171.585 538.594 171.525C538.56 170.799 538.654 170.072 538.87 169.378C538.959 168.923 539.168 168.499 539.476 168.151C539.784 167.804 540.179 167.544 540.62 167.4C543.061 166.955 542.861 173.089 540.528 173.917Z" fill="url(#paint43_linear)"/>
<path d="M535.307 161.619C538.653 172.951 539.037 175.773 542.061 179.805C545.086 183.838 535.43 184.85 533.833 182.565C532.237 180.281 536.136 178.732 536.136 178.732C536.136 178.732 535.338 169.363 535.307 161.619Z" fill="url(#paint44_linear)"/>
<path d="M481.547 168.427C481.547 175.021 492.201 185.97 495.885 180.587C495.876 180.612 495.876 180.639 495.885 180.664C496.951 176.37 497.314 171.932 496.96 167.523C487.273 161.772 481.486 161.88 481.547 168.427Z" fill="url(#paint45_linear)"/>
<path d="M494.475 170.65C489.117 162.339 481.672 165.789 485.264 171.831C488.856 177.873 494.045 177.827 494.045 177.827C494.045 177.827 489.777 175.235 490.56 172.797C491.343 170.359 494.475 170.65 494.475 170.65Z" fill="url(#paint46_linear)"/>
<path d="M507.875 134.861C525.882 125.553 540.895 135.336 545.593 138.863C550.29 142.39 554.803 127.239 540.711 121.995C526.619 116.751 509.134 130.429 507.875 134.861Z" fill="url(#paint47_linear)"/>
<path d="M482.67 136.272C473.628 130.215 490.806 111.262 515.076 104.96C539.346 98.6574 560.531 108.471 570.509 119.987C580.487 131.503 559.763 143.464 559.763 151.483C559.763 159.503 570.11 164.64 562.526 171.418C565.689 166.894 560.792 165.683 559.088 165.437C552.502 164.487 540.897 165.959 544.136 143.448C547.375 120.938 537.289 117.58 507.938 134.892C497.699 132.086 487.812 133.312 482.67 136.272Z" fill="url(#paint48_linear)"/>
<path d="M317.646 98.8867C317.646 98.8867 308.036 98.5033 306.302 100.236C304.567 101.969 306.302 115.969 307.837 117.702C309.372 119.434 318.982 118.852 318.982 118.852L317.646 98.8867Z" fill="#E5BE98"/>
<path d="M375.917 98.8867C375.917 98.8867 385.512 98.5033 387.246 100.236C388.981 101.969 387.246 115.969 385.711 117.702C384.176 119.434 374.566 118.852 374.566 118.852L375.917 98.8867Z" fill="#E5BE98"/>
<path d="M381.489 72.2057C380.722 75.4565 376.7 93.7654 376.684 93.8881C376.577 94.8695 376.5 96.3109 376.423 98.105C375.932 109.897 375.717 136.44 371.818 142.835C370.636 144.782 368.088 146.285 364.849 147.435L363.958 147.726C361.806 148.387 359.611 148.899 357.388 149.26C353.832 149.824 350.242 150.141 346.642 150.21H345.721H344.938C341.93 150.081 338.931 149.779 335.958 149.306C333.735 148.945 331.54 148.433 329.387 147.772L328.512 147.481C325.273 146.361 322.725 144.859 321.543 142.881C317.705 136.548 317.49 109.943 316.938 98.151C316.861 96.3569 316.784 94.9155 316.692 93.9341C316.692 93.9341 312.655 75.5332 311.887 72.2364C311.12 68.9395 319.946 64.37 319.946 64.37C319.946 64.37 313.361 53.3601 327.453 45.5551C329.051 44.7131 330.798 44.1921 332.596 44.0217C333.376 43.9341 334.16 43.8932 334.945 43.899C340.586 44.2331 346.092 45.7648 351.094 48.3919L352.107 48.8979C362.193 53.9428 371.189 61.3952 373.23 64.4313C373.414 64.3393 382.257 68.9395 381.489 72.2057Z" fill="url(#paint49_linear)"/>
<path d="M381.488 72.2058C380.721 75.4566 376.699 93.7655 376.684 93.8882C376.576 94.8696 376.499 96.311 376.423 98.1051H317.121C317.045 96.311 316.968 94.8696 316.876 93.8882C316.876 93.8882 312.838 75.4873 312.071 72.1905C311.303 68.8936 320.13 64.3241 320.13 64.3241C320.13 64.3241 313.544 53.3142 327.637 45.5092C329.234 44.6672 330.981 44.1462 332.779 43.9758C333.559 43.8882 334.343 43.8473 335.128 43.8531C340.77 44.1872 346.275 45.7189 351.277 48.346L352.291 48.852C362.376 53.8969 371.372 61.3493 373.414 64.3854C373.414 64.3394 382.256 68.9396 381.488 72.2058Z" fill="url(#paint50_linear)"/>
<g style="mix-blend-mode:screen" opacity="0.5">
<g style="mix-blend-mode:screen" opacity="0.5">
<path d="M329.524 147.711L328.649 147.419C326.746 140.856 324.658 125.231 326.009 116.199L326.761 116.322C325.38 125.522 327.621 141.608 329.524 147.711Z" fill="#9F645E"/>
</g>
</g>
<g style="mix-blend-mode:screen" opacity="0.5">
<g style="mix-blend-mode:screen" opacity="0.5">
<path d="M363.988 147.711L364.879 147.419C366.767 140.856 368.87 125.231 367.519 116.199L366.751 116.322C368.164 125.522 365.938 141.608 363.988 147.711Z" fill="#9F645E"/>
</g>
</g>
<g style="mix-blend-mode:screen" opacity="0.5">
<g style="mix-blend-mode:screen" opacity="0.5">
<path d="M336.252 68.8477L335.929 69.5531C328.361 65.9956 324.508 60.0306 325.629 53.575C325.997 51.5257 326.835 49.5892 328.076 47.9162C329.316 46.2433 330.927 44.879 332.782 43.9298C333.562 43.8423 334.346 43.8014 335.131 43.8072C332.908 44.5007 330.917 45.789 329.374 47.5325C327.832 49.2761 326.796 51.4082 326.381 53.6977C325.337 59.8006 329.021 65.4589 336.252 68.8477Z" fill="#9F645E"/>
</g>
</g>
<g style="mix-blend-mode:screen" opacity="0.5">
<g style="mix-blend-mode:screen" opacity="0.5">
<path d="M354.658 68.6479L354.428 69.3686C347.382 67.0839 344.864 59.4628 346.568 53.7125C346.851 52.4869 347.427 51.3481 348.248 50.3945C349.069 49.4409 350.11 48.7009 351.281 48.2383L352.294 48.7443C351.063 49.0663 349.945 49.7224 349.065 50.6399C348.184 51.5574 347.575 52.7005 347.305 53.9426C345.708 59.4475 348.057 66.5472 354.658 68.6479Z" fill="#9F645E"/>
</g>
</g>
<g style="mix-blend-mode:screen" opacity="0.5">
<g style="mix-blend-mode:screen" opacity="0.5">
<path d="M345.861 150.149H345.078C344.31 142.123 344.1 134.053 344.449 125.998H345.216C344.867 134.054 345.082 142.124 345.861 150.149Z" fill="#9F645E"/>
</g>
</g>
<path d="M373.459 79.1065L372.185 73.2796C371.826 71.6237 370.903 70.1436 369.573 69.092C368.243 68.0405 366.589 67.4827 364.894 67.5139C364.894 67.5139 351.354 69.1394 346.779 69.1394C342.205 69.1394 328.68 67.5139 328.68 67.5139C326.984 67.4827 325.33 68.0405 324 69.092C322.671 70.1436 321.747 71.6237 321.388 73.2796L320.114 79.1065C317.997 88.8377 318.133 98.9236 320.513 108.594L321.312 111.829C321.699 113.404 322.597 114.806 323.866 115.816C325.136 116.825 326.705 117.387 328.327 117.411C332.672 117.411 338.827 117.549 344.185 117.564H349.42C354.777 117.564 360.933 117.472 365.277 117.411C366.901 117.389 368.471 116.829 369.741 115.819C371.011 114.808 371.908 113.405 372.293 111.829L373.091 108.594C375.461 98.9212 375.587 88.8353 373.459 79.1065Z" fill="#E5BE98"/>
<path d="M367.475 93.9648C368.042 98.9314 367.646 103.961 366.308 108.778L348.148 109.544C348.148 109.544 347.304 98.3043 351.326 90.6986C355.824 87.5245 367.475 93.9648 367.475 93.9648Z" fill="url(#paint51_linear)"/>
<path d="M325.92 93.4435C324.186 104.898 327.056 108.778 327.056 108.778L345.217 109.544C345.217 109.544 346.66 93.4435 341.962 90.3153C337.265 87.1872 325.92 93.4435 325.92 93.4435Z" fill="url(#paint52_linear)"/>
<path d="M349.975 111.583C347.657 103.334 348.732 94.3019 351.326 90.7291L341.962 90.3457C344.556 93.9185 345.892 103.334 343.589 111.583C341.379 110.249 338.585 111.583 339.352 113.899C339.967 115.708 343.958 117.318 346.782 117.318C349.607 117.318 353.583 115.708 354.197 113.899C354.965 111.583 352.186 110.219 349.975 111.583Z" fill="url(#paint53_linear)"/>
<path d="M334.824 122.317C341.548 126.918 353.737 126.105 358.926 122.057C353.015 130.26 340.105 130.521 334.824 122.317Z" fill="white"/>
<path d="M340.347 81.79C340.347 81.79 342.665 88.7057 342.373 91.4352C339.579 90.3465 327.805 93.95 325.487 96.7561C324.658 95.3738 324.042 93.8747 323.66 92.3092C324.232 90.9036 325.042 89.6068 326.055 88.4757C326.623 89.2769 327.249 90.0354 327.928 90.7452C327.928 90.6225 327.314 88.8897 326.853 87.6783C329.822 85.0251 333.485 83.2701 337.415 82.6181L340.869 89.5031L339.518 82.0507L340.347 81.79Z" fill="url(#paint54_linear)"/>
<path d="M378.404 115.586C380.158 115.607 381.873 115.07 383.301 114.053C384.959 112.519 385.005 102.598 385.005 102.598C385.005 102.598 380.615 101.571 379.525 102.797C378.435 104.024 378.128 111.369 378.404 115.586Z" fill="url(#paint55_linear)"/>
<path d="M315.16 115.586C313.405 115.61 311.689 115.072 310.263 114.053C308.589 112.519 308.559 102.598 308.559 102.598C308.559 102.598 312.949 101.571 314.039 102.797C315.129 104.024 315.436 111.369 315.16 115.586Z" fill="url(#paint56_linear)"/>
<path d="M385.006 102.537C385.006 102.537 379.234 100.911 378.789 102.276C377.254 107.214 378.344 115.203 378.344 115.203V115.586C378.344 115.586 378.789 103.626 379.695 103.119C381.435 102.709 383.219 102.513 385.006 102.537Z" fill="#AF736F"/>
<path d="M308.543 102.537C308.543 102.537 314.315 100.911 314.76 102.276C316.295 107.214 315.205 115.203 315.205 115.203V115.586C315.205 115.586 314.76 103.626 313.854 103.119C312.115 102.709 310.331 102.513 308.543 102.537Z" fill="#AF736F"/>
<path d="M328.853 104.776C333.888 98.3507 341.011 102.445 341.763 103.166C338.002 97.2927 330.603 99.6081 328.07 102.583C328.362 103.534 328.853 104.776 328.853 104.776Z" fill="url(#paint57_linear)"/>
<path d="M365.202 104.469C359.353 98.7801 352.844 103.81 352.199 104.622C355.131 98.2894 362.761 99.5928 365.693 102.184C365.524 103.166 365.202 104.469 365.202 104.469Z" fill="url(#paint58_linear)"/>
<path d="M353.013 81.79C353.013 81.79 350.695 88.7057 350.986 91.4352C353.78 90.3465 365.555 93.95 367.873 96.7561C368.701 95.3738 369.317 93.8747 369.699 92.3092C369.121 90.9066 368.312 89.6107 367.305 88.4757C366.737 89.2769 366.111 90.0354 365.432 90.7452C365.432 90.6225 366.046 88.8897 366.506 87.6783C363.538 85.0251 359.874 83.2701 355.945 82.6181L352.491 89.5031L353.842 82.0507L353.013 81.79Z" fill="url(#paint59_linear)"/>
<path d="M167.957 105.266C172.04 100.252 188.22 93.6888 191.521 94.3942C194.821 95.0996 207.256 119.297 206.964 124.909C206.673 130.521 195.251 133.971 192.795 133.91C190.339 133.849 184.137 129.187 184.137 129.187L167.957 105.266Z" fill="url(#paint60_linear)"/>
<path d="M190.708 161.619C190.171 166.956 183.631 169.148 176.462 170.973C177.782 184.85 168.28 206.686 153.205 207.407C145.837 208.112 134.784 194.802 128.076 179.805C126.012 175.325 124.417 170.644 123.317 165.836C122.304 161.236 117.621 159.84 116.762 157.801C116.654 157.525 116.439 156.927 116.163 156.038C114.413 150.333 110.268 133.405 113.738 126.381C113.738 126.381 160.651 103.825 164.059 109.008C167.467 114.191 175.081 160.745 175.081 160.745C175.081 160.745 179.978 149.444 184.783 150.011C189.587 150.579 191.261 156.283 190.708 161.619Z" fill="url(#paint61_linear)"/>
<path d="M135.258 151.56C136.133 155.67 140.6 168.427 143.056 170.513C145.512 172.598 162.445 162.969 162.076 155.44C161.708 147.91 154.585 141.071 151.484 140.489C148.383 139.906 136.256 148.018 135.258 151.56Z" fill="url(#paint62_linear)"/>
<path d="M137.16 176.815L128.073 179.882C126.009 175.401 124.414 170.72 123.314 165.912C122.301 161.312 117.619 159.917 116.759 157.877C116.651 157.601 116.436 157.003 116.16 156.114L128.533 151.774C131.266 153.891 134.582 159.165 136.5 165.713C137.65 169.3 137.877 173.118 137.16 176.815Z" fill="url(#paint63_linear)"/>
<path d="M185.623 126.212C187.389 136.946 186.038 144.69 183.781 150.041C179.314 151.007 175.077 160.775 175.077 160.775L172.206 167.215L166.296 136.701C166.296 136.701 158.866 130.276 158.621 129.417C158.375 128.558 156.149 114.343 156.149 114.343C130.052 122.21 124.357 129.402 124.357 129.402L113.719 126.335C119.721 115.969 151.866 95.2832 156.441 96.1879C161.016 97.0926 182.676 108.148 185.623 126.212Z" fill="url(#paint64_linear)"/>
<path d="M132.555 155.884C133.898 159.515 135.025 163.222 135.932 166.986C136.607 170.697 134.827 175.021 134.673 177.888C134.52 180.756 138.204 180.495 140.737 180.388C143.27 180.28 147.292 177.121 143.623 174.714C142.687 174.112 141.552 173.897 140.461 174.116C140.461 174.116 140.184 163.275 132.555 155.884Z" fill="url(#paint65_linear)"/>
<path d="M159.206 150.977C158.327 153.54 156.728 155.797 154.6 157.478C153.549 158.403 152.407 159.219 151.192 159.916C148.276 161.588 145.052 162.354 142.703 161.25C142.703 152.142 147.692 148.446 150.379 147.603C153.065 146.76 156.519 147.588 159.206 150.977Z" fill="url(#paint66_linear)"/>
<path d="M159.206 150.977C158.327 153.541 156.728 155.798 154.6 157.479C153.549 158.403 152.407 159.22 151.192 159.917C148.276 161.588 145.052 162.355 142.703 161.251C143.609 152.342 148.844 149.643 151.377 148.8C152.76 148.48 154.201 148.511 155.569 148.892C156.937 149.272 158.187 149.989 159.206 150.977Z" fill="white"/>
<path d="M125.358 166.388C125.358 166.388 122.979 158.72 126.725 157.816C130.47 156.911 132.466 162.048 133.786 166.142C130.974 166.067 128.161 166.149 125.358 166.388Z" fill="url(#paint67_linear)"/>
<path d="M133.724 166.142C133.396 166.9 132.823 167.526 132.097 167.921C130.948 168.426 129.668 168.549 128.444 168.273C127.219 167.997 126.116 167.336 125.296 166.387C123.853 161.389 126.263 158.72 128.474 159.165C128.718 159.211 128.955 159.289 129.18 159.395C131.038 160.223 132.189 162.539 133.724 166.142Z" fill="white"/>
<path d="M156.135 152.602C156.538 153.763 156.488 155.033 155.996 156.16C155.028 157.18 153.958 158.1 152.803 158.904C151.889 159.149 150.922 159.123 150.023 158.827C149.123 158.532 148.329 157.981 147.739 157.242C147.148 156.502 146.786 155.607 146.697 154.665C146.608 153.724 146.797 152.776 147.239 151.94C147.681 151.104 148.358 150.414 149.186 149.956C150.015 149.498 150.959 149.292 151.904 149.362C152.848 149.432 153.751 149.776 154.503 150.352C155.254 150.927 155.821 151.709 156.135 152.602Z" fill="#4B2E21"/>
<path d="M133.724 166.143C133.386 166.894 132.815 167.518 132.096 167.921H131.943C130.239 168.366 128.351 166.756 127.721 164.333C127.41 163.448 127.39 162.486 127.667 161.589C127.943 160.692 128.5 159.907 129.256 159.35C129.593 159.509 129.907 159.709 130.193 159.948C131.727 161.596 132.894 163.55 133.616 165.683L133.724 166.143Z" fill="#4B2E21"/>
<path d="M133.863 149.489L135.26 151.559C135.26 151.559 148.401 141.96 149.537 141.669C151.362 141.478 153.199 141.416 155.032 141.485C155.032 141.485 149.445 138.587 147.618 138.878C145.791 139.169 133.863 149.489 133.863 149.489Z" fill="#1A1C20"/>
<path style="mix-blend-mode:multiply" opacity="0.6" d="M186.806 155.869C182.999 150.502 177.688 162.877 177.688 162.877C177.688 162.877 184.012 159.181 181.694 165.667C188.694 163.873 188.157 157.77 186.806 155.869Z" fill="url(#paint68_linear)"/>
<path d="M156.979 171.172C156.81 171.739 157.485 172.031 158.176 172.077C157.485 175.619 153.402 184.16 146.156 186.138C152.389 188.009 158.437 179.728 158.284 172.077C158.821 172.077 159.343 171.969 159.435 171.693C159.619 171.08 157.163 170.543 156.979 171.172Z" fill="#D0776C"/>
<path d="M128.534 151.713L124.543 150.317L114.473 157.049L115.992 158.904L128.534 151.713Z" fill="#1A1C20"/>
<path style="mix-blend-mode:screen" d="M154.677 153.231C154.938 153.949 154.98 154.729 154.797 155.471C154.614 156.213 154.215 156.884 153.65 157.4C153.086 157.915 152.381 158.252 151.625 158.367C150.868 158.483 150.095 158.372 149.402 158.048C148.709 157.724 148.128 157.203 147.731 156.549C147.335 155.896 147.142 155.139 147.176 154.376C147.21 153.613 147.469 152.877 147.922 152.261C148.375 151.645 149 151.177 149.719 150.916C150.684 150.57 151.747 150.619 152.676 151.053C153.605 151.486 154.324 152.269 154.677 153.231Z" fill="url(#paint69_linear)"/>
<path style="mix-blend-mode:screen" d="M132.08 166.557C131.945 166.893 131.737 167.195 131.472 167.441C131.207 167.688 130.89 167.873 130.544 167.983C129.009 168.397 127.367 167.047 126.799 164.992C126.231 162.938 127.014 160.944 128.518 160.53L128.61 160.622C129.118 161.071 129.562 161.587 129.93 162.156C130.76 163.564 131.479 165.036 132.08 166.557Z" fill="url(#paint70_linear)"/>
<path d="M153.848 150.241C153.757 150.521 153.579 150.765 153.34 150.937C153.102 151.11 152.815 151.203 152.52 151.203C152.226 151.203 151.938 151.11 151.7 150.937C151.461 150.765 151.284 150.521 151.192 150.241C151.127 150.086 151.094 149.919 151.094 149.75C151.094 149.582 151.127 149.415 151.192 149.26C152.153 149.33 153.073 149.67 153.848 150.241Z" fill="white"/>
<path d="M129.887 162.187C129.815 162.254 129.724 162.297 129.626 162.309C129.493 162.346 129.354 162.357 129.217 162.34C129.08 162.323 128.947 162.279 128.827 162.21C128.707 162.142 128.602 162.05 128.518 161.941C128.434 161.831 128.372 161.707 128.336 161.573C128.292 161.403 128.289 161.225 128.329 161.054C128.369 160.883 128.451 160.724 128.567 160.592C129.079 161.059 129.523 161.596 129.887 162.187Z" fill="white"/>
<path d="M553.974 264.587C556.221 264.587 558.042 262.768 558.042 260.523C558.042 258.279 556.221 256.46 553.974 256.46C551.728 256.46 549.906 258.279 549.906 260.523C549.906 262.768 551.728 264.587 553.974 264.587Z" fill="#343345"/>
<path d="M565.181 264.587C567.428 264.587 569.249 262.768 569.249 260.523C569.249 258.279 567.428 256.46 565.181 256.46C562.935 256.46 561.113 258.279 561.113 260.523C561.113 262.768 562.935 264.587 565.181 264.587Z" fill="#343345"/>
<path d="M560.67 274.187C562.916 274.187 564.738 272.367 564.738 270.123C564.738 267.879 562.916 266.06 560.67 266.06C558.423 266.06 556.602 267.879 556.602 270.123C556.602 272.367 558.423 274.187 560.67 274.187Z" fill="#343345"/>
<path d="M198.996 37.1367C198.996 37.1367 203.371 49.588 197.461 55.2463L207.332 45.8925L198.996 37.1367Z" fill="url(#paint71_linear)"/>
<path d="M219.398 58.6503C219.398 58.6503 207.117 53.6054 201.223 59.2637L211.093 49.8945L219.398 58.6503Z" fill="url(#paint72_linear)"/>
<path d="M247.413 11.6821C237.588 1.33161 221.454 1.8683 210.647 12.1115L203.493 18.8891C196.754 25.2681 195.818 35.22 201.958 41.6756L208.482 48.5606L215.083 55.4303C221.224 61.8859 231.202 61.5639 237.941 55.1083L245.095 48.3306C255.841 38.0874 257.253 22.0326 247.413 11.6821Z" fill="url(#paint73_linear)"/>
<path d="M213.119 53.4368L208.514 48.5605L203.909 43.6689C199.764 63.1739 170.29 66.9308 179.224 76.3306C188.158 85.7304 193.408 56.5342 213.119 53.4368Z" fill="url(#paint74_linear)"/>
<path style="mix-blend-mode:multiply" opacity="0.2" d="M213.118 53.4373L212.381 52.6553C192.947 55.7221 187.497 84.1208 178.793 75.9324C178.908 76.0725 179.031 76.2056 179.161 76.3311C188.08 85.7463 193.407 56.5348 213.118 53.4373Z" fill="url(#paint75_linear)"/>
<path style="mix-blend-mode:multiply" opacity="0.5" d="M197.414 55.2464C200.597 52.0617 202.824 48.0517 203.846 43.6692L202.434 42.1357C202.589 44.553 202.22 46.9751 201.354 49.2374C200.488 51.4998 199.144 53.5492 197.414 55.2464Z" fill="url(#paint76_linear)"/>
<path style="mix-blend-mode:screen" opacity="0.4" d="M178.748 74.1074C175.939 70.6879 185.303 65.965 195.158 58.5586C191.474 61.6867 181.557 77.5269 178.748 74.1074Z" fill="url(#paint77_linear)"/>
<path d="M171.887 74.7822C175.153 78.5965 178.823 82.0463 182.833 85.0714C183.585 84.0747 184.521 82.7866 185.565 81.3452L185.979 80.7625L186.808 79.5971L188.344 77.481L188.681 76.975L188.789 76.8063L189.802 75.2729C190.447 74.2915 191.091 73.3102 191.675 72.3748L192.059 71.7154L192.227 71.4701C192.55 70.9027 192.872 70.3813 193.148 69.9367L193.44 69.4153C194.16 68.3426 194.627 67.1211 194.806 65.8425C194.53 62.6376 182.433 54.2959 182.433 54.2959C179.87 55.1853 175.802 56.7494 175.51 57.3627C175.218 57.9761 170.552 70.7954 170.245 71.3781C169.938 71.9608 170.567 73.1262 171.887 74.7822Z" fill="url(#paint78_linear)"/>
<path d="M181.496 62.5146C181.496 62.5146 182.218 63.266 183.415 64.3701C184.959 65.7705 186.579 67.0861 188.266 68.3109C189.709 69.3383 191.152 70.2124 192.349 70.9177C192.687 70.3504 193.009 69.829 193.286 69.3843C192.218 68.2428 191.035 67.215 189.755 66.3175C188.007 65.0845 186.102 64.0892 184.09 63.358C183.246 63.019 182.379 62.7372 181.496 62.5146Z" fill="#B34B57"/>
<path d="M176.309 66.3174C178.776 69.0061 181.507 71.4411 184.46 73.5857C185.995 74.6745 187.454 75.6098 188.789 76.3919L188.897 76.2232L189.894 74.6898C188.653 73.5258 187.341 72.4401 185.964 71.439C182.981 69.3217 179.735 67.6001 176.309 66.3174Z" fill="#B34B57"/>
<path d="M177.441 72.9727C178.936 75.2791 180.816 77.3123 182.999 78.9836C183.861 79.6404 184.769 80.2348 185.716 80.7624L186.13 80.1797L186.959 79.0143C186.192 78.283 185.388 77.592 184.549 76.9442C182.374 75.2998 179.982 73.9634 177.441 72.9727Z" fill="#B34B57"/>
</g>
<defs>
<linearGradient id="paint0_linear" x1="236.666" y1="642.404" x2="233.94" y2="482.469" gradientUnits="userSpaceOnUse">
<stop offset="0.73" stop-color="#E2A980"/>
<stop offset="1" stop-color="#DD936B"/>
</linearGradient>
<linearGradient id="paint1_linear" x1="12281.9" y1="103069" x2="11397" y2="80872.9" gradientUnits="userSpaceOnUse">
<stop offset="0.73" stop-color="#E2A980"/>
<stop offset="1" stop-color="#DD936B"/>
</linearGradient>
<linearGradient id="paint2_linear" x1="178.779" y1="323.976" x2="156.078" y2="512.99" gradientUnits="userSpaceOnUse">
<stop offset="0.16" stop-color="#60473B"/>
<stop offset="1" stop-color="#1F1710"/>
</linearGradient>
<linearGradient id="paint3_linear" x1="136.699" y1="302.068" x2="269.731" y2="302.068" gradientUnits="userSpaceOnUse">
<stop offset="0.06" stop-color="#C51016"/>
<stop offset="1" stop-color="#ED1C24"/>
</linearGradient>
<linearGradient id="paint4_linear" x1="153.741" y1="231.22" x2="175.027" y2="191.332" gradientUnits="userSpaceOnUse">
<stop offset="0.17" stop-color="#E2A980"/>
<stop offset="0.44" stop-color="#DD9D77"/>
<stop offset="0.92" stop-color="#D07C5F"/>
<stop offset="1" stop-color="#CE765B"/>
</linearGradient>
<linearGradient id="paint5_linear" x1="2265.29" y1="16326.2" x2="5937.6" y2="16326.2" gradientUnits="userSpaceOnUse">
<stop offset="0.73" stop-color="#E2A980"/>
<stop offset="1" stop-color="#DD936B"/>
</linearGradient>
<linearGradient id="paint6_linear" x1="205.564" y1="77.6187" x2="185.802" y2="53.9672" gradientUnits="userSpaceOnUse">
<stop offset="0.11" stop-color="#E5BE98"/>
<stop offset="0.3" stop-color="#E2B995"/>
<stop offset="1" stop-color="#DAAA8A"/>
</linearGradient>
<linearGradient id="paint7_linear" x1="5913.03" y1="26786.5" x2="15469.4" y2="26786.5" gradientUnits="userSpaceOnUse">
<stop offset="0.73" stop-color="#E2A980"/>
<stop offset="1" stop-color="#DD936B"/>
</linearGradient>
<linearGradient id="paint8_linear" x1="7339.84" y1="17635.9" x2="8353.01" y2="17635.9" gradientUnits="userSpaceOnUse">
<stop offset="0.73" stop-color="#E2A980"/>
<stop offset="1" stop-color="#DD936B"/>
</linearGradient>
<linearGradient id="paint9_linear" x1="7524.53" y1="12031.7" x2="4401.8" y2="11523.2" gradientUnits="userSpaceOnUse">
<stop offset="0.73" stop-color="#E2A980"/>
<stop offset="1" stop-color="#DD936B"/>
</linearGradient>
<linearGradient id="paint10_linear" x1="15109.4" y1="27152.1" x2="23463.5" y2="27152.1" gradientUnits="userSpaceOnUse">
<stop offset="0.73" stop-color="#E2A980"/>
<stop offset="1" stop-color="#DD936B"/>
</linearGradient>
<linearGradient id="paint11_linear" x1="243.018" y1="358.426" x2="222.261" y2="507.511" gradientUnits="userSpaceOnUse">
<stop offset="0.16" stop-color="#60473B"/>
<stop offset="1" stop-color="#1F1710"/>
</linearGradient>
<linearGradient id="paint12_linear" x1="623.423" y1="313.978" x2="522.452" y2="294.524" gradientUnits="userSpaceOnUse">
<stop stop-color="#E0A185"/>
<stop offset="1" stop-color="#C86F5C"/>
</linearGradient>
<linearGradient id="paint13_linear" x1="43379" y1="92233.8" x2="43082.6" y2="71975.8" gradientUnits="userSpaceOnUse">
<stop stop-color="#E0A185"/>
<stop offset="1" stop-color="#C86F5C"/>
</linearGradient>
<linearGradient id="paint14_linear" x1="509.34" y1="377.339" x2="509.34" y2="481.159" gradientUnits="userSpaceOnUse">
<stop stop-color="#343345"/>
<stop offset="1" stop-color="#14122D"/>
</linearGradient>
<linearGradient id="paint15_linear" x1="457.602" y1="301.262" x2="563.985" y2="301.262" gradientUnits="userSpaceOnUse">
<stop offset="0.06" stop-color="#C51016"/>
<stop offset="1" stop-color="#ED1C24"/>
</linearGradient>
<linearGradient id="paint16_linear" x1="497.789" y1="209.722" x2="521.599" y2="209.722" gradientUnits="userSpaceOnUse">
<stop stop-color="#C87661"/>
<stop offset="1" stop-color="#E1A98F"/>
</linearGradient>
<linearGradient id="paint17_linear" x1="13546.8" y1="8202.75" x2="12678.5" y2="9036.17" gradientUnits="userSpaceOnUse">
<stop stop-color="#E0A185"/>
<stop offset="1" stop-color="#C86F5C"/>
</linearGradient>
<linearGradient id="paint18_linear" x1="29233.6" y1="28043.4" x2="28186.9" y2="22773.9" gradientUnits="userSpaceOnUse">
<stop stop-color="#E0A185"/>
<stop offset="1" stop-color="#C86F5C"/>
</linearGradient>
<linearGradient id="paint19_linear" x1="472.906" y1="238.419" x2="452.43" y2="245.815" gradientUnits="userSpaceOnUse">
<stop offset="0.06" stop-color="#C51016"/>
<stop offset="1" stop-color="#ED1C24"/>
</linearGradient>
<linearGradient id="paint20_linear" x1="611.784" y1="293.245" x2="593.62" y2="251.198" gradientUnits="userSpaceOnUse">
<stop stop-color="#E0A185"/>
<stop offset="1" stop-color="#C86F5C"/>
</linearGradient>
<linearGradient id="paint21_linear" x1="5396.98" y1="2419.81" x2="5479.8" y2="2419.81" gradientUnits="userSpaceOnUse">
<stop stop-color="#E0A185"/>
<stop offset="1" stop-color="#C86F5C"/>
</linearGradient>
<linearGradient id="paint22_linear" x1="4018.24" y1="1933.14" x2="4059.11" y2="1933.14" gradientUnits="userSpaceOnUse">
<stop stop-color="#E0A185"/>
<stop offset="1" stop-color="#C86F5C"/>
</linearGradient>
<linearGradient id="paint23_linear" x1="3603.68" y1="8599.05" x2="3639.87" y2="8599.05" gradientUnits="userSpaceOnUse">
<stop stop-color="#E0A185"/>
<stop offset="1" stop-color="#C86F5C"/>
</linearGradient>
<linearGradient id="paint24_linear" x1="322.229" y1="595.368" x2="322.229" y2="419.124" gradientUnits="userSpaceOnUse">
<stop offset="0.11" stop-color="#E5BE98"/>
<stop offset="0.29" stop-color="#E2B894"/>
<stop offset="1" stop-color="#D8A588"/>
</linearGradient>
<linearGradient id="paint25_linear" x1="388.926" y1="606.424" x2="388.926" y2="439.192" gradientUnits="userSpaceOnUse">
<stop offset="0.11" stop-color="#E5BE98"/>
<stop offset="0.29" stop-color="#E2B894"/>
<stop offset="1" stop-color="#D8A588"/>
</linearGradient>
<linearGradient id="paint26_linear" x1="358.586" y1="312.123" x2="358.586" y2="446.759" gradientUnits="userSpaceOnUse">
<stop stop-color="#434356"/>
<stop offset="1" stop-color="#121222"/>
</linearGradient>
<linearGradient id="paint27_linear" x1="7142.13" y1="7672.08" x2="7057.54" y2="8276.3" gradientUnits="userSpaceOnUse">
<stop offset="0.11" stop-color="#E5BE98"/>
<stop offset="0.3" stop-color="#E2B995"/>
<stop offset="0.53" stop-color="#DAAA8A"/>
<stop offset="0.79" stop-color="#CD917A"/>
<stop offset="1" stop-color="#BF7769"/>
</linearGradient>
<linearGradient id="paint28_linear" x1="15274.9" y1="5745.25" x2="16573.3" y2="5217.58" gradientUnits="userSpaceOnUse">
<stop offset="0.11" stop-color="#E5BE98"/>
<stop offset="0.3" stop-color="#E2B995"/>
<stop offset="0.53" stop-color="#DAAA8A"/>
<stop offset="0.79" stop-color="#CD917A"/>
<stop offset="1" stop-color="#BF7769"/>
</linearGradient>
<linearGradient id="paint29_linear" x1="373.875" y1="190.601" x2="418.178" y2="190.601" gradientUnits="userSpaceOnUse">
<stop offset="0.06" stop-color="#C51016"/>
<stop offset="1" stop-color="#ED1C24"/>
</linearGradient>
<linearGradient id="paint30_linear" x1="35291.8" y1="8698.85" x2="27445.4" y2="33349.6" gradientUnits="userSpaceOnUse">
<stop offset="0.11" stop-color="#E5BE98"/>
<stop offset="0.3" stop-color="#E2B995"/>
<stop offset="0.53" stop-color="#DAAA8A"/>
<stop offset="0.79" stop-color="#CD917A"/>
<stop offset="1" stop-color="#BF7769"/>
</linearGradient>
<linearGradient id="paint31_linear" x1="24570.9" y1="15432" x2="27339.2" y2="36977.9" gradientUnits="userSpaceOnUse">
<stop offset="0.11" stop-color="#E5BE98"/>
<stop offset="0.3" stop-color="#E2B995"/>
<stop offset="0.53" stop-color="#DAAA8A"/>
<stop offset="0.79" stop-color="#CD917A"/>
<stop offset="1" stop-color="#BF7769"/>
</linearGradient>
<linearGradient id="paint32_linear" x1="298.148" y1="243.393" x2="412.212" y2="243.393" gradientUnits="userSpaceOnUse">
<stop offset="0.06" stop-color="#C51016"/>
<stop offset="1" stop-color="#ED1C24"/>
</linearGradient>
<linearGradient id="paint33_linear" x1="310.737" y1="191.03" x2="274.278" y2="173.698" gradientUnits="userSpaceOnUse">
<stop offset="0.06" stop-color="#C51016"/>
<stop offset="1" stop-color="#ED1C24"/>
</linearGradient>
<linearGradient id="paint34_linear" x1="13740.5" y1="3364.85" x2="13732.6" y2="3626.78" gradientUnits="userSpaceOnUse">
<stop offset="0.11" stop-color="#E5BE98"/>
<stop offset="0.3" stop-color="#E2B995"/>
<stop offset="0.53" stop-color="#DAAA8A"/>
<stop offset="0.79" stop-color="#CD917A"/>
<stop offset="1" stop-color="#BF7769"/>
</linearGradient>
<linearGradient id="paint35_linear" x1="489.821" y1="140.605" x2="483.942" y2="193.703" gradientUnits="userSpaceOnUse">
<stop offset="0.09" stop-color="#BC5653"/>
<stop offset="1" stop-color="#9F3646"/>
</linearGradient>
<linearGradient id="paint36_linear" x1="537.112" y1="153.849" x2="498.7" y2="195.997" gradientUnits="userSpaceOnUse">
<stop offset="0.78" stop-color="#E0A185"/>
<stop offset="0.96" stop-color="#DB8B6E"/>
</linearGradient>
<linearGradient id="paint37_linear" x1="495.378" y1="141.222" x2="489.498" y2="194.32" gradientUnits="userSpaceOnUse">
<stop offset="0.09" stop-color="#BC5A57"/>
<stop offset="1" stop-color="#A03D59"/>
</linearGradient>
<linearGradient id="paint38_linear" x1="537.812" y1="143.314" x2="544.067" y2="163.695" gradientUnits="userSpaceOnUse">
<stop stop-color="#C86F5C"/>
<stop offset="0.22" stop-color="#CF7D68"/>
<stop offset="0.7" stop-color="#DB977D"/>
<stop offset="0.99" stop-color="#E0A185"/>
</linearGradient>
<linearGradient id="paint39_linear" x1="529.606" y1="140.297" x2="521.312" y2="169.945" gradientUnits="userSpaceOnUse">
<stop offset="0.15" stop-color="#C86F5C"/>
<stop offset="0.28" stop-color="#CF7D68"/>
<stop offset="0.55" stop-color="#DB977D"/>
<stop offset="0.72" stop-color="#E0A185"/>
</linearGradient>
<linearGradient id="paint40_linear" x1="6827.39" y1="3664.1" x2="7065.47" y2="3741.08" gradientUnits="userSpaceOnUse">
<stop offset="0.09" stop-color="#BC5A57"/>
<stop offset="1" stop-color="#A03D59"/>
</linearGradient>
<linearGradient id="paint41_linear" x1="4095.27" y1="3174.54" x2="4192.49" y2="3205.98" gradientUnits="userSpaceOnUse">
<stop offset="0.09" stop-color="#BC5A57"/>
<stop offset="1" stop-color="#A03D59"/>
</linearGradient>
<linearGradient id="paint42_linear" x1="518.584" y1="171.644" x2="520.826" y2="165.245" gradientUnits="userSpaceOnUse">
<stop stop-color="#87433F"/>
<stop offset="1"/>
</linearGradient>
<linearGradient id="paint43_linear" x1="1519.34" y1="1308.09" x2="1523.68" y2="1286.97" gradientUnits="userSpaceOnUse">
<stop stop-color="#87433F"/>
<stop offset="1"/>
</linearGradient>
<linearGradient id="paint44_linear" x1="536.186" y1="170.137" x2="539.287" y2="188.415" gradientUnits="userSpaceOnUse">
<stop stop-color="#E0A185"/>
<stop offset="1" stop-color="#D46C62"/>
</linearGradient>
<linearGradient id="paint45_linear" x1="5911.92" y1="3550.52" x2="5844.99" y2="3673.05" gradientUnits="userSpaceOnUse">
<stop offset="0.78" stop-color="#E0A185"/>
<stop offset="0.96" stop-color="#DB8B6E"/>
</linearGradient>
<linearGradient id="paint46_linear" x1="496.314" y1="173.965" x2="486.595" y2="170.096" gradientUnits="userSpaceOnUse">
<stop offset="0.34" stop-color="#C86F5C"/>
<stop offset="0.49" stop-color="#CF7D68"/>
<stop offset="0.81" stop-color="#DB977D"/>
<stop offset="1" stop-color="#E0A185"/>
</linearGradient>
<linearGradient id="paint47_linear" x1="15936.5" y1="2697.39" x2="15938.8" y2="2860.41" gradientUnits="userSpaceOnUse">
<stop offset="0.09" stop-color="#BC5653"/>
<stop offset="1" stop-color="#9F3646"/>
</linearGradient>
<linearGradient id="paint48_linear" x1="37092.5" y1="10414.9" x2="31779.5" y2="10117" gradientUnits="userSpaceOnUse">
<stop offset="0.09" stop-color="#BC5653"/>
<stop offset="1" stop-color="#9F3646"/>
</linearGradient>
<linearGradient id="paint49_linear" x1="347.041" y1="95.2682" x2="347.807" y2="162.846" gradientUnits="userSpaceOnUse">
<stop offset="0.23" stop-color="#7D5D4C"/>
<stop offset="0.81" stop-color="#452723"/>
</linearGradient>
<linearGradient id="paint50_linear" x1="346.78" y1="42.473" x2="346.78" y2="107.459" gradientUnits="userSpaceOnUse">
<stop offset="0.16" stop-color="#7D5D4C"/>
<stop offset="0.82" stop-color="#452723"/>
</linearGradient>
<linearGradient id="paint51_linear" x1="357.898" y1="113.019" x2="357.898" y2="89.7911" gradientUnits="userSpaceOnUse">
<stop offset="0.11" stop-color="#E5BE98"/>
<stop offset="0.29" stop-color="#E2B894"/>
<stop offset="0.55" stop-color="#D8A588"/>
<stop offset="0.86" stop-color="#C88874"/>
<stop offset="1" stop-color="#BF7769"/>
</linearGradient>
<linearGradient id="paint52_linear" x1="335.392" y1="113.086" x2="335.392" y2="89.4106" gradientUnits="userSpaceOnUse">
<stop offset="0.11" stop-color="#E5BE98"/>
<stop offset="0.29" stop-color="#E2B894"/>
<stop offset="0.55" stop-color="#D8A588"/>
<stop offset="0.86" stop-color="#C88874"/>
<stop offset="1" stop-color="#BF7769"/>
</linearGradient>
<linearGradient id="paint53_linear" x1="346.782" y1="91.5878" x2="346.782" y2="118.315" gradientUnits="userSpaceOnUse">
<stop offset="0.2" stop-color="#E5BE98"/>
<stop offset="0.36" stop-color="#E3B895"/>
<stop offset="0.57" stop-color="#DEA68C"/>
<stop offset="0.81" stop-color="#D68A7F"/>
<stop offset="1" stop-color="#CE6E71"/>
</linearGradient>
<linearGradient id="paint54_linear" x1="331.103" y1="83.8281" x2="334.431" y2="95.409" gradientUnits="userSpaceOnUse">
<stop offset="0.1" stop-color="#7D5D4C"/>
<stop offset="0.92" stop-color="#452723"/>
</linearGradient>
<linearGradient id="paint55_linear" x1="378.374" y1="108.502" x2="384.974" y2="109.577" gradientUnits="userSpaceOnUse">
<stop offset="0.06" stop-color="#B47562"/>
<stop offset="0.14" stop-color="#BB806A"/>
<stop offset="0.43" stop-color="#D2A283"/>
<stop offset="0.67" stop-color="#E0B692"/>
<stop offset="0.83" stop-color="#E5BE98"/>
</linearGradient>
<linearGradient id="paint56_linear" x1="315.255" y1="110.936" x2="307.685" y2="110.139" gradientUnits="userSpaceOnUse">
<stop offset="0.06" stop-color="#B47562"/>
<stop offset="0.14" stop-color="#BB806A"/>
<stop offset="0.43" stop-color="#D2A283"/>
<stop offset="0.67" stop-color="#E0B692"/>
<stop offset="0.83" stop-color="#E5BE98"/>
</linearGradient>
<linearGradient id="paint57_linear" x1="3828.47" y1="-5614.67" x2="3947.62" y2="-5631.53" gradientUnits="userSpaceOnUse">
<stop offset="0.1" stop-color="#7D5D4C"/>
<stop offset="0.92" stop-color="#452723"/>
</linearGradient>
<linearGradient id="paint58_linear" x1="-16264.4" y1="-4102.82" x2="-16383.2" y2="-4102.82" gradientUnits="userSpaceOnUse">
<stop offset="0.1" stop-color="#7D5D4C"/>
<stop offset="0.92" stop-color="#452723"/>
</linearGradient>
<linearGradient id="paint59_linear" x1="453.365" y1="1256.28" x2="419.579" y2="1369.11" gradientUnits="userSpaceOnUse">
<stop offset="0.1" stop-color="#7D5D4C"/>
<stop offset="0.92" stop-color="#452723"/>
</linearGradient>
<linearGradient id="paint60_linear" x1="185.334" y1="118.699" x2="197.911" y2="113.594" gradientUnits="userSpaceOnUse">
<stop stop-color="#22252A"/>
<stop offset="0.66" stop-color="#2E323C"/>
</linearGradient>
<linearGradient id="paint61_linear" x1="-44345.7" y1="29396.7" x2="-40985.9" y2="30197.1" gradientUnits="userSpaceOnUse">
<stop offset="0.73" stop-color="#E2A980"/>
<stop offset="1" stop-color="#DD936B"/>
</linearGradient>
<linearGradient id="paint62_linear" x1="151.846" y1="164.357" x2="144.538" y2="147.773" gradientUnits="userSpaceOnUse">
<stop stop-color="#DD936B"/>
<stop offset="1" stop-color="#CE765B"/>
</linearGradient>
<linearGradient id="paint63_linear" x1="129.399" y1="173.912" x2="121.963" y2="159.37" gradientUnits="userSpaceOnUse">
<stop stop-color="#DD936B"/>
<stop offset="1" stop-color="#CE765B"/>
</linearGradient>
<linearGradient id="paint64_linear" x1="150.575" y1="125.791" x2="178.478" y2="151.481" gradientUnits="userSpaceOnUse">
<stop offset="0.34" stop-color="#2E323C"/>
<stop offset="1" stop-color="#22252A"/>
</linearGradient>
<linearGradient id="paint65_linear" x1="136.045" y1="160.743" x2="142.264" y2="182.177" gradientUnits="userSpaceOnUse">
<stop offset="0.15" stop-color="#E2A980"/>
<stop offset="0.32" stop-color="#E0A37D"/>
<stop offset="0.57" stop-color="#DB9174"/>
<stop offset="0.85" stop-color="#D27364"/>
<stop offset="1" stop-color="#CD615B"/>
</linearGradient>
<linearGradient id="paint66_linear" x1="-10509.8" y1="2811.44" x2="-10311.3" y2="2811.44" gradientUnits="userSpaceOnUse">
<stop offset="0.34" stop-color="#2E323C"/>
<stop offset="1" stop-color="#22252A"/>
</linearGradient>
<linearGradient id="paint67_linear" x1="-5905.02" y1="1769.82" x2="-5855.76" y2="1769.82" gradientUnits="userSpaceOnUse">
<stop offset="0.34" stop-color="#2E323C"/>
<stop offset="1" stop-color="#22252A"/>
</linearGradient>
<linearGradient id="paint68_linear" x1="185.684" y1="159.945" x2="178.679" y2="166.438" gradientUnits="userSpaceOnUse">
<stop stop-color="white"/>
<stop offset="0.13" stop-color="#FBF5F3"/>
<stop offset="0.36" stop-color="#F1D9D1"/>
<stop offset="0.67" stop-color="#E1AC9C"/>
<stop offset="1" stop-color="#CE765B"/>
</linearGradient>
<linearGradient id="paint69_linear" x1="152.128" y1="156.117" x2="149.596" y2="150.821" gradientUnits="userSpaceOnUse">
<stop stop-color="#4B2E21"/>
<stop offset="0.23" stop-color="#321F16"/>
<stop offset="0.53" stop-color="#170E0A"/>
<stop offset="0.8" stop-color="#060403"/>
<stop offset="1"/>
</linearGradient>
<linearGradient id="paint70_linear" x1="-1890.05" y1="2027.17" x2="-1901.22" y2="2000.6" gradientUnits="userSpaceOnUse">
<stop stop-color="#4B2E21"/>
<stop offset="0.23" stop-color="#321F16"/>
<stop offset="0.53" stop-color="#170E0A"/>
<stop offset="0.8" stop-color="#060403"/>
<stop offset="1"/>
</linearGradient>
<linearGradient id="paint71_linear" x1="193.972" y1="50.7452" x2="206.186" y2="38.4303" gradientUnits="userSpaceOnUse">
<stop offset="0.21" stop-color="#D6A279"/>
<stop offset="0.91" stop-color="#B47640"/>
</linearGradient>
<linearGradient id="paint72_linear" x1="10138.2" y1="11140.3" x2="10216.6" y2="11068.3" gradientUnits="userSpaceOnUse">
<stop offset="0.21" stop-color="#D6A279"/>
<stop offset="0.91" stop-color="#B47640"/>
</linearGradient>
<linearGradient id="paint73_linear" x1="346.139" y1="330.989" x2="358.788" y2="362.822" gradientUnits="userSpaceOnUse">
<stop offset="0.21" stop-color="#ED1C24"/>
<stop offset="0.91" stop-color="#7A202E"/>
</linearGradient>
<linearGradient id="paint74_linear" x1="-1500.05" y1="1339.13" x2="-1321.83" y2="1339.13" gradientUnits="userSpaceOnUse">
<stop offset="0.21" stop-color="#D6A279"/>
<stop offset="0.91" stop-color="#B47640"/>
</linearGradient>
<linearGradient id="paint75_linear" x1="-1439.98" y1="1011.06" x2="-1268.01" y2="1011.06" gradientUnits="userSpaceOnUse">
<stop offset="0.21" stop-color="#D6A279"/>
<stop offset="0.91" stop-color="#B47640"/>
</linearGradient>
<linearGradient id="paint76_linear" x1="-118.081" y1="405.17" x2="-118.081" y2="487.636" gradientUnits="userSpaceOnUse">
<stop offset="0.21" stop-color="#D6A279"/>
<stop offset="0.91" stop-color="#B47640"/>
</linearGradient>
<linearGradient id="paint77_linear" x1="-611.066" y1="717.527" x2="-611.066" y2="898.018" gradientUnits="userSpaceOnUse">
<stop offset="0.21" stop-color="#D6A279"/>
<stop offset="0.91" stop-color="#B47640"/>
</linearGradient>
<linearGradient id="paint78_linear" x1="191.956" y1="76.2332" x2="181.823" y2="61.631" gradientUnits="userSpaceOnUse">
<stop offset="0.11" stop-color="#E5BE98"/>
<stop offset="0.3" stop-color="#E2B995"/>
<stop offset="1" stop-color="#DAAA8A"/>
</linearGradient>
<clipPath id="clip0">
<rect width="628" height="538" fill="white" transform="translate(0.949219 0.0800781)"/>
</clipPath>
</defs>
</svg>
