<svg width="281" height="382" viewBox="0 0 281 382" fill="none" xmlns="http://www.w3.org/2000/svg">
<path d="M132.532 1.4719C141.509 -0.104759 151.004 1.01228 159.259 4.92192C168.818 9.30281 176.748 17.1628 181.141 26.7216C185.091 34.9482 186.284 44.4256 184.724 53.4084C182.834 64.5439 176.498 74.8475 167.445 81.6021C160.789 86.6171 152.708 89.7529 144.389 90.4278C134.458 91.3529 124.265 88.7813 115.928 83.3183C107.649 77.9426 101.214 69.7626 98.0374 60.4074C94.2674 49.714 94.8318 37.5895 99.4977 27.2627C105.403 13.9397 118.162 3.95615 132.532 1.4719Z" fill="#F5F5F5"/>
<path d="M138.3 114.482C143.513 113.755 148.935 115.716 152.571 119.497C193.512 160.403 234.418 201.344 275.353 242.261C277.395 244.292 279.565 246.386 280.548 249.173C281.182 251.023 280.536 253.327 278.779 254.304C276.039 256.038 272.665 255.788 269.57 255.811C253.07 255.817 236.576 255.788 220.082 255.823C213.351 256.015 207.149 260.803 205.061 267.173C203.932 270.368 204.2 273.806 204.176 277.14C204.165 306.619 204.188 336.098 204.165 365.578C203.996 373.996 196.427 381.298 188.049 381.379C157.424 381.42 126.798 381.391 96.1725 381.397C87.6202 381.525 79.894 374.078 79.6788 365.531C79.6555 334.708 79.6729 303.885 79.6729 273.061C79.7137 269.617 78.8293 266.103 76.8629 263.252C73.9946 258.813 68.8516 255.962 63.5806 255.811C45.1669 255.794 26.7474 255.829 8.33367 255.794C5.44216 255.712 1.80014 255.264 0.32821 252.384C-0.707379 249.324 1.48016 246.409 3.51061 244.338C44.9807 203.002 86.3344 161.555 127.741 120.166C130.458 117.112 134.233 115 138.3 114.482Z" fill="#F5F5F5"/>
</svg>
