<svg width="50" height="43" viewBox="0 0 50 43" fill="none" xmlns="http://www.w3.org/2000/svg">
<g clipPath="url(#clip0)">
<mask id="path-1-outside-1" maskUnits="userSpaceOnUse" x="5.41406" y="2.36328" width="38" height="39" fill="black">
<rect fill="white" x="5.41406" y="2.36328" width="38" height="39"/>
<path d="M29.7338 33.1789C29.7503 33.1729 29.7664 33.1662 29.7823 33.1587C29.9281 33.0905 30.154 33.0015 30.2753 32.9538C30.3222 32.9353 30.3575 32.9212 30.3762 32.9133V32.9134C31.2735 32.532 31.8468 31.8418 32.0341 30.9174C32.2173 30.0131 32.0203 28.9325 31.566 27.7725C34.4155 27.6177 36.368 28.0445 38.821 28.8578C39.2573 29.0023 39.6463 29.0604 39.9902 29.0603C40.8881 29.0603 41.4773 28.6636 41.7902 28.37C42.4904 27.7128 42.7869 26.6855 42.5641 25.6889C42.3175 24.5855 41.4998 23.7448 40.3209 23.3826C38.2373 22.7421 33.9743 21.4321 29.293 23.7847C28.8344 23.1459 28.3415 22.5147 27.8323 21.9047L36.1116 14.8611C36.1258 14.8491 36.1394 14.8364 36.1524 14.8231C36.421 14.548 36.5691 14.1815 36.5691 13.791C36.5691 13.4005 36.421 13.034 36.1523 12.7588L33.577 10.1245C33.0216 9.55569 32.1175 9.55561 31.562 10.1245C31.5489 10.1379 31.5366 10.1517 31.5247 10.1663L28.9984 13.2778C28.7864 13.539 28.8211 13.9269 29.0762 14.1442C29.3312 14.3615 29.7099 14.3258 29.922 14.0646L32.4249 10.9819C32.5118 10.9072 32.6466 10.9115 32.7281 10.9951L35.3034 13.6294C35.3595 13.6869 35.368 13.7554 35.368 13.7911C35.368 13.8239 35.3609 13.8843 35.3163 13.9385L27.036 20.9827C26.805 20.7239 26.5725 20.4706 26.3401 20.2242C26.3353 20.2191 26.3304 20.2141 26.3253 20.2092C26.072 19.9587 25.8114 19.7081 25.5448 19.4593L28.0955 16.3179C28.3076 16.0567 28.2728 15.6688 28.0178 15.4515C27.7628 15.2343 27.3841 15.2699 27.1721 15.5311L24.643 18.6457C24.0883 18.1618 23.5158 17.6928 22.9364 17.2532C25.5474 12.5418 24.4739 8.07109 23.9488 5.88455C23.6554 4.66113 22.8772 3.78283 21.8136 3.4748C20.8517 3.1963 19.834 3.44822 19.1577 4.1322C18.7404 4.55417 18.1044 5.50647 18.5336 7.14225C19.224 9.78046 19.5402 11.8764 19.1859 14.9573C17.9644 14.4224 16.8243 14.179 15.8811 14.3796C14.9787 14.5715 14.3049 15.1584 13.9326 16.0769C13.925 16.0959 13.9111 16.1321 13.893 16.18C13.8464 16.3042 13.7596 16.5355 13.6929 16.6847C13.6856 16.7009 13.6791 16.7176 13.6731 16.7344L12.9125 18.9236C12.9117 18.9258 12.9106 18.9279 12.9098 18.9301L11.6268 22.622C11.6252 22.6267 11.6242 22.6315 11.6227 22.6362L9.77566 27.952C9.77389 27.9567 9.77165 27.961 9.77005 27.9657L9.2099 29.5803L6.68408 36.8499C6.22003 38.189 6.35896 39.3134 7.06349 39.9473C7.44226 40.3867 7.99856 40.6107 8.67186 40.6107C9.10148 40.6107 9.57882 40.5194 10.0876 40.3346L17.1731 37.7539L18.7643 37.1752C18.7689 37.1736 18.7731 37.1713 18.7776 37.1695L23.9682 35.279C23.9733 35.2773 23.9785 35.276 23.9835 35.2741L27.5892 33.9605C27.5915 33.9597 27.5937 33.9585 27.596 33.9576L29.7338 33.1789ZM39.9757 24.5611C41.0072 24.8781 41.3066 25.5758 41.3932 25.9635C41.5179 26.521 41.3551 27.1094 40.9787 27.4627C40.5642 27.8518 39.9289 27.9315 39.1906 27.687C36.5275 26.804 34.307 26.3345 31.0226 26.5746C30.7251 25.9924 30.377 25.3993 29.9917 24.8062C34.1911 22.7835 38.0678 23.9748 39.9757 24.5611ZM19.6937 6.8234C19.4925 6.05681 19.6018 5.41213 20.0015 5.00796C20.3653 4.64005 20.9484 4.50314 21.4868 4.65892C21.8605 4.76712 22.5257 5.10837 22.7823 6.17838C23.2655 8.19004 24.2486 12.2851 21.9499 16.5388C21.4064 16.1646 20.8624 15.8234 20.3267 15.5263C20.785 12.0183 20.4548 9.7319 19.6937 6.8234ZM14.7963 17.1715C14.8759 16.9901 14.9651 16.7522 15.0141 16.6217C15.0261 16.5899 15.0351 16.5657 15.0402 16.5529C15.0407 16.5516 15.0413 16.5503 15.0418 16.5489C15.2639 16.0009 15.6081 15.6945 16.1251 15.5846C16.9128 15.4172 18.0385 15.7156 19.3562 16.3919C19.3858 16.4108 19.4175 16.4269 19.4505 16.4403C20.1707 16.8173 20.9463 17.3051 21.7549 17.8908C21.7764 17.9093 21.799 17.9271 21.8236 17.9427C21.8262 17.9445 21.8291 17.9455 21.8318 17.9472C23.0057 18.8042 24.2461 19.8637 25.4837 21.0871C25.8403 21.4652 26.1821 21.8436 26.5093 22.2204C26.5109 22.2225 26.5122 22.2247 26.5138 22.2267C26.5187 22.2328 26.5242 22.2381 26.5294 22.2439C27.3081 23.1423 28.0003 24.0309 28.5914 24.8845C28.6102 24.9175 28.6314 24.9482 28.655 24.9762C29.2495 25.8426 29.7376 26.671 30.106 27.435C30.1201 27.4739 30.1378 27.5109 30.159 27.5454C30.7564 28.8144 31.0138 29.8981 30.858 30.6675C30.7508 31.1969 30.4514 31.5494 29.916 31.777C29.9147 31.7776 29.9135 31.7781 29.9122 31.7787C29.8996 31.7839 29.876 31.7931 29.8448 31.8054C29.7173 31.8555 29.485 31.9469 29.3078 32.0283L27.8004 32.5774C27.0049 29.9665 24.7855 27.1219 23.4623 25.5858C23.2428 25.331 22.8633 25.3068 22.6146 25.5315C22.3659 25.7563 22.3422 26.1451 22.5617 26.3999C24.6655 28.8424 26.1336 31.2053 26.6681 32.9898L24.0884 33.9294C23.1021 31.9369 21.4286 29.6438 19.3234 27.4091C19.3183 27.4037 19.3132 27.3985 19.308 27.3933C17.1253 25.2379 14.8858 23.5247 12.9398 22.5148L13.8571 19.8747C15.6753 20.4494 18.1509 22.0906 20.6145 24.3709C20.8606 24.5987 21.2403 24.579 21.4627 24.3269C21.6851 24.0748 21.6659 23.6857 21.4197 23.4579C18.8218 21.0533 16.2592 19.3619 14.26 18.7153L14.7963 17.1715ZM18.8021 35.8546C17.8577 34.4359 16.6595 32.9447 15.3126 31.5152C15.3075 31.5099 15.3025 31.5047 15.2973 31.4996C13.901 30.1205 12.4446 28.8939 11.0592 27.9272L12.5332 23.6849C14.3267 24.644 16.4517 26.2829 18.4665 28.2713C20.4084 30.3339 22.009 32.5094 22.9459 34.3454L18.8021 35.8546ZM16.7948 36.5857L14.665 37.3602C13.9456 36.4236 13.1528 35.4952 12.3037 34.5952C12.2988 34.5901 12.294 34.5851 12.289 34.5802C11.4101 33.7109 10.5032 32.8992 9.58867 32.1628L10.3383 30.0021L10.6424 29.1268C11.8916 30.023 13.1972 31.1352 14.4559 32.3776C15.6691 33.6659 16.7552 35.0024 17.6305 36.2812L16.7948 36.5857ZM9.68573 39.175C8.86869 39.4718 8.22038 39.4503 7.9514 39.1178C7.92713 39.0878 7.90015 39.0602 7.87084 39.0354C7.54644 38.7617 7.52602 38.0985 7.8159 37.2618L9.16178 33.3882C9.93493 34.0273 10.7012 34.7204 11.4473 35.458C12.1673 36.2216 12.8443 37.0059 13.4682 37.7972L9.68573 39.175Z"/>
</mask>
<path d="M29.7338 33.1789C29.7503 33.1729 29.7664 33.1662 29.7823 33.1587C29.9281 33.0905 30.154 33.0015 30.2753 32.9538C30.3222 32.9353 30.3575 32.9212 30.3762 32.9133V32.9134C31.2735 32.532 31.8468 31.8418 32.0341 30.9174C32.2173 30.0131 32.0203 28.9325 31.566 27.7725C34.4155 27.6177 36.368 28.0445 38.821 28.8578C39.2573 29.0023 39.6463 29.0604 39.9902 29.0603C40.8881 29.0603 41.4773 28.6636 41.7902 28.37C42.4904 27.7128 42.7869 26.6855 42.5641 25.6889C42.3175 24.5855 41.4998 23.7448 40.3209 23.3826C38.2373 22.7421 33.9743 21.4321 29.293 23.7847C28.8344 23.1459 28.3415 22.5147 27.8323 21.9047L36.1116 14.8611C36.1258 14.8491 36.1394 14.8364 36.1524 14.8231C36.421 14.548 36.5691 14.1815 36.5691 13.791C36.5691 13.4005 36.421 13.034 36.1523 12.7588L33.577 10.1245C33.0216 9.55569 32.1175 9.55561 31.562 10.1245C31.5489 10.1379 31.5366 10.1517 31.5247 10.1663L28.9984 13.2778C28.7864 13.539 28.8211 13.9269 29.0762 14.1442C29.3312 14.3615 29.7099 14.3258 29.922 14.0646L32.4249 10.9819C32.5118 10.9072 32.6466 10.9115 32.7281 10.9951L35.3034 13.6294C35.3595 13.6869 35.368 13.7554 35.368 13.7911C35.368 13.8239 35.3609 13.8843 35.3163 13.9385L27.036 20.9827C26.805 20.7239 26.5725 20.4706 26.3401 20.2242C26.3353 20.2191 26.3304 20.2141 26.3253 20.2092C26.072 19.9587 25.8114 19.7081 25.5448 19.4593L28.0955 16.3179C28.3076 16.0567 28.2728 15.6688 28.0178 15.4515C27.7628 15.2343 27.3841 15.2699 27.1721 15.5311L24.643 18.6457C24.0883 18.1618 23.5158 17.6928 22.9364 17.2532C25.5474 12.5418 24.4739 8.07109 23.9488 5.88455C23.6554 4.66113 22.8772 3.78283 21.8136 3.4748C20.8517 3.1963 19.834 3.44822 19.1577 4.1322C18.7404 4.55417 18.1044 5.50647 18.5336 7.14225C19.224 9.78046 19.5402 11.8764 19.1859 14.9573C17.9644 14.4224 16.8243 14.179 15.8811 14.3796C14.9787 14.5715 14.3049 15.1584 13.9326 16.0769C13.925 16.0959 13.9111 16.1321 13.893 16.18C13.8464 16.3042 13.7596 16.5355 13.6929 16.6847C13.6856 16.7009 13.6791 16.7176 13.6731 16.7344L12.9125 18.9236C12.9117 18.9258 12.9106 18.9279 12.9098 18.9301L11.6268 22.622C11.6252 22.6267 11.6242 22.6315 11.6227 22.6362L9.77566 27.952C9.77389 27.9567 9.77165 27.961 9.77005 27.9657L9.2099 29.5803L6.68408 36.8499C6.22003 38.189 6.35896 39.3134 7.06349 39.9473C7.44226 40.3867 7.99856 40.6107 8.67186 40.6107C9.10148 40.6107 9.57882 40.5194 10.0876 40.3346L17.1731 37.7539L18.7643 37.1752C18.7689 37.1736 18.7731 37.1713 18.7776 37.1695L23.9682 35.279C23.9733 35.2773 23.9785 35.276 23.9835 35.2741L27.5892 33.9605C27.5915 33.9597 27.5937 33.9585 27.596 33.9576L29.7338 33.1789ZM39.9757 24.5611C41.0072 24.8781 41.3066 25.5758 41.3932 25.9635C41.5179 26.521 41.3551 27.1094 40.9787 27.4627C40.5642 27.8518 39.9289 27.9315 39.1906 27.687C36.5275 26.804 34.307 26.3345 31.0226 26.5746C30.7251 25.9924 30.377 25.3993 29.9917 24.8062C34.1911 22.7835 38.0678 23.9748 39.9757 24.5611ZM19.6937 6.8234C19.4925 6.05681 19.6018 5.41213 20.0015 5.00796C20.3653 4.64005 20.9484 4.50314 21.4868 4.65892C21.8605 4.76712 22.5257 5.10837 22.7823 6.17838C23.2655 8.19004 24.2486 12.2851 21.9499 16.5388C21.4064 16.1646 20.8624 15.8234 20.3267 15.5263C20.785 12.0183 20.4548 9.7319 19.6937 6.8234ZM14.7963 17.1715C14.8759 16.9901 14.9651 16.7522 15.0141 16.6217C15.0261 16.5899 15.0351 16.5657 15.0402 16.5529C15.0407 16.5516 15.0413 16.5503 15.0418 16.5489C15.2639 16.0009 15.6081 15.6945 16.1251 15.5846C16.9128 15.4172 18.0385 15.7156 19.3562 16.3919C19.3858 16.4108 19.4175 16.4269 19.4505 16.4403C20.1707 16.8173 20.9463 17.3051 21.7549 17.8908C21.7764 17.9093 21.799 17.9271 21.8236 17.9427C21.8262 17.9445 21.8291 17.9455 21.8318 17.9472C23.0057 18.8042 24.2461 19.8637 25.4837 21.0871C25.8403 21.4652 26.1821 21.8436 26.5093 22.2204C26.5109 22.2225 26.5122 22.2247 26.5138 22.2267C26.5187 22.2328 26.5242 22.2381 26.5294 22.2439C27.3081 23.1423 28.0003 24.0309 28.5914 24.8845C28.6102 24.9175 28.6314 24.9482 28.655 24.9762C29.2495 25.8426 29.7376 26.671 30.106 27.435C30.1201 27.4739 30.1378 27.5109 30.159 27.5454C30.7564 28.8144 31.0138 29.8981 30.858 30.6675C30.7508 31.1969 30.4514 31.5494 29.916 31.777C29.9147 31.7776 29.9135 31.7781 29.9122 31.7787C29.8996 31.7839 29.876 31.7931 29.8448 31.8054C29.7173 31.8555 29.485 31.9469 29.3078 32.0283L27.8004 32.5774C27.0049 29.9665 24.7855 27.1219 23.4623 25.5858C23.2428 25.331 22.8633 25.3068 22.6146 25.5315C22.3659 25.7563 22.3422 26.1451 22.5617 26.3999C24.6655 28.8424 26.1336 31.2053 26.6681 32.9898L24.0884 33.9294C23.1021 31.9369 21.4286 29.6438 19.3234 27.4091C19.3183 27.4037 19.3132 27.3985 19.308 27.3933C17.1253 25.2379 14.8858 23.5247 12.9398 22.5148L13.8571 19.8747C15.6753 20.4494 18.1509 22.0906 20.6145 24.3709C20.8606 24.5987 21.2403 24.579 21.4627 24.3269C21.6851 24.0748 21.6659 23.6857 21.4197 23.4579C18.8218 21.0533 16.2592 19.3619 14.26 18.7153L14.7963 17.1715ZM18.8021 35.8546C17.8577 34.4359 16.6595 32.9447 15.3126 31.5152C15.3075 31.5099 15.3025 31.5047 15.2973 31.4996C13.901 30.1205 12.4446 28.8939 11.0592 27.9272L12.5332 23.6849C14.3267 24.644 16.4517 26.2829 18.4665 28.2713C20.4084 30.3339 22.009 32.5094 22.9459 34.3454L18.8021 35.8546ZM16.7948 36.5857L14.665 37.3602C13.9456 36.4236 13.1528 35.4952 12.3037 34.5952C12.2988 34.5901 12.294 34.5851 12.289 34.5802C11.4101 33.7109 10.5032 32.8992 9.58867 32.1628L10.3383 30.0021L10.6424 29.1268C11.8916 30.023 13.1972 31.1352 14.4559 32.3776C15.6691 33.6659 16.7552 35.0024 17.6305 36.2812L16.7948 36.5857ZM9.68573 39.175C8.86869 39.4718 8.22038 39.4503 7.9514 39.1178C7.92713 39.0878 7.90015 39.0602 7.87084 39.0354C7.54644 38.7617 7.52602 38.0985 7.8159 37.2618L9.16178 33.3882C9.93493 34.0273 10.7012 34.7204 11.4473 35.458C12.1673 36.2216 12.8443 37.0059 13.4682 37.7972L9.68573 39.175Z" fill="#ED1C24"/>
<path d="M29.7338 33.1789C29.7503 33.1729 29.7664 33.1662 29.7823 33.1587C29.9281 33.0905 30.154 33.0015 30.2753 32.9538C30.3222 32.9353 30.3575 32.9212 30.3762 32.9133V32.9134C31.2735 32.532 31.8468 31.8418 32.0341 30.9174C32.2173 30.0131 32.0203 28.9325 31.566 27.7725C34.4155 27.6177 36.368 28.0445 38.821 28.8578C39.2573 29.0023 39.6463 29.0604 39.9902 29.0603C40.8881 29.0603 41.4773 28.6636 41.7902 28.37C42.4904 27.7128 42.7869 26.6855 42.5641 25.6889C42.3175 24.5855 41.4998 23.7448 40.3209 23.3826C38.2373 22.7421 33.9743 21.4321 29.293 23.7847C28.8344 23.1459 28.3415 22.5147 27.8323 21.9047L36.1116 14.8611C36.1258 14.8491 36.1394 14.8364 36.1524 14.8231C36.421 14.548 36.5691 14.1815 36.5691 13.791C36.5691 13.4005 36.421 13.034 36.1523 12.7588L33.577 10.1245C33.0216 9.55569 32.1175 9.55561 31.562 10.1245C31.5489 10.1379 31.5366 10.1517 31.5247 10.1663L28.9984 13.2778C28.7864 13.539 28.8211 13.9269 29.0762 14.1442C29.3312 14.3615 29.7099 14.3258 29.922 14.0646L32.4249 10.9819C32.5118 10.9072 32.6466 10.9115 32.7281 10.9951L35.3034 13.6294C35.3595 13.6869 35.368 13.7554 35.368 13.7911C35.368 13.8239 35.3609 13.8843 35.3163 13.9385L27.036 20.9827C26.805 20.7239 26.5725 20.4706 26.3401 20.2242C26.3353 20.2191 26.3304 20.2141 26.3253 20.2092C26.072 19.9587 25.8114 19.7081 25.5448 19.4593L28.0955 16.3179C28.3076 16.0567 28.2728 15.6688 28.0178 15.4515C27.7628 15.2343 27.3841 15.2699 27.1721 15.5311L24.643 18.6457C24.0883 18.1618 23.5158 17.6928 22.9364 17.2532C25.5474 12.5418 24.4739 8.07109 23.9488 5.88455C23.6554 4.66113 22.8772 3.78283 21.8136 3.4748C20.8517 3.1963 19.834 3.44822 19.1577 4.1322C18.7404 4.55417 18.1044 5.50647 18.5336 7.14225C19.224 9.78046 19.5402 11.8764 19.1859 14.9573C17.9644 14.4224 16.8243 14.179 15.8811 14.3796C14.9787 14.5715 14.3049 15.1584 13.9326 16.0769C13.925 16.0959 13.9111 16.1321 13.893 16.18C13.8464 16.3042 13.7596 16.5355 13.6929 16.6847C13.6856 16.7009 13.6791 16.7176 13.6731 16.7344L12.9125 18.9236C12.9117 18.9258 12.9106 18.9279 12.9098 18.9301L11.6268 22.622C11.6252 22.6267 11.6242 22.6315 11.6227 22.6362L9.77566 27.952C9.77389 27.9567 9.77165 27.961 9.77005 27.9657L9.2099 29.5803L6.68408 36.8499C6.22003 38.189 6.35896 39.3134 7.06349 39.9473C7.44226 40.3867 7.99856 40.6107 8.67186 40.6107C9.10148 40.6107 9.57882 40.5194 10.0876 40.3346L17.1731 37.7539L18.7643 37.1752C18.7689 37.1736 18.7731 37.1713 18.7776 37.1695L23.9682 35.279C23.9733 35.2773 23.9785 35.276 23.9835 35.2741L27.5892 33.9605C27.5915 33.9597 27.5937 33.9585 27.596 33.9576L29.7338 33.1789ZM39.9757 24.5611C41.0072 24.8781 41.3066 25.5758 41.3932 25.9635C41.5179 26.521 41.3551 27.1094 40.9787 27.4627C40.5642 27.8518 39.9289 27.9315 39.1906 27.687C36.5275 26.804 34.307 26.3345 31.0226 26.5746C30.7251 25.9924 30.377 25.3993 29.9917 24.8062C34.1911 22.7835 38.0678 23.9748 39.9757 24.5611ZM19.6937 6.8234C19.4925 6.05681 19.6018 5.41213 20.0015 5.00796C20.3653 4.64005 20.9484 4.50314 21.4868 4.65892C21.8605 4.76712 22.5257 5.10837 22.7823 6.17838C23.2655 8.19004 24.2486 12.2851 21.9499 16.5388C21.4064 16.1646 20.8624 15.8234 20.3267 15.5263C20.785 12.0183 20.4548 9.7319 19.6937 6.8234ZM14.7963 17.1715C14.8759 16.9901 14.9651 16.7522 15.0141 16.6217C15.0261 16.5899 15.0351 16.5657 15.0402 16.5529C15.0407 16.5516 15.0413 16.5503 15.0418 16.5489C15.2639 16.0009 15.6081 15.6945 16.1251 15.5846C16.9128 15.4172 18.0385 15.7156 19.3562 16.3919C19.3858 16.4108 19.4175 16.4269 19.4505 16.4403C20.1707 16.8173 20.9463 17.3051 21.7549 17.8908C21.7764 17.9093 21.799 17.9271 21.8236 17.9427C21.8262 17.9445 21.8291 17.9455 21.8318 17.9472C23.0057 18.8042 24.2461 19.8637 25.4837 21.0871C25.8403 21.4652 26.1821 21.8436 26.5093 22.2204C26.5109 22.2225 26.5122 22.2247 26.5138 22.2267C26.5187 22.2328 26.5242 22.2381 26.5294 22.2439C27.3081 23.1423 28.0003 24.0309 28.5914 24.8845C28.6102 24.9175 28.6314 24.9482 28.655 24.9762C29.2495 25.8426 29.7376 26.671 30.106 27.435C30.1201 27.4739 30.1378 27.5109 30.159 27.5454C30.7564 28.8144 31.0138 29.8981 30.858 30.6675C30.7508 31.1969 30.4514 31.5494 29.916 31.777C29.9147 31.7776 29.9135 31.7781 29.9122 31.7787C29.8996 31.7839 29.876 31.7931 29.8448 31.8054C29.7173 31.8555 29.485 31.9469 29.3078 32.0283L27.8004 32.5774C27.0049 29.9665 24.7855 27.1219 23.4623 25.5858C23.2428 25.331 22.8633 25.3068 22.6146 25.5315C22.3659 25.7563 22.3422 26.1451 22.5617 26.3999C24.6655 28.8424 26.1336 31.2053 26.6681 32.9898L24.0884 33.9294C23.1021 31.9369 21.4286 29.6438 19.3234 27.4091C19.3183 27.4037 19.3132 27.3985 19.308 27.3933C17.1253 25.2379 14.8858 23.5247 12.9398 22.5148L13.8571 19.8747C15.6753 20.4494 18.1509 22.0906 20.6145 24.3709C20.8606 24.5987 21.2403 24.579 21.4627 24.3269C21.6851 24.0748 21.6659 23.6857 21.4197 23.4579C18.8218 21.0533 16.2592 19.3619 14.26 18.7153L14.7963 17.1715ZM18.8021 35.8546C17.8577 34.4359 16.6595 32.9447 15.3126 31.5152C15.3075 31.5099 15.3025 31.5047 15.2973 31.4996C13.901 30.1205 12.4446 28.8939 11.0592 27.9272L12.5332 23.6849C14.3267 24.644 16.4517 26.2829 18.4665 28.2713C20.4084 30.3339 22.009 32.5094 22.9459 34.3454L18.8021 35.8546ZM16.7948 36.5857L14.665 37.3602C13.9456 36.4236 13.1528 35.4952 12.3037 34.5952C12.2988 34.5901 12.294 34.5851 12.289 34.5802C11.4101 33.7109 10.5032 32.8992 9.58867 32.1628L10.3383 30.0021L10.6424 29.1268C11.8916 30.023 13.1972 31.1352 14.4559 32.3776C15.6691 33.6659 16.7552 35.0024 17.6305 36.2812L16.7948 36.5857ZM9.68573 39.175C8.86869 39.4718 8.22038 39.4503 7.9514 39.1178C7.92713 39.0878 7.90015 39.0602 7.87084 39.0354C7.54644 38.7617 7.52602 38.0985 7.8159 37.2618L9.16178 33.3882C9.93493 34.0273 10.7012 34.7204 11.4473 35.458C12.1673 36.2216 12.8443 37.0059 13.4682 37.7972L9.68573 39.175Z" stroke="#ED1C24" stroke-width="0.4" mask="url(#path-1-outside-1)"/>
<path d="M37.795 9.79206L37.795 9.79208C37.898 9.83498 37.9989 9.85292 38.0952 9.85292C38.4172 9.85292 38.6775 9.65146 38.7962 9.55955L38.8011 9.55574L38.8019 9.55515L40.2012 8.45132C40.2029 8.45048 40.2062 8.44896 40.2113 8.44696C40.2199 8.44363 40.2305 8.44015 40.2419 8.43704C40.2532 8.43393 40.2642 8.43151 40.2732 8.42999C40.2781 8.42917 40.2815 8.42878 40.2835 8.42859L42.0384 8.6678L42.0391 8.6679L42.0461 8.6688C42.2303 8.69257 42.7183 8.75556 43.0202 8.36128C43.3198 7.97013 43.1493 7.5124 43.084 7.3374C43.084 7.33724 43.0839 7.33708 43.0838 7.33692L42.4858 5.61669C42.4858 5.61664 42.4857 5.61658 42.4857 5.61653C42.4725 5.5779 42.4653 5.55188 42.4614 5.53551L43.225 3.83449C43.3084 3.6632 43.5207 3.22266 43.2643 2.80634L43.2643 2.80632C43.0048 2.38498 42.5216 2.39477 42.339 2.39847L42.3332 2.39859L40.5163 2.4349L39.2122 1.14004L39.212 1.13987C39.2106 1.13854 39.2093 1.13718 39.2078 1.13579C39.0873 1.01665 38.7271 0.660481 38.2409 0.793393L38.2409 0.793397C37.7557 0.926086 37.6174 1.41688 37.571 1.58171C37.5704 1.58367 37.5699 1.58558 37.5694 1.58745L37.5693 1.58743L37.5686 1.59024L37.5685 1.59073L37.5685 1.59072L37.0722 3.37827L35.4767 4.27918L35.4765 4.27928C35.4747 4.2803 35.4729 4.28134 35.471 4.28239C35.3116 4.37277 34.8923 4.61051 34.8733 5.10578L34.8733 5.1058C34.8544 5.59836 35.2548 5.87252 35.411 5.97845L36.9001 7.05609C36.9049 7.07287 36.9115 7.09987 36.919 7.14105L37.2424 8.93496C37.2702 9.12171 37.3441 9.60408 37.795 9.79206ZM37.5687 1.59006C37.569 1.58868 37.5693 1.5876 37.5694 1.58745C37.5694 1.5874 37.5694 1.58745 37.5693 1.58763L37.5687 1.59006ZM37.8387 4.58006L37.8389 4.57992C38.0302 4.47113 38.1545 4.35155 38.2397 4.22294C38.324 4.09549 38.3662 3.96454 38.3999 3.84153C38.3999 3.84148 38.3999 3.84143 38.4 3.84138L38.7291 2.65577L39.5524 3.47322L39.5528 3.4736L39.5876 3.50846C39.5876 3.50849 39.5876 3.50852 39.5877 3.50855C39.6756 3.59725 39.7746 3.68887 39.9082 3.75691C40.0431 3.8256 40.2072 3.86735 40.4233 3.86735L40.4425 3.86726L40.4431 3.86724L41.6803 3.84251L41.1707 4.97762L41.1706 4.97793C40.9747 5.41837 41.0678 5.81143 41.1646 6.09266L41.1647 6.09296L41.5343 7.15612L40.4667 7.01057C40.4665 7.01055 40.4664 7.01053 40.4663 7.01051C40.0993 6.95781 39.6447 7.08189 39.3524 7.31353L38.4966 7.98854L38.2971 6.88205L38.2971 6.88202C38.2485 6.61262 38.138 6.20169 37.7467 5.9155L37.7463 5.91521L36.7507 5.19466L37.8387 4.58006Z" fill="#ED1C24" stroke="#ED1C24" stroke-width="0.2"/>
<path d="M28.2007 7.65902L28.2001 7.65866L26.9278 6.90397C26.9277 6.90392 26.9276 6.90387 26.9275 6.90382C26.3841 6.58365 26.184 5.90085 26.4194 5.25657C26.4194 5.25651 26.4194 5.25644 26.4194 5.25638L27.6944 1.73034C27.6945 1.73029 27.6945 1.73023 27.6945 1.73018C27.8067 1.41673 28.0547 1.1682 28.3729 1.04966L28.373 1.04965C28.7279 0.917492 29.1348 0.954095 29.4629 1.14735L29.4631 1.14746L31.8036 2.53241C31.8036 2.53244 31.8037 2.53248 31.8037 2.53251C32.1318 2.72473 32.3663 3.06405 32.4331 3.4416C32.4331 3.44161 32.4331 3.44161 32.4331 3.44161M28.2007 7.65902L32.1195 4.32487C32.3117 4.08821 32.3901 3.77263 32.3346 3.45903L32.4331 3.44161M28.2007 7.65902C28.3871 7.76775 28.5905 7.82039 28.7949 7.82039C29.1843 7.82039 29.571 7.62956 29.8491 7.28306C29.8492 7.28298 29.8493 7.2829 29.8493 7.28283L32.1971 4.38791L28.2007 7.65902ZM32.4331 3.44161C32.4934 3.78233 32.4085 4.12757 32.1971 4.38786L32.4331 3.44161ZM27.741 5.73207L28.9177 2.47807L30.9511 3.68138L28.7856 6.35169L27.741 5.73207Z" fill="#ED1C24" stroke="#ED1C24" stroke-width="0.2"/>
<path d="M39.4087 12.1439L39.4087 12.1439C39.6858 11.8071 40.1089 11.6061 40.542 11.6061H44.0869C44.5204 11.6061 44.9434 11.8067 45.2203 12.1431M39.4087 12.1439L45.143 12.2067M39.4087 12.1439C39.1617 12.4441 39.0584 12.816 39.121 13.1894L39.4087 12.1439ZM45.2203 12.1431L45.143 12.2067M45.2203 12.1431C45.2203 12.1431 45.2203 12.1431 45.2203 12.1431L45.143 12.2067M45.2203 12.1431C45.4673 12.4434 45.5706 12.8156 45.5078 13.1897L45.5078 13.1896L45.4091 13.1732C45.467 12.8287 45.3725 12.4854 45.143 12.2067M44.6979 18.0528L45.5078 13.1898L44.5992 18.0364C44.4728 18.7902 43.9414 19.2961 43.2767 19.2961H41.3545C40.6898 19.2961 40.1583 18.7902 40.0321 18.0371L39.2196 13.1729L39.121 13.1895L39.9334 18.0536L39.9334 18.0537C40.0661 18.8445 40.6311 19.3961 41.3545 19.3961H43.2767C44.0001 19.3961 44.5651 18.8445 44.6979 18.0529L44.6979 18.0528ZM43.3167 17.8124C43.3087 17.8602 43.2925 17.9084 43.2741 17.942C43.268 17.9531 43.2627 17.9608 43.2586 17.9658H41.3716C41.3673 17.9603 41.3614 17.9515 41.3548 17.9386C41.3363 17.9026 41.3215 17.8537 41.3146 17.8127L40.5178 13.0419C40.5277 13.0381 40.5362 13.0365 40.5421 13.0365H44.087C44.0931 13.0365 44.1015 13.0381 44.1114 13.0417L43.3167 17.8124Z" fill="#ED1C24" stroke="#ED1C24" stroke-width="0.2"/>
<path d="M8.16545 20.1646L8.16509 20.1647C8.04622 20.1969 7.92692 20.2127 7.80918 20.2127C7.239 20.2127 6.72383 19.8454 6.45245 19.2432L6.4524 19.2431L4.43858 14.7598C4.43857 14.7598 4.43856 14.7597 4.43855 14.7597C4.28309 14.415 4.28904 14.0276 4.45222 13.6722L8.16545 20.1646ZM8.16545 20.1646L10.0199 19.6546M8.16545 20.1646L10.0199 19.6546M10.0199 19.6546C10.0199 19.6546 10.02 19.6546 10.02 19.6546C10.7209 19.4643 11.1281 18.782 11.055 17.9815C11.055 17.9815 11.055 17.9815 11.0549 17.9815L10.6077 13.0668L10.6077 13.0667M10.0199 19.6546L10.6077 13.0667M10.6077 13.0667C10.573 12.6885 10.378 12.3561 10.0619 12.1316L10.0619 12.1316M10.6077 13.0667L10.0619 12.1316M10.0619 12.1316C9.70871 11.8808 9.2496 11.8001 8.83375 11.9155M10.0619 12.1316L8.83375 11.9155M8.83375 11.9155C8.8337 11.9155 8.83366 11.9155 8.83361 11.9155M8.83375 11.9155L8.83361 11.9155M8.83361 11.9155L5.41138 12.855C5.41135 12.855 5.41132 12.855 5.41129 12.855C4.99264 12.9691 4.63482 13.2743 4.45223 13.6721L8.83361 11.9155ZM5.7726 14.237L5.7726 14.2371L5.77459 14.2365L5.77544 14.2362L9.19922 13.2964L9.19992 13.2962C9.20483 13.2948 9.21211 13.294 9.2212 13.2947L9.65973 18.1141C9.6641 18.1621 9.66069 18.2125 9.6514 18.2494C9.64816 18.2623 9.64476 18.2713 9.64204 18.277L7.81937 18.7783C7.8138 18.7741 7.80599 18.7672 7.79642 18.7567C7.76933 18.7268 7.74252 18.6834 7.72566 18.646C7.72566 18.6459 7.72566 18.6459 7.72565 18.6459L5.75038 14.2485C5.75908 14.2423 5.76688 14.2386 5.7726 14.237ZM9.65805 18.2726L9.65769 18.2727L9.65805 18.2726Z" fill="#ED1C24" stroke="#ED1C24" stroke-width="0.2"/>
<path d="M29.326 35.1529L29.326 35.1529C29.8183 34.6488 30.5685 34.628 31.1824 35.0761C31.1824 35.0761 31.1825 35.0762 31.1825 35.0762L34.8026 37.702C34.8026 37.7021 34.8027 37.7021 34.8027 37.7021L34.8028 37.7022L34.7441 37.7831C35.0118 37.9765 35.1758 38.2756 35.2048 38.6247L29.326 35.1529ZM29.326 35.1529L28.0757 36.433C28.0757 36.433 28.0757 36.433 28.0757 36.433C27.5843 36.936 27.564 37.701 27.9997 38.3265C27.9997 38.3265 27.9997 38.3266 27.9998 38.3266L30.5648 42.0335C30.5649 42.0336 30.5649 42.0336 30.5649 42.0337C30.7717 42.3337 31.0909 42.5167 31.4603 42.5492L31.4604 42.5492C31.4991 42.5526 31.5379 42.5543 31.5768 42.5543C31.9496 42.5543 32.3188 42.3992 32.5845 42.1271L32.5846 42.1271L34.893 39.7636C35.1861 39.4636 35.3395 39.0354 35.3045 38.6164L29.326 35.1529ZM29.1429 37.4994L29.1427 37.4991C29.1174 37.4628 29.1046 37.4322 29.0986 37.4115L30.2855 36.1955C30.287 36.196 30.2886 36.1965 30.2902 36.1971C30.3102 36.2044 30.3373 36.2176 30.3689 36.2407L30.3692 36.2409L33.8728 38.7822L31.624 41.0848L29.1429 37.4994Z" fill="#ED1C24" stroke="#ED1C24" stroke-width="0.2"/>
<path d="M8.61211 9.29326L8.61151 9.29334L8.6036 9.29438C8.39372 9.32191 7.90448 9.3861 7.59655 8.98386M8.61211 9.29326L7.67596 8.92307M8.61211 9.29326L10.5137 9.03283C10.5145 9.03281 10.5161 9.03281 10.5186 9.03295C10.5228 9.03318 10.5283 9.03372 10.5349 9.03469C10.5482 9.03664 10.564 9.03995 10.5801 9.04428C10.5962 9.04861 10.6113 9.05357 10.6235 9.05838C10.6337 9.06239 10.639 9.06521 10.6407 9.06615L12.1672 10.2737L12.1672 10.2737M8.61211 9.29326L12.1672 10.2737M7.59655 8.98386L7.67596 8.92307M7.59655 8.98386C7.59656 8.98386 7.59656 8.98387 7.59656 8.98387L7.67596 8.92307M7.59655 8.98386C7.29119 8.58505 7.4683 8.1124 7.53635 7.93126M7.67596 8.92307C7.40738 8.57231 7.56041 8.15157 7.63039 7.96528M7.53635 7.93126L7.53595 7.93241L7.63039 7.96528M7.53635 7.93126L8.1866 6.06293M7.53635 7.93126C7.53642 7.93107 7.53649 7.93089 7.53656 7.9307L7.53678 7.93011L7.63039 7.96528M7.63039 7.96528L8.1866 6.06293M8.1866 6.06293L8.2811 6.09562L8.18667 6.06275L8.18665 6.06279C8.20729 6.00309 8.21568 5.96749 8.21902 5.94875C8.21906 5.94855 8.21909 5.94834 8.21913 5.94814M8.1866 6.06293L7.38157 4.08526L8.21913 5.94814M8.21913 5.94814L8.2297 5.97166L8.32091 5.93066L8.22143 5.94087L8.22142 5.94073L8.22139 5.94042L8.22131 5.93964L8.22119 5.93799L8.22106 5.93534C8.22103 5.93396 8.22108 5.93343 8.22105 5.93389C8.221 5.93482 8.22069 5.93927 8.21913 5.94814ZM12.723 0.867268C12.4713 0.797806 12.2504 0.859624 12.0801 0.951744C11.9124 1.04248 11.7883 1.16556 11.7244 1.22886L11.7233 1.22996L11.7233 1.22997L10.2946 2.6469L10.2946 2.6469L10.2942 2.64737L10.2902 2.65138L8.29404 2.61235C8.29397 2.61235 8.2939 2.61235 8.29383 2.61235C8.29163 2.6123 8.28939 2.61224 8.2871 2.61219C8.09814 2.60765 7.5987 2.59567 7.33405 3.02461L12.6964 0.963664M12.723 0.867268L12.6964 0.963664M12.723 0.867268C12.723 0.867265 12.723 0.867263 12.723 0.867261L12.6964 0.963664M12.723 0.867268C12.9741 0.93652 13.1341 1.10276 13.2358 1.26895C13.3362 1.43311 13.3831 1.6029 13.4074 1.69046L13.4076 1.69144L13.3113 1.71827M12.6964 0.963664C13.1355 1.08474 13.2632 1.54428 13.3113 1.71827M13.3113 1.71827L13.4077 1.69161L13.3113 1.71827ZM12.1672 10.2737L12.1682 10.2745M12.1672 10.2737L12.1682 10.2745M12.1682 10.2745L12.1734 10.2785C12.3025 10.3781 12.5648 10.5806 12.89 10.5806C12.9877 10.5806 13.0901 10.5624 13.1949 10.519L13.1949 10.519M12.1682 10.2745L13.1949 10.519M13.1949 10.519C13.6543 10.3287 13.7318 9.82804 13.7613 9.63731L13.7614 9.63699L14.1102 7.69154C14.1102 7.69146 14.1103 7.69138 14.1103 7.69129C14.122 7.62788 14.1321 7.59207 14.1386 7.57342C14.1389 7.57279 14.1391 7.57217 14.1393 7.57158L15.7768 6.38556C15.95 6.26721 16.3533 5.99095 16.3324 5.48877L16.2325 5.49294M13.1949 10.519L16.2325 5.49294M16.2325 5.49294L16.3324 5.48877C16.3114 4.98561 15.8769 4.74133 15.7125 4.64891L15.7069 4.64578L15.7068 4.64569L16.2325 5.49294ZM13.9547 3.65543L13.9186 3.63507L13.8694 3.72213L13.9658 3.6953L13.9547 3.65543ZM12.7327 7.42952L12.5 8.72725L11.4931 7.93081L11.4927 7.93051C11.2315 7.726 10.8486 7.60319 10.5061 7.60319C10.4479 7.60319 10.3904 7.60671 10.3344 7.61415L10.334 7.6142L9.07357 7.78681L9.5073 6.54062L9.50736 6.54043C9.60919 6.24598 9.70804 5.83285 9.50227 5.37363L9.50222 5.37352L8.90962 4.05505L10.3476 4.08321C10.3476 4.08321 10.3477 4.08321 10.3477 4.08322C10.5762 4.08799 10.7481 4.0484 10.8901 3.97772C11.0305 3.90781 11.1349 3.81066 11.2307 3.71338C11.2308 3.71324 11.231 3.7131 11.2311 3.71296L12.236 2.71565L12.6216 4.09994C12.6216 4.1 12.6216 4.10005 12.6216 4.1001C12.6579 4.23228 12.7014 4.36811 12.7887 4.49918C12.8768 4.63147 13.0053 4.75302 13.2039 4.86622L13.2042 4.86641L14.467 5.58012L13.3114 6.41716C13.3114 6.41721 13.3113 6.41725 13.3112 6.4173C12.9086 6.70649 12.7906 7.11738 12.7328 7.42893L12.7327 7.42952Z" fill="#ED1C24" stroke="#ED1C24" stroke-width="0.2"/>
<path d="M43.6758 33.9966L42.2721 33.641C42.2721 33.641 42.272 33.641 42.2719 33.641C42.0504 33.5854 41.8945 33.5019 41.7751 33.3963C41.657 33.2917 41.5801 33.1703 41.5115 33.0506C41.5114 33.0506 41.5114 33.0505 41.5113 33.0505L41.4836 33.0025L41.4834 33.0021L40.7912 31.8182L40.0713 33.0501C40.0712 33.0502 40.0711 33.0503 40.071 33.0505C40.0024 33.1702 39.9256 33.2916 39.8072 33.3962C39.6876 33.5019 39.5313 33.5856 39.309 33.6413C39.3089 33.6414 39.3089 33.6414 39.3089 33.6414L37.9079 33.9962L38.8174 35.1179C38.8174 35.1179 38.8175 35.1179 38.8175 35.118L38.8175 35.118L38.7398 35.181C39.0303 35.5378 39.0405 35.9326 39.017 36.2364L43.6758 33.9966ZM43.6758 33.9966L42.766 35.1169L43.6758 33.9966ZM42.5701 37.5665L41.3933 37.0646L42.5701 37.5665ZM42.5701 37.5665L42.4659 36.2452L42.4659 36.245C42.4417 35.9318 42.4503 35.5047 42.7659 35.117L42.5701 37.5665ZM44.635 32.7657L44.6348 32.7656L42.6885 32.2726L41.6644 30.5205L41.6642 30.5203L41.6633 30.5187C41.618 30.4407 41.5302 30.2895 41.3922 30.1575C41.252 30.0234 41.0551 29.9046 40.7943 29.9039H40.794H40.794H40.794H40.794H40.794H40.794H40.794H40.794H40.794H40.794H40.794H40.794H40.794H40.794H40.794H40.7939H40.7939H40.7939H40.7939H40.7939H40.7939H40.7939H40.7939H40.7939H40.7939H40.7939H40.7939H40.7939H40.7939H40.7939H40.7939H40.7939H40.7939H40.7939H40.7939H40.7939H40.7939H40.7939H40.7939H40.7939H40.7938H40.7938H40.7938H40.7938H40.7938H40.7938H40.7938H40.7938H40.7938H40.7938H40.7938H40.7938H40.7938H40.7938H40.7938H40.7938H40.7938H40.7938H40.7938H40.7938H40.7938H40.7938H40.7938H40.7938H40.7938H40.7938H40.7937H40.7937H40.7937H40.7937H40.7937H40.7937H40.7937H40.7937H40.7937H40.7937H40.7937H40.7937H40.7937H40.7937H40.7937H40.7937H40.7937H40.7937H40.7937H40.7937H40.7937H40.7937H40.7937H40.7937H40.7937H40.7937H40.7936H40.7936H40.7936H40.7936H40.7936H40.7936H40.7936H40.7936H40.7936H40.7936H40.7936H40.7936H40.7936H40.7936H40.7936H40.7936H40.7936H40.7936H40.7936H40.7936H40.7936H40.7936H40.7936H40.7936H40.7936H40.7936H40.7935H40.7935H40.7935H40.7935H40.7935H40.7935H40.7935H40.7935H40.7935H40.7935H40.7935H40.7935H40.7935H40.7935H40.7935H40.7935H40.7935H40.7935H40.7935H40.7935H40.7935H40.7935H40.7935H40.7935H40.7935H40.7934H40.7934H40.7934H40.7934H40.7934H40.7934H40.7934H40.7934H40.7934H40.7934H40.7934H40.7934H40.7934H40.7934H40.7934H40.7934H40.7934H40.7934H40.7934H40.7934H40.7934H40.7934H40.7934H40.7934H40.7934H40.7934H40.7933H40.7933H40.7933H40.7933H40.7933H40.7933H40.7933H40.7933H40.7933H40.7933H40.7933H40.7933H40.7933H40.7933H40.7933H40.7933H40.7933H40.7933H40.7933H40.7933H40.7933H40.7933H40.7933H40.7933H40.7933H40.7932H40.7932H40.7932H40.7932H40.7932H40.7932H40.7932H40.7932H40.7932H40.7932H40.7932H40.7932H40.7932H40.7932H40.7932H40.7932H40.7932H40.7932H40.7932H40.7932H40.7932H40.7932H40.7932H40.7932H40.7932H40.7932H40.7931H40.7931H40.7931H40.7931H40.7931H40.7931H40.7931H40.7931H40.7931H40.7931H40.7931H40.7931H40.7931H40.7931H40.7931H40.7931H40.7931H40.7931H40.7931H40.7931H40.7931H40.7931H40.7931H40.7931H40.7931H40.7931H40.793H40.793H40.793H40.793H40.793H40.793H40.793H40.793H40.793H40.793H40.793H40.793H40.793H40.793H40.793H40.793H40.793H40.793H40.793H40.793H40.793H40.793H40.793H40.793H40.793H40.793H40.7929H40.7929H40.7929H40.7929H40.7929H40.7929H40.7929H40.7929H40.7929H40.7929H40.7929H40.7929H40.7929H40.7929H40.7929H40.7929H40.7929H40.7929H40.7929H40.7929H40.7929H40.7929H40.7929H40.7929H40.7929H40.7929H40.7928H40.7928H40.7928H40.7928H40.7928H40.7928H40.7928H40.7928H40.7928H40.7928H40.7928H40.7928H40.7928H40.7928H40.7928H40.7928H40.7928H40.7928H40.7928H40.7928H40.7928H40.7928H40.7928H40.7928H40.7928H40.7927H40.7927H40.7927H40.7927H40.7927H40.7927H40.7927H40.7927H40.7927H40.7927H40.7927H40.7927H40.7927H40.7927H40.7927H40.7927H40.7927H40.7927H40.7927H40.7927H40.7927H40.7927H40.7927H40.7927H40.7926H40.7926H40.7926H40.7926H40.7926H40.7926H40.7926H40.7926H40.7926H40.7926H40.7926H40.7926H40.7926H40.7926H40.7926H40.7926H40.7926H40.7926H40.7926H40.7926H40.7926H40.7925H40.7925H40.7925H40.7925H40.7925H40.7925H40.7925H40.7925H40.7925H40.7925H40.7925H40.7925H40.7925H40.7925H40.7925H40.7925H40.7925H40.7924H40.7924H40.7924H40.7924H40.7924H40.7924H40.7924H40.7924H40.7924H40.7924H40.7924H40.7924H40.7924H40.7924H40.7924H40.7923H40.7923H40.7923H40.7923H40.7923H40.7923H40.7923H40.7923H40.7923H40.7923H40.7923H40.7923H40.7923H40.7923H40.7923H40.7923H40.7923H40.7923H40.7922H40.7922H40.7922H40.7922H40.7922H40.7922H40.7922H40.7922H40.7922H40.7922H40.7922H40.7922H40.7922H40.7922H40.7922H40.7921H40.7921H40.7921H40.7921H40.7921H40.7921H40.7921H40.7921H40.7921H40.7921C40.5319 29.9039 40.3347 30.022 40.194 30.1555C40.0589 30.2837 39.9712 30.4304 39.9245 30.5098L39.9245 30.5097L39.9201 30.5174L39.9198 30.5172L39.9182 30.5206L38.8966 32.268L38.8964 32.2684L38.8939 32.2727L36.9464 32.7659L36.9462 32.766C36.944 32.7665 36.9418 32.7671 36.9396 32.7677C36.7563 32.8145 36.274 32.9378 36.1282 33.4192C35.9832 33.8979 36.3027 34.27 36.4411 34.4303L37.7227 36.0103C37.724 36.0278 37.7251 36.0646 37.7199 36.1312L37.5662 38.11C37.5454 38.3037 37.4931 38.805 37.8866 39.1106C38.2847 39.4198 38.7431 39.23 38.9422 39.1476L38.9498 39.1444L38.9509 39.144L40.7246 38.3865C40.7254 38.3863 40.7269 38.3859 40.7292 38.3854C40.7332 38.3845 40.7385 38.3836 40.745 38.3828C40.7582 38.3812 40.7741 38.3802 40.7906 38.3801C40.8072 38.38 40.8231 38.3809 40.8362 38.3824C40.8477 38.3837 40.8539 38.3852 40.8559 38.3857L42.6392 39.1462L42.64 39.1466L42.6435 39.148C42.7587 39.196 42.9639 39.2814 43.1929 39.2814C43.3551 39.2814 43.5301 39.2388 43.694 39.1126C44.0897 38.8078 44.0383 38.3039 44.0188 38.1118L44.0187 38.1116L43.8626 36.1315C43.8626 36.1315 43.8626 36.1314 43.8626 36.1314C43.8578 36.0685 43.8584 36.0318 43.8598 36.0124C43.8598 36.0119 43.8598 36.0115 43.8599 36.0111L45.1437 34.4304C45.2818 34.2704 45.6008 33.899 45.4557 33.4199C45.3098 32.9381 44.8262 32.8145 44.6416 32.7673L44.635 32.7657ZM40.1897 37.0645L39.014 37.5666L41.3932 37.0646C41.0334 36.9107 40.5541 36.9105 40.19 37.0643L40.1897 37.0645Z" fill="#ED1C24" stroke="#ED1C24" stroke-width="0.2"/>
</g>
<defs>
<clipPath id="clip0">
<rect width="49" height="42" fill="white" transform="translate(0.425781 0.65918)"/>
</clipPath>
</defs>
</svg>
