<svg width="55" height="40" viewBox="0 0 55 40" fill="none" xmlns="http://www.w3.org/2000/svg">
<path fill-rule="evenodd" clip-rule="evenodd" d="M10.0051 0.285699C9.32779 -0.0187093 8.55735 -0.0416375 7.86318 0.221957C7.16901 0.485552 6.60797 1.01408 6.30346 1.6913L0.247056 15.1397C-0.0577093 15.8163 -0.0814471 16.5861 0.181057 17.2802C0.443562 17.9743 0.970839 18.5357 1.64706 18.8413L5.81906 20.7201C6.15421 20.8714 6.5159 20.9553 6.88345 20.9668C7.25101 20.9784 7.61725 20.9174 7.96124 20.7874C8.30523 20.6574 8.62025 20.4609 8.8883 20.2091C9.15634 19.9574 9.37217 19.6553 9.52346 19.3201L15.5799 5.8689C15.8846 5.19233 15.9084 4.42245 15.6459 3.72839C15.3834 3.03432 14.8561 2.47285 14.1799 2.1673L10.0051 0.285699ZM5.04066 16.8841C5.269 16.9871 5.51538 17.044 5.76574 17.0518C6.01611 17.0595 6.26554 17.0178 6.4998 16.9292C6.73407 16.8405 6.94857 16.7066 7.13107 16.535C7.31358 16.3635 7.4605 16.1576 7.56346 15.9293C7.66641 15.701 7.72339 15.4546 7.73112 15.2042C7.73886 14.9538 7.69721 14.7044 7.60855 14.4702C7.51988 14.2359 7.38595 14.0214 7.21439 13.8389C7.04283 13.6564 6.837 13.5095 6.60866 13.4065C6.1475 13.1986 5.62263 13.1823 5.14951 13.3614C4.67639 13.5405 4.29379 13.9001 4.08586 14.3613C3.87793 14.8225 3.86171 15.3473 4.04077 15.8204C4.21983 16.2936 4.5795 16.6762 5.04066 16.8841ZM53.0383 19.2081C53.3821 19.0776 53.6968 18.8807 53.9645 18.6285C54.2322 18.3763 54.4476 18.0739 54.5985 17.7385C54.7493 17.4031 54.8325 17.0412 54.8435 16.6736C54.8544 16.306 54.7928 15.9399 54.6623 15.5961L49.4403 1.8089C49.31 1.46482 49.1133 1.14978 48.8612 0.881776C48.6092 0.613775 48.3068 0.39807 47.9714 0.24699C47.6359 0.0959099 47.274 0.0124171 46.9063 0.00128272C46.5385 -0.00985164 46.1722 0.0515911 45.8283 0.182099L41.5527 1.8033C41.2088 1.93379 40.8941 2.13074 40.6264 2.3829C40.3587 2.63506 40.1433 2.93748 39.9925 3.2729C39.8416 3.60831 39.7584 3.97015 39.7474 4.33775C39.7365 4.70535 39.7981 5.0715 39.9287 5.4153L45.1535 19.2053C45.4165 19.8995 45.9444 20.4609 46.6212 20.7659C47.298 21.071 48.0683 21.0948 48.7627 20.8321L53.0383 19.2081ZM44.8147 3.9621C44.5804 4.0509 44.366 4.18496 44.1836 4.35664C44.0012 4.52831 43.8543 4.73424 43.7515 4.96265C43.6487 5.19106 43.5919 5.43749 43.5843 5.68787C43.5767 5.93825 43.6185 6.18767 43.7073 6.4219C43.7961 6.65612 43.9301 6.87056 44.1018 7.05298C44.2735 7.23539 44.4794 7.38221 44.7078 7.48504C44.9362 7.58787 45.1827 7.64471 45.433 7.6523C45.6834 7.65989 45.9328 7.6181 46.1671 7.5293C46.6401 7.34996 47.0225 6.99005 47.2302 6.52875C47.4379 6.06745 47.4538 5.54254 47.2745 5.0695C47.0951 4.59646 46.7352 4.21404 46.2739 4.00636C45.8126 3.79868 45.2877 3.78276 44.8147 3.9621Z" fill="#ED1C24"/>
<path fill-rule="evenodd" clip-rule="evenodd" d="M41.4743 4.81253H41.4967C41.68 4.79653 41.8584 4.74459 42.0216 4.65967C42.1848 4.57475 42.3297 4.45851 42.448 4.31758C42.5663 4.17666 42.6557 4.01382 42.7111 3.83835C42.7664 3.66288 42.7867 3.47823 42.7707 3.29493C42.7547 3.11163 42.7028 2.93328 42.6179 2.77005C42.5329 2.60683 42.4167 2.46193 42.2758 2.34362C42.1348 2.22532 41.972 2.13594 41.7965 2.08057C41.6211 2.0252 41.4364 2.00493 41.2531 2.02093H41.2307L41.1579 2.02933L40.8863 2.05733L39.8979 2.15253C39.0663 2.23653 37.9155 2.36813 36.6443 2.53613C34.1383 2.86653 31.0331 3.37053 29.0003 4.04813C28.0147 4.37573 26.9731 5.01133 25.9763 5.73933C24.9655 6.47853 23.9183 7.37733 22.9159 8.30973C21.1368 9.98773 19.4372 11.7481 17.8227 13.5849C16.6495 14.9121 16.3779 17.0289 17.7555 18.5297C18.6515 19.4985 20.0515 20.7249 21.8659 21.2737C23.7615 21.8421 25.9455 21.6209 28.1771 19.9633L30.9743 18.1573L31.0247 18.1265C31.4251 18.3701 31.9823 18.7901 32.6487 19.3473C33.3767 19.9577 34.1663 20.6773 34.9027 21.3689C35.7385 22.1567 36.56 22.9595 37.3667 23.7769L37.5207 23.9365L37.5599 23.9757L37.5739 23.9897L37.7391 24.1577L37.9491 24.2669C39.0775 24.8269 40.3179 24.6253 41.2811 24.3005C42.2835 23.9645 43.2803 23.3933 44.1287 22.8305C45.191 22.1157 46.1972 21.321 47.1387 20.4533L47.1891 20.4085L47.2031 20.3945L47.2059 20.3917C47.2059 20.3917 46.9595 19.5237 45.9963 18.5101L45.2375 19.4621L44.5963 21.3129L37.5739 23.9897L38.9963 22.7129L38.2459 20.7053C37.7765 20.2431 37.3024 19.7857 36.8235 19.3333C36.0675 18.6221 35.2331 17.8633 34.4435 17.2053C33.6791 16.5613 32.8839 15.9509 32.2203 15.5869C31.1171 14.9821 30.0363 15.4301 29.4539 15.8081L26.5755 17.6673L26.5363 17.6953C24.9823 18.8601 23.7055 18.9049 22.6723 18.5941C21.5523 18.2581 20.5583 17.4405 19.8163 16.6341C19.5839 16.3821 19.5167 15.8977 19.9199 15.4413C21.4741 13.6719 23.1102 11.976 24.8227 10.3593C25.7775 9.47173 26.7351 8.65133 27.6283 7.99893C28.5411 7.33253 29.3083 6.89853 29.8879 6.70533C31.6351 6.12293 34.4939 5.64413 37.0111 5.31093C38.3876 5.13005 39.7673 4.97416 41.1495 4.84333L41.4099 4.81813L41.4743 4.81253Z" fill="#ED1C24"/>
<path d="M39.3517 21.8101C38.986 21.4394 38.6173 21.0717 38.2457 20.7069L38.9961 22.7145L37.5737 23.9941L44.5961 21.3145L45.2373 19.4665L45.9961 18.5145L45.2821 18.3633L45.2737 18.3689L45.2345 18.4053L45.0833 18.5453C44.2954 19.2562 43.458 19.9103 42.5773 20.5025C41.8213 21.0065 41.0569 21.4265 40.3849 21.6505C39.8641 21.8269 39.5393 21.8409 39.3517 21.8101Z" fill="#ED1C24"/>
<path fill-rule="evenodd" clip-rule="evenodd" d="M13.9279 7.50323L13.3763 6.21523L12.8247 4.92723L12.9367 4.88243L13.2531 4.74803C14.8055 4.08891 16.3642 3.44488 17.9291 2.81603C19.2001 2.3032 20.4808 1.81498 21.7707 1.35163C22.3391 1.15003 22.8683 0.976434 23.3107 0.850434C23.6915 0.738434 24.1787 0.615234 24.5763 0.615234C24.9403 0.615234 25.3239 0.699234 25.6403 0.783234C25.9819 0.875634 26.3571 0.998834 26.7379 1.13883C27.5051 1.41883 28.3703 1.78283 29.1711 2.13563C30.1051 2.55303 31.0311 2.98804 31.9487 3.44043L32.1335 3.53003L32.1839 3.55523L32.2007 3.56363C32.533 3.72961 32.7858 4.02079 32.9034 4.37314C33.021 4.72548 32.9939 5.11012 32.8279 5.44243C32.6619 5.77475 32.3707 6.02752 32.0184 6.14515C31.666 6.26277 31.2814 6.23561 30.9491 6.06963L30.9351 6.06123L30.8903 6.03883L30.7167 5.95483C29.8294 5.51852 28.9342 5.09845 28.0315 4.69483C27.2925 4.36189 26.5426 4.05372 25.7831 3.77083C25.4986 3.66583 25.21 3.57242 24.9179 3.49083C24.8084 3.45982 24.6971 3.43551 24.5847 3.41803L24.5595 3.42363C24.5035 3.43203 24.3551 3.46283 24.0779 3.54123C23.6145 3.67826 23.1551 3.82859 22.7003 3.99203C21.6139 4.37563 20.2783 4.89363 18.9707 5.41723C17.4233 6.037 15.8823 6.67264 14.3479 7.32403L14.0371 7.45563L13.9279 7.50323ZM12.0883 6.76683C11.9426 6.42559 11.9383 6.04044 12.0763 5.69603C12.2144 5.35161 12.4836 5.0761 12.8247 4.93003L13.3763 6.21803L13.9279 7.50323C13.7588 7.57583 13.577 7.61436 13.393 7.61663C13.2089 7.6189 13.0263 7.58487 12.8554 7.51647C12.6845 7.44807 12.5288 7.34666 12.3972 7.21803C12.2656 7.0894 12.1606 6.93607 12.0883 6.76683ZM6.75989 17.8548C6.88617 17.7211 7.03756 17.6136 7.2054 17.5384C7.37324 17.4633 7.55425 17.4219 7.73809 17.4167C7.92192 17.4115 8.10498 17.4426 8.27681 17.5081C8.44863 17.5737 8.60585 17.6725 8.73949 17.7988L7.77629 18.8152L6.81589 19.8344C6.68219 19.7082 6.57468 19.5568 6.4995 19.3889C6.42433 19.2211 6.38296 19.0401 6.37776 18.8562C6.37256 18.6724 6.40363 18.4893 6.4692 18.3175C6.53476 18.1457 6.63354 17.9885 6.75989 17.8548ZM19.5559 27.3384L27.2923 30.2392C28.0473 30.5221 28.8677 30.5817 29.6557 30.4109C30.4437 30.2401 31.1658 29.8462 31.7359 29.276L37.5879 23.424C37.8508 23.1615 38.2072 23.0142 38.5787 23.0145C38.9502 23.0147 39.3064 23.1626 39.5689 23.4254C39.8314 23.6883 39.9787 24.0447 39.9785 24.4162C39.9782 24.7877 39.8304 25.1439 39.5675 25.4064L33.7155 31.2584C32.7649 32.208 31.5612 32.8639 30.2479 33.1479C28.9347 33.4319 27.5675 33.332 26.3095 32.86L18.4135 29.9004L18.3491 29.8696C17.921 29.633 17.5144 29.3594 17.1339 29.052C16.6803 28.702 16.1483 28.268 15.5743 27.778C14.2891 26.6792 13.0215 25.56 11.7719 24.4208C10.245 23.0339 8.73018 21.6339 7.22749 20.2208L6.92229 19.9352L6.81589 19.8344L7.77629 18.8152L8.73949 17.7988L8.84309 17.8968L9.14269 18.1796C10.6338 19.5809 12.1365 20.9697 13.6507 22.346C14.9387 23.5136 16.2687 24.698 17.3831 25.6444C17.9431 26.1176 18.4387 26.5208 18.8391 26.8316C19.2087 27.1144 19.4411 27.2712 19.5559 27.3356M10.0723 33.3192C10.3103 33.0354 10.6511 32.8575 11.0201 32.8244C11.389 32.7914 11.756 32.9059 12.0407 33.1428L14.7259 35.3828C15.3276 35.8852 16.058 36.2092 16.8343 36.318L20.2951 36.8052C20.4813 36.8257 20.6615 36.8832 20.825 36.9745C20.9885 37.0659 21.1321 37.189 21.2471 37.3368C21.3622 37.4846 21.4464 37.654 21.4949 37.8349C21.5433 38.0159 21.5549 38.2047 21.5291 38.3902C21.5032 38.5757 21.4404 38.7541 21.3443 38.9149C21.2483 39.0757 21.1209 39.2156 20.9698 39.3263C20.8187 39.4369 20.647 39.5162 20.4647 39.5593C20.2824 39.6024 20.0934 39.6085 19.9087 39.5772L16.4451 39.0928C15.1512 38.9111 13.9339 38.3709 12.9311 37.5332L10.2459 35.2932C10.1045 35.1753 9.98783 35.0307 9.90244 34.8676C9.81706 34.7045 9.76467 34.5262 9.74829 34.3428C9.7319 34.1595 9.75184 33.9747 9.80695 33.799C9.86207 33.6234 9.95128 33.4604 10.0695 33.3192" fill="#ED1C24"/>
</svg>
