<svg width="44" height="43" viewBox="0 0 44 43" fill="none" xmlns="http://www.w3.org/2000/svg">
<path d="M40.1897 24.7082C41.353 23.6882 42.1721 22.3473 42.5387 20.8628C42.9052 19.3784 42.8019 17.8203 42.2426 16.3943C41.6832 14.9684 40.694 13.7419 39.4057 12.8768C38.1174 12.0117 36.5907 11.5488 35.0273 11.5492C34.4479 11.5492 33.8701 11.6118 33.3047 11.7359C33.1194 10.0322 32.3461 8.44073 31.1119 7.22325C29.8777 6.00576 28.2561 5.2347 26.5137 5.03684C24.7714 4.83897 23.0119 5.22608 21.5247 6.13451C20.0374 7.04295 18.9109 8.41864 18.3303 10.0354C18.3063 10.1021 18.2832 10.1692 18.261 10.2367H10.168C7.76321 10.2394 5.45773 11.1736 3.75731 12.8345C2.05689 14.4954 1.10039 16.7472 1.09766 19.0961V25.6586C1.09955 27.3115 1.77263 28.8961 2.96923 30.0649C4.16583 31.2337 5.78822 31.8911 7.48047 31.8929H10.3616C10.8206 32.4157 11.3508 32.8745 11.9374 33.2566C12.1897 34.7091 12.9598 36.0277 14.1115 36.9791C15.2631 37.9305 16.7221 38.4534 18.2305 38.4554H35.0273C35.5114 38.4554 35.9883 38.3418 36.4181 38.1242C36.8479 37.9067 37.2179 37.5916 37.4971 37.2054C37.7763 36.8191 37.9565 36.3731 38.0225 35.9047C38.0885 35.4363 38.0385 34.9593 37.8766 34.5138C38.3555 34.4887 38.8215 34.3528 39.236 34.1171C39.6504 33.8814 40.0016 33.5528 40.2604 33.1585C40.5192 32.7641 40.6782 32.3152 40.7244 31.8489C40.7705 31.3826 40.7024 30.9123 40.5257 30.4768C41.1944 30.2991 41.7803 29.9024 42.1853 29.3532C42.5903 28.8039 42.7899 28.1354 42.7505 27.4596C42.7111 26.7838 42.4353 26.1417 41.9691 25.6409C41.503 25.14 40.8748 24.8107 40.1898 24.7082H40.1897ZM31.3302 12.462C30.3575 12.9817 29.5105 13.6994 28.8466 14.5667C28.6883 14.7756 28.621 15.0371 28.6593 15.2943C28.6976 15.5514 28.8385 15.7834 29.0513 15.9395C29.264 16.0955 29.5313 16.1631 29.7948 16.1275C30.0584 16.0919 30.2968 15.9559 30.4581 15.7492C31.0296 15.0017 31.7842 14.4063 32.6526 14.0178C33.3996 13.6905 34.2086 13.5202 35.0273 13.518C36.1321 13.5175 37.2133 13.8301 38.1397 14.418C39.0662 15.0058 39.7981 15.8436 40.2466 16.8298C40.6952 17.8159 40.8411 18.908 40.6667 19.9735C40.4924 21.0391 40.0052 22.0323 39.2643 22.8328C39.0753 22.2269 38.6922 21.6963 38.1714 21.3189C37.6506 20.9416 37.0195 20.7375 36.3711 20.7367H33.0842C33.2046 20.5624 33.3131 20.3807 33.4092 20.1926C33.7872 19.4416 33.9954 18.62 34.0195 17.7836C34.0195 17.5225 33.9134 17.2721 33.7243 17.0875C33.5354 16.9029 33.279 16.7992 33.0117 16.7992H20.918C18.5132 16.8019 16.2077 17.7361 14.5073 19.397C12.8069 21.0579 11.8504 23.3097 11.8477 25.6586V30.5617C10.9817 29.5563 10.5059 28.285 10.5039 26.9711C10.5442 26.0204 11.0003 24.6461 9.49609 24.6742C9.05561 24.6742 8.62044 24.5802 8.22104 24.3987C7.82165 24.2173 7.46766 23.9528 7.18386 23.6237C6.90006 23.2947 6.6933 22.9091 6.57804 22.4938C6.46278 22.0786 6.4418 21.6437 6.51659 21.2197C6.59137 20.7957 6.7601 20.3928 7.01097 20.0392C7.26184 19.6855 7.5888 19.3897 7.96896 19.1724C8.34913 18.955 8.77331 18.8215 9.21185 18.781C9.65038 18.7406 10.0927 18.7942 10.5078 18.9382C11.2505 19.2135 11.9881 18.5198 11.8477 17.7836C11.8494 16.3047 12.4516 14.8868 13.5222 13.8411C14.5929 12.7954 16.0445 12.2071 17.5586 12.2055C17.6729 12.2055 17.7874 12.2096 17.9018 12.2164C17.8974 12.3217 17.8945 12.4273 17.8945 12.5336C17.8924 13.5726 18.1115 14.6008 18.5379 15.5527C19.0518 16.7345 20.924 15.9237 20.3849 14.7644C20.07 14.061 19.9084 13.3013 19.9102 12.5336C19.9099 11.801 20.0574 11.0755 20.3443 10.3986C20.6312 9.72171 21.0519 9.10667 21.5822 8.58864C22.1126 8.07061 22.7423 7.65974 23.4353 7.37951C24.1283 7.09928 24.871 6.95518 25.6211 6.95545C27.1223 6.95725 28.5626 7.53578 29.6308 8.56608C30.699 9.59639 31.3094 10.9958 31.3302 12.462ZM7.48047 29.9242C6.32262 29.9229 5.21257 29.4731 4.39385 28.6734C3.57513 27.8737 3.11459 26.7895 3.11328 25.6586V19.0961C3.1155 17.2692 3.85948 15.5178 5.18201 14.2261C6.50454 12.9343 8.29763 12.2076 10.168 12.2055H12.3617C11.0057 13.4073 10.1315 15.041 9.89544 16.8145C9.76302 16.8043 9.62991 16.7992 9.49609 16.7992C8.24578 16.7985 7.03985 17.2519 6.11267 18.0712C5.18549 18.8905 4.60327 20.0173 4.47915 21.2325C4.35503 22.4477 4.69788 23.6646 5.44108 24.6467C6.18427 25.6287 7.27473 26.3059 8.50054 26.5465C8.49237 26.688 8.48828 26.8295 8.48828 26.9711C8.4889 27.9862 8.69976 28.9907 9.10817 29.9242H7.48047ZM39.7305 28.6117H28.3086C28.0413 28.6117 27.785 28.7154 27.596 28.9C27.407 29.0846 27.3008 29.335 27.3008 29.5961C27.3008 29.8571 27.407 30.1075 27.596 30.2921C27.785 30.4767 28.0413 30.5804 28.3086 30.5804H37.7148C37.9821 30.5804 38.2385 30.6842 38.4275 30.8688C38.6165 31.0534 38.7227 31.3038 38.7227 31.5648C38.7227 31.8259 38.6165 32.0763 38.4275 32.2609C38.2385 32.4455 37.9821 32.5492 37.7148 32.5492H28.3086C28.0413 32.5492 27.785 32.6529 27.596 32.8375C27.407 33.0221 27.3008 33.2725 27.3008 33.5336C27.3008 33.7946 27.407 34.045 27.596 34.2296C27.785 34.4142 28.0413 34.5179 28.3086 34.5179H35.0273C35.2946 34.5179 35.551 34.6217 35.74 34.8063C35.929 34.9909 36.0352 35.2413 36.0352 35.5023C36.0352 35.7634 35.929 36.0138 35.74 36.1984C35.551 36.383 35.2946 36.4867 35.0273 36.4867H18.2305C17.0726 36.4854 15.9626 36.0356 15.1438 35.2359C14.3251 34.4362 13.8646 33.352 13.8633 32.2211V25.6586C13.8655 23.8317 14.6095 22.0803 15.932 20.7886C17.2545 19.4968 19.0476 18.7701 20.918 18.768H31.8268C31.7689 18.955 31.6952 19.137 31.6064 19.3121C31.1157 20.2707 30.257 20.7367 28.9805 20.7367H26.293C26.0257 20.7367 25.7693 20.8404 25.5803 21.025C25.3913 21.2096 25.2852 21.46 25.2852 21.7211C25.2852 21.9821 25.3913 22.2325 25.5803 22.4171C25.7693 22.6017 26.0257 22.7055 26.293 22.7055H36.3711C36.6384 22.7055 36.8947 22.8092 37.0837 22.9938C37.2727 23.1784 37.3789 23.4288 37.3789 23.6898C37.3789 23.9509 37.2727 24.2013 37.0837 24.3859C36.8947 24.5705 36.6384 24.6742 36.3711 24.6742H28.3086C28.0413 24.6742 27.785 24.7779 27.596 24.9625C27.407 25.1471 27.3008 25.3975 27.3008 25.6586C27.3008 25.9196 27.407 26.17 27.596 26.3546C27.785 26.5392 28.0413 26.643 28.3086 26.643H39.7305C39.9978 26.643 40.2541 26.7467 40.4431 26.9313C40.6321 27.1159 40.7383 27.3663 40.7383 27.6273C40.7383 27.8884 40.6321 28.1388 40.4431 28.3234C40.2541 28.508 39.9978 28.6117 39.7305 28.6117Z" fill="#ED1C24"/>
</svg>
