<?xml version="1.0" encoding="UTF-8"?>
<!DOCTYPE svg PUBLIC "-//W3C//DTD SVG 1.1//EN" "http://www.w3.org/Graphics/SVG/1.1/DTD/svg11.dtd">
<!-- Creator: CorelDRAW 2020 (64-Bit) -->
<svg xmlns="http://www.w3.org/2000/svg" xml:space="preserve" width="51.7559mm" height="51.8593mm" version="1.1" style="shape-rendering:geometricPrecision; text-rendering:geometricPrecision; image-rendering:optimizeQuality; fill-rule:evenodd; clip-rule:evenodd"
viewBox="0 0 4952.16 4962.05"
 xmlns:xlink="http://www.w3.org/1999/xlink"
 xmlns:xodm="http://www.corel.com/coreldraw/odm/2003">
 <defs>
  <style type="text/css">
   <![CDATA[
    .str0 {stroke:#ED1C24;stroke-width:5.06;stroke-miterlimit:22.9256}
    .fil1 {fill:none;fill-rule:nonzero}
    .fil0 {fill:#ED1C24;fill-rule:nonzero}
    .fil2 {fill:white;fill-rule:nonzero}
   ]]>
  </style>
 </defs>
 <g id="Layer_x0020_1">
  <metadata id="CorelCorpID_0Corel-Layer"/>
  <g id="_2446687527024">
   <path class="fil0 str0" d="M1301.22 941.38l0 0c0,185.71 55.16,367.22 158.46,521.62 103.26,154.39 250.12,274.75 421.86,345.81 171.79,71.04 360.82,89.65 543.16,53.43 182.34,-36.23 349.87,-125.65 481.36,-256.96 131.45,-131.3 221.01,-298.6 257.28,-480.71 36.27,-182.15 17.66,-370.91 -53.53,-542.46 -71.14,-171.6 -191.64,-318.18 -346.23,-421.34 -154.59,-103.17 -336.36,-158.23 -522.27,-158.23l-0.05 0c-249.24,0.28 -488.14,99.28 -664.37,275.27 -176.27,176.04 -275.41,414.66 -275.69,663.57zm1665.61 0c0,143.31 -42.54,283.4 -122.24,402.56 -79.74,119.14 -193.05,212.02 -325.62,266.86 -132.61,54.87 -278.49,69.18 -419.24,41.23 -140.75,-27.96 -270,-96.95 -371.47,-198.29 -101.48,-101.34 -170.57,-230.44 -198.57,-371 -28,-140.56 -13.61,-286.21 41.28,-418.63 54.92,-132.38 147.95,-245.54 267.23,-325.15 119.34,-79.65 259.61,-122.14 403.11,-122.14 192.35,0.23 376.75,76.66 512.77,212.49 136.02,135.84 212.55,320.01 212.73,512.08z"/>
   <path class="fil0 str0" d="M2348.61 488.16l66.28 0c28.42,0 55.72,11.26 75.82,31.36 20.14,20.1 31.41,47.35 31.41,75.77 0,28.42 -11.27,55.67 -31.41,75.77 -20.1,20.09 -47.4,31.36 -75.82,31.36l-219.98 0c-8.83,-0.24 -17.62,1.31 -25.84,4.54 -8.23,3.22 -15.71,8.04 -22.02,14.21 -6.32,6.12 -11.37,13.46 -14.77,21.6 -3.46,8.13 -5.19,16.82 -5.19,25.66 0,8.78 1.72,17.53 5.19,25.66 3.41,8.09 8.46,15.47 14.77,21.6 6.31,6.17 13.79,10.98 22.02,14.21 8.22,3.18 17.01,4.72 25.84,4.49l0.33 0 0 0 92.18 0 0.05 0c69.83,0.1 137.09,26.26 188.71,73.29 51.55,47.07 83.67,111.67 90.07,181.13 6.41,69.47 -13.41,138.83 -55.57,194.46 -40.01,52.91 -97.51,89.84 -162.06,104.33l0 45.99c0,28.42 -11.31,55.67 -31.41,75.77 -20.15,20.06 -47.4,31.36 -75.87,31.36 -28.42,0 -55.72,-11.31 -75.87,-31.36 -20.09,-20.1 -31.41,-47.35 -31.41,-75.77l0 -38.9 -66.28 0c-28.42,0 -55.72,-11.26 -75.82,-31.36 -20.09,-20.09 -31.41,-47.34 -31.41,-75.77 0,-28.42 11.32,-55.67 31.41,-75.77 20.1,-20.09 47.4,-31.36 75.82,-31.36l219.65 0c8.7,0 17.3,-1.72 25.34,-5.04 7.99,-3.32 15.28,-8.18 21.4,-14.3 6.17,-6.12 11.03,-13.41 14.35,-21.41 3.32,-7.99 5,-16.59 5,-25.24 0,-8.69 -1.68,-17.24 -5,-25.24 -3.32,-8.04 -8.18,-15.28 -14.35,-21.4 -6.12,-6.17 -13.41,-11.03 -21.4,-14.35 -8.04,-3.27 -16.64,-5 -25.34,-5l-92.18 0c-69.74,0 -137.24,-26.31 -188.74,-73.29 -51.56,-47.07 -83.67,-111.66 -90.03,-181.13 -6.41,-69.46 13.41,-138.83 55.52,-194.46 40.01,-52.91 97.51,-89.84 162.06,-104.32l0 -46c0.05,-28.47 11.37,-55.62 31.41,-75.68 20.15,-20.09 47.45,-31.41 75.87,-31.41 28.47,0 55.72,11.32 75.87,31.41 20.1,20.06 31.41,47.35 31.41,75.77l0 38.85z"/>
   <line class="fil1 str0" x1="916.76" y1="1414.45" x2="908.27" y2= "1406.01" />
   <polygon class="fil0 str0" points="916.76,1414.45 908.27,1405.98 908.27,1406.01 "/>
   <path class="fil0 str0" d="M4919.08 2350.98c9.71,9.66 17.39,21.15 22.6,33.77 5.27,12.61 7.94,26.14 7.94,39.79 0,13.66 -2.67,27.23 -7.94,39.85 -5.21,12.61 -12.89,24.09 -22.6,33.72l-1256.25 1254.62c-46.47,46.69 -101.8,83.73 -162.7,108.96 -60.95,25.18 -126.25,38.07 -192.2,37.89l-980.91 0 0 0c-13.98,-0.05 -27.82,2.68 -40.7,8.04 -12.94,5.31 -24.65,13.16 -34.49,23.05l0 0 -313.55 313.1 72.88 72.75c19.52,19.56 30.46,45.98 30.46,73.56 0,27.64 -10.96,54.07 -30.5,73.62 -155.33,155.1 -310.66,310.21 -466,465.32 -9.66,9.66 -21.15,17.33 -33.76,22.6 -12.62,5.21 -26.19,7.89 -39.85,7.89 -13.7,0 -27.23,-2.68 -39.84,-7.89 -12.61,-5.26 -24.1,-12.94 -33.77,-22.6l-1364.81 -1362.99c-9.66,-9.63 -17.34,-21.11 -22.6,-33.73 -5.21,-12.61 -7.94,-26.14 -7.94,-39.79 0,-13.66 2.73,-27.23 7.94,-39.85 5.26,-12.61 12.94,-24.05 22.6,-33.72l466 -465.4c19.52,-19.47 46.02,-30.46 73.61,-30.46 27.62,0 54.09,10.97 73.66,30.46l91.85 91.76 726.3 -709.58c35.76,-35.89 87.7,-71.28 134.59,-90.66 46.84,-19.39 97.07,-29.32 147.79,-29.18l1189.92 0c122.4,0 239.81,48.43 326.49,134.69 80.06,79.65 127.94,185.62 135.15,297.62l297.55 -297.21c162.33,-161.74 382.25,-252.6 611.57,-252.6 229.28,0 449.25,90.86 611.54,252.6z"/>
   <polygon class="fil2 str0" points="1457.68,4703.98 240.18,3488.11 558.91,3169.66 1776.55,4385.7 "/>
   <path class="fil2 str0" d="M3417.05 3635.55l1290.8 -1251.24c-124.49,-89.67 -276.61,-133.06 -430.06,-122.45 -158.02,10.95 -306.79,78.47 -418.88,190.21l-612.13 611.31 -8.49 -8.53 8.49 8.53c-19.56,19.52 -46.06,30.46 -73.66,30.49l-0.05 0 -817.26 0c-27.59,0 -54.1,-10.97 -73.62,-30.49 -19.56,-19.51 -30.49,-45.98 -30.49,-73.56 0,-27.59 10.94,-54.05 30.49,-73.57 19.52,-19.52 46.02,-30.46 73.62,-30.46l581.31 0 0.22 0 0 0c65.13,1.41 128.48,-21.15 178,-63.44 49.42,-42.21 81.6,-101.12 90.32,-165.51 3.49,-35.22 -0.46,-70.81 -11.53,-104.48 -11.12,-33.67 -29.18,-64.67 -53.01,-90.99 -23.87,-26.32 -52.96,-47.33 -85.42,-61.73 -32.49,-14.38 -67.67,-21.83 -103.16,-21.83l-1189.94 0 -0.05 0c-24.92,-0.05 -49.6,4.81 -72.61,14.34 -23.05,9.53 -43.98,23.51 -61.54,41.16l0 0 -719.23 718.32 897.54 898.87 313.42 -313.01c29.14,-29.27 63.85,-52.51 102.07,-68.3 38.17,-15.8 79.1,-23.87 120.45,-23.74 0.05,0 0.05,0 0.05,0l1074.35 -9.92z"/>
  </g>
 </g>
</svg>
