<svg width="34" height="43" viewBox="0 0 34 43" fill="none" xmlns="http://www.w3.org/2000/svg">
<path d="M23.4086 2.68164V2.83164H23.5586H29.8574C31.8618 2.83164 33.4867 4.42376 33.4867 6.37305V38.5293C33.4867 40.4786 31.8618 42.0707 29.8574 42.0707H4.66211C2.6577 42.0707 1.03281 40.4786 1.03281 38.5293V6.37305C1.03281 4.42376 2.6577 2.83164 4.66211 2.83164H10.9609H11.1109V2.68164V1.45117C11.1109 0.857775 11.6045 0.370703 12.2207 0.370703H22.2988C22.9151 0.370703 23.4086 0.857775 23.4086 1.45117V2.68164ZM13.4805 2.53164H13.3305V2.68164V5.14258V5.29258H13.4805H21.0391H21.1891V5.14258V2.68164V2.53164H21.0391H13.4805ZM11.1109 5.14258V4.99258H10.9609H4.66211C3.88798 4.99258 3.25234 5.60842 3.25234 6.37305V38.5293C3.25234 39.2939 3.88798 39.9098 4.66211 39.9098H29.8574C30.6316 39.9098 31.2672 39.2939 31.2672 38.5293V6.37305C31.2672 5.60842 30.6316 4.99258 29.8574 4.99258H23.5586H23.4086V5.14258V6.37305C23.4086 6.96644 22.9151 7.45352 22.2988 7.45352H12.2207C11.6045 7.45352 11.1109 6.96644 11.1109 6.37305V5.14258ZM17.6731 27.1453L17.673 27.1453L16.7919 27.285L16.8465 27.1453C16.8465 27.1453 16.8465 27.1453 16.8465 27.1453C14.7727 26.335 13.0154 24.9523 11.7638 23.1467C10.5123 21.3412 9.85117 19.2351 9.85117 17.0554V13.8379C9.85117 13.3982 10.1253 13.0002 10.5476 12.8352L16.8465 10.3742L16.8465 10.3742C17.1118 10.2705 17.4078 10.2705 17.673 10.3742L17.6731 10.3742L23.9719 12.8352C24.3942 13.0002 24.6684 13.3982 24.6684 13.8379V17.0554C24.6684 19.235 24.0072 21.3412 22.7557 23.1467C21.5041 24.9523 19.7469 26.335 17.6731 27.1453ZM12.1661 14.5313L12.0707 14.5686V14.671V17.0554C12.0707 20.468 14.0678 23.5091 17.1974 24.9385L17.2598 24.967L17.3221 24.9385C20.4517 23.5091 22.4488 20.468 22.4488 17.0554V14.671V14.5686L22.3534 14.5313L17.3144 12.5625L17.2598 12.5412L17.2052 12.5625L12.1661 14.5313ZM8.59141 31.0645C8.59141 30.4711 9.08494 29.984 9.70117 29.984H24.8184C25.4346 29.984 25.9281 30.4711 25.9281 31.0645C25.9281 31.6578 25.4346 32.1449 24.8184 32.1449H9.70117C9.08494 32.1449 8.59141 31.6578 8.59141 31.0645ZM8.59141 35.9863C8.59141 35.3929 9.08494 34.9059 9.70117 34.9059H24.8184C25.4346 34.9059 25.9281 35.3929 25.9281 35.9863C25.9281 36.5797 25.4346 37.0668 24.8184 37.0668H9.70117C9.08494 37.0668 8.59141 36.5797 8.59141 35.9863Z" fill="#ED1C24" stroke="white" stroke-width="0.3"/>
</svg>
