<svg width="43" height="43" viewBox="0 0 43 43" fill="none" xmlns="http://www.w3.org/2000/svg">
<path d="M33.5703 6.70957H33.2203V7.05957V8.7002C33.2203 9.41301 32.6425 9.99082 31.9297 9.99082C31.2169 9.99082 30.6391 9.41301 30.6391 8.7002V7.05957V6.70957H30.2891H22.8242H22.4742V7.05957V8.7002C22.4742 9.41301 21.8964 9.99082 21.1836 9.99082C20.4708 9.99082 19.893 9.41301 19.893 8.7002V7.05957V6.70957H19.543H12.1602H11.8102V7.05957V8.7002C11.8102 9.41301 11.2323 9.99082 10.5195 9.99082C9.80671 9.99082 9.22891 9.41301 9.22891 8.7002V7.05957V6.70957H8.87891H6.82812C4.82554 6.70957 3.19688 8.33824 3.19688 10.3408V35.9346C3.19688 37.9371 4.82554 39.5658 6.82812 39.5658H35.7031C37.7057 39.5658 39.3344 37.9371 39.3344 35.9346C39.3344 35.2218 39.9122 34.6439 40.625 34.6439C41.3378 34.6439 41.9156 35.2218 41.9156 35.9346C41.9156 39.3598 39.1284 42.1471 35.7031 42.1471H6.82812C3.40286 42.1471 0.615625 39.3598 0.615625 35.9346V10.3408C0.615625 6.91556 3.40286 4.12832 6.82812 4.12832H8.87891H9.22891V3.77832V2.1377C9.22891 1.42488 9.80671 0.84707 10.5195 0.84707C11.2323 0.84707 11.8102 1.42488 11.8102 2.1377V3.77832V4.12832H12.1602H19.543H19.893V3.77832V2.1377C19.893 1.42488 20.4708 0.84707 21.1836 0.84707C21.8964 0.84707 22.4742 1.42488 22.4742 2.1377V3.77832V4.12832H22.8242H30.2891H30.6391V3.77832V2.1377C30.6391 1.42488 31.2169 0.84707 31.9297 0.84707C32.6425 0.84707 33.2203 1.42488 33.2203 2.1377V3.77832V4.12832H33.5703H35.7031C39.1284 4.12832 41.9156 6.91556 41.9156 10.3408V27.7314C41.9156 28.4443 41.3378 29.0221 40.625 29.0221C39.9122 29.0221 39.3344 28.4443 39.3344 27.7314V10.3408C39.3344 8.33824 37.7057 6.70957 35.7031 6.70957H33.5703ZM24.6773 26.0689H24.5086L24.4035 26.2009L19.5691 32.2712C19.4291 32.447 19.2166 32.5494 18.9919 32.5494H18.9916C18.4481 32.5494 18.091 31.9817 18.3266 31.4918L18.0111 31.3402L18.3266 31.4918L20.6923 26.5706L20.9334 26.0689H20.3768H16.4429H16.2917L16.188 26.1791L14.7619 27.6945L15.0167 27.9344L14.7618 27.6945C14.7036 27.7564 14.6222 27.7916 14.5371 27.7916H14.4593C14.2889 27.7916 14.1507 27.6534 14.1507 27.483V21.9943C14.1507 21.8234 14.2897 21.685 14.4606 21.6857C14.547 21.6861 14.6292 21.7225 14.6874 21.7864C14.6874 21.7864 14.6874 21.7864 14.6874 21.7864L16.1348 23.3735L16.2389 23.4877H16.3934H20.3824H20.9394L20.6977 22.9858L18.3286 18.0663L18.0133 18.2182L18.3286 18.0663C18.0926 17.5763 18.4499 17.008 18.9938 17.0083H18.9938C19.2177 17.0084 19.4295 17.1102 19.5694 17.285L19.5694 17.285L24.4303 23.3564L24.5354 23.4877H24.7036H27.1719C27.5492 23.4877 27.9429 23.635 28.2395 23.8801C28.5348 24.1243 28.7086 24.4421 28.7086 24.7774C28.7086 25.1128 28.5347 25.4312 28.2393 25.6758C27.9427 25.9213 27.549 26.0689 27.1719 26.0689H24.6773Z" fill="#ED1C24" stroke="white" stroke-width="0.7"/>
</svg>
