<svg width="40" height="43" viewBox="0 0 40 43" fill="none" xmlns="http://www.w3.org/2000/svg">
<path d="M0.757812 11.5824C8.17789 10.0504 14.7853 5.84071 20.2597 0.720703C25.6555 5.80888 32.4984 9.30992 39.7636 10.7782C39.3096 18.3065 36.6573 25.7033 32.1059 31.7293C28.9444 35.939 24.8895 39.4761 20.2703 42.0054C14.0193 38.6168 8.67228 33.4989 5.24126 27.2522C2.58047 22.4568 1.07821 17.0483 0.757812 11.5824ZM3.10245 13.2671C3.82387 20.1674 6.64804 26.8533 11.2291 32.0773C13.788 35.0436 16.8881 37.5156 20.2554 39.5037C29.8292 33.8872 36.3093 23.4987 37.4551 12.4948C31.1617 10.9331 25.263 7.85009 20.3233 3.65521C15.2903 7.93496 9.54648 11.5782 3.10245 13.2671Z" fill="#ED1C24"/>
<path d="M18.7674 22.8707C20.7874 20.8125 22.8435 18.7925 24.8741 16.7471C25.3897 17.2478 25.8904 17.7634 26.4018 18.2684C23.845 20.8359 21.3073 23.4224 18.7398 25.9792C17.1591 24.4854 15.6483 22.9195 14.127 21.3642C14.6298 20.8613 15.137 20.3606 15.6292 19.8492C16.7029 20.8274 17.6768 21.9116 18.7674 22.8707Z" fill="#ED1C24"/>
</svg>
