<svg width="211" height="235" viewBox="0 0 211 235" fill="none" xmlns="http://www.w3.org/2000/svg">
<g clip-path="url(#clip0)">
<path d="M113.024 156.76C109.909 156.86 106.831 156.064 104.155 154.465C96.0609 149.611 84.099 141.593 73.338 131.099C59.6847 117.786 51.8371 104.249 50.1213 90.9569L50.0939 90.7496L49.7617 34.0342C49.7617 22.8241 57.076 13.7267 70.7902 7.74815C82.1272 2.80923 97.1519 0.361103 113.024 0.82146C128.713 1.27572 143.229 4.51346 153.99 9.91274C166.762 16.3151 173.464 25.3393 173.464 36.025L173.159 90.2191L173.135 90.4173C171.565 103.146 164.348 116.301 151.591 129.606C141.357 140.276 129.792 148.733 121.85 153.974C119.224 155.706 116.168 156.671 113.024 156.76Z" fill="#C4101D"/>
<path d="M116.138 156.76C113.059 156.859 110.019 156.062 107.385 154.465C99.397 149.611 87.5937 141.593 76.9758 131.099C63.4994 117.786 55.7585 104.249 54.064 90.9569L54.0396 90.7496L53.7227 34.0342C53.7227 22.8241 60.9211 13.7267 74.4616 7.74815C85.6463 2.80923 100.473 0.361103 116.138 0.82146C131.616 1.27572 145.943 4.51346 156.546 9.91274C169.151 16.3151 175.761 25.3393 175.761 36.025L175.456 90.2191L175.432 90.4173C173.883 103.146 166.761 116.301 154.172 129.606C144.072 140.276 132.662 148.733 124.826 153.974C122.249 155.7 119.238 156.666 116.138 156.76Z" fill="#E83A47"/>
<path d="M57.4531 34.0738L57.7853 90.5025C61.4973 119.295 95.3226 142.605 110.052 151.477C112.156 152.718 114.566 153.341 117.008 153.275C119.449 153.209 121.823 152.457 123.857 151.105C138.282 141.608 170.254 117.706 173.67 90.0239L173.975 35.9823C173.972 -4.11145 57.4531 -7.79126 57.4531 34.0738Z" fill="#ED1C24"/>
<path d="M116.974 142.764C116.59 142.773 116.211 142.673 115.883 142.474C109.818 138.8 98.0572 131.102 87.8295 121.051C76.7819 110.194 70.4094 99.6394 68.9344 89.725L68.6113 34.2383C68.6113 28.9122 72.8384 24.3543 81.1065 20.708C90.3285 16.6197 103.424 14.4856 116.974 14.8179C130.383 15.1228 143.101 17.8392 151.908 22.2111C159.698 26.0707 163.636 30.6438 163.648 35.7748L163.343 89.347C161.984 98.9352 156.001 109.301 145.499 120.157C135.628 130.38 124.093 138.483 118.071 142.413C117.746 142.632 117.365 142.753 116.974 142.764Z" fill="#222222"/>
<path d="M115.59 138.971C109.464 135.197 98.572 127.907 89.0757 118.544C78.6925 108.322 72.6857 98.5144 71.2716 89.4353L70.9668 34.2534C70.9516 30.4638 74.4472 26.9853 81.3134 23.9365C90.0479 20.0616 102.561 18.0251 115.59 18.3177C128.493 18.6226 140.656 21.1561 149.016 25.2932C155.513 28.5096 158.796 32.0156 158.805 35.7259L158.5 89.1029C157.174 97.9107 151.506 107.542 141.595 117.782C132.397 127.288 121.685 134.94 115.59 138.971Z" fill="#F4F7FA"/>
<path d="M125.123 82.6646C124.621 82.6797 124.145 82.8903 123.797 83.2514C123.449 83.6125 123.255 84.0956 123.258 84.5975V95.207C123.26 95.7089 123.067 96.192 122.718 96.5531C122.37 96.9142 121.894 97.1248 121.392 97.1399L111.186 97.2649C110.94 97.2649 110.696 97.2159 110.468 97.1208C110.241 97.0256 110.035 96.8862 109.862 96.7105C109.689 96.5349 109.552 96.3267 109.461 96.0979C109.369 95.8691 109.323 95.6243 109.327 95.3777V84.7682C109.331 84.5215 109.285 84.2766 109.194 84.0476C109.102 83.8187 108.965 83.6102 108.792 83.4343C108.62 83.2585 108.413 83.1188 108.186 83.0233C107.959 82.9278 107.715 82.8784 107.468 82.878L101.373 82.9542C100.352 82.9542 100.108 82.3597 100.83 81.6097C102.238 80.1585 113.414 68.5429 114.822 67.0917C114.99 66.9134 115.192 66.7708 115.417 66.6723C115.641 66.5738 115.883 66.5214 116.128 66.5183C116.373 66.5151 116.617 66.5613 116.843 66.6541C117.07 66.7468 117.276 66.8843 117.449 67.0582L131.413 81.253C132.132 81.9847 131.888 82.5975 130.864 82.6097L125.123 82.6646ZM121.185 57.1925C121.196 58.5479 120.676 59.8537 119.736 60.8299C118.796 61.8062 117.511 62.3752 116.157 62.415C115.49 62.4167 114.83 62.2854 114.215 62.0287C113.6 61.772 113.043 61.3951 112.575 60.92C112.108 60.445 111.74 59.8814 111.493 59.2623C111.246 58.6432 111.125 57.981 111.137 57.3145C111.126 55.9591 111.647 54.6533 112.587 53.6771C113.527 52.7009 114.811 52.1318 116.166 52.092C116.832 52.0924 117.491 52.2251 118.105 52.4825C118.719 52.7399 119.275 53.1169 119.742 53.5915C120.21 54.0661 120.578 54.6289 120.825 55.2471C121.073 55.8653 121.195 56.5266 121.185 57.1925ZM148.214 71.8264C130.886 54.2129 121.261 44.4265 119.341 42.4672C118.925 42.0499 118.429 41.7203 117.883 41.4977C117.337 41.2751 116.752 41.1641 116.162 41.1712C115.572 41.1783 114.99 41.3034 114.45 41.5391C113.909 41.7747 113.421 42.1162 113.015 42.5434L84.0624 72.6099C83.2228 73.4834 82.7539 74.6481 82.7539 75.8598C82.7539 77.0716 83.2228 78.2363 84.0624 79.1098L112.948 108.469C113.364 108.886 113.86 109.216 114.407 109.439C114.953 109.661 115.538 109.772 116.128 109.765C116.717 109.757 117.3 109.632 117.84 109.396C118.381 109.16 118.868 108.817 119.274 108.39C122.16 105.381 145.325 81.3353 148.227 78.3263C149.066 77.4509 149.534 76.284 149.532 75.0708C149.53 73.8576 149.057 72.6925 148.214 71.8203V71.8264Z" fill="#ED1C24"/>
</g>
<path d="M194.73 165.805L152.418 194.123L139.808 193.415L139.314 188.452C138.579 181.064 132.89 175.134 125.539 174.094L80.8023 170.173C76.4183 169.553 67.197 164.677 59.9673 160.53C53.1126 156.598 45.3686 154.482 37.4676 154.416L14.7227 154.229V209.832L79.1038 234.213C81.5377 234.9 84.0934 235.106 86.5898 234.711C86.6043 234.708 86.6203 234.705 86.6347 234.703L151.452 225.36C156.445 224.564 161.139 222.46 165.059 219.265L206.95 181.586C210.71 178.249 211.407 172.638 208.578 168.481C205.483 163.932 199.297 162.737 194.73 165.805Z" fill="#FBCAA3"/>
<path d="M208.579 168.48C208.3 168.068 207.993 167.685 207.666 167.329L165.06 198.618C161.141 201.814 156.446 203.916 151.453 204.714L86.6363 214.058C86.6203 214.059 86.6059 214.062 86.5914 214.064C84.0934 214.46 81.5377 214.253 79.1054 213.566L14.7227 189.186V209.832L79.1054 234.211C81.5377 234.899 84.0934 235.106 86.5914 234.71C86.6059 234.708 86.6203 234.705 86.6363 234.703L151.453 225.36C156.446 224.562 161.141 222.46 165.06 219.263L206.951 181.587C210.712 178.247 211.409 172.638 208.579 168.48Z" fill="#F7B17A"/>
<path d="M31.4132 229.023H4.6689C2.2526 229.023 0.292969 227.065 0.292969 224.649V142.991C0.292969 140.575 2.2526 138.615 4.6689 138.615H31.4132C33.8295 138.615 35.7891 140.575 35.7891 142.991V224.649C35.7891 227.065 33.8295 229.023 31.4132 229.023Z" fill="#ED1C24"/>
<path d="M31.4124 138.615H15.1777V229.023H31.4124C33.8287 229.023 35.7884 227.065 35.7884 224.649V142.991C35.7884 140.575 33.8287 138.615 31.4124 138.615Z" fill="#ED1C24"/>
<path d="M25.5033 208.936C25.5033 213.378 21.9013 216.98 17.4597 216.98C13.0164 216.98 9.41602 213.378 9.41602 208.936C9.41602 204.493 13.0164 200.893 17.4597 200.893C21.9013 200.893 25.5033 204.493 25.5033 208.936Z" fill="white"/>
<path d="M139.445 189.774L74.4409 194.112C74.3977 194.11 74.356 194.107 74.3191 194.104C72.3034 193.921 70.4816 192.968 69.1885 191.418C68.022 190.02 65.9422 189.83 64.545 190.997C63.1462 192.163 62.9587 194.243 64.1236 195.642C66.5447 198.544 69.9544 200.33 73.7295 200.672C73.8897 200.686 74.05 200.697 74.1861 200.702C74.2839 200.707 74.3816 200.709 74.4794 200.709C74.5162 200.709 74.5915 200.709 74.6268 200.707C74.6588 200.705 74.6893 200.704 74.7197 200.702L139.806 193.404L139.445 189.774Z" fill="#F7B17A"/>
<defs>
<clipPath id="clip0">
<rect width="126" height="156" fill="white" transform="translate(49.7617 0.766602)"/>
</clipPath>
</defs>
</svg>
