<svg width="536" height="526" viewBox="0 0 536 526" fill="none" xmlns="http://www.w3.org/2000/svg">
<g clipPath="url(#clip0)">
<circle cx="267.95" cy="252.341" r="145.087" stroke="black" stroke-opacity="0.07"/>
<circle cx="267.505" cy="252.787" r="251.494" stroke="black" stroke-opacity="0.07"/>
<circle cx="267.505" cy="252.787" r="199.848" stroke="black" stroke-opacity="0.07"/>
<path d="M168.023 453.296C162.182 562.991 112.635 666.484 113.789 670.595C114.943 674.705 130.81 675.859 130.81 675.859C130.81 675.859 193.626 582.536 215.334 482.866C225.358 481.063 241.946 476.591 241.946 476.591C241.946 476.591 256.37 662.084 256.37 671.316C259.12 672.916 262.334 673.53 265.48 673.058C268.627 672.586 271.519 671.056 273.678 668.72C273.678 668.72 280.458 602.153 289.256 537.605C294.533 496.377 295.693 454.727 292.718 413.27L215.045 428.703L168.023 453.296Z" fill="url(#paint0_radial)"/>
<path d="M107.156 229.29C122.49 238.948 136.482 250.588 148.769 263.908C158.722 276.241 193.339 329.61 198.604 336.605C201.561 320.811 192.185 249.196 189.805 226.91C187.425 204.625 183.964 185.874 183.964 185.874L144.658 202.894L107.733 222.872L107.156 229.29Z" fill="url(#paint1_linear)"/>
<path d="M203.652 301.627C202.715 313.382 201.029 325.066 198.603 336.606C195.43 333.865 191.968 330.692 188.218 327.23L179.131 300.834L152.158 222.944L135.859 222.223L144.658 202.895L168.674 202.318L163.481 217.896L193.771 280.929L203.652 301.627Z" fill="url(#paint2_radial)"/>
<path d="M95.9054 229.291C81.4815 246.888 63.668 266.793 63.668 274.438C63.668 282.083 121.364 297.877 128.143 308.479C134.922 319.08 156.414 367.112 162.255 455.892C162.977 466.782 222.692 452.935 224.422 437.141C226.153 421.347 198.604 336.822 198.604 336.822L145.235 259.437L95.9054 229.291Z" fill="url(#paint3_radial)"/>
<path d="M192.762 169.647L236.539 143.828C236.539 143.828 257.67 180.249 284.21 164.959C310.75 149.67 280.171 51.0093 280.171 51.0093C280.171 51.0093 291.854 44.5185 298.922 48.0524C317.096 86.204 343.492 193.519 320.053 238.666C307.144 263.403 260.194 245.878 252.549 236.358C275.483 285.616 299.499 399.927 298.922 411.106C298.345 422.284 230.264 450.411 224.423 436.925C218.581 423.438 198.604 336.605 198.604 336.605L196.296 254.533L191.031 233.978L192.762 169.647Z" fill="url(#paint4_radial)"/>
<path d="M108.312 209.313C107.975 198.578 106.229 187.933 103.119 177.652C98.3592 166.546 155.189 152.987 155.189 152.987C155.189 152.987 161.68 171.739 171.633 178.229C181.585 184.72 144.66 202.822 144.66 202.822L108.312 209.313Z" fill="url(#paint5_linear)"/>
<path d="M144.659 202.895L141.702 228.714L101.82 223.449L103.046 204.048L144.659 202.895Z" fill="url(#paint6_linear)"/>
<path d="M144.656 202.895L170.475 171.234L184.538 177.653L175.163 209.313L144.656 202.895Z" fill="url(#paint7_linear)"/>
<path d="M276.637 371.223L279.521 377.642L297.119 369.492L295.965 363.579L276.637 371.223Z" fill="#1E2A38"/>
<path d="M219.735 356.583C219.735 357.51 219.46 358.416 218.945 359.187C218.43 359.958 217.698 360.559 216.841 360.914C215.985 361.269 215.042 361.361 214.133 361.181C213.223 361 212.388 360.553 211.732 359.898C211.077 359.242 210.63 358.407 210.449 357.497C210.269 356.588 210.361 355.645 210.716 354.789C211.071 353.932 211.672 353.2 212.443 352.685C213.214 352.17 214.12 351.895 215.047 351.895C216.29 351.895 217.483 352.389 218.362 353.268C219.241 354.147 219.735 355.34 219.735 356.583Z" fill="#1E2A38"/>
<path d="M231.492 396.465C231.506 397.413 231.237 398.343 230.72 399.136C230.202 399.93 229.46 400.551 228.587 400.921C227.714 401.29 226.752 401.39 225.822 401.209C224.892 401.027 224.037 400.573 223.367 399.903C222.697 399.233 222.242 398.378 222.061 397.448C221.879 396.518 221.98 395.555 222.349 394.682C222.718 393.81 223.339 393.067 224.133 392.549C224.927 392.032 225.857 391.763 226.804 391.777C228.042 391.796 229.223 392.296 230.098 393.171C230.973 394.046 231.473 395.228 231.492 396.465Z" fill="#100F23"/>
<path d="M152.52 92.1897C152.52 92.1897 166.943 89.4491 170.261 92.1897C173.578 94.9303 174.372 118.658 172.497 121.831C170.622 125.004 155.765 126.158 155.765 126.158L152.52 92.1897Z" fill="#FABE82"/>
<path d="M164.132 120.029C165.202 119.904 166.23 119.541 167.141 118.967C168.052 118.393 168.823 117.622 169.397 116.711C169.771 110.212 169.31 103.693 168.027 97.3109C168.027 97.3109 162.546 96.157 161.608 98.3927C161.451 105.686 162.3 112.967 164.132 120.029Z" fill="url(#paint8_linear)"/>
<path d="M168.024 97.3108C168.024 97.3108 160.812 95.3635 160.812 97.3108C160.996 104.629 162.086 111.897 164.058 118.947V119.596C162.851 112.636 162.152 105.598 161.966 98.5368C163.905 97.7984 165.952 97.3841 168.024 97.3108Z" fill="#CC6A5A"/>
<path d="M63.3079 104.667C63.3079 104.667 48.5233 106.037 46.2876 109.355C44.0519 112.672 50.4706 135.751 53.4996 138.203C56.5286 140.655 70.8083 137.698 70.8083 137.698L63.3079 104.667Z" fill="#FABE82"/>
<path d="M60.6416 134.38C59.4733 134.506 58.2914 134.399 57.1648 134.065C56.0381 133.731 54.9892 133.176 54.0787 132.433C51.3788 126.421 49.5339 120.061 48.5977 113.537C48.5977 113.537 53.8624 111.157 55.8096 113.033C58.4727 119.869 60.1013 127.064 60.6416 134.38Z" fill="url(#paint9_linear)"/>
<path d="M48.5977 113.537C48.5977 113.537 55.8096 109.931 56.3866 112.167C58.7558 119.159 60.1866 126.435 60.6416 133.803V134.452C59.4134 127.429 57.6534 120.51 55.3769 113.754C53.1426 113.326 50.8547 113.253 48.5977 113.537Z" fill="#CC6A5A"/>
<path d="M159.659 44.807C159.154 50.4324 156.99 82.2374 156.99 82.4537C156.99 84.1846 156.99 86.6367 157.639 89.6658C159.731 109.571 166.005 154.574 161.173 165.969C158.803 170.221 155.068 173.55 150.572 175.417L149.201 176.138C145.746 177.76 142.179 179.134 138.528 180.249C132.716 182.081 126.789 183.527 120.786 184.576H119.272H117.974C112.871 185.107 107.742 185.348 102.612 185.297C98.7969 185.312 94.9865 185.023 91.2173 184.432H89.7028C84.8699 183.921 80.3366 181.844 76.7934 178.518C68.7881 168.782 61.7925 124.139 58.0423 104.45C57.4653 101.421 56.9605 99.0414 56.5278 97.2384C56.5278 97.2384 45.1329 67.2364 43.0414 61.9716C40.9499 56.7068 54.6526 46.6821 54.6526 46.6821C54.6526 46.6821 40.8057 30.3829 62.5137 13.4347C64.9523 11.5611 67.7511 10.2108 70.7353 9.46807C72.0151 9.12043 73.316 8.85544 74.6298 8.67474C84.1739 7.82041 93.7903 9.02554 102.829 12.2086L104.704 12.7856C119.003 17.244 132.354 24.3106 144.081 33.6283C144.081 33.6283 160.091 39.1816 159.659 44.807Z" fill="url(#paint10_linear)"/>
<path d="M159.659 44.807C159.154 50.4324 156.99 82.2374 156.99 82.4537C156.99 84.1846 156.99 86.6367 157.639 89.6658L58.0423 104.523C57.4653 101.493 56.9605 99.1135 56.5278 97.3105C56.5278 97.3105 45.1329 67.3085 43.0414 62.0437C40.9499 56.7789 54.6526 46.7542 54.6526 46.7542C54.6526 46.7542 40.8057 30.3829 62.5137 13.4347C64.9523 11.5611 67.7511 10.2108 70.7353 9.46807C72.0151 9.12043 73.316 8.85544 74.6298 8.67474C84.1739 7.82041 93.7903 9.02554 102.829 12.2086L104.704 12.7856C119.003 17.244 132.354 24.3106 144.081 33.6284C144.081 33.6284 160.091 39.1816 159.659 44.807Z" fill="url(#paint11_linear)"/>
<g style="mix-blend-mode:screen" opacity="0.5">
<g style="mix-blend-mode:screen" opacity="0.5">
<path d="M91.2202 184.793H89.7056C82.7935 168.325 78.6509 150.829 77.4453 133.01H78.7435C79.998 150.844 84.2146 168.344 91.2202 184.793Z" fill="#C15211"/>
</g>
</g>
<g style="mix-blend-mode:screen" opacity="0.5">
<g style="mix-blend-mode:screen" opacity="0.5">
<path d="M149.202 176.21L150.573 175.489C152.396 157.709 151.275 139.751 147.255 122.336L145.957 122.697C150.037 140.225 151.135 158.316 149.202 176.21Z" fill="#C15211"/>
</g>
</g>
<g style="mix-blend-mode:screen" opacity="0.5">
<g style="mix-blend-mode:screen" opacity="0.5">
<path d="M82.8519 50.5041L82.4913 51.7301C68.8607 47.6914 60.8555 38.6042 60.8555 27.4256C60.9666 23.8885 61.8973 20.4256 63.5743 17.3094C65.2512 14.1932 67.6287 11.5088 70.5195 9.46764C71.7993 9.12001 73.1001 8.85502 74.4139 8.67432C70.843 10.3889 67.8114 13.0509 65.6494 16.3701C63.4875 19.6894 62.2783 23.5384 62.1536 27.4977C62.2257 38.0273 69.8704 46.6096 82.8519 50.5041Z" fill="#C15211"/>
</g>
</g>
<g style="mix-blend-mode:screen" opacity="0.5">
<g style="mix-blend-mode:screen" opacity="0.5">
<path d="M113.721 45.6728V46.9709C108.293 45.8677 103.495 42.7249 100.316 38.1899C97.1357 33.6549 95.8161 28.0731 96.6287 22.5943C96.7725 20.4628 97.4402 18.3997 98.5724 16.5881C99.7047 14.7765 101.267 13.2723 103.119 12.209L104.995 12.786C102.986 13.611 101.248 14.9793 99.9741 16.7372C98.7002 18.4952 97.9413 20.5734 97.7826 22.7385C96.9729 27.8784 98.1784 33.1325 101.148 37.4053C104.117 41.6781 108.621 44.6398 113.721 45.6728Z" fill="#C15211"/>
</g>
</g>
<g style="mix-blend-mode:screen" opacity="0.5">
<g style="mix-blend-mode:screen" opacity="0.5">
<path d="M119.273 184.792H117.975C114.806 173.244 112.634 161.445 111.484 149.525H112.783C113.938 161.444 116.109 173.243 119.273 184.792Z" fill="#C15211"/>
</g>
</g>
<path d="M147.902 58.4377L144.296 48.99C143.281 46.2915 141.358 44.0307 138.858 42.5961C136.357 41.1615 133.435 40.6427 130.593 41.1288C130.593 41.1288 108.236 47.1869 100.591 48.3409C92.9467 49.4948 69.7242 50.1439 69.7242 50.1439C66.8707 50.5338 64.2382 51.8934 62.2684 53.9945C60.2986 56.0957 59.1115 58.8104 58.9063 61.6831L58.2572 71.78C57.1033 88.6668 59.8421 105.593 66.2625 121.254L68.4261 126.519C69.4643 129.047 71.3039 131.164 73.6622 132.546C76.0205 133.927 78.767 134.495 81.4797 134.164L108.092 130.486L112.563 129.837L116.963 129.116L143.503 124.933C146.221 124.496 148.716 123.168 150.596 121.157C152.477 119.146 153.634 116.567 153.888 113.826L154.465 108.129C156.084 91.2814 153.84 74.2867 147.902 58.4377Z" fill="#FABE82"/>
<path d="M68.8633 97.455C70.4008 105.17 72.4978 112.762 75.1377 120.173L108.024 116.927L103.625 85.0503L81.4842 88.0793L68.8633 97.455Z" fill="url(#paint12_linear)"/>
<path d="M141.486 81.5164C142.712 86.4206 143.578 110.364 143.578 110.364L113.288 116.206L106.797 75.0977L129.659 72.9341L141.486 81.5164Z" fill="url(#paint13_linear)"/>
<path d="M115.165 118.514C109.179 105.244 108.818 82.8865 112.28 76.1793L114.372 68.9673L89.5625 81.1556L99.1544 88.3676C104.419 93.7045 106.366 105.1 104.419 119.524C100.38 117.865 96.0533 120.822 97.9284 124.5C99.8035 128.178 106.366 129.116 111.198 128.394C116.03 127.673 122.233 123.995 122.81 120.75C123.387 117.504 118.555 115.701 115.165 118.514Z" fill="url(#paint14_linear)"/>
<path d="M98.1419 89.0889C89.1677 94.8691 78.7421 97.9943 68.0681 98.104C66.6864 95.745 65.6654 93.1925 65.0391 90.5313C65.0391 90.5313 67.1305 89.6659 71.1692 87.7186C71.1692 88.1514 74.1982 91.3968 74.1982 91.3247C74.1982 91.2525 72.5395 87.5023 72.3953 87.0696C78.857 84.0669 85.0777 80.5707 91.0021 76.6121L95.4735 85.6993L93.6705 74.3764C94.2048 73.8831 94.6447 73.2965 94.9687 72.6455C96.8011 77.9484 97.8695 83.485 98.1419 89.0889Z" fill="url(#paint15_linear)"/>
<path d="M113.504 60.457C112.235 65.9392 111.702 71.5659 111.918 77.1889C116.959 75.8171 122.248 75.624 127.375 76.6245C132.503 77.625 137.331 79.7923 141.487 82.9586C142.632 80.4689 143.387 77.8173 143.723 75.0974C142.478 72.8315 140.87 70.785 138.963 69.0393C138.147 70.5183 137.231 71.9399 136.222 73.2944C136.222 73.2944 136.943 69.9769 137.448 67.8133C131.952 63.8812 125.446 61.6039 118.697 61.2504L114.154 73.655L115.019 60.8176L113.504 60.457Z" fill="url(#paint16_linear)"/>
<path d="M95.9063 100.7C96.0626 103.731 95.771 106.769 95.0408 109.715C90.2669 111.485 85.2026 112.341 80.1121 112.239C78.1254 109.979 76.3169 107.568 74.7031 105.027L80.7612 101.998L83.9344 100.412L91.507 99.1135L93.8869 98.7529L95.9063 100.7Z" fill="white"/>
<path d="M93.454 103.008C93.7217 104.787 93.2719 106.599 92.2034 108.047C91.135 109.494 89.5354 110.457 87.7565 110.725C85.9777 110.993 84.1653 110.543 82.7181 109.475C81.271 108.406 80.3075 106.806 80.0397 105.028C79.8253 104.029 79.8253 102.997 80.0397 101.999L83.3572 100.34L91.2183 99.1138C92.4081 100.1 93.2019 101.483 93.454 103.008Z" fill="url(#paint17_linear)"/>
<path d="M73.7656 103.08L74.7032 104.955C81.3254 101.851 88.5992 100.391 95.9064 100.7C96.2683 99.8231 96.5109 98.9014 96.6276 97.9597C88.6473 97.0346 80.5889 98.8395 73.7656 103.08Z" fill="url(#paint18_linear)"/>
<path d="M120.281 97.0942C120.281 97.0942 122.445 104.667 123.599 105.244C128.695 105.534 133.802 104.899 138.672 103.369C139.906 100.758 140.943 98.0575 141.773 95.2912L135.066 94.1373L131.965 93.1997L124.392 94.2094H121.94L120.281 97.0942Z" fill="white"/>
<path d="M123.241 98.6087C123.922 99.9681 125.014 101.078 126.363 101.779C127.712 102.48 129.248 102.737 130.752 102.513C132.256 102.289 133.65 101.596 134.736 100.532C135.822 99.468 136.544 98.0881 136.799 96.5894C136.598 95.5867 136.206 94.6319 135.646 93.7767L132.04 93.1997L124.106 94.2094C123.358 95.5467 123.055 97.0876 123.241 98.6087Z" fill="url(#paint19_linear)"/>
<path d="M142.138 92.9109L141.777 95.0023C134.502 93.9416 127.079 94.6592 120.142 97.0938C119.532 96.3594 119.045 95.5314 118.699 94.6417C126.09 91.4245 134.355 90.8142 142.138 92.9109Z" fill="url(#paint20_linear)"/>
<path d="M99.0781 139.789C113.337 140.35 127.397 136.304 139.177 128.25C132.83 148.011 123.31 154.141 114.8 154.79C106.29 155.439 99.0781 139.789 99.0781 139.789Z" fill="url(#paint21_linear)"/>
<path d="M139.177 128.25C137.548 133.439 134.751 138.186 131 142.124C127.249 146.063 122.645 149.088 117.541 150.968C116.615 151.177 115.675 151.322 114.728 151.401C106.218 152.05 99.2227 139.789 99.2227 139.789C102.627 140.147 106.059 140.147 109.464 139.789C120.167 138.449 130.374 134.485 139.177 128.25Z" fill="#690000"/>
<path d="M139.178 128.25C137.55 133.439 134.752 138.186 131.001 142.124C127.25 146.063 122.646 149.088 117.542 150.968L109.465 139.501C120.148 138.27 130.359 134.404 139.178 128.25Z" fill="white"/>
<path d="M203.651 301.627C202.714 313.382 201.028 325.065 198.602 336.605C197.96 317.999 196.347 299.439 193.77 281.001C187.712 232.32 174.01 174.623 174.37 172.027C174.37 172.027 191.607 164.166 195.069 165.969C198.53 167.772 205.67 212.27 205.093 224.603C204.516 236.935 194.492 236.358 194.492 236.358C199.283 238.24 203.247 241.769 205.67 246.311C207.185 250.422 206.031 277.25 203.651 301.627Z" fill="#266686"/>
<path d="M198.605 336.606C195.432 333.865 191.97 330.692 188.22 327.23C170.767 310.859 149.492 288.934 144.949 282.66C139.107 275.015 144.949 263.331 144.949 263.331C144.949 263.331 131.462 270.904 125.044 266.793C112.859 256.12 102.01 244.012 92.7339 230.733C91.0031 226.045 102.109 216.742 102.109 216.742C132.9 239.617 159.042 268.158 179.133 300.834C186.481 312.271 192.989 324.226 198.605 336.606Z" fill="#266686"/>
<path d="M174.012 43.3644L207.98 622.778L459.028 619.317L497.756 42.2104L174.012 43.3644Z" fill="url(#paint22_linear)"/>
<path d="M275.773 32.2581C267.768 34.0611 274.763 52.596 278.658 52.596C282.552 52.596 282.769 50.8651 280.749 42.7877C278.73 34.7102 283.995 40.624 283.995 40.624C283.995 40.624 282.408 30.8157 275.773 32.2581Z" fill="url(#paint23_radial)"/>
<path d="M281.541 32.2578C273.175 34.1329 280.532 53.8939 284.57 53.5333C288.609 53.1727 288.897 51.7303 286.734 43.2922C284.57 34.8541 290.196 41.0565 290.196 41.0565C290.196 41.0565 288.465 30.7433 281.541 32.2578Z" fill="url(#paint24_radial)"/>
<path d="M287.455 33.7001C280.243 35.3589 286.59 52.235 290.123 52.235C293.657 52.235 293.874 50.6484 291.999 43.2921C290.123 35.9358 294.955 41.3448 294.955 41.3448C294.955 41.3448 293.513 32.4019 287.455 33.7001Z" fill="url(#paint25_radial)"/>
<path d="M429.4 337.922H239.27V345.43H429.4V337.922Z" fill="#B3B3B3"/>
<path d="M331.321 352.108L239.27 352.108V359.617L331.321 359.617V352.108Z" fill="#D6D6D6"/>
<path d="M331.321 380.481L239.27 380.481V387.989L331.321 387.989V380.481Z" fill="#D6D6D6"/>
<path d="M331.321 366.295L239.27 366.295V373.803L331.321 373.803V366.295Z" fill="#D6D6D6"/>
<path d="M331.321 394.667L239.27 394.667V402.175L331.321 402.175V394.667Z" fill="#D6D6D6"/>
<path d="M429.399 352.108L337.348 352.108V359.617L429.399 359.617V352.108Z" fill="#D6D6D6"/>
<path d="M429.399 380.481L337.348 380.481V387.989L429.399 387.989V380.481Z" fill="#D6D6D6"/>
<path d="M429.399 366.295L337.348 366.295V373.803L429.399 373.803V366.295Z" fill="#D6D6D6"/>
<path d="M429.399 394.667L337.348 394.667V402.175L429.399 402.175V394.667Z" fill="#D6D6D6"/>
<path d="M293.731 34.9983C286.519 33.1953 292.072 51.2975 295.606 51.2975C299.14 51.2975 300.654 49.206 298.635 41.9219C297.842 37.5947 296.616 35.7195 293.731 34.9983Z" fill="url(#paint26_radial)"/>
<path d="M458.115 280.415H253.043V287.923H458.115V280.415Z" fill="#B3B3B3"/>
<path d="M458.115 294.062L253.043 294.063V301.571L458.115 301.571V294.062Z" fill="#D6D6D6"/>
<path d="M458.117 307.71H223.324V315.219H458.117V307.71Z" fill="#D6D6D6"/>
<path d="M242.361 284.325V297.66H227.235V284.325H242.361ZM246.271 280.415H223.324V301.571H246.271V280.415Z" fill="#D6D6D6"/>
<path d="M240.865 314.753C240.865 314.753 241.659 306.892 231.057 311.58C250.601 288.141 242.812 283.814 239.279 289.944C235.745 296.074 211.945 324.706 211.945 324.706C214.308 329.058 217.324 333.023 220.888 336.462C222.475 341.149 242.524 338.841 245.12 329.826C245.741 327.159 245.676 324.378 244.932 321.743C244.188 319.107 242.789 316.703 240.865 314.753Z" fill="#FABE82"/>
<path d="M63.7422 274.438C63.7422 314.897 103.047 411.466 134.708 408.726C166.368 405.985 221.251 336.606 221.251 336.606C221.251 336.606 217.717 324.273 213.03 322.182C202.5 329.826 170.263 354.996 148.122 352.688C125.981 350.381 128.722 308.695 128.722 308.695C128.722 308.695 113 280.929 63.7422 274.438Z" fill="#374F6D"/>
<path d="M468.696 121.921H237.578V129.43H468.696V121.921Z" fill="#B3B3B3"/>
<path d="M468.696 135.569L237.578 135.569V143.078L468.696 143.078V135.569Z" fill="#D6D6D6"/>
<path d="M468.698 149.217H206.355V156.726H468.698V149.217Z" fill="#D6D6D6"/>
<path d="M225.392 125.832V139.167H210.266V125.832H225.392ZM229.303 121.921H206.355V143.078H229.303V121.921Z" fill="#D6D6D6"/>
<path d="M464.379 174.537H241.664V182.045H464.379V174.537Z" fill="#B3B3B3"/>
<path d="M464.379 188.185L241.664 188.185V195.693L464.379 195.693V188.185Z" fill="#D6D6D6"/>
<path d="M464.381 201.833H211.945V209.341H464.381V201.833Z" fill="#D6D6D6"/>
<path d="M230.982 178.447V191.782H215.856V178.447H230.982ZM234.892 174.537H211.945V195.693H234.892V174.537Z" fill="#D6D6D6"/>
<path d="M462.293 226.93H244.352V234.438H462.293V226.93Z" fill="#B3B3B3"/>
<path d="M462.293 240.578L244.352 240.578V248.086L462.293 248.086V240.578Z" fill="#D6D6D6"/>
<path d="M462.295 254.226H214.633V261.734H462.295V254.226Z" fill="#D6D6D6"/>
<path d="M233.669 230.84V244.175H218.543V230.84H233.669ZM237.58 226.93H214.633V248.086H237.58V226.93Z" fill="#D6D6D6"/>
<path d="M245.624 91.4221C247.669 91.4221 249.122 90.3397 249.118 88.8226C249.122 87.7488 248.419 86.9817 247.073 86.824V86.7559C248.082 86.611 248.798 85.9334 248.794 84.9533C248.798 83.53 247.511 82.4561 245.641 82.4561C243.757 82.4561 242.385 83.5471 242.368 85.0982H244.384C244.401 84.5016 244.938 84.101 245.641 84.101C246.31 84.101 246.766 84.5059 246.761 85.0897C246.766 85.6948 246.229 86.1124 245.453 86.1124H244.605V87.6124H245.453C246.335 87.6124 246.911 88.0471 246.902 88.6607C246.911 89.2786 246.382 89.709 245.632 89.709C244.886 89.709 244.337 89.3127 244.315 88.7374H242.193C242.21 90.3141 243.629 91.4221 245.624 91.4221ZM250.925 91.3027H254.841C256.772 91.3027 257.88 90.2715 257.88 88.861C257.88 87.5996 256.963 86.807 255.907 86.7601V86.6749C256.865 86.4746 257.539 85.78 257.539 84.7828C257.539 83.4661 256.524 82.5755 254.564 82.5755H250.925V91.3027ZM253.034 89.6025V87.5229H254.377C255.182 87.5229 255.676 87.949 255.676 88.6181C255.676 89.236 255.25 89.6025 254.338 89.6025H253.034ZM253.034 86.1635V84.2502H254.236C254.939 84.2502 255.387 84.6124 255.387 85.1919C255.387 85.8056 254.892 86.1635 254.202 86.1635H253.034ZM259.494 91.3027H265.579V89.5897H261.603V87.7956H265.268V86.0783H261.603V84.2885H265.579V82.5755H259.494V91.3027ZM267.5 91.3027H269.609V88.5925H271.041C273.04 88.5925 274.288 87.4078 274.288 85.5968C274.288 83.8027 273.065 82.5755 271.105 82.5755H267.5V91.3027ZM269.609 86.9306V84.2757H270.649C271.595 84.2757 272.102 84.7871 272.102 85.5968C272.102 86.4022 271.595 86.9306 270.649 86.9306H269.609ZM275.928 91.3027H278.037V87.7956H281.476V91.3027H283.582V82.5755H281.476V86.0783H278.037V82.5755H275.928V91.3027ZM285.505 91.3027H291.59V89.5897H287.614V87.7956H291.279V86.0783H287.614V84.2885H291.59V82.5755H285.505V91.3027ZM293.511 91.3027H295.62V87.7956H299.059V91.3027H301.164V82.5755H299.059V86.0783H295.62V82.5755H293.511V91.3027ZM303.087 91.3027H305.197V87.7956H308.636V91.3027H310.741V82.5755H308.636V86.0783H305.197V82.5755H303.087V91.3027ZM319.286 91.3027V82.5755H315.681C313.721 82.5755 312.498 83.6877 312.498 85.4817C312.498 86.6877 313.052 87.5442 314.011 87.9789L312.2 91.3027H314.501L316.094 88.3155H317.177V91.3027H319.286ZM317.177 86.6536H316.137C315.191 86.6536 314.684 86.2914 314.684 85.4817C314.684 84.6721 315.191 84.2757 316.137 84.2757H317.177V86.6536ZM323.336 90.1096H321.699L321.691 90.5868C321.665 91.7459 321.303 92.9476 321.171 93.4334H322.484C322.688 92.9391 323.195 91.763 323.297 90.5826L323.336 90.1096ZM334.785 91.3027V82.5755H331.18C329.22 82.5755 327.997 83.6877 327.997 85.4817C327.997 86.6877 328.551 87.5442 329.51 87.9789L327.699 91.3027H330L331.594 88.3155H332.676V91.3027H334.785ZM332.676 86.6536H331.636C330.69 86.6536 330.183 86.2914 330.183 85.4817C330.183 84.6721 330.69 84.2757 331.636 84.2757H332.676V86.6536ZM342.04 91.3027H344.669L341.132 86.6962L344.494 82.5755H341.856L339.155 85.9632H338.818V82.5755H336.709V91.3027H338.818V87.6806H339.295L342.04 91.3027ZM348.148 82.5755H346.039V91.3027H348.148V82.5755ZM353.251 91.3027H355.36V87.7956H358.799V91.3027H360.904V82.5755H358.799V86.0783H355.36V82.5755H353.251V91.3027ZM364.715 91.3027L365.29 89.4703H368.303L368.878 91.3027H371.146L368.201 82.5755H365.393L362.448 91.3027H364.715ZM365.793 87.8681L366.761 84.7743H366.829L367.8 87.8681H365.793ZM372.306 93.4036H374.334V91.3027H379.299V93.3993H381.327V89.6578H380.39V82.5755H374.42L374.147 86.2701C373.989 88.4775 373.516 89.2488 372.907 89.6578H372.306V93.4036ZM375.327 89.6578C375.732 88.9718 376.06 87.9363 376.175 86.2701L376.312 84.2885H378.361V89.6578H375.327ZM385.029 82.5755H382.652L385.289 86.9391L382.583 91.3027H384.987L386.623 88.5158H386.691L388.328 91.3027H390.748L388.029 86.9391L390.663 82.5755H388.302L386.691 85.3326H386.623L385.029 82.5755ZM400.099 86.9391C400.099 84.0542 398.275 82.4561 395.931 82.4561C393.579 82.4561 391.768 84.0542 391.768 86.9391C391.768 89.8113 393.579 91.4221 395.931 91.4221C398.275 91.4221 400.099 89.824 400.099 86.9391ZM397.943 86.9391C397.943 88.6479 397.193 89.5726 395.931 89.5726C394.674 89.5726 393.92 88.6479 393.92 86.9391C393.92 85.2303 394.674 84.3056 395.931 84.3056C397.193 84.3056 397.943 85.2303 397.943 86.9391ZM401.551 93.4036H403.58V91.3027H408.544V93.3993H410.573V89.6578H409.635V82.5755H403.665L403.392 86.2701C403.234 88.4775 402.761 89.2488 402.152 89.6578H401.551V93.4036ZM404.573 89.6578C404.977 88.9718 405.305 87.9363 405.421 86.2701L405.557 84.2885H407.607V89.6578H404.573ZM418.762 91.3027V82.5755H415.157C413.197 82.5755 411.974 83.6877 411.974 85.4817C411.974 86.6877 412.528 87.5442 413.486 87.9789L411.675 91.3027H413.976L415.57 88.3155H416.653V91.3027H418.762ZM416.653 86.6536H415.613C414.667 86.6536 414.16 86.2914 414.16 85.4817C414.16 84.6721 414.667 84.2757 415.613 84.2757H416.653V86.6536ZM420.4 84.2885H423.05V91.3027H425.13V84.2885H427.776V82.5755H420.4V84.2885ZM431.554 85.6522V82.5755H429.449V91.3027H432.709C434.844 91.3027 436.22 90.1351 436.22 88.4434C436.22 86.7473 434.844 85.6522 432.709 85.6522H431.554ZM431.554 87.2885H432.709C433.629 87.2885 434.132 87.7828 434.128 88.4263C434.132 89.0996 433.629 89.6323 432.709 89.6323H431.554V87.2885ZM292.312 105.303H294.421V101.796H297.86V105.303H299.966V96.5755H297.86V100.078H294.421V96.5755H292.312V105.303ZM303.776 105.303L304.352 103.47H307.365L307.94 105.303H310.207L307.262 96.5755H304.454L301.509 105.303H303.776ZM304.855 101.868L305.822 98.7743H305.89L306.862 101.868H304.855ZM311.746 96.5755V105.303H313.536L317.009 100.266H317.065V105.303H319.174V96.5755H317.359L313.924 101.604H313.852V96.5755H311.746ZM316.302 94.2573C316.298 94.6451 316.059 94.9988 315.45 94.9988C314.823 94.9988 314.589 94.6323 314.593 94.2573H313.234C313.229 95.3269 314.086 96.03 315.45 96.03C316.813 96.03 317.67 95.3269 317.674 94.2573H316.302ZM321.539 96.5755V99.3539C321.539 101.361 322.984 102.281 325.187 102.281C325.451 102.281 326.188 102.239 326.696 102.162V105.303H328.75V96.5755H326.696V100.534C326.21 100.598 325.502 100.632 325.187 100.632C324.019 100.632 323.58 100.266 323.58 99.3539V96.5755H321.539ZM332.963 105.303L333.538 103.47H336.551L337.127 105.303H339.394L336.449 96.5755H333.641L330.696 105.303H332.963ZM334.041 101.868L335.009 98.7743H335.077L336.048 101.868H334.041ZM348.445 99.7374C348.232 97.6493 346.676 96.4561 344.567 96.4561C342.24 96.4561 340.429 98.0542 340.429 100.939C340.429 103.811 342.198 105.422 344.567 105.422C346.962 105.422 348.287 103.794 348.445 102.247L346.314 102.235C346.165 103.074 345.534 103.573 344.61 103.573C343.365 103.573 342.581 102.673 342.581 100.939C342.581 99.2729 343.348 98.3056 344.622 98.3056C345.581 98.3056 346.208 98.8638 346.314 99.7374H348.445ZM349.966 98.2885H352.617V105.303H354.697V98.2885H357.343V96.5755H349.966V98.2885ZM361.082 96.5755H358.973V105.303H361.082V96.5755ZM363.471 96.5755V105.303H374.197V96.5755H372.156V103.649H369.88V96.5755H367.843V103.649H365.525V96.5755H363.471ZM376.579 105.303H382.665V103.59H378.689V101.796H382.353V100.078H378.689V98.2885H382.665V96.5755H376.579V105.303ZM385.757 104.323C386.341 104.323 386.857 103.828 386.865 103.215C386.857 102.61 386.341 102.119 385.757 102.119C385.144 102.119 384.641 102.61 384.649 103.215C384.641 103.828 385.144 104.323 385.757 104.323ZM385.757 100.087C386.341 100.087 386.857 99.5925 386.865 98.9789C386.857 98.3738 386.341 97.8837 385.757 97.8837C385.144 97.8837 384.641 98.3738 384.649 98.9789C384.641 99.5925 385.144 100.087 385.757 100.087Z" fill="#666666"/>
</g>
<g clipPath="url(#clip1)">
<path d="M173.836 43.6554L207.804 623.069L458.852 619.608L497.581 42.5015L173.836 43.6554Z" fill="url(#paint27_linear)"/>
<path d="M321.318 459.864H250.902V467.373H321.318V459.864Z" fill="#D6D6D6"/>
<path d="M289.451 473.035H250.902V480.543H289.451V473.035Z" fill="#D6D6D6"/>
<path d="M409.506 459.864H339.09V467.373H409.506V459.864Z" fill="#D6D6D6"/>
<path d="M377.639 473.035H339.09V480.543H377.639V473.035Z" fill="#D6D6D6"/>
<path d="M409.21 420.743H250.902V428.126H409.21V420.743Z" fill="#B3B3B3"/>
<path d="M316.394 437.277V450.612H256.042V437.277H316.394ZM321.534 433.367H250.902V454.523H321.534V433.367Z" fill="#D6D6D6"/>
<path d="M404.07 437.277V450.612H343.718V437.277H404.07ZM409.21 433.367H338.578V454.523H409.21V433.367Z" fill="#D6D6D6"/>
</g>
<defs>
<radialGradient id="paint0_radial" cx="0" cy="0" r="1" gradientUnits="userSpaceOnUse" gradientTransform="translate(224.781 408.582) scale(192.271 192.273)">
<stop stop-color="#1B2C4F"/>
<stop offset="0.65" stop-color="#2C4261"/>
<stop offset="1" stop-color="#374F6D"/>
</radialGradient>
<linearGradient id="paint1_linear" x1="184.613" y1="318.07" x2="146.317" y2="209.746" gradientUnits="userSpaceOnUse">
<stop offset="0.18" stop-color="#FBFAF2"/>
<stop offset="0.44" stop-color="#F2F0E5"/>
<stop offset="0.77" stop-color="#E1DECE"/>
</linearGradient>
<radialGradient id="paint2_radial" cx="0" cy="0" r="1" gradientUnits="userSpaceOnUse" gradientTransform="translate(169.756 269.462) scale(53.2242 53.2247)">
<stop offset="0.06" stop-color="#E30000"/>
<stop offset="0.73" stop-color="#F60000"/>
<stop offset="1" stop-color="#FF0000"/>
</radialGradient>
<radialGradient id="paint3_radial" cx="0" cy="0" r="1" gradientUnits="userSpaceOnUse" gradientTransform="translate(4686 14609.4) scale(1465.19 2099.74)">
<stop stop-color="#1B2C4F"/>
<stop offset="0.65" stop-color="#2C4261"/>
<stop offset="1" stop-color="#374F6D"/>
</radialGradient>
<radialGradient id="paint4_radial" cx="0" cy="0" r="1" gradientUnits="userSpaceOnUse" gradientTransform="translate(7733.33 22803.6) scale(4398.18 12517.5)">
<stop stop-color="#1B2C4F"/>
<stop offset="0.65" stop-color="#2C4261"/>
<stop offset="1" stop-color="#374F6D"/>
</radialGradient>
<linearGradient id="paint5_linear" x1="132.977" y1="173.974" x2="141.198" y2="195.899" gradientUnits="userSpaceOnUse">
<stop offset="0.06" stop-color="#D16E43"/>
<stop offset="0.2" stop-color="#DA8051"/>
<stop offset="0.51" stop-color="#EBA26C"/>
<stop offset="0.77" stop-color="#F6B67C"/>
<stop offset="0.94" stop-color="#FABE82"/>
</linearGradient>
<linearGradient id="paint6_linear" x1="1143.67" y1="1303.3" x2="918.204" y2="1276.53" gradientUnits="userSpaceOnUse">
<stop offset="0.18" stop-color="#FBFAF2"/>
<stop offset="0.44" stop-color="#F2F0E5"/>
<stop offset="0.77" stop-color="#E1DECE"/>
</linearGradient>
<linearGradient id="paint7_linear" x1="1280.9" y1="1684.13" x2="1316.55" y2="1584.05" gradientUnits="userSpaceOnUse">
<stop offset="0.18" stop-color="#FBFAF2"/>
<stop offset="0.44" stop-color="#F2F0E5"/>
<stop offset="0.77" stop-color="#E1DECE"/>
</linearGradient>
<linearGradient id="paint8_linear" x1="245.996" y1="2978.79" x2="255.852" y2="2977.86" gradientUnits="userSpaceOnUse">
<stop offset="0.06" stop-color="#D16E43"/>
<stop offset="0.2" stop-color="#DA8051"/>
<stop offset="0.51" stop-color="#EBA26C"/>
<stop offset="0.77" stop-color="#F6B67C"/>
<stop offset="0.94" stop-color="#FABE82"/>
</linearGradient>
<linearGradient id="paint9_linear" x1="-12670.1" y1="4867.57" x2="-12684.4" y2="4871.01" gradientUnits="userSpaceOnUse">
<stop offset="0.06" stop-color="#D16E43"/>
<stop offset="0.2" stop-color="#DA8051"/>
<stop offset="0.51" stop-color="#EBA26C"/>
<stop offset="0.77" stop-color="#F6B67C"/>
<stop offset="0.94" stop-color="#FABE82"/>
</linearGradient>
<linearGradient id="paint10_linear" x1="107.864" y1="92.3951" x2="126.031" y2="205.845" gradientUnits="userSpaceOnUse">
<stop offset="0.23" stop-color="#8F5724"/>
<stop offset="0.81" stop-color="#562200"/>
</linearGradient>
<linearGradient id="paint11_linear" x1="94.2526" y1="3.71504" x2="110.489" y2="113.004" gradientUnits="userSpaceOnUse">
<stop offset="0.16" stop-color="#8F5724"/>
<stop offset="0.82" stop-color="#562200"/>
</linearGradient>
<linearGradient id="paint12_linear" x1="91.1538" y1="122.22" x2="85.6005" y2="84.8394" gradientUnits="userSpaceOnUse">
<stop offset="0.06" stop-color="#FABE82"/>
<stop offset="0.23" stop-color="#F6B67C"/>
<stop offset="0.49" stop-color="#EBA26C"/>
<stop offset="0.8" stop-color="#DA8051"/>
<stop offset="0.94" stop-color="#D16E43"/>
</linearGradient>
<linearGradient id="paint13_linear" x1="127.733" y1="118.729" x2="118.895" y2="73.38" gradientUnits="userSpaceOnUse">
<stop offset="0.06" stop-color="#FABE82"/>
<stop offset="0.23" stop-color="#F6B67C"/>
<stop offset="0.49" stop-color="#EBA26C"/>
<stop offset="0.8" stop-color="#DA8051"/>
<stop offset="0.94" stop-color="#D16E43"/>
</linearGradient>
<linearGradient id="paint14_linear" x1="102.523" y1="74.0863" x2="111.055" y2="131.513" gradientUnits="userSpaceOnUse">
<stop offset="0.2" stop-color="#FABE82"/>
<stop offset="0.33" stop-color="#FABA80"/>
<stop offset="0.47" stop-color="#F9AD79"/>
<stop offset="0.6" stop-color="#F9996E"/>
<stop offset="0.74" stop-color="#F87C5F"/>
<stop offset="0.86" stop-color="#F75D4F"/>
</linearGradient>
<linearGradient id="paint15_linear" x1="80.3228" y1="73.3739" x2="83.0496" y2="99.5816" gradientUnits="userSpaceOnUse">
<stop offset="0.1" stop-color="#8F5724"/>
<stop offset="0.92" stop-color="#562200"/>
</linearGradient>
<linearGradient id="paint16_linear" x1="-18160.7" y1="16276.6" x2="-18175" y2="16343.1" gradientUnits="userSpaceOnUse">
<stop offset="0.1" stop-color="#8F5724"/>
<stop offset="0.92" stop-color="#562200"/>
</linearGradient>
<linearGradient id="paint17_linear" x1="80.5684" y1="106.439" x2="93.9797" y2="104.447" gradientUnits="userSpaceOnUse">
<stop stop-color="#3FB7DF"/>
<stop offset="0.72" stop-color="#334C7F"/>
</linearGradient>
<linearGradient id="paint18_linear" x1="-17358" y1="1297.25" x2="-17284.2" y2="1297.25" gradientUnits="userSpaceOnUse">
<stop offset="0.1" stop-color="#8F5724"/>
<stop offset="0.92" stop-color="#562200"/>
</linearGradient>
<linearGradient id="paint19_linear" x1="-10162" y1="1656.97" x2="-10136.3" y2="1656.97" gradientUnits="userSpaceOnUse">
<stop stop-color="#3FB7DF"/>
<stop offset="0.72" stop-color="#334C7F"/>
</linearGradient>
<linearGradient id="paint20_linear" x1="-17604.4" y1="988.461" x2="-17528.4" y2="988.461" gradientUnits="userSpaceOnUse">
<stop offset="0.1" stop-color="#8F5724"/>
<stop offset="0.92" stop-color="#562200"/>
</linearGradient>
<linearGradient id="paint21_linear" x1="-18751.6" y1="6629.72" x2="-18525" y2="6606.95" gradientUnits="userSpaceOnUse">
<stop offset="0.2" stop-color="#FABE82"/>
<stop offset="0.33" stop-color="#FABA80"/>
<stop offset="0.47" stop-color="#F9AD79"/>
<stop offset="0.6" stop-color="#F9996E"/>
<stop offset="0.74" stop-color="#F87C5F"/>
<stop offset="0.86" stop-color="#F75D4F"/>
</linearGradient>
<linearGradient id="paint22_linear" x1="200.407" y1="30.0942" x2="489.683" y2="603.881" gradientUnits="userSpaceOnUse">
<stop stop-color="#FBFAF2"/>
<stop offset="0.43" stop-color="#F2F0E5"/>
<stop offset="1" stop-color="#E1DECE"/>
</linearGradient>
<radialGradient id="paint23_radial" cx="0" cy="0" r="1" gradientUnits="userSpaceOnUse" gradientTransform="translate(877.916 1439.86) rotate(8.55005) scale(35.9293 61.8579)">
<stop offset="0.06" stop-color="#D16E43"/>
<stop offset="0.2" stop-color="#DA8051"/>
<stop offset="0.51" stop-color="#EBA26C"/>
<stop offset="0.77" stop-color="#F6B67C"/>
<stop offset="0.94" stop-color="#FABE82"/>
</radialGradient>
<radialGradient id="paint24_radial" cx="0" cy="0" r="1" gradientUnits="userSpaceOnUse" gradientTransform="translate(940.609 1532.22) rotate(8.55011) scale(32.3352 55.5093)">
<stop offset="0.06" stop-color="#D16E43"/>
<stop offset="0.2" stop-color="#DA8051"/>
<stop offset="0.51" stop-color="#EBA26C"/>
<stop offset="0.77" stop-color="#F6B67C"/>
<stop offset="0.94" stop-color="#FABE82"/>
</radialGradient>
<radialGradient id="paint25_radial" cx="0" cy="0" r="1" gradientUnits="userSpaceOnUse" gradientTransform="translate(817.841 1265.51) rotate(8.55009) scale(24.2983 41.9933)">
<stop offset="0.06" stop-color="#D16E43"/>
<stop offset="0.2" stop-color="#DA8051"/>
<stop offset="0.51" stop-color="#EBA26C"/>
<stop offset="0.77" stop-color="#F6B67C"/>
<stop offset="0.94" stop-color="#FABE82"/>
</radialGradient>
<radialGradient id="paint26_radial" cx="0" cy="0" r="1" gradientUnits="userSpaceOnUse" gradientTransform="translate(707.898 1049.48) rotate(8.5501) scale(19.6749 34.6577)">
<stop offset="0.06" stop-color="#D16E43"/>
<stop offset="0.2" stop-color="#DA8051"/>
<stop offset="0.51" stop-color="#EBA26C"/>
<stop offset="0.77" stop-color="#F6B67C"/>
<stop offset="0.94" stop-color="#FABE82"/>
</radialGradient>
<linearGradient id="paint27_linear" x1="200.232" y1="30.3853" x2="489.508" y2="604.172" gradientUnits="userSpaceOnUse">
<stop stop-color="#FBFAF2"/>
<stop offset="0.43" stop-color="#F2F0E5"/>
<stop offset="1" stop-color="#E1DECE"/>
</linearGradient>
<clipPath id="clip0">
<rect width="535" height="420" fill="white" transform="translate(0.476562 0.743164)"/>
</clipPath>
<clipPath id="clip1">
<rect width="324" height="105" fill="white" transform="translate(173.477 420.743)"/>
</clipPath>
</defs>
</svg>
