<svg width="498" height="417" viewBox="0 0 498 417" fill="none" xmlns="http://www.w3.org/2000/svg">
<g style="mix-blend-mode:multiply" opacity="0.1">
<path d="M196.472 180.439C193.087 181.171 189.792 182.262 186.642 183.693C184.199 182.923 180.496 180.564 176.569 177.618C180.076 176.042 183.158 173.667 185.566 170.685C188.619 170.021 191.276 168.201 191.799 164.244C191.799 164.244 177.898 157.052 174.572 153.413C171.247 149.773 152.275 130.402 146.459 130.402C128.641 130.402 92.4229 157.514 88.5548 164.803C84.6868 172.091 78.8605 189.653 74.0812 208.437C69.3019 227.221 68.1677 246.708 65.0558 256.249C61.944 265.791 57.6009 276.555 47.3153 299.864C41.6247 312.708 30.0594 343.075 20.8789 367.588V415.978H90.3677C94.2454 385.66 106.063 297.428 112.665 281.947C119.451 266.118 126.237 262.691 133.633 258.926C135 258.243 136.396 257.549 137.812 256.769L138.694 256.278L139.159 256.009L139.624 255.749L140.381 255.306L140.604 255.181L141.515 254.651L141.641 254.565L142.688 253.939C147.638 250.936 152.415 247.66 156.997 244.128C164.994 237.947 173.167 230.225 178.091 221.82C185.847 208.543 191.663 210.95 195.338 204.605C199.448 200.436 200.388 196.787 209.472 191.617C214.464 188.796 208.667 177.81 196.472 180.439ZM159.323 201.784C159.323 201.784 154.117 202.092 150.443 204.672C146.927 202.813 143.669 200.508 140.749 197.817C140.39 197.48 139.954 197.114 139.469 196.739C145.17 192.175 150.627 186.552 153.681 183.924C159.789 178.686 163.618 191.723 171.131 195.372C170.976 195.574 170.898 195.699 170.898 195.699C170.898 195.699 162.299 197.076 159.323 201.784Z" fill="black"/>
</g>
<path d="M182.608 173.986C180.373 173.986 175.876 171.13 171.049 167.361C177.955 164.379 184.492 155.608 180.665 155.608C175.575 155.608 158.81 140.853 152.952 133.996C147.095 127.138 121.869 141.825 115.585 150.946C115.585 150.946 107.814 170.48 115.585 175.336C113.933 181.504 112.544 190.606 117.527 193.714C125.298 198.571 141.811 179.63 148.125 173.986C154.438 168.343 158.324 183.029 166.386 186.274C174.448 189.518 187.697 173.986 182.608 173.986Z" fill="#E4A880"/>
<path d="M169.048 142.087C165.707 138.289 146.707 118.056 140.879 118.056C123.026 118.056 86.7361 146.371 82.8604 153.996C78.9847 161.621 73.1469 179.941 68.3582 199.562C63.5695 219.183 62.433 239.513 59.3149 249.48C56.1969 259.446 51.8453 270.684 41.5393 295.007C35.8375 308.46 9.67913 390.646 0.480469 416.231H15.0506H84.6768C88.5622 384.575 100.403 292.462 107.018 276.298C113.817 259.786 120.617 256.143 128.028 252.258C133.506 230.966 133.507 220.504 135.119 188.489C131.991 185.429 123.861 180.796 122.987 176.308C120.84 165.225 115.537 155.608 137.878 142.466C137.878 142.466 154.167 152.83 159.102 152.257C159.102 152.257 167.047 157.901 170.758 159.387C174.468 160.873 185.153 162.155 186.299 153.394C186.309 153.394 172.409 145.885 169.048 142.087Z" fill="#F8CFAE"/>
<g style="mix-blend-mode:multiply" opacity="0.1">
<path d="M349.661 29.2554H166.115C158.846 29.2554 152.953 35.1481 152.953 42.4171V314.191C152.953 321.46 158.846 327.352 166.115 327.352H349.661C356.93 327.352 362.823 321.46 362.823 314.191V42.4171C362.823 35.1481 356.93 29.2554 349.661 29.2554Z" fill="black"/>
</g>
<path d="M349.661 23.5146H166.115C158.846 23.5146 152.953 29.4074 152.953 36.6764V308.45C152.953 315.719 158.846 321.612 166.115 321.612H349.661C356.93 321.612 362.823 315.719 362.823 308.45V36.6764C362.823 29.4074 356.93 23.5146 349.661 23.5146Z" fill="#ED1C24"/>
<path d="M350.67 34.2773H165.104V310.84H350.67V34.2773Z" fill="white"/>
<path d="M332.196 84.0298H219.52V93.3547H332.196V84.0298Z" fill="#B3B3B3"/>
<path d="M332.196 100.979H219.52V110.304H332.196V100.979Z" fill="#D6D6D6"/>
<path d="M332.195 117.93H182.607V127.255H332.195V117.93Z" fill="#D6D6D6"/>
<path d="M219.605 34.2773C219.631 35.5305 220.147 36.7237 221.042 37.6009C221.937 38.478 223.141 38.9692 224.394 38.969H291.417C292.671 38.9692 293.874 38.478 294.769 37.6009C295.665 36.7237 296.181 35.5305 296.206 34.2773H219.605Z" fill="#D6D6D6"/>
<path d="M291.38 10.5958H268.243C268.243 7.84958 267.152 5.21586 265.21 3.274C263.268 1.33214 260.634 0.241211 257.888 0.241211C255.142 0.241211 252.508 1.33214 250.566 3.274C248.625 5.21586 247.534 7.84958 247.534 10.5958H224.396C223.123 10.5958 221.903 11.1013 221.003 12.0012C220.103 12.9011 219.598 14.1216 219.598 15.3942V31.6255C219.598 32.8981 220.103 34.1186 221.003 35.0185C221.903 35.9184 223.123 36.4239 224.396 36.4239H291.419C292.692 36.4239 293.912 35.9184 294.812 35.0185C295.712 34.1186 296.218 32.8981 296.218 31.6255V15.3942C296.218 14.7608 296.092 14.1337 295.849 13.5489C295.605 12.9642 295.248 12.4335 294.798 11.9874C294.349 11.5413 293.815 11.1887 293.228 10.9498C292.642 10.711 292.014 10.5907 291.38 10.5958ZM257.888 14.6657C257.083 14.6657 256.296 14.427 255.627 13.9798C254.958 13.5326 254.436 12.897 254.128 12.1533C253.82 11.4096 253.739 10.5913 253.896 9.80177C254.053 9.01228 254.441 8.28709 255.01 7.7179C255.579 7.1487 256.305 6.76108 257.094 6.60404C257.884 6.447 258.702 6.5276 259.446 6.83564C260.189 7.14369 260.825 7.66534 261.272 8.33464C261.719 9.00394 261.958 9.79082 261.958 10.5958C261.956 11.6744 261.526 12.7081 260.763 13.4708C260.001 14.2335 258.967 14.6632 257.888 14.6657Z" fill="#D6D6D6"/>
<path d="M219.598 27.332V31.6254C219.598 32.898 220.103 34.1185 221.003 35.0184C221.903 35.9183 223.123 36.4238 224.396 36.4238H291.419C292.692 36.4238 293.912 35.9183 294.812 35.0184C295.712 34.1185 296.218 32.898 296.218 31.6254V27.332H219.598Z" fill="#CCCCCC"/>
<path d="M206.25 88.8865V105.448H187.464V88.8865H206.25ZM211.107 84.0298H182.607V110.305H211.107V84.0298Z" fill="#D6D6D6"/>
<path d="M332.196 142.932H219.52V152.257H332.196V142.932Z" fill="#B3B3B3"/>
<path d="M332.196 159.882H219.52V169.207H332.196V159.882Z" fill="#D6D6D6"/>
<path d="M332.195 176.832H182.607V186.157H332.195V176.832Z" fill="#D6D6D6"/>
<path d="M249.145 250.421H182.607V259.746H249.145V250.421Z" fill="#D6D6D6"/>
<path d="M219.033 266.779H182.607V276.104H219.033V266.779Z" fill="#D6D6D6"/>
<path d="M332.477 250.421H265.939V259.746H332.477V250.421Z" fill="#D6D6D6"/>
<path d="M302.365 266.779H265.939V276.104H302.365V266.779Z" fill="#D6D6D6"/>
<path d="M206.25 147.789V164.35H187.464V147.789H206.25ZM211.107 142.932H182.607V169.207H211.107V142.932Z" fill="#D6D6D6"/>
<path d="M332.195 201.835H182.607V211.004H332.195V201.835Z" fill="#B3B3B3"/>
<path d="M244.492 222.369V238.93H187.464V222.369H244.492ZM249.349 217.512H182.607V243.787H249.349V217.512Z" fill="#D6D6D6"/>
<path d="M327.34 222.369V238.93H270.312V222.369H327.34ZM332.196 217.512H265.455V243.787H332.196V217.512Z" fill="#D6D6D6"/>
<path d="M213.603 84.9619L196.799 101.757L188.037 92.995" stroke="#494545" stroke-width="5.79" stroke-linecap="round" stroke-linejoin="round"/>
<path d="M213.603 142.932L196.799 159.736L188.037 150.975" stroke="#494545" stroke-width="5.79" stroke-linecap="round" stroke-linejoin="round"/>
<g style="mix-blend-mode:multiply" opacity="0.1">
<path d="M196.693 180.795C193.302 181.535 190 182.635 186.844 184.078C184.9 183.339 183.057 182.36 181.356 181.164C179.704 182.582 178.024 183.962 176.285 185.273C173.172 187.805 169.727 189.9 166.047 191.499C167.515 193.28 169.313 194.76 171.341 195.861C171.186 196.065 171.108 196.191 171.108 196.191C171.108 196.191 162.453 197.57 159.452 202.32C157.106 202.521 154.809 203.105 152.652 204.049V228.984H152.983V248.187C154.381 247.216 155.8 246.128 157.227 245.011C165.241 238.775 173.429 230.985 178.364 222.505C186.135 209.11 191.963 211.538 195.644 205.137C199.763 200.931 200.705 197.25 209.806 192.034C214.721 189.226 208.913 178.143 196.693 180.795Z" fill="black"/>
</g>
<g style="mix-blend-mode:multiply" opacity="0.1">
<path d="M305.95 313.374L306.086 313.481C306.503 313.821 306.921 314.161 307.349 314.453L307.854 314.831L308.825 315.531L309.408 315.949C309.699 316.172 310 316.386 310.311 316.599L310.894 317.007L311.865 317.658L312.419 318.037L313.555 318.775L313.934 319.018L315.45 319.989L315.926 320.281L316.994 320.922L317.606 321.271L318.577 321.825C318.781 321.951 318.995 322.068 319.209 322.185L320.18 322.719L320.792 323.059L321.841 323.622L322.356 323.894C322.861 324.166 323.327 324.428 323.891 324.691L324.211 324.856L325.445 325.468L326.008 325.749L326.979 326.225L327.591 326.517L328.563 326.954L329.165 327.226L330.136 327.673L330.671 327.906L331.914 328.459L332.147 328.557L333.585 329.178L334.051 329.373L335.022 329.771L335.547 329.984L336.421 330.334L336.946 330.548L337.791 330.878L338.286 331.072L339.257 331.432L339.588 331.558L340.831 332.015L341.093 332.112L342.006 332.442L342.434 332.588L343.143 332.84L343.57 332.986L344.231 333.219L344.629 333.345L345.309 333.569L345.6 333.666L346.572 333.967C356.635 337.143 364.726 336.881 376.761 354.239C384.163 365.274 395.819 395.56 403.23 416.23H483.454C471.215 397.775 453.799 371.723 444.551 358.659C429.33 337.163 422.706 327.148 417.548 318.105C414.401 312.578 411.156 303.117 407.087 292.471C407.145 292.326 407.194 292.176 407.232 292.024C407.961 289.334 406.747 286.672 404.532 285.934C402.589 281.145 400.51 276.22 398.16 271.441C389.321 253.365 379.704 236.755 374.352 230.169C371.001 226.079 361.666 226.41 353.313 226.283H353.177L350.952 226.215H350.7H349.728H349.466L348.495 226.147H348.301L347.378 226.07H347.164L346.387 225.982H346.066L345.309 225.866H345.027L344.347 225.73L344.036 225.671L343.395 225.516L343.104 225.448L342.55 225.273L342.23 225.176C342.074 225.127 341.938 225.059 341.793 225.001L341.423 224.865C341.171 224.749 340.928 224.632 340.695 224.496L339.986 224.088L339.665 223.894L339.218 223.622L338.801 223.36L338.393 223.107L337.878 222.777L337.538 222.553L336.975 222.184L336.625 221.961L335.984 221.533C335.88 221.474 335.779 221.41 335.683 221.339L334.935 220.844L334.702 220.688L333.73 220.028C325.367 214.414 314.303 206.72 310.02 207.643C304.376 208.867 292.341 234.025 289.893 238.425C288.155 241.543 281.608 247.595 277.936 250.849C277.768 250.942 277.622 251.072 277.509 251.228L275.916 252.626L267.96 251.733C267.275 251.542 266.561 251.479 265.853 251.548C265.438 251.593 265.041 251.74 264.697 251.976C264.523 252.097 264.366 252.24 264.23 252.403L264.172 252.49L261.588 252.199C260.938 252.044 260.364 252.102 260.16 252.869C259.956 253.637 260.413 253.967 261.064 254.161L263.444 255.2C263.628 256.57 264.813 257.299 266.358 257.745L274.702 261.388L274.41 262.466C274.358 262.61 274.334 262.762 274.341 262.915C274.348 263.067 274.385 263.217 274.45 263.355C274.515 263.493 274.607 263.617 274.72 263.72C274.833 263.822 274.966 263.901 275.11 263.952L277.606 264.623C277.847 264.67 278.098 264.636 278.318 264.525C278.538 264.414 278.714 264.233 278.82 264.011L279.15 264.108C277.81 265.458 277.208 267.362 278.004 269.887C280.918 279.727 271.797 280.863 275.042 287.77C281.452 301.446 286.231 292.626 299.16 307.197C301.249 309.514 303.523 311.658 305.959 313.608L305.95 313.374ZM292.516 254.987C293.041 254.579 293.633 254.083 294.235 253.549C294.57 254.348 295.029 255.089 295.595 255.744L292.516 254.987ZM325.202 258.27C327.861 256.21 330.346 253.936 332.633 251.47C332.873 251.932 333.09 252.405 333.284 252.889C329.767 257.065 325.639 261.262 325.639 261.262C325.854 262.02 326.164 262.748 326.562 263.428L316.528 260.941C319.607 260.821 322.599 259.889 325.202 258.241V258.27ZM309.029 256.327C309.614 257.752 310.633 258.955 311.943 259.766L304.386 257.901C305.997 257.581 307.558 257.048 309.029 256.317V256.327ZM300.51 278.969C301.375 276.097 301.458 273.046 300.753 270.13L328.126 278.008C326.505 280.001 324.725 281.859 322.803 283.564C322.747 283.605 322.695 283.65 322.647 283.7L322.579 283.748C322.307 283.632 322.045 283.525 321.773 283.428L321.482 283.331L320.928 283.156L320.598 283.068L320.083 282.942L319.753 282.874L319.228 282.777H318.927L318.383 282.699H318.13H317.557H317.373H316.751H316.644H315.974C315.065 282.694 314.156 282.749 313.254 282.864C309.272 278.532 300.51 278.96 300.51 278.96V278.969Z" fill="black"/>
</g>
<path d="M331.71 216.026V209.732H312.487C310.34 213.229 309.106 215.667 308.495 216.774C306.037 221.194 294.012 231.48 294.012 231.48C296.926 239.805 307.144 236.289 310.437 234.054C313.73 231.82 320.306 224.632 320.306 224.632C320.627 224.603 335.381 214.414 331.71 216.026Z" fill="#E4A880"/>
<path d="M346.505 218.765V209.732H329.02C325.757 214.715 324.047 218.134 323.28 219.523C320.822 223.943 308.797 234.22 308.797 234.22C311.711 242.544 321.929 239.076 325.232 236.794C328.535 234.511 335.101 227.372 335.101 227.372C335.383 227.342 350.167 217.153 346.505 218.765Z" fill="#E4A880"/>
<path d="M357.248 224.341V209.771H345.825C342.775 214.692 340.084 219.828 337.773 225.137C335.713 229.547 325.641 239.834 325.641 239.834C328.108 248.158 336.636 244.642 339.405 242.408C342.173 240.174 347.671 232.986 347.671 232.986C347.933 232.918 360.298 222.728 357.248 224.341Z" fill="#E4A880"/>
<path d="M275.439 231.393C275.439 231.393 287.464 221.106 289.922 216.687C292.379 212.267 304.404 186.992 310.048 185.759C315.691 184.525 333.36 198.522 340.723 202.699C348.086 206.876 368.95 201.98 374.351 208.595C379.752 215.21 389.32 231.908 398.159 250.062C406.998 268.217 412.399 287.867 417.586 296.949C422.773 306.031 429.368 316.094 444.589 337.687C459.81 359.28 497.071 416.23 497.071 416.23H410.437C410.437 416.23 388.591 350.694 376.566 333.268C364.54 315.842 356.439 316.094 346.376 312.869C336.313 309.645 312.107 300.31 299.169 285.73C286.23 271.15 281.461 279.97 275.05 266.235C271.806 259.3 280.956 258.153 278.013 248.265C275.07 238.377 292.097 237.969 296.954 242.923C299.198 245.205 302.782 248.537 300.509 257.58C300.509 257.58 309.251 257.153 313.224 261.33C313.224 261.33 318.392 260.533 322.559 262.408C322.559 262.408 335.08 251.995 334.837 240.708C334.594 229.421 331.388 224.049 313.224 215.453C313.224 215.453 306.687 224.049 301.733 224.535C301.733 224.535 295.167 231.723 291.864 233.967C288.562 236.211 278.382 239.707 275.439 231.393Z" fill="#F8CFAE"/>
<path opacity="0.1" d="M400.813 274.229L393.178 271.801L393.09 271.49L392.984 271.199C392.935 271.063 392.886 270.927 392.828 270.791C392.77 270.655 392.741 270.587 392.692 270.48L392.517 270.111C392.401 269.907 392.284 269.703 392.158 269.509L391.983 269.256L391.731 268.906L391.517 268.673C391.429 268.566 391.332 268.46 391.235 268.362L391.012 268.139L390.691 267.867L390.458 267.673L390.089 267.42L389.846 267.265L389.419 267.041L389.195 266.925C388.972 266.828 388.739 266.74 388.506 266.663L333.625 249.178C333.662 248.879 333.599 248.576 333.446 248.316C333.293 248.056 333.059 247.854 332.779 247.741L329.399 246.595C329.089 246.512 328.76 246.54 328.468 246.672C328.175 246.805 327.938 247.035 327.796 247.323L266.961 227.984C267.002 227.713 266.952 227.436 266.818 227.196C266.684 226.957 266.475 226.769 266.223 226.662L263.483 225.74C263.316 225.699 263.142 225.692 262.971 225.719C262.801 225.746 262.637 225.806 262.49 225.897C262.343 225.987 262.215 226.105 262.114 226.245C262.013 226.385 261.94 226.543 261.9 226.711L261.502 227.896L251.487 226.119C250.915 225.862 250.294 225.729 249.666 225.729C249.038 225.729 248.418 225.862 247.845 226.119C247.606 226.264 247.393 226.448 247.213 226.662L244.358 226.157C243.639 225.924 242.998 225.953 242.716 226.798C242.434 227.644 242.92 228.052 243.629 228.304L246.232 229.732C246.339 231.286 247.612 232.189 249.273 232.792L258.306 237.464L257.908 238.649C257.771 238.967 257.766 239.327 257.893 239.649C258.021 239.971 258.27 240.23 258.588 240.368L261.317 241.34C261.585 241.412 261.868 241.393 262.123 241.285C262.378 241.178 262.59 240.988 262.726 240.747L322.775 262.36C322.714 262.675 322.764 263.002 322.916 263.285C323.068 263.568 323.313 263.79 323.61 263.914L326.99 265.06C327.281 265.138 327.59 265.118 327.869 265.004C328.148 264.89 328.382 264.688 328.535 264.428L382.716 283.933C383.863 284.309 385.085 284.393 386.272 284.178C387.46 283.962 388.574 283.454 389.516 282.7L391.672 283.477L397.044 285.419C399.647 286.391 402.639 284.584 403.688 281.485C404.737 278.387 403.445 275.065 400.813 274.229Z" fill="black"/>
<g opacity="0.1">
<path opacity="0.1" d="M350.32 307.44C344.434 305.429 324.92 298.571 305.949 292.219C319.315 303.127 337.877 310.228 346.377 312.918C356.44 316.114 364.531 315.832 376.566 333.317C388.601 350.801 410.437 416.231 410.437 416.231H416.79C416.79 416.231 392.506 348.159 380.51 329.373C368.514 310.587 360.384 310.859 350.32 307.44Z" fill="black"/>
</g>
<path d="M397.762 274.035L409.418 277.386C412.079 278.153 414.945 276.201 415.8 273.044C416.654 269.887 415.139 266.75 412.458 266.089L400.744 263.175L397.762 274.035Z" fill="#7F7F7F"/>
<path d="M397.762 274.035L409.418 277.386C412.079 278.153 414.945 276.201 415.8 273.044C416.654 269.887 415.139 266.75 412.458 266.089L400.744 263.175L397.762 274.035Z" fill="#7F7F7F"/>
<path d="M397.762 274.035L409.418 277.386C412.079 278.153 414.945 276.201 415.8 273.044C416.654 269.887 415.139 266.75 412.458 266.089L400.744 263.175L397.762 274.035Z" fill="#7F7F7F"/>
<path d="M407.085 270.703C407.632 268.733 407.568 266.643 406.9 264.71L400.723 263.166L397.809 274.035L403.918 275.803C405.464 274.461 406.568 272.684 407.085 270.703Z" fill="#666666"/>
<path d="M252.652 230.344L256.042 231.83L256.926 228.566L253.235 228.149C252.516 227.974 251.875 228.042 251.642 228.897C251.409 229.751 251.933 230.14 252.652 230.344Z" fill="#7F7F7F"/>
<path d="M258.539 234.365L268.971 238.94L271.671 228.906L260.345 227.634C258.111 227.07 256.149 227.294 255.44 229.916C254.731 232.539 256.324 233.724 258.539 234.365Z" fill="#7F7F7F"/>
<path d="M270.155 234.589L271.67 228.945L260.344 227.673C258.11 227.109 256.148 227.333 255.439 229.955C255.383 230.169 255.344 230.387 255.322 230.606L270.155 234.589Z" fill="#666666"/>
<path d="M270.848 240.931L394.966 276.871C399.085 278.066 403.524 275.035 404.845 270.14C406.166 265.244 403.874 260.426 399.678 259.358L274.286 228.119L270.848 240.931Z" fill="#7F7F7F"/>
<path d="M405.172 268.148C405.492 263.981 403.278 260.222 399.674 259.319L274.283 228.119L273.078 232.646L405.172 268.148Z" fill="#666666"/>
<path d="M353.846 256.385C353.687 256.971 353.765 257.596 354.063 258.125C354.361 258.654 354.856 259.044 355.439 259.212L395.867 270.868C396.617 270.957 397.374 270.773 398 270.35C398.626 269.926 399.078 269.292 399.275 268.563C399.472 267.833 399.4 267.057 399.072 266.377C398.744 265.696 398.182 265.156 397.489 264.856L356.644 254.686C356.054 254.54 355.431 254.632 354.908 254.94C354.385 255.249 354.004 255.75 353.846 256.337V256.385Z" fill="#4A4A4A"/>
<path d="M339.415 243.117L342.863 244.088C343.225 244.222 343.519 244.492 343.683 244.841C343.846 245.19 343.866 245.59 343.737 245.953L339.852 260.436C339.781 260.814 339.564 261.149 339.247 261.367C338.93 261.585 338.54 261.67 338.162 261.602L334.713 260.679C334.353 260.543 334.061 260.272 333.897 259.924C333.734 259.576 333.713 259.177 333.839 258.814L337.725 244.331C337.754 244.139 337.821 243.956 337.923 243.79C338.024 243.625 338.157 243.482 338.315 243.369C338.472 243.256 338.65 243.175 338.839 243.132C339.028 243.089 339.224 243.084 339.415 243.117Z" fill="#4A4A4A"/>
<path d="M272.293 226.507L275.091 227.255C275.413 227.378 275.675 227.62 275.821 227.932C275.968 228.243 275.988 228.6 275.878 228.926L272.614 241.029C272.584 241.197 272.52 241.358 272.428 241.502C272.335 241.646 272.215 241.77 272.074 241.868C271.933 241.965 271.775 242.034 271.607 242.07C271.44 242.106 271.267 242.109 271.099 242.078L268.311 241.33C267.988 241.209 267.724 240.967 267.577 240.655C267.43 240.343 267.411 239.985 267.524 239.659L270.778 227.556C270.842 227.217 271.037 226.917 271.32 226.72C271.604 226.524 271.954 226.447 272.293 226.507Z" fill="#4A4A4A"/>
<path d="M302.704 257.648C301.393 257.571 300.509 257.648 300.509 257.648C302.752 248.605 299.197 245.273 296.954 242.991C292.097 238.037 275.059 238.455 278.012 248.333C280.965 258.212 271.805 259.368 275.05 266.303C281.461 280.038 286.24 271.208 299.168 285.798C300.266 287.032 301.451 288.226 302.704 289.382V257.648Z" fill="#F8CFAE"/>
<path d="M302.707 193.588C297.336 201.767 291.546 213.773 289.924 216.687C287.467 221.106 275.441 231.393 275.441 231.393C278.355 239.707 288.574 236.249 291.867 233.967C295.16 231.684 301.736 224.535 301.736 224.535C302.064 224.497 302.389 224.433 302.707 224.341V193.588Z" fill="#F8CFAE"/>
<path opacity="0.1" d="M333.758 198.211C333.981 198.357 341.684 205.011 359.605 212.51C377.527 220.008 358.246 204.739 358.246 204.739C351.446 204.613 344.404 204.787 340.761 202.709C338.916 201.669 336.478 200.047 333.758 198.211Z" fill="black"/>
<path opacity="0.1" d="M313.253 215.453C311.773 214.053 310.707 212.271 310.174 210.305C310.174 210.305 309.611 215.715 311.33 217.755L313.253 215.453Z" fill="black"/>
<path opacity="0.1" d="M275.051 266.264C275.051 266.264 277.751 259.183 284.133 259.329C284.133 259.329 276.362 263.311 275.711 267.614L275.051 266.264Z" fill="black"/>
<path d="M190.99 170.334C181.5 172.315 172.924 177.359 166.58 184.69C166.376 184.933 166.172 185.186 165.978 185.448C165.58 185.972 165.376 186.273 165.376 186.273C165.376 186.273 156.721 187.701 153.719 192.616C153.719 192.616 148.503 192.937 144.822 195.647C141.284 193.697 138.018 191.29 135.108 188.488C122.17 206.575 119.217 231.801 128.017 252.257C129.387 251.538 130.786 250.82 132.204 250.004C141.364 244.758 163.044 230.48 172.602 213.491C180.373 199.639 186.201 202.155 189.883 195.521C194.001 191.169 194.943 187.361 204.045 181.922C209.008 179.056 203.2 167.565 190.99 170.334Z" fill="#F8CFAE"/>
<path opacity="0.1" d="M197.77 175.22C191.554 177.036 185.007 182.165 186.328 183.641C187.649 185.118 193.788 190.79 195.4 189.1C197.013 187.41 205.687 183.884 203.424 179.94C201.16 175.997 199.606 174.695 197.77 175.22Z" fill="white"/>
<g opacity="0.1">
<path opacity="0.1" d="M179.859 192.82C180.978 192.908 182.076 193.17 183.113 193.597C184.136 194.01 185.112 194.527 186.027 195.142C186.945 195.756 187.795 196.465 188.563 197.259C189.345 198.062 190 198.979 190.505 199.979C189.502 199.534 188.529 199.024 187.591 198.454C186.688 197.9 185.804 197.337 184.93 196.754C184.056 196.171 183.211 195.569 182.356 194.928C181.48 194.278 180.647 193.574 179.859 192.82Z" fill="black"/>
</g>
<path opacity="0.1" d="M88.223 321.602C84.0171 352.122 76.188 397.59 73.0117 416.231H84.6679C88.5533 384.574 100.394 292.461 107.009 276.298C113.808 259.785 120.608 256.143 128.019 252.257C129.389 251.539 130.787 250.82 132.206 250.004C138.95 246.092 145.389 241.676 151.467 236.793C129.214 245.196 113.925 251.781 106.3 259.329C101.89 263.729 93.41 283.719 88.223 321.602Z" fill="black"/>
<path d="M184.925 69.0015H187.434L184.059 64.6057L187.267 60.6735H184.75L182.172 63.9063H181.851V60.6735H179.838V69.0015H181.851V65.5451H182.306L184.925 69.0015Z" fill="#666666"/>
<path d="M196.11 64.8375C196.11 62.0846 194.369 60.5597 192.133 60.5597C189.888 60.5597 188.16 62.0846 188.16 64.8375C188.16 67.5783 189.888 69.1154 192.133 69.1154C194.369 69.1154 196.11 67.5905 196.11 64.8375ZM194.052 64.8375C194.052 66.4682 193.336 67.3506 192.133 67.3506C190.933 67.3506 190.213 66.4682 190.213 64.8375C190.213 63.2069 190.933 62.3245 192.133 62.3245C193.336 62.3245 194.052 63.2069 194.052 64.8375Z" fill="#666666"/>
<path d="M197.496 69.0015H198C200.057 69.0015 200.769 67.8711 200.907 65.0164L201.037 62.2594H203.075V69.0015H205.022V60.6735H199.179L199.045 64.2764C198.964 66.5495 198.598 67.2936 197.723 67.3994L197.496 67.4238V69.0015Z" fill="#666666"/>
<path d="M206.851 69.0015H212.657V67.3668H208.863V65.6549H212.36V64.0161H208.863V62.3082H212.657V60.6735H206.851V69.0015Z" fill="#666666"/>
<path d="M219.578 69.0015H222.086L218.711 64.6057L221.92 60.6735H219.403L216.825 63.9063H216.503V60.6735H214.49V69.0015H216.503V65.5451H216.959L219.578 69.0015Z" fill="#666666"/>
<path d="M223.122 62.3082H225.651V69.0015H227.635V62.3082H230.161V60.6735H223.122V62.3082Z" fill="#666666"/>
<path d="M231.716 60.6735V69.0015H233.424L236.738 64.195H236.791V69.0015H238.804V60.6735H237.072L233.794 65.4719H233.725V60.6735H231.716Z" fill="#666666"/>
<path d="M240.642 69.0015H244.379C246.221 69.0015 247.278 68.0174 247.278 66.6715C247.278 65.4678 246.404 64.7115 245.396 64.6667V64.5854C246.311 64.3943 246.953 63.7315 246.953 62.7799C246.953 61.5234 245.985 60.6735 244.115 60.6735H240.642V69.0015ZM242.655 67.379V65.3946H243.936C244.704 65.3946 245.176 65.8013 245.176 66.4397C245.176 67.0293 244.769 67.379 243.899 67.379H242.655ZM242.655 64.0974V62.2716H243.802C244.473 62.2716 244.9 62.6173 244.9 63.1703C244.9 63.7559 244.428 64.0974 243.769 64.0974H242.655Z" fill="#666666"/>
<path d="M248.819 69.0015H250.832V65.6549H254.113V69.0015H256.122V60.6735H254.113V64.0161H250.832V60.6735H248.819V69.0015Z" fill="#666666"/>
<path d="M257.957 60.6735V69.0015H259.665L262.979 64.195H263.032V69.0015H265.045V60.6735H263.313L260.035 65.4719H259.966V60.6735H257.957Z" fill="#666666"/>
<path d="M266.883 60.6735V69.0015H268.591L271.905 64.195H271.958V69.0015H273.971V60.6735H272.239L268.961 65.4719H268.892V60.6735H266.883ZM271.23 58.4614C271.226 58.8315 270.998 59.169 270.417 59.169C269.819 59.169 269.595 58.8193 269.599 58.4614H268.302C268.298 59.4821 269.116 60.153 270.417 60.153C271.718 60.153 272.535 59.4821 272.539 58.4614H271.23Z" fill="#666666"/>
<path d="M278.48 71.0062H280.415V69.0015H285.153V71.0022H287.088V67.4319H286.194V60.6735H280.497L280.237 64.1991C280.086 66.3055 279.635 67.0415 279.053 67.4319H278.48V71.0062ZM281.363 67.4319C281.749 66.7772 282.062 65.7891 282.172 64.1991L282.302 62.3082H284.258V67.4319H281.363Z" fill="#666666"/>
<path d="M296.444 64.8375C296.444 62.0846 294.704 60.5597 292.467 60.5597C290.223 60.5597 288.495 62.0846 288.495 64.8375C288.495 67.5783 290.223 69.1154 292.467 69.1154C294.704 69.1154 296.444 67.5905 296.444 64.8375ZM294.387 64.8375C294.387 66.4682 293.671 67.3506 292.467 67.3506C291.268 67.3506 290.548 66.4682 290.548 64.8375C290.548 63.2069 291.268 62.3245 292.467 62.3245C293.671 62.3245 294.387 63.2069 294.387 64.8375Z" fill="#666666"/>
<path d="M303.881 60.6735H298.192V69.0015H300.205V62.3082H303.881V60.6735Z" fill="#666666"/>
<path d="M312.921 64.8375C312.921 62.0846 311.18 60.5597 308.944 60.5597C306.699 60.5597 304.971 62.0846 304.971 64.8375C304.971 67.5783 306.699 69.1154 308.944 69.1154C311.18 69.1154 312.921 67.5905 312.921 64.8375ZM310.863 64.8375C310.863 66.4682 310.147 67.3506 308.944 67.3506C307.744 67.3506 307.024 66.4682 307.024 64.8375C307.024 63.2069 307.744 62.3245 308.944 62.3245C310.147 62.3245 310.863 63.2069 310.863 64.8375Z" fill="#666666"/>
<path d="M314.668 69.0015H318.406C320.248 69.0015 321.305 68.0174 321.305 66.6715C321.305 65.4678 320.431 64.7115 319.422 64.6667V64.5854C320.337 64.3943 320.98 63.7315 320.98 62.7799C320.98 61.5234 320.012 60.6735 318.141 60.6735H314.668V69.0015ZM316.681 67.379V65.3946H317.962C318.731 65.3946 319.203 65.8013 319.203 66.4397C319.203 67.0293 318.796 67.379 317.926 67.379H316.681ZM316.681 64.0974V62.2716H317.828C318.499 62.2716 318.926 62.6173 318.926 63.1703C318.926 63.7559 318.454 64.0974 317.796 64.0974H316.681Z" fill="#666666"/>
<path d="M324.858 60.6735H322.845V69.0015H324.858V60.6735Z" fill="#666666"/>
<path d="M326.694 69.0015H328.707V66.4153H330.073C331.981 66.4153 333.172 65.2848 333.172 63.5566C333.172 61.8447 332.005 60.6735 330.134 60.6735H326.694V69.0015ZM328.707 64.8294V62.296H329.699C330.602 62.296 331.086 62.784 331.086 63.5566C331.086 64.3252 330.602 64.8294 329.699 64.8294H328.707Z" fill="#666666"/>
</svg>
