<svg width="21" height="19" viewBox="0 0 21 19" fill="none" xmlns="http://www.w3.org/2000/svg">
<path d="M15.3954 0.666016C16.7592 0.666016 18.071 1.205 19.0361 2.17213C20.0022 3.13722 20.5422 4.43892 20.5422 5.80164V13.8356C20.5422 16.6729 18.2337 18.9712 15.3954 18.9712H5.34892C2.5106 18.9712 0.203125 16.6729 0.203125 13.8356V5.80164C0.203125 2.96434 2.50043 0.666016 5.34892 0.666016H15.3954ZM16.5456 5.95418C16.332 5.943 16.1286 6.0152 15.9751 6.15758L11.3896 9.81862C10.7998 10.3078 9.95471 10.3078 9.35573 9.81862L4.77943 6.15758C4.46315 5.92368 4.02586 5.95418 3.76247 6.22876C3.48789 6.50334 3.45738 6.94063 3.69027 7.24572L3.82349 7.37792L8.45063 10.9881C9.02013 11.4356 9.71064 11.6796 10.4337 11.6796C11.1547 11.6796 11.8574 11.4356 12.4259 10.9881L17.0134 7.31691L17.0948 7.23555C17.3378 6.94063 17.3378 6.51351 17.0836 6.21859C16.9422 6.06707 16.748 5.97452 16.5456 5.95418Z" fill="#ED1C24"/>
</svg>
