<svg width="265" height="329" viewBox="0 0 265 329" fill="none" xmlns="http://www.w3.org/2000/svg">
<path d="M264.926 320.226C264.926 320.226 205.752 328.382 132.792 328.382C59.8326 328.382 0.6875 320.226 0.6875 320.226C0.6875 320.226 59.8326 312.07 132.792 312.07C205.752 312.07 264.926 320.226 264.926 320.226Z" fill="#E0E0E0"/>
<path d="M60.8372 325.164L61.5544 326.081H78.0903C77.9509 324.606 75.7394 322.654 73.0499 321.419C71.4874 320.648 69.7714 320.24 68.0293 320.223C68.0293 320.223 60.9368 320.024 60.2196 322.216C59.5023 324.407 60.8372 325.164 60.8372 325.164Z" fill="#A15900"/>
<path d="M69.7813 324.706C70.063 323.959 70.4998 323.279 71.0629 322.713C71.6261 322.146 72.3028 321.705 73.0486 321.419C75.7382 322.654 77.9496 324.607 78.0891 326.081H61.5532L60.8359 325.164L69.7813 324.706Z" fill="#DDDEB9"/>
<path d="M87.1368 212.381C86.9177 218.637 83.6304 237.225 75.6214 264.34C67.6124 291.455 66.7956 312.015 67.6523 313.251C68.509 314.486 70.7403 314.884 70.322 316.319C69.7432 317.737 68.9868 319.076 68.0707 320.303C68.0707 320.303 62.0938 321.539 60.8785 325.244C58.4081 324.407 56.5553 322.575 56.894 320.722C57.2327 318.869 60.8785 317.634 59.982 316C59.0855 314.366 56.894 316.398 56.894 313.53C56.894 310.661 59.3644 309.007 59.7629 303.668C60.1613 298.328 60.3805 280.458 61.4164 266.89C62.4524 253.323 64.0861 234.436 64.0861 234.436C64.0861 234.436 49.0842 267.926 42.171 282.251C35.2578 296.575 29.6395 307.314 29.6395 309.147C29.6395 310.979 31.2931 313.131 30.2571 314.705C29.2212 316.279 28.0059 316.139 26.9699 317.773C26.3645 318.755 26.1444 319.926 26.3523 321.06L17.1081 324.567C16.5434 323.565 16.2611 322.429 16.2912 321.28C16.2912 319.287 19.3793 318.61 18.7617 316.956C18.1441 315.303 15.6736 316.757 17.3272 313.47C18.9808 310.183 19.9371 315.243 24.5194 299.285C30.6252 277.128 35.0212 254.536 37.6684 231.707C39.4615 213.617 40.6967 197.399 40.6967 197.399H87.5353L87.1368 212.381Z" fill="url(#paint0_linear)"/>
<path d="M71.9378 208.696L69.069 225.112L65.1641 226.148L67.8337 208.477L71.9378 208.696Z" fill="url(#paint1_linear)"/>
<path d="M88.3109 200.667C80.9195 207.242 48.0469 205.289 39.5199 201.085C39.0943 202.265 38.9911 203.538 39.2211 204.771C48.4414 206.295 57.7678 207.088 67.113 207.142C81.9157 207.142 88.1715 203.954 88.1715 203.954L88.3109 200.667Z" fill="#9E5E00"/>
<path d="M82.3122 200.069L82.2126 207.242L80.1406 207.859V200.567L82.3122 200.069Z" fill="url(#paint2_linear)"/>
<path d="M54.5818 201.703L54.8806 207.56L51.8125 207.141L52.7289 201.384L54.5818 201.703Z" fill="url(#paint3_linear)"/>
<path d="M72.4526 203.954L72.353 208.078H67.3125L67.8305 204.273L72.4526 203.954Z" fill="#BFC9A8"/>
<path d="M82.0979 120.537C85.2855 125.279 90.067 142.452 92.2585 163.491C94.45 184.529 100.487 199.232 98.0162 207.859C95.5458 216.485 89.5889 217.322 89.5889 217.322L87.1384 212.401L87.5368 197.399C87.5368 197.399 79.1095 189.988 78.3524 174.787C77.5953 159.586 77.1172 123.426 77.1172 123.426L82.0979 120.537Z" fill="url(#paint4_radial)"/>
<path d="M12.9648 128.347C12.9648 128.347 30.0188 127.67 33.306 145.003C42.5502 162.455 41.7334 191.004 41.2752 192.04C40.817 193.076 37.2906 198.197 39.2829 199.432C41.2752 200.667 54.8426 203.755 66.7963 203.815C67.912 203.815 69.0277 203.815 70.1035 203.815L72.315 203.655C83.412 202.699 89.2095 198.974 89.2095 197.24C89.2095 195.507 85.2249 192.1 84.8863 190.447C84.5476 188.793 82.0174 146.078 80.5829 137.352C81.8181 133.965 83.5514 121.414 82.117 120.597C80.6825 119.78 64.1864 115.258 64.1864 115.258L37.3105 115.716L12.9648 128.347Z" fill="url(#paint5_linear)"/>
<path d="M16.2461 326.081H30.3116C30.2136 324.879 29.7622 323.732 29.0143 322.786C28.2663 321.839 27.2551 321.135 26.1079 320.762C25.4586 320.575 24.7903 320.461 24.1156 320.423C18.2981 320.124 16.2461 326.081 16.2461 326.081Z" fill="#A15900"/>
<path d="M18.7005 324.547C19.519 323.345 20.6269 322.368 21.9221 321.706C23.2173 321.045 24.6581 320.72 26.1118 320.761C27.259 321.135 28.2702 321.839 29.0182 322.785C29.7662 323.732 30.2175 324.878 30.3155 326.081H16.25L15.8516 324.547H18.7005Z" fill="#DDDEB9"/>
<path d="M63.1896 108.942C62.7911 105.137 35.0586 104.419 36.5926 110.177C36.9013 111.56 37.3833 112.899 38.0271 114.162C42.948 118.166 64.0263 116.851 63.1896 108.942Z" fill="#BFBDAB"/>
<path d="M42.6434 85.6328C43.9783 97.5865 41.3086 116.234 41.3086 116.234C41.3086 116.234 55.6929 119.422 58.4621 118.804C61.2314 118.187 61.1318 117.25 61.1318 117.25C61.1318 117.25 54.9757 106.372 54.7764 102.667C54.5772 98.9612 43.8786 85.6328 42.6434 85.6328Z" fill="url(#paint6_linear)"/>
<path d="M12.9602 128.347C9.27446 139.862 4.99105 176.56 19.3355 204.054C23.858 212.68 43.5816 226.845 46.2512 212.68C37.6246 201.783 26.7269 182.278 26.7269 182.278L33.3014 145.102C33.5758 142.467 33.2163 139.805 32.2528 137.338C31.2894 134.87 29.7499 132.669 27.7628 130.917C25.8821 128.982 23.4374 127.691 20.7786 127.23C18.1199 126.768 15.3832 127.159 12.9602 128.347Z" fill="url(#paint7_linear)"/>
<path d="M53.8438 118.903C53.8438 118.903 56.5134 124.243 60.8367 150.78C65.1599 177.317 62.4703 190.625 65.14 194.331C68.6265 199.152 67.7499 202.3 66.7737 203.854C67.8893 203.854 69.005 203.854 70.0809 203.854L72.2923 203.695C76.3565 199.113 68.8456 193.415 68.8456 187.438C68.8456 181.461 66.7936 135.638 58.426 118.804L53.8438 118.903Z" fill="url(#paint8_linear)"/>
<path d="M46.2517 212.58L50.8738 215.329C50.8738 215.329 47.0685 221.804 47.0685 221.486C47.0685 221.167 43.7812 217.083 43.7812 217.083L46.2517 212.58Z" fill="url(#paint9_linear)"/>
<path d="M89.587 217.322C88.6072 218.396 87.5483 219.395 86.4192 220.311C86.4192 219.992 84.5664 213.935 84.5664 213.935L87.1365 212.401L89.587 217.322Z" fill="url(#paint10_radial)"/>
<path d="M58.7852 129.662C58.7852 129.906 58.8576 130.145 58.9933 130.348C59.1291 130.551 59.322 130.71 59.5477 130.803C59.7734 130.897 60.0217 130.921 60.2613 130.873C60.501 130.826 60.7211 130.708 60.8938 130.535C61.0665 130.363 61.1842 130.143 61.2319 129.903C61.2795 129.663 61.2551 129.415 61.1616 129.189C61.0681 128.964 60.9098 128.771 60.7066 128.635C60.5035 128.499 60.2647 128.427 60.0204 128.427C59.6928 128.427 59.3786 128.557 59.1469 128.789C58.9153 129.02 58.7852 129.334 58.7852 129.662Z" fill="#A7A28A"/>
<path d="M62.4102 150.062C62.4102 150.307 62.4826 150.545 62.6183 150.749C62.7541 150.952 62.947 151.11 63.1727 151.204C63.3984 151.297 63.6467 151.321 63.8863 151.274C64.126 151.226 64.3461 151.109 64.5188 150.936C64.6915 150.763 64.8092 150.543 64.8569 150.303C64.9045 150.064 64.8801 149.815 64.7866 149.59C64.6931 149.364 64.5348 149.171 64.3316 149.035C64.1285 148.9 63.8897 148.827 63.6454 148.827C63.3178 148.827 63.0036 148.957 62.7719 149.189C62.5403 149.421 62.4102 149.735 62.4102 150.062Z" fill="#A7A28A"/>
<path d="M64.5039 169.707C64.5039 169.951 64.5763 170.19 64.7121 170.393C64.8478 170.596 65.0407 170.755 65.2664 170.848C65.4921 170.942 65.7405 170.966 65.9801 170.918C66.2197 170.871 66.4398 170.753 66.6126 170.58C66.7853 170.408 66.9029 170.187 66.9506 169.948C66.9983 169.708 66.9738 169.46 66.8803 169.234C66.7868 169.008 66.6285 168.816 66.4254 168.68C66.2222 168.544 65.9834 168.472 65.7391 168.472C65.4115 168.472 65.0973 168.602 64.8657 168.833C64.634 169.065 64.5039 169.379 64.5039 169.707Z" fill="#A7A28A"/>
<path d="M65.7422 191.004C65.7422 191.248 65.8146 191.487 65.9504 191.69C66.0861 191.893 66.279 192.051 66.5047 192.145C66.7304 192.238 66.9788 192.263 67.2184 192.215C67.458 192.168 67.6781 192.05 67.8508 191.877C68.0236 191.704 68.1412 191.484 68.1889 191.245C68.2365 191.005 68.2121 190.757 68.1186 190.531C68.0251 190.305 67.8668 190.112 67.6637 189.977C67.4605 189.841 67.2217 189.769 66.9774 189.769C66.6498 189.769 66.3356 189.899 66.104 190.13C65.8723 190.362 65.7422 190.676 65.7422 191.004Z" fill="#A7A28A"/>
<path d="M38.6855 52.461C35.8763 50.4687 26.5525 49.2534 24.9387 50.0902C23.325 50.9269 20.2369 65.2116 21.1733 68.0207C22.1097 70.8298 28.5248 71.0888 29.78 70.7103C31.0351 70.3317 33.6251 67.0644 33.6251 67.0644L38.6855 52.461Z" fill="url(#paint11_linear)"/>
<path d="M34.7185 84.9149C35.7544 87.6045 39.4601 87.8435 43.4247 87.7838C44.6799 95.1951 52.649 105.216 60.5783 103.483C64.5628 102.826 68.388 94.3782 69.7826 85.6719C70.2246 83.0398 70.4048 80.3704 70.3205 77.7028C70.201 75.1925 72.4324 73.7183 72.5917 72.6225C72.5917 72.4631 72.5917 72.1244 72.5917 71.6264C72.7113 68.4188 72.5917 59.0351 69.7229 55.8674C69.7229 55.8674 42.2294 50.6675 41.1734 53.8751C40.1175 57.0827 42.6677 82.305 42.6677 82.305C42.6677 82.305 38.5436 77.1051 36.113 78.0415C33.6825 78.9779 33.7024 82.2253 34.7185 84.9149Z" fill="url(#paint12_linear)"/>
<path d="M62.113 71.8856C62.2326 74.1368 61.6946 81.3688 60.6985 82.8232C59.7024 84.2776 49.5816 81.588 48.7448 77.6233C48.4648 75.9176 48.6336 74.1684 49.2344 72.5476C49.8352 70.9268 50.8474 69.4903 52.1715 68.3792C53.6657 67.7217 61.097 70.2519 62.113 71.8856Z" fill="url(#paint13_linear)"/>
<path d="M64.6426 85.3536L69.7827 85.6724C70.2247 83.0403 70.4049 80.3709 70.3207 77.7032C70.2011 75.193 72.4325 73.7187 72.5919 72.6229C72.5919 72.4635 72.5919 72.1249 72.5919 71.6268L65.579 71.0889C64.0724 73.6158 63.3061 76.5152 63.3676 79.4565C63.2927 81.4979 63.7311 83.5255 64.6426 85.3536Z" fill="url(#paint14_linear)"/>
<path d="M32.5281 65.9086C32.7729 70.2069 34.2228 74.3495 36.7119 77.8623C39.1624 77.7427 42.6888 82.2453 42.6888 82.2453L45.0795 85.1939L43.8841 68.4985C44.9836 66.9479 45.9754 65.3237 46.8526 63.6374C46.8526 63.1592 46.0358 55.469 46.0358 55.469C60.6592 55.9272 64.6437 58.8758 64.6437 58.8758L69.7838 55.9472C65.2215 51.4047 45.6373 45.1291 43.406 46.2248C41.1746 47.3206 31.4523 55.9472 32.5281 65.9086Z" fill="url(#paint15_linear)"/>
<path d="M64.1273 73.8779C63.9318 75.9504 63.8653 78.033 63.9281 80.1138C64.4064 82.0344 65.1366 83.8833 66.0997 85.6125C66.5778 87.0668 64.6254 87.4653 63.2906 87.7442C61.9557 88.0231 59.4255 86.9672 60.9994 85.1941C61.4069 84.7512 61.9723 84.4864 62.5733 84.457C61.8271 80.8577 62.3776 77.1105 64.1273 73.8779Z" fill="url(#paint16_linear)"/>
<path d="M49.6016 74.9931C50.4077 76.2011 51.5409 77.1547 52.8689 77.7425C53.5494 78.0665 54.2558 78.3331 54.9807 78.5394C55.7311 78.8157 56.5353 78.9145 57.3303 78.8281C58.1253 78.7417 58.8895 78.4724 59.563 78.0413C58.2879 73.3196 55.1999 72.0645 53.7256 72.0645C52.8226 72.078 51.9449 72.3652 51.2086 72.8881C50.4723 73.411 49.9119 74.145 49.6016 74.9931Z" fill="url(#paint17_linear)"/>
<path d="M49.6016 74.9937C50.4077 76.2017 51.5409 77.1552 52.8689 77.743C53.5494 78.0671 54.2558 78.3337 54.9807 78.5399C55.7311 78.8162 56.5353 78.915 57.3303 78.8286C58.1253 78.7422 58.8895 78.4729 59.563 78.0419C57.8496 73.5393 54.8014 72.8619 53.3271 72.7822C52.5719 72.8149 51.8365 73.034 51.1865 73.4198C50.5364 73.8057 49.992 74.3464 49.6016 74.9937Z" fill="white"/>
<path d="M69.3287 78.3011C69.3287 78.3011 69.508 73.9977 67.4361 74.0176C65.3641 74.0376 65.0254 77.026 64.9258 79.337C66.3717 78.9051 67.8419 78.5591 69.3287 78.3011Z" fill="url(#paint18_linear)"/>
<path d="M64.9258 79.3365C65.1978 79.6811 65.576 79.9263 66.0016 80.0338C66.6682 80.1338 67.3494 80.0199 67.9472 79.7085C68.545 79.397 69.0286 78.9041 69.3287 78.3005C69.3287 75.4914 67.7548 74.4156 66.679 74.9734L66.3403 75.1926C65.5235 75.87 65.2047 77.2446 64.9258 79.3365Z" fill="white"/>
<path d="M51.4154 75.4122C51.3738 76.0737 51.5798 76.727 51.9932 77.2451C52.6233 77.6356 53.2907 77.9626 53.9855 78.2213C54.6777 78.2503 55.353 78.0032 55.863 77.5343C56.373 77.0654 56.6759 76.4131 56.7049 75.721C56.734 75.0288 56.4869 74.3534 56.018 73.8434C55.5491 73.3334 54.8968 73.0306 54.2046 73.0015C53.7898 72.9684 53.373 73.0342 52.9886 73.1935C52.6041 73.3528 52.263 73.6011 51.9932 73.918C51.6555 74.347 51.4542 74.8675 51.4154 75.4122Z" fill="#562B00"/>
<path d="M64.9258 79.3363C65.1978 79.681 65.576 79.9261 66.0016 80.0336H66.1012C67.0376 80.0336 67.7947 78.9379 67.7947 77.5831C67.8373 77.0819 67.7193 76.5801 67.4578 76.1503C67.1964 75.7205 66.805 75.385 66.3403 75.1924C66.1973 75.3288 66.0641 75.4753 65.9418 75.6307C65.3774 76.7064 65.0384 77.886 64.9457 79.0973C64.9457 79.0973 64.9258 79.2566 64.9258 79.3363Z" fill="#562B00"/>
<path d="M62.5506 70.69L62.1123 71.9651C62.1123 71.9651 53.9638 68.7973 53.3263 68.8173C52.3486 68.9654 51.383 69.1852 50.4375 69.4747C50.4375 69.4747 52.9478 67.1836 53.9439 67.084C56.8996 68.0672 59.7767 69.2727 62.5506 70.69Z" fill="#181B20"/>
<path style="mix-blend-mode:multiply" opacity="0.6" d="M35.9538 81.389C37.1891 78.0619 41.6717 83.8395 41.6717 83.8395C41.6717 83.8395 37.8664 82.7836 39.9783 85.8318C39.3898 85.9288 38.7865 85.8767 38.2234 85.6802C37.6603 85.4838 37.1555 85.1493 36.7552 84.7073C36.3548 84.2653 36.0717 83.7299 35.9317 83.1502C35.7917 82.5706 35.7993 81.965 35.9538 81.389Z" fill="url(#paint19_linear)"/>
<path d="M53.5667 85.1741C53.746 85.453 53.4272 85.6921 53.0885 85.8116C53.9253 87.5648 57.2325 91.4298 61.2768 91.4498C58.3083 93.3026 54.0249 89.836 53.0288 85.8315C52.7499 85.8315 52.451 85.8315 52.3713 85.8315C52.2916 85.8315 53.3874 84.8752 53.5667 85.1741Z" fill="#F76A43"/>
<path d="M65.6406 71.109L67.5134 69.834L73.6894 71.9259L73.1515 73.1013L65.6406 71.109Z" fill="#181B20"/>
<path d="M63.1873 108.942C63.6578 111.005 64.0038 113.094 64.2233 115.198C62.6194 116.862 60.6272 118.101 58.4258 118.804C58.625 117.151 58.7445 111.712 58.7445 111.712C60.4282 111.163 61.9529 110.212 63.1873 108.942Z" fill="url(#paint20_linear)"/>
<path d="M58.4292 118.804C58.4292 118.804 53.6477 113.724 53.0301 113.047C49.7428 113.365 37.9286 113.146 36.5938 110.178C36.6757 112.041 36.9156 113.894 37.311 115.716C37.311 115.716 44.802 121.693 58.4292 118.804Z" fill="url(#paint21_linear)"/>
<path d="M53.2258 213.815C51.7056 218.151 48.9319 221.937 45.2567 224.693C44.141 224.693 43.7227 223.259 43.7227 223.259C47.0185 220.332 49.5839 216.675 51.2136 212.58C51.9199 212.931 52.5933 213.344 53.2258 213.815Z" fill="url(#paint22_linear)"/>
<path d="M83.5257 210.11C85.9961 213.816 87.3309 221.407 87.3309 221.407L85.3387 222.343C85.5095 218.345 84.623 214.373 82.7686 210.828C82.6092 210.529 83.5257 210.11 83.5257 210.11Z" fill="url(#paint23_linear)"/>
<path style="mix-blend-mode:screen" d="M52.2725 75.5317C52.2276 76.0838 52.4039 76.6312 52.7625 77.0534C53.1212 77.4756 53.6329 77.738 54.1851 77.7829C54.7373 77.8279 55.2847 77.6516 55.7069 77.2929C56.129 76.9342 56.3915 76.4225 56.4364 75.8704C56.4839 75.3208 56.3112 74.7749 55.9563 74.3527C55.6014 73.9305 55.0932 73.6666 54.5437 73.6191C53.9942 73.5715 53.4483 73.7442 53.0261 74.0992C52.6039 74.4541 52.34 74.9622 52.2924 75.5117L52.2725 75.5317Z" fill="url(#paint24_linear)"/>
<path style="mix-blend-mode:screen" d="M65.8594 79.3162C65.98 79.4722 66.1336 79.5996 66.3093 79.6892C66.485 79.7787 66.6783 79.8282 66.8754 79.8342C67.7122 79.8342 68.4095 78.9177 68.4095 77.8419C68.4095 76.7661 67.7321 75.8496 66.8954 75.8496C66.6958 76.1581 66.5415 76.4935 66.4371 76.8458C66.1865 77.6546 65.9934 78.4801 65.8594 79.3162Z" fill="url(#paint25_linear)"/>
<path d="M52.2695 73.8778C52.3312 73.9785 52.4156 74.0633 52.5159 74.1256C52.6162 74.1879 52.7297 74.2258 52.8473 74.2364C52.9457 74.2474 53.0454 74.2384 53.1403 74.21C53.2352 74.1816 53.3234 74.1344 53.3996 74.0712C53.4758 74.008 53.5386 73.93 53.584 73.842C53.6295 73.754 53.6567 73.6578 53.6641 73.559C53.6786 73.4677 53.6737 73.3744 53.6496 73.2851C53.6256 73.1959 53.583 73.1127 53.5247 73.041C53.0387 73.2021 52.6051 73.4911 52.2695 73.8778Z" fill="white"/>
<path d="M66.3945 76.7469C66.4395 76.7637 66.489 76.7637 66.534 76.7469C66.6872 76.7469 66.8342 76.6861 66.9425 76.5777C67.0509 76.4694 67.1118 76.3224 67.1118 76.1692C67.1096 76.0774 67.0849 75.9875 67.0397 75.9076C66.9945 75.8277 66.9303 75.7601 66.8528 75.7109C66.6497 76.0317 66.4953 76.3809 66.3945 76.7469Z" fill="white"/>
<path d="M113.417 311.199L114.214 314.247H98.076C98.076 314.247 97.7772 313.37 98.5542 313.092C99.3312 312.813 108.237 312.952 110.229 310.521C111.962 308.609 113.417 311.199 113.417 311.199Z" fill="#563223"/>
<path d="M104.867 217.701C106.859 235.492 107.876 245.593 108.672 265.376C109.469 285.16 110.127 310.522 110.127 310.522L113.414 311.199C113.414 311.199 120.128 287.531 121.702 275.218C123.276 262.906 121.423 254.777 120.507 239.895C119.59 225.013 122.499 203.775 122.499 203.775C122.499 203.775 139.433 242.664 144.832 261.013C149.215 275.975 156.786 301.058 159.516 309.824C159.68 310.332 159.741 310.867 159.695 311.398C159.66 311.9 159.472 312.38 159.157 312.773L163.62 312.494C163.172 312.006 162.808 311.447 162.544 310.84C162.295 310.299 162.14 309.72 162.086 309.127C160.95 298.907 157.344 267.289 154.953 253.064C152.064 235.95 144.095 192.08 144.095 192.08L115.705 190.726L103.752 194.192C103.752 194.192 102.895 199.91 104.867 217.701Z" fill="url(#paint26_radial)"/>
<path d="M159.156 312.772L163.619 312.493C163.171 312.006 162.808 311.447 162.543 310.84L159.694 311.398C159.659 311.9 159.471 312.38 159.156 312.772Z" fill="#3D2419"/>
<path d="M141.085 75.8704C140.288 73.0015 124.709 74.9739 122.438 79.3171C123.533 83.3016 127.478 81.1898 127.478 81.1898C130.637 81.1887 133.784 80.787 136.842 79.9944C138.619 79.0505 140.091 77.6201 141.085 75.8704Z" fill="#CCA5BA"/>
<path d="M118.993 82.5439C110.327 88.0626 106.382 101.471 101.64 114.679C96.8987 127.888 90.0054 148.987 96.5201 161.538C98.2802 161.432 99.9979 160.955 101.56 160.138C103.123 159.32 104.494 158.182 105.585 156.796L109.331 134.124L118.993 82.5439Z" fill="url(#paint27_radial)"/>
<path style="mix-blend-mode:multiply" opacity="0.1" d="M106.242 149.127C104.768 147.997 103.059 147.214 101.241 146.838C99.4224 146.462 97.5427 146.502 95.7422 146.955C96.3395 137.856 97.9908 128.857 100.663 120.139C104.867 107.129 111.182 104.619 111.182 104.619L106.242 149.127Z" fill="url(#paint28_linear)"/>
<path d="M140.49 57.9395C140.629 58.3778 139.832 80.6913 140.49 82.6039C141.147 84.5165 135.031 90.0351 124.711 87.7042C127.064 82.5196 129.002 77.1569 130.508 71.6663C131.943 65.0718 140.49 57.9395 140.49 57.9395Z" fill="url(#paint29_radial)"/>
<path d="M120.385 27.637C114.548 22.0785 114.628 12.3163 118.692 10.842C122.756 9.36774 125.545 12.5554 129.709 11.5792C133.873 10.603 132.14 0.282927 140.587 1.02007C149.034 1.75722 148.556 17.6955 155.23 24.4493C161.905 31.2032 162.403 47.7391 150.489 51.6639C144.512 53.6562 136.941 57.8798 130.885 51.2854C124.828 44.6909 120.385 27.637 120.385 27.637Z" fill="url(#paint30_linear)"/>
<path d="M142.822 43.9935C159.856 45.2287 161.271 36.1439 160.215 31.2429C159.159 26.3419 157.067 24.748 157.904 27.6966C158.74 30.6452 157.425 43.7544 143.081 42.5192C141.129 41.8418 142.822 43.9935 142.822 43.9935Z" fill="url(#paint31_linear)"/>
<path d="M142.68 32.16C154.833 28.7333 153.318 17.8156 151.386 15.9827C149.453 14.1497 152.203 19.1703 151.386 22.597C150.569 26.0238 146.863 30.2075 142.68 32.16Z" fill="url(#paint32_linear)"/>
<path d="M146.544 5.56265C135.806 0.0440302 132.997 13.7709 135.527 21.0028C138.057 28.2348 138.894 28.6134 138.894 28.6134L135.945 29.3505C133.62 24.3337 132.613 18.8072 133.017 13.2927C134.053 5.44312 140.707 0.661638 144.373 1.33901C148.039 2.01639 146.544 5.56265 146.544 5.56265Z" fill="url(#paint33_linear)"/>
<path d="M125.069 26.2823C116.782 20.0863 118.196 10.5831 120.906 9.60685C123.615 8.63063 120.906 11.3202 120.906 14.3883C121 18.3996 122.642 22.2189 125.488 25.047C126.783 26.2823 125.069 26.2823 125.069 26.2823Z" fill="url(#paint34_linear)"/>
<path d="M112.695 50.1301C112.456 62.0838 118.114 74.5355 122.477 75.193C130.685 76.4282 137.618 67.6024 140.248 59.9919C140.388 59.5934 140.527 59.1551 140.666 58.7168C141.085 59.4539 141.922 60.7091 142.938 60.8485C147.42 61.6056 151.704 52.2817 150.907 50.3094C150.11 48.337 148.138 48.4765 142.181 52.72C144.173 44.213 145.707 33.2753 144.432 30.8049C141.224 24.071 124.35 23.2143 122.178 24.071C120.524 24.7085 117.616 28.7728 115.285 36.2638C114.402 39.1857 113.703 42.16 113.193 45.1693C112.886 46.8057 112.719 48.4653 112.695 50.1301Z" fill="#FF9C4F"/>
<path d="M112.695 50.1301L119.808 52.2818C121.831 47.9854 122.65 43.2206 122.179 38.4952C121.337 38.5163 120.5 38.3531 119.728 38.017C118.592 37.499 116.899 36.0247 115.245 36.3435C114.363 39.2654 113.664 42.2397 113.154 45.249C112.865 46.8603 112.711 48.4931 112.695 50.1301Z" fill="url(#paint35_linear)"/>
<path d="M129.273 36.821C129.273 36.821 138.039 36.3627 139.235 41.5228C139.062 45.3737 138.128 49.1521 136.485 52.6397C136.485 52.6397 124.631 51.7232 124.831 50.0696C124.977 48.3687 125.23 46.6785 125.588 45.0093C127.261 38.4746 129.273 36.821 129.273 36.821Z" fill="url(#paint36_linear)"/>
<path d="M139.413 41.4832C139.871 38.7538 135.667 34.3708 131.443 33.5141C131.099 34.2491 130.686 34.9496 130.208 35.606L129.85 32.8965L128.754 33.5141L129.212 36.8213C133.012 37.2854 136.575 38.9139 139.413 41.4832Z" fill="url(#paint37_linear)"/>
<path d="M123.892 35.5465L122.179 38.4951H121.441L122.657 35.4668L123.892 35.5465Z" fill="url(#paint38_linear)"/>
<path d="M116.206 34.8097C118.078 34.5928 119.975 34.8462 121.725 35.5468C121.662 36.5214 121.316 37.4564 120.728 38.2364C119.075 37.9973 115.29 34.5308 114.074 37.6586C114.373 36.8617 113.955 35.0886 116.206 34.8097Z" fill="url(#paint39_linear)"/>
<path d="M127.959 46.9423C128.099 47.6794 129.294 48.1974 130.748 48.4564C131.479 48.5838 132.218 48.6504 132.96 48.6557C134.573 48.6557 136.048 48.4365 136.386 47.8986C136.725 47.3607 136.546 41.9217 133.478 40.7662C128.995 39.1126 127.62 45.0696 127.959 46.9423Z" fill="url(#paint40_linear)"/>
<path d="M127.956 46.9417C128.096 47.6788 129.291 48.1968 130.745 48.4558C131.476 48.5832 132.216 48.6498 132.957 48.6551C134.571 48.6551 136.045 48.4359 136.384 47.898C136.555 46.6394 136.335 45.3585 135.755 44.2288C135.174 43.0992 134.26 42.1753 133.136 41.5825C130.148 40.4469 127.618 45.069 127.956 46.9417Z" fill="white"/>
<path d="M117.1 45.9861C117.284 46.447 117.633 46.8228 118.078 47.0402C118.524 47.2576 119.035 47.3009 119.511 47.1616C119.981 47.0861 120.418 46.8768 120.772 46.5587C121.125 46.2407 121.379 45.8274 121.503 45.3685C121.738 44.5469 121.826 43.6904 121.762 42.8383C121.643 41.105 120.926 39.83 119.77 39.7901C117.778 39.7702 116.483 44.1532 117.1 45.9861Z" fill="url(#paint41_linear)"/>
<path d="M117.102 45.986C117.285 46.4469 117.634 46.8227 118.08 47.0401C118.526 47.2575 119.037 47.3008 119.513 47.1615C119.982 47.086 120.42 46.8767 120.773 46.5586C121.127 46.2406 121.381 45.8273 121.505 45.3684C121.74 44.5468 121.827 43.6903 121.764 42.8382C121.764 41.5831 121.126 40.5471 119.931 40.4873C117.979 40.4873 116.484 44.1531 117.102 45.986Z" fill="white"/>
<path d="M129.65 46.285C129.622 46.7076 129.704 47.1302 129.889 47.5112C130.074 47.8921 130.356 48.218 130.706 48.4565C131.49 48.5831 132.283 48.6497 133.077 48.6558C133.477 48.4813 133.823 48.2031 134.08 47.8499C134.336 47.4967 134.494 47.0814 134.536 46.6469C134.579 46.2124 134.504 45.7745 134.32 45.3785C134.137 44.9824 133.851 44.6427 133.492 44.3943C133.133 44.1459 132.714 43.9979 132.278 43.9657C131.843 43.9334 131.407 44.0181 131.015 44.2108C130.624 44.4036 130.291 44.6975 130.05 45.0622C129.81 45.4268 129.672 45.849 129.65 46.285Z" fill="#1C3368"/>
<path d="M119.509 47.2009C119.696 47.1784 119.878 47.1245 120.047 47.0415C120.406 46.9072 120.727 46.6887 120.983 46.4044C121.24 46.1201 121.424 45.7783 121.521 45.4078C121.685 44.8437 121.779 44.2616 121.8 43.6745C121.83 43.4097 121.83 43.1424 121.8 42.8776C121.56 42.6027 121.226 42.4255 120.864 42.3796C119.828 42.2799 118.872 43.3358 118.712 44.7504C118.631 45.1929 118.662 45.6486 118.801 46.0764C118.94 46.5042 119.183 46.8907 119.509 47.2009Z" fill="#1C3368"/>
<path d="M123.452 42.9776C120.563 49.4127 118.531 56.0669 119.288 58.2584C119.746 59.5335 123.532 58.7166 125.086 58.2584C126.64 57.8002 124.249 48.4165 125.086 43.914C125.923 39.4114 124.169 40.3279 123.452 42.9776Z" fill="url(#paint42_linear)"/>
<path d="M131.246 60.1709C127.779 67.622 123.456 67.2634 121.922 64.4942C124.392 65.2313 129.572 62.5616 131.246 60.1709Z" fill="white"/>
<path d="M131.623 61.7251C131.618 61.5054 131.556 61.2908 131.445 61.1014C131.333 60.9119 131.175 60.754 130.986 60.6424C130.797 60.5308 130.582 60.4692 130.363 60.4635C130.143 60.4577 129.925 60.5079 129.73 60.6094C131.165 59.2347 132.141 59.932 131.623 61.7251Z" fill="#F6682A"/>
<path style="mix-blend-mode:multiply" opacity="0.5" d="M148.519 51.9626C148.08 49.9703 143.498 52.5802 143 54.3533C144.096 53.9947 145.331 53.676 145.51 54.7916C145.69 55.9073 142.402 57.9793 142.402 57.9793C142.402 57.9793 149.714 57.4215 148.519 51.9626Z" fill="url(#paint43_linear)"/>
<path style="mix-blend-mode:screen" opacity="0.7" d="M130.148 46.4444C130.148 46.9728 130.358 47.4796 130.732 47.8532C131.106 48.2268 131.612 48.4367 132.141 48.4367C132.669 48.4367 133.176 48.2268 133.549 47.8532C133.923 47.4796 134.133 46.9728 134.133 46.4444C134.133 45.916 133.923 45.4093 133.549 45.0357C133.176 44.6621 132.669 44.4521 132.141 44.4521C131.612 44.4521 131.106 44.6621 130.732 45.0357C130.358 45.4093 130.148 45.916 130.148 46.4444Z" fill="url(#paint44_linear)"/>
<path style="mix-blend-mode:screen" opacity="0.5" d="M120.049 47.0419C120.408 46.9076 120.729 46.6891 120.986 46.4048C121.242 46.1205 121.427 45.7787 121.524 45.4083C121.687 44.8442 121.781 44.262 121.803 43.675C121.165 43.4359 120.029 43.1171 119.611 43.7746C119.348 44.3003 119.249 44.8931 119.327 45.4758C119.405 46.0585 119.657 46.6043 120.049 47.0419Z" fill="url(#paint45_linear)"/>
<path d="M129.571 44.7502C129.568 44.8487 129.585 44.9467 129.621 45.0384C129.657 45.1302 129.711 45.2138 129.779 45.2844C129.848 45.355 129.93 45.4111 130.021 45.4493C130.112 45.4876 130.209 45.5073 130.308 45.5073C130.509 45.5025 130.701 45.4218 130.845 45.2814C130.989 45.141 131.075 44.9512 131.085 44.7502C131.085 44.5494 131.005 44.3569 130.863 44.2149C130.721 44.0729 130.528 43.9932 130.328 43.9932C130.127 43.9932 129.934 44.0729 129.792 44.2149C129.65 44.3569 129.571 44.5494 129.571 44.7502Z" fill="white"/>
<path d="M118.319 43.4161C118.327 43.5742 118.382 43.7262 118.477 43.8528C118.573 43.9794 118.703 44.0747 118.853 44.1267C119.002 44.1788 119.164 44.185 119.317 44.1448C119.47 44.1046 119.608 44.0196 119.713 43.9008C119.817 43.782 119.884 43.6348 119.905 43.4778C119.925 43.3208 119.899 43.1612 119.828 43.0195C119.758 42.8777 119.647 42.7601 119.509 42.6817C119.372 42.6033 119.214 42.5677 119.056 42.5793C118.952 42.5843 118.85 42.6101 118.757 42.6552C118.663 42.7003 118.579 42.7637 118.51 42.8418C118.442 42.9198 118.389 43.0108 118.356 43.1095C118.323 43.2081 118.311 43.3124 118.319 43.4161Z" fill="white"/>
<path d="M102.098 195.846C103.958 196.648 106.05 196.733 107.97 196.086C109.89 195.439 111.502 194.104 112.497 192.339C112.904 191.709 113.251 191.042 113.533 190.347C115.645 183.792 120.905 124.363 119.51 119.242L119.391 118.804C118.439 113.831 117.76 108.81 117.359 103.762C117.359 103.762 117.877 93.2432 117.737 92.8447C117.598 92.4462 117.877 85.0947 117.877 85.0947C114.715 90.5366 112.283 96.371 110.645 102.448C107.774 116.485 106.015 130.728 105.385 145.043C104.608 160.762 102.895 186.123 102.098 195.846Z" fill="#844B34"/>
<path opacity="0.5" d="M112.496 192.339C112.903 191.709 113.25 191.042 113.532 190.347C115.644 183.792 120.903 124.362 119.509 119.242L119.389 118.804L118.971 119.242C118.971 119.242 112.875 181.142 112.616 187.836C112.536 189.928 112.476 191.422 112.496 192.339Z" fill="#6B3C2A"/>
<path d="M141.564 79.8545L142.46 83.8391C142.46 83.8391 139.293 91.8082 134.77 100.315C130.818 107.438 125.685 113.838 119.589 119.242C117.417 113.305 117.118 97.785 118.194 91.8082C118.665 88.452 119.33 85.1259 120.187 81.8468L127.399 81.1694L141.564 79.8545Z" fill="#EDCEDF"/>
<path d="M117.938 116.552C118.352 117.52 118.909 118.42 119.591 119.222C120.729 118.726 121.822 118.133 122.858 117.449C122.998 116.552 123.137 115.576 123.297 114.54C124.691 105.336 126.823 91.2102 127.421 87.2257L129.931 85.8311L127.481 81.209L123.735 85.0541L125.608 87.0464L118.954 112.647L117.938 116.552Z" fill="#B73637"/>
<path d="M127.477 81.1696L129.927 89.1387C129.927 89.1387 139.39 85.2936 142.16 80.2531C142.015 78.7479 141.652 77.2715 141.084 75.8701C141.084 75.8701 140.885 78.7988 127.477 81.1696Z" fill="#F7E3EE"/>
<path d="M127.48 81.1696L122.838 88.1625L120.367 83.0424L122.359 79.2969C123.039 79.9427 123.845 80.4422 124.725 80.7643C125.606 81.0864 126.543 81.2244 127.48 81.1696Z" fill="#F7E3EE"/>
<path d="M144.097 84.1182C144.097 84.1182 153.679 115.676 153.819 115.995C153.958 116.313 149.834 133.208 147.503 147.393C145.172 161.578 146.188 193.674 146.188 193.674C146.188 193.674 118.974 199.651 115.826 196.822C112.678 193.993 112.798 194.471 113.057 187.757C113.316 181.043 119.591 119.222 119.591 119.222C119.591 119.222 133.259 105.276 134.832 101.869C135.948 99.2841 136.874 96.6206 137.602 93.9003L144.097 84.1182Z" fill="url(#paint46_radial)"/>
<path d="M118.016 168.252C118.016 168.484 118.085 168.712 118.214 168.905C118.343 169.098 118.527 169.249 118.741 169.338C118.956 169.427 119.193 169.45 119.421 169.405C119.649 169.359 119.858 169.247 120.022 169.083C120.187 168.919 120.299 168.709 120.344 168.481C120.389 168.253 120.366 168.017 120.277 167.802C120.188 167.587 120.038 167.404 119.844 167.274C119.651 167.145 119.424 167.076 119.191 167.076C119.036 167.074 118.882 167.102 118.738 167.16C118.594 167.218 118.464 167.305 118.354 167.415C118.244 167.524 118.158 167.655 118.1 167.799C118.042 167.943 118.013 168.097 118.016 168.252Z" fill="#6B3C2A"/>
<path d="M120.906 137.631C120.906 137.785 120.937 137.938 120.996 138.081C121.055 138.224 121.142 138.353 121.251 138.462C121.36 138.571 121.489 138.658 121.632 138.717C121.775 138.776 121.928 138.807 122.082 138.807C122.25 138.828 122.422 138.814 122.584 138.765C122.747 138.715 122.897 138.631 123.025 138.519C123.152 138.407 123.255 138.269 123.325 138.114C123.395 137.959 123.431 137.791 123.431 137.621C123.431 137.451 123.395 137.283 123.325 137.128C123.255 136.973 123.152 136.835 123.025 136.723C122.897 136.611 122.747 136.527 122.584 136.478C122.422 136.428 122.25 136.414 122.082 136.436C121.926 136.436 121.771 136.467 121.627 136.527C121.483 136.587 121.353 136.676 121.244 136.787C121.134 136.898 121.048 137.03 120.99 137.175C120.932 137.32 120.904 137.475 120.906 137.631Z" fill="#6B3C2A"/>
<path d="M142.859 166.957L142.72 168.531L134.711 168.252L134.85 167.216L142.859 166.957Z" fill="#6B3C2A"/>
<path d="M106.182 166.957L106.062 168.65L102.496 168.113L103.034 167.156L106.182 166.957Z" fill="#6B3C2A"/>
<path d="M165.849 314.227H157.043C157.563 313.486 158.244 312.873 159.035 312.434C160.536 312.041 162.096 311.926 163.637 312.095C164.016 312.215 165.849 314.227 165.849 314.227Z" fill="#563223"/>
<path d="M114.727 149.126L111.58 163.849L105.663 163.271L104.348 148.27L114.727 149.126Z" fill="#916932"/>
<path d="M114.849 148.728C114.849 148.529 114.132 145.242 114.132 145.242L105.525 144.923L104.25 148.27L114.849 148.728Z" fill="#ABBEC2"/>
<path d="M115.983 148.349L115.126 150.063L103.63 148.867L103.551 147.812L115.983 148.349Z" fill="#CDE2E7"/>
<path d="M119.791 152.095L115.129 151.836L114.73 156.558L119.791 157.275V152.095Z" fill="#F7E3EE"/>
<path d="M115.107 151.816C114.504 150.444 113.713 149.164 112.756 148.011C112.018 147.413 106.958 147.812 106.58 147.812C106.201 147.812 105.783 148.728 106.301 149.127C106.819 149.525 106.5 153.848 106.5 153.848C108.194 154.335 109.939 154.622 111.7 154.705C112.477 156.418 114.071 157.474 114.728 156.558C115.15 155.015 115.278 153.407 115.107 151.816Z" fill="url(#paint47_radial)"/>
<path d="M103.016 150.76C102.045 151.158 101.123 151.666 100.267 152.274C99.8086 152.812 99.5496 156.956 100.865 157.534C102.179 158.111 103.674 156.478 103.674 156.478L103.016 150.76Z" fill="#F7E3EE"/>
<path d="M103.41 149.844C104.606 149.126 109.387 149.844 109.786 150.182C109.864 150.233 109.93 150.301 109.98 150.379C110.03 150.458 110.062 150.547 110.076 150.639C110.089 150.731 110.082 150.825 110.056 150.915C110.03 151.005 109.986 151.088 109.925 151.159C108.605 151.34 107.273 151.426 105.94 151.418C107.551 151.552 109.154 151.771 110.742 152.075C110.941 152.274 111.2 152.872 111.001 153.191C109.525 153.422 108.028 153.488 106.538 153.39C106.538 153.39 110.025 154.386 110.284 154.506C110.543 154.625 110.742 155.362 109.945 155.701C108.682 155.689 107.43 155.466 106.239 155.043C107.261 155.364 108.249 155.785 109.188 156.299C109.327 156.558 109.188 157.076 108.53 157.076C107.873 157.076 103.55 157.793 102.813 157.076C102.075 156.358 101.777 151.238 103.41 149.844Z" fill="#FEA561"/>
<path d="M119.59 119.222C120.728 118.726 121.821 118.133 122.857 117.449C128.695 113.723 135.568 106.551 136.644 103.762C137.402 101.853 137.472 99.7398 136.843 97.7848C136.843 97.7848 138.835 98.7809 140.828 96.2109C142.82 93.6408 146.545 80.93 146.545 80.432C146.545 79.9339 142.401 77.4834 142.401 77.4834C138.895 91.4294 129.053 106.79 123.335 114.6C122.17 116.206 120.92 117.749 119.59 119.222Z" fill="#A66D56"/>
<path d="M115.248 99.0006C114.995 104.97 115.909 110.932 117.938 116.553C118.352 117.52 118.91 118.42 119.592 119.222C119.333 116.951 119.113 114.779 118.954 112.648C118.018 100.535 118.595 90.2744 122.441 79.2969C120.94 80.066 119.591 81.0984 118.456 82.3451C116.781 85.7883 115.684 89.4835 115.209 93.2827C115.271 93.8622 115.474 94.4176 115.8 94.9004C116.127 95.3831 116.567 95.7785 117.081 96.052C116.104 96.7534 115.445 97.8138 115.248 99.0006Z" fill="#A66D56"/>
<path d="M146.506 80.373C150.629 81.9035 154.364 84.3253 157.443 87.4656C162.026 92.4064 168.879 132.431 168.68 145.6C168.48 158.769 164.337 163.75 164.337 163.75L118.793 158.451L119.391 151.577L155.67 150.003C155.67 150.003 149.355 117.669 147.701 108.165C146.349 101.079 144.505 94.096 142.182 87.2664L146.506 80.373Z" fill="url(#paint48_radial)"/>
<path d="M170.932 209.752C173.462 213.398 171.35 218.598 171.35 218.598C171.35 218.598 166.868 219.235 165.174 217.303C163.481 215.37 163.461 214.454 163.461 214.454L166.151 209.911L170.932 209.752Z" fill="url(#paint49_radial)"/>
<path d="M161.109 223.06C161.109 222.821 162.325 216.884 162.325 216.884L173.123 216.645L174.099 222.98H172.107L171.788 217.78L163.022 218.597L162.643 223.299L161.109 223.06Z" fill="#2A2522"/>
<path d="M164.835 216.167C163.281 216.167 162.564 220.291 164.596 220.63C166.628 220.968 165.891 216.167 164.835 216.167Z" fill="url(#paint50_radial)"/>
<path d="M166.706 216.485C165.152 216.485 164.435 220.629 166.467 220.948C168.5 221.267 167.762 216.485 166.706 216.485Z" fill="url(#paint51_radial)"/>
<path d="M168.98 216.246C167.426 216.246 166.709 220.37 168.741 220.709C170.773 221.047 169.996 216.246 168.98 216.246Z" fill="url(#paint52_radial)"/>
<path d="M170.934 216.545C169.6 216.545 168.942 220.051 170.715 220.33C172.488 220.609 171.831 216.545 170.934 216.545Z" fill="url(#paint53_radial)"/>
<path d="M164.196 210.549C163.294 212.171 162.509 213.855 161.845 215.589C161.507 216.884 164.675 219.235 165.989 219.315C167.304 219.395 167.444 216.805 166.547 215.988C165.684 215.497 164.675 215.327 163.698 215.51C165.25 215.208 166.702 214.523 167.922 213.517C169.317 212.063 166.946 210.35 166.946 210.35L164.196 210.549Z" fill="#FEA561"/>
<path d="M159.734 223.876L159.894 222.661L164.456 222.9L164.376 224.135L159.734 223.876Z" fill="#7BA4AB"/>
<path d="M175.893 223.876L175.734 222.661L171.191 222.9L171.271 224.135L175.893 223.876Z" fill="#7BA4AB"/>
<path d="M174.656 223.718L174.736 222.582L179.278 222.662L179.358 223.718H174.656Z" fill="#7BA4AB"/>
<path d="M146.246 223.638C146.246 223.877 148.238 255.514 148.238 255.514C148.238 255.514 183.303 256.012 183.402 255.773C183.502 255.534 184.358 223.199 184.358 223.199L146.246 223.638Z" fill="#543826"/>
<path d="M169.494 102.507C167.502 116.991 170.75 129.761 170.311 146.437C169.873 163.112 164.016 202.838 164.016 202.838C164.987 203.404 166.061 203.773 167.176 203.924C168.29 204.074 169.423 204.003 170.51 203.715C173.758 199.372 176.188 195.268 181.667 173.073C187.146 150.879 183.66 120.019 182.962 114.381C182.265 108.743 169.494 102.507 169.494 102.507Z" fill="url(#paint54_radial)"/>
<path d="M229.463 90.4533C228.148 91.7682 226.734 93.2823 225.479 94.7765C221.873 98.7611 218.585 102.507 218.585 102.507L199.46 104.3L196.551 91.808C201.531 89.4372 213.585 89.2977 221.833 89.8157C224.387 89.8793 226.934 90.0922 229.463 90.4533Z" fill="#C5D7E1"/>
<path d="M229.463 90.4539C228.148 91.7688 226.734 93.283 225.479 94.7772C224.462 94.3781 223.577 93.7015 222.925 92.8246C222.274 91.9476 221.882 90.9054 221.793 89.8164C224.36 89.8784 226.921 90.0913 229.463 90.4539Z" fill="#8DB3C2"/>
<path d="M238.766 317.654H236.395C232.34 301.053 227.264 284.718 221.194 268.744C215.929 255.402 209.841 242.401 202.964 229.814C199.905 237.541 197.61 245.548 196.111 253.722C193.879 266.472 192.983 282.47 192.126 290.101C191.27 297.731 177.184 318.152 177.184 318.152L174.973 317.216C179.914 269.003 180.571 246.33 179.794 221.228C179.794 220.889 179.794 220.55 179.794 220.212C179.635 215.131 179.415 209.911 179.156 204.273C179.655 195.228 220.656 191.762 220.656 191.762L225.557 197.739C227.986 208.215 229.519 218.879 230.139 229.615C231.514 249.319 235.797 253.264 239.961 274.581C244.125 295.898 238.766 317.654 238.766 317.654Z" fill="url(#paint55_linear)"/>
<path d="M220.536 202.758C220.397 202.16 220.237 201.583 220.098 200.965L220.775 200.706C220.934 201.324 221.094 201.921 221.233 202.499L220.536 202.758Z" fill="#1D2A2E"/>
<path d="M222.373 207.739L221.676 207.938C221.915 209.134 222.114 210.289 222.313 211.425L223.031 211.266C222.831 210.11 222.612 208.935 222.373 207.739ZM223.847 216.585L223.13 216.705L223.608 220.251L224.326 220.131L223.847 216.585ZM225.003 225.451L224.286 225.57C224.425 226.726 224.585 227.921 224.744 229.116L225.461 228.997C225.302 227.782 225.142 226.606 225.003 225.451ZM226.258 234.296L225.541 234.456C225.72 235.591 225.919 236.767 226.119 237.982L226.836 237.803C226.617 236.588 226.417 235.412 226.258 234.296ZM228.25 245.234C228.091 244.497 227.951 243.76 227.812 243.062L227.095 243.262C227.254 243.959 227.394 244.696 227.553 245.433C227.712 246.17 227.732 246.33 227.832 246.748L228.529 246.529C228.43 246.091 228.35 245.672 228.25 245.214V245.234ZM229.705 251.709L229.007 251.968C229.286 253.143 229.565 254.279 229.864 255.435L230.561 255.156C230.263 254.04 229.984 252.884 229.764 251.709H229.705ZM231.916 260.296L231.219 260.575C231.538 261.73 231.856 262.866 232.175 263.981L232.852 263.702C232.534 262.567 232.215 261.451 231.916 260.296ZM234.267 268.803L233.59 269.082C233.908 270.237 234.207 271.373 234.526 272.508L235.203 272.229C234.905 271.114 234.586 269.958 234.267 268.803ZM236.558 277.389L235.861 277.629C236.14 278.784 236.419 279.94 236.678 281.095L237.375 280.856C237.116 279.701 236.837 278.545 236.558 277.389ZM238.55 286.116L237.853 286.295C238.072 287.47 238.271 288.646 238.431 289.801L239.148 289.662C238.889 288.486 238.67 287.291 238.451 286.116H238.55ZM239.985 296.994C239.985 296.336 239.985 295.679 239.825 295.001H239.108C239.108 295.639 239.228 296.296 239.268 296.994C239.307 297.691 239.268 298.069 239.268 298.587H240.005C239.965 298.069 239.925 297.551 239.885 297.013L239.985 296.994ZM239.586 303.986C239.586 305.202 239.586 306.397 239.586 307.553H240.324C240.324 306.397 240.324 305.182 240.324 303.967L239.586 303.986Z" fill="#1D2A2E"/>
<path d="M224.107 213.796C223.505 215.228 222.708 216.569 221.736 217.781C221.572 217.969 221.392 218.142 221.198 218.299C217.662 216.575 214.66 213.924 212.512 210.628L213.109 210.23C214.754 209.078 216.609 208.259 218.568 207.819C219.94 208.469 221.27 209.2 222.553 210.011C223.788 210.887 224.107 213.796 224.107 213.796Z" fill="url(#paint56_linear)"/>
<path d="M179.638 202.281L179.359 206.405C179.359 206.405 185.336 207.54 199.003 205.269C208.049 203.636 216.916 201.134 225.481 197.798L224.365 194.949L179.638 202.281Z" fill="#2A2522"/>
<path d="M222.232 225.291L222.033 226.168C222.033 226.168 221.714 226.008 221.196 225.69C217.459 223.287 214.454 219.903 212.51 215.908C210.929 212.655 210.015 209.119 209.82 205.508H210.557C210.729 208.966 211.597 212.354 213.108 215.469C215.014 219.429 218.006 222.766 221.734 225.092L222.232 225.291Z" fill="#1D2A2E"/>
<path d="M179.758 221.188C179.758 220.849 179.758 220.51 179.758 220.172C181.75 218.638 185.336 214.753 184.619 206.226H185.336C186.093 215.53 181.949 219.693 179.758 221.188Z" fill="#1D2A2E"/>
<path d="M201.473 223.996C200.816 223.996 194.161 219.234 192.508 203.436H193.225C194.6 216.545 199.521 222.84 201.035 223.139L198.485 202.42L199.202 202.24L201.931 224.155H201.473V223.996Z" fill="#1D2A2E"/>
<path d="M202.151 78.9182C202.55 89.0988 200.936 95.3147 199.123 98.1437C197.31 100.973 200.079 105.495 207.55 105.495C215.519 105.495 225.481 99.0203 225.481 99.0203C225.481 99.0203 222.891 87.9034 223.628 82.7235C224.365 77.5435 202.151 78.9182 202.151 78.9182Z" fill="url(#paint57_radial)"/>
<path d="M238.767 317.653L239.384 321H225.199C225.199 321 226.853 317.872 229.184 317.195C231.077 316.975 232.988 317.427 234.583 318.47L236.575 317.653H238.767Z" fill="#2E373B"/>
<path d="M174.933 317.195L177.583 317.654L178.221 321.001H164.016C164.016 321.001 165.669 317.873 168 317.195C169.893 316.979 171.803 317.43 173.399 318.471L174.933 317.195Z" fill="#2E373B"/>
<path d="M231.555 44.3522C231.532 44.921 231.465 45.4871 231.356 46.0457C231.343 46.258 231.343 46.4709 231.356 46.6832C230.727 51.4104 230.52 56.1841 230.738 60.9479C230.738 61.5058 228.507 61.9241 225.02 62.2429C221.534 62.5617 216.135 44.3124 211.513 44.3124C206.89 44.3124 202.488 63.0597 199.16 63.0797H194.757C194.502 59.8502 193.462 56.7319 191.729 53.9949C191.628 53.6638 191.628 53.3099 191.729 52.9788C191.729 52.7198 191.869 52.421 191.968 52.1221C192.427 50.8271 193.263 49.3528 192.885 48.1375C192.347 46.5836 190.434 44.9499 191.61 41.9415C191.746 41.5727 191.919 41.2189 192.128 40.8856L192.506 40.2481C194.977 36.5823 199.28 35.9846 202.169 32.9364C202.538 32.5349 202.872 32.1015 203.165 31.6414C203.608 30.9943 204.115 30.3936 204.679 29.8484C206.288 28.3538 208.132 27.1353 210.138 26.2424C210.955 25.8638 211.712 25.5451 212.389 25.2861C213.092 25.0216 213.81 24.802 214.541 24.6286C216.533 24.1505 213.604 28.6132 213.465 28.7327C213.624 28.5733 216.653 25.8439 218.426 26.4416C218.622 26.5144 218.8 26.6286 218.948 26.7765C219.095 26.9243 219.21 27.1023 219.282 27.2983C219.621 27.9956 219.781 28.9319 220.179 29.8484C220.387 30.4495 220.749 30.986 221.227 31.4051C221.706 31.8243 222.285 32.1117 222.908 32.2391C223.858 32.4315 224.79 32.698 225.698 33.036C226.048 33.1778 226.387 33.3442 226.714 33.5341C227.276 33.8168 227.744 34.2579 228.059 34.8031C228.374 35.3482 228.523 35.9736 228.487 36.6022C228.487 39.1524 227.869 40.7263 229.583 40.7263C230.917 40.8657 231.754 42.0013 231.555 44.3522Z" fill="#46271E"/>
<g style="mix-blend-mode:screen" opacity="0.5">
<path d="M197.509 52.5405C197.098 53.0155 196.595 53.4019 196.03 53.6759C195.465 53.95 194.849 54.1059 194.222 54.1343C193.828 54.136 193.437 54.0685 193.066 53.9351C192.544 53.7465 192.068 53.4475 191.672 53.0584C191.672 52.7994 191.811 52.5006 191.911 52.2018C192.257 52.6839 192.744 53.046 193.306 53.2378C193.968 53.4216 194.671 53.4043 195.323 53.1879C195.976 52.9715 196.55 52.5658 196.971 52.0225L197.509 52.5405Z" fill="#46271E"/>
</g>
<g style="mix-blend-mode:screen" opacity="0.5">
<path d="M199.46 45.1096C198.843 45.1096 198.285 45.1096 197.767 45.1096C193.603 45.1096 192.148 43.3763 191.65 42.2407C191.609 42.1579 191.575 42.0712 191.551 41.9817C191.687 41.6129 191.86 41.259 192.069 40.9258C192.087 41.2761 192.168 41.6203 192.308 41.9418C193.145 43.7947 195.715 44.6514 199.38 44.2927L199.46 45.1096Z" fill="#46271E"/>
</g>
<g style="mix-blend-mode:screen" opacity="0.5">
<path d="M203.567 41.5632V42.2805C203.037 42.2016 202.541 41.9718 202.138 41.6185C201.736 41.2652 201.443 40.8033 201.296 40.2882C200.821 37.8677 201.142 35.3584 202.212 33.1359C202.582 32.7343 202.915 32.301 203.209 31.8409C203.652 31.1938 204.159 30.5931 204.723 30.0479C202.491 33.0562 201.196 37.5588 201.993 40.0093C202.073 40.3948 202.265 40.7482 202.545 41.0247C202.825 41.3013 203.181 41.4887 203.567 41.5632Z" fill="#46271E"/>
</g>
<g style="mix-blend-mode:screen" opacity="0.5">
<path d="M206.395 35.5265C206.33 36.4745 206.567 37.4187 207.072 38.2238C207.576 39.029 208.322 39.6539 209.204 40.0091L208.905 40.6865C207.881 40.2802 207.014 39.5555 206.433 38.6192C205.852 37.683 205.587 36.5848 205.678 35.4866C205.974 32.0017 207.541 28.7474 210.08 26.342C210.897 25.9635 211.654 25.6447 212.332 25.3857C210.682 26.5611 209.3 28.0724 208.277 29.8203C207.254 31.5681 206.612 33.5128 206.395 35.5265Z" fill="#46271E"/>
</g>
<g style="mix-blend-mode:screen" opacity="0.5">
<path d="M220.141 30.0476C220.127 32.1294 219.641 34.181 218.719 36.0479C217.798 37.9148 216.465 39.5484 214.821 40.8258L214.383 40.2281C216.25 38.7244 217.685 36.7512 218.539 34.5107C219.393 32.2702 219.636 29.843 219.244 27.4775C219.583 28.0553 219.802 29.0514 220.141 30.0476Z" fill="#46271E"/>
</g>
<g style="mix-blend-mode:screen" opacity="0.5">
<path d="M226.913 37.519C226.652 38.6841 226.003 39.7262 225.073 40.4752C224.143 41.2242 222.987 41.6359 221.793 41.643V40.9258C222.832 40.9281 223.84 40.576 224.652 39.9276C225.463 39.2791 226.029 38.3732 226.256 37.3596C226.553 35.9422 226.357 34.4656 225.698 33.1758C226.048 33.3175 226.387 33.484 226.714 33.6739C227.144 34.9106 227.213 36.2443 226.913 37.519Z" fill="#46271E"/>
</g>
<g style="mix-blend-mode:screen" opacity="0.5">
<path d="M231.557 44.3721C231.534 44.9408 231.467 45.507 231.357 46.0655C231.345 46.2778 231.345 46.4907 231.357 46.703C231.238 46.8425 231.138 46.982 230.999 47.1214C230.329 47.7773 229.529 48.2849 228.65 48.611C227.771 48.9371 226.834 49.0744 225.898 49.0141H225.5V48.2769C226.39 48.3803 227.291 48.2876 228.142 48.0054C228.992 47.7232 229.77 47.2582 230.421 46.6433C230.994 46.0002 231.386 45.2164 231.557 44.3721Z" fill="#46271E"/>
</g>
<path d="M197.546 61.9241C194.876 61.685 192.565 62.0436 192.326 63.9164C192.087 65.7891 194.319 70.3514 195.474 71.8855C196.63 73.4196 198.144 71.5269 198.144 71.5269L197.546 61.9241Z" fill="url(#paint58_linear)"/>
<path d="M227.152 60.5898C229.762 60.0121 232.093 60.0718 232.591 61.9645C233.089 63.8572 231.396 68.5988 230.599 70.1727C229.802 71.7466 227.909 70.1727 227.909 70.1727L227.152 60.5898Z" fill="url(#paint59_linear)"/>
<path style="mix-blend-mode:multiply" opacity="0.5" d="M230.881 61.6451C229.008 61.3263 227.693 67.861 229.745 69.0962C230.821 67.4625 230.881 61.6451 230.881 61.6451Z" fill="url(#paint60_linear)"/>
<path style="mix-blend-mode:multiply" opacity="0.5" d="M194.199 63.6778C196.012 63.1399 198.184 69.4754 196.192 70.9496C194.956 69.4554 194.199 63.6778 194.199 63.6778Z" fill="url(#paint61_linear)"/>
<path d="M196.81 50.1891C196.676 59.0513 197.082 67.9134 198.025 76.7263C199.001 81.9461 207.489 88.9788 216.573 86.6877C225.658 84.3966 229.165 77.842 228.687 70.092C228.208 62.342 227.113 45.9854 225.419 42.7977C223.726 39.6101 214.621 39.0323 209.481 39.6499C204.341 40.2675 196.93 42.3196 196.81 50.1891Z" fill="#FEA561"/>
<path d="M215.441 54.8312C212.791 58.4572 214.783 62.9796 215.959 65.3305C217.134 67.6814 222.971 68.4584 224.246 64.6332C225.295 61.6437 225.358 58.397 224.426 55.3691C223.788 53.3768 216.835 52.56 215.441 54.8312Z" fill="url(#paint62_linear)"/>
<path d="M209.24 51.6438C212.806 56.4253 211.71 60.1309 210.754 64.1952C210 66.7976 208.402 69.0754 206.212 70.6701C206.212 70.6701 201.231 69.2157 199.836 67.343C198.442 65.4702 199.478 56.1862 200.992 54.1939C202.506 52.2016 208.144 50.7871 209.24 51.6438Z" fill="url(#paint63_linear)"/>
<path d="M216.059 61.7251C216.171 60.6663 216.659 59.6827 217.434 58.952C218.208 58.2213 219.219 57.7916 220.282 57.7405C220.775 57.7136 221.268 57.7921 221.728 57.9709C222.188 58.1497 222.604 58.4246 222.949 58.7773C223.294 59.13 223.56 59.5523 223.729 60.016C223.898 60.4797 223.966 60.9741 223.928 61.4661C221.315 61.7424 218.685 61.8289 216.059 61.7251Z" fill="#823F00"/>
<path d="M200.738 62.0435C200.743 61.5 200.862 60.9636 201.088 60.4692C201.314 59.9749 201.642 59.5338 202.05 59.1747C202.458 58.8156 202.937 58.5466 203.456 58.3852C203.975 58.2238 204.522 58.1738 205.062 58.2382C205.641 58.251 206.213 58.3792 206.743 58.6155C207.273 58.8518 207.75 59.1913 208.147 59.6143C208.544 60.0373 208.853 60.5351 209.055 61.0788C209.257 61.6225 209.349 62.201 209.325 62.7806C206.444 62.8674 203.562 62.62 200.738 62.0435Z" fill="#823F00"/>
<path d="M216.457 63.4982C215.022 61.8047 217.473 58.8562 219.505 58.4577C220.012 58.2855 220.552 58.235 221.081 58.3103C221.611 58.3856 222.115 58.5845 222.554 58.891C222.992 59.1976 223.352 59.603 223.605 60.0746C223.858 60.5462 223.995 61.0707 224.008 61.6055C224.187 63.0599 218.868 66.3671 216.457 63.4982Z" fill="white"/>
<path d="M209.425 63.1792C209.397 62.5667 209.247 61.9659 208.985 61.4117C208.723 60.8575 208.353 60.3611 207.896 59.9513C207.44 59.5415 206.907 59.2266 206.328 59.0249C205.749 58.8232 205.136 58.7387 204.524 58.7763C203.962 58.7928 203.409 58.9281 202.903 59.1734C202.397 59.4186 201.949 59.7682 201.587 60.1991C201.226 60.6301 200.96 61.1326 200.807 61.6737C200.654 62.2148 200.617 62.7822 200.699 63.3386C200.838 64.6336 203.189 65.9684 205.52 65.6895C208.429 65.3508 209.385 64.3746 209.425 63.1792Z" fill="white"/>
<path d="M208.507 62.6412C208.531 63.2061 208.385 63.7651 208.088 64.2463C207.791 64.7274 207.357 65.1086 206.842 65.3406C206.326 65.5726 205.753 65.6448 205.196 65.5479C204.639 65.451 204.124 65.1894 203.717 64.7969C203.31 64.4044 203.03 63.899 202.913 63.3459C202.796 62.7927 202.847 62.2172 203.061 61.6936C203.274 61.17 203.639 60.7223 204.109 60.4083C204.579 60.0942 205.133 59.9282 205.698 59.9317C206.426 59.9312 207.126 60.2135 207.65 60.7189C208.174 61.2244 208.481 61.9136 208.507 62.6412Z" fill="url(#paint64_linear)"/>
<path style="mix-blend-mode:screen" d="M205.696 64.8731C206.917 64.8731 207.907 63.883 207.907 62.6616C207.907 61.4403 206.917 60.4502 205.696 60.4502C204.474 60.4502 203.484 61.4403 203.484 62.6616C203.484 63.883 204.474 64.8731 205.696 64.8731Z" fill="url(#paint65_linear)"/>
<path d="M222.373 61.6852C222.377 62.2464 222.214 62.7961 221.904 63.2643C221.595 63.7326 221.153 64.0983 220.636 64.3149C220.118 64.5315 219.547 64.5892 218.997 64.4807C218.446 64.3721 217.94 64.1023 217.543 63.7055C217.147 63.3086 216.877 62.8027 216.768 62.2521C216.66 61.7014 216.717 61.131 216.934 60.6132C217.151 60.0955 217.516 59.6539 217.985 59.3445C218.453 59.0352 219.003 58.8721 219.564 58.876C220.307 58.8813 221.019 59.1789 221.544 59.7046C222.07 60.2303 222.368 60.9418 222.373 61.6852Z" fill="url(#paint66_linear)"/>
<path style="mix-blend-mode:screen" d="M221.794 61.6851C221.794 62.1224 221.664 62.55 221.421 62.9137C221.178 63.2773 220.833 63.5608 220.429 63.7282C220.025 63.8955 219.58 63.9393 219.151 63.854C218.722 63.7687 218.328 63.5581 218.019 63.2488C217.71 62.9395 217.499 62.5455 217.414 62.1165C217.328 61.6875 217.372 61.2429 217.539 60.8388C217.707 60.4347 217.99 60.0893 218.354 59.8463C218.718 59.6033 219.145 59.4736 219.583 59.4736C220.169 59.4736 220.732 59.7066 221.146 60.1213C221.561 60.5361 221.794 61.0986 221.794 61.6851Z" fill="url(#paint67_linear)"/>
<path d="M222.57 60.549C222.587 60.6546 222.582 60.7627 222.553 60.8659C222.525 60.969 222.474 61.0648 222.405 61.1464C222.336 61.228 222.25 61.2936 222.152 61.3386C222.055 61.3836 221.95 61.4069 221.843 61.4069C221.736 61.4069 221.63 61.3836 221.533 61.3386C221.436 61.2936 221.349 61.228 221.28 61.1464C221.211 61.0648 221.16 60.969 221.132 60.8659C221.104 60.7627 221.098 60.6546 221.115 60.549C221.144 60.3768 221.233 60.2203 221.366 60.1074C221.499 59.9946 221.668 59.9326 221.843 59.9326C222.017 59.9326 222.186 59.9946 222.319 60.1074C222.452 60.2203 222.541 60.3768 222.57 60.549Z" fill="white"/>
<path d="M208.685 61.2862C208.685 61.4764 208.609 61.6588 208.474 61.7933C208.34 61.9278 208.158 62.0034 207.967 62.0034C207.862 62.0209 207.754 62.0153 207.65 61.9868C207.547 61.9583 207.452 61.9077 207.37 61.8385C207.288 61.7693 207.223 61.6832 207.178 61.5861C207.133 61.489 207.109 61.3832 207.109 61.2762C207.109 61.1692 207.133 61.0634 207.178 60.9663C207.223 60.8692 207.288 60.7831 207.37 60.7139C207.452 60.6447 207.547 60.5941 207.65 60.5656C207.754 60.5372 207.862 60.5315 207.967 60.549C208.063 60.549 208.158 60.5682 208.246 60.6055C208.335 60.6427 208.415 60.6974 208.482 60.7661C208.548 60.8348 208.601 60.9162 208.636 61.0056C208.671 61.0949 208.687 61.1903 208.685 61.2862Z" fill="white"/>
<path d="M209.141 68.9172C209.141 68.9172 211.591 71.4673 213.125 71.4673C214.659 71.4673 216.751 68.5586 216.751 68.5586C215.567 69.1998 214.318 69.714 213.026 70.0926C211.652 70.0348 210.316 69.6304 209.141 68.9172Z" fill="#E86321"/>
<path d="M219.805 69.8933C220.083 69.8651 220.363 69.9062 220.621 70.0128C218.712 72.5895 215.965 74.421 212.852 75.1928C214.537 75.2166 216.198 74.7919 217.665 73.9622C219.132 73.1325 220.351 71.9276 221.199 70.4711C221.336 70.6837 221.43 70.9203 221.478 71.1683C221.897 69.8933 220.88 69.0964 219.805 69.8933Z" fill="#E86321"/>
<path d="M214.184 52.4212C214.184 52.4212 214.343 54.9115 215.439 54.8318C216.534 54.7521 222.97 52.8395 224.504 55.7284C224.21 54.6075 223.643 53.5769 222.854 52.7286C222.065 51.8804 221.078 51.2408 219.981 50.8672C218.614 51.0701 217.276 51.4381 215.997 51.9629L215.618 54.1345L214.941 52.3216L214.184 52.4212Z" fill="#823F00"/>
<path d="M209.84 48.9141C209.84 48.9141 210.119 51.2849 209.701 51.8626C209.282 52.4404 203.166 51.6036 200.158 56.0066C200.103 54.8332 200.286 53.6609 200.696 52.5599C201.473 50.747 203.345 49.6512 207.888 49.193C208.097 49.8929 208.263 50.6048 208.386 51.3247L209.063 49.0934L209.84 48.9141Z" fill="#823F00"/>
<path d="M262.678 176.361C260.048 189.689 227.932 209.612 227.932 209.612C227.932 209.612 223.948 205.089 224.167 204.332C224.386 203.575 239.249 188.394 242.257 175.564C245.265 162.733 239.587 145.162 239.587 145.162C239.587 145.162 226.797 155.86 224.924 161.1C223.051 166.34 224.366 194.969 224.366 194.969C215.678 197.96 206.755 200.219 197.69 201.722H196.873H196.215C190.715 202.381 185.165 202.515 179.64 202.121C179.64 202.121 175.137 175.066 175.655 154.764C176.173 134.463 177.528 116.811 177.528 116.811C177.528 116.811 169.559 105.993 169.559 102.347C180.775 94.956 196.056 95.1951 196.056 95.1951L196.614 91.6289C196.614 91.6289 198.885 97.2272 200.738 102.347L200.937 102.905C201.085 102.716 201.245 102.537 201.415 102.367C202.882 100.855 204.52 99.5175 206.296 98.3827C208.556 96.9112 210.905 95.5805 213.329 94.3982L218.469 95.474L231.558 98.1636C231.558 98.1636 253.115 113.962 257.657 120.915C262.2 127.869 265.328 163.012 262.678 176.361Z" fill="#B4CAD6"/>
<path opacity="0.2" d="M221.415 99.658C219.802 101.172 204.74 104.2 200.875 103.065C202.867 101.272 204.64 99.7975 206.234 98.5822C208.494 97.1107 210.843 95.7799 213.267 94.5977L218.407 95.6735C220.379 97.1278 222.272 98.8611 221.415 99.658Z" fill="#7898B1"/>
<path d="M196.552 91.8086C195.176 92.6079 194.005 93.7176 193.133 95.0493C192.262 96.3809 191.713 97.8977 191.531 99.4789L198.524 96.6299L196.552 91.8086Z" fill="#7898B1"/>
<g style="mix-blend-mode:multiply" opacity="0.3">
<path d="M192.026 172.935C193.201 189.789 196.01 199.034 196.867 201.803H196.209C195.193 198.814 192.544 189.55 191.368 172.895C189.415 149.011 192.587 124.986 200.672 102.428L200.871 102.986C201.019 102.797 201.179 102.617 201.35 102.448C193.22 125.002 190.04 149.042 192.026 172.935Z" fill="#89A5BB"/>
</g>
<path d="M197.551 191.641C198.002 191.641 198.368 191.276 198.368 190.825C198.368 190.374 198.002 190.008 197.551 190.008C197.1 190.008 196.734 190.374 196.734 190.825C196.734 191.276 197.1 191.641 197.551 191.641Z" fill="#C5D7E1"/>
<path d="M195.753 169.865C195.771 169.982 195.764 170.101 195.732 170.215C195.7 170.328 195.643 170.434 195.567 170.523C195.49 170.613 195.395 170.685 195.288 170.734C195.18 170.784 195.064 170.809 194.946 170.809C194.828 170.809 194.711 170.784 194.604 170.734C194.497 170.685 194.401 170.613 194.325 170.523C194.248 170.434 194.192 170.328 194.16 170.215C194.128 170.101 194.12 169.982 194.139 169.865C194.169 169.673 194.267 169.498 194.415 169.372C194.563 169.245 194.751 169.176 194.946 169.176C195.14 169.176 195.329 169.245 195.476 169.372C195.624 169.498 195.722 169.673 195.753 169.865Z" fill="#C5D7E1"/>
<path d="M194.758 150.681C195.209 150.681 195.575 150.315 195.575 149.864C195.575 149.413 195.209 149.047 194.758 149.047C194.307 149.047 193.941 149.413 193.941 149.864C193.941 150.315 194.307 150.681 194.758 150.681Z" fill="#C5D7E1"/>
<path d="M197.548 130.24C197.548 130.456 197.462 130.664 197.308 130.817C197.155 130.97 196.948 131.057 196.731 131.057C196.514 131.057 196.306 130.97 196.153 130.817C196 130.664 195.914 130.456 195.914 130.24C195.914 130.023 196 129.815 196.153 129.662C196.306 129.509 196.514 129.423 196.731 129.423C196.946 129.428 197.151 129.516 197.303 129.668C197.455 129.82 197.543 130.025 197.548 130.24Z" fill="#C5D7E1"/>
<path d="M201.133 111.91C201.584 111.91 201.95 111.544 201.95 111.093C201.95 110.642 201.584 110.276 201.133 110.276C200.682 110.276 200.316 110.642 200.316 111.093C200.316 111.544 200.682 111.91 201.133 111.91Z" fill="#C5D7E1"/>
<path d="M184.059 202.021C184.059 202.758 184.796 207.38 184.796 207.38C184.796 207.38 186.987 207.38 186.908 207.062C186.828 206.743 185.931 201.941 185.931 201.941L184.059 202.021Z" fill="#24353A"/>
<path d="M211.832 198.375C212.211 200.11 212.697 201.82 213.286 203.495C213.878 203.21 214.509 203.015 215.159 202.918L213.366 197.718L211.832 198.375Z" fill="#24353A"/>
<path d="M192.828 201.782C193.347 203.491 194.014 205.15 194.82 206.743C195.059 206.484 201.315 205.607 201.315 205.607L200.1 200.886L192.828 201.782Z" fill="#7BA4AB"/>
<path d="M213.266 94.5981C215.45 98.0212 217.027 101.795 217.928 105.755C218.087 105.356 230.3 99.778 231.495 98.3236C231.329 95.567 230.653 92.865 229.503 90.3545C224.277 92.4041 218.826 93.8285 213.266 94.5981Z" fill="#C5D7E1"/>
<path d="M224.184 204.353L218.586 207.879L224.105 213.816L227.95 209.612L224.184 204.353Z" fill="#C5D7E1"/>
<path d="M164.017 202.838C163.798 202.997 164.296 210.548 164.296 210.548C166.754 211.038 169.296 210.901 171.687 210.15C171.52 207.97 171.126 205.813 170.511 203.714L164.017 202.838Z" fill="#C5D7E1"/>
<g style="mix-blend-mode:screen" opacity="0.4">
<path d="M211.354 126.036L224.185 132.212L223.049 134.324L210.219 127.65L211.354 126.036Z" fill="#B4CAD6"/>
</g>
<defs>
<linearGradient id="paint0_linear" x1="64.7037" y1="205.209" x2="41.2745" y2="327.236" gradientUnits="userSpaceOnUse">
<stop offset="0.16" stop-color="#6C442F"/>
<stop offset="1" stop-color="#221609"/>
</linearGradient>
<linearGradient id="paint1_linear" x1="69.5869" y1="208.118" x2="67.3954" y2="227.981" gradientUnits="userSpaceOnUse">
<stop offset="0.11" stop-color="#6C442F"/>
<stop offset="1" stop-color="#804F37"/>
</linearGradient>
<linearGradient id="paint2_linear" x1="-2478.61" y1="1004.68" x2="-2476.27" y2="1004.68" gradientUnits="userSpaceOnUse">
<stop offset="0.11" stop-color="#6C442F"/>
<stop offset="1" stop-color="#804F37"/>
</linearGradient>
<linearGradient id="paint3_linear" x1="-3521.1" y1="840.916" x2="-3516.35" y2="840.916" gradientUnits="userSpaceOnUse">
<stop offset="0.11" stop-color="#6C442F"/>
<stop offset="1" stop-color="#804F37"/>
</linearGradient>
<radialGradient id="paint4_radial" cx="0" cy="0" r="1" gradientUnits="userSpaceOnUse" gradientTransform="translate(66.1995 175.644) rotate(180) scale(43.5114)">
<stop stop-color="#E2D9B8"/>
<stop offset="0.34" stop-color="#EAE4C9"/>
<stop offset="1" stop-color="#F9F8E7"/>
</radialGradient>
<linearGradient id="paint5_linear" x1="51.7147" y1="119.76" x2="50.4995" y2="201.125" gradientUnits="userSpaceOnUse">
<stop offset="0.33" stop-color="#F9F8E7"/>
<stop offset="0.55" stop-color="#F3F0DA"/>
<stop offset="0.95" stop-color="#E2DAB9"/>
<stop offset="0.96" stop-color="#E2D9B8"/>
</linearGradient>
<linearGradient id="paint6_linear" x1="50.9512" y1="113.724" x2="52.306" y2="95.913" gradientUnits="userSpaceOnUse">
<stop offset="0.17" stop-color="#FFA65C"/>
<stop offset="0.34" stop-color="#FE9E50"/>
<stop offset="0.64" stop-color="#FA882F"/>
<stop offset="1" stop-color="#F46A00"/>
</linearGradient>
<linearGradient id="paint7_linear" x1="28.1109" y1="131.701" x2="25.4223" y2="215.845" gradientUnits="userSpaceOnUse">
<stop offset="0.33" stop-color="#F9F8E7"/>
<stop offset="0.55" stop-color="#F3F0DA"/>
<stop offset="0.95" stop-color="#E2DAB9"/>
<stop offset="0.96" stop-color="#E2D9B8"/>
</linearGradient>
<linearGradient id="paint8_linear" x1="62.4106" y1="131.176" x2="65.6978" y2="204.312" gradientUnits="userSpaceOnUse">
<stop offset="0.83" stop-color="#FFFDEC"/>
<stop offset="0.87" stop-color="#F8F4DF"/>
<stop offset="0.94" stop-color="#E5DDBE"/>
<stop offset="0.96" stop-color="#E2D9B8"/>
</linearGradient>
<linearGradient id="paint9_linear" x1="-8193.12" y1="1178.81" x2="-8175.24" y2="1201.3" gradientUnits="userSpaceOnUse">
<stop offset="0.33" stop-color="#F9F8E7"/>
<stop offset="0.55" stop-color="#F3F0DA"/>
<stop offset="0.95" stop-color="#E2DAB9"/>
<stop offset="0.96" stop-color="#E2D9B8"/>
</linearGradient>
<radialGradient id="paint10_radial" cx="0" cy="0" r="1" gradientUnits="userSpaceOnUse" gradientTransform="translate(-5845.46 1087.1) scale(8.38432 13.2086)">
<stop stop-color="#E2D9B8"/>
<stop offset="0.34" stop-color="#EAE4C9"/>
<stop offset="1" stop-color="#F9F8E7"/>
</radialGradient>
<linearGradient id="paint11_linear" x1="30.9444" y1="64.1866" x2="23.7228" y2="63.3024" gradientUnits="userSpaceOnUse">
<stop stop-color="#20242B"/>
<stop offset="0.66" stop-color="#2B313D"/>
</linearGradient>
<linearGradient id="paint12_linear" x1="68.1452" y1="70.5089" x2="39.9847" y2="89.7589" gradientUnits="userSpaceOnUse">
<stop offset="0.73" stop-color="#FFA65C"/>
<stop offset="1" stop-color="#FF8E36"/>
</linearGradient>
<linearGradient id="paint13_linear" x1="50.945" y1="64.2625" x2="56.4275" y2="80.4268" gradientUnits="userSpaceOnUse">
<stop stop-color="#ED6911"/>
<stop offset="0.84" stop-color="#FEA561"/>
</linearGradient>
<linearGradient id="paint14_linear" x1="64.9521" y1="67.1774" x2="71.8494" y2="81.4178" gradientUnits="userSpaceOnUse">
<stop stop-color="#ED6911"/>
<stop offset="0.84" stop-color="#FEA561"/>
</linearGradient>
<linearGradient id="paint15_linear" x1="49.96" y1="63.0397" x2="39.0536" y2="80.2243" gradientUnits="userSpaceOnUse">
<stop offset="0.34" stop-color="#2B313D"/>
<stop offset="1" stop-color="#20242B"/>
</linearGradient>
<linearGradient id="paint16_linear" x1="62.7606" y1="80.2989" x2="62.5114" y2="92.3757" gradientUnits="userSpaceOnUse">
<stop offset="0.15" stop-color="#FFA65C"/>
<stop offset="0.3" stop-color="#FFA056"/>
<stop offset="0.51" stop-color="#FD8E44"/>
<stop offset="0.75" stop-color="#FB7126"/>
<stop offset="1" stop-color="#F94C00"/>
</linearGradient>
<linearGradient id="paint17_linear" x1="-11543" y1="499.745" x2="-11493.3" y2="499.745" gradientUnits="userSpaceOnUse">
<stop offset="0.34" stop-color="#2B313D"/>
<stop offset="1" stop-color="#20242B"/>
</linearGradient>
<linearGradient id="paint18_linear" x1="-5085.14" y1="412.602" x2="-5075.32" y2="412.602" gradientUnits="userSpaceOnUse">
<stop offset="0.34" stop-color="#2B313D"/>
<stop offset="1" stop-color="#20242B"/>
</linearGradient>
<linearGradient id="paint19_linear" x1="36.5165" y1="85.6298" x2="41.0435" y2="88.0353" gradientUnits="userSpaceOnUse">
<stop stop-color="white"/>
<stop offset="0.09" stop-color="#FEF8F3"/>
<stop offset="0.25" stop-color="#FDE4D1"/>
<stop offset="0.47" stop-color="#FBC59C"/>
<stop offset="0.73" stop-color="#F89A51"/>
<stop offset="1" stop-color="#F46A00"/>
</linearGradient>
<linearGradient id="paint20_linear" x1="64.2233" y1="113.863" x2="58.4656" y2="113.863" gradientUnits="userSpaceOnUse">
<stop offset="0.18" stop-color="#F9F8E7"/>
<stop offset="0.45" stop-color="#F3F0DA"/>
<stop offset="0.95" stop-color="#E2DAB9"/>
<stop offset="0.96" stop-color="#E2D9B8"/>
</linearGradient>
<linearGradient id="paint21_linear" x1="-25394.9" y1="674.151" x2="-25233.9" y2="584.29" gradientUnits="userSpaceOnUse">
<stop offset="0.18" stop-color="#F9F8E7"/>
<stop offset="0.45" stop-color="#F3F0DA"/>
<stop offset="0.95" stop-color="#E2DAB9"/>
<stop offset="0.96" stop-color="#E2D9B8"/>
</linearGradient>
<linearGradient id="paint22_linear" x1="8709.26" y1="1586.93" x2="8748.29" y2="1535.37" gradientUnits="userSpaceOnUse">
<stop offset="0.11" stop-color="#6C442F"/>
<stop offset="1" stop-color="#804F37"/>
</linearGradient>
<linearGradient id="paint23_linear" x1="3050.79" y1="1522.43" x2="3073.06" y2="1565.94" gradientUnits="userSpaceOnUse">
<stop offset="0.11" stop-color="#6C442F"/>
<stop offset="1" stop-color="#804F37"/>
</linearGradient>
<linearGradient id="paint24_linear" x1="63.1741" y1="84.7842" x2="63.7779" y2="81.6452" gradientUnits="userSpaceOnUse">
<stop stop-color="#562B00"/>
<stop offset="0.29" stop-color="#321900"/>
<stop offset="0.57" stop-color="#170B00"/>
<stop offset="0.81" stop-color="#060300"/>
<stop offset="1"/>
</linearGradient>
<linearGradient id="paint25_linear" x1="650.84" y1="238.978" x2="651.822" y2="232.773" gradientUnits="userSpaceOnUse">
<stop stop-color="#562B00"/>
<stop offset="0.29" stop-color="#321900"/>
<stop offset="0.57" stop-color="#170B00"/>
<stop offset="0.81" stop-color="#060300"/>
<stop offset="1"/>
</linearGradient>
<radialGradient id="paint26_radial" cx="0" cy="0" r="1" gradientUnits="userSpaceOnUse" gradientTransform="translate(115.645 172.863) rotate(180) scale(158.526 134.747)">
<stop stop-color="#693D2B"/>
<stop offset="1" stop-color="#844B34"/>
</radialGradient>
<radialGradient id="paint27_radial" cx="0" cy="0" r="1" gradientUnits="userSpaceOnUse" gradientTransform="translate(-4240.97 5184.77) rotate(180) scale(357.96 1124.87)">
<stop stop-color="#693D2B"/>
<stop offset="1" stop-color="#844B34"/>
</radialGradient>
<linearGradient id="paint28_linear" x1="111.242" y1="128.766" x2="103.353" y2="125.737" gradientUnits="userSpaceOnUse">
<stop offset="0.2" stop-color="#844B34"/>
<stop offset="1" stop-color="white"/>
</linearGradient>
<radialGradient id="paint29_radial" cx="0" cy="0" r="1" gradientUnits="userSpaceOnUse" gradientTransform="translate(502.157 1155.86) rotate(180) scale(96.0702 184.098)">
<stop stop-color="#ED6911"/>
<stop offset="1" stop-color="#FEA561"/>
</radialGradient>
<linearGradient id="paint30_linear" x1="136.781" y1="4.20772" x2="139.09" y2="46.461" gradientUnits="userSpaceOnUse">
<stop stop-color="#814600"/>
<stop offset="1" stop-color="#632400"/>
</linearGradient>
<linearGradient id="paint31_linear" x1="159.86" y1="31.6613" x2="148.594" y2="40.4606" gradientUnits="userSpaceOnUse">
<stop stop-color="#8E4600"/>
<stop offset="1" stop-color="#632400"/>
</linearGradient>
<linearGradient id="paint32_linear" x1="-337.976" y1="207.451" x2="-269.889" y2="232.099" gradientUnits="userSpaceOnUse">
<stop stop-color="#8E4600"/>
<stop offset="1" stop-color="#632400"/>
</linearGradient>
<linearGradient id="paint33_linear" x1="138.118" y1="6.0408" x2="143.725" y2="24.383" gradientUnits="userSpaceOnUse">
<stop stop-color="#9A5200"/>
<stop offset="1" stop-color="#632400"/>
</linearGradient>
<linearGradient id="paint34_linear" x1="-109.728" y1="116.416" x2="-170.46" y2="194.683" gradientUnits="userSpaceOnUse">
<stop stop-color="#9A5200"/>
<stop offset="1" stop-color="#632400"/>
</linearGradient>
<linearGradient id="paint35_linear" x1="114.354" y1="32.012" x2="122.15" y2="47.3054" gradientUnits="userSpaceOnUse">
<stop stop-color="#ED6911"/>
<stop offset="0.84" stop-color="#FEA561"/>
</linearGradient>
<linearGradient id="paint36_linear" x1="127.313" y1="32.565" x2="133.087" y2="49.7026" gradientUnits="userSpaceOnUse">
<stop stop-color="#ED6911"/>
<stop offset="0.84" stop-color="#FEA561"/>
</linearGradient>
<linearGradient id="paint37_linear" x1="-319.072" y1="201.111" x2="-261.757" y2="201.111" gradientUnits="userSpaceOnUse">
<stop stop-color="#814600"/>
<stop offset="1" stop-color="#632400"/>
</linearGradient>
<linearGradient id="paint38_linear" x1="38.0017" y1="94.5786" x2="40.9423" y2="94.5786" gradientUnits="userSpaceOnUse">
<stop stop-color="#814600"/>
<stop offset="1" stop-color="#632400"/>
</linearGradient>
<linearGradient id="paint39_linear" x1="-138.311" y1="102.078" x2="-109.01" y2="102.078" gradientUnits="userSpaceOnUse">
<stop stop-color="#814600"/>
<stop offset="1" stop-color="#632400"/>
</linearGradient>
<linearGradient id="paint40_linear" x1="281.587" y1="48.6443" x2="244.369" y2="48.024" gradientUnits="userSpaceOnUse">
<stop stop-color="#814600"/>
<stop offset="1" stop-color="#632400"/>
</linearGradient>
<linearGradient id="paint41_linear" x1="70.251" y1="292.111" x2="58.1995" y2="292.834" gradientUnits="userSpaceOnUse">
<stop stop-color="#814600"/>
<stop offset="1" stop-color="#632400"/>
</linearGradient>
<linearGradient id="paint42_linear" x1="121.3" y1="59.912" x2="124.488" y2="49.0142" gradientUnits="userSpaceOnUse">
<stop stop-color="#ED6911"/>
<stop offset="1" stop-color="#FF9C4F"/>
</linearGradient>
<linearGradient id="paint43_linear" x1="204.413" y1="234.255" x2="177.041" y2="245.903" gradientUnits="userSpaceOnUse">
<stop offset="0.31" stop-color="white"/>
<stop offset="0.96" stop-color="#E17C1F"/>
</linearGradient>
<linearGradient id="paint44_linear" x1="132.034" y1="48.6758" x2="131.935" y2="45.9474" gradientUnits="userSpaceOnUse">
<stop stop-color="#2A50AD"/>
<stop offset="1"/>
</linearGradient>
<linearGradient id="paint45_linear" x1="13.9655" y1="165.535" x2="13.4253" y2="160.878" gradientUnits="userSpaceOnUse">
<stop stop-color="#2A50AD"/>
<stop offset="1"/>
</linearGradient>
<radialGradient id="paint46_radial" cx="0" cy="0" r="1" gradientUnits="userSpaceOnUse" gradientTransform="translate(-6286.09 8000.48) rotate(180) scale(698.721 1939.1)">
<stop stop-color="#693D2B"/>
<stop offset="1" stop-color="#844B34"/>
</radialGradient>
<radialGradient id="paint47_radial" cx="0" cy="0" r="1" gradientUnits="userSpaceOnUse" gradientTransform="translate(-1345.58 856.819) rotate(180) scale(35.5753 35.936)">
<stop stop-color="#ED6911"/>
<stop offset="1" stop-color="#FEA561"/>
</radialGradient>
<radialGradient id="paint48_radial" cx="0" cy="0" r="1" gradientUnits="userSpaceOnUse" gradientTransform="translate(149.554 95.9527) rotate(180) scale(61.2428)">
<stop offset="0.2" stop-color="#844B34"/>
<stop offset="1" stop-color="#96553B"/>
</radialGradient>
<radialGradient id="paint49_radial" cx="0" cy="0" r="1" gradientUnits="userSpaceOnUse" gradientTransform="translate(167.386 216.167) scale(4.42287)">
<stop stop-color="#FE8D31"/>
<stop offset="1" stop-color="#FEA561"/>
</radialGradient>
<radialGradient id="paint50_radial" cx="0" cy="0" r="1" gradientUnits="userSpaceOnUse" gradientTransform="translate(164.616 218.398) scale(1.81298)">
<stop offset="0.71" stop-color="#FEA561"/>
<stop offset="1" stop-color="#FE8D31"/>
</radialGradient>
<radialGradient id="paint51_radial" cx="0" cy="0" r="1" gradientUnits="userSpaceOnUse" gradientTransform="translate(381.179 712.196) scale(2.30553 4.07495)">
<stop offset="0.71" stop-color="#FEA561"/>
<stop offset="1" stop-color="#FE8D31"/>
</radialGradient>
<radialGradient id="paint52_radial" cx="0" cy="0" r="1" gradientUnits="userSpaceOnUse" gradientTransform="translate(385.163 711.625) scale(2.29313 4.07664)">
<stop offset="0.71" stop-color="#FEA561"/>
<stop offset="1" stop-color="#FE8D31"/>
</radialGradient>
<radialGradient id="paint53_radial" cx="0" cy="0" r="1" gradientUnits="userSpaceOnUse" gradientTransform="translate(361.484 636.57) scale(1.69077 2.92528)">
<stop offset="0.71" stop-color="#FEA561"/>
<stop offset="1" stop-color="#FE8D31"/>
</radialGradient>
<radialGradient id="paint54_radial" cx="0" cy="0" r="1" gradientUnits="userSpaceOnUse" gradientTransform="translate(174.814 151.477) scale(41.8379)">
<stop stop-color="#9EB8CD"/>
<stop offset="1" stop-color="#B4CAD6"/>
</radialGradient>
<linearGradient id="paint55_linear" x1="6867.53" y1="14066.9" x2="8143.59" y2="19105.4" gradientUnits="userSpaceOnUse">
<stop stop-color="#24353A"/>
<stop offset="1" stop-color="#444F54"/>
</linearGradient>
<linearGradient id="paint56_linear" x1="212.512" y1="213.119" x2="224.107" y2="213.119" gradientUnits="userSpaceOnUse">
<stop stop-color="#FEA561"/>
<stop offset="1" stop-color="#FE8D31"/>
</linearGradient>
<radialGradient id="paint57_radial" cx="0" cy="0" r="1" gradientUnits="userSpaceOnUse" gradientTransform="translate(3006.08 1197.65) scale(295.307 293.631)">
<stop stop-color="#ED6911"/>
<stop offset="1" stop-color="#FEA561"/>
</radialGradient>
<linearGradient id="paint58_linear" x1="192.306" y1="67.1638" x2="198.144" y2="67.1638" gradientUnits="userSpaceOnUse">
<stop offset="0.1" stop-color="#FEA561"/>
<stop offset="1" stop-color="#FA7912"/>
</linearGradient>
<linearGradient id="paint59_linear" x1="881.289" y1="417.188" x2="865.999" y2="418.09" gradientUnits="userSpaceOnUse">
<stop offset="0.1" stop-color="#FEA561"/>
<stop offset="1" stop-color="#FA7912"/>
</linearGradient>
<linearGradient id="paint60_linear" x1="484.501" y1="313.789" x2="482.042" y2="313.685" gradientUnits="userSpaceOnUse">
<stop offset="0.35" stop-color="white"/>
<stop offset="1" stop-color="#E17C1F"/>
</linearGradient>
<linearGradient id="paint61_linear" x1="288.392" y1="472.411" x2="291.487" y2="471.862" gradientUnits="userSpaceOnUse">
<stop offset="0.35" stop-color="white"/>
<stop offset="1" stop-color="#E17C1F"/>
</linearGradient>
<linearGradient id="paint62_linear" x1="216.018" y1="49.7509" x2="221.637" y2="64.2547" gradientUnits="userSpaceOnUse">
<stop stop-color="#ED6911"/>
<stop offset="0.84" stop-color="#FEA561"/>
</linearGradient>
<linearGradient id="paint63_linear" x1="201.339" y1="46.2171" x2="210.316" y2="65.2218" gradientUnits="userSpaceOnUse">
<stop stop-color="#ED6911"/>
<stop offset="0.84" stop-color="#FEA561"/>
</linearGradient>
<linearGradient id="paint64_linear" x1="205.718" y1="59.9915" x2="205.658" y2="65.5699" gradientUnits="userSpaceOnUse">
<stop stop-color="#7B4A00"/>
<stop offset="1"/>
</linearGradient>
<linearGradient id="paint65_linear" x1="1096.64" y1="201.761" x2="1096.77" y2="194.64" gradientUnits="userSpaceOnUse">
<stop stop-color="#7B4A00"/>
<stop offset="1"/>
</linearGradient>
<linearGradient id="paint66_linear" x1="849.798" y1="231.731" x2="849.628" y2="247.573" gradientUnits="userSpaceOnUse">
<stop stop-color="#7B4A00"/>
<stop offset="1"/>
</linearGradient>
<linearGradient id="paint67_linear" x1="712.113" y1="204.942" x2="712.245" y2="197.777" gradientUnits="userSpaceOnUse">
<stop stop-color="#7B4A00"/>
<stop offset="1"/>
</linearGradient>
</defs>
</svg>
